<?xml version="1.0" encoding="utf-8"?>
<!-- Generator: Adobe Illustrator 22.0.1, SVG Export Plug-In . SVG Version: 6.00 Build 0)  -->
<svg version="1.1" id="Layer_1" xmlns="http://www.w3.org/2000/svg" xmlns:xlink="http://www.w3.org/1999/xlink" x="0px" y="0px"
	 viewBox="0 0 350 350" style="enable-background:new 0 0 350 350;" xml:space="preserve">
<style type="text/css">
	.st0{fill:none;stroke:#777777;stroke-width:0.15;stroke-miterlimit:10;}
	.st1{stroke:#444444;stroke-width:0.25;}
</style>
<g>
	<g id="edges">
		<path class="st0" d="M306.6,81.5l-53.4-47.7"/>
		<path class="st0" d="M306.6,81.5l-70.3-55.8"/>
		<path class="st0" d="M320.8,244.2l9.4-25"/>
		<path class="st0" d="M320.8,244.2l14.9-53.9"/>
		<path class="st0" d="M14.5,158.3l-0.8,13.3"/>
		<path class="st0" d="M14.5,158.3l-0.9,16"/>
		<path class="st0" d="M335.6,158.3l-1.1-8"/>
		<path class="st0" d="M335.6,158.3l-39.8,123.7"/>
		<path class="st0" d="M305,79.4l-6.6-8.4"/>
		<path class="st0" d="M305,79.4l-63.8-51.6"/>
		<path class="st0" d="M321.9,241.7L20.6,221.8"/>
		<path class="st0" d="M321.9,241.7l-298-9.8"/>
		<path class="st0" d="M321.9,241.7L36.8,258.4"/>
		<path class="st0" d="M321.9,241.7l14.1-56.7"/>
		<path class="st0" d="M185.7,336l18.6-2.3"/>
		<path class="st0" d="M185.7,336l29-4.6"/>
		<path class="st0" d="M185.7,336l39.4-7.6"/>
		<path class="st0" d="M185.7,336l49.4-11.2"/>
		<path class="st0" d="M324.5,114.3l-5.5-12.2"/>
		<path class="st0" d="M303.4,77.2l-14.1-16.1"/>
		<path class="st0" d="M303.4,77.2l-17.9-19.9"/>
		<path class="st0" d="M303.4,77.2l-38.8-36.5"/>
		<path class="st0" d="M303.4,77.2L216,18.9"/>
		<path class="st0" d="M335.2,155.6l-0.7-5.3"/>
		<path class="st0" d="M335.2,155.6l-1.2-7.9"/>
		<path class="st0" d="M335.2,155.6l-3.3-18.4"/>
		<path class="st0" d="M13.6,177l243,137.2"/>
		<path class="st0" d="M13.6,177l0.5,10.7"/>
		<path class="st0" d="M13.6,177l0.7,13.4"/>
		<path class="st0" d="M13.6,177l1.3,18.7"/>
		<path class="st0" d="M15.3,198.3l21.5,60.1"/>
		<path class="st0" d="M15.7,201l31.7,72.8"/>
		<path class="st0" d="M301.8,75.1l-3.4-4.1"/>
		<path class="st0" d="M301.8,75.1l-14.3-15.8"/>
		<path class="st0" d="M16.2,203.6l4.4,18.2"/>
		<path class="st0" d="M16.2,203.6l11.9,38.2"/>
		<path class="st0" d="M16.2,203.6l20.7,54.8"/>
		<path class="st0" d="M323,239.4l8.6-25.3"/>
		<path class="st0" d="M32.2,99.8l-14.1,37.5"/>
		<path class="st0" d="M32.2,99.8l-15.8,45.3"/>
		<path class="st0" d="M173.7,13.6l-55,10.2"/>
		<path class="st0" d="M16.7,206.2l7.3,25.7"/>
		<path class="st0" d="M16.7,206.2l11.4,35.6"/>
		<path class="st0" d="M16.7,206.2l17.4,47.5"/>
		<path class="st0" d="M16.7,206.2l30.7,67.6"/>
		<path class="st0" d="M31,102.1l-14.6,42.9"/>
		<path class="st0" d="M31,102.1l-16.2,53.5"/>
		<path class="st0" d="M49.1,275.9l42.1,36.7"/>
		<path class="st0" d="M49.1,275.9l60.9,46.8"/>
		<path class="st0" d="M247.3,319.3l2.4-1.2"/>
		<path class="st0" d="M247.3,319.3l9.4-5.1"/>
		<path class="st0" d="M247.3,319.3l22.8-13.9"/>
		<path class="st0" d="M247.3,319.3l29.2-18.8"/>
		<path class="st0" d="M247.3,319.3l35.3-24"/>
		<path class="st0" d="M247.3,319.3l48.5-37.3"/>
		<path class="st0" d="M247.3,319.3l65.8-61"/>
		<path class="st0" d="M29.8,104.5l-12.3,35.3"/>
		<path class="st0" d="M29.8,104.5l-13.4,40.5"/>
		<path class="st0" d="M50.8,278l24.9,24.2"/>
		<path class="st0" d="M50.8,278l245,4.1"/>
		<path class="st0" d="M50.8,278l40.4,34.7"/>
		<path class="st0" d="M50.8,278l49.6,40.1"/>
		<path class="st0" d="M50.8,278l59.3,44.7"/>
		<path class="st0" d="M116.2,24.7L45,79.4"/>
		<path class="st0" d="M28.7,107l-13.1,43.4"/>
		<path class="st0" d="M27.5,109.4l3.4-7.2"/>
		<path class="st0" d="M27.5,109.4l-7.4,20.1"/>
		<path class="st0" d="M27.5,109.4l-8.7,25.2"/>
		<path class="st0" d="M27.5,109.4l-11.1,35.7"/>
		<path class="st0" d="M27.5,109.4L15.1,153"/>
		<path class="st0" d="M27.5,109.4l-12.8,46.2"/>
		<path class="st0" d="M213.4,18.2l108.5,223.5"/>
		<path class="st0" d="M213.4,18.2l85,52.7"/>
		<path class="st0" d="M213.4,18.2l-15.8-2.9"/>
		<path class="st0" d="M213.4,18.2l-29.1-4.4"/>
		<path class="st0" d="M323.5,111.8l-3.3-7.3"/>
		<path class="st0" d="M249.6,318.1l7-3.9"/>
		<path class="st0" d="M249.6,318.1l26.8-17.6"/>
		<path class="st0" d="M249.6,318.1l32.9-22.8"/>
		<path class="st0" d="M249.6,318.1l46.1-36"/>
		<path class="st0" d="M249.6,318.1l63.5-59.8"/>
		<path class="st0" d="M191,335.6l31.4-6.3"/>
		<path class="st0" d="M191,335.6l46.5-11.8"/>
		<path class="st0" d="M300.1,73l-1.7-2.1"/>
		<path class="st0" d="M298.4,71l-75.9,258.3"/>
		<path class="st0" d="M298.4,71l-64.6-46.3"/>
		<path class="st0" d="M113.8,25.8L81,43.8"/>
		<path class="st0" d="M113.8,25.8L64.5,57.4"/>
		<path class="st0" d="M113.8,25.8L56.9,65"/>
		<path class="st0" d="M113.8,25.8L46.6,77.2"/>
		<path class="st0" d="M334.9,153l-0.8-5.3"/>
		<path class="st0" d="M111.2,26.7L76.8,47.1"/>
		<path class="st0" d="M252,316.8l24.4-16.3"/>
		<path class="st0" d="M252,316.8l30.6-21.5"/>
		<path class="st0" d="M252,316.8l67.6-70.2"/>
		<path class="st0" d="M296.6,68.9l-15.1-15.2"/>
		<path class="st0" d="M294.9,66.9L279.5,52"/>
		<path class="st0" d="M294.9,66.9l-32.5-27.6"/>
		<path class="st0" d="M26.5,111.8l2.2-4.9"/>
		<path class="st0" d="M26.5,111.8l-2,5"/>
		<path class="st0" d="M26.5,111.8l-4.7,12.5"/>
		<path class="st0" d="M26.5,111.8l-8.4,25.4"/>
		<path class="st0" d="M26.5,111.8l-10.5,35.9"/>
		<path class="st0" d="M193.7,335.3l21-3.9"/>
		<path class="st0" d="M108.8,27.8l-9.6,4.7"/>
		<path class="st0" d="M108.8,27.8L56.9,65"/>
		<path class="st0" d="M254.3,315.5l51.5-46"/>
		<path class="st0" d="M256.7,314.2l25.9-18.9"/>
		<path class="st0" d="M256.7,314.2l39.1-32.1"/>
		<path class="st0" d="M256.7,314.2l49.2-44.6"/>
		<path class="st0" d="M256.7,314.2l61.7-65.2"/>
		<path class="st0" d="M293.1,65l-26.3-22.7"/>
		<path class="st0" d="M293.1,65l-69.3-43.8"/>
		<path class="st0" d="M196.3,335l13.2-2.3"/>
		<path class="st0" d="M196.3,335l21-4.2"/>
		<path class="st0" d="M196.3,335l43.6-12.2"/>
		<path class="st0" d="M199,334.6l23.5-5.3"/>
		<path class="st0" d="M199,334.6l33.6-8.8"/>
		<path class="st0" d="M199,334.6l43.4-13"/>
		<path class="st0" d="M114.9,324.8l167.6-29.5"/>
		<path class="st0" d="M17.2,208.9l16.9,44.9"/>
		<path class="st0" d="M17.2,208.9l18.3,47.2"/>
		<path class="st0" d="M17.2,208.9l27,60.7"/>
		<path class="st0" d="M137.9,332.1l5.2,1.1"/>
		<path class="st0" d="M137.9,332.1l15.8,2.9"/>
		<path class="st0" d="M137.9,332.1l18.4,3.2"/>
		<path class="st0" d="M106.4,28.9l-16.5,8.9"/>
		<path class="st0" d="M106.4,28.9L81,43.8"/>
		<path class="st0" d="M106.4,28.9L58.8,63"/>
		<path class="st0" d="M106.4,28.9L53.4,69"/>
		<path class="st0" d="M106.4,28.9L49.9,73"/>
		<path class="st0" d="M106.4,28.9L41.9,83.7"/>
		<path class="st0" d="M334.5,150.3L298.4,71"/>
		<path class="st0" d="M334.5,150.3l-38.7,131.7"/>
		<path class="st0" d="M210.8,17.6l2.6,0.6"/>
		<path class="st0" d="M210.8,17.6L203,16"/>
		<path class="st0" d="M259,312.8l23.5-17.5"/>
		<path class="st0" d="M52.5,280l38.7,32.6"/>
		<path class="st0" d="M52.5,280l57.5,42.7"/>
		<path class="st0" d="M54.2,282.1l34.5,29.3"/>
		<path class="st0" d="M54.2,282.1l50.9,38.4"/>
		<path class="st0" d="M261.2,311.4l49.1-48.5"/>
		<path class="st0" d="M261.2,311.4l54.6-57.7"/>
		<path class="st0" d="M17.8,211.5l2.8,10.3"/>
		<path class="st0" d="M17.8,211.5l25,55.8"/>
		<path class="st0" d="M103.9,30.1l2.4-1.2"/>
		<path class="st0" d="M103.9,30.1L81,43.8"/>
		<path class="st0" d="M103.9,30.1L49.9,73"/>
		<path class="st0" d="M103.9,30.1l-55.7,45"/>
		<path class="st0" d="M103.9,30.1L43.4,81.5"/>
		<path class="st0" d="M103.9,30.1l-69.2,65"/>
		<path class="st0" d="M291.3,63l15.3,18.5"/>
		<path class="st0" d="M291.3,63l-2-1.9"/>
		<path class="st0" d="M291.3,63l-26.7-22.2"/>
		<path class="st0" d="M291.3,63l-38.1-29.2"/>
		<path class="st0" d="M291.3,63l-45.2-32.9"/>
		<path class="st0" d="M291.3,63l-55-37.3"/>
		<path class="st0" d="M291.3,63L216,18.9"/>
		<path class="st0" d="M289.3,61.2l17.3,20.4"/>
		<path class="st0" d="M289.3,61.2l-36.1-27.4"/>
		<path class="st0" d="M289.3,61.2l-53-35.5"/>
		<path class="st0" d="M325,234.4l10.4-41.4"/>
		<path class="st0" d="M325,234.4l10.9-70.8"/>
		<path class="st0" d="M326.1,231.9l-5.3,12.3"/>
		<path class="st0" d="M326.1,231.9l4.1-12.7"/>
		<path class="st0" d="M326.1,231.9l9.6-41.6"/>
		<path class="st0" d="M326.9,229.4l8.7-39.1"/>
		<path class="st0" d="M287.5,59.3L298.4,71"/>
		<path class="st0" d="M334.1,147.7l1.8,13.3"/>
		<path class="st0" d="M334.1,147.7L298.4,71"/>
		<path class="st0" d="M159,335.6l10.7,0.7"/>
		<path class="st0" d="M159,335.6l13.4,0.8"/>
		<path class="st0" d="M159,335.6l21.4,0.7"/>
		<path class="st0" d="M159,335.6l24,0.6"/>
		<path class="st0" d="M315.2,95.1l-5.6-9.1"/>
		<path class="st0" d="M315.2,95.1l-7.1-11.3"/>
		<path class="st0" d="M322.5,109.4l-3.4-7.2"/>
		<path class="st0" d="M25.5,114.3l3.2-7.4"/>
		<path class="st0" d="M25.5,114.3l-3.7,10"/>
		<path class="st0" d="M25.5,114.3l-9.5,33.4"/>
		<path class="st0" d="M101.6,31.4l14.6-6.7"/>
		<path class="st0" d="M101.6,31.4L56.9,65"/>
		<path class="st0" d="M101.6,31.4l-68.1,66"/>
		<path class="st0" d="M171,13.6l-21.4,2"/>
		<path class="st0" d="M171,13.6l-31.8,4"/>
		<path class="st0" d="M171,13.6l-49.8,9.2"/>
		<path class="st0" d="M285.5,57.4L298.4,71"/>
		<path class="st0" d="M285.5,57.4l3.8,3.8"/>
		<path class="st0" d="M285.5,57.4l-20.9-16.6"/>
		<path class="st0" d="M285.5,57.4l-37-26.1"/>
		<path class="st0" d="M285.5,57.4l-66.9-37.8"/>
		<path class="st0" d="M285.5,57.4L216,18.9"/>
		<path class="st0" d="M18.4,214.1l29,59.7"/>
		<path class="st0" d="M161.6,335.8l2.7,0.2"/>
		<path class="st0" d="M161.6,335.8l5.4,0.3"/>
		<path class="st0" d="M161.6,335.8l8,0.5"/>
		<path class="st0" d="M161.6,335.8l13.4,0.6"/>
		<path class="st0" d="M161.6,335.8l16,0.5"/>
		<path class="st0" d="M168.3,13.7L123.7,22"/>
		<path class="st0" d="M140.5,332.6l-5.2-1.2"/>
		<path class="st0" d="M140.5,332.6l2.6,0.6"/>
		<path class="st0" d="M140.5,332.6l15.8,2.7"/>
		<path class="st0" d="M13.8,179.7l-0.1-2.7"/>
		<path class="st0" d="M13.8,179.7l242.9,134.5"/>
		<path class="st0" d="M56.2,284L98,316.8"/>
		<path class="st0" d="M99.2,32.6l2.4-1.2"/>
		<path class="st0" d="M99.2,32.6L56.9,65"/>
		<path class="st0" d="M99.2,32.6l-63,60.2"/>
		<path class="st0" d="M99.2,32.6L33.5,97.4"/>
		<path class="st0" d="M263.5,310l19.1-14.7"/>
		<path class="st0" d="M96.8,33.8l19.4-9.1"/>
		<path class="st0" d="M96.8,33.8L45,79.4"/>
		<path class="st0" d="M58,286l24.1,21"/>
		<path class="st0" d="M58,286l47.2,34.5"/>
		<path class="st0" d="M94.5,35.1l-11.3,7.1"/>
		<path class="st0" d="M94.5,35.1L53.4,69"/>
		<path class="st0" d="M94.5,35.1L51.6,71"/>
		<path class="st0" d="M94.5,35.1L40.4,86"/>
		<path class="st0" d="M201.6,334.2l-10.6,1.4"/>
		<path class="st0" d="M201.6,334.2l20.8-4.9"/>
		<path class="st0" d="M201.6,334.2l35.9-10.4"/>
		<path class="st0" d="M208.2,17.1l5.2,1.2"/>
		<path class="st0" d="M208.2,17.1l-5.3-1"/>
		<path class="st0" d="M313.9,92.8l1.3,2.3"/>
		<path class="st0" d="M313.9,92.8l-4.3-6.8"/>
		<path class="st0" d="M313.9,92.8l-5.8-9"/>
		<path class="st0" d="M92.1,36.4L81,43.8"/>
		<path class="st0" d="M92.1,36.4L38.9,88.2"/>
		<path class="st0" d="M92.1,36.4L34.8,95.1"/>
		<path class="st0" d="M165.6,13.9l5.3-0.3"/>
		<path class="st0" d="M165.6,13.9l-39.4,7.3"/>
		<path class="st0" d="M165.6,13.9l-46.9,9.9"/>
		<path class="st0" d="M321.3,107l2.2,4.9"/>
		<path class="st0" d="M321.3,107l-1.1-2.4"/>
		<path class="st0" d="M24.5,116.8l4.2-9.8"/>
		<path class="st0" d="M24.5,116.8l-2.7,7.6"/>
		<path class="st0" d="M327.8,226.9l6.5-25.9"/>
		<path class="st0" d="M160.3,14.3l-10.7,1.3"/>
		<path class="st0" d="M160.3,14.3l-21.1,3.4"/>
		<path class="st0" d="M160.3,14.3L123.7,22"/>
		<path class="st0" d="M333.6,145.1l1.3,7.9"/>
		<path class="st0" d="M333.6,145.1l0.5,2.6"/>
		<path class="st0" d="M283.6,55.6L298.4,71"/>
		<path class="st0" d="M283.6,55.6l-49.7-30.9"/>
		<path class="st0" d="M205.6,16.6l7.9,1.7"/>
		<path class="st0" d="M205.6,16.6l-7.9-1.3"/>
		<path class="st0" d="M205.6,16.6l-21.2-2.7"/>
		<path class="st0" d="M333.1,142.4l2.2,13.2"/>
		<path class="st0" d="M333.1,142.4l1.4,7.9"/>
		<path class="st0" d="M333.1,142.4l-0.6-2.6"/>
		<path class="st0" d="M333.1,142.4l-1.2-5.2"/>
		<path class="st0" d="M333.1,142.4l-3.2-13"/>
		<path class="st0" d="M14.2,161l42.7-96"/>
		<path class="st0" d="M14.2,161l-0.6,13.4"/>
		<path class="st0" d="M328.7,224.4l-4.6,12.5"/>
		<path class="st0" d="M281.6,53.8L300.1,73"/>
		<path class="st0" d="M281.6,53.8L298.4,71"/>
		<path class="st0" d="M281.6,53.8l-19.2-14.5"/>
		<path class="st0" d="M19.1,216.7l6.9,20.3"/>
		<path class="st0" d="M19.1,216.7l11.3,30"/>
		<path class="st0" d="M19.1,216.7l15,37.1"/>
		<path class="st0" d="M19.1,216.7l28.3,57.2"/>
		<path class="st0" d="M265.7,308.5l-11.4,7"/>
		<path class="st0" d="M265.7,308.5l40.1-38.9"/>
		<path class="st0" d="M23.5,119.3l6.3-14.8"/>
		<path class="st0" d="M23.5,119.3l-7.1,25.8"/>
		<path class="st0" d="M204.3,333.7l-10.6,1.6"/>
		<path class="st0" d="M204.3,333.7l10.5-2.3"/>
		<path class="st0" d="M87.6,39.3l21.1-11.5"/>
		<path class="st0" d="M87.6,39.3l11.5-6.7"/>
		<path class="st0" d="M87.6,39.3L56.9,65"/>
		<path class="st0" d="M22.6,121.9l6-14.9"/>
		<path class="st0" d="M22.6,121.9l3.9-10"/>
		<path class="st0" d="M22.6,121.9l1.8-5.1"/>
		<path class="st0" d="M22.6,121.8l-0.9,2.5"/>
		<path class="st0" d="M22.6,121.9l-4.5,15.4"/>
		<path class="st0" d="M22.6,121.9l-6.7,25.9"/>
		<path class="st0" d="M279.5,52L298.4,71"/>
		<path class="st0" d="M279.5,52l-17.2-12.7"/>
		<path class="st0" d="M157.6,14.6l2.7-0.3"/>
		<path class="st0" d="M157.6,14.6l-18.5,3.1"/>
		<path class="st0" d="M157.6,14.6l-28.8,5.8"/>
		<path class="st0" d="M157.6,14.6L123.7,22"/>
		<path class="st0" d="M277.5,50.3l19.2,18.6"/>
		<path class="st0" d="M277.5,50.3l4.1,3.5"/>
		<path class="st0" d="M19.8,219.2l0.8,2.6"/>
		<path class="st0" d="M20.6,221.8l-5.2-23.5"/>
		<path class="st0" d="M20.6,221.8l16.3,36.6"/>
		<path class="st0" d="M21.3,224.4L15.7,201"/>
		<path class="st0" d="M21.3,224.4l26.1,49.5"/>
		<path class="st0" d="M143.1,333.2l-7.8-1.8"/>
		<path class="st0" d="M143.1,333.2L113.8,25.8"/>
		<path class="st0" d="M143.1,333.2L81,43.8"/>
		<path class="st0" d="M329.4,221.8l0.8-2.6"/>
		<path class="st0" d="M329.4,221.8L169.6,336.3"/>
		<path class="st0" d="M329.4,221.8l6.2-31.4"/>
		<path class="st0" d="M332.5,139.8l2.7,15.8"/>
		<path class="st0" d="M332.5,139.8l2,10.5"/>
		<path class="st0" d="M332.5,139.8l1.6,7.9"/>
		<path class="st0" d="M332.5,139.8l-0.6-2.6"/>
		<path class="st0" d="M320.2,104.5l4.3,9.8"/>
		<path class="st0" d="M320.2,104.5l-1.2-2.4"/>
		<path class="st0" d="M85.4,40.8l-4.4,3"/>
		<path class="st0" d="M85.4,40.8L34.8,95.1"/>
		<path class="st0" d="M331.9,137.2l2.6,13.1"/>
		<path class="st0" d="M331.9,137.2l-36.1,144.8"/>
		<path class="st0" d="M275.4,48.6L305,79.4"/>
		<path class="st0" d="M275.4,48.6l23,22.3"/>
		<path class="st0" d="M275.4,48.6l-34.2-20.8"/>
		<path class="st0" d="M14,163.6l0.5-5.3"/>
		<path class="st0" d="M14,163.6l-0.4,8"/>
		<path class="st0" d="M14,163.6l-0.4,10.7"/>
		<path class="st0" d="M206.9,333.2l-2.6,0.5"/>
		<path class="st0" d="M206.9,333.2l7.8-1.8"/>
		<path class="st0" d="M206.9,333.2l18.2-4.8"/>
		<path class="st0" d="M330.2,219.2l-7.2,20.1"/>
		<path class="st0" d="M330.2,219.2L24,231.9"/>
		<path class="st0" d="M330.2,219.2L169.6,336.3"/>
		<path class="st0" d="M330.2,219.2l5.9-34.2"/>
		<path class="st0" d="M319,102.1l6.5,14.7"/>
		<path class="st0" d="M319,102.1L34.1,253.8"/>
		<path class="st0" d="M21.8,124.4l6.9-17.4"/>
		<path class="st0" d="M21.8,124.4l-6.2,26"/>
		<path class="st0" d="M267.9,307l14.7-11.6"/>
		<path class="st0" d="M267.9,307l20.6-17.1"/>
		<path class="st0" d="M273.3,47l25.1,24"/>
		<path class="st0" d="M270.1,305.4l-20.4,12.7"/>
		<path class="st0" d="M270.1,305.4l-13.4,8.8"/>
		<path class="st0" d="M270.1,305.4l6.4-4.9"/>
		<path class="st0" d="M270.1,305.4l12.5-10.1"/>
		<path class="st0" d="M270.1,305.4l25.7-23.3"/>
		<path class="st0" d="M270.1,305.4l43-47.1"/>
		<path class="st0" d="M209.5,332.6l-21.2,3.2"/>
		<path class="st0" d="M61.6,289.8L50.8,278"/>
		<path class="st0" d="M61.6,289.8l14.1,12.4"/>
		<path class="st0" d="M61.6,289.8l234.2-7.8"/>
		<path class="st0" d="M61.6,289.8l38.8,28.3"/>
		<path class="st0" d="M271.2,45.4l-4.4-3.1"/>
		<path class="st0" d="M272.2,303.8l-25,15.5"/>
		<path class="st0" d="M272.2,303.8l-22.6,14.3"/>
		<path class="st0" d="M272.2,303.8l-15.6,10.4"/>
		<path class="st0" d="M272.2,303.8l-2.1,1.6"/>
		<path class="st0" d="M272.2,303.8l4.2-3.3"/>
		<path class="st0" d="M272.2,303.8l10.3-8.5"/>
		<path class="st0" d="M272.2,303.8l23.5-21.8"/>
		<path class="st0" d="M272.2,303.8l40.9-45.5"/>
		<path class="st0" d="M269,43.8L298.4,71"/>
		<path class="st0" d="M13.8,182.4l-0.2-5.4"/>
		<path class="st0" d="M13.8,182.4l0.3,5.3"/>
		<path class="st0" d="M13.8,182.4l0.5,7.9"/>
		<path class="st0" d="M13.8,182.4l1.1,13.3"/>
		<path class="st0" d="M20.9,126.9l8.9-22.4"/>
		<path class="st0" d="M20.9,126.9l-3.5,12.9"/>
		<path class="st0" d="M20.9,126.9l-4.5,18.2"/>
		<path class="st0" d="M330.9,216.7l-7.9,22.7"/>
		<path class="st0" d="M331.6,214.1l-0.7,2.6"/>
		<path class="st0" d="M63.5,291.7l-14.5-15.8"/>
		<path class="st0" d="M22.2,226.9l-6-23.3"/>
		<path class="st0" d="M22.2,226.9l-1.7-5.1"/>
		<path class="st0" d="M22.2,226.9l5.9,14.9"/>
		<path class="st0" d="M22.2,226.9l14.6,31.5"/>
		<path class="st0" d="M20.2,129.5L31,102.1"/>
		<path class="st0" d="M20.2,129.5l-3.8,15.6"/>
		<path class="st0" d="M20.2,129.5l-5.4,26.2"/>
		<path class="st0" d="M23.1,229.4l-6.4-23.2"/>
		<path class="st0" d="M23.1,229.4l5,12.4"/>
		<path class="st0" d="M23.1,229.4l24.3,44.4"/>
		<path class="st0" d="M65.5,293.5L50.8,278"/>
		<path class="st0" d="M83.2,42.3L53.4,69"/>
		<path class="st0" d="M145.7,333.7l-7.9-1.6"/>
		<path class="st0" d="M145.7,333.7l-2.6-0.5"/>
		<path class="st0" d="M145.7,333.7l10.6,1.6"/>
		<path class="st0" d="M212.1,332.1l2.6-0.6"/>
		<path class="st0" d="M14,185l-0.4-8"/>
		<path class="st0" d="M14,185l242.7,129.2"/>
		<path class="st0" d="M14,185l-0.2-5.3"/>
		<path class="st0" d="M67.4,295.3L50.8,278"/>
		<path class="st0" d="M67.4,295.3l264.5-158.1"/>
		<path class="st0" d="M67.4,295.3l35.3,24"/>
		<path class="st0" d="M274.4,302.2l-20.1,13.4"/>
		<path class="st0" d="M155,14.9l-15.8,2.8"/>
		<path class="st0" d="M155,14.9l-33.8,8"/>
		<path class="st0" d="M24,231.9l-5.6-17.9"/>
		<path class="st0" d="M24,231.9l23.4,41.9"/>
		<path class="st0" d="M117.4,325.8l-2.5-1"/>
		<path class="st0" d="M117.4,325.8l2.5,0.9"/>
		<path class="st0" d="M117.4,325.8l165.1-30.5"/>
		<path class="st0" d="M117.4,325.8l7.6,2.7"/>
		<path class="st0" d="M266.8,42.3L298.4,71"/>
		<path class="st0" d="M266.8,42.3l18.7,15.1"/>
		<path class="st0" d="M266.8,42.3l-18.4-11"/>
		<path class="st0" d="M266.8,42.3l-48.2-22.7"/>
		<path class="st0" d="M81,43.8l20.5-12.4"/>
		<path class="st0" d="M81,43.8L56.9,65"/>
		<path class="st0" d="M164.3,336l2.7,0.1"/>
		<path class="st0" d="M164.3,336l5.3,0.3"/>
		<path class="st0" d="M19.4,132l203,197.2"/>
		<path class="st0" d="M19.4,132l-3,13"/>
		<path class="st0" d="M19.4,132l-4.7,23.6"/>
		<path class="st0" d="M331.6,214.1l-9.6,27.6"/>
		<path class="st0" d="M331.6,214.1l-7.5,22.8"/>
		<path class="st0" d="M331.6,214.1l-2.9,10.3"/>
		<path class="st0" d="M331.6,214.1L87.6,39.3"/>
		<path class="st0" d="M331.6,214.1l-1.4,5.2"/>
		<path class="st0" d="M331.6,214.1L56.9,65"/>
		<path class="st0" d="M331.6,214.1l4.7-34.4"/>
		<path class="st0" d="M203,16l10.5,2.2"/>
		<path class="st0" d="M203,16l2.6,0.5"/>
		<path class="st0" d="M203,16l-5.3-0.8"/>
		<path class="st0" d="M203,16l-18.6-2.2"/>
		<path class="st0" d="M69.5,297.1L50.8,278"/>
		<path class="st0" d="M69.5,297.1l-2-1.8"/>
		<path class="st0" d="M69.5,297.1l226.3-15"/>
		<path class="st0" d="M69.5,297.1l33.3,22.2"/>
		<path class="st0" d="M71.5,298.8L50.8,278"/>
		<path class="st0" d="M71.5,298.8l-9.9-9"/>
		<path class="st0" d="M71.5,298.8l4.2,3.4"/>
		<path class="st0" d="M71.5,298.8l19.7,13.8"/>
		<path class="st0" d="M71.5,298.8l38.5,23.9"/>
		<path class="st0" d="M78.8,45.4l22.7-14"/>
		<path class="st0" d="M78.9,45.4L66.4,55.6"/>
		<path class="st0" d="M78.8,45.4L56.9,65"/>
		<path class="st0" d="M276.4,300.5l-19.8,13.7"/>
		<path class="st0" d="M276.4,300.5l6.1-5.2"/>
		<path class="st0" d="M276.4,300.5l19.3-18.5"/>
		<path class="st0" d="M276.4,300.5l29.4-30.9"/>
		<path class="st0" d="M276.4,300.5l33.9-37.6"/>
		<path class="st0" d="M276.4,300.5l42-51.5"/>
		<path class="st0" d="M317.8,99.8l5.7,12.1"/>
		<path class="st0" d="M317.8,99.8l3.6,7.2"/>
		<path class="st0" d="M317.8,99.8l2.4,4.8"/>
		<path class="st0" d="M214.7,331.4l7.7-2.2"/>
		<path class="st0" d="M219.9,329.9l2.6-0.7"/>
		<path class="st0" d="M214.7,331.4l22.8-7.6"/>
		<path class="st0" d="M312.5,90.5l2.7,4.6"/>
		<path class="st0" d="M312.5,90.5l1.4,2.3"/>
		<path class="st0" d="M312.5,90.5l-2.9-4.5"/>
		<path class="st0" d="M312.5,90.5l-4.4-6.7"/>
		<path class="st0" d="M200.3,15.7l13.1,2.6"/>
		<path class="st0" d="M200.3,15.7l7.9,1.4"/>
		<path class="st0" d="M74.6,48.7l41.6-24"/>
		<path class="st0" d="M74.6,48.7l22.2-14.9"/>
		<path class="st0" d="M74.6,48.7L45,79.4"/>
		<path class="st0" d="M73.6,300.5L58,286"/>
		<path class="st0" d="M73.6,300.5l8.5,6.4"/>
		<path class="st0" d="M73.6,300.5l31.6,20"/>
		<path class="st0" d="M72.6,50.4l33.8-21.4"/>
		<path class="st0" d="M72.6,50.4l31.3-20.3"/>
		<path class="st0" d="M72.6,50.4l8.4-6.6"/>
		<path class="st0" d="M72.6,50.4L49.9,73"/>
		<path class="st0" d="M72.6,50.4L48.2,75.1"/>
		<path class="st0" d="M72.6,50.4L43.4,81.5"/>
		<path class="st0" d="M72.6,50.4L34.8,95.1"/>
		<path class="st0" d="M24.9,234.4l-7.2-23"/>
		<path class="st0" d="M24.9,234.4l-4.4-12.6"/>
		<path class="st0" d="M24.9,234.4l17.9,32.8"/>
		<path class="st0" d="M70.6,52.1l35.8-23.1"/>
		<path class="st0" d="M70.6,52.1l19.3-14.2"/>
		<path class="st0" d="M70.6,52.1L58.8,63"/>
		<path class="st0" d="M70.6,52.1L53.4,69"/>
		<path class="st0" d="M70.6,52.1L41.9,83.7"/>
		<path class="st0" d="M68.5,53.8L56.9,65"/>
		<path class="st0" d="M278.5,298.8l-19.5,14"/>
		<path class="st0" d="M26,236.9l308.5-86.6"/>
		<path class="st0" d="M26,236.9l8.1,16.8"/>
		<path class="st0" d="M26,236.9l21.4,36.9"/>
		<path class="st0" d="M217.3,330.7l-7.8,1.9"/>
		<path class="st0" d="M148.4,334.2l5.3,0.8"/>
		<path class="st0" d="M148.4,334.2l7.9,1.1"/>
		<path class="st0" d="M119.9,326.7l-5-1.9"/>
		<path class="st0" d="M119.9,326.7l162.6-31.4"/>
		<path class="st0" d="M222.4,329.3L222.4,329.3"/>
		<path class="st0" d="M27,239.4l-3-7.5"/>
		<path class="st0" d="M311.1,88.2l4.1,6.9"/>
		<path class="st0" d="M311.1,88.2l-1.5-2.2"/>
		<path class="st0" d="M311.1,88.2l-3-4.5"/>
		<path class="st0" d="M332.2,211.5l-10.3,30.2"/>
		<path class="st0" d="M332.2,211.5L213.4,18.2"/>
		<path class="st0" d="M332.2,211.5l4.2-34.5"/>
		<path class="st0" d="M152.3,15.3l18.7-1.6"/>
		<path class="st0" d="M280.5,297.1l-23.9,17.1"/>
		<path class="st0" d="M264.6,40.8l42,40.8"/>
		<path class="st0" d="M264.6,40.8l24.7,20.4"/>
		<path class="st0" d="M264.6,40.8l-11.4-7"/>
		<path class="st0" d="M264.6,40.8l-28.3-15.1"/>
		<path class="st0" d="M282.6,295.3l27.8-32.4"/>
		<path class="st0" d="M332.8,208.9l-7.8,25.6"/>
		<path class="st0" d="M332.8,208.9l2.6-15.8"/>
		<path class="st0" d="M282.6,295.3l2-1.8"/>
		<path class="st0" d="M284.5,293.5l11.2-11.5"/>
		<path class="st0" d="M284.5,293.5l25.8-30.6"/>
		<path class="st0" d="M222.4,329.3l-34.1,6.6"/>
		<path class="st0" d="M222.4,329.3l-12.9,3.4"/>
		<path class="st0" d="M286.5,291.7L267.9,307"/>
		<path class="st0" d="M286.5,291.7l-3.9,3.6"/>
		<path class="st0" d="M286.5,291.7l2-1.8"/>
		<path class="st0" d="M288.5,289.9l-5.9,5.5"/>
		<path class="st0" d="M75.7,302.2l220.1-20.1"/>
		<path class="st0" d="M77.8,303.7l-27-25.7"/>
		<path class="st0" d="M77.8,303.7l-16.2-13.9"/>
		<path class="st0" d="M77.8,303.7l-2.1-1.6"/>
		<path class="st0" d="M262.4,39.3l36,31.7"/>
		<path class="st0" d="M262.4,39.3l4.5,3"/>
		<path class="st0" d="M262.4,39.3l-13.9-8"/>
		<path class="st0" d="M260.1,37.9L298.4,71"/>
		<path class="st0" d="M260.1,37.9l13.2,9.1"/>
		<path class="st0" d="M66.4,55.6l35.1-24.2"/>
		<path class="st0" d="M66.4,55.6L81,43.8"/>
		<path class="st0" d="M66.4,55.6l-2,1.8"/>
		<path class="st0" d="M66.4,55.6L56.9,65"/>
		<path class="st0" d="M64.5,57.4l37.1-26"/>
		<path class="st0" d="M64.5,57.4L81,43.8"/>
		<path class="st0" d="M64.5,57.4L56.9,65"/>
		<path class="st0" d="M290.3,287.9l-13.9,12.6"/>
		<path class="st0" d="M290.3,287.9l-7.7,7.4"/>
		<path class="st0" d="M290.3,287.9l22.8-29.6"/>
		<path class="st0" d="M79.9,305.4l11.2,7.3"/>
		<path class="st0" d="M79.9,305.4l30.1,17.3"/>
		<path class="st0" d="M151,334.5l-15.7-3.1"/>
		<path class="st0" d="M151,334.5l-7.9-1.3"/>
		<path class="st0" d="M28.1,241.8l-12.8-43.5"/>
		<path class="st0" d="M28.1,241.8l-7.5-20"/>
		<path class="st0" d="M28.1,241.8l8.7,16.6"/>
		<path class="st0" d="M28.1,241.8l19.3,32"/>
		<path class="st0" d="M331.2,134.7l3.3,15.7"/>
		<path class="st0" d="M331.2,134.7l0.7,2.6"/>
		<path class="st0" d="M331.2,134.7l-35.4,147.4"/>
		<path class="st0" d="M333.3,206.2l-3.1,13"/>
		<path class="st0" d="M333.3,206.2l-2.4,10.4"/>
		<path class="st0" d="M333.3,206.2l-1.7,7.8"/>
		<path class="st0" d="M82.1,307l-33-31"/>
		<path class="st0" d="M82.1,307l-18.6-15.3"/>
		<path class="st0" d="M18.8,134.6L31,102.1"/>
		<path class="st0" d="M18.8,134.6l1.4-5.2"/>
		<path class="st0" d="M18.8,134.6l-2.4,10.4"/>
		<path class="st0" d="M18.8,134.6l-4,21"/>
		<path class="st0" d="M257.8,36.5l31.5,24.7"/>
		<path class="st0" d="M257.8,36.5l6.8,4.3"/>
		<path class="st0" d="M257.8,36.5l-21.5-10.8"/>
		<path class="st0" d="M257.8,36.5L216,18.9"/>
		<path class="st0" d="M333.8,203.6l-11.9,38.1"/>
		<path class="st0" d="M333.8,203.6L20.6,221.8"/>
		<path class="st0" d="M334.3,201l-4.1,18.3"/>
		<path class="st0" d="M292.1,286l-15.7,14.5"/>
		<path class="st0" d="M292.1,286l-9.6,9.3"/>
		<path class="st0" d="M292.1,286l3.6-3.9"/>
		<path class="st0" d="M62.5,59.2l46.2-31.4"/>
		<path class="st0" d="M62.5,59.2l36.6-26.7"/>
		<path class="st0" d="M62.5,59.2l25.1-19.9"/>
		<path class="st0" d="M62.5,59.2L56.9,65"/>
		<path class="st0" d="M149.6,15.6l134.9,277.9"/>
		<path class="st0" d="M294,284l-17.5,16.5"/>
		<path class="st0" d="M294,284l-11.4,11.3"/>
		<path class="st0" d="M294,284l1.8-2"/>
		<path class="st0" d="M294,284l23.2-32.6"/>
		<path class="st0" d="M29.2,244.2l-9.4-25"/>
		<path class="st0" d="M29.2,244.2l-8.7-22.4"/>
		<path class="st0" d="M334.7,198.4l1.4-13.4"/>
		<path class="st0" d="M225.1,328.5l-20.8,5.2"/>
		<path class="st0" d="M225.1,328.5l-10.3,3"/>
		<path class="st0" d="M60.6,61.2l24.8-20.4"/>
		<path class="st0" d="M60.6,61.2L81,43.8"/>
		<path class="st0" d="M60.6,61.2L34.8,95.1"/>
		<path class="st0" d="M30.4,246.7l304.1-96.3"/>
		<path class="st0" d="M30.4,246.7l-4.4-9.7"/>
		<path class="st0" d="M30.4,246.7l3.7,7.1"/>
		<path class="st0" d="M30.4,246.7l17,27.2"/>
		<path class="st0" d="M147,16l13.3-1.8"/>
		<path class="st0" d="M147,16l2.6-0.5"/>
		<path class="st0" d="M147,16l-7.9,1.6"/>
		<path class="st0" d="M255.5,35.1L298.4,71"/>
		<path class="st0" d="M255.5,35.1l28.1,20.5"/>
		<path class="st0" d="M255.5,35.1l-21.7-10.4"/>
		<path class="st0" d="M58.8,63l31.1-25.2"/>
		<path class="st0" d="M144.4,16.5l18.6-2.5"/>
		<path class="st0" d="M335.1,195.7l-7.2,31.2"/>
		<path class="st0" d="M335.1,195.7l-0.8,5.3"/>
		<path class="st0" d="M86.5,310L20.9,126.9"/>
		<path class="st0" d="M86.5,310l11.5,6.9"/>
		<path class="st0" d="M18.1,137.2l11.7-32.7"/>
		<path class="st0" d="M18.1,137.2L28.7,107"/>
		<path class="st0" d="M18.1,137.2l6.4-20.4"/>
		<path class="st0" d="M18.1,137.2l3.7-12.9"/>
		<path class="st0" d="M18.1,137.2l-1.7,7.8"/>
		<path class="st0" d="M18.1,137.2l292.2,125.7"/>
		<path class="st0" d="M141.8,17.1l18.5-2.8"/>
		<path class="st0" d="M141.8,17.1l15.8-2.5"/>
		<path class="st0" d="M141.8,17.1l-2.6,0.6"/>
		<path class="st0" d="M141.8,17.1L123.7,22"/>
		<path class="st0" d="M250.8,32.5L279.5,52"/>
		<path class="st0" d="M250.8,32.5l11.5,6.8"/>
		<path class="st0" d="M330.6,132l4.3,20.9"/>
		<path class="st0" d="M330.6,132l3.5,15.7"/>
		<path class="st0" d="M330.6,132l3,13"/>
		<path class="st0" d="M88.8,311.4l-29-23.4"/>
		<path class="st0" d="M56.9,65l59.3-40.3"/>
		<path class="st0" d="M56.9,65L13.6,174.3"/>
		<path class="st0" d="M122.5,327.6l2.5,0.9"/>
		<path class="st0" d="M31.6,249L24,231.9"/>
		<path class="st0" d="M31.6,249l-4.6-9.6"/>
		<path class="st0" d="M169.6,336.3l-2.7-0.1"/>
		<path class="st0" d="M139.2,17.6l182.8,224.1"/>
		<path class="st0" d="M139.2,17.6l191,201.6"/>
		<path class="st0" d="M139.2,17.6l10.4-2"/>
		<path class="st0" d="M139.2,17.6L123.7,22"/>
		<path class="st0" d="M32.8,251.4L24,231.9"/>
		<path class="st0" d="M248.4,31.3L298.4,71"/>
		<path class="st0" d="M34.1,253.8l-15.7-39.7"/>
		<path class="st0" d="M34.1,253.8L24,231.9"/>
		<path class="st0" d="M34.1,253.8l13.3,20.1"/>
		<path class="st0" d="M14.3,190.4l-0.2-2.7"/>
		<path class="st0" d="M55.1,66.9l32.5-27.6"/>
		<path class="st0" d="M55.3,66.9l276.3,147.1"/>
		<path class="st0" d="M55.1,66.9l1.8-2"/>
		<path class="st0" d="M172.3,336.4l-2.7-0.1"/>
		<path class="st0" d="M172.3,336.4l8-0.1"/>
		<path class="st0" d="M295.8,282.1l-11.2,11.5"/>
		<path class="st0" d="M295.8,282.1l14.6-19.1"/>
		<path class="st0" d="M297.5,280l-40.9,34.2"/>
		<path class="st0" d="M297.5,280l-17,17"/>
		<path class="st0" d="M246.1,30.1l60.5,51.5"/>
		<path class="st0" d="M246.1,30.1l43.2,31.1"/>
		<path class="st0" d="M246.1,30.1l18.5,10.7"/>
		<path class="st0" d="M246.1,30.1l7.1,3.7"/>
		<path class="st0" d="M246.1,30.1l-9.8-4.4"/>
		<path class="st0" d="M335.4,193l-13.5,48.7"/>
		<path class="st0" d="M195,14.9l18.4,3.4"/>
		<path class="st0" d="M91.2,312.7l214.7-43.1"/>
		<path class="st0" d="M192.4,14.5l21.1,3.7"/>
		<path class="st0" d="M192.4,14.5l13.2,2"/>
		<path class="st0" d="M192.4,14.5L203,16"/>
		<path class="st0" d="M192.4,14.5l5.3,0.8"/>
		<path class="st0" d="M192.4,14.5l-8-0.7"/>
		<path class="st0" d="M335.7,190.4l-13.7,51.4"/>
		<path class="st0" d="M335.7,190.4L324,236.9"/>
		<path class="st0" d="M335.7,190.4l-7,34"/>
		<path class="st0" d="M335.7,190.4l-5.4,28.9"/>
		<path class="st0" d="M335.7,190.4l-4.1,23.7"/>
		<path class="st0" d="M335.7,190.4l-1,8"/>
		<path class="st0" d="M335.7,190.4l-166,145.9"/>
		<path class="st0" d="M335.7,190.4l0.7-10.7"/>
		<path class="st0" d="M16.9,142.4l1.1-5.2"/>
		<path class="st0" d="M16.9,142.4l-0.5,2.6"/>
		<path class="st0" d="M16.9,142.4l293.4,120.5"/>
		<path class="st0" d="M125,328.4l-10.1-3.6"/>
		<path class="st0" d="M125,328.4l-5.1-1.7"/>
		<path class="st0" d="M125,328.4l157.6-33.1"/>
		<path class="st0" d="M136.6,18.2l26.4-4.2"/>
		<path class="st0" d="M136.6,18.2l7.8-1.7"/>
		<path class="st0" d="M53.4,69l36.6-31.2"/>
		<path class="st0" d="M53.4,69l5.4-6"/>
		<path class="st0" d="M299.2,278L259,312.8"/>
		<path class="st0" d="M299.2,278l-20.7,20.8"/>
		<path class="st0" d="M335.9,187.7l-8.1,39.2"/>
		<path class="st0" d="M335.9,187.7l-1.6,13.3"/>
		<path class="st0" d="M335.9,187.7l-0.8,8"/>
		<path class="st0" d="M300.9,276l-24.5,24.6"/>
		<path class="st0" d="M300.9,276l-18.4,19.4"/>
		<path class="st0" d="M300.9,276l-5.2,6.1"/>
		<path class="st0" d="M227.5,327.5l-18,5.1"/>
		<path class="st0" d="M227.5,327.5l-10.2,3.2"/>
		<path class="st0" d="M14.7,193l-1-16"/>
		<path class="st0" d="M14.7,193l242,121.2"/>
		<path class="st0" d="M14.7,193l-0.9-13.2"/>
		<path class="st0" d="M14.7,193L14,185"/>
		<path class="st0" d="M329.8,129.5l5.4,26.2"/>
		<path class="st0" d="M329.8,129.5l4.7,20.9"/>
		<path class="st0" d="M329.8,129.5l2.7,10.4"/>
		<path class="st0" d="M329.8,129.5l2.1,7.8"/>
		<path class="st0" d="M329.8,129.5L67.4,295.3"/>
		<path class="st0" d="M302.6,273.8l-26.2,26.7"/>
		<path class="st0" d="M302.6,273.8l-20,21.5"/>
		<path class="st0" d="M175,336.4l-10.7-0.4"/>
		<path class="st0" d="M175,336.4l-8-0.2"/>
		<path class="st0" d="M175,336.4l-5.4-0.1"/>
		<path class="st0" d="M230,326.7l-17.9,5.3"/>
		<path class="st0" d="M230,326.7l-15.3,4.7"/>
		<path class="st0" d="M304.2,271.7l-21.7,23.6"/>
		<path class="st0" d="M304.2,271.7l1.6-2.1"/>
		<path class="st0" d="M134,18.9l-12.8,4"/>
		<path class="st0" d="M232.6,325.8l-10.1,3.5"/>
		<path class="st0" d="M93.3,314.2L50.8,278"/>
		<path class="st0" d="M93.3,314.2l-27.8-20.7"/>
		<path class="st0" d="M95.7,315.5L58,286"/>
		<path class="st0" d="M95.7,315.5l-22.1-15"/>
		<path class="st0" d="M95.7,315.5L82.1,307"/>
		<path class="st0" d="M95.7,315.5l9.5,4.9"/>
		<path class="st0" d="M305.8,269.6l-23.3,25.7"/>
		<path class="st0" d="M51.6,71l31.6-28.7"/>
		<path class="st0" d="M51.6,71l1.7-1.9"/>
		<path class="st0" d="M189.7,14.3l23.7,4"/>
		<path class="st0" d="M189.7,14.3l18.5,2.8"/>
		<path class="st0" d="M49.9,73L81,43.8"/>
		<path class="st0" d="M49.9,73l26.9-25.9"/>
		<path class="st0" d="M49.9,73l-3.3,4.2"/>
		<path class="st0" d="M187.1,14.1l26.4,4.2"/>
		<path class="st0" d="M14.9,195.7l-0.8-8"/>
		<path class="st0" d="M14.9,195.7l-0.6-5.3"/>
		<path class="st0" d="M16.4,145.1l1.1-5.2"/>
		<path class="st0" d="M16.4,145.1l293.9,117.8"/>
		<path class="st0" d="M329.1,126.9l5.4,23.4"/>
		<path class="st0" d="M329.1,126.9l2.8,10.3"/>
		<path class="st0" d="M329.1,126.9l2.1,7.7"/>
		<path class="st0" d="M329.1,126.9l-33.3,155.1"/>
		<path class="st0" d="M307.3,267.4l-30.9,33.2"/>
		<path class="st0" d="M307.3,267.4l-24.8,28"/>
		<path class="st0" d="M307.3,267.4l-17.1,20.6"/>
		<path class="st0" d="M307.3,267.4l5.8-9"/>
		<path class="st0" d="M336.1,185L24,231.9"/>
		<path class="st0" d="M235.1,324.8l-30.8,8.9"/>
		<path class="st0" d="M235.1,324.8l-20.3,6.6"/>
		<path class="st0" d="M235.1,324.8l-10,3.7"/>
		<path class="st0" d="M243.6,28.9l54.7,42"/>
		<path class="st0" d="M243.6,28.9l90.9,121.4"/>
		<path class="st0" d="M243.6,28.9l37.9,24.9"/>
		<path class="st0" d="M336.2,182.4l-7.6,42"/>
		<path class="st0" d="M336.2,182.4l-4.6,31.7"/>
		<path class="st0" d="M13.7,169l0.3-5.3"/>
		<path class="st0" d="M13.7,169l-0.1,5.3"/>
		<path class="st0" d="M308.9,265.1l-32.4,35.4"/>
		<path class="st0" d="M308.9,265.1l-26.3,30.2"/>
		<path class="st0" d="M308.9,265.1L294,284"/>
		<path class="st0" d="M308.9,265.1l-13.1,16.9"/>
		<path class="st0" d="M308.9,265.1l8.3-13.7"/>
		<path class="st0" d="M241.2,27.8L298.4,71"/>
		<path class="st0" d="M13.6,171.7l0,2.7"/>
		<path class="st0" d="M238.8,26.7L279.5,52"/>
		<path class="st0" d="M236.3,25.7l16.9,8.1"/>
		<path class="st0" d="M15.9,147.7L28.7,107"/>
		<path class="st0" d="M15.9,147.7l8.5-30.9"/>
		<path class="st0" d="M15.9,147.7l5.8-23.3"/>
		<path class="st0" d="M15.9,147.7l2.2-10.5"/>
		<path class="st0" d="M131.4,19.6l26.3-5.1"/>
		<path class="st0" d="M48.2,75.1l58.1-46.2"/>
		<path class="st0" d="M48.2,75.1L81,43.8"/>
		<path class="st0" d="M48.2,75.1l1.7-2.1"/>
		<path class="st0" d="M48.2,75.1l-13.4,20"/>
		<path class="st0" d="M38.2,260.7l-10.1-18.8"/>
		<path class="st0" d="M38.2,260.7l9.2,13.2"/>
		<path class="st0" d="M98,316.8L20.9,126.9"/>
		<path class="st0" d="M98,316.8l-13.7-8.3"/>
		<path class="st0" d="M98,316.8l-6.9-4.2"/>
		<path class="st0" d="M98,316.8l12,5.9"/>
		<path class="st0" d="M328.2,124.4l3.7,12.9"/>
		<path class="st0" d="M328.2,124.4l-260.8,171"/>
		<path class="st0" d="M328.2,124.4l1.6,5.1"/>
		<path class="st0" d="M336.3,179.7l-14.4,62"/>
		<path class="st0" d="M336.3,179.7L20.6,221.8"/>
		<path class="st0" d="M336.3,179.7l-6.1,39.6"/>
		<path class="st0" d="M336.3,179.7L36.8,258.4"/>
		<path class="st0" d="M46.6,77.2L81,43.8"/>
		<path class="st0" d="M46.6,77.2l17.9-19.9"/>
		<path class="st0" d="M46.6,77.2L56.9,65"/>
		<path class="st0" d="M231.3,23.8L298.4,71"/>
		<path class="st0" d="M231.3,23.8l103.2,126.6"/>
		<path class="st0" d="M13.6,174.3l0.2-8"/>
		<path class="st0" d="M100.4,318.1l-24.7-15.9"/>
		<path class="st0" d="M327.4,121.8l6.7,25.9"/>
		<path class="st0" d="M327.4,121.8l3.2,10.2"/>
		<path class="st0" d="M184.4,13.9l13.3,1.4"/>
		<path class="st0" d="M102.7,319.3l-52-41.3"/>
		<path class="st0" d="M102.7,319.3l-41.2-29.5"/>
		<path class="st0" d="M102.7,319.3l-27.1-17.1"/>
		<path class="st0" d="M102.7,319.3l193-37.3"/>
		<path class="st0" d="M127.6,329.2l-12.6-4.4"/>
		<path class="st0" d="M127.6,329.2l-7.6-2.5"/>
		<path class="st0" d="M127.6,329.2l-2.6-0.8"/>
		<path class="st0" d="M311.8,260.7L267.9,307"/>
		<path class="st0" d="M311.8,260.7l-29.2,34.7"/>
		<path class="st0" d="M311.8,260.7l-25.3,31"/>
		<path class="st0" d="M311.8,260.7l-23.3,29.2"/>
		<path class="st0" d="M237.5,323.8l-15.1,5.5"/>
		<path class="st0" d="M313.1,258.3l-56.4,55.9"/>
		<path class="st0" d="M313.1,258.3l-36.7,42.2"/>
		<path class="st0" d="M313.1,258.3l-30.5,37"/>
		<path class="st0" d="M313.1,258.3l-17.3,23.7"/>
		<path class="st0" d="M336.4,177l-14.4,64.7"/>
		<path class="st0" d="M336.4,177l-123-158.8"/>
		<path class="st0" d="M39.7,262.9l-23.5-59.3"/>
		<path class="st0" d="M39.7,262.9l-19.1-41.1"/>
		<path class="st0" d="M39.7,262.9l-11.6-21.1"/>
		<path class="st0" d="M39.7,262.9l-2.8-4.5"/>
		<path class="st0" d="M228.8,22.8l60.5,38.3"/>
		<path class="st0" d="M228.8,22.8l35.8,18"/>
		<path class="st0" d="M228.8,22.8l29,13.6"/>
		<path class="st0" d="M228.8,22.8l7.5,2.9"/>
		<path class="st0" d="M228.8,22.8L216,18.9"/>
		<path class="st0" d="M41.1,265.1l-25.8-66.8"/>
		<path class="st0" d="M41.1,265.1l-20.6-43.3"/>
		<path class="st0" d="M41.1,265.1l-13-23.3"/>
		<path class="st0" d="M41.1,265.1l-4.3-6.8"/>
		<path class="st0" d="M336.4,174.3l-6.2,44.9"/>
		<path class="st0" d="M336.4,174.3l-2.1,26.6"/>
		<path class="st0" d="M336.4,171.7l-5.5,45"/>
		<path class="st0" d="M336.4,171.7l-4.8,42.4"/>
		<path class="st0" d="M314.5,256.1l-32,39.2"/>
		<path class="st0" d="M314.5,256.1L292.1,286"/>
		<path class="st0" d="M314.5,256.1l-18.8,26"/>
		<path class="st0" d="M15.1,153L31,102.1"/>
		<path class="st0" d="M15.1,153l5-23.5"/>
		<path class="st0" d="M15.1,153l3.7-18.4"/>
		<path class="st0" d="M15.1,153l1.3-7.9"/>
		<path class="st0" d="M15.1,153l-0.3,2.7"/>
		<path class="st0" d="M105.1,320.5L82.1,307"/>
		<path class="st0" d="M105.1,320.5l-16.4-9.1"/>
		<path class="st0" d="M42.8,267.2l-22.3-45.4"/>
		<path class="st0" d="M43.4,81.5l62.9-52.6"/>
		<path class="st0" d="M43.4,81.5L81,43.8"/>
		<path class="st0" d="M43.4,81.5l6.5-8.5"/>
		<path class="st0" d="M43.4,81.5l4.8-6.4"/>
		<path class="st0" d="M43.4,81.5l-8.6,13.5"/>
		<path class="st0" d="M315.9,253.8l-5.5,9.2"/>
		<path class="st0" d="M226.3,21.9l72.1,49"/>
		<path class="st0" d="M107.6,321.6l-16.4-9"/>
		<path class="st0" d="M336.3,169l-14.3,72.7"/>
		<path class="st0" d="M336.3,169l-0.9,24"/>
		<path class="st0" d="M44.2,269.5l-8.7-13.5"/>
		<path class="st0" d="M156.3,335.3l-21-3.9"/>
		<path class="st0" d="M156.3,335.3l-13.2-2.1"/>
		<path class="st0" d="M336.2,166.3l-8.3,60.6"/>
		<path class="st0" d="M336.2,166.3l-1.9,34.7"/>
		<path class="st0" d="M336.2,166.3l-1.1,29.4"/>
		<path class="st0" d="M336.2,166.3l-0.3,21.4"/>
		<path class="st0" d="M317.2,251.4l-40.7,49.1"/>
		<path class="st0" d="M317.2,251.4l-34.6,43.9"/>
		<path class="st0" d="M317.2,251.4l-21.4,30.6"/>
		<path class="st0" d="M317.2,251.4l-6.8,11.5"/>
		<path class="st0" d="M240,322.7l-30.5,9.9"/>
		<path class="st0" d="M240,322.7l-22.7,8"/>
		<path class="st0" d="M128.8,20.4l34.1-6.3"/>
		<path class="st0" d="M128.8,20.4l15.6-3.8"/>
		<path class="st0" d="M128.8,20.4l10.3-2.7"/>
		<path class="st0" d="M128.8,20.4l7.7-2.1"/>
		<path class="st0" d="M130.1,330l-15.2-5.2"/>
		<path class="st0" d="M130.1,330l-10.2-3.3"/>
		<path class="st0" d="M130.1,330l-5.1-1.6"/>
		<path class="st0" d="M41.9,83.7l48-45.9"/>
		<path class="st0" d="M41.9,83.7L58.8,63"/>
		<path class="st0" d="M41.9,83.7L53.4,69"/>
		<path class="st0" d="M318.4,249l-35.8,46.3"/>
		<path class="st0" d="M318.4,249l-12.6,20.5"/>
		<path class="st0" d="M223.7,21.1l43.1,21.1"/>
		<path class="st0" d="M181.7,13.8l31.7,4.5"/>
		<path class="st0" d="M181.7,13.8l23.9,2.8"/>
		<path class="st0" d="M181.7,13.8L203,16"/>
		<path class="st0" d="M181.7,13.8l16,1.5"/>
		<path class="st0" d="M181.7,13.8l10.7,0.8"/>
		<path class="st0" d="M181.7,13.8l2.7,0.1"/>
		<path class="st0" d="M110,322.7l-16.7-8.5"/>
		<path class="st0" d="M110,322.7l195.8-53.1"/>
		<path class="st0" d="M242.4,321.6l-20,7.6"/>
		<path class="st0" d="M242.4,321.6l-9.9,4.1"/>
		<path class="st0" d="M40.4,86l42.8-43.7"/>
		<path class="st0" d="M40.4,86l13-16.9"/>
		<path class="st0" d="M40.4,86l11.2-15"/>
		<path class="st0" d="M38.9,88.2L81,43.8"/>
		<path class="st0" d="M38.9,88.2l-4.1,6.9"/>
		<path class="st0" d="M37.5,90.5l39.3-43.4"/>
		<path class="st0" d="M37.5,90.5L49.9,73"/>
		<path class="st0" d="M319.6,246.7l-43.2,53.9"/>
		<path class="st0" d="M319.6,246.7l-37.1,48.7"/>
		<path class="st0" d="M112.5,323.8L50.8,278"/>
		<path class="st0" d="M112.5,323.8l183.3-41.7"/>
		<path class="st0" d="M244.9,320.5l-12.3,5.3"/>
		<path class="st0" d="M126.3,21.1l44.7-7.5"/>
		<path class="st0" d="M126.3,21.1l-7.6,2.6"/>
		<path class="st0" d="M221.2,20.4L298.4,71"/>
		<path class="st0" d="M177.7,336.4l-13.4-0.3"/>
		<path class="st0" d="M177.7,336.4l-10.7-0.2"/>
		<path class="st0" d="M177.7,336.4l-8-0.1"/>
		<path class="st0" d="M177.7,336.4l-2.7,0"/>
		<path class="st0" d="M36.1,92.8l65.4-61.4"/>
		<path class="st0" d="M36.1,92.8L56.9,65"/>
		<path class="st0" d="M36.1,92.8l-2.6,4.6"/>
		<path class="st0" d="M45.8,271.7L24,231.9"/>
		<path class="st0" d="M45.8,271.7l-12.9-20.3"/>
		<path class="st0" d="M34.8,95.1l71.6-66.2"/>
		<path class="st0" d="M34.8,95.1L81,43.8"/>
		<path class="st0" d="M34.8,95.1L49.9,73"/>
		<path class="st0" d="M34.8,95.1l11.8-17.8"/>
		<path class="st0" d="M179,13.7l26.6,2.9"/>
		<path class="st0" d="M121.2,22.8l28.4-7.2"/>
		<path class="st0" d="M121.2,22.8l18-5.2"/>
		<path class="st0" d="M218.6,19.6L298.4,71"/>
		<path class="st0" d="M218.6,19.6l29.8,11.7"/>
		<path class="st0" d="M316.5,97.4l2.5,4.7"/>
		<path class="st0" d="M316.5,97.4L34.1,253.8"/>
		<path class="st0" d="M180.4,336.3l-13.4-0.1"/>
		<path class="st0" d="M180.4,336.3l-10.7,0"/>
		<path class="st0" d="M33.5,97.4l82.7-72.7"/>
		<path class="st0" d="M33.5,97.4L56.9,65"/>
		<path class="st0" d="M176.3,13.7l37.1,4.6"/>
		<path class="st0" d="M176.3,13.7l18.7,1.2"/>
		<path class="st0" d="M308.1,83.7l-22.6-26.4"/>
		<path class="st0" d="M308.1,83.7l1.5,2.2"/>
		<path class="st0" d="M132.7,330.7l-10.2-3.2"/>
		<path class="st0" d="M132.7,330.7l-7.7-2.3"/>
		<path class="st0" d="M216,18.9l90.6,62.6"/>
		<path class="st0" d="M216,18.9l73.3,42.3"/>
		<path class="st0" d="M216,18.9l48.6,21.9"/>
		<path class="st0" d="M216,18.9l37.2,14.9"/>
		<path class="st0" d="M216,18.9l30,11.2"/>
		<path class="st0" d="M216,18.9l20.3,6.8"/>
		<path class="st0" d="M336,163.6l-0.6,29.4"/>
		<path class="st0" d="M183,336.2l-13.4,0.1"/>
		<path class="st0" d="M183,336.2l-10.7,0.2"/>
		<path class="st0" d="M183,336.2l-2.7,0.1"/>
		<path class="st0" d="M326.5,119.3l8.7,36.3"/>
		<path class="st0" d="M326.5,119.3l7.6,28.4"/>
		<path class="st0" d="M326.5,119.3l6,20.5"/>
		<path class="st0" d="M118.7,23.8L171,13.6"/>
		<path class="st0" d="M14.8,155.6l15-51.1"/>
		<path class="st0" d="M14.8,155.6l3.3-18.4"/>
		<path class="st0" d="M14.8,155.6l1.6-10.6"/>
	</g>
	<path class="st1" d="M306.6,79.6c1.1,0,1.9,0.9,1.9,1.9c0,1.1-0.9,1.9-1.9,1.9c-1.1,0-1.9-0.9-1.9-1.9
		C304.6,80.5,305.5,79.6,306.6,79.6z"/>
	<path class="st1" d="M335.8,159c1.1,0,1.9,0.9,1.9,1.9c0,1.1-0.9,1.9-1.9,1.9c-1.1,0-1.9-0.9-1.9-1.9
		C333.8,159.9,334.7,159,335.8,159z"/>
	<path class="st1" d="M320.8,242.3c1.1,0,1.9,0.9,1.9,1.9c0,1.1-0.9,1.9-1.9,1.9s-1.9-0.9-1.9-1.9
		C318.8,243.2,319.7,242.3,320.8,242.3z"/>
	<path class="st1" d="M14.5,156.4c1.1,0,1.9,0.9,1.9,1.9c0,1.1-0.9,1.9-1.9,1.9s-1.9-0.9-1.9-1.9C12.5,157.2,13.4,156.4,14.5,156.4z
		"/>
	<path class="st1" d="M335.5,156.4c1.1,0,1.9,0.9,1.9,1.9c0,1.1-0.9,1.9-1.9,1.9c-1.1,0-1.9-0.9-1.9-1.9
		C333.6,157.2,334.4,156.4,335.5,156.4z"/>
	<path class="st1" d="M305,77.4c1.1,0,1.9,0.9,1.9,1.9c0,1.1-0.9,1.9-1.9,1.9c-1.1,0-1.9-0.9-1.9-1.9
		C303.1,78.3,303.9,77.4,305,77.4z"/>
	<path class="st1" d="M325.5,114.9c1.1,0,1.9,0.9,1.9,1.9c0,1.1-0.9,1.9-1.9,1.9c-1.1,0-1.9-0.9-1.9-1.9
		C323.6,115.7,324.5,114.9,325.5,114.9z"/>
	<path class="st1" d="M321.9,239.9c1.1,0,1.9,0.9,1.9,1.9c0,1.1-0.9,1.9-1.9,1.9c-1.1,0-1.9-0.9-1.9-1.9
		C320,240.7,320.8,239.9,321.9,239.9z"/>
	<path class="st1" d="M185.7,334.1c1.1,0,1.9,0.9,1.9,1.9c0,1.1-0.9,1.9-1.9,1.9c-1.1,0-1.9-0.9-1.9-1.9
		C183.8,335,184.6,334.1,185.7,334.1z"/>
	<path class="st1" d="M324.5,112.4c1.1,0,1.9,0.9,1.9,1.9c0,1.1-0.9,1.9-1.9,1.9c-1.1,0-1.9-0.9-1.9-1.9
		C322.6,113.2,323.5,112.4,324.5,112.4z"/>
	<path class="st1" d="M303.4,75.3c1.1,0,1.9,0.9,1.9,1.9c0,1.1-0.9,1.9-1.9,1.9c-1.1,0-1.9-0.9-1.9-1.9
		C301.5,76.2,302.3,75.3,303.4,75.3z"/>
	<path class="st1" d="M335.2,153.7c1.1,0,1.9,0.9,1.9,1.9c0,1.1-0.9,1.9-1.9,1.9c-1.1,0-1.9-0.9-1.9-1.9
		C333.3,154.6,334.2,153.7,335.2,153.7z"/>
	<path class="st1" d="M13.6,175.1c1.1,0,1.9,0.9,1.9,1.9c0,1.1-0.9,1.9-1.9,1.9c-1.1,0-1.9-0.9-1.9-1.9
		C11.7,175.9,12.6,175.1,13.6,175.1z"/>
	<path class="st1" d="M15.3,196.4c1.1,0,1.9,0.9,1.9,1.9c0,1.1-0.9,1.9-1.9,1.9s-1.9-0.9-1.9-1.9C13.4,197.3,14.2,196.4,15.3,196.4z
		"/>
	<path class="st1" d="M15.7,199c1.1,0,1.9,0.9,1.9,1.9c0,1.1-0.9,1.9-1.9,1.9s-1.9-0.9-1.9-1.9C13.8,199.9,14.6,199,15.7,199z"/>
	<path class="st1" d="M135.3,329.5c1.1,0,1.9,0.9,1.9,1.9c0,1.1-0.9,1.9-1.9,1.9c-1.1,0-1.9-0.9-1.9-1.9
		C133.3,330.3,134.2,329.5,135.3,329.5z"/>
	<path class="st1" d="M301.8,73.2c1.1,0,1.9,0.9,1.9,1.9c0,1.1-0.9,1.9-1.9,1.9c-1.1,0-1.9-0.9-1.9-1.9
		C299.8,74.1,300.7,73.2,301.8,73.2z"/>
	<path class="st1" d="M16.2,201.7c1.1,0,1.9,0.9,1.9,1.9c0,1.1-0.9,1.9-1.9,1.9c-1.1,0-1.9-0.9-1.9-1.9
		C14.2,202.5,15.1,201.7,16.2,201.7z"/>
	<path class="st1" d="M323,237.4c1.1,0,1.9,0.9,1.9,1.9c0,1.1-0.9,1.9-1.9,1.9c-1.1,0-1.9-0.9-1.9-1.9
		C321,238.3,321.9,237.4,323,237.4z"/>
	<path class="st1" d="M32.2,97.8c1.1,0,1.9,0.9,1.9,1.9c0,1.1-0.9,1.9-1.9,1.9c-1.1,0-1.9-0.9-1.9-1.9
		C30.3,98.7,31.1,97.8,32.2,97.8z"/>
	<path class="st1" d="M173.7,11.7c1.1,0,1.9,0.9,1.9,1.9c0,1.1-0.9,1.9-1.9,1.9s-1.9-0.9-1.9-1.9C171.7,12.5,172.6,11.7,173.7,11.7z
		"/>
	<path class="st1" d="M16.7,204.3c1.1,0,1.9,0.9,1.9,1.9c0,1.1-0.9,1.9-1.9,1.9c-1.1,0-1.9-0.9-1.9-1.9
		C14.7,205.2,15.6,204.3,16.7,204.3z"/>
	<path class="st1" d="M31,100.2c1.1,0,1.9,0.9,1.9,1.9c0,1.1-0.9,1.9-1.9,1.9s-1.9-0.9-1.9-1.9C29.1,101.1,29.9,100.2,31,100.2z"/>
	<path class="st1" d="M49.1,274c1.1,0,1.9,0.9,1.9,1.9c0,1.1-0.9,1.9-1.9,1.9c-1.1,0-1.9-0.9-1.9-1.9C47.1,274.8,48,274,49.1,274z"
		/>
	<path class="st1" d="M247.3,317.4c1.1,0,1.9,0.9,1.9,1.9c0,1.1-0.9,1.9-1.9,1.9c-1.1,0-1.9-0.9-1.9-1.9
		C245.3,318.2,246.2,317.4,247.3,317.4z"/>
	<path class="st1" d="M29.8,102.6c1.1,0,1.9,0.9,1.9,1.9c0,1.1-0.9,1.9-1.9,1.9s-1.9-0.9-1.9-1.9C27.9,103.5,28.7,102.6,29.8,102.6z
		"/>
	<path class="st1" d="M50.8,276.1c1.1,0,1.9,0.9,1.9,1.9c0,1.1-0.9,1.9-1.9,1.9c-1.1,0-1.9-0.9-1.9-1.9
		C48.8,276.9,49.7,276.1,50.8,276.1z"/>
	<path class="st1" d="M116.2,22.8c1.1,0,1.9,0.9,1.9,1.9c0,1.1-0.9,1.9-1.9,1.9c-1.1,0-1.9-0.9-1.9-1.9
		C114.2,23.6,115.1,22.8,116.2,22.8z"/>
	<path class="st1" d="M28.7,105c1.1,0,1.9,0.9,1.9,1.9c0,1.1-0.9,1.9-1.9,1.9c-1.1,0-1.9-0.9-1.9-1.9C26.7,105.9,27.6,105,28.7,105z
		"/>
	<path class="st1" d="M27.5,107.5c1.1,0,1.9,0.9,1.9,1.9c0,1.1-0.9,1.9-1.9,1.9c-1.1,0-1.9-0.9-1.9-1.9
		C25.6,108.3,26.5,107.5,27.5,107.5z"/>
	<path class="st1" d="M188.4,333.9c1.1,0,1.9,0.9,1.9,1.9c0,1.1-0.9,1.9-1.9,1.9c-1.1,0-1.9-0.9-1.9-1.9
		C186.4,334.8,187.3,333.9,188.4,333.9z"/>
	<path class="st1" d="M213.4,16.3c1.1,0,1.9,0.9,1.9,1.9c0,1.1-0.9,1.9-1.9,1.9c-1.1,0-1.9-0.9-1.9-1.9
		C211.5,17.2,212.4,16.3,213.4,16.3z"/>
	<path class="st1" d="M323.5,109.9c1.1,0,1.9,0.9,1.9,1.9c0,1.1-0.9,1.9-1.9,1.9c-1.1,0-1.9-0.9-1.9-1.9
		C321.6,110.8,322.4,109.9,323.5,109.9z"/>
	<path class="st1" d="M249.6,316.1c1.1,0,1.9,0.9,1.9,1.9c0,1.1-0.9,1.9-1.9,1.9c-1.1,0-1.9-0.9-1.9-1.9
		C247.7,317,248.6,316.1,249.6,316.1z"/>
	<path class="st1" d="M191,333.6c1.1,0,1.9,0.9,1.9,1.9c0,1.1-0.9,1.9-1.9,1.9c-1.1,0-1.9-0.9-1.9-1.9
		C189.1,334.5,190,333.6,191,333.6z"/>
	<path class="st1" d="M300.1,71.1c1.1,0,1.9,0.9,1.9,1.9c0,1.1-0.9,1.9-1.9,1.9c-1.1,0-1.9-0.9-1.9-1.9
		C298.2,72,299,71.1,300.1,71.1z"/>
	<path class="st1" d="M324,235c1.1,0,1.9,0.9,1.9,1.9c0,1.1-0.9,1.9-1.9,1.9c-1.1,0-1.9-0.9-1.9-1.9C322.1,235.8,323,235,324,235z"
		/>
	<path class="st1" d="M298.4,69c1.1,0,1.9,0.9,1.9,1.9c0,1.1-0.9,1.9-1.9,1.9c-1.1,0-1.9-0.9-1.9-1.9C296.4,69.9,297.3,69,298.4,69z
		"/>
	<path class="st1" d="M113.7,23.8c1.1,0,1.9,0.9,1.9,1.9c0,1.1-0.9,1.9-1.9,1.9c-1.1,0-1.9-0.9-1.9-1.9
		C111.8,24.6,112.6,23.8,113.7,23.8z"/>
	<path class="st1" d="M334.9,151.1c1.1,0,1.9,0.9,1.9,1.9c0,1.1-0.9,1.9-1.9,1.9c-1.1,0-1.9-0.9-1.9-1.9
		C332.9,151.9,333.8,151.1,334.9,151.1z"/>
	<path class="st1" d="M111.2,24.8c1.1,0,1.9,0.9,1.9,1.9c0,1.1-0.9,1.9-1.9,1.9c-1.1,0-1.9-0.9-1.9-1.9
		C109.3,25.7,110.2,24.8,111.2,24.8z"/>
	<path class="st1" d="M252,314.9c1.1,0,1.9,0.9,1.9,1.9c0,1.1-0.9,1.9-1.9,1.9c-1.1,0-1.9-0.9-1.9-1.9
		C250.1,315.8,250.9,314.9,252,314.9z"/>
	<path class="st1" d="M296.6,67c1.1,0,1.9,0.9,1.9,1.9c0,1.1-0.9,1.9-1.9,1.9c-1.1,0-1.9-0.9-1.9-1.9C294.7,67.9,295.6,67,296.6,67z
		"/>
	<path class="st1" d="M294.9,65c1.1,0,1.9,0.9,1.9,1.9c0,1.1-0.9,1.9-1.9,1.9c-1.1,0-1.9-0.9-1.9-1.9C292.9,65.9,293.8,65,294.9,65z
		"/>
	<path class="st1" d="M26.5,109.9c1.1,0,1.9,0.9,1.9,1.9c0,1.1-0.9,1.9-1.9,1.9c-1.1,0-1.9-0.9-1.9-1.9
		C24.5,110.8,25.4,109.9,26.5,109.9z"/>
	<path class="st1" d="M193.7,333.4c1.1,0,1.9,0.9,1.9,1.9c0,1.1-0.9,1.9-1.9,1.9c-1.1,0-1.9-0.9-1.9-1.9
		C191.7,334.2,192.6,333.4,193.7,333.4z"/>
	<path class="st1" d="M108.8,25.9c1.1,0,1.9,0.9,1.9,1.9c0,1.1-0.9,1.9-1.9,1.9c-1.1,0-1.9-0.9-1.9-1.9
		C106.8,26.7,107.7,25.9,108.8,25.9z"/>
	<path class="st1" d="M254.3,313.6c1.1,0,1.9,0.9,1.9,1.9c0,1.1-0.9,1.9-1.9,1.9s-1.9-0.9-1.9-1.9
		C252.4,314.5,253.3,313.6,254.3,313.6z"/>
	<path class="st1" d="M256.7,312.3c1.1,0,1.9,0.9,1.9,1.9c0,1.1-0.9,1.9-1.9,1.9c-1.1,0-1.9-0.9-1.9-1.9
		C254.7,313.1,255.6,312.3,256.7,312.3z"/>
	<path class="st1" d="M293.1,63c1.1,0,1.9,0.9,1.9,1.9c0,1.1-0.9,1.9-1.9,1.9c-1.1,0-1.9-0.9-1.9-1.9C291.1,63.9,292,63,293.1,63z"
		/>
	<path class="st1" d="M196.3,333c1.1,0,1.9,0.9,1.9,1.9c0,1.1-0.9,1.9-1.9,1.9c-1.1,0-1.9-0.9-1.9-1.9
		C194.4,333.9,195.3,333,196.3,333z"/>
	<path class="st1" d="M199,332.6c1.1,0,1.9,0.9,1.9,1.9c0,1.1-0.9,1.9-1.9,1.9c-1.1,0-1.9-0.9-1.9-1.9
		C197,333.5,197.9,332.6,199,332.6z"/>
	<path class="st1" d="M114.9,322.9c1.1,0,1.9,0.9,1.9,1.9c0,1.1-0.9,1.9-1.9,1.9c-1.1,0-1.9-0.9-1.9-1.9
		C113,323.7,113.9,322.9,114.9,322.9z"/>
	<path class="st1" d="M17.2,206.9c1.1,0,1.9,0.9,1.9,1.9c0,1.1-0.9,1.9-1.9,1.9c-1.1,0-1.9-0.9-1.9-1.9
		C15.3,207.8,16.1,206.9,17.2,206.9z"/>
	<path class="st1" d="M137.9,330.1c1.1,0,1.9,0.9,1.9,1.9c0,1.1-0.9,1.9-1.9,1.9c-1.1,0-1.9-0.9-1.9-1.9
		C135.9,331,136.8,330.1,137.9,330.1z"/>
	<path class="st1" d="M106.4,27c1.1,0,1.9,0.9,1.9,1.9c0,1.1-0.9,1.9-1.9,1.9c-1.1,0-1.9-0.9-1.9-1.9C104.4,27.9,105.3,27,106.4,27z
		"/>
	<path class="st1" d="M334.5,148.4c1.1,0,1.9,0.9,1.9,1.9c0,1.1-0.9,1.9-1.9,1.9c-1.1,0-1.9-0.9-1.9-1.9
		C332.6,149.3,333.4,148.4,334.5,148.4z"/>
	<path class="st1" d="M210.8,15.7c1.1,0,1.9,0.9,1.9,1.9c0,1.1-0.9,1.9-1.9,1.9c-1.1,0-1.9-0.9-1.9-1.9
		C208.9,16.6,209.7,15.7,210.8,15.7z"/>
	<path class="st1" d="M259,310.9c1.1,0,1.9,0.9,1.9,1.9c0,1.1-0.9,1.9-1.9,1.9c-1.1,0-1.9-0.9-1.9-1.9
		C257,311.8,257.9,310.9,259,310.9z"/>
	<path class="st1" d="M52.5,278.1c1.1,0,1.9,0.9,1.9,1.9c0,1.1-0.9,1.9-1.9,1.9c-1.1,0-1.9-0.9-1.9-1.9
		C50.5,279,51.4,278.1,52.5,278.1z"/>
	<path class="st1" d="M54.2,280.1c1.1,0,1.9,0.9,1.9,1.9c0,1.1-0.9,1.9-1.9,1.9c-1.1,0-1.9-0.9-1.9-1.9
		C52.3,281,53.2,280.1,54.2,280.1z"/>
	<path class="st1" d="M261.2,309.5c1.1,0,1.9,0.9,1.9,1.9c0,1.1-0.9,1.9-1.9,1.9c-1.1,0-1.9-0.9-1.9-1.9
		C259.3,310.3,260.2,309.5,261.2,309.5z"/>
	<path class="st1" d="M17.8,209.5c1.1,0,1.9,0.9,1.9,1.9c0,1.1-0.9,1.9-1.9,1.9c-1.1,0-1.9-0.9-1.9-1.9
		C15.8,210.4,16.7,209.5,17.8,209.5z"/>
	<path class="st1" d="M103.9,28.2c1.1,0,1.9,0.9,1.9,1.9c0,1.1-0.9,1.9-1.9,1.9c-1.1,0-1.9-0.9-1.9-1.9
		C102,29,102.9,28.2,103.9,28.2z"/>
	<path class="st1" d="M291.2,61.1c1.1,0,1.9,0.9,1.9,1.9c0,1.1-0.9,1.9-1.9,1.9c-1.1,0-1.9-0.9-1.9-1.9
		C289.3,62,290.2,61.1,291.2,61.1z"/>
	<path class="st1" d="M289.4,59.2c1.1,0,1.9,0.9,1.9,1.9c0,1.1-0.9,1.9-1.9,1.9c-1.1,0-1.9-0.9-1.9-1.9
		C287.4,60,288.3,59.2,289.4,59.2z"/>
	<path class="st1" d="M325,232.5c1.1,0,1.9,0.9,1.9,1.9c0,1.1-0.9,1.9-1.9,1.9c-1.1,0-1.9-0.9-1.9-1.9
		C323.1,233.4,324,232.5,325,232.5z"/>
	<path class="st1" d="M326,230c1.1,0,1.9,0.9,1.9,1.9c0,1.1-0.9,1.9-1.9,1.9c-1.1,0-1.9-0.9-1.9-1.9C324.1,230.9,324.9,230,326,230z
		"/>
	<path class="st1" d="M326.9,227.5c1.1,0,1.9,0.9,1.9,1.9c0,1.1-0.9,1.9-1.9,1.9c-1.1,0-1.9-0.9-1.9-1.9
		C325,228.4,325.9,227.5,326.9,227.5z"/>
	<path class="st1" d="M287.5,57.3c1.1,0,1.9,0.9,1.9,1.9c0,1.1-0.9,1.9-1.9,1.9s-1.9-0.9-1.9-1.9C285.5,58.2,286.4,57.3,287.5,57.3z
		"/>
	<path class="st1" d="M334.1,145.8c1.1,0,1.9,0.9,1.9,1.9c0,1.1-0.9,1.9-1.9,1.9c-1.1,0-1.9-0.9-1.9-1.9
		C332.1,146.6,333,145.8,334.1,145.8z"/>
	<path class="st1" d="M159,333.6c1.1,0,1.9,0.9,1.9,1.9c0,1.1-0.9,1.9-1.9,1.9c-1.1,0-1.9-0.9-1.9-1.9
		C157,334.5,157.9,333.6,159,333.6z"/>
	<path class="st1" d="M315.2,93.1c1.1,0,1.9,0.9,1.9,1.9c0,1.1-0.9,1.9-1.9,1.9c-1.1,0-1.9-0.9-1.9-1.9
		C313.3,94,314.1,93.1,315.2,93.1z"/>
	<path class="st1" d="M322.5,107.5c1.1,0,1.9,0.9,1.9,1.9c0,1.1-0.9,1.9-1.9,1.9c-1.1,0-1.9-0.9-1.9-1.9
		C320.5,108.3,321.4,107.5,322.5,107.5z"/>
	<path class="st1" d="M25.5,112.4c1.1,0,1.9,0.9,1.9,1.9c0,1.1-0.9,1.9-1.9,1.9s-1.9-0.9-1.9-1.9C23.5,113.2,24.4,112.4,25.5,112.4z
		"/>
	<path class="st1" d="M101.6,29.4c1.1,0,1.9,0.9,1.9,1.9c0,1.1-0.9,1.9-1.9,1.9c-1.1,0-1.9-0.9-1.9-1.9
		C99.6,30.2,100.5,29.4,101.6,29.4z"/>
	<path class="st1" d="M171,11.7c1.1,0,1.9,0.9,1.9,1.9c0,1.1-0.9,1.9-1.9,1.9c-1.1,0-1.9-0.9-1.9-1.9C169,12.6,169.9,11.7,171,11.7z
		"/>
	<path class="st1" d="M285.5,55.4c1.1,0,1.9,0.9,1.9,1.9c0,1.1-0.9,1.9-1.9,1.9c-1.1,0-1.9-0.9-1.9-1.9
		C283.6,56.3,284.4,55.4,285.5,55.4z"/>
	<path class="st1" d="M18.4,212.1c1.1,0,1.9,0.9,1.9,1.9c0,1.1-0.9,1.9-1.9,1.9c-1.1,0-1.9-0.9-1.9-1.9
		C16.5,213,17.3,212.1,18.4,212.1z"/>
	<path class="st1" d="M161.6,333.9c1.1,0,1.9,0.9,1.9,1.9c0,1.1-0.9,1.9-1.9,1.9c-1.1,0-1.9-0.9-1.9-1.9
		C159.7,334.8,160.6,333.9,161.6,333.9z"/>
	<path class="st1" d="M168.3,11.8c1.1,0,1.9,0.9,1.9,1.9c0,1.1-0.9,1.9-1.9,1.9c-1.1,0-1.9-0.9-1.9-1.9
		C166.4,12.7,167.2,11.8,168.3,11.8z"/>
	<path class="st1" d="M140.5,330.7c1.1,0,1.9,0.9,1.9,1.9c0,1.1-0.9,1.9-1.9,1.9c-1.1,0-1.9-0.9-1.9-1.9
		C138.5,331.6,139.4,330.7,140.5,330.7z"/>
	<path class="st1" d="M13.7,177.7c1.1,0,1.9,0.9,1.9,1.9s-0.9,1.9-1.9,1.9c-1.1,0-1.9-0.9-1.9-1.9S12.6,177.7,13.7,177.7z"/>
	<path class="st1" d="M56,282.1c1.1,0,1.9,0.9,1.9,1.9c0,1.1-0.9,1.9-1.9,1.9c-1.1,0-1.9-0.9-1.9-1.9C54.1,283,55,282.1,56,282.1z"
		/>
	<path class="st1" d="M99.2,30.6c1.1,0,1.9,0.9,1.9,1.9c0,1.1-0.9,1.9-1.9,1.9c-1.1,0-1.9-0.9-1.9-1.9
		C97.2,31.5,98.1,30.6,99.2,30.6z"/>
	<path class="st1" d="M263.5,308c1.1,0,1.9,0.9,1.9,1.9c0,1.1-0.9,1.9-1.9,1.9c-1.1,0-1.9-0.9-1.9-1.9
		C261.5,308.9,262.4,308,263.5,308z"/>
	<path class="st1" d="M96.8,31.9c1.1,0,1.9,0.9,1.9,1.9c0,1.1-0.9,1.9-1.9,1.9c-1.1,0-1.9-0.9-1.9-1.9
		C94.9,32.7,95.8,31.9,96.8,31.9z"/>
	<path class="st1" d="M57.9,284.1c1.1,0,1.9,0.9,1.9,1.9c0,1.1-0.9,1.9-1.9,1.9s-1.9-0.9-1.9-1.9C55.9,284.9,56.8,284.1,57.9,284.1z
		"/>
	<path class="st1" d="M94.5,33.2c1.1,0,1.9,0.9,1.9,1.9c0,1.1-0.9,1.9-1.9,1.9s-1.9-0.9-1.9-1.9C92.6,34,93.4,33.2,94.5,33.2z"/>
	<path class="st1" d="M201.6,332.2c1.1,0,1.9,0.9,1.9,1.9c0,1.1-0.9,1.9-1.9,1.9s-1.9-0.9-1.9-1.9
		C199.7,333.1,200.6,332.2,201.6,332.2z"/>
	<path class="st1" d="M208.2,15.1c1.1,0,1.9,0.9,1.9,1.9c0,1.1-0.9,1.9-1.9,1.9c-1.1,0-1.9-0.9-1.9-1.9
		C206.3,16,207.1,15.1,208.2,15.1z"/>
	<path class="st1" d="M313.9,90.8c1.1,0,1.9,0.9,1.9,1.9c0,1.1-0.9,1.9-1.9,1.9c-1.1,0-1.9-0.9-1.9-1.9
		C311.9,91.7,312.8,90.8,313.9,90.8z"/>
	<path class="st1" d="M92.2,34.5c1.1,0,1.9,0.9,1.9,1.9c0,1.1-0.9,1.9-1.9,1.9c-1.1,0-1.9-0.9-1.9-1.9
		C90.3,35.4,91.1,34.5,92.2,34.5z"/>
	<path class="st1" d="M165.6,11.9c1.1,0,1.9,0.9,1.9,1.9c0,1.1-0.9,1.9-1.9,1.9c-1.1,0-1.9-0.9-1.9-1.9
		C163.7,12.8,164.6,11.9,165.6,11.9z"/>
	<path class="st1" d="M321.3,105c1.1,0,1.9,0.9,1.9,1.9c0,1.1-0.9,1.9-1.9,1.9c-1.1,0-1.9-0.9-1.9-1.9
		C319.4,105.9,320.3,105,321.3,105z"/>
	<path class="st1" d="M24.5,114.9c1.1,0,1.9,0.9,1.9,1.9c0,1.1-0.9,1.9-1.9,1.9c-1.1,0-1.9-0.9-1.9-1.9
		C22.5,115.7,23.4,114.9,24.5,114.9z"/>
	<path class="st1" d="M327.8,225c1.1,0,1.9,0.9,1.9,1.9c0,1.1-0.9,1.9-1.9,1.9c-1.1,0-1.9-0.9-1.9-1.9
		C325.9,225.8,326.7,225,327.8,225z"/>
	<path class="st1" d="M163,12.1c1.1,0,1.9,0.9,1.9,1.9c0,1.1-0.9,1.9-1.9,1.9c-1.1,0-1.9-0.9-1.9-1.9C161,13,161.9,12.1,163,12.1z"
		/>
	<path class="st1" d="M160.3,12.3c1.1,0,1.9,0.9,1.9,1.9c0,1.1-0.9,1.9-1.9,1.9c-1.1,0-1.9-0.9-1.9-1.9
		C158.4,13.2,159.2,12.3,160.3,12.3z"/>
	<path class="st1" d="M89.9,35.9c1.1,0,1.9,0.9,1.9,1.9c0,1.1-0.9,1.9-1.9,1.9c-1.1,0-1.9-0.9-1.9-1.9C88,36.8,88.8,35.9,89.9,35.9z
		"/>
	<path class="st1" d="M333.6,143.1c1.1,0,1.9,0.9,1.9,1.9c0,1.1-0.9,1.9-1.9,1.9s-1.9-0.9-1.9-1.9
		C331.6,144,332.5,143.1,333.6,143.1z"/>
	<path class="st1" d="M283.6,53.6c1.1,0,1.9,0.9,1.9,1.9c0,1.1-0.9,1.9-1.9,1.9c-1.1,0-1.9-0.9-1.9-1.9
		C281.6,54.5,282.5,53.6,283.6,53.6z"/>
	<path class="st1" d="M205.6,14.6c1.1,0,1.9,0.9,1.9,1.9c0,1.1-0.9,1.9-1.9,1.9c-1.1,0-1.9-0.9-1.9-1.9
		C203.6,15.5,204.5,14.6,205.6,14.6z"/>
	<path class="st1" d="M333.1,140.5c1.1,0,1.9,0.9,1.9,1.9c0,1.1-0.9,1.9-1.9,1.9c-1.1,0-1.9-0.9-1.9-1.9
		C331.1,141.4,332,140.5,333.1,140.5z"/>
	<path class="st1" d="M14.2,159c1.1,0,1.9,0.9,1.9,1.9c0,1.1-0.9,1.9-1.9,1.9c-1.1,0-1.9-0.9-1.9-1.9C12.3,159.9,13.2,159,14.2,159z
		"/>
	<path class="st1" d="M328.7,222.4c1.1,0,1.9,0.9,1.9,1.9c0,1.1-0.9,1.9-1.9,1.9c-1.1,0-1.9-0.9-1.9-1.9
		C326.7,223.3,327.6,222.4,328.7,222.4z"/>
	<path class="st1" d="M281.6,51.8c1.1,0,1.9,0.9,1.9,1.9s-0.9,1.9-1.9,1.9c-1.1,0-1.9-0.9-1.9-1.9S280.5,51.8,281.6,51.8z"/>
	<path class="st1" d="M19.1,214.7c1.1,0,1.9,0.9,1.9,1.9c0,1.1-0.9,1.9-1.9,1.9c-1.1,0-1.9-0.9-1.9-1.9
		C17.1,215.6,18,214.7,19.1,214.7z"/>
	<path class="st1" d="M265.7,306.5c1.1,0,1.9,0.9,1.9,1.9c0,1.1-0.9,1.9-1.9,1.9c-1.1,0-1.9-0.9-1.9-1.9
		C263.8,307.4,264.6,306.5,265.7,306.5z"/>
	<path class="st1" d="M23.5,117.4c1.1,0,1.9,0.9,1.9,1.9c0,1.1-0.9,1.9-1.9,1.9s-1.9-0.9-1.9-1.9C21.6,118.2,22.5,117.4,23.5,117.4z
		"/>
	<path class="st1" d="M204.3,331.8c1.1,0,1.9,0.9,1.9,1.9c0,1.1-0.9,1.9-1.9,1.9c-1.1,0-1.9-0.9-1.9-1.9
		C202.3,332.6,203.2,331.8,204.3,331.8z"/>
	<path class="st1" d="M87.6,37.4c1.1,0,1.9,0.9,1.9,1.9c0,1.1-0.9,1.9-1.9,1.9c-1.1,0-1.9-0.9-1.9-1.9
		C85.7,38.2,86.6,37.4,87.6,37.4z"/>
	<path class="st1" d="M22.6,119.9c1.1,0,1.9,0.9,1.9,1.9c0,1.1-0.9,1.9-1.9,1.9c-1.1,0-1.9-0.9-1.9-1.9
		C20.7,120.8,21.6,119.9,22.6,119.9z"/>
	<path class="st1" d="M279.5,50.1c1.1,0,1.9,0.9,1.9,1.9c0,1.1-0.9,1.9-1.9,1.9c-1.1,0-1.9-0.9-1.9-1.9
		C277.6,51,278.5,50.1,279.5,50.1z"/>
	<path class="st1" d="M59.7,286c1.1,0,1.9,0.9,1.9,1.9c0,1.1-0.9,1.9-1.9,1.9c-1.1,0-1.9-0.9-1.9-1.9C57.8,286.9,58.6,286,59.7,286z
		"/>
	<path class="st1" d="M157.6,12.6c1.1,0,1.9,0.9,1.9,1.9c0,1.1-0.9,1.9-1.9,1.9c-1.1,0-1.9-0.9-1.9-1.9
		C155.7,13.5,156.6,12.6,157.6,12.6z"/>
	<path class="st1" d="M277.5,48.4c1.1,0,1.9,0.9,1.9,1.9c0,1.1-0.9,1.9-1.9,1.9s-1.9-0.9-1.9-1.9C275.5,49.3,276.4,48.4,277.5,48.4z
		"/>
	<path class="st1" d="M19.8,217.3c1.1,0,1.9,0.9,1.9,1.9c0,1.1-0.9,1.9-1.9,1.9s-1.9-0.9-1.9-1.9C17.9,218.2,18.7,217.3,19.8,217.3z
		"/>
	<path class="st1" d="M20.6,219.9c1.1,0,1.9,0.9,1.9,1.9c0,1.1-0.9,1.9-1.9,1.9c-1.1,0-1.9-0.9-1.9-1.9
		C18.6,220.7,19.5,219.9,20.6,219.9z"/>
	<path class="st1" d="M21.3,222.4c1.1,0,1.9,0.9,1.9,1.9c0,1.1-0.9,1.9-1.9,1.9c-1.1,0-1.9-0.9-1.9-1.9
		C19.4,223.3,20.3,222.4,21.3,222.4z"/>
	<path class="st1" d="M143.1,331.3c1.1,0,1.9,0.9,1.9,1.9c0,1.1-0.9,1.9-1.9,1.9c-1.1,0-1.9-0.9-1.9-1.9
		C141.2,332.1,142,331.3,143.1,331.3z"/>
	<path class="st1" d="M329.4,219.9c1.1,0,1.9,0.9,1.9,1.9c0,1.1-0.9,1.9-1.9,1.9s-1.9-0.9-1.9-1.9
		C327.5,220.7,328.4,219.9,329.4,219.9z"/>
	<path class="st1" d="M332.5,137.9c1.1,0,1.9,0.9,1.9,1.9c0,1.1-0.9,1.9-1.9,1.9c-1.1,0-1.9-0.9-1.9-1.9
		C330.6,138.8,331.4,137.9,332.5,137.9z"/>
	<path class="st1" d="M320.2,102.6c1.1,0,1.9,0.9,1.9,1.9c0,1.1-0.9,1.9-1.9,1.9c-1.1,0-1.9-0.9-1.9-1.9
		C318.3,103.5,319.1,102.6,320.2,102.6z"/>
	<path class="st1" d="M85.4,38.8c1.1,0,1.9,0.9,1.9,1.9c0,1.1-0.9,1.9-1.9,1.9c-1.1,0-1.9-0.9-1.9-1.9
		C83.5,39.7,84.3,38.8,85.4,38.8z"/>
	<path class="st1" d="M331.9,135.3c1.1,0,1.9,0.9,1.9,1.9c0,1.1-0.9,1.9-1.9,1.9c-1.1,0-1.9-0.9-1.9-1.9
		C330,136.2,330.8,135.3,331.9,135.3z"/>
	<path class="st1" d="M275.4,46.7c1.1,0,1.9,0.9,1.9,1.9s-0.9,1.9-1.9,1.9c-1.1,0-1.9-0.9-1.9-1.9S274.3,46.7,275.4,46.7z"/>
	<path class="st1" d="M14,161.7c1.1,0,1.9,0.9,1.9,1.9c0,1.1-0.9,1.9-1.9,1.9c-1.1,0-1.9-0.9-1.9-1.9
		C12.1,162.6,12.9,161.7,14,161.7z"/>
	<path class="st1" d="M206.9,331.3c1.1,0,1.9,0.9,1.9,1.9c0,1.1-0.9,1.9-1.9,1.9c-1.1,0-1.9-0.9-1.9-1.9
		C205,332.1,205.8,331.3,206.9,331.3z"/>
	<path class="st1" d="M330.2,217.3c1.1,0,1.9,0.9,1.9,1.9c0,1.1-0.9,1.9-1.9,1.9c-1.1,0-1.9-0.9-1.9-1.9
		C328.3,218.2,329.1,217.3,330.2,217.3z"/>
	<path class="st1" d="M319,100.2c1.1,0,1.9,0.9,1.9,1.9c0,1.1-0.9,1.9-1.9,1.9c-1.1,0-1.9-0.9-1.9-1.9
		C317.1,101.1,317.9,100.2,319,100.2z"/>
	<path class="st1" d="M21.8,122.4c1.1,0,1.9,0.9,1.9,1.9c0,1.1-0.9,1.9-1.9,1.9s-1.9-0.9-1.9-1.9C19.8,123.3,20.7,122.4,21.8,122.4z
		"/>
	<path class="st1" d="M267.9,305c1.1,0,1.9,0.9,1.9,1.9c0,1.1-0.9,1.9-1.9,1.9c-1.1,0-1.9-0.9-1.9-1.9
		C266,305.9,266.8,305,267.9,305z"/>
	<path class="st1" d="M273.3,45.1c1.1,0,1.9,0.9,1.9,1.9c0,1.1-0.9,1.9-1.9,1.9c-1.1,0-1.9-0.9-1.9-1.9
		C271.3,45.9,272.2,45.1,273.3,45.1z"/>
	<path class="st1" d="M270.1,303.5c1.1,0,1.9,0.9,1.9,1.9c0,1.1-0.9,1.9-1.9,1.9c-1.1,0-1.9-0.9-1.9-1.9
		C268.1,304.3,269,303.5,270.1,303.5z"/>
	<path class="st1" d="M209.5,330.7c1.1,0,1.9,0.9,1.9,1.9c0,1.1-0.9,1.9-1.9,1.9c-1.1,0-1.9-0.9-1.9-1.9
		C207.6,331.6,208.4,330.7,209.5,330.7z"/>
	<path class="st1" d="M61.6,287.9c1.1,0,1.9,0.9,1.9,1.9c0,1.1-0.9,1.9-1.9,1.9c-1.1,0-1.9-0.9-1.9-1.9
		C59.7,288.8,60.5,287.9,61.6,287.9z"/>
	<path class="st1" d="M271.2,43.4c1.1,0,1.9,0.9,1.9,1.9c0,1.1-0.9,1.9-1.9,1.9c-1.1,0-1.9-0.9-1.9-1.9
		C269.2,44.3,270.1,43.4,271.2,43.4z"/>
	<path class="st1" d="M272.2,301.9c1.1,0,1.9,0.9,1.9,1.9c0,1.1-0.9,1.9-1.9,1.9s-1.9-0.9-1.9-1.9
		C270.3,302.7,271.2,301.9,272.2,301.9z"/>
	<path class="st1" d="M269,41.9c1.1,0,1.9,0.9,1.9,1.9c0,1.1-0.9,1.9-1.9,1.9c-1.1,0-1.9-0.9-1.9-1.9
		C267.1,42.7,267.9,41.9,269,41.9z"/>
	<path class="st1" d="M13.8,180.4c1.1,0,1.9,0.9,1.9,1.9c0,1.1-0.9,1.9-1.9,1.9c-1.1,0-1.9-0.9-1.9-1.9
		C11.8,181.3,12.7,180.4,13.8,180.4z"/>
	<path class="st1" d="M20.9,125c1.1,0,1.9,0.9,1.9,1.9c0,1.1-0.9,1.9-1.9,1.9c-1.1,0-1.9-0.9-1.9-1.9C19,125.8,19.9,125,20.9,125z"
		/>
	<path class="st1" d="M330.9,214.7c1.1,0,1.9,0.9,1.9,1.9c0,1.1-0.9,1.9-1.9,1.9c-1.1,0-1.9-0.9-1.9-1.9
		C329,215.6,329.8,214.7,330.9,214.7z"/>
	<path class="st1" d="M63.5,289.7c1.1,0,1.9,0.9,1.9,1.9c0,1.1-0.9,1.9-1.9,1.9c-1.1,0-1.9-0.9-1.9-1.9
		C61.6,290.6,62.4,289.7,63.5,289.7z"/>
	<path class="st1" d="M22.2,225c1.1,0,1.9,0.9,1.9,1.9c0,1.1-0.9,1.9-1.9,1.9s-1.9-0.9-1.9-1.9C20.2,225.8,21.1,225,22.2,225z"/>
	<path class="st1" d="M20.2,127.5c1.1,0,1.9,0.9,1.9,1.9c0,1.1-0.9,1.9-1.9,1.9c-1.1,0-1.9-0.9-1.9-1.9
		C18.2,128.4,19.1,127.5,20.2,127.5z"/>
	<path class="st1" d="M23.1,227.5c1.1,0,1.9,0.9,1.9,1.9c0,1.1-0.9,1.9-1.9,1.9c-1.1,0-1.9-0.9-1.9-1.9
		C21.1,228.4,22,227.5,23.1,227.5z"/>
	<path class="st1" d="M65.5,291.6c1.1,0,1.9,0.9,1.9,1.9c0,1.1-0.9,1.9-1.9,1.9c-1.1,0-1.9-0.9-1.9-1.9
		C63.5,292.4,64.4,291.6,65.5,291.6z"/>
	<path class="st1" d="M83.2,40.3c1.1,0,1.9,0.9,1.9,1.9c0,1.1-0.9,1.9-1.9,1.9c-1.1,0-1.9-0.9-1.9-1.9
		C81.3,41.2,82.1,40.3,83.2,40.3z"/>
	<path class="st1" d="M145.7,331.8c1.1,0,1.9,0.9,1.9,1.9c0,1.1-0.9,1.9-1.9,1.9c-1.1,0-1.9-0.9-1.9-1.9
		C143.8,332.6,144.7,331.8,145.7,331.8z"/>
	<path class="st1" d="M212.1,330.1c1.1,0,1.9,0.9,1.9,1.9c0,1.1-0.9,1.9-1.9,1.9c-1.1,0-1.9-0.9-1.9-1.9
		C210.2,331,211.1,330.1,212.1,330.1z"/>
	<path class="st1" d="M13.9,183.1c1.1,0,1.9,0.9,1.9,1.9c0,1.1-0.9,1.9-1.9,1.9S12,186.1,12,185C12,184,12.9,183.1,13.9,183.1z"/>
	<path class="st1" d="M67.4,293.4c1.1,0,1.9,0.9,1.9,1.9c0,1.1-0.9,1.9-1.9,1.9c-1.1,0-1.9-0.9-1.9-1.9
		C65.5,294.2,66.4,293.4,67.4,293.4z"/>
	<path class="st1" d="M274.3,300.2c1.1,0,1.9,0.9,1.9,1.9c0,1.1-0.9,1.9-1.9,1.9c-1.1,0-1.9-0.9-1.9-1.9
		C272.4,301.1,273.3,300.2,274.3,300.2z"/>
	<path class="st1" d="M155,12.9c1.1,0,1.9,0.9,1.9,1.9c0,1.1-0.9,1.9-1.9,1.9c-1.1,0-1.9-0.9-1.9-1.9C153,13.8,153.9,12.9,155,12.9z
		"/>
	<path class="st1" d="M24,230c1.1,0,1.9,0.9,1.9,1.9c0,1.1-0.9,1.9-1.9,1.9s-1.9-0.9-1.9-1.9C22.1,230.9,22.9,230,24,230z"/>
	<path class="st1" d="M117.4,323.8c1.1,0,1.9,0.9,1.9,1.9c0,1.1-0.9,1.9-1.9,1.9c-1.1,0-1.9-0.9-1.9-1.9
		C115.5,324.7,116.4,323.8,117.4,323.8z"/>
	<path class="st1" d="M266.8,40.3c1.1,0,1.9,0.9,1.9,1.9c0,1.1-0.9,1.9-1.9,1.9c-1.1,0-1.9-0.9-1.9-1.9
		C264.9,41.2,265.7,40.3,266.8,40.3z"/>
	<path class="st1" d="M81,41.9c1.1,0,1.9,0.9,1.9,1.9c0,1.1-0.9,1.9-1.9,1.9c-1.1,0-1.9-0.9-1.9-1.9C79.1,42.7,79.9,41.9,81,41.9z"
		/>
	<path class="st1" d="M164.3,334.1c1.1,0,1.9,0.9,1.9,1.9c0,1.1-0.9,1.9-1.9,1.9c-1.1,0-1.9-0.9-1.9-1.9
		C162.4,335,163.2,334.1,164.3,334.1z"/>
	<path class="st1" d="M19.4,130.1c1.1,0,1.9,0.9,1.9,1.9c0,1.1-0.9,1.9-1.9,1.9c-1.1,0-1.9-0.9-1.9-1.9
		C17.5,131,18.4,130.1,19.4,130.1z"/>
	<path class="st1" d="M331.6,212.1c1.1,0,1.9,0.9,1.9,1.9c0,1.1-0.9,1.9-1.9,1.9c-1.1,0-1.9-0.9-1.9-1.9
		C329.6,213,330.5,212.1,331.6,212.1z"/>
	<path class="st1" d="M203,14.1c1.1,0,1.9,0.9,1.9,1.9c0,1.1-0.9,1.9-1.9,1.9c-1.1,0-1.9-0.9-1.9-1.9C201,15,201.9,14.1,203,14.1z"
		/>
	<path class="st1" d="M69.5,295.1c1.1,0,1.9,0.9,1.9,1.9c0,1.1-0.9,1.9-1.9,1.9c-1.1,0-1.9-0.9-1.9-1.9
		C67.5,296,68.4,295.1,69.5,295.1z"/>
	<path class="st1" d="M71.5,296.9c1.1,0,1.9,0.9,1.9,1.9c0,1.1-0.9,1.9-1.9,1.9c-1.1,0-1.9-0.9-1.9-1.9
		C69.5,297.7,70.4,296.9,71.5,296.9z"/>
	<path class="st1" d="M78.8,43.4c1.1,0,1.9,0.9,1.9,1.9c0,1.1-0.9,1.9-1.9,1.9c-1.1,0-1.9-0.9-1.9-1.9
		C76.9,44.3,77.8,43.4,78.8,43.4z"/>
	<path class="st1" d="M276.4,298.6c1.1,0,1.9,0.9,1.9,1.9c0,1.1-0.9,1.9-1.9,1.9c-1.1,0-1.9-0.9-1.9-1.9
		C274.5,299.4,275.4,298.6,276.4,298.6z"/>
	<path class="st1" d="M76.7,45.1c1.1,0,1.9,0.9,1.9,1.9c0,1.1-0.9,1.9-1.9,1.9c-1.1,0-1.9-0.9-1.9-1.9
		C74.8,45.9,75.6,45.1,76.7,45.1z"/>
	<path class="st1" d="M317.8,97.8c1.1,0,1.9,0.9,1.9,1.9c0,1.1-0.9,1.9-1.9,1.9c-1.1,0-1.9-0.9-1.9-1.9
		C315.8,98.7,316.7,97.8,317.8,97.8z"/>
	<path class="st1" d="M214.7,329.5c1.1,0,1.9,0.9,1.9,1.9c0,1.1-0.9,1.9-1.9,1.9c-1.1,0-1.9-0.9-1.9-1.9
		C212.8,330.3,213.6,329.5,214.7,329.5z"/>
	<path class="st1" d="M312.5,88.5c1.1,0,1.9,0.9,1.9,1.9c0,1.1-0.9,1.9-1.9,1.9s-1.9-0.9-1.9-1.9C310.5,89.4,311.4,88.5,312.5,88.5z
		"/>
	<path class="st1" d="M200.3,13.7c1.1,0,1.9,0.9,1.9,1.9c0,1.1-0.9,1.9-1.9,1.9c-1.1,0-1.9-0.9-1.9-1.9
		C198.4,14.5,199.2,13.7,200.3,13.7z"/>
	<path class="st1" d="M74.6,46.7c1.1,0,1.9,0.9,1.9,1.9s-0.9,1.9-1.9,1.9c-1.1,0-1.9-0.9-1.9-1.9S73.5,46.7,74.6,46.7z"/>
	<path class="st1" d="M73.6,298.6c1.1,0,1.9,0.9,1.9,1.9c0,1.1-0.9,1.9-1.9,1.9c-1.1,0-1.9-0.9-1.9-1.9
		C71.6,299.4,72.5,298.6,73.6,298.6z"/>
	<path class="st1" d="M72.5,48.4c1.1,0,1.9,0.9,1.9,1.9c0,1.1-0.9,1.9-1.9,1.9c-1.1,0-1.9-0.9-1.9-1.9
		C70.6,49.3,71.4,48.4,72.5,48.4z"/>
	<path class="st1" d="M14.1,185.8c1.1,0,1.9,0.9,1.9,1.9c0,1.1-0.9,1.9-1.9,1.9c-1.1,0-1.9-0.9-1.9-1.9
		C12.2,186.6,13,185.8,14.1,185.8z"/>
	<path class="st1" d="M25,232.5c1.1,0,1.9,0.9,1.9,1.9c0,1.1-0.9,1.9-1.9,1.9c-1.1,0-1.9-0.9-1.9-1.9C23,233.4,23.9,232.5,25,232.5z
		"/>
	<path class="st1" d="M70.5,50.1c1.1,0,1.9,0.9,1.9,1.9c0,1.1-0.9,1.9-1.9,1.9c-1.1,0-1.9-0.9-1.9-1.9C68.5,51,69.4,50.1,70.5,50.1z
		"/>
	<path class="st1" d="M68.4,51.8c1.1,0,1.9,0.9,1.9,1.9s-0.9,1.9-1.9,1.9c-1.1,0-1.9-0.9-1.9-1.9S67.4,51.8,68.4,51.8z"/>
	<path class="st1" d="M278.5,296.9c1.1,0,1.9,0.9,1.9,1.9c0,1.1-0.9,1.9-1.9,1.9c-1.1,0-1.9-0.9-1.9-1.9
		C276.6,297.7,277.4,296.9,278.5,296.9z"/>
	<path class="st1" d="M26,235c1.1,0,1.9,0.9,1.9,1.9c0,1.1-0.9,1.9-1.9,1.9S24,238,24,236.9C24,235.8,24.9,235,26,235z"/>
	<path class="st1" d="M217.3,328.8c1.1,0,1.9,0.9,1.9,1.9c0,1.1-0.9,1.9-1.9,1.9c-1.1,0-1.9-0.9-1.9-1.9
		C215.4,329.7,216.2,328.8,217.3,328.8z"/>
	<path class="st1" d="M148.4,332.2c1.1,0,1.9,0.9,1.9,1.9c0,1.1-0.9,1.9-1.9,1.9c-1.1,0-1.9-0.9-1.9-1.9
		C146.4,333.1,147.3,332.2,148.4,332.2z"/>
	<path class="st1" d="M119.9,324.8c1.1,0,1.9,0.9,1.9,1.9c0,1.1-0.9,1.9-1.9,1.9c-1.1,0-1.9-0.9-1.9-1.9
		C118,325.6,118.9,324.8,119.9,324.8z"/>
	<path class="st1" d="M219.9,328.1c1.1,0,1.9,0.9,1.9,1.9c0,1.1-0.9,1.9-1.9,1.9c-1.1,0-1.9-0.9-1.9-1.9
		C217.9,328.9,218.8,328.1,219.9,328.1z"/>
	<path class="st1" d="M167,334.2c1.1,0,1.9,0.9,1.9,1.9c0,1.1-0.9,1.9-1.9,1.9c-1.1,0-1.9-0.9-1.9-1.9
		C165,335.1,165.9,334.2,167,334.2z"/>
	<path class="st1" d="M27,237.4c1.1,0,1.9,0.9,1.9,1.9c0,1.1-0.9,1.9-1.9,1.9c-1.1,0-1.9-0.9-1.9-1.9
		C25.1,238.3,25.9,237.4,27,237.4z"/>
	<path class="st1" d="M311.1,86.3c1.1,0,1.9,0.9,1.9,1.9c0,1.1-0.9,1.9-1.9,1.9c-1.1,0-1.9-0.9-1.9-1.9
		C309.1,87.1,310,86.3,311.1,86.3z"/>
	<path class="st1" d="M332.2,209.5c1.1,0,1.9,0.9,1.9,1.9c0,1.1-0.9,1.9-1.9,1.9c-1.1,0-1.9-0.9-1.9-1.9
		C330.3,210.4,331.1,209.5,332.2,209.5z"/>
	<path class="st1" d="M152.3,13.3c1.1,0,1.9,0.9,1.9,1.9c0,1.1-0.9,1.9-1.9,1.9c-1.1,0-1.9-0.9-1.9-1.9
		C150.4,14.1,151.3,13.3,152.3,13.3z"/>
	<path class="st1" d="M280.5,295.1c1.1,0,1.9,0.9,1.9,1.9c0,1.1-0.9,1.9-1.9,1.9c-1.1,0-1.9-0.9-1.9-1.9
		C278.6,296,279.5,295.1,280.5,295.1z"/>
	<path class="st1" d="M264.6,38.8c1.1,0,1.9,0.9,1.9,1.9c0,1.1-0.9,1.9-1.9,1.9c-1.1,0-1.9-0.9-1.9-1.9
		C262.7,39.7,263.5,38.8,264.6,38.8z"/>
	<path class="st1" d="M282.6,293.4c1.1,0,1.9,0.9,1.9,1.9c0,1.1-0.9,1.9-1.9,1.9c-1.1,0-1.9-0.9-1.9-1.9
		C280.6,294.2,281.5,293.4,282.6,293.4z"/>
	<path class="st1" d="M332.8,206.9c1.1,0,1.9,0.9,1.9,1.9c0,1.1-0.9,1.9-1.9,1.9s-1.9-0.9-1.9-1.9
		C330.9,207.8,331.7,206.9,332.8,206.9z"/>
	<path class="st1" d="M284.5,291.6c1.1,0,1.9,0.9,1.9,1.9c0,1.1-0.9,1.9-1.9,1.9c-1.1,0-1.9-0.9-1.9-1.9
		C282.6,292.4,283.5,291.6,284.5,291.6z"/>
	<path class="st1" d="M222.4,327.3c1.1,0,1.9,0.9,1.9,1.9c0,1.1-0.9,1.9-1.9,1.9c-1.1,0-1.9-0.9-1.9-1.9
		C220.5,328.2,221.4,327.3,222.4,327.3z"/>
	<path class="st1" d="M286.5,289.7c1.1,0,1.9,0.9,1.9,1.9c0,1.1-0.9,1.9-1.9,1.9c-1.1,0-1.9-0.9-1.9-1.9
		C284.5,290.6,285.4,289.7,286.5,289.7z"/>
	<path class="st1" d="M288.4,287.9c1.1,0,1.9,0.9,1.9,1.9c0,1.1-0.9,1.9-1.9,1.9c-1.1,0-1.9-0.9-1.9-1.9
		C286.5,288.8,287.3,287.9,288.4,287.9z"/>
	<path class="st1" d="M75.7,300.2c1.1,0,1.9,0.9,1.9,1.9c0,1.1-0.9,1.9-1.9,1.9c-1.1,0-1.9-0.9-1.9-1.9
		C73.7,301.1,74.6,300.2,75.7,300.2z"/>
	<path class="st1" d="M197.7,13.3c1.1,0,1.9,0.9,1.9,1.9c0,1.1-0.9,1.9-1.9,1.9c-1.1,0-1.9-0.9-1.9-1.9
		C195.7,14.1,196.6,13.3,197.7,13.3z"/>
	<path class="st1" d="M77.8,301.9c1.1,0,1.9,0.9,1.9,1.9c0,1.1-0.9,1.9-1.9,1.9c-1.1,0-1.9-0.9-1.9-1.9
		C75.8,302.7,76.7,301.9,77.8,301.9z"/>
	<path class="st1" d="M262.4,37.4c1.1,0,1.9,0.9,1.9,1.9c0,1.1-0.9,1.9-1.9,1.9s-1.9-0.9-1.9-1.9C260.4,38.2,261.3,37.4,262.4,37.4z
		"/>
	<path class="st1" d="M260.1,35.9c1.1,0,1.9,0.9,1.9,1.9c0,1.1-0.9,1.9-1.9,1.9c-1.1,0-1.9-0.9-1.9-1.9
		C258.2,36.8,259,35.9,260.1,35.9z"/>
	<path class="st1" d="M13.8,164.4c1.1,0,1.9,0.9,1.9,1.9c0,1.1-0.9,1.9-1.9,1.9c-1.1,0-1.9-0.9-1.9-1.9
		C11.9,165.2,12.8,164.4,13.8,164.4z"/>
	<path class="st1" d="M66.4,53.6c1.1,0,1.9,0.9,1.9,1.9c0,1.1-0.9,1.9-1.9,1.9c-1.1,0-1.9-0.9-1.9-1.9
		C64.5,54.5,65.4,53.6,66.4,53.6z"/>
	<path class="st1" d="M64.5,55.4c1.1,0,1.9,0.9,1.9,1.9c0,1.1-0.9,1.9-1.9,1.9c-1.1,0-1.9-0.9-1.9-1.9
		C62.5,56.3,63.4,55.4,64.5,55.4z"/>
	<path class="st1" d="M290.3,286c1.1,0,1.9,0.9,1.9,1.9c0,1.1-0.9,1.9-1.9,1.9c-1.1,0-1.9-0.9-1.9-1.9
		C288.4,286.9,289.2,286,290.3,286z"/>
	<path class="st1" d="M79.9,303.5c1.1,0,1.9,0.9,1.9,1.9c0,1.1-0.9,1.9-1.9,1.9c-1.1,0-1.9-0.9-1.9-1.9
		C78,304.3,78.9,303.5,79.9,303.5z"/>
	<path class="st1" d="M151,332.6c1.1,0,1.9,0.9,1.9,1.9c0,1.1-0.9,1.9-1.9,1.9c-1.1,0-1.9-0.9-1.9-1.9
		C149.1,333.5,149.9,332.6,151,332.6z"/>
	<path class="st1" d="M28.1,239.9c1.1,0,1.9,0.9,1.9,1.9c0,1.1-0.9,1.9-1.9,1.9c-1.1,0-1.9-0.9-1.9-1.9
		C26.2,240.7,27,239.9,28.1,239.9z"/>
	<path class="st1" d="M331.3,132.7c1.1,0,1.9,0.9,1.9,1.9c0,1.1-0.9,1.9-1.9,1.9c-1.1,0-1.9-0.9-1.9-1.9
		C329.3,133.6,330.2,132.7,331.3,132.7z"/>
	<path class="st1" d="M333.3,204.3c1.1,0,1.9,0.9,1.9,1.9c0,1.1-0.9,1.9-1.9,1.9c-1.1,0-1.9-0.9-1.9-1.9
		C331.4,205.2,332.3,204.3,333.3,204.3z"/>
	<path class="st1" d="M82.1,305c1.1,0,1.9,0.9,1.9,1.9c0,1.1-0.9,1.9-1.9,1.9c-1.1,0-1.9-0.9-1.9-1.9C80.2,305.9,81,305,82.1,305z"
		/>
	<path class="st1" d="M18.7,132.7c1.1,0,1.9,0.9,1.9,1.9c0,1.1-0.9,1.9-1.9,1.9c-1.1,0-1.9-0.9-1.9-1.9
		C16.8,133.6,17.7,132.7,18.7,132.7z"/>
	<path class="st1" d="M257.8,34.5c1.1,0,1.9,0.9,1.9,1.9c0,1.1-0.9,1.9-1.9,1.9c-1.1,0-1.9-0.9-1.9-1.9
		C255.9,35.4,256.7,34.5,257.8,34.5z"/>
	<path class="st1" d="M333.8,201.7c1.1,0,1.9,0.9,1.9,1.9c0,1.1-0.9,1.9-1.9,1.9c-1.1,0-1.9-0.9-1.9-1.9
		C331.9,202.5,332.8,201.7,333.8,201.7z"/>
	<path class="st1" d="M334.3,199c1.1,0,1.9,0.9,1.9,1.9c0,1.1-0.9,1.9-1.9,1.9c-1.1,0-1.9-0.9-1.9-1.9
		C332.3,199.9,333.2,199,334.3,199z"/>
	<path class="st1" d="M292.1,284.1c1.1,0,1.9,0.9,1.9,1.9c0,1.1-0.9,1.9-1.9,1.9c-1.1,0-1.9-0.9-1.9-1.9
		C290.2,284.9,291.1,284.1,292.1,284.1z"/>
	<path class="st1" d="M62.5,57.3c1.1,0,1.9,0.9,1.9,1.9c0,1.1-0.9,1.9-1.9,1.9s-1.9-0.9-1.9-1.9C60.6,58.2,61.5,57.3,62.5,57.3z"/>
	<path class="st1" d="M149.7,13.7c1.1,0,1.9,0.9,1.9,1.9c0,1.1-0.9,1.9-1.9,1.9s-1.9-0.9-1.9-1.9C147.7,14.5,148.6,13.7,149.7,13.7z
		"/>
	<path class="st1" d="M294,282.1c1.1,0,1.9,0.9,1.9,1.9c0,1.1-0.9,1.9-1.9,1.9s-1.9-0.9-1.9-1.9C292,283,292.9,282.1,294,282.1z"/>
	<path class="st1" d="M29.2,242.3c1.1,0,1.9,0.9,1.9,1.9c0,1.1-0.9,1.9-1.9,1.9s-1.9-0.9-1.9-1.9C27.3,243.2,28.2,242.3,29.2,242.3z
		"/>
	<path class="st1" d="M334.7,196.4c1.1,0,1.9,0.9,1.9,1.9c0,1.1-0.9,1.9-1.9,1.9c-1.1,0-1.9-0.9-1.9-1.9
		C332.8,197.3,333.6,196.4,334.7,196.4z"/>
	<path class="st1" d="M225,326.5c1.1,0,1.9,0.9,1.9,1.9c0,1.1-0.9,1.9-1.9,1.9c-1.1,0-1.9-0.9-1.9-1.9
		C223.1,327.4,223.9,326.5,225,326.5z"/>
	<path class="st1" d="M60.6,59.2c1.1,0,1.9,0.9,1.9,1.9c0,1.1-0.9,1.9-1.9,1.9c-1.1,0-1.9-0.9-1.9-1.9C58.7,60,59.6,59.2,60.6,59.2z
		"/>
	<path class="st1" d="M30.4,244.7c1.1,0,1.9,0.9,1.9,1.9c0,1.1-0.9,1.9-1.9,1.9c-1.1,0-1.9-0.9-1.9-1.9
		C28.5,245.6,29.3,244.7,30.4,244.7z"/>
	<path class="st1" d="M147,14.1c1.1,0,1.9,0.9,1.9,1.9c0,1.1-0.9,1.9-1.9,1.9c-1.1,0-1.9-0.9-1.9-1.9C145.1,15,146,14.1,147,14.1z"
		/>
	<path class="st1" d="M255.5,33.2c1.1,0,1.9,0.9,1.9,1.9c0,1.1-0.9,1.9-1.9,1.9c-1.1,0-1.9-0.9-1.9-1.9
		C253.6,34,254.4,33.2,255.5,33.2z"/>
	<path class="st1" d="M58.8,61.1c1.1,0,1.9,0.9,1.9,1.9c0,1.1-0.9,1.9-1.9,1.9c-1.1,0-1.9-0.9-1.9-1.9C56.8,62,57.7,61.1,58.8,61.1z
		"/>
	<path class="st1" d="M144.4,14.6c1.1,0,1.9,0.9,1.9,1.9c0,1.1-0.9,1.9-1.9,1.9c-1.1,0-1.9-0.9-1.9-1.9
		C142.5,15.5,143.3,14.6,144.4,14.6z"/>
	<path class="st1" d="M84.3,306.5c1.1,0,1.9,0.9,1.9,1.9c0,1.1-0.9,1.9-1.9,1.9c-1.1,0-1.9-0.9-1.9-1.9
		C82.4,307.4,83.2,306.5,84.3,306.5z"/>
	<path class="st1" d="M335.1,193.7c1.1,0,1.9,0.9,1.9,1.9c0,1.1-0.9,1.9-1.9,1.9c-1.1,0-1.9-0.9-1.9-1.9
		C333.1,194.6,334,193.7,335.1,193.7z"/>
	<path class="st1" d="M86.5,308c1.1,0,1.9,0.9,1.9,1.9c0,1.1-0.9,1.9-1.9,1.9c-1.1,0-1.9-0.9-1.9-1.9C84.6,308.9,85.5,308,86.5,308z
		"/>
	<path class="st1" d="M18.1,135.3c1.1,0,1.9,0.9,1.9,1.9c0,1.1-0.9,1.9-1.9,1.9c-1.1,0-1.9-0.9-1.9-1.9
		C16.2,136.2,17,135.3,18.1,135.3z"/>
	<path class="st1" d="M253.2,31.9c1.1,0,1.9,0.9,1.9,1.9c0,1.1-0.9,1.9-1.9,1.9c-1.1,0-1.9-0.9-1.9-1.9
		C251.2,32.7,252.1,31.9,253.2,31.9z"/>
	<path class="st1" d="M141.8,15.1c1.1,0,1.9,0.9,1.9,1.9c0,1.1-0.9,1.9-1.9,1.9c-1.1,0-1.9-0.9-1.9-1.9
		C139.9,16,140.7,15.1,141.8,15.1z"/>
	<path class="st1" d="M250.8,30.6c1.1,0,1.9,0.9,1.9,1.9c0,1.1-0.9,1.9-1.9,1.9c-1.1,0-1.9-0.9-1.9-1.9
		C248.9,31.5,249.7,30.6,250.8,30.6z"/>
	<path class="st1" d="M330.6,130.1c1.1,0,1.9,0.9,1.9,1.9c0,1.1-0.9,1.9-1.9,1.9c-1.1,0-1.9-0.9-1.9-1.9
		C328.6,131,329.5,130.1,330.6,130.1z"/>
	<path class="st1" d="M88.8,309.5c1.1,0,1.9,0.9,1.9,1.9c0,1.1-0.9,1.9-1.9,1.9c-1.1,0-1.9-0.9-1.9-1.9
		C86.8,310.3,87.7,309.5,88.8,309.5z"/>
	<path class="st1" d="M56.9,63c1.1,0,1.9,0.9,1.9,1.9c0,1.1-0.9,1.9-1.9,1.9C55.9,66.9,55,66,55,65C55,63.9,55.9,63,56.9,63z"/>
	<path class="st1" d="M309.6,84c1.1,0,1.9,0.9,1.9,1.9c0,1.1-0.9,1.9-1.9,1.9s-1.9-0.9-1.9-1.9C307.7,84.9,308.5,84,309.6,84z"/>
	<path class="st1" d="M122.5,325.7c1.1,0,1.9,0.9,1.9,1.9c0,1.1-0.9,1.9-1.9,1.9c-1.1,0-1.9-0.9-1.9-1.9
		C120.5,326.5,121.4,325.7,122.5,325.7z"/>
	<path class="st1" d="M31.6,247.1c1.1,0,1.9,0.9,1.9,1.9c0,1.1-0.9,1.9-1.9,1.9c-1.1,0-1.9-0.9-1.9-1.9
		C29.7,248,30.5,247.1,31.6,247.1z"/>
	<path class="st1" d="M169.6,334.4c1.1,0,1.9,0.9,1.9,1.9c0,1.1-0.9,1.9-1.9,1.9c-1.1,0-1.9-0.9-1.9-1.9
		C167.7,335.2,168.6,334.4,169.6,334.4z"/>
	<path class="st1" d="M139.2,15.7c1.1,0,1.9,0.9,1.9,1.9c0,1.1-0.9,1.9-1.9,1.9c-1.1,0-1.9-0.9-1.9-1.9
		C137.2,16.6,138.1,15.7,139.2,15.7z"/>
	<path class="st1" d="M32.8,249.5c1.1,0,1.9,0.9,1.9,1.9c0,1.1-0.9,1.9-1.9,1.9c-1.1,0-1.9-0.9-1.9-1.9
		C30.9,250.3,31.8,249.5,32.8,249.5z"/>
	<path class="st1" d="M248.4,29.4c1.1,0,1.9,0.9,1.9,1.9c0,1.1-0.9,1.9-1.9,1.9c-1.1,0-1.9-0.9-1.9-1.9
		C246.5,30.2,247.4,29.4,248.4,29.4z"/>
	<path class="st1" d="M34.1,251.8c1.1,0,1.9,0.9,1.9,1.9c0,1.1-0.9,1.9-1.9,1.9s-1.9-0.9-1.9-1.9C32.2,252.7,33.1,251.8,34.1,251.8z
		"/>
	<path class="st1" d="M17.5,137.9c1.1,0,1.9,0.9,1.9,1.9c0,1.1-0.9,1.9-1.9,1.9s-1.9-0.9-1.9-1.9C15.6,138.8,16.4,137.9,17.5,137.9z
		"/>
	<path class="st1" d="M14.3,188.4c1.1,0,1.9,0.9,1.9,1.9c0,1.1-0.9,1.9-1.9,1.9s-1.9-0.9-1.9-1.9C12.4,189.3,13.3,188.4,14.3,188.4z
		"/>
	<path class="st1" d="M55.1,65c1.1,0,1.9,0.9,1.9,1.9c0,1.1-0.9,1.9-1.9,1.9c-1.1,0-1.9-0.9-1.9-1.9C53.2,65.9,54.1,65,55.1,65z"/>
	<path class="st1" d="M172.3,334.4c1.1,0,1.9,0.9,1.9,1.9c0,1.1-0.9,1.9-1.9,1.9c-1.1,0-1.9-0.9-1.9-1.9
		C170.4,335.3,171.3,334.4,172.3,334.4z"/>
	<path class="st1" d="M295.8,280.1c1.1,0,1.9,0.9,1.9,1.9c0,1.1-0.9,1.9-1.9,1.9c-1.1,0-1.9-0.9-1.9-1.9
		C293.8,281,294.7,280.1,295.8,280.1z"/>
	<path class="st1" d="M297.5,278.1c1.1,0,1.9,0.9,1.9,1.9c0,1.1-0.9,1.9-1.9,1.9c-1.1,0-1.9-0.9-1.9-1.9
		C295.6,279,296.5,278.1,297.5,278.1z"/>
	<path class="st1" d="M246.1,28.2c1.1,0,1.9,0.9,1.9,1.9c0,1.1-0.9,1.9-1.9,1.9c-1.1,0-1.9-0.9-1.9-1.9
		C244.1,29,245,28.2,246.1,28.2z"/>
	<path class="st1" d="M335.4,191.1c1.1,0,1.9,0.9,1.9,1.9c0,1.1-0.9,1.9-1.9,1.9c-1.1,0-1.9-0.9-1.9-1.9
		C333.4,191.9,334.3,191.1,335.4,191.1z"/>
	<path class="st1" d="M195,12.9c1.1,0,1.9,0.9,1.9,1.9c0,1.1-0.9,1.9-1.9,1.9c-1.1,0-1.9-0.9-1.9-1.9
		C193.1,13.8,193.9,12.9,195,12.9z"/>
	<path class="st1" d="M91,310.9c1.1,0,1.9,0.9,1.9,1.9c0,1.1-0.9,1.9-1.9,1.9c-1.1,0-1.9-0.9-1.9-1.9C89.1,311.8,90,310.9,91,310.9z
		"/>
	<path class="st1" d="M153.7,333c1.1,0,1.9,0.9,1.9,1.9c0,1.1-0.9,1.9-1.9,1.9c-1.1,0-1.9-0.9-1.9-1.9
		C151.7,333.9,152.6,333,153.7,333z"/>
	<path class="st1" d="M192.4,12.6c1.1,0,1.9,0.9,1.9,1.9c0,1.1-0.9,1.9-1.9,1.9c-1.1,0-1.9-0.9-1.9-1.9
		C190.4,13.5,191.3,12.6,192.4,12.6z"/>
	<path class="st1" d="M335.7,188.4c1.1,0,1.9,0.9,1.9,1.9c0,1.1-0.9,1.9-1.9,1.9c-1.1,0-1.9-0.9-1.9-1.9
		C333.7,189.3,334.6,188.4,335.7,188.4z"/>
	<path class="st1" d="M16.9,140.5c1.1,0,1.9,0.9,1.9,1.9c0,1.1-0.9,1.9-1.9,1.9c-1.1,0-1.9-0.9-1.9-1.9
		C15,141.4,15.9,140.5,16.9,140.5z"/>
	<path class="st1" d="M125,326.5c1.1,0,1.9,0.9,1.9,1.9c0,1.1-0.9,1.9-1.9,1.9c-1.1,0-1.9-0.9-1.9-1.9
		C123.1,327.4,123.9,326.5,125,326.5z"/>
	<path class="st1" d="M136.6,16.3c1.1,0,1.9,0.9,1.9,1.9c0,1.1-0.9,1.9-1.9,1.9c-1.1,0-1.9-0.9-1.9-1.9
		C134.6,17.2,135.5,16.3,136.6,16.3z"/>
	<path class="st1" d="M53.4,67c1.1,0,1.9,0.9,1.9,1.9c0,1.1-0.9,1.9-1.9,1.9c-1.1,0-1.9-0.9-1.9-1.9C51.4,67.9,52.3,67,53.4,67z"/>
	<path class="st1" d="M299.2,276.1c1.1,0,1.9,0.9,1.9,1.9c0,1.1-0.9,1.9-1.9,1.9c-1.1,0-1.9-0.9-1.9-1.9
		C297.3,276.9,298.2,276.1,299.2,276.1z"/>
	<path class="st1" d="M335.9,185.8c1.1,0,1.9,0.9,1.9,1.9c0,1.1-0.9,1.9-1.9,1.9c-1.1,0-1.9-0.9-1.9-1.9
		C333.9,186.6,334.8,185.8,335.9,185.8z"/>
	<path class="st1" d="M35.5,254.1c1.1,0,1.9,0.9,1.9,1.9c0,1.1-0.9,1.9-1.9,1.9s-1.9-0.9-1.9-1.9C33.5,255,34.4,254.1,35.5,254.1z"
		/>
	<path class="st1" d="M300.9,274c1.1,0,1.9,0.9,1.9,1.9c0,1.1-0.9,1.9-1.9,1.9c-1.1,0-1.9-0.9-1.9-1.9
		C299,274.8,299.9,274,300.9,274z"/>
	<path class="st1" d="M227.5,325.7c1.1,0,1.9,0.9,1.9,1.9c0,1.1-0.9,1.9-1.9,1.9c-1.1,0-1.9-0.9-1.9-1.9
		C225.6,326.5,226.5,325.7,227.5,325.7z"/>
	<path class="st1" d="M14.6,191.1c1.1,0,1.9,0.9,1.9,1.9c0,1.1-0.9,1.9-1.9,1.9c-1.1,0-1.9-0.9-1.9-1.9
		C12.7,191.9,13.6,191.1,14.6,191.1z"/>
	<path class="st1" d="M329.8,127.5c1.1,0,1.9,0.9,1.9,1.9c0,1.1-0.9,1.9-1.9,1.9c-1.1,0-1.9-0.9-1.9-1.9
		C327.9,128.4,328.8,127.5,329.8,127.5z"/>
	<path class="st1" d="M302.6,271.9c1.1,0,1.9,0.9,1.9,1.9c0,1.1-0.9,1.9-1.9,1.9c-1.1,0-1.9-0.9-1.9-1.9
		C300.7,272.7,301.5,271.9,302.6,271.9z"/>
	<path class="st1" d="M175,334.4c1.1,0,1.9,0.9,1.9,1.9c0,1.1-0.9,1.9-1.9,1.9c-1.1,0-1.9-0.9-1.9-1.9
		C173.1,335.3,173.9,334.4,175,334.4z"/>
	<path class="st1" d="M230.1,324.8c1.1,0,1.9,0.9,1.9,1.9c0,1.1-0.9,1.9-1.9,1.9c-1.1,0-1.9-0.9-1.9-1.9
		C228.1,325.6,229,324.8,230.1,324.8z"/>
	<path class="st1" d="M304.2,269.7c1.1,0,1.9,0.9,1.9,1.9c0,1.1-0.9,1.9-1.9,1.9c-1.1,0-1.9-0.9-1.9-1.9
		C302.3,270.6,303.1,269.7,304.2,269.7z"/>
	<path class="st1" d="M134,17c1.1,0,1.9,0.9,1.9,1.9c0,1.1-0.9,1.9-1.9,1.9c-1.1,0-1.9-0.9-1.9-1.9C132,17.8,132.9,17,134,17z"/>
	<path class="st1" d="M232.6,323.8c1.1,0,1.9,0.9,1.9,1.9c0,1.1-0.9,1.9-1.9,1.9c-1.1,0-1.9-0.9-1.9-1.9
		C230.6,324.7,231.5,323.8,232.6,323.8z"/>
	<path class="st1" d="M93.3,312.3c1.1,0,1.9,0.9,1.9,1.9c0,1.1-0.9,1.9-1.9,1.9c-1.1,0-1.9-0.9-1.9-1.9
		C91.4,313.1,92.3,312.3,93.3,312.3z"/>
	<path class="st1" d="M95.7,313.6c1.1,0,1.9,0.9,1.9,1.9c0,1.1-0.9,1.9-1.9,1.9c-1.1,0-1.9-0.9-1.9-1.9
		C93.7,314.5,94.6,313.6,95.7,313.6z"/>
	<path class="st1" d="M305.8,267.6c1.1,0,1.9,0.9,1.9,1.9c0,1.1-0.9,1.9-1.9,1.9c-1.1,0-1.9-0.9-1.9-1.9
		C303.9,268.5,304.7,267.6,305.8,267.6z"/>
	<path class="st1" d="M51.6,69c1.1,0,1.9,0.9,1.9,1.9c0,1.1-0.9,1.9-1.9,1.9c-1.1,0-1.9-0.9-1.9-1.9C49.7,69.9,50.5,69,51.6,69z"/>
	<path class="st1" d="M189.7,12.3c1.1,0,1.9,0.9,1.9,1.9c0,1.1-0.9,1.9-1.9,1.9c-1.1,0-1.9-0.9-1.9-1.9
		C187.8,13.2,188.6,12.3,189.7,12.3z"/>
	<path class="st1" d="M49.9,71.1c1.1,0,1.9,0.9,1.9,1.9c0,1.1-0.9,1.9-1.9,1.9C48.8,75,48,74.1,48,73C48,72,48.8,71.1,49.9,71.1z"/>
	<path class="st1" d="M187,12.1c1.1,0,1.9,0.9,1.9,1.9c0,1.1-0.9,1.9-1.9,1.9c-1.1,0-1.9-0.9-1.9-1.9C185.1,13,186,12.1,187,12.1z"
		/>
	<path class="st1" d="M36.8,256.4c1.1,0,1.9,0.9,1.9,1.9c0,1.1-0.9,1.9-1.9,1.9c-1.1,0-1.9-0.9-1.9-1.9
		C34.9,257.3,35.7,256.4,36.8,256.4z"/>
	<path class="st1" d="M14.9,193.7c1.1,0,1.9,0.9,1.9,1.9c0,1.1-0.9,1.9-1.9,1.9c-1.1,0-1.9-0.9-1.9-1.9
		C13,194.6,13.9,193.7,14.9,193.7z"/>
	<path class="st1" d="M16.4,143.1c1.1,0,1.9,0.9,1.9,1.9c0,1.1-0.9,1.9-1.9,1.9s-1.9-0.9-1.9-1.9C14.5,144,15.3,143.1,16.4,143.1z"
		/>
	<path class="st1" d="M329.1,125c1.1,0,1.9,0.9,1.9,1.9c0,1.1-0.9,1.9-1.9,1.9c-1.1,0-1.9-0.9-1.9-1.9
		C327.1,125.8,328,125,329.1,125z"/>
	<path class="st1" d="M307.3,265.4c1.1,0,1.9,0.9,1.9,1.9c0,1.1-0.9,1.9-1.9,1.9c-1.1,0-1.9-0.9-1.9-1.9
		C305.4,266.3,306.3,265.4,307.3,265.4z"/>
	<path class="st1" d="M336.1,183.1c1.1,0,1.9,0.9,1.9,1.9c0,1.1-0.9,1.9-1.9,1.9c-1.1,0-1.9-0.9-1.9-1.9
		C334.1,184,335,183.1,336.1,183.1z"/>
	<path class="st1" d="M235.1,322.9c1.1,0,1.9,0.9,1.9,1.9c0,1.1-0.9,1.9-1.9,1.9c-1.1,0-1.9-0.9-1.9-1.9
		C233.1,323.7,234,322.9,235.1,322.9z"/>
	<path class="st1" d="M243.6,27c1.1,0,1.9,0.9,1.9,1.9c0,1.1-0.9,1.9-1.9,1.9c-1.1,0-1.9-0.9-1.9-1.9C241.7,27.9,242.6,27,243.6,27z
		"/>
	<path class="st1" d="M336.2,180.4c1.1,0,1.9,0.9,1.9,1.9c0,1.1-0.9,1.9-1.9,1.9c-1.1,0-1.9-0.9-1.9-1.9
		C334.3,181.3,335.1,180.4,336.2,180.4z"/>
	<path class="st1" d="M13.7,167c1.1,0,1.9,0.9,1.9,1.9c0,1.1-0.9,1.9-1.9,1.9s-1.9-0.9-1.9-1.9C11.8,167.9,12.7,167,13.7,167z"/>
	<path class="st1" d="M308.9,263.2c1.1,0,1.9,0.9,1.9,1.9c0,1.1-0.9,1.9-1.9,1.9c-1.1,0-1.9-0.9-1.9-1.9
		C306.9,264.1,307.8,263.2,308.9,263.2z"/>
	<path class="st1" d="M241.2,25.9c1.1,0,1.9,0.9,1.9,1.9c0,1.1-0.9,1.9-1.9,1.9c-1.1,0-1.9-0.9-1.9-1.9
		C239.3,26.7,240.1,25.9,241.2,25.9z"/>
	<path class="st1" d="M13.6,169.7c1.1,0,1.9,0.9,1.9,1.9c0,1.1-0.9,1.9-1.9,1.9c-1.1,0-1.9-0.9-1.9-1.9
		C11.7,170.6,12.6,169.7,13.6,169.7z"/>
	<path class="st1" d="M238.8,24.8c1.1,0,1.9,0.9,1.9,1.9c0,1.1-0.9,1.9-1.9,1.9c-1.1,0-1.9-0.9-1.9-1.9
		C236.8,25.7,237.7,24.8,238.8,24.8z"/>
	<path class="st1" d="M236.3,23.8c1.1,0,1.9,0.9,1.9,1.9c0,1.1-0.9,1.9-1.9,1.9c-1.1,0-1.9-0.9-1.9-1.9
		C234.4,24.6,235.2,23.8,236.3,23.8z"/>
	<path class="st1" d="M15.9,145.8c1.1,0,1.9,0.9,1.9,1.9c0,1.1-0.9,1.9-1.9,1.9s-1.9-0.9-1.9-1.9C14,146.6,14.9,145.8,15.9,145.8z"
		/>
	<path class="st1" d="M131.4,17.7c1.1,0,1.9,0.9,1.9,1.9c0,1.1-0.9,1.9-1.9,1.9c-1.1,0-1.9-0.9-1.9-1.9
		C129.5,18.5,130.3,17.7,131.4,17.7z"/>
	<path class="st1" d="M310.3,261c1.1,0,1.9,0.9,1.9,1.9c0,1.1-0.9,1.9-1.9,1.9s-1.9-0.9-1.9-1.9C308.4,261.8,309.3,261,310.3,261z"
		/>
	<path class="st1" d="M48.2,73.2c1.1,0,1.9,0.9,1.9,1.9c0,1.1-0.9,1.9-1.9,1.9s-1.9-0.9-1.9-1.9C46.3,74.1,47.2,73.2,48.2,73.2z"/>
	<path class="st1" d="M38.2,258.7c1.1,0,1.9,0.9,1.9,1.9c0,1.1-0.9,1.9-1.9,1.9c-1.1,0-1.9-0.9-1.9-1.9
		C36.3,259.6,37.2,258.7,38.2,258.7z"/>
	<path class="st1" d="M98,314.9c1.1,0,1.9,0.9,1.9,1.9c0,1.1-0.9,1.9-1.9,1.9c-1.1,0-1.9-0.9-1.9-1.9
		C96.1,315.8,96.9,314.9,98,314.9z"/>
	<path class="st1" d="M328.2,122.4c1.1,0,1.9,0.9,1.9,1.9c0,1.1-0.9,1.9-1.9,1.9c-1.1,0-1.9-0.9-1.9-1.9
		C326.3,123.3,327.2,122.4,328.2,122.4z"/>
	<path class="st1" d="M336.3,177.7c1.1,0,1.9,0.9,1.9,1.9s-0.9,1.9-1.9,1.9c-1.1,0-1.9-0.9-1.9-1.9S335.2,177.7,336.3,177.7z"/>
	<path class="st1" d="M46.6,75.3c1.1,0,1.9,0.9,1.9,1.9c0,1.1-0.9,1.9-1.9,1.9c-1.1,0-1.9-0.9-1.9-1.9
		C44.6,76.2,45.5,75.3,46.6,75.3z"/>
	<path class="st1" d="M233.8,22.8c1.1,0,1.9,0.9,1.9,1.9c0,1.1-0.9,1.9-1.9,1.9c-1.1,0-1.9-0.9-1.9-1.9
		C231.9,23.6,232.7,22.8,233.8,22.8z"/>
	<path class="st1" d="M231.3,21.8c1.1,0,1.9,0.9,1.9,1.9c0,1.1-0.9,1.9-1.9,1.9c-1.1,0-1.9-0.9-1.9-1.9
		C229.4,22.7,230.2,21.8,231.3,21.8z"/>
	<path class="st1" d="M13.6,172.4c1.1,0,1.9,0.9,1.9,1.9c0,1.1-0.9,1.9-1.9,1.9c-1.1,0-1.9-0.9-1.9-1.9
		C11.7,173.3,12.5,172.4,13.6,172.4z"/>
	<path class="st1" d="M100.4,316.1c1.1,0,1.9,0.9,1.9,1.9c0,1.1-0.9,1.9-1.9,1.9c-1.1,0-1.9-0.9-1.9-1.9
		C98.4,317,99.3,316.1,100.4,316.1z"/>
	<path class="st1" d="M327.4,119.9c1.1,0,1.9,0.9,1.9,1.9c0,1.1-0.9,1.9-1.9,1.9c-1.1,0-1.9-0.9-1.9-1.9
		C325.4,120.8,326.3,119.9,327.4,119.9z"/>
	<path class="st1" d="M184.4,11.9c1.1,0,1.9,0.9,1.9,1.9c0,1.1-0.9,1.9-1.9,1.9c-1.1,0-1.9-0.9-1.9-1.9
		C182.4,12.8,183.3,11.9,184.4,11.9z"/>
	<path class="st1" d="M102.7,317.4c1.1,0,1.9,0.9,1.9,1.9c0,1.1-0.9,1.9-1.9,1.9c-1.1,0-1.9-0.9-1.9-1.9
		C100.8,318.2,101.7,317.4,102.7,317.4z"/>
	<path class="st1" d="M127.6,327.3c1.1,0,1.9,0.9,1.9,1.9c0,1.1-0.9,1.9-1.9,1.9c-1.1,0-1.9-0.9-1.9-1.9
		C125.6,328.2,126.5,327.3,127.6,327.3z"/>
	<path class="st1" d="M15.5,148.4c1.1,0,1.9,0.9,1.9,1.9c0,1.1-0.9,1.9-1.9,1.9c-1.1,0-1.9-0.9-1.9-1.9
		C13.6,149.3,14.4,148.4,15.5,148.4z"/>
	<path class="st1" d="M45,77.4c1.1,0,1.9,0.9,1.9,1.9c0,1.1-0.9,1.9-1.9,1.9c-1.1,0-1.9-0.9-1.9-1.9C43,78.3,43.9,77.4,45,77.4z"/>
	<path class="st1" d="M311.8,258.7c1.1,0,1.9,0.9,1.9,1.9c0,1.1-0.9,1.9-1.9,1.9c-1.1,0-1.9-0.9-1.9-1.9
		C309.8,259.6,310.7,258.7,311.8,258.7z"/>
	<path class="st1" d="M237.5,321.8c1.1,0,1.9,0.9,1.9,1.9c0,1.1-0.9,1.9-1.9,1.9c-1.1,0-1.9-0.9-1.9-1.9
		C235.6,322.7,236.5,321.8,237.5,321.8z"/>
	<path class="st1" d="M313.2,256.4c1.1,0,1.9,0.9,1.9,1.9c0,1.1-0.9,1.9-1.9,1.9c-1.1,0-1.9-0.9-1.9-1.9
		C311.2,257.3,312.1,256.4,313.2,256.4z"/>
	<path class="st1" d="M336.4,175.1c1.1,0,1.9,0.9,1.9,1.9c0,1.1-0.9,1.9-1.9,1.9c-1.1,0-1.9-0.9-1.9-1.9
		C334.4,175.9,335.3,175.1,336.4,175.1z"/>
	<path class="st1" d="M39.7,261c1.1,0,1.9,0.9,1.9,1.9c0,1.1-0.9,1.9-1.9,1.9s-1.9-0.9-1.9-1.9C37.7,261.8,38.6,261,39.7,261z"/>
	<path class="st1" d="M228.8,20.9c1.1,0,1.9,0.9,1.9,1.9c0,1.1-0.9,1.9-1.9,1.9c-1.1,0-1.9-0.9-1.9-1.9
		C226.9,21.8,227.7,20.9,228.8,20.9z"/>
	<path class="st1" d="M41.1,263.2c1.1,0,1.9,0.9,1.9,1.9c0,1.1-0.9,1.9-1.9,1.9c-1.1,0-1.9-0.9-1.9-1.9
		C39.2,264.1,40.1,263.2,41.1,263.2z"/>
	<path class="st1" d="M336.4,172.4c1.1,0,1.9,0.9,1.9,1.9c0,1.1-0.9,1.9-1.9,1.9c-1.1,0-1.9-0.9-1.9-1.9
		C334.4,173.3,335.3,172.4,336.4,172.4z"/>
	<path class="st1" d="M336.4,169.7c1.1,0,1.9,0.9,1.9,1.9c0,1.1-0.9,1.9-1.9,1.9c-1.1,0-1.9-0.9-1.9-1.9
		C334.4,170.6,335.3,169.7,336.4,169.7z"/>
	<path class="st1" d="M314.5,254.1c1.1,0,1.9,0.9,1.9,1.9c0,1.1-0.9,1.9-1.9,1.9c-1.1,0-1.9-0.9-1.9-1.9
		C312.6,255,313.5,254.1,314.5,254.1z"/>
	<path class="st1" d="M15.1,151.1c1.1,0,1.9,0.9,1.9,1.9c0,1.1-0.9,1.9-1.9,1.9s-1.9-0.9-1.9-1.9C13.2,151.9,14,151.1,15.1,151.1z"
		/>
	<path class="st1" d="M105.1,318.5c1.1,0,1.9,0.9,1.9,1.9c0,1.1-0.9,1.9-1.9,1.9c-1.1,0-1.9-0.9-1.9-1.9
		C103.2,319.4,104.1,318.5,105.1,318.5z"/>
	<path class="st1" d="M42.7,265.4c1.1,0,1.9,0.9,1.9,1.9c0,1.1-0.9,1.9-1.9,1.9c-1.1,0-1.9-0.9-1.9-1.9
		C40.7,266.3,41.6,265.4,42.7,265.4z"/>
	<path class="st1" d="M43.4,79.6c1.1,0,1.9,0.9,1.9,1.9c0,1.1-0.9,1.9-1.9,1.9s-1.9-0.9-1.9-1.9C41.5,80.5,42.3,79.6,43.4,79.6z"/>
	<path class="st1" d="M315.9,251.8c1.1,0,1.9,0.9,1.9,1.9c0,1.1-0.9,1.9-1.9,1.9c-1.1,0-1.9-0.9-1.9-1.9
		C313.9,252.7,314.8,251.8,315.9,251.8z"/>
	<path class="st1" d="M226.3,20c1.1,0,1.9,0.9,1.9,1.9c0,1.1-0.9,1.9-1.9,1.9c-1.1,0-1.9-0.9-1.9-1.9C224.3,20.9,225.2,20,226.3,20z
		"/>
	<path class="st1" d="M107.6,319.7c1.1,0,1.9,0.9,1.9,1.9c0,1.1-0.9,1.9-1.9,1.9c-1.1,0-1.9-0.9-1.9-1.9
		C105.6,320.6,106.5,319.7,107.6,319.7z"/>
	<path class="st1" d="M336.3,167c1.1,0,1.9,0.9,1.9,1.9c0,1.1-0.9,1.9-1.9,1.9c-1.1,0-1.9-0.9-1.9-1.9
		C334.3,167.9,335.2,167,336.3,167z"/>
	<path class="st1" d="M44.2,267.6c1.1,0,1.9,0.9,1.9,1.9c0,1.1-0.9,1.9-1.9,1.9s-1.9-0.9-1.9-1.9C42.3,268.5,43.1,267.6,44.2,267.6z
		"/>
	<path class="st1" d="M156.3,333.4c1.1,0,1.9,0.9,1.9,1.9c0,1.1-0.9,1.9-1.9,1.9c-1.1,0-1.9-0.9-1.9-1.9
		C154.4,334.2,155.2,333.4,156.3,333.4z"/>
	<path class="st1" d="M336.2,164.4c1.1,0,1.9,0.9,1.9,1.9c0,1.1-0.9,1.9-1.9,1.9c-1.1,0-1.9-0.9-1.9-1.9
		C334.2,165.2,335.1,164.4,336.2,164.4z"/>
	<path class="st1" d="M317.2,249.5c1.1,0,1.9,0.9,1.9,1.9c0,1.1-0.9,1.9-1.9,1.9c-1.1,0-1.9-0.9-1.9-1.9
		C315.2,250.3,316.1,249.5,317.2,249.5z"/>
	<path class="st1" d="M240,320.8c1.1,0,1.9,0.9,1.9,1.9c0,1.1-0.9,1.9-1.9,1.9c-1.1,0-1.9-0.9-1.9-1.9
		C238,321.6,238.9,320.8,240,320.8z"/>
	<path class="st1" d="M128.8,18.4c1.1,0,1.9,0.9,1.9,1.9c0,1.1-0.9,1.9-1.9,1.9c-1.1,0-1.9-0.9-1.9-1.9
		C126.9,19.3,127.8,18.4,128.8,18.4z"/>
	<path class="st1" d="M130.1,328.1c1.1,0,1.9,0.9,1.9,1.9c0,1.1-0.9,1.9-1.9,1.9c-1.1,0-1.9-0.9-1.9-1.9
		C128.2,328.9,129,328.1,130.1,328.1z"/>
	<path class="st1" d="M41.9,81.8c1.1,0,1.9,0.9,1.9,1.9c0,1.1-0.9,1.9-1.9,1.9c-1.1,0-1.9-0.9-1.9-1.9
		C39.9,82.7,40.8,81.8,41.9,81.8z"/>
	<path class="st1" d="M318.4,247.1c1.1,0,1.9,0.9,1.9,1.9c0,1.1-0.9,1.9-1.9,1.9c-1.1,0-1.9-0.9-1.9-1.9
		C316.5,248,317.3,247.1,318.4,247.1z"/>
	<path class="st1" d="M223.7,19.2c1.1,0,1.9,0.9,1.9,1.9c0,1.1-0.9,1.9-1.9,1.9c-1.1,0-1.9-0.9-1.9-1.9
		C221.8,20.1,222.7,19.2,223.7,19.2z"/>
	<path class="st1" d="M181.7,11.8c1.1,0,1.9,0.9,1.9,1.9c0,1.1-0.9,1.9-1.9,1.9c-1.1,0-1.9-0.9-1.9-1.9
		C179.7,12.7,180.6,11.8,181.7,11.8z"/>
	<path class="st1" d="M110,320.8c1.1,0,1.9,0.9,1.9,1.9c0,1.1-0.9,1.9-1.9,1.9c-1.1,0-1.9-0.9-1.9-1.9
		C108.1,321.6,108.9,320.8,110,320.8z"/>
	<path class="st1" d="M242.4,319.7c1.1,0,1.9,0.9,1.9,1.9c0,1.1-0.9,1.9-1.9,1.9c-1.1,0-1.9-0.9-1.9-1.9
		C240.5,320.6,241.4,319.7,242.4,319.7z"/>
	<path class="st1" d="M40.4,84c1.1,0,1.9,0.9,1.9,1.9c0,1.1-0.9,1.9-1.9,1.9S38.5,87,38.5,86C38.5,84.9,39.3,84,40.4,84z"/>
	<path class="st1" d="M38.9,86.3c1.1,0,1.9,0.9,1.9,1.9c0,1.1-0.9,1.9-1.9,1.9S37,89.3,37,88.2C37,87.1,37.9,86.3,38.9,86.3z"/>
	<path class="st1" d="M37.5,88.5c1.1,0,1.9,0.9,1.9,1.9c0,1.1-0.9,1.9-1.9,1.9c-1.1,0-1.9-0.9-1.9-1.9
		C35.6,89.4,36.4,88.5,37.5,88.5z"/>
	<path class="st1" d="M319.6,244.7c1.1,0,1.9,0.9,1.9,1.9c0,1.1-0.9,1.9-1.9,1.9s-1.9-0.9-1.9-1.9
		C317.7,245.6,318.5,244.7,319.6,244.7z"/>
	<path class="st1" d="M112.5,321.8c1.1,0,1.9,0.9,1.9,1.9c0,1.1-0.9,1.9-1.9,1.9c-1.1,0-1.9-0.9-1.9-1.9
		C110.5,322.7,111.4,321.8,112.5,321.8z"/>
	<path class="st1" d="M244.9,318.5c1.1,0,1.9,0.9,1.9,1.9c0,1.1-0.9,1.9-1.9,1.9c-1.1,0-1.9-0.9-1.9-1.9
		C242.9,319.4,243.8,318.5,244.9,318.5z"/>
	<path class="st1" d="M126.3,19.2c1.1,0,1.9,0.9,1.9,1.9c0,1.1-0.9,1.9-1.9,1.9c-1.1,0-1.9-0.9-1.9-1.9
		C124.3,20.1,125.2,19.2,126.3,19.2z"/>
	<path class="st1" d="M221.2,18.4c1.1,0,1.9,0.9,1.9,1.9c0,1.1-0.9,1.9-1.9,1.9c-1.1,0-1.9-0.9-1.9-1.9
		C219.2,19.3,220.1,18.4,221.2,18.4z"/>
	<path class="st1" d="M123.7,20c1.1,0,1.9,0.9,1.9,1.9c0,1.1-0.9,1.9-1.9,1.9c-1.1,0-1.9-0.9-1.9-1.9C121.8,20.9,122.7,20,123.7,20z
		"/>
	<path class="st1" d="M177.7,334.4c1.1,0,1.9,0.9,1.9,1.9c0,1.1-0.9,1.9-1.9,1.9c-1.1,0-1.9-0.9-1.9-1.9
		C175.7,335.3,176.6,334.4,177.7,334.4z"/>
	<path class="st1" d="M36.1,90.8c1.1,0,1.9,0.9,1.9,1.9c0,1.1-0.9,1.9-1.9,1.9c-1.1,0-1.9-0.9-1.9-1.9
		C34.2,91.7,35.1,90.8,36.1,90.8z"/>
	<path class="st1" d="M45.8,269.7c1.1,0,1.9,0.9,1.9,1.9c0,1.1-0.9,1.9-1.9,1.9c-1.1,0-1.9-0.9-1.9-1.9
		C43.8,270.6,44.7,269.7,45.8,269.7z"/>
	<path class="st1" d="M34.8,93.1c1.1,0,1.9,0.9,1.9,1.9c0,1.1-0.9,1.9-1.9,1.9s-1.9-0.9-1.9-1.9C32.9,94,33.7,93.1,34.8,93.1z"/>
	<path class="st1" d="M179,11.7c1.1,0,1.9,0.9,1.9,1.9c0,1.1-0.9,1.9-1.9,1.9c-1.1,0-1.9-0.9-1.9-1.9
		C177.1,12.6,177.9,11.7,179,11.7z"/>
	<path class="st1" d="M121.2,20.9c1.1,0,1.9,0.9,1.9,1.9c0,1.1-0.9,1.9-1.9,1.9c-1.1,0-1.9-0.9-1.9-1.9
		C119.3,21.8,120.1,20.9,121.2,20.9z"/>
	<path class="st1" d="M218.6,17.7c1.1,0,1.9,0.9,1.9,1.9c0,1.1-0.9,1.9-1.9,1.9c-1.1,0-1.9-0.9-1.9-1.9
		C216.7,18.5,217.5,17.7,218.6,17.7z"/>
	<path class="st1" d="M316.5,95.5c1.1,0,1.9,0.9,1.9,1.9c0,1.1-0.9,1.9-1.9,1.9c-1.1,0-1.9-0.9-1.9-1.9
		C314.6,96.3,315.4,95.5,316.5,95.5z"/>
	<path class="st1" d="M180.4,334.4c1.1,0,1.9,0.9,1.9,1.9c0,1.1-0.9,1.9-1.9,1.9c-1.1,0-1.9-0.9-1.9-1.9
		C178.4,335.2,179.3,334.4,180.4,334.4z"/>
	<path class="st1" d="M47.4,271.9c1.1,0,1.9,0.9,1.9,1.9c0,1.1-0.9,1.9-1.9,1.9c-1.1,0-1.9-0.9-1.9-1.9
		C45.5,272.7,46.3,271.9,47.4,271.9z"/>
	<path class="st1" d="M33.5,95.5c1.1,0,1.9,0.9,1.9,1.9c0,1.1-0.9,1.9-1.9,1.9c-1.1,0-1.9-0.9-1.9-1.9
		C31.5,96.3,32.4,95.5,33.5,95.5z"/>
	<path class="st1" d="M176.3,11.7c1.1,0,1.9,0.9,1.9,1.9c0,1.1-0.9,1.9-1.9,1.9c-1.1,0-1.9-0.9-1.9-1.9
		C174.4,12.5,175.3,11.7,176.3,11.7z"/>
	<path class="st1" d="M308.1,81.8c1.1,0,1.9,0.9,1.9,1.9c0,1.1-0.9,1.9-1.9,1.9c-1.1,0-1.9-0.9-1.9-1.9
		C306.2,82.7,307,81.8,308.1,81.8z"/>
	<path class="st1" d="M132.7,328.8c1.1,0,1.9,0.9,1.9,1.9c0,1.1-0.9,1.9-1.9,1.9s-1.9-0.9-1.9-1.9
		C130.8,329.7,131.6,328.8,132.7,328.8z"/>
	<path class="st1" d="M216,17c1.1,0,1.9,0.9,1.9,1.9c0,1.1-0.9,1.9-1.9,1.9c-1.1,0-1.9-0.9-1.9-1.9C214.1,17.8,214.9,17,216,17z"/>
	<path class="st1" d="M336,161.7c1.1,0,1.9,0.9,1.9,1.9c0,1.1-0.9,1.9-1.9,1.9s-1.9-0.9-1.9-1.9C334,162.6,334.9,161.7,336,161.7z"
		/>
	<path class="st1" d="M183,334.2c1.1,0,1.9,0.9,1.9,1.9c0,1.1-0.9,1.9-1.9,1.9c-1.1,0-1.9-0.9-1.9-1.9
		C181.1,335.1,182,334.2,183,334.2z"/>
	<path class="st1" d="M326.5,117.4c1.1,0,1.9,0.9,1.9,1.9c0,1.1-0.9,1.9-1.9,1.9c-1.1,0-1.9-0.9-1.9-1.9
		C324.5,118.2,325.4,117.4,326.5,117.4z"/>
	<path class="st1" d="M118.7,21.8c1.1,0,1.9,0.9,1.9,1.9c0,1.1-0.9,1.9-1.9,1.9c-1.1,0-1.9-0.9-1.9-1.9
		C116.7,22.7,117.6,21.8,118.7,21.8z"/>
	<path class="st1" d="M14.8,153.7c1.1,0,1.9,0.9,1.9,1.9c0,1.1-0.9,1.9-1.9,1.9c-1.1,0-1.9-0.9-1.9-1.9
		C12.8,154.6,13.7,153.7,14.8,153.7z"/>
</g>
</svg>
