<?xml version="1.0" encoding="utf-8"?>
<!-- Generator: Adobe Illustrator 22.0.1, SVG Export Plug-In . SVG Version: 6.00 Build 0)  -->
<svg version="1.1" id="Layer_1" xmlns="http://www.w3.org/2000/svg" xmlns:xlink="http://www.w3.org/1999/xlink" x="0px" y="0px"
	 viewBox="0 0 350 350" style="enable-background:new 0 0 350 350;" xml:space="preserve">
<style type="text/css">
	.st0{fill:none;stroke:#777777;stroke-width:0.75;stroke-miterlimit:10;}
	.st1{stroke:#444444;stroke-miterlimit:10;}
</style>
<g>
	<g id="edges">
		<path class="st0" d="M47,90.2L28.4,129"/>
		<path class="st0" d="M47,90.2l237.8-22.4"/>
		<path class="st0" d="M47,90.2L274.3,58"/>
		<path class="st0" d="M47,90.2l-25.3,95.8"/>
		<path class="st0" d="M47,90.2L23.4,200.2"/>
		<path class="st0" d="M47,90.2l215.9-41"/>
		<path class="st0" d="M250.7,41.5l-40.1-15.8"/>
		<path class="st0" d="M250.7,41.5l-68.6-19.8"/>
		<path class="st0" d="M327.5,157.2l-2.4-14.2"/>
		<path class="st0" d="M327.5,157.2l-11-41.6"/>
		<path class="st0" d="M327.5,157.2l-33.1-78.6"/>
		<path class="st0" d="M237.8,35l12.8,6.5"/>
		<path class="st0" d="M146.3,326.1L112,35"/>
		<path class="st0" d="M146.3,326.1l28.6,2.7"/>
		<path class="st0" d="M146.3,326.1l43,2"/>
		<path class="st0" d="M146.3,326.1h57.3"/>
		<path class="st0" d="M146.3,326.1l71.3-3.3"/>
		<path class="st0" d="M153.4,23.1l14.3-1.3"/>
		<path class="st0" d="M153.4,23.1l-28,6.7"/>
		<path class="st0" d="M36.3,241.3l33.9,46.2"/>
		<path class="st0" d="M321.4,129l-11.2-26.5"/>
		<path class="st0" d="M316.5,115.5l8.6,27.4"/>
		<path class="st0" d="M316.5,115.5l-22.1-37"/>
		<path class="st0" d="M224.4,29.7l26.2,11.8"/>
		<path class="st0" d="M224.4,29.7l13.4,5.3"/>
		<path class="st0" d="M51.1,266l-14.8-24.7"/>
		<path class="st0" d="M51.1,266l19.1,21.5"/>
		<path class="st0" d="M160.5,328.1l-14.3-2"/>
		<path class="st0" d="M160.5,328.1l14.4,0.7"/>
		<path class="st0" d="M160.5,328.1h28.8"/>
		<path class="st0" d="M160.5,328.1l43-2"/>
		<path class="st0" d="M125.4,29.7l42.3-8"/>
		<path class="st0" d="M112,35l41.4-12"/>
		<path class="st0" d="M112,35l190.9,55.2"/>
		<path class="st0" d="M112,35L87,49.2"/>
		<path class="st0" d="M112,35L65,67.8"/>
		<path class="st0" d="M112,35L55.5,78.6"/>
		<path class="st0" d="M256.9,305.1l32.8-27.9"/>
		<path class="st0" d="M256.9,305.1l41.9-39.1"/>
		<path class="st0" d="M256.9,305.1l62.3-77"/>
		<path class="st0" d="M256.9,305.1l69.6-104.8"/>
		<path class="st0" d="M60.1,277.2l-23.8-35.9"/>
		<path class="st0" d="M60.1,277.2L51.1,266"/>
		<path class="st0" d="M60.1,277.2l10.1,10.3"/>
		<path class="st0" d="M268.7,296.8l21-19.6"/>
		<path class="st0" d="M268.7,296.8l44.9-55.5"/>
		<path class="st0" d="M268.7,296.8l54.8-82.5"/>
		<path class="st0" d="M268.7,296.8l59.5-110.9"/>
		<path class="st0" d="M294.4,78.6l30.7,64.4"/>
		<path class="st0" d="M279.7,287.5l-48.5,30.6"/>
		<path class="st0" d="M39.6,102.5L47,90.2"/>
		<path class="st0" d="M39.6,102.5l204.8,209.6"/>
		<path class="st0" d="M39.6,102.5L24.7,143"/>
		<path class="st0" d="M39.6,102.5l-17.2,54.6"/>
		<path class="st0" d="M39.6,102.5l-18.2,69"/>
		<path class="st0" d="M39.6,102.5l283.9,111.8"/>
		<path class="st0" d="M81.2,296.8L43.1,254"/>
		<path class="st0" d="M81.2,296.8l51.1,25.9"/>
		<path class="st0" d="M93,305.1L43.1,254"/>
		<path class="st0" d="M93,305.1l-11.8-8.2"/>
		<path class="st0" d="M93,305.1l39.3,17.6"/>
		<path class="st0" d="M174.9,328.7l14.4-0.7"/>
		<path class="st0" d="M174.9,328.7l28.6-2.7"/>
		<path class="st0" d="M99.2,41.5l40.1-15.8"/>
		<path class="st0" d="M99.2,41.5l-43.7,37"/>
		<path class="st0" d="M24.7,143L47,90.2"/>
		<path class="st0" d="M24.7,143l8.6-27.4"/>
		<path class="st0" d="M24.7,143l-2.4,14.2"/>
		<path class="st0" d="M24.7,143l-3.4,28.6"/>
		<path class="st0" d="M22.4,157.2l24.6-67"/>
		<path class="st0" d="M105.5,312.2l-79.1-97.8"/>
		<path class="st0" d="M182.1,21.7l28.5,4"/>
		<path class="st0" d="M182.1,21.7l14.3,1.3"/>
		<path class="st0" d="M284.8,67.8l36.6,61.2"/>
		<path class="st0" d="M284.8,67.8l25.5,34.7"/>
		<path class="st0" d="M284.8,67.8L274.3,58"/>
		<path class="st0" d="M284.8,67.8l-21.9-18.6"/>
		<path class="st0" d="M87,49.2l80.7-27.5"/>
		<path class="st0" d="M87,49.2l66.4-26.1"/>
		<path class="st0" d="M87,49.2l38.4-19.5"/>
		<path class="st0" d="M87,49.2L55.5,78.6"/>
		<path class="st0" d="M289.7,277.2l9.1-11.2"/>
		<path class="st0" d="M289.7,277.2l29.4-49.2"/>
		<path class="st0" d="M289.7,277.2l36.8-77"/>
		<path class="st0" d="M289.7,277.2l38.4-91.3"/>
		<path class="st0" d="M274.3,58l54.2,113.5"/>
		<path class="st0" d="M274.3,58l28.6,32.2"/>
		<path class="st0" d="M274.3,58L112,35"/>
		<path class="st0" d="M274.3,58l-11.4-8.8"/>
		<path class="st0" d="M298.8,266l20.4-38"/>
		<path class="st0" d="M298.8,266l27.7-65.8"/>
		<path class="st0" d="M118.6,318.1L26.4,214.3"/>
		<path class="st0" d="M118.6,318.1l-87.9-90"/>
		<path class="st0" d="M118.6,318.1L43.1,254"/>
		<path class="st0" d="M118.6,318.1l-37.5-21.2"/>
		<path class="st0" d="M118.6,318.1l-25.7-13"/>
		<path class="st0" d="M118.6,318.1l-13.1-5.9"/>
		<path class="st0" d="M118.6,318.1l13.6,4.6"/>
		<path class="st0" d="M313.5,241.3L250.7,41.5"/>
		<path class="st0" d="M313.5,241.3l-82.3,76.7"/>
		<path class="st0" d="M313.5,241.3L237.8,35"/>
		<path class="st0" d="M313.5,241.3L224.4,29.7"/>
		<path class="st0" d="M313.5,241.3l-33.9,46.2"/>
		<path class="st0" d="M313.5,241.3l-23.8,35.9"/>
		<path class="st0" d="M313.5,241.3l9.9-27"/>
		<path class="st0" d="M313.5,241.3l14.6-55.4"/>
		<path class="st0" d="M21.4,171.5L47,90.2"/>
		<path class="st0" d="M21.4,171.5l7-42.5"/>
		<path class="st0" d="M21.4,171.5l1-14.4"/>
		<path class="st0" d="M21.4,171.5L284.8,67.8"/>
		<path class="st0" d="M21.4,171.5L274.3,58"/>
		<path class="st0" d="M21.4,171.5l0.3,14.4"/>
		<path class="st0" d="M21.4,171.5l2,28.7"/>
		<path class="st0" d="M21.4,171.5L262.9,49.2"/>
		<path class="st0" d="M21.7,185.9l6.7-56.9"/>
		<path class="st0" d="M21.7,185.9l1.7,14.3"/>
		<path class="st0" d="M203.6,326.1l-14.3,2"/>
		<path class="st0" d="M323.5,214.3l-79.1,97.8"/>
		<path class="st0" d="M323.5,214.3L30.7,228.1"/>
		<path class="st0" d="M323.5,214.3l-33.7,62.9"/>
		<path class="st0" d="M323.5,214.3L118.6,318.1"/>
		<path class="st0" d="M323.5,214.3l4.7-28.4"/>
		<path class="st0" d="M132.3,322.7l-96-81.4"/>
		<path class="st0" d="M132.3,322.7L43.1,254"/>
		<path class="st0" d="M132.3,322.7L51.1,266"/>
		<path class="st0" d="M132.3,322.7l-72.1-45.5"/>
		<path class="st0" d="M132.3,322.7l-62.1-35.2"/>
		<path class="st0" d="M23.4,200.2l5-71.2"/>
		<path class="st0" d="M326.5,200.2l-7.3,27.8"/>
		<path class="st0" d="M75.6,58l92.1-36.3"/>
		<path class="st0" d="M75.6,58l77.8-34.9"/>
		<path class="st0" d="M75.6,58l49.8-28.3"/>
		<path class="st0" d="M75.6,58L87,49.2"/>
		<path class="st0" d="M262.9,49.2l64.6,108"/>
		<path class="st0" d="M262.9,49.2l62.3,93.8"/>
		<path class="st0" d="M262.9,49.2l53.6,66.3"/>
		<path class="st0" d="M262.9,49.2l31.5,29.4"/>
		<path class="st0" d="M65,67.8l88.3-44.8"/>
		<path class="st0" d="M65,67.8L87,49.2"/>
		<path class="st0" d="M65,67.8l-9.6,10.8"/>
		<path class="st0" d="M328.1,185.9L306.7,254"/>
		<path class="st0" d="M55.5,78.6l97.9-55.5"/>
		<path class="st0" d="M55.5,78.6l83.8-52.8"/>
	</g>
	<path class="st1" d="M47,88.2c1.1,0,1.9,0.9,1.9,1.9c0,1.1-0.9,1.9-1.9,1.9c-1.1,0-1.9-0.9-1.9-1.9C45,89.1,45.9,88.2,47,88.2z"/>
	<path class="st1" d="M167.7,19.8c1.1,0,1.9,0.9,1.9,1.9c0,1.1-0.9,1.9-1.9,1.9c-1.1,0-1.9-0.9-1.9-1.9
		C165.8,20.6,166.7,19.8,167.7,19.8z"/>
	<path class="st1" d="M250.7,39.6c1.1,0,1.9,0.9,1.9,1.9c0,1.1-0.9,1.9-1.9,1.9c-1.1,0-1.9-0.9-1.9-1.9
		C248.7,40.4,249.6,39.6,250.7,39.6z"/>
	<path class="st1" d="M328.5,169.6c1.1,0,1.9,0.9,1.9,1.9c0,1.1-0.9,1.9-1.9,1.9c-1.1,0-1.9-0.9-1.9-1.9
		C326.5,170.5,327.4,169.6,328.5,169.6z"/>
	<path class="st1" d="M26.4,212.4c1.1,0,1.9,0.9,1.9,1.9c0,1.1-0.9,1.9-1.9,1.9c-1.1,0-1.9-0.9-1.9-1.9
		C24.5,213.2,25.3,212.4,26.4,212.4z"/>
	<path class="st1" d="M231.2,316.1c1.1,0,1.9,0.9,1.9,1.9c0,1.1-0.9,1.9-1.9,1.9c-1.1,0-1.9-0.9-1.9-1.9
		C229.3,317,230.1,316.1,231.2,316.1z"/>
	<path class="st1" d="M327.5,155.2c1.1,0,1.9,0.9,1.9,1.9c0,1.1-0.9,1.9-1.9,1.9c-1.1,0-1.9-0.9-1.9-1.9
		C325.5,156.1,326.4,155.2,327.5,155.2z"/>
	<path class="st1" d="M244.3,310.2c1.1,0,1.9,0.9,1.9,1.9c0,1.1-0.9,1.9-1.9,1.9c-1.1,0-1.9-0.9-1.9-1.9
		C242.4,311.1,243.3,310.2,244.3,310.2z"/>
	<path class="st1" d="M237.8,33.1c1.1,0,1.9,0.9,1.9,1.9c0,1.1-0.9,1.9-1.9,1.9c-1.1,0-1.9-0.9-1.9-1.9
		C235.9,33.9,236.8,33.1,237.8,33.1z"/>
	<path class="st1" d="M146.3,324.1c1.1,0,1.9,0.9,1.9,1.9c0,1.1-0.9,1.9-1.9,1.9c-1.1,0-1.9-0.9-1.9-1.9
		C144.3,325,145.2,324.1,146.3,324.1z"/>
	<path class="st1" d="M153.4,21.1c1.1,0,1.9,0.9,1.9,1.9c0,1.1-0.9,1.9-1.9,1.9c-1.1,0-1.9-0.9-1.9-1.9
		C151.4,22,152.3,21.1,153.4,21.1z"/>
	<path class="st1" d="M325.1,141c1.1,0,1.9,0.9,1.9,1.9c0,1.1-0.9,1.9-1.9,1.9c-1.1,0-1.9-0.9-1.9-1.9
		C323.2,141.9,324,141,325.1,141z"/>
	<path class="st1" d="M30.7,226.1c1.1,0,1.9,0.9,1.9,1.9c0,1.1-0.9,1.9-1.9,1.9c-1.1,0-1.9-0.9-1.9-1.9
		C28.8,227,29.6,226.1,30.7,226.1z"/>
	<path class="st1" d="M36.3,239.4c1.1,0,1.9,0.9,1.9,1.9c0,1.1-0.9,1.9-1.9,1.9c-1.1,0-1.9-0.9-1.9-1.9
		C34.4,240.3,35.2,239.4,36.3,239.4z"/>
	<path class="st1" d="M321.5,127.1c1.1,0,1.9,0.9,1.9,1.9c0,1.1-0.9,1.9-1.9,1.9c-1.1,0-1.9-0.9-1.9-1.9
		C319.5,128,320.4,127.1,321.5,127.1z"/>
	<path class="st1" d="M316.5,113.6c1.1,0,1.9,0.9,1.9,1.9c0,1.1-0.9,1.9-1.9,1.9c-1.1,0-1.9-0.9-1.9-1.9
		C314.5,114.5,315.4,113.6,316.5,113.6z"/>
	<path class="st1" d="M310.3,100.6c1.1,0,1.9,0.9,1.9,1.9c0,1.1-0.9,1.9-1.9,1.9c-1.1,0-1.9-0.9-1.9-1.9
		C308.3,101.5,309.2,100.6,310.3,100.6z"/>
	<path class="st1" d="M43.1,252.1c1.1,0,1.9,0.9,1.9,1.9c0,1.1-0.9,1.9-1.9,1.9c-1.1,0-1.9-0.9-1.9-1.9
		C41.2,252.9,42,252.1,43.1,252.1z"/>
	<path class="st1" d="M224.4,27.8c1.1,0,1.9,0.9,1.9,1.9c0,1.1-0.9,1.9-1.9,1.9s-1.9-0.9-1.9-1.9C222.5,28.7,223.4,27.8,224.4,27.8z
		"/>
	<path class="st1" d="M51.1,264.1c1.1,0,1.9,0.9,1.9,1.9c0,1.1-0.9,1.9-1.9,1.9c-1.1,0-1.9-0.9-1.9-1.9
		C49.1,264.9,50,264.1,51.1,264.1z"/>
	<path class="st1" d="M302.9,88.2c1.1,0,1.9,0.9,1.9,1.9c0,1.1-0.9,1.9-1.9,1.9c-1.1,0-1.9-0.9-1.9-1.9
		C300.9,89.1,301.8,88.2,302.9,88.2z"/>
	<path class="st1" d="M160.5,326.1c1.1,0,1.9,0.9,1.9,1.9c0,1.1-0.9,1.9-1.9,1.9c-1.1,0-1.9-0.9-1.9-1.9
		C158.6,327,159.5,326.1,160.5,326.1z"/>
	<path class="st1" d="M139.2,23.8c1.1,0,1.9,0.9,1.9,1.9c0,1.1-0.9,1.9-1.9,1.9c-1.1,0-1.9-0.9-1.9-1.9
		C137.3,24.7,138.2,23.8,139.2,23.8z"/>
	<path class="st1" d="M125.4,27.8c1.1,0,1.9,0.9,1.9,1.9c0,1.1-0.9,1.9-1.9,1.9c-1.1,0-1.9-0.9-1.9-1.9
		C123.5,28.7,124.3,27.8,125.4,27.8z"/>
	<path class="st1" d="M112,33.1c1.1,0,1.9,0.9,1.9,1.9c0,1.1-0.9,1.9-1.9,1.9c-1.1,0-1.9-0.9-1.9-1.9
		C110.1,33.9,110.9,33.1,112,33.1z"/>
	<path class="st1" d="M256.9,303.1c1.1,0,1.9,0.9,1.9,1.9c0,1.1-0.9,1.9-1.9,1.9c-1.1,0-1.9-0.9-1.9-1.9
		C254.9,304,255.8,303.1,256.9,303.1z"/>
	<path class="st1" d="M60.1,275.3c1.1,0,1.9,0.9,1.9,1.9c0,1.1-0.9,1.9-1.9,1.9c-1.1,0-1.9-0.9-1.9-1.9
		C58.2,276.1,59.1,275.3,60.1,275.3z"/>
	<path class="st1" d="M268.7,294.9c1.1,0,1.9,0.9,1.9,1.9c0,1.1-0.9,1.9-1.9,1.9c-1.1,0-1.9-0.9-1.9-1.9
		C266.7,295.7,267.6,294.9,268.7,294.9z"/>
	<path class="st1" d="M294.4,76.6c1.1,0,1.9,0.9,1.9,1.9c0,1.1-0.9,1.9-1.9,1.9c-1.1,0-1.9-0.9-1.9-1.9
		C292.4,77.5,293.3,76.6,294.4,76.6z"/>
	<path class="st1" d="M70.2,285.6c1.1,0,1.9,0.9,1.9,1.9c0,1.1-0.9,1.9-1.9,1.9c-1.1,0-1.9-0.9-1.9-1.9
		C68.3,286.4,69.1,285.6,70.2,285.6z"/>
	<path class="st1" d="M279.7,285.6c1.1,0,1.9,0.9,1.9,1.9c0,1.1-0.9,1.9-1.9,1.9c-1.1,0-1.9-0.9-1.9-1.9
		C277.7,286.4,278.6,285.6,279.7,285.6z"/>
	<path class="st1" d="M210.6,23.8c1.1,0,1.9,0.9,1.9,1.9c0,1.1-0.9,1.9-1.9,1.9c-1.1,0-1.9-0.9-1.9-1.9
		C208.7,24.7,209.5,23.8,210.6,23.8z"/>
	<path class="st1" d="M39.6,100.6c1.1,0,1.9,0.9,1.9,1.9c0,1.1-0.9,1.9-1.9,1.9c-1.1,0-1.9-0.9-1.9-1.9
		C37.6,101.5,38.5,100.6,39.6,100.6z"/>
	<path class="st1" d="M81.2,294.9c1.1,0,1.9,0.9,1.9,1.9c0,1.1-0.9,1.9-1.9,1.9c-1.1,0-1.9-0.9-1.9-1.9
		C79.2,295.7,80.1,294.9,81.2,294.9z"/>
	<path class="st1" d="M33.4,113.6c1.1,0,1.9,0.9,1.9,1.9c0,1.1-0.9,1.9-1.9,1.9c-1.1,0-1.9-0.9-1.9-1.9
		C31.4,114.5,32.3,113.6,33.4,113.6z"/>
	<path class="st1" d="M28.4,127.1c1.1,0,1.9,0.9,1.9,1.9c0,1.1-0.9,1.9-1.9,1.9c-1.1,0-1.9-0.9-1.9-1.9
		C26.5,128,27.3,127.1,28.4,127.1z"/>
	<path class="st1" d="M93,303.1c1.1,0,1.9,0.9,1.9,1.9c0,1.1-0.9,1.9-1.9,1.9c-1.1,0-1.9-0.9-1.9-1.9C91,304,91.9,303.1,93,303.1z"
		/>
	<path class="st1" d="M174.9,326.8c1.1,0,1.9,0.9,1.9,1.9c0,1.1-0.9,1.9-1.9,1.9c-1.1,0-1.9-0.9-1.9-1.9
		C173,327.7,173.9,326.8,174.9,326.8z"/>
	<path class="st1" d="M99.2,39.6c1.1,0,1.9,0.9,1.9,1.9c0,1.1-0.9,1.9-1.9,1.9c-1.1,0-1.9-0.9-1.9-1.9
		C97.2,40.4,98.1,39.6,99.2,39.6z"/>
	<path class="st1" d="M24.7,141c1.1,0,1.9,0.9,1.9,1.9c0,1.1-0.9,1.9-1.9,1.9c-1.1,0-1.9-0.9-1.9-1.9C22.8,141.9,23.7,141,24.7,141z
		"/>
	<path class="st1" d="M22.4,155.2c1.1,0,1.9,0.9,1.9,1.9c0,1.1-0.9,1.9-1.9,1.9c-1.1,0-1.9-0.9-1.9-1.9
		C20.4,156.1,21.3,155.2,22.4,155.2z"/>
	<path class="st1" d="M105.5,310.2c1.1,0,1.9,0.9,1.9,1.9c0,1.1-0.9,1.9-1.9,1.9c-1.1,0-1.9-0.9-1.9-1.9
		C103.6,311.1,104.4,310.2,105.5,310.2z"/>
	<path class="st1" d="M196.5,21.1c1.1,0,1.9,0.9,1.9,1.9c0,1.1-0.9,1.9-1.9,1.9c-1.1,0-1.9-0.9-1.9-1.9
		C194.5,22,195.4,21.1,196.5,21.1z"/>
	<path class="st1" d="M182.1,19.8c1.1,0,1.9,0.9,1.9,1.9c0,1.1-0.9,1.9-1.9,1.9c-1.1,0-1.9-0.9-1.9-1.9
		C180.2,20.6,181.1,19.8,182.1,19.8z"/>
	<path class="st1" d="M284.8,65.9c1.1,0,1.9,0.9,1.9,1.9c0,1.1-0.9,1.9-1.9,1.9c-1.1,0-1.9-0.9-1.9-1.9
		C282.9,66.7,283.7,65.9,284.8,65.9z"/>
	<path class="st1" d="M87,47.3c1.1,0,1.9,0.9,1.9,1.9c0,1.1-0.9,1.9-1.9,1.9c-1.1,0-1.9-0.9-1.9-1.9C85,48.1,85.9,47.3,87,47.3z"/>
	<path class="st1" d="M289.7,275.3c1.1,0,1.9,0.9,1.9,1.9c0,1.1-0.9,1.9-1.9,1.9c-1.1,0-1.9-0.9-1.9-1.9
		C287.8,276.1,288.6,275.3,289.7,275.3z"/>
	<path class="st1" d="M274.3,56c1.1,0,1.9,0.9,1.9,1.9c0,1.1-0.9,1.9-1.9,1.9c-1.1,0-1.9-0.9-1.9-1.9C272.3,56.9,273.2,56,274.3,56z
		"/>
	<path class="st1" d="M298.8,264.1c1.1,0,1.9,0.9,1.9,1.9c0,1.1-0.9,1.9-1.9,1.9c-1.1,0-1.9-0.9-1.9-1.9
		C296.8,264.9,297.7,264.1,298.8,264.1z"/>
	<path class="st1" d="M118.6,316.1c1.1,0,1.9,0.9,1.9,1.9c0,1.1-0.9,1.9-1.9,1.9c-1.1,0-1.9-0.9-1.9-1.9
		C116.7,317,117.6,316.1,118.6,316.1z"/>
	<path class="st1" d="M306.7,252.1c1.1,0,1.9,0.9,1.9,1.9c0,1.1-0.9,1.9-1.9,1.9c-1.1,0-1.9-0.9-1.9-1.9
		C304.8,252.9,305.7,252.1,306.7,252.1z"/>
	<path class="st1" d="M313.5,239.4c1.1,0,1.9,0.9,1.9,1.9c0,1.1-0.9,1.9-1.9,1.9c-1.1,0-1.9-0.9-1.9-1.9
		C311.6,240.3,312.5,239.4,313.5,239.4z"/>
	<path class="st1" d="M21.4,169.6c1.1,0,1.9,0.9,1.9,1.9c0,1.1-0.9,1.9-1.9,1.9c-1.1,0-1.9-0.9-1.9-1.9
		C19.4,170.5,20.3,169.6,21.4,169.6z"/>
	<path class="st1" d="M21.7,184c1.1,0,1.9,0.9,1.9,1.9c0,1.1-0.9,1.9-1.9,1.9c-1.1,0-1.9-0.9-1.9-1.9C19.8,184.9,20.6,184,21.7,184z
		"/>
	<path class="st1" d="M319.1,226.1c1.1,0,1.9,0.9,1.9,1.9c0,1.1-0.9,1.9-1.9,1.9c-1.1,0-1.9-0.9-1.9-1.9
		C317.2,227,318.1,226.1,319.1,226.1z"/>
	<path class="st1" d="M189.3,326.1c1.1,0,1.9,0.9,1.9,1.9c0,1.1-0.9,1.9-1.9,1.9c-1.1,0-1.9-0.9-1.9-1.9
		C187.4,327,188.2,326.1,189.3,326.1z"/>
	<path class="st1" d="M203.6,324.1c1.1,0,1.9,0.9,1.9,1.9c0,1.1-0.9,1.9-1.9,1.9s-1.9-0.9-1.9-1.9
		C201.6,325,202.5,324.1,203.6,324.1z"/>
	<path class="st1" d="M323.5,212.4c1.1,0,1.9,0.9,1.9,1.9c0,1.1-0.9,1.9-1.9,1.9c-1.1,0-1.9-0.9-1.9-1.9
		C321.5,213.2,322.4,212.4,323.5,212.4z"/>
	<path class="st1" d="M132.3,320.8c1.1,0,1.9,0.9,1.9,1.9c0,1.1-0.9,1.9-1.9,1.9c-1.1,0-1.9-0.9-1.9-1.9
		C130.3,321.6,131.2,320.8,132.3,320.8z"/>
	<path class="st1" d="M23.4,198.3c1.1,0,1.9,0.9,1.9,1.9c0,1.1-0.9,1.9-1.9,1.9c-1.1,0-1.9-0.9-1.9-1.9
		C21.4,199.2,22.3,198.3,23.4,198.3z"/>
	<path class="st1" d="M326.5,198.3c1.1,0,1.9,0.9,1.9,1.9c0,1.1-0.9,1.9-1.9,1.9c-1.1,0-1.9-0.9-1.9-1.9
		C324.5,199.2,325.4,198.3,326.5,198.3z"/>
	<path class="st1" d="M75.6,56c1.1,0,1.9,0.9,1.9,1.9c0,1.1-0.9,1.9-1.9,1.9c-1.1,0-1.9-0.9-1.9-1.9C73.6,56.9,74.5,56,75.6,56z"/>
	<path class="st1" d="M262.9,47.3c1.1,0,1.9,0.9,1.9,1.9c0,1.1-0.9,1.9-1.9,1.9c-1.1,0-1.9-0.9-1.9-1.9
		C260.9,48.1,261.8,47.3,262.9,47.3z"/>
	<path class="st1" d="M65,65.9c1.1,0,1.9,0.9,1.9,1.9c0,1.1-0.9,1.9-1.9,1.9c-1.1,0-1.9-0.9-1.9-1.9C63.1,66.7,64,65.9,65,65.9z"/>
	<path class="st1" d="M217.6,320.8c1.1,0,1.9,0.9,1.9,1.9c0,1.1-0.9,1.9-1.9,1.9c-1.1,0-1.9-0.9-1.9-1.9
		C215.6,321.6,216.5,320.8,217.6,320.8z"/>
	<path class="st1" d="M328.1,184c1.1,0,1.9,0.9,1.9,1.9c0,1.1-0.9,1.9-1.9,1.9c-1.1,0-1.9-0.9-1.9-1.9
		C326.2,184.9,327.1,184,328.1,184z"/>
	<path class="st1" d="M55.5,76.6c1.1,0,1.9,0.9,1.9,1.9c0,1.1-0.9,1.9-1.9,1.9c-1.1,0-1.9-0.9-1.9-1.9
		C53.5,77.5,54.4,76.6,55.5,76.6z"/>
</g>
</svg>
