<?xml version="1.0" encoding="utf-8"?>
<!-- Generator: Adobe Illustrator 22.0.1, SVG Export Plug-In . SVG Version: 6.00 Build 0)  -->
<svg version="1.1" id="Layer_1" xmlns="http://www.w3.org/2000/svg" xmlns:xlink="http://www.w3.org/1999/xlink" x="0px" y="0px"
	 viewBox="0 0 350 350" style="enable-background:new 0 0 350 350;" xml:space="preserve">
<style type="text/css">
	.st0{fill:none;stroke:#777777;stroke-width:1.5;stroke-miterlimit:10;}
	.st1{stroke:#444444;stroke-miterlimit:10;}
</style>
<g>
	<g id="edges">
		<path class="st0" d="M111.3,21.2v307.6"/>
		<path class="st0" d="M111.3,21.2l127.4,307.6"/>
		<path class="st0" d="M111.3,21.2l-90.1,90.1"/>
		<path class="st0" d="M111.3,21.2L21.2,238.7"/>
		<path class="st0" d="M111.3,21.2l217.5,217.5"/>
		<path class="st0" d="M111.3,21.2l217.5,90.1"/>
		<path class="st0" d="M111.3,328.8l217.5-90.1"/>
		<path class="st0" d="M238.7,328.8H111.3"/>
		<path class="st0" d="M238.7,328.8l90.1-90.1"/>
		<path class="st0" d="M238.7,328.8l90.1-217.5"/>
		<path class="st0" d="M21.2,111.3v127.4"/>
		<path class="st0" d="M328.8,111.3L111.3,328.8"/>
		<path class="st0" d="M328.8,111.3v127.4"/>
		<path class="st0" d="M328.8,111.3l-90.1-90.1"/>
	</g>
	<path class="st1" d="M111.3,17.3c2.2,0,3.9,1.8,3.9,3.9c0,2.2-1.8,3.9-3.9,3.9c-2.2,0-3.9-1.8-3.9-3.9
		C107.4,19,109.1,17.3,111.3,17.3z"/>
	<path class="st1" d="M111.3,324.8c2.2,0,3.9,1.8,3.9,3.9c0,2.2-1.8,3.9-3.9,3.9c-2.2,0-3.9-1.8-3.9-3.9
		C107.4,326.6,109.1,324.8,111.3,324.8z"/>
	<path class="st1" d="M238.7,324.8c2.2,0,3.9,1.8,3.9,3.9c0,2.2-1.8,3.9-3.9,3.9c-2.2,0-3.9-1.8-3.9-3.9
		C234.8,326.6,236.5,324.8,238.7,324.8z"/>
	<path class="st1" d="M21.2,107.4c2.2,0,3.9,1.8,3.9,3.9c0,2.2-1.8,4-3.9,4c-2.2,0-3.9-1.8-3.9-4C17.3,109.1,19,107.4,21.2,107.4z"
		/>
	<path class="st1" d="M21.2,234.8c2.2,0,3.9,1.8,3.9,3.9c0,2.2-1.8,4-3.9,4c-2.2,0-3.9-1.8-3.9-4C17.3,236.5,19,234.8,21.2,234.8z"
		/>
	<path class="st1" d="M328.8,234.8c2.2,0,3.9,1.8,3.9,3.9c0,2.2-1.8,4-3.9,4c-2.2,0-3.9-1.8-3.9-4
		C324.8,236.5,326.6,234.8,328.8,234.8z"/>
	<path class="st1" d="M328.8,107.4c2.2,0,3.9,1.8,3.9,3.9c0,2.2-1.8,4-3.9,4c-2.2,0-3.9-1.8-3.9-4
		C324.8,109.1,326.6,107.4,328.8,107.4z"/>
	<path class="st1" d="M238.7,17.3c2.2,0,3.9,1.8,3.9,3.9c0,2.2-1.8,3.9-3.9,3.9c-2.2,0-3.9-1.8-3.9-3.9
		C234.8,19,236.5,17.3,238.7,17.3z"/>
</g>
</svg>
