<?xml version="1.0" encoding="utf-8"?>
<!-- Generator: Adobe Illustrator 21.1.0, SVG Export Plug-In . SVG Version: 6.00 Build 0)  -->
<svg version="1.1" id="Layer_1" xmlns="http://www.w3.org/2000/svg" xmlns:xlink="http://www.w3.org/1999/xlink" x="0px" y="0px"
	 viewBox="0 0 350 350" style="enable-background:new 0 0 350 350;" xml:space="preserve">
<style type="text/css">
	.st0{fill:none;stroke:#231F20;stroke-width:0.75;stroke-miterlimit:10;}
</style>
<g>
	<line class="st0" x1="22.7" y1="207.4" x2="317.3" y2="238.4"/>
	<line class="st0" x1="22.7" y1="207.4" x2="317.3" y2="111.6"/>
	<line class="st0" x1="32.7" y1="238.4" x2="22.7" y2="207.4"/>
	<line class="st0" x1="32.7" y1="238.4" x2="49" y2="266.6"/>
	<line class="st0" x1="32.7" y1="238.4" x2="97.1" y2="40.1"/>
	<line class="st0" x1="32.7" y1="238.4" x2="158.7" y2="329.9"/>
	<line class="st0" x1="32.7" y1="238.4" x2="191.3" y2="329.9"/>
	<line class="st0" x1="32.7" y1="238.4" x2="252.9" y2="309.9"/>
	<line class="st0" x1="32.7" y1="238.4" x2="279.2" y2="290.7"/>
	<line class="st0" x1="32.7" y1="238.4" x2="317.3" y2="238.4"/>
	<line class="st0" x1="32.7" y1="238.4" x2="32.7" y2="111.6"/>
	<line class="st0" x1="32.7" y1="238.4" x2="330.7" y2="175"/>
	<line class="st0" x1="32.7" y1="238.4" x2="327.4" y2="142.6"/>
	<line class="st0" x1="32.7" y1="238.4" x2="317.3" y2="111.6"/>
	<line class="st0" x1="32.7" y1="238.4" x2="301" y2="83.4"/>
	<line class="st0" x1="49" y1="266.6" x2="22.7" y2="207.4"/>
	<line class="st0" x1="49" y1="266.6" x2="252.9" y2="309.9"/>
	<line class="st0" x1="49" y1="266.6" x2="317.3" y2="238.4"/>
	<line class="st0" x1="49" y1="266.6" x2="330.7" y2="175"/>
	<line class="st0" x1="49" y1="266.6" x2="327.4" y2="142.6"/>
	<line class="st0" x1="49" y1="266.6" x2="317.3" y2="111.6"/>
	<line class="st0" x1="70.8" y1="290.7" x2="22.7" y2="207.4"/>
	<line class="st0" x1="70.8" y1="290.7" x2="32.7" y2="238.4"/>
	<line class="st0" x1="70.8" y1="290.7" x2="49" y2="266.6"/>
	<line class="st0" x1="70.8" y1="290.7" x2="126.9" y2="323.1"/>
	<line class="st0" x1="70.8" y1="290.7" x2="97.1" y2="40.1"/>
	<line class="st0" x1="70.8" y1="290.7" x2="158.7" y2="329.9"/>
	<line class="st0" x1="70.8" y1="290.7" x2="70.8" y2="59.3"/>
	<line class="st0" x1="70.8" y1="290.7" x2="191.3" y2="329.9"/>
	<line class="st0" x1="70.8" y1="290.7" x2="223.1" y2="323.1"/>
	<line class="st0" x1="70.8" y1="290.7" x2="252.9" y2="309.9"/>
	<line class="st0" x1="70.8" y1="290.7" x2="279.2" y2="290.7"/>
	<line class="st0" x1="70.8" y1="290.7" x2="301" y2="266.6"/>
	<line class="st0" x1="70.8" y1="290.7" x2="317.3" y2="238.4"/>
	<line class="st0" x1="70.8" y1="290.7" x2="32.7" y2="111.6"/>
	<line class="st0" x1="70.8" y1="290.7" x2="327.4" y2="207.4"/>
	<line class="st0" x1="70.8" y1="290.7" x2="19.3" y2="175"/>
	<line class="st0" x1="70.8" y1="290.7" x2="330.7" y2="175"/>
	<line class="st0" x1="70.8" y1="290.7" x2="327.4" y2="142.6"/>
	<line class="st0" x1="70.8" y1="290.7" x2="317.3" y2="111.6"/>
	<line class="st0" x1="70.8" y1="290.7" x2="301" y2="83.4"/>
	<line class="st0" x1="126.9" y1="26.9" x2="22.7" y2="207.4"/>
	<line class="st0" x1="126.9" y1="26.9" x2="32.7" y2="238.4"/>
	<line class="st0" x1="126.9" y1="26.9" x2="49" y2="266.6"/>
	<line class="st0" x1="126.9" y1="26.9" x2="70.8" y2="290.7"/>
	<line class="st0" x1="126.9" y1="26.9" x2="126.9" y2="323.1"/>
	<line class="st0" x1="126.9" y1="26.9" x2="97.1" y2="40.1"/>
	<line class="st0" x1="126.9" y1="26.9" x2="158.7" y2="329.9"/>
	<line class="st0" x1="126.9" y1="26.9" x2="70.8" y2="59.3"/>
	<line class="st0" x1="126.9" y1="26.9" x2="191.3" y2="329.9"/>
	<line class="st0" x1="126.9" y1="26.9" x2="223.1" y2="323.1"/>
	<line class="st0" x1="126.9" y1="26.9" x2="279.2" y2="59.3"/>
	<line class="st0" x1="126.9" y1="26.9" x2="252.9" y2="309.9"/>
	<line class="st0" x1="126.9" y1="26.9" x2="279.2" y2="290.7"/>
	<line class="st0" x1="126.9" y1="26.9" x2="301" y2="266.6"/>
	<line class="st0" x1="126.9" y1="26.9" x2="317.3" y2="238.4"/>
	<line class="st0" x1="126.9" y1="26.9" x2="32.7" y2="111.6"/>
	<line class="st0" x1="126.9" y1="26.9" x2="327.4" y2="207.4"/>
	<line class="st0" x1="126.9" y1="26.9" x2="19.3" y2="175"/>
	<line class="st0" x1="126.9" y1="26.9" x2="330.7" y2="175"/>
	<line class="st0" x1="126.9" y1="26.9" x2="327.4" y2="142.6"/>
	<line class="st0" x1="126.9" y1="26.9" x2="317.3" y2="111.6"/>
	<line class="st0" x1="126.9" y1="26.9" x2="301" y2="83.4"/>
	<line class="st0" x1="97.1" y1="309.9" x2="22.7" y2="207.4"/>
	<line class="st0" x1="97.1" y1="309.9" x2="32.7" y2="238.4"/>
	<line class="st0" x1="97.1" y1="309.9" x2="49" y2="266.6"/>
	<line class="st0" x1="97.1" y1="309.9" x2="70.8" y2="290.7"/>
	<line class="st0" x1="97.1" y1="309.9" x2="126.9" y2="26.9"/>
	<line class="st0" x1="97.1" y1="309.9" x2="126.9" y2="323.1"/>
	<line class="st0" x1="97.1" y1="309.9" x2="97.1" y2="40.1"/>
	<line class="st0" x1="97.1" y1="309.9" x2="158.7" y2="329.9"/>
	<line class="st0" x1="97.1" y1="309.9" x2="70.8" y2="59.3"/>
	<line class="st0" x1="97.1" y1="309.9" x2="191.3" y2="329.9"/>
	<line class="st0" x1="97.1" y1="309.9" x2="223.1" y2="323.1"/>
	<line class="st0" x1="97.1" y1="309.9" x2="252.9" y2="309.9"/>
	<line class="st0" x1="97.1" y1="309.9" x2="279.2" y2="290.7"/>
	<line class="st0" x1="97.1" y1="309.9" x2="301" y2="266.6"/>
	<line class="st0" x1="97.1" y1="309.9" x2="317.3" y2="238.4"/>
	<line class="st0" x1="97.1" y1="309.9" x2="49" y2="83.4"/>
	<line class="st0" x1="97.1" y1="309.9" x2="32.7" y2="111.6"/>
	<line class="st0" x1="97.1" y1="309.9" x2="327.4" y2="207.4"/>
	<line class="st0" x1="97.1" y1="309.9" x2="22.7" y2="142.6"/>
	<line class="st0" x1="97.1" y1="309.9" x2="19.3" y2="175"/>
	<line class="st0" x1="97.1" y1="309.9" x2="330.7" y2="175"/>
	<line class="st0" x1="97.1" y1="309.9" x2="327.4" y2="142.6"/>
	<line class="st0" x1="97.1" y1="309.9" x2="317.3" y2="111.6"/>
	<line class="st0" x1="97.1" y1="309.9" x2="301" y2="83.4"/>
	<line class="st0" x1="126.9" y1="323.1" x2="22.7" y2="207.4"/>
	<line class="st0" x1="126.9" y1="323.1" x2="32.7" y2="238.4"/>
	<line class="st0" x1="126.9" y1="323.1" x2="49" y2="266.6"/>
	<line class="st0" x1="126.9" y1="323.1" x2="97.1" y2="40.1"/>
	<line class="st0" x1="126.9" y1="323.1" x2="158.7" y2="329.9"/>
	<line class="st0" x1="126.9" y1="323.1" x2="70.8" y2="59.3"/>
	<line class="st0" x1="126.9" y1="323.1" x2="191.3" y2="329.9"/>
	<line class="st0" x1="126.9" y1="323.1" x2="223.1" y2="323.1"/>
	<line class="st0" x1="126.9" y1="323.1" x2="252.9" y2="309.9"/>
	<line class="st0" x1="126.9" y1="323.1" x2="279.2" y2="290.7"/>
	<line class="st0" x1="126.9" y1="323.1" x2="301" y2="266.6"/>
	<line class="st0" x1="126.9" y1="323.1" x2="317.3" y2="238.4"/>
	<line class="st0" x1="126.9" y1="323.1" x2="32.7" y2="111.6"/>
	<line class="st0" x1="126.9" y1="323.1" x2="330.7" y2="175"/>
	<line class="st0" x1="126.9" y1="323.1" x2="327.4" y2="142.6"/>
	<line class="st0" x1="126.9" y1="323.1" x2="317.3" y2="111.6"/>
	<line class="st0" x1="126.9" y1="323.1" x2="301" y2="83.4"/>
	<line class="st0" x1="97.1" y1="40.1" x2="22.7" y2="207.4"/>
	<line class="st0" x1="97.1" y1="40.1" x2="49" y2="266.6"/>
	<line class="st0" x1="97.1" y1="40.1" x2="279.2" y2="59.3"/>
	<line class="st0" x1="97.1" y1="40.1" x2="252.9" y2="309.9"/>
	<line class="st0" x1="97.1" y1="40.1" x2="317.3" y2="238.4"/>
	<line class="st0" x1="97.1" y1="40.1" x2="32.7" y2="111.6"/>
	<line class="st0" x1="97.1" y1="40.1" x2="330.7" y2="175"/>
	<line class="st0" x1="97.1" y1="40.1" x2="327.4" y2="142.6"/>
	<line class="st0" x1="97.1" y1="40.1" x2="317.3" y2="111.6"/>
	<line class="st0" x1="97.1" y1="40.1" x2="301" y2="83.4"/>
	<line class="st0" x1="158.7" y1="329.9" x2="22.7" y2="207.4"/>
	<line class="st0" x1="158.7" y1="329.9" x2="49" y2="266.6"/>
	<line class="st0" x1="158.7" y1="329.9" x2="97.1" y2="40.1"/>
	<line class="st0" x1="158.7" y1="329.9" x2="191.3" y2="329.9"/>
	<line class="st0" x1="158.7" y1="329.9" x2="252.9" y2="309.9"/>
	<line class="st0" x1="158.7" y1="329.9" x2="279.2" y2="290.7"/>
	<line class="st0" x1="158.7" y1="329.9" x2="317.3" y2="238.4"/>
	<line class="st0" x1="158.7" y1="329.9" x2="32.7" y2="111.6"/>
	<line class="st0" x1="158.7" y1="329.9" x2="330.7" y2="175"/>
	<line class="st0" x1="158.7" y1="329.9" x2="327.4" y2="142.6"/>
	<line class="st0" x1="158.7" y1="329.9" x2="317.3" y2="111.6"/>
	<line class="st0" x1="158.7" y1="329.9" x2="301" y2="83.4"/>
	<line class="st0" x1="70.8" y1="59.3" x2="22.7" y2="207.4"/>
	<line class="st0" x1="70.8" y1="59.3" x2="32.7" y2="238.4"/>
	<line class="st0" x1="70.8" y1="59.3" x2="49" y2="266.6"/>
	<line class="st0" x1="70.8" y1="59.3" x2="97.1" y2="40.1"/>
	<line class="st0" x1="70.8" y1="59.3" x2="158.7" y2="329.9"/>
	<line class="st0" x1="70.8" y1="59.3" x2="191.3" y2="329.9"/>
	<line class="st0" x1="70.8" y1="59.3" x2="279.2" y2="59.3"/>
	<line class="st0" x1="70.8" y1="59.3" x2="252.9" y2="309.9"/>
	<line class="st0" x1="70.8" y1="59.3" x2="279.2" y2="290.7"/>
	<line class="st0" x1="70.8" y1="59.3" x2="317.3" y2="238.4"/>
	<line class="st0" x1="70.8" y1="59.3" x2="32.7" y2="111.6"/>
	<line class="st0" x1="70.8" y1="59.3" x2="330.7" y2="175"/>
	<line class="st0" x1="70.8" y1="59.3" x2="327.4" y2="142.6"/>
	<line class="st0" x1="70.8" y1="59.3" x2="317.3" y2="111.6"/>
	<line class="st0" x1="70.8" y1="59.3" x2="301" y2="83.4"/>
	<line class="st0" x1="191.3" y1="329.9" x2="22.7" y2="207.4"/>
	<line class="st0" x1="191.3" y1="329.9" x2="49" y2="266.6"/>
	<line class="st0" x1="191.3" y1="329.9" x2="97.1" y2="40.1"/>
	<line class="st0" x1="191.3" y1="329.9" x2="252.9" y2="309.9"/>
	<line class="st0" x1="191.3" y1="329.9" x2="317.3" y2="238.4"/>
	<line class="st0" x1="191.3" y1="329.9" x2="32.7" y2="111.6"/>
	<line class="st0" x1="191.3" y1="329.9" x2="330.7" y2="175"/>
	<line class="st0" x1="191.3" y1="329.9" x2="327.4" y2="142.6"/>
	<line class="st0" x1="191.3" y1="329.9" x2="317.3" y2="111.6"/>
	<line class="st0" x1="191.3" y1="329.9" x2="301" y2="83.4"/>
	<line class="st0" x1="223.1" y1="323.1" x2="22.7" y2="207.4"/>
	<line class="st0" x1="223.1" y1="323.1" x2="32.7" y2="238.4"/>
	<line class="st0" x1="223.1" y1="323.1" x2="49" y2="266.6"/>
	<line class="st0" x1="223.1" y1="323.1" x2="97.1" y2="40.1"/>
	<line class="st0" x1="223.1" y1="323.1" x2="158.7" y2="329.9"/>
	<line class="st0" x1="223.1" y1="323.1" x2="70.8" y2="59.3"/>
	<line class="st0" x1="223.1" y1="323.1" x2="191.3" y2="329.9"/>
	<line class="st0" x1="223.1" y1="323.1" x2="252.9" y2="309.9"/>
	<line class="st0" x1="223.1" y1="323.1" x2="279.2" y2="290.7"/>
	<line class="st0" x1="223.1" y1="323.1" x2="301" y2="266.6"/>
	<line class="st0" x1="223.1" y1="323.1" x2="317.3" y2="238.4"/>
	<line class="st0" x1="223.1" y1="323.1" x2="32.7" y2="111.6"/>
	<line class="st0" x1="223.1" y1="323.1" x2="330.7" y2="175"/>
	<line class="st0" x1="223.1" y1="323.1" x2="327.4" y2="142.6"/>
	<line class="st0" x1="223.1" y1="323.1" x2="317.3" y2="111.6"/>
	<line class="st0" x1="223.1" y1="323.1" x2="301" y2="83.4"/>
	<line class="st0" x1="252.9" y1="40.1" x2="191.3" y2="20.1"/>
	<line class="st0" x1="252.9" y1="309.9" x2="22.7" y2="207.4"/>
	<line class="st0" x1="252.9" y1="309.9" x2="317.3" y2="238.4"/>
	<line class="st0" x1="252.9" y1="309.9" x2="330.7" y2="175"/>
	<line class="st0" x1="252.9" y1="309.9" x2="317.3" y2="111.6"/>
	<line class="st0" x1="279.2" y1="290.7" x2="22.7" y2="207.4"/>
	<line class="st0" x1="279.2" y1="290.7" x2="49" y2="266.6"/>
	<line class="st0" x1="279.2" y1="290.7" x2="97.1" y2="40.1"/>
	<line class="st0" x1="279.2" y1="290.7" x2="191.3" y2="329.9"/>
	<line class="st0" x1="279.2" y1="290.7" x2="252.9" y2="309.9"/>
	<line class="st0" x1="279.2" y1="290.7" x2="317.3" y2="238.4"/>
	<line class="st0" x1="279.2" y1="290.7" x2="32.7" y2="111.6"/>
	<line class="st0" x1="279.2" y1="290.7" x2="330.7" y2="175"/>
	<line class="st0" x1="279.2" y1="290.7" x2="327.4" y2="142.6"/>
	<line class="st0" x1="279.2" y1="290.7" x2="317.3" y2="111.6"/>
	<line class="st0" x1="279.2" y1="290.7" x2="301" y2="83.4"/>
	<line class="st0" x1="301" y1="266.6" x2="22.7" y2="207.4"/>
	<line class="st0" x1="301" y1="266.6" x2="32.7" y2="238.4"/>
	<line class="st0" x1="301" y1="266.6" x2="49" y2="266.6"/>
	<line class="st0" x1="301" y1="266.6" x2="97.1" y2="40.1"/>
	<line class="st0" x1="301" y1="266.6" x2="158.7" y2="329.9"/>
	<line class="st0" x1="301" y1="266.6" x2="70.8" y2="59.3"/>
	<line class="st0" x1="301" y1="266.6" x2="191.3" y2="329.9"/>
	<line class="st0" x1="301" y1="266.6" x2="252.9" y2="309.9"/>
	<line class="st0" x1="301" y1="266.6" x2="279.2" y2="290.7"/>
	<line class="st0" x1="301" y1="266.6" x2="317.3" y2="238.4"/>
	<line class="st0" x1="301" y1="266.6" x2="32.7" y2="111.6"/>
	<line class="st0" x1="301" y1="266.6" x2="330.7" y2="175"/>
	<line class="st0" x1="301" y1="266.6" x2="327.4" y2="142.6"/>
	<line class="st0" x1="301" y1="266.6" x2="317.3" y2="111.6"/>
	<line class="st0" x1="301" y1="266.6" x2="301" y2="83.4"/>
	<line class="st0" x1="49" y1="83.4" x2="22.7" y2="207.4"/>
	<line class="st0" x1="49" y1="83.4" x2="32.7" y2="238.4"/>
	<line class="st0" x1="49" y1="83.4" x2="49" y2="266.6"/>
	<line class="st0" x1="49" y1="83.4" x2="70.8" y2="290.7"/>
	<line class="st0" x1="49" y1="83.4" x2="126.9" y2="26.9"/>
	<line class="st0" x1="49" y1="83.4" x2="126.9" y2="323.1"/>
	<line class="st0" x1="49" y1="83.4" x2="97.1" y2="40.1"/>
	<line class="st0" x1="49" y1="83.4" x2="158.7" y2="329.9"/>
	<line class="st0" x1="49" y1="83.4" x2="70.8" y2="59.3"/>
	<line class="st0" x1="49" y1="83.4" x2="191.3" y2="329.9"/>
	<line class="st0" x1="49" y1="83.4" x2="223.1" y2="323.1"/>
	<line class="st0" x1="49" y1="83.4" x2="279.2" y2="59.3"/>
	<line class="st0" x1="49" y1="83.4" x2="252.9" y2="309.9"/>
	<line class="st0" x1="49" y1="83.4" x2="279.2" y2="290.7"/>
	<line class="st0" x1="49" y1="83.4" x2="301" y2="266.6"/>
	<line class="st0" x1="49" y1="83.4" x2="317.3" y2="238.4"/>
	<line class="st0" x1="49" y1="83.4" x2="32.7" y2="111.6"/>
	<line class="st0" x1="49" y1="83.4" x2="327.4" y2="207.4"/>
	<line class="st0" x1="49" y1="83.4" x2="19.3" y2="175"/>
	<line class="st0" x1="49" y1="83.4" x2="330.7" y2="175"/>
	<line class="st0" x1="49" y1="83.4" x2="327.4" y2="142.6"/>
	<line class="st0" x1="49" y1="83.4" x2="317.3" y2="111.6"/>
	<line class="st0" x1="49" y1="83.4" x2="301" y2="83.4"/>
	<line class="st0" x1="32.7" y1="111.6" x2="22.7" y2="207.4"/>
	<line class="st0" x1="32.7" y1="111.6" x2="49" y2="266.6"/>
	<line class="st0" x1="32.7" y1="111.6" x2="252.9" y2="309.9"/>
	<line class="st0" x1="32.7" y1="111.6" x2="317.3" y2="238.4"/>
	<line class="st0" x1="32.7" y1="111.6" x2="330.7" y2="175"/>
	<line class="st0" x1="32.7" y1="111.6" x2="223.1" y2="26.9"/>
	<line class="st0" x1="32.7" y1="111.6" x2="327.4" y2="142.6"/>
	<line class="st0" x1="32.7" y1="111.6" x2="317.3" y2="111.6"/>
	<line class="st0" x1="32.7" y1="111.6" x2="301" y2="83.4"/>
	<line class="st0" x1="327.4" y1="207.4" x2="22.7" y2="207.4"/>
	<line class="st0" x1="327.4" y1="207.4" x2="32.7" y2="238.4"/>
	<line class="st0" x1="327.4" y1="207.4" x2="49" y2="266.6"/>
	<line class="st0" x1="327.4" y1="207.4" x2="126.9" y2="323.1"/>
	<line class="st0" x1="327.4" y1="207.4" x2="97.1" y2="40.1"/>
	<line class="st0" x1="327.4" y1="207.4" x2="158.7" y2="329.9"/>
	<line class="st0" x1="327.4" y1="207.4" x2="70.8" y2="59.3"/>
	<line class="st0" x1="327.4" y1="207.4" x2="191.3" y2="329.9"/>
	<line class="st0" x1="327.4" y1="207.4" x2="223.1" y2="323.1"/>
	<line class="st0" x1="327.4" y1="207.4" x2="252.9" y2="309.9"/>
	<line class="st0" x1="327.4" y1="207.4" x2="279.2" y2="290.7"/>
	<line class="st0" x1="327.4" y1="207.4" x2="301" y2="266.6"/>
	<line class="st0" x1="327.4" y1="207.4" x2="317.3" y2="238.4"/>
	<line class="st0" x1="327.4" y1="207.4" x2="32.7" y2="111.6"/>
	<line class="st0" x1="327.4" y1="207.4" x2="19.3" y2="175"/>
	<line class="st0" x1="327.4" y1="207.4" x2="330.7" y2="175"/>
	<line class="st0" x1="327.4" y1="207.4" x2="327.4" y2="142.6"/>
	<line class="st0" x1="327.4" y1="207.4" x2="317.3" y2="111.6"/>
	<line class="st0" x1="327.4" y1="207.4" x2="301" y2="83.4"/>
	<line class="st0" x1="22.7" y1="142.6" x2="22.7" y2="207.4"/>
	<line class="st0" x1="22.7" y1="142.6" x2="32.7" y2="238.4"/>
	<line class="st0" x1="22.7" y1="142.6" x2="49" y2="266.6"/>
	<line class="st0" x1="22.7" y1="142.6" x2="70.8" y2="290.7"/>
	<line class="st0" x1="22.7" y1="142.6" x2="126.9" y2="26.9"/>
	<line class="st0" x1="22.7" y1="142.6" x2="126.9" y2="323.1"/>
	<line class="st0" x1="22.7" y1="142.6" x2="97.1" y2="40.1"/>
	<line class="st0" x1="22.7" y1="142.6" x2="158.7" y2="329.9"/>
	<line class="st0" x1="22.7" y1="142.6" x2="70.8" y2="59.3"/>
	<line class="st0" x1="22.7" y1="142.6" x2="191.3" y2="329.9"/>
	<line class="st0" x1="22.7" y1="142.6" x2="223.1" y2="323.1"/>
	<line class="st0" x1="22.7" y1="142.6" x2="279.2" y2="59.3"/>
	<line class="st0" x1="22.7" y1="142.6" x2="252.9" y2="309.9"/>
	<line class="st0" x1="22.7" y1="142.6" x2="279.2" y2="290.7"/>
	<line class="st0" x1="22.7" y1="142.6" x2="301" y2="266.6"/>
	<line class="st0" x1="22.7" y1="142.6" x2="317.3" y2="238.4"/>
	<line class="st0" x1="22.7" y1="142.6" x2="49" y2="83.4"/>
	<line class="st0" x1="22.7" y1="142.6" x2="32.7" y2="111.6"/>
	<line class="st0" x1="22.7" y1="142.6" x2="327.4" y2="207.4"/>
	<line class="st0" x1="22.7" y1="142.6" x2="19.3" y2="175"/>
	<line class="st0" x1="22.7" y1="142.6" x2="330.7" y2="175"/>
	<line class="st0" x1="22.7" y1="142.6" x2="327.4" y2="142.6"/>
	<line class="st0" x1="22.7" y1="142.6" x2="317.3" y2="111.6"/>
	<line class="st0" x1="22.7" y1="142.6" x2="301" y2="83.4"/>
	<line class="st0" x1="158.7" y1="20.1" x2="22.7" y2="207.4"/>
	<line class="st0" x1="158.7" y1="20.1" x2="32.7" y2="238.4"/>
	<line class="st0" x1="158.7" y1="20.1" x2="49" y2="266.6"/>
	<line class="st0" x1="158.7" y1="20.1" x2="70.8" y2="290.7"/>
	<line class="st0" x1="158.7" y1="20.1" x2="126.9" y2="26.9"/>
	<line class="st0" x1="158.7" y1="20.1" x2="97.1" y2="309.9"/>
	<line class="st0" x1="158.7" y1="20.1" x2="126.9" y2="323.1"/>
	<line class="st0" x1="158.7" y1="20.1" x2="97.1" y2="40.1"/>
	<line class="st0" x1="158.7" y1="20.1" x2="158.7" y2="329.9"/>
	<line class="st0" x1="158.7" y1="20.1" x2="70.8" y2="59.3"/>
	<line class="st0" x1="158.7" y1="20.1" x2="191.3" y2="329.9"/>
	<line class="st0" x1="158.7" y1="20.1" x2="223.1" y2="323.1"/>
	<line class="st0" x1="158.7" y1="20.1" x2="279.2" y2="59.3"/>
	<line class="st0" x1="158.7" y1="20.1" x2="252.9" y2="40.1"/>
	<line class="st0" x1="158.7" y1="20.1" x2="252.9" y2="309.9"/>
	<line class="st0" x1="158.7" y1="20.1" x2="279.2" y2="290.7"/>
	<line class="st0" x1="158.7" y1="20.1" x2="301" y2="266.6"/>
	<line class="st0" x1="158.7" y1="20.1" x2="317.3" y2="238.4"/>
	<line class="st0" x1="158.7" y1="20.1" x2="49" y2="83.4"/>
	<line class="st0" x1="158.7" y1="20.1" x2="32.7" y2="111.6"/>
	<line class="st0" x1="158.7" y1="20.1" x2="327.4" y2="207.4"/>
	<line class="st0" x1="158.7" y1="20.1" x2="22.7" y2="142.6"/>
	<line class="st0" x1="158.7" y1="20.1" x2="19.3" y2="175"/>
	<line class="st0" x1="158.7" y1="20.1" x2="330.7" y2="175"/>
	<line class="st0" x1="158.7" y1="20.1" x2="223.1" y2="26.9"/>
	<line class="st0" x1="158.7" y1="20.1" x2="327.4" y2="142.6"/>
	<line class="st0" x1="158.7" y1="20.1" x2="317.3" y2="111.6"/>
	<line class="st0" x1="158.7" y1="20.1" x2="301" y2="83.4"/>
	<line class="st0" x1="158.7" y1="20.1" x2="191.3" y2="20.1"/>
	<line class="st0" x1="19.3" y1="175" x2="22.7" y2="207.4"/>
	<line class="st0" x1="19.3" y1="175" x2="32.7" y2="238.4"/>
	<line class="st0" x1="19.3" y1="175" x2="49" y2="266.6"/>
	<line class="st0" x1="19.3" y1="175" x2="126.9" y2="323.1"/>
	<line class="st0" x1="19.3" y1="175" x2="97.1" y2="40.1"/>
	<line class="st0" x1="19.3" y1="175" x2="158.7" y2="329.9"/>
	<line class="st0" x1="19.3" y1="175" x2="70.8" y2="59.3"/>
	<line class="st0" x1="19.3" y1="175" x2="191.3" y2="329.9"/>
	<line class="st0" x1="19.3" y1="175" x2="223.1" y2="323.1"/>
	<line class="st0" x1="19.3" y1="175" x2="279.2" y2="59.3"/>
	<line class="st0" x1="19.3" y1="175" x2="252.9" y2="309.9"/>
	<line class="st0" x1="19.3" y1="175" x2="279.2" y2="290.7"/>
	<line class="st0" x1="19.3" y1="175" x2="301" y2="266.6"/>
	<line class="st0" x1="19.3" y1="175" x2="317.3" y2="238.4"/>
	<line class="st0" x1="19.3" y1="175" x2="32.7" y2="111.6"/>
	<line class="st0" x1="19.3" y1="175" x2="330.7" y2="175"/>
	<line class="st0" x1="19.3" y1="175" x2="327.4" y2="142.6"/>
	<line class="st0" x1="19.3" y1="175" x2="317.3" y2="111.6"/>
	<line class="st0" x1="19.3" y1="175" x2="301" y2="83.4"/>
	<line class="st0" x1="330.7" y1="175" x2="22.7" y2="207.4"/>
	<line class="st0" x1="330.7" y1="175" x2="317.3" y2="238.4"/>
	<line class="st0" x1="330.7" y1="175" x2="317.3" y2="111.6"/>
	<line class="st0" x1="327.4" y1="142.6" x2="22.7" y2="207.4"/>
	<line class="st0" x1="327.4" y1="142.6" x2="252.9" y2="309.9"/>
	<line class="st0" x1="327.4" y1="142.6" x2="317.3" y2="238.4"/>
	<line class="st0" x1="327.4" y1="142.6" x2="330.7" y2="175"/>
	<line class="st0" x1="327.4" y1="142.6" x2="317.3" y2="111.6"/>
	<line class="st0" x1="317.3" y1="111.6" x2="317.3" y2="238.4"/>
	<line class="st0" x1="301" y1="83.4" x2="22.7" y2="207.4"/>
	<line class="st0" x1="301" y1="83.4" x2="49" y2="266.6"/>
	<line class="st0" x1="301" y1="83.4" x2="252.9" y2="309.9"/>
	<line class="st0" x1="301" y1="83.4" x2="317.3" y2="238.4"/>
	<line class="st0" x1="301" y1="83.4" x2="330.7" y2="175"/>
	<line class="st0" x1="301" y1="83.4" x2="327.4" y2="142.6"/>
	<line class="st0" x1="301" y1="83.4" x2="317.3" y2="111.6"/>
	<path d="M24.6,207.4c0-1.1-0.9-1.9-1.9-1.9c-1.1,0-1.9,0.9-1.9,1.9c0,1.1,0.9,1.9,1.9,1.9C23.7,209.3,24.6,208.4,24.6,207.4"/>
	<path d="M34.7,238.4c0-1.1-0.9-1.9-1.9-1.9c-1.1,0-1.9,0.9-1.9,1.9c0,1.1,0.9,1.9,1.9,1.9C33.8,240.3,34.7,239.4,34.7,238.4"/>
	<path d="M50.9,266.6c0-1.1-0.9-1.9-1.9-1.9c-1.1,0-1.9,0.9-1.9,1.9c0,1.1,0.9,1.9,1.9,1.9C50.1,268.5,50.9,267.6,50.9,266.6"/>
	<path d="M72.7,290.7c0-1.1-0.9-1.9-1.9-1.9c-1.1,0-1.9,0.9-1.9,1.9c0,1.1,0.9,1.9,1.9,1.9C71.9,292.7,72.7,291.8,72.7,290.7"/>
	<path d="M128.8,26.9c0-1.1-0.9-1.9-1.9-1.9c-1.1,0-1.9,0.9-1.9,1.9c0,1.1,0.9,1.9,1.9,1.9C127.9,28.8,128.8,28,128.8,26.9"/>
	<path d="M99.1,309.9c0-1.1-0.9-1.9-1.9-1.9c-1.1,0-1.9,0.9-1.9,1.9c0,1.1,0.9,1.9,1.9,1.9C98.2,311.8,99.1,311,99.1,309.9"/>
	<path d="M128.8,323.1c0-1.1-0.9-1.9-1.9-1.9c-1.1,0-1.9,0.9-1.9,1.9c0,1.1,0.9,1.9,1.9,1.9C127.9,325.1,128.8,324.2,128.8,323.1"/>
	<path d="M99.1,40.1c0-1.1-0.9-1.9-1.9-1.9c-1.1,0-1.9,0.9-1.9,1.9c0,1.1,0.9,1.9,1.9,1.9C98.2,42.1,99.1,41.2,99.1,40.1"/>
	<path d="M160.7,329.9c0-1.1-0.9-1.9-1.9-1.9c-1.1,0-1.9,0.9-1.9,1.9c0,1.1,0.9,1.9,1.9,1.9C159.8,331.8,160.7,331,160.7,329.9"/>
	<path d="M72.7,59.3c0-1.1-0.9-1.9-1.9-1.9c-1.1,0-1.9,0.9-1.9,1.9c0,1.1,0.9,1.9,1.9,1.9C71.9,61.2,72.7,60.3,72.7,59.3"/>
	<path d="M193.2,329.9c0-1.1-0.9-1.9-1.9-1.9c-1.1,0-1.9,0.9-1.9,1.9c0,1.1,0.9,1.9,1.9,1.9C192.4,331.8,193.2,331,193.2,329.9"/>
	<path d="M225.1,323.1c0-1.1-0.9-1.9-1.9-1.9c-1.1,0-1.9,0.9-1.9,1.9c0,1.1,0.9,1.9,1.9,1.9C224.2,325.1,225.1,324.2,225.1,323.1"/>
	<path d="M281.2,59.3c0-1.1-0.9-1.9-1.9-1.9c-1.1,0-1.9,0.9-1.9,1.9c0,1.1,0.9,1.9,1.9,1.9C280.3,61.2,281.2,60.3,281.2,59.3"/>
	<path d="M254.8,40.1c0-1.1-0.9-1.9-1.9-1.9c-1.1,0-1.9,0.9-1.9,1.9c0,1.1,0.9,1.9,1.9,1.9C254,42.1,254.8,41.2,254.8,40.1"/>
	<path d="M254.8,309.9c0-1.1-0.9-1.9-1.9-1.9c-1.1,0-1.9,0.9-1.9,1.9c0,1.1,0.9,1.9,1.9,1.9C254,311.8,254.8,311,254.8,309.9"/>
	<path d="M281.2,290.7c0-1.1-0.9-1.9-1.9-1.9c-1.1,0-1.9,0.9-1.9,1.9c0,1.1,0.9,1.9,1.9,1.9C280.3,292.7,281.2,291.8,281.2,290.7"/>
	<path d="M303,266.6c0-1.1-0.9-1.9-1.9-1.9c-1.1,0-1.9,0.9-1.9,1.9c0,1.1,0.9,1.9,1.9,1.9C302.1,268.5,303,267.6,303,266.6"/>
	<path d="M319.2,238.4c0-1.1-0.9-1.9-1.9-1.9c-1.1,0-1.9,0.9-1.9,1.9c0,1.1,0.9,1.9,1.9,1.9C318.4,240.3,319.2,239.4,319.2,238.4"/>
	<path d="M50.9,83.4c0-1.1-0.9-1.9-1.9-1.9c-1.1,0-1.9,0.9-1.9,1.9c0,1.1,0.9,1.9,1.9,1.9C50.1,85.4,50.9,84.5,50.9,83.4"/>
	<path d="M34.7,111.6c0-1.1-0.9-1.9-1.9-1.9c-1.1,0-1.9,0.9-1.9,1.9c0,1.1,0.9,1.9,1.9,1.9C33.8,113.6,34.7,112.7,34.7,111.6"/>
	<path d="M329.3,207.4c0-1.1-0.9-1.9-1.9-1.9c-1.1,0-1.9,0.9-1.9,1.9c0,1.1,0.9,1.9,1.9,1.9C328.4,209.3,329.3,208.4,329.3,207.4"/>
	<path d="M24.6,142.6c0-1.1-0.9-1.9-1.9-1.9c-1.1,0-1.9,0.9-1.9,1.9c0,1.1,0.9,1.9,1.9,1.9C23.7,144.6,24.6,143.7,24.6,142.6"/>
	<path d="M160.7,20.1c0-1.1-0.9-1.9-1.9-1.9c-1.1,0-1.9,0.9-1.9,1.9c0,1.1,0.9,1.9,1.9,1.9C159.8,22.1,160.7,21.2,160.7,20.1"/>
	<path d="M21.2,175c0-1.1-0.9-1.9-1.9-1.9c-1.1,0-1.9,0.9-1.9,1.9c0,1.1,0.9,1.9,1.9,1.9C20.3,176.9,21.2,176.1,21.2,175"/>
	<path d="M332.7,175c0-1.1-0.9-1.9-1.9-1.9c-1.1,0-1.9,0.9-1.9,1.9c0,1.1,0.9,1.9,1.9,1.9C331.8,176.9,332.7,176.1,332.7,175"/>
	<path d="M225.1,26.9c0-1.1-0.9-1.9-1.9-1.9c-1.1,0-1.9,0.9-1.9,1.9c0,1.1,0.9,1.9,1.9,1.9C224.2,28.8,225.1,28,225.1,26.9"/>
	<path d="M329.3,142.6c0-1.1-0.9-1.9-1.9-1.9c-1.1,0-1.9,0.9-1.9,1.9c0,1.1,0.9,1.9,1.9,1.9C328.4,144.6,329.3,143.7,329.3,142.6"/>
	<path d="M319.2,111.6c0-1.1-0.9-1.9-1.9-1.9c-1.1,0-1.9,0.9-1.9,1.9c0,1.1,0.9,1.9,1.9,1.9C318.4,113.6,319.2,112.7,319.2,111.6"/>
	<path d="M303,83.4c0-1.1-0.9-1.9-1.9-1.9c-1.1,0-1.9,0.9-1.9,1.9c0,1.1,0.9,1.9,1.9,1.9C302.1,85.4,303,84.5,303,83.4"/>
	<path d="M193.2,20.1c0-1.1-0.9-1.9-1.9-1.9c-1.1,0-1.9,0.9-1.9,1.9c0,1.1,0.9,1.9,1.9,1.9C192.4,22.1,193.2,21.2,193.2,20.1"/>
</g>
</svg>
