<?xml version="1.0" encoding="utf-8"?>
<!-- Generator: Adobe Illustrator 21.1.0, SVG Export Plug-In . SVG Version: 6.00 Build 0)  -->
<svg version="1.1" id="Layer_1" xmlns="http://www.w3.org/2000/svg" xmlns:xlink="http://www.w3.org/1999/xlink" x="0px" y="0px"
	 viewBox="0 0 350 350" style="enable-background:new 0 0 350 350;" xml:space="preserve">
<style type="text/css">
	.st0{fill:none;stroke:#231F20;stroke-width:1.5;stroke-miterlimit:10;}
</style>
<g>
	<line class="st0" x1="110.7" y1="19.7" x2="19.7" y2="239.3"/>
	<line class="st0" x1="110.7" y1="19.7" x2="110.7" y2="330.3"/>
	<line class="st0" x1="110.7" y1="19.7" x2="330.3" y2="239.3"/>
	<line class="st0" x1="110.7" y1="19.7" x2="330.3" y2="110.7"/>
	<line class="st0" x1="110.7" y1="19.7" x2="239.3" y2="330.3"/>
	<line class="st0" x1="110.7" y1="19.7" x2="19.7" y2="110.7"/>
	<line class="st0" x1="19.7" y1="239.3" x2="239.3" y2="330.3"/>
	<line class="st0" x1="110.7" y1="330.3" x2="19.7" y2="239.3"/>
	<line class="st0" x1="110.7" y1="330.3" x2="239.3" y2="330.3"/>
	<line class="st0" x1="110.7" y1="330.3" x2="19.7" y2="110.7"/>
	<line class="st0" x1="330.3" y1="239.3" x2="330.3" y2="110.7"/>
	<line class="st0" x1="19.7" y1="110.7" x2="19.7" y2="239.3"/>
	<line class="st0" x1="19.7" y1="110.7" x2="239.3" y2="330.3"/>
	<line class="st0" x1="19.7" y1="110.7" x2="239.3" y2="19.7"/>
	<path d="M114.6,19.7c0-2.1-1.7-3.9-3.9-3.9c-2.1,0-3.9,1.7-3.9,3.9c0,2.1,1.7,3.9,3.9,3.9C112.8,23.5,114.6,21.8,114.6,19.7"/>
	<path d="M23.5,239.3c0-2.1-1.7-3.9-3.9-3.9c-2.1,0-3.9,1.7-3.9,3.9c0,2.1,1.7,3.9,3.9,3.9C21.8,243.2,23.5,241.5,23.5,239.3"/>
	<path d="M114.6,330.3c0-2.1-1.7-3.9-3.9-3.9c-2.1,0-3.9,1.7-3.9,3.9c0,2.1,1.7,3.9,3.9,3.9C112.8,334.2,114.6,332.5,114.6,330.3"/>
	<path d="M334.2,239.3c0-2.1-1.7-3.9-3.9-3.9c-2.1,0-3.9,1.7-3.9,3.9c0,2.1,1.7,3.9,3.9,3.9C332.5,243.2,334.2,241.5,334.2,239.3"/>
	<path d="M334.2,110.7c0-2.1-1.7-3.9-3.9-3.9c-2.1,0-3.9,1.7-3.9,3.9c0,2.1,1.7,3.9,3.9,3.9C332.5,114.6,334.2,112.8,334.2,110.7"/>
	<path d="M243.2,330.3c0-2.1-1.7-3.9-3.9-3.9c-2.1,0-3.9,1.7-3.9,3.9c0,2.1,1.7,3.9,3.9,3.9C241.5,334.2,243.2,332.5,243.2,330.3"/>
	<path d="M23.5,110.7c0-2.1-1.7-3.9-3.9-3.9c-2.1,0-3.9,1.7-3.9,3.9c0,2.1,1.7,3.9,3.9,3.9C21.8,114.6,23.5,112.8,23.5,110.7"/>
	<path d="M243.2,19.7c0-2.1-1.7-3.9-3.9-3.9c-2.1,0-3.9,1.7-3.9,3.9c0,2.1,1.7,3.9,3.9,3.9C241.5,23.5,243.2,21.8,243.2,19.7"/>
</g>
</svg>
