<?xml version="1.0" encoding="utf-8"?>
<!-- Generator: Adobe Illustrator 21.1.0, SVG Export Plug-In . SVG Version: 6.00 Build 0)  -->
<svg version="1.1" id="Layer_1" xmlns="http://www.w3.org/2000/svg" xmlns:xlink="http://www.w3.org/1999/xlink" x="0px" y="0px"
	 viewBox="0 0 350 350" style="enable-background:new 0 0 350 350;" xml:space="preserve">
<style type="text/css">
	.st0{fill:none;stroke:#231F20;stroke-width:0.75;stroke-miterlimit:10;}
</style>
<g>
	<line class="st0" x1="17.6" y1="141.5" x2="16.8" y2="145.2"/>
	<line class="st0" x1="17.6" y1="141.5" x2="15.1" y2="156.3"/>
	<line class="st0" x1="16.8" y1="145.2" x2="15.1" y2="156.3"/>
	<line class="st0" x1="16.2" y1="148.9" x2="17.6" y2="141.5"/>
	<line class="st0" x1="16.2" y1="148.9" x2="16.8" y2="145.2"/>
	<line class="st0" x1="16.2" y1="148.9" x2="15.6" y2="152.6"/>
	<line class="st0" x1="16.2" y1="148.9" x2="15.1" y2="156.3"/>
	<line class="st0" x1="81.9" y1="306.3" x2="91.3" y2="312.5"/>
	<line class="st0" x1="81.9" y1="306.3" x2="94.5" y2="314.4"/>
	<line class="st0" x1="81.9" y1="306.3" x2="97.8" y2="316.2"/>
	<line class="st0" x1="81.9" y1="306.3" x2="111.3" y2="322.8"/>
	<line class="st0" x1="15.6" y1="152.6" x2="17.6" y2="141.5"/>
	<line class="st0" x1="15.6" y1="152.6" x2="16.8" y2="145.2"/>
	<line class="st0" x1="15.6" y1="152.6" x2="15.1" y2="156.3"/>
	<line class="st0" x1="161.9" y1="335.4" x2="44.8" y2="269.6"/>
	<line class="st0" x1="161.9" y1="335.4" x2="121.7" y2="326.9"/>
	<line class="st0" x1="161.9" y1="335.4" x2="238.7" y2="322.8"/>
	<line class="st0" x1="165.6" y1="335.7" x2="176.9" y2="335.9"/>
	<line class="st0" x1="165.6" y1="335.7" x2="180.6" y2="335.8"/>
	<line class="st0" x1="16.2" y1="201.1" x2="19.3" y2="134.2"/>
	<line class="st0" x1="16.2" y1="201.1" x2="40.5" y2="263.4"/>
	<line class="st0" x1="16.2" y1="201.1" x2="42.6" y2="266.5"/>
	<line class="st0" x1="16.2" y1="201.1" x2="67.3" y2="294.6"/>
	<line class="st0" x1="169.4" y1="335.8" x2="165.6" y2="335.7"/>
	<line class="st0" x1="169.4" y1="335.8" x2="176.9" y2="335.9"/>
	<line class="st0" x1="169.4" y1="335.8" x2="180.6" y2="335.8"/>
	<line class="st0" x1="258.7" y1="312.5" x2="255.5" y2="314.4"/>
	<line class="st0" x1="261.9" y1="310.5" x2="323.5" y2="237"/>
	<line class="st0" x1="261.9" y1="310.5" x2="173.1" y2="335.9"/>
	<line class="st0" x1="173.1" y1="335.9" x2="255.5" y2="314.4"/>
	<line class="st0" x1="173.1" y1="335.9" x2="258.7" y2="312.5"/>
	<line class="st0" x1="85" y1="308.4" x2="132.4" y2="330.2"/>
	<line class="st0" x1="88.1" y1="310.5" x2="85" y2="308.4"/>
	<line class="st0" x1="88.1" y1="310.5" x2="132.4" y2="330.2"/>
	<line class="st0" x1="180.6" y1="335.8" x2="176.9" y2="335.9"/>
	<line class="st0" x1="16.8" y1="204.8" x2="29.5" y2="243.9"/>
	<line class="st0" x1="265" y1="308.4" x2="268.1" y2="306.3"/>
	<line class="st0" x1="265" y1="308.4" x2="271.1" y2="304.1"/>
	<line class="st0" x1="268.1" y1="306.3" x2="271.1" y2="304.1"/>
	<line class="st0" x1="31.2" y1="247.2" x2="16.8" y2="204.8"/>
	<line class="st0" x1="31.2" y1="247.2" x2="32.9" y2="250.6"/>
	<line class="st0" x1="32.9" y1="250.6" x2="16.8" y2="204.8"/>
	<line class="st0" x1="14.8" y1="160" x2="14.5" y2="163.8"/>
	<line class="st0" x1="14.8" y1="160" x2="14.2" y2="167.5"/>
	<line class="st0" x1="14.8" y1="160" x2="14.1" y2="171.3"/>
	<line class="st0" x1="14.8" y1="160" x2="14.1" y2="175"/>
	<line class="st0" x1="14.8" y1="160" x2="14.1" y2="178.7"/>
	<line class="st0" x1="14.8" y1="160" x2="14.2" y2="182.5"/>
	<line class="st0" x1="14.8" y1="160" x2="14.5" y2="186.2"/>
	<line class="st0" x1="14.5" y1="163.8" x2="14.2" y2="167.5"/>
	<line class="st0" x1="14.5" y1="163.8" x2="14.1" y2="171.3"/>
	<line class="st0" x1="14.5" y1="163.8" x2="14.1" y2="175"/>
	<line class="st0" x1="14.5" y1="163.8" x2="14.1" y2="178.7"/>
	<line class="st0" x1="14.5" y1="163.8" x2="14.2" y2="182.5"/>
	<line class="st0" x1="14.5" y1="163.8" x2="14.5" y2="186.2"/>
	<line class="st0" x1="85" y1="41.6" x2="67.3" y2="55.4"/>
	<line class="st0" x1="85" y1="41.6" x2="64.6" y2="57.9"/>
	<line class="st0" x1="85" y1="41.6" x2="61.9" y2="60.5"/>
	<line class="st0" x1="85" y1="41.6" x2="59.2" y2="63.2"/>
	<line class="st0" x1="85" y1="41.6" x2="56.7" y2="65.9"/>
	<line class="st0" x1="85" y1="41.6" x2="54.2" y2="68.7"/>
	<line class="st0" x1="85" y1="41.6" x2="51.7" y2="71.6"/>
	<line class="st0" x1="14.2" y1="167.5" x2="14.1" y2="171.3"/>
	<line class="st0" x1="14.2" y1="167.5" x2="14.1" y2="175"/>
	<line class="st0" x1="14.2" y1="167.5" x2="14.1" y2="178.7"/>
	<line class="st0" x1="14.2" y1="167.5" x2="14.2" y2="182.5"/>
	<line class="st0" x1="14.2" y1="167.5" x2="14.5" y2="186.2"/>
	<line class="st0" x1="14.1" y1="171.3" x2="14.1" y2="175"/>
	<line class="st0" x1="14.1" y1="171.3" x2="14.1" y2="178.7"/>
	<line class="st0" x1="14.1" y1="171.3" x2="14.2" y2="182.5"/>
	<line class="st0" x1="14.1" y1="171.3" x2="14.5" y2="186.2"/>
	<line class="st0" x1="14.1" y1="175" x2="14.1" y2="178.7"/>
	<line class="st0" x1="14.1" y1="175" x2="14.2" y2="182.5"/>
	<line class="st0" x1="14.1" y1="175" x2="14.5" y2="186.2"/>
	<line class="st0" x1="81.9" y1="43.7" x2="85" y2="41.6"/>
	<line class="st0" x1="81.9" y1="43.7" x2="75.9" y2="48.2"/>
	<line class="st0" x1="81.9" y1="43.7" x2="73" y2="50.5"/>
	<line class="st0" x1="81.9" y1="43.7" x2="67.3" y2="55.4"/>
	<line class="st0" x1="81.9" y1="43.7" x2="64.6" y2="57.9"/>
	<line class="st0" x1="81.9" y1="43.7" x2="61.9" y2="60.5"/>
	<line class="st0" x1="81.9" y1="43.7" x2="59.2" y2="63.2"/>
	<line class="st0" x1="81.9" y1="43.7" x2="56.7" y2="65.9"/>
	<line class="st0" x1="81.9" y1="43.7" x2="54.2" y2="68.7"/>
	<line class="st0" x1="81.9" y1="43.7" x2="51.7" y2="71.6"/>
	<line class="st0" x1="274.1" y1="301.8" x2="277" y2="299.5"/>
	<line class="st0" x1="274.1" y1="301.8" x2="279.9" y2="297.1"/>
	<line class="st0" x1="14.1" y1="178.7" x2="14.2" y2="182.5"/>
	<line class="st0" x1="14.1" y1="178.7" x2="14.5" y2="186.2"/>
	<line class="st0" x1="78.9" y1="45.9" x2="85" y2="41.6"/>
	<line class="st0" x1="78.9" y1="45.9" x2="81.9" y2="43.7"/>
	<line class="st0" x1="78.9" y1="45.9" x2="75.9" y2="48.2"/>
	<line class="st0" x1="78.9" y1="45.9" x2="73" y2="50.5"/>
	<line class="st0" x1="78.9" y1="45.9" x2="67.3" y2="55.4"/>
	<line class="st0" x1="78.9" y1="45.9" x2="64.6" y2="57.9"/>
	<line class="st0" x1="78.9" y1="45.9" x2="61.9" y2="60.5"/>
	<line class="st0" x1="78.9" y1="45.9" x2="59.2" y2="63.2"/>
	<line class="st0" x1="78.9" y1="45.9" x2="56.7" y2="65.9"/>
	<line class="st0" x1="78.9" y1="45.9" x2="54.2" y2="68.7"/>
	<line class="st0" x1="78.9" y1="45.9" x2="51.7" y2="71.6"/>
	<line class="st0" x1="277" y1="299.5" x2="279.9" y2="297.1"/>
	<line class="st0" x1="14.2" y1="182.5" x2="14.5" y2="186.2"/>
	<line class="st0" x1="75.9" y1="48.2" x2="85" y2="41.6"/>
	<line class="st0" x1="75.9" y1="48.2" x2="67.3" y2="55.4"/>
	<line class="st0" x1="75.9" y1="48.2" x2="64.6" y2="57.9"/>
	<line class="st0" x1="75.9" y1="48.2" x2="61.9" y2="60.5"/>
	<line class="st0" x1="75.9" y1="48.2" x2="59.2" y2="63.2"/>
	<line class="st0" x1="75.9" y1="48.2" x2="56.7" y2="65.9"/>
	<line class="st0" x1="75.9" y1="48.2" x2="54.2" y2="68.7"/>
	<line class="st0" x1="75.9" y1="48.2" x2="51.7" y2="71.6"/>
	<line class="st0" x1="73" y1="50.5" x2="85" y2="41.6"/>
	<line class="st0" x1="73" y1="50.5" x2="75.9" y2="48.2"/>
	<line class="st0" x1="73" y1="50.5" x2="67.3" y2="55.4"/>
	<line class="st0" x1="73" y1="50.5" x2="64.6" y2="57.9"/>
	<line class="st0" x1="73" y1="50.5" x2="61.9" y2="60.5"/>
	<line class="st0" x1="73" y1="50.5" x2="59.2" y2="63.2"/>
	<line class="st0" x1="73" y1="50.5" x2="56.7" y2="65.9"/>
	<line class="st0" x1="73" y1="50.5" x2="54.2" y2="68.7"/>
	<line class="st0" x1="73" y1="50.5" x2="51.7" y2="71.6"/>
	<line class="st0" x1="324.9" y1="233.5" x2="326.2" y2="230"/>
	<line class="st0" x1="91.3" y1="312.5" x2="94.5" y2="314.4"/>
	<line class="st0" x1="91.3" y1="312.5" x2="97.8" y2="316.2"/>
	<line class="st0" x1="94.5" y1="314.4" x2="97.8" y2="316.2"/>
	<line class="st0" x1="173.1" y1="14.1" x2="17.6" y2="141.5"/>
	<line class="st0" x1="173.1" y1="14.1" x2="16.8" y2="145.2"/>
	<line class="st0" x1="173.1" y1="14.1" x2="16.2" y2="148.9"/>
	<line class="st0" x1="173.1" y1="14.1" x2="15.6" y2="152.6"/>
	<line class="st0" x1="173.1" y1="14.1" x2="165.6" y2="335.7"/>
	<line class="st0" x1="173.1" y1="14.1" x2="16.2" y2="201.1"/>
	<line class="st0" x1="173.1" y1="14.1" x2="15.1" y2="156.3"/>
	<line class="st0" x1="173.1" y1="14.1" x2="169.4" y2="335.8"/>
	<line class="st0" x1="173.1" y1="14.1" x2="85" y2="308.4"/>
	<line class="st0" x1="173.1" y1="14.1" x2="88.1" y2="310.5"/>
	<line class="st0" x1="173.1" y1="14.1" x2="176.9" y2="335.9"/>
	<line class="st0" x1="173.1" y1="14.1" x2="180.6" y2="335.8"/>
	<line class="st0" x1="173.1" y1="14.1" x2="14.8" y2="160"/>
	<line class="st0" x1="173.1" y1="14.1" x2="14.5" y2="163.8"/>
	<line class="st0" x1="173.1" y1="14.1" x2="14.2" y2="167.5"/>
	<line class="st0" x1="173.1" y1="14.1" x2="14.1" y2="171.3"/>
	<line class="st0" x1="173.1" y1="14.1" x2="315.3" y2="96.2"/>
	<line class="st0" x1="173.1" y1="14.1" x2="14.1" y2="175"/>
	<line class="st0" x1="173.1" y1="14.1" x2="14.1" y2="178.7"/>
	<line class="st0" x1="173.1" y1="14.1" x2="14.2" y2="182.5"/>
	<line class="st0" x1="173.1" y1="14.1" x2="14.5" y2="186.2"/>
	<line class="st0" x1="173.1" y1="14.1" x2="324.9" y2="233.5"/>
	<line class="st0" x1="173.1" y1="14.1" x2="313.4" y2="92.9"/>
	<line class="st0" x1="173.1" y1="14.1" x2="14.8" y2="190"/>
	<line class="st0" x1="173.1" y1="14.1" x2="101.1" y2="318"/>
	<line class="st0" x1="173.1" y1="14.1" x2="104.4" y2="319.7"/>
	<line class="st0" x1="173.1" y1="14.1" x2="15.1" y2="193.7"/>
	<line class="st0" x1="173.1" y1="14.1" x2="107.8" y2="321.3"/>
	<line class="st0" x1="173.1" y1="14.1" x2="15.6" y2="197.4"/>
	<line class="st0" x1="173.1" y1="14.1" x2="326.2" y2="230"/>
	<line class="st0" x1="173.1" y1="14.1" x2="114.7" y2="324.2"/>
	<line class="st0" x1="173.1" y1="14.1" x2="118.2" y2="325.6"/>
	<line class="st0" x1="173.1" y1="14.1" x2="34.7" y2="253.8"/>
	<line class="st0" x1="173.1" y1="14.1" x2="21.4" y2="222.9"/>
	<line class="st0" x1="173.1" y1="14.1" x2="25.1" y2="233.5"/>
	<line class="st0" x1="173.1" y1="14.1" x2="28" y2="109.5"/>
	<line class="st0" x1="173.1" y1="14.1" x2="327.5" y2="226.5"/>
	<line class="st0" x1="173.1" y1="14.1" x2="26.5" y2="237"/>
	<line class="st0" x1="173.1" y1="14.1" x2="328.6" y2="222.9"/>
	<line class="st0" x1="173.1" y1="14.1" x2="329.7" y2="219.4"/>
	<line class="st0" x1="173.1" y1="14.1" x2="330.7" y2="215.8"/>
	<line class="st0" x1="173.1" y1="14.1" x2="307.4" y2="83.5"/>
	<line class="st0" x1="173.1" y1="14.1" x2="28" y2="240.5"/>
	<line class="st0" x1="173.1" y1="14.1" x2="25.1" y2="116.5"/>
	<line class="st0" x1="173.1" y1="14.1" x2="305.2" y2="80.4"/>
	<line class="st0" x1="173.1" y1="14.1" x2="331.6" y2="212.1"/>
	<line class="st0" x1="173.1" y1="14.1" x2="285.4" y2="292.1"/>
	<line class="st0" x1="173.1" y1="14.1" x2="19.3" y2="134.2"/>
	<line class="st0" x1="173.1" y1="14.1" x2="300.7" y2="74.4"/>
	<line class="st0" x1="173.1" y1="14.1" x2="40.5" y2="263.4"/>
	<line class="st0" x1="173.1" y1="14.1" x2="42.6" y2="266.5"/>
	<line class="st0" x1="173.1" y1="14.1" x2="18.4" y2="137.9"/>
	<line class="st0" x1="173.1" y1="14.1" x2="285.4" y2="57.9"/>
	<line class="st0" x1="173.1" y1="14.1" x2="279.9" y2="52.9"/>
	<line class="st0" x1="173.1" y1="14.1" x2="23.8" y2="120"/>
	<line class="st0" x1="173.1" y1="14.1" x2="255.5" y2="35.6"/>
	<line class="st0" x1="173.1" y1="14.1" x2="335.8" y2="167.5"/>
	<line class="st0" x1="173.1" y1="14.1" x2="150.7" y2="15.9"/>
	<line class="st0" x1="173.1" y1="14.1" x2="217.6" y2="330.2"/>
	<line class="st0" x1="173.1" y1="14.1" x2="221.2" y2="329.2"/>
	<line class="st0" x1="173.1" y1="14.1" x2="224.7" y2="328.1"/>
	<line class="st0" x1="173.1" y1="14.1" x2="228.3" y2="326.9"/>
	<line class="st0" x1="173.1" y1="14.1" x2="300.7" y2="275.6"/>
	<line class="st0" x1="173.1" y1="14.1" x2="248.9" y2="32"/>
	<line class="st0" x1="173.1" y1="14.1" x2="242.2" y2="28.7"/>
	<line class="st0" x1="173.1" y1="14.1" x2="335.2" y2="160"/>
	<line class="st0" x1="173.1" y1="14.1" x2="132.4" y2="330.2"/>
	<line class="st0" x1="173.1" y1="14.1" x2="154.5" y2="15.4"/>
	<line class="st0" x1="173.1" y1="14.1" x2="334.9" y2="156.3"/>
	<line class="st0" x1="173.1" y1="14.1" x2="143.4" y2="17.2"/>
	<line class="st0" x1="173.1" y1="14.1" x2="231.8" y2="24.4"/>
	<line class="st0" x1="173.1" y1="14.1" x2="334.4" y2="152.6"/>
	<line class="st0" x1="173.1" y1="14.1" x2="136.1" y2="331.2"/>
	<line class="st0" x1="173.1" y1="14.1" x2="217.6" y2="19.8"/>
	<line class="st0" x1="173.1" y1="14.1" x2="210.3" y2="18"/>
	<line class="st0" x1="173.1" y1="14.1" x2="67.3" y2="294.6"/>
	<line class="st0" x1="173.1" y1="14.1" x2="202.9" y2="16.5"/>
	<line class="st0" x1="173.1" y1="14.1" x2="242.2" y2="321.3"/>
	<line class="st0" x1="173.1" y1="14.1" x2="143.4" y2="332.8"/>
	<line class="st0" x1="173.1" y1="14.1" x2="245.6" y2="319.7"/>
	<line class="st0" x1="173.1" y1="14.1" x2="26.5" y2="113"/>
	<line class="st0" x1="173.1" y1="14.1" x2="324.9" y2="116.5"/>
	<line class="st0" x1="173.1" y1="14.1" x2="322" y2="109.5"/>
	<line class="st0" x1="173.1" y1="14.1" x2="320.5" y2="106.1"/>
	<line class="st0" x1="70.1" y1="52.9" x2="85" y2="41.6"/>
	<line class="st0" x1="70.1" y1="52.9" x2="81.9" y2="43.7"/>
	<line class="st0" x1="70.1" y1="52.9" x2="78.9" y2="45.9"/>
	<line class="st0" x1="70.1" y1="52.9" x2="75.9" y2="48.2"/>
	<line class="st0" x1="70.1" y1="52.9" x2="73" y2="50.5"/>
	<line class="st0" x1="70.1" y1="52.9" x2="67.3" y2="55.4"/>
	<line class="st0" x1="70.1" y1="52.9" x2="64.6" y2="57.9"/>
	<line class="st0" x1="70.1" y1="52.9" x2="61.9" y2="60.5"/>
	<line class="st0" x1="70.1" y1="52.9" x2="59.2" y2="63.2"/>
	<line class="st0" x1="70.1" y1="52.9" x2="56.7" y2="65.9"/>
	<line class="st0" x1="70.1" y1="52.9" x2="54.2" y2="68.7"/>
	<line class="st0" x1="70.1" y1="52.9" x2="51.7" y2="71.6"/>
	<line class="st0" x1="14.8" y1="190" x2="17.6" y2="141.5"/>
	<line class="st0" x1="14.8" y1="190" x2="16.8" y2="145.2"/>
	<line class="st0" x1="14.8" y1="190" x2="16.2" y2="148.9"/>
	<line class="st0" x1="14.8" y1="190" x2="15.6" y2="152.6"/>
	<line class="st0" x1="14.8" y1="190" x2="15.1" y2="156.3"/>
	<line class="st0" x1="14.8" y1="190" x2="15.1" y2="193.7"/>
	<line class="st0" x1="14.8" y1="190" x2="15.6" y2="197.4"/>
	<line class="st0" x1="101.1" y1="318" x2="114.7" y2="324.2"/>
	<line class="st0" x1="101.1" y1="318" x2="118.2" y2="325.6"/>
	<line class="st0" x1="104.4" y1="319.7" x2="101.1" y2="318"/>
	<line class="st0" x1="104.4" y1="319.7" x2="114.7" y2="324.2"/>
	<line class="st0" x1="104.4" y1="319.7" x2="118.2" y2="325.6"/>
	<line class="st0" x1="15.1" y1="193.7" x2="17.6" y2="141.5"/>
	<line class="st0" x1="15.1" y1="193.7" x2="16.8" y2="145.2"/>
	<line class="st0" x1="15.1" y1="193.7" x2="16.2" y2="148.9"/>
	<line class="st0" x1="15.1" y1="193.7" x2="15.6" y2="152.6"/>
	<line class="st0" x1="15.1" y1="193.7" x2="15.1" y2="156.3"/>
	<line class="st0" x1="107.8" y1="321.3" x2="101.1" y2="318"/>
	<line class="st0" x1="107.8" y1="321.3" x2="104.4" y2="319.7"/>
	<line class="st0" x1="107.8" y1="321.3" x2="114.7" y2="324.2"/>
	<line class="st0" x1="107.8" y1="321.3" x2="118.2" y2="325.6"/>
	<line class="st0" x1="111.3" y1="322.8" x2="91.3" y2="312.5"/>
	<line class="st0" x1="111.3" y1="322.8" x2="94.5" y2="314.4"/>
	<line class="st0" x1="111.3" y1="322.8" x2="97.8" y2="316.2"/>
	<line class="st0" x1="15.6" y1="197.4" x2="17.6" y2="141.5"/>
	<line class="st0" x1="15.6" y1="197.4" x2="16.8" y2="145.2"/>
	<line class="st0" x1="15.6" y1="197.4" x2="16.2" y2="148.9"/>
	<line class="st0" x1="15.6" y1="197.4" x2="15.6" y2="152.6"/>
	<line class="st0" x1="15.6" y1="197.4" x2="15.1" y2="156.3"/>
	<line class="st0" x1="15.6" y1="197.4" x2="15.1" y2="193.7"/>
	<line class="st0" x1="118.2" y1="325.6" x2="114.7" y2="324.2"/>
	<line class="st0" x1="17.6" y1="208.5" x2="18.4" y2="212.1"/>
	<line class="st0" x1="17.6" y1="208.5" x2="19.3" y2="215.8"/>
	<line class="st0" x1="17.6" y1="208.5" x2="20.3" y2="219.4"/>
	<line class="st0" x1="17.6" y1="208.5" x2="22.5" y2="226.5"/>
	<line class="st0" x1="17.6" y1="208.5" x2="23.8" y2="230"/>
	<line class="st0" x1="18.4" y1="212.1" x2="19.3" y2="215.8"/>
	<line class="st0" x1="18.4" y1="212.1" x2="20.3" y2="219.4"/>
	<line class="st0" x1="18.4" y1="212.1" x2="22.5" y2="226.5"/>
	<line class="st0" x1="18.4" y1="212.1" x2="23.8" y2="230"/>
	<line class="st0" x1="34.7" y1="253.8" x2="136.1" y2="331.2"/>
	<line class="st0" x1="34.7" y1="253.8" x2="143.4" y2="332.8"/>
	<line class="st0" x1="34.7" y1="253.8" x2="26.5" y2="113"/>
	<line class="st0" x1="19.3" y1="215.8" x2="20.3" y2="219.4"/>
	<line class="st0" x1="21.4" y1="222.9" x2="28" y2="240.5"/>
	<line class="st0" x1="21.4" y1="222.9" x2="25.1" y2="116.5"/>
	<line class="st0" x1="22.5" y1="226.5" x2="19.3" y2="215.8"/>
	<line class="st0" x1="22.5" y1="226.5" x2="20.3" y2="219.4"/>
	<line class="st0" x1="22.5" y1="226.5" x2="23.8" y2="230"/>
	<line class="st0" x1="23.8" y1="230" x2="19.3" y2="215.8"/>
	<line class="st0" x1="23.8" y1="230" x2="20.3" y2="219.4"/>
	<line class="st0" x1="25.1" y1="233.5" x2="21.4" y2="222.9"/>
	<line class="st0" x1="25.1" y1="233.5" x2="28" y2="109.5"/>
	<line class="st0" x1="25.1" y1="233.5" x2="28" y2="240.5"/>
	<line class="st0" x1="25.1" y1="233.5" x2="25.1" y2="116.5"/>
	<line class="st0" x1="28" y1="109.5" x2="85" y2="308.4"/>
	<line class="st0" x1="28" y1="109.5" x2="88.1" y2="310.5"/>
	<line class="st0" x1="28" y1="109.5" x2="21.4" y2="222.9"/>
	<line class="st0" x1="28" y1="109.5" x2="28" y2="240.5"/>
	<line class="st0" x1="28" y1="109.5" x2="25.1" y2="116.5"/>
	<line class="st0" x1="28" y1="109.5" x2="335.2" y2="160"/>
	<line class="st0" x1="28" y1="109.5" x2="132.4" y2="330.2"/>
	<line class="st0" x1="188.1" y1="335.4" x2="332.4" y2="208.5"/>
	<line class="st0" x1="191.8" y1="335.1" x2="184.4" y2="335.7"/>
	<line class="st0" x1="191.8" y1="335.1" x2="195.5" y2="334.6"/>
	<line class="st0" x1="26.5" y1="237" x2="21.4" y2="222.9"/>
	<line class="st0" x1="26.5" y1="237" x2="25.1" y2="233.5"/>
	<line class="st0" x1="26.5" y1="237" x2="28" y2="109.5"/>
	<line class="st0" x1="26.5" y1="237" x2="28" y2="240.5"/>
	<line class="st0" x1="26.5" y1="237" x2="25.1" y2="116.5"/>
	<line class="st0" x1="195.5" y1="334.6" x2="184.4" y2="335.7"/>
	<line class="st0" x1="329.7" y1="219.4" x2="327.5" y2="226.5"/>
	<line class="st0" x1="64.6" y1="57.9" x2="67.3" y2="55.4"/>
	<line class="st0" x1="64.6" y1="57.9" x2="61.9" y2="60.5"/>
	<line class="st0" x1="64.6" y1="57.9" x2="59.2" y2="63.2"/>
	<line class="st0" x1="64.6" y1="57.9" x2="56.7" y2="65.9"/>
	<line class="st0" x1="64.6" y1="57.9" x2="54.2" y2="68.7"/>
	<line class="st0" x1="64.6" y1="57.9" x2="51.7" y2="71.6"/>
	<line class="st0" x1="61.9" y1="60.5" x2="67.3" y2="55.4"/>
	<line class="st0" x1="61.9" y1="60.5" x2="59.2" y2="63.2"/>
	<line class="st0" x1="61.9" y1="60.5" x2="56.7" y2="65.9"/>
	<line class="st0" x1="61.9" y1="60.5" x2="54.2" y2="68.7"/>
	<line class="st0" x1="61.9" y1="60.5" x2="51.7" y2="71.6"/>
	<line class="st0" x1="25.1" y1="116.5" x2="85" y2="308.4"/>
	<line class="st0" x1="25.1" y1="116.5" x2="88.1" y2="310.5"/>
	<line class="st0" x1="25.1" y1="116.5" x2="28" y2="240.5"/>
	<line class="st0" x1="25.1" y1="116.5" x2="132.4" y2="330.2"/>
	<line class="st0" x1="59.2" y1="63.2" x2="67.3" y2="55.4"/>
	<line class="st0" x1="59.2" y1="63.2" x2="56.7" y2="65.9"/>
	<line class="st0" x1="56.7" y1="65.9" x2="67.3" y2="55.4"/>
	<line class="st0" x1="54.2" y1="68.7" x2="67.3" y2="55.4"/>
	<line class="st0" x1="54.2" y1="68.7" x2="59.2" y2="63.2"/>
	<line class="st0" x1="54.2" y1="68.7" x2="56.7" y2="65.9"/>
	<line class="st0" x1="54.2" y1="68.7" x2="51.7" y2="71.6"/>
	<line class="st0" x1="51.7" y1="71.6" x2="67.3" y2="55.4"/>
	<line class="st0" x1="51.7" y1="71.6" x2="59.2" y2="63.2"/>
	<line class="st0" x1="51.7" y1="71.6" x2="56.7" y2="65.9"/>
	<line class="st0" x1="282.7" y1="294.6" x2="36.6" y2="257.1"/>
	<line class="st0" x1="282.7" y1="294.6" x2="38.5" y2="260.3"/>
	<line class="st0" x1="36.6" y1="257.1" x2="38.5" y2="260.3"/>
	<line class="st0" x1="36.6" y1="257.1" x2="199.3" y2="334.1"/>
	<line class="st0" x1="36.6" y1="257.1" x2="202.9" y2="333.5"/>
	<line class="st0" x1="38.5" y1="260.3" x2="199.3" y2="334.1"/>
	<line class="st0" x1="38.5" y1="260.3" x2="202.9" y2="333.5"/>
	<line class="st0" x1="199.3" y1="334.1" x2="202.9" y2="333.5"/>
	<line class="st0" x1="331.6" y1="212.1" x2="285.4" y2="292.1"/>
	<line class="st0" x1="285.4" y1="292.1" x2="324.9" y2="116.5"/>
	<line class="st0" x1="19.3" y1="134.2" x2="42.6" y2="266.5"/>
	<line class="st0" x1="19.3" y1="134.2" x2="67.3" y2="294.6"/>
	<line class="st0" x1="19.3" y1="134.2" x2="242.2" y2="321.3"/>
	<line class="st0" x1="19.3" y1="134.2" x2="245.6" y2="319.7"/>
	<line class="st0" x1="40.5" y1="263.4" x2="19.3" y2="134.2"/>
	<line class="st0" x1="40.5" y1="263.4" x2="42.6" y2="266.5"/>
	<line class="st0" x1="40.5" y1="263.4" x2="67.3" y2="294.6"/>
	<line class="st0" x1="42.6" y1="266.5" x2="67.3" y2="294.6"/>
	<line class="st0" x1="44.8" y1="269.6" x2="121.7" y2="326.9"/>
	<line class="st0" x1="44.8" y1="269.6" x2="125.3" y2="328.1"/>
	<line class="st0" x1="44.8" y1="269.6" x2="238.7" y2="322.8"/>
	<line class="st0" x1="18.4" y1="137.9" x2="21.4" y2="222.9"/>
	<line class="st0" x1="18.4" y1="137.9" x2="25.1" y2="233.5"/>
	<line class="st0" x1="18.4" y1="137.9" x2="28" y2="109.5"/>
	<line class="st0" x1="18.4" y1="137.9" x2="26.5" y2="237"/>
	<line class="st0" x1="18.4" y1="137.9" x2="328.6" y2="222.9"/>
	<line class="st0" x1="18.4" y1="137.9" x2="330.7" y2="215.8"/>
	<line class="st0" x1="18.4" y1="137.9" x2="28" y2="240.5"/>
	<line class="st0" x1="18.4" y1="137.9" x2="25.1" y2="116.5"/>
	<line class="st0" x1="121.7" y1="326.9" x2="238.7" y2="322.8"/>
	<line class="st0" x1="125.3" y1="328.1" x2="313.4" y2="257.1"/>
	<line class="st0" x1="125.3" y1="328.1" x2="315.3" y2="253.8"/>
	<line class="st0" x1="333.2" y1="204.8" x2="333.8" y2="201.1"/>
	<line class="st0" x1="128.8" y1="329.2" x2="335.8" y2="182.5"/>
	<line class="st0" x1="128.8" y1="329.2" x2="293.3" y2="284.1"/>
	<line class="st0" x1="128.8" y1="329.2" x2="335.9" y2="171.3"/>
	<line class="st0" x1="128.8" y1="329.2" x2="295.8" y2="281.3"/>
	<line class="st0" x1="335.2" y1="190" x2="334.9" y2="193.7"/>
	<line class="st0" x1="290.8" y1="286.8" x2="288.1" y2="289.5"/>
	<line class="st0" x1="206.6" y1="332.8" x2="210.3" y2="332"/>
	<line class="st0" x1="206.6" y1="332.8" x2="298.3" y2="278.5"/>
	<line class="st0" x1="206.6" y1="332.8" x2="61.9" y2="289.5"/>
	<line class="st0" x1="210.3" y1="332" x2="298.3" y2="278.5"/>
	<line class="st0" x1="210.3" y1="332" x2="61.9" y2="289.5"/>
	<line class="st0" x1="293.3" y1="284.1" x2="295.8" y2="281.3"/>
	<line class="st0" x1="335.9" y1="178.7" x2="335.9" y2="175"/>
	<line class="st0" x1="47" y1="272.6" x2="51.7" y2="278.5"/>
	<line class="st0" x1="47" y1="272.6" x2="54.2" y2="281.3"/>
	<line class="st0" x1="139.7" y1="18" x2="136.1" y2="18.8"/>
	<line class="st0" x1="139.7" y1="18" x2="132.4" y2="19.8"/>
	<line class="st0" x1="139.7" y1="18" x2="128.8" y2="20.8"/>
	<line class="st0" x1="139.7" y1="18" x2="121.7" y2="23.1"/>
	<line class="st0" x1="139.7" y1="18" x2="118.2" y2="24.4"/>
	<line class="st0" x1="139.7" y1="18" x2="114.7" y2="25.8"/>
	<line class="st0" x1="139.7" y1="18" x2="111.3" y2="27.2"/>
	<line class="st0" x1="139.7" y1="18" x2="107.8" y2="28.7"/>
	<line class="st0" x1="139.7" y1="18" x2="104.4" y2="30.3"/>
	<line class="st0" x1="139.7" y1="18" x2="101.1" y2="32"/>
	<line class="st0" x1="139.7" y1="18" x2="150.7" y2="15.9"/>
	<line class="st0" x1="139.7" y1="18" x2="97.8" y2="33.8"/>
	<line class="st0" x1="139.7" y1="18" x2="94.5" y2="35.6"/>
	<line class="st0" x1="139.7" y1="18" x2="147.1" y2="16.5"/>
	<line class="st0" x1="139.7" y1="18" x2="91.3" y2="37.5"/>
	<line class="st0" x1="139.7" y1="18" x2="88.1" y2="39.5"/>
	<line class="st0" x1="49.3" y1="275.6" x2="47" y2="272.6"/>
	<line class="st0" x1="49.3" y1="275.6" x2="51.7" y2="278.5"/>
	<line class="st0" x1="49.3" y1="275.6" x2="54.2" y2="281.3"/>
	<line class="st0" x1="136.1" y1="18.8" x2="132.4" y2="19.8"/>
	<line class="st0" x1="136.1" y1="18.8" x2="128.8" y2="20.8"/>
	<line class="st0" x1="136.1" y1="18.8" x2="121.7" y2="23.1"/>
	<line class="st0" x1="136.1" y1="18.8" x2="118.2" y2="24.4"/>
	<line class="st0" x1="136.1" y1="18.8" x2="114.7" y2="25.8"/>
	<line class="st0" x1="136.1" y1="18.8" x2="111.3" y2="27.2"/>
	<line class="st0" x1="136.1" y1="18.8" x2="107.8" y2="28.7"/>
	<line class="st0" x1="136.1" y1="18.8" x2="104.4" y2="30.3"/>
	<line class="st0" x1="136.1" y1="18.8" x2="101.1" y2="32"/>
	<line class="st0" x1="136.1" y1="18.8" x2="150.7" y2="15.9"/>
	<line class="st0" x1="136.1" y1="18.8" x2="97.8" y2="33.8"/>
	<line class="st0" x1="136.1" y1="18.8" x2="94.5" y2="35.6"/>
	<line class="st0" x1="136.1" y1="18.8" x2="147.1" y2="16.5"/>
	<line class="st0" x1="136.1" y1="18.8" x2="91.3" y2="37.5"/>
	<line class="st0" x1="136.1" y1="18.8" x2="88.1" y2="39.5"/>
	<line class="st0" x1="132.4" y1="19.8" x2="128.8" y2="20.8"/>
	<line class="st0" x1="132.4" y1="19.8" x2="121.7" y2="23.1"/>
	<line class="st0" x1="132.4" y1="19.8" x2="118.2" y2="24.4"/>
	<line class="st0" x1="132.4" y1="19.8" x2="114.7" y2="25.8"/>
	<line class="st0" x1="132.4" y1="19.8" x2="111.3" y2="27.2"/>
	<line class="st0" x1="132.4" y1="19.8" x2="107.8" y2="28.7"/>
	<line class="st0" x1="132.4" y1="19.8" x2="104.4" y2="30.3"/>
	<line class="st0" x1="132.4" y1="19.8" x2="101.1" y2="32"/>
	<line class="st0" x1="132.4" y1="19.8" x2="150.7" y2="15.9"/>
	<line class="st0" x1="132.4" y1="19.8" x2="97.8" y2="33.8"/>
	<line class="st0" x1="132.4" y1="19.8" x2="94.5" y2="35.6"/>
	<line class="st0" x1="132.4" y1="19.8" x2="147.1" y2="16.5"/>
	<line class="st0" x1="132.4" y1="19.8" x2="91.3" y2="37.5"/>
	<line class="st0" x1="132.4" y1="19.8" x2="88.1" y2="39.5"/>
	<line class="st0" x1="54.2" y1="281.3" x2="51.7" y2="278.5"/>
	<line class="st0" x1="128.8" y1="20.8" x2="121.7" y2="23.1"/>
	<line class="st0" x1="128.8" y1="20.8" x2="118.2" y2="24.4"/>
	<line class="st0" x1="128.8" y1="20.8" x2="114.7" y2="25.8"/>
	<line class="st0" x1="128.8" y1="20.8" x2="111.3" y2="27.2"/>
	<line class="st0" x1="128.8" y1="20.8" x2="107.8" y2="28.7"/>
	<line class="st0" x1="128.8" y1="20.8" x2="104.4" y2="30.3"/>
	<line class="st0" x1="128.8" y1="20.8" x2="101.1" y2="32"/>
	<line class="st0" x1="128.8" y1="20.8" x2="150.7" y2="15.9"/>
	<line class="st0" x1="128.8" y1="20.8" x2="97.8" y2="33.8"/>
	<line class="st0" x1="128.8" y1="20.8" x2="94.5" y2="35.6"/>
	<line class="st0" x1="128.8" y1="20.8" x2="147.1" y2="16.5"/>
	<line class="st0" x1="128.8" y1="20.8" x2="91.3" y2="37.5"/>
	<line class="st0" x1="128.8" y1="20.8" x2="88.1" y2="39.5"/>
	<line class="st0" x1="125.3" y1="21.9" x2="139.7" y2="18"/>
	<line class="st0" x1="125.3" y1="21.9" x2="136.1" y2="18.8"/>
	<line class="st0" x1="125.3" y1="21.9" x2="132.4" y2="19.8"/>
	<line class="st0" x1="125.3" y1="21.9" x2="128.8" y2="20.8"/>
	<line class="st0" x1="125.3" y1="21.9" x2="121.7" y2="23.1"/>
	<line class="st0" x1="125.3" y1="21.9" x2="118.2" y2="24.4"/>
	<line class="st0" x1="125.3" y1="21.9" x2="114.7" y2="25.8"/>
	<line class="st0" x1="125.3" y1="21.9" x2="111.3" y2="27.2"/>
	<line class="st0" x1="125.3" y1="21.9" x2="107.8" y2="28.7"/>
	<line class="st0" x1="125.3" y1="21.9" x2="104.4" y2="30.3"/>
	<line class="st0" x1="125.3" y1="21.9" x2="101.1" y2="32"/>
	<line class="st0" x1="125.3" y1="21.9" x2="150.7" y2="15.9"/>
	<line class="st0" x1="125.3" y1="21.9" x2="97.8" y2="33.8"/>
	<line class="st0" x1="125.3" y1="21.9" x2="94.5" y2="35.6"/>
	<line class="st0" x1="125.3" y1="21.9" x2="147.1" y2="16.5"/>
	<line class="st0" x1="125.3" y1="21.9" x2="91.3" y2="37.5"/>
	<line class="st0" x1="125.3" y1="21.9" x2="88.1" y2="39.5"/>
	<line class="st0" x1="121.7" y1="23.1" x2="118.2" y2="24.4"/>
	<line class="st0" x1="121.7" y1="23.1" x2="114.7" y2="25.8"/>
	<line class="st0" x1="121.7" y1="23.1" x2="111.3" y2="27.2"/>
	<line class="st0" x1="121.7" y1="23.1" x2="107.8" y2="28.7"/>
	<line class="st0" x1="121.7" y1="23.1" x2="104.4" y2="30.3"/>
	<line class="st0" x1="121.7" y1="23.1" x2="101.1" y2="32"/>
	<line class="st0" x1="121.7" y1="23.1" x2="150.7" y2="15.9"/>
	<line class="st0" x1="121.7" y1="23.1" x2="97.8" y2="33.8"/>
	<line class="st0" x1="121.7" y1="23.1" x2="94.5" y2="35.6"/>
	<line class="st0" x1="121.7" y1="23.1" x2="147.1" y2="16.5"/>
	<line class="st0" x1="121.7" y1="23.1" x2="91.3" y2="37.5"/>
	<line class="st0" x1="121.7" y1="23.1" x2="88.1" y2="39.5"/>
	<line class="st0" x1="271.1" y1="45.9" x2="158.2" y2="14.9"/>
	<line class="st0" x1="158.2" y1="14.9" x2="318.8" y2="102.8"/>
	<line class="st0" x1="158.2" y1="14.9" x2="265" y2="308.4"/>
	<line class="st0" x1="158.2" y1="14.9" x2="268.1" y2="306.3"/>
	<line class="st0" x1="158.2" y1="14.9" x2="271.1" y2="304.1"/>
	<line class="st0" x1="158.2" y1="14.9" x2="274.1" y2="301.8"/>
	<line class="st0" x1="158.2" y1="14.9" x2="277" y2="299.5"/>
	<line class="st0" x1="158.2" y1="14.9" x2="279.9" y2="297.1"/>
	<line class="st0" x1="158.2" y1="14.9" x2="34.7" y2="253.8"/>
	<line class="st0" x1="158.2" y1="14.9" x2="184.4" y2="335.7"/>
	<line class="st0" x1="158.2" y1="14.9" x2="191.8" y2="335.1"/>
	<line class="st0" x1="158.2" y1="14.9" x2="195.5" y2="334.6"/>
	<line class="st0" x1="158.2" y1="14.9" x2="36.6" y2="257.1"/>
	<line class="st0" x1="158.2" y1="14.9" x2="38.5" y2="260.3"/>
	<line class="st0" x1="158.2" y1="14.9" x2="199.3" y2="334.1"/>
	<line class="st0" x1="158.2" y1="14.9" x2="202.9" y2="333.5"/>
	<line class="st0" x1="158.2" y1="14.9" x2="125.3" y2="328.1"/>
	<line class="st0" x1="158.2" y1="14.9" x2="274.1" y2="48.2"/>
	<line class="st0" x1="158.2" y1="14.9" x2="23.8" y2="120"/>
	<line class="st0" x1="158.2" y1="14.9" x2="265" y2="41.6"/>
	<line class="st0" x1="158.2" y1="14.9" x2="139.7" y2="332"/>
	<line class="st0" x1="158.2" y1="14.9" x2="213.9" y2="18.8"/>
	<line class="st0" x1="158.2" y1="14.9" x2="331.6" y2="137.9"/>
	<line class="st0" x1="158.2" y1="14.9" x2="199.3" y2="15.9"/>
	<line class="st0" x1="158.2" y1="14.9" x2="313.4" y2="257.1"/>
	<line class="st0" x1="158.2" y1="14.9" x2="315.3" y2="253.8"/>
	<line class="st0" x1="158.2" y1="14.9" x2="323.5" y2="113"/>
	<line class="st0" x1="158.2" y1="14.9" x2="180.6" y2="14.2"/>
	<line class="st0" x1="158.2" y1="14.9" x2="176.9" y2="14.1"/>
	<line class="st0" x1="23.8" y1="120" x2="16.2" y2="201.1"/>
	<line class="st0" x1="23.8" y1="120" x2="19.3" y2="134.2"/>
	<line class="st0" x1="23.8" y1="120" x2="40.5" y2="263.4"/>
	<line class="st0" x1="23.8" y1="120" x2="42.6" y2="266.5"/>
	<line class="st0" x1="23.8" y1="120" x2="307.4" y2="266.5"/>
	<line class="st0" x1="23.8" y1="120" x2="309.5" y2="263.4"/>
	<line class="st0" x1="23.8" y1="120" x2="67.3" y2="294.6"/>
	<line class="st0" x1="213.9" y1="331.2" x2="334.4" y2="197.4"/>
	<line class="st0" x1="213.9" y1="331.2" x2="288.1" y2="289.5"/>
	<line class="st0" x1="213.9" y1="331.2" x2="290.8" y2="286.8"/>
	<line class="st0" x1="118.2" y1="24.4" x2="114.7" y2="25.8"/>
	<line class="st0" x1="118.2" y1="24.4" x2="104.4" y2="30.3"/>
	<line class="st0" x1="118.2" y1="24.4" x2="101.1" y2="32"/>
	<line class="st0" x1="118.2" y1="24.4" x2="150.7" y2="15.9"/>
	<line class="st0" x1="118.2" y1="24.4" x2="97.8" y2="33.8"/>
	<line class="st0" x1="118.2" y1="24.4" x2="91.3" y2="37.5"/>
	<line class="st0" x1="118.2" y1="24.4" x2="88.1" y2="39.5"/>
	<line class="st0" x1="114.7" y1="25.8" x2="104.4" y2="30.3"/>
	<line class="st0" x1="114.7" y1="25.8" x2="101.1" y2="32"/>
	<line class="st0" x1="114.7" y1="25.8" x2="150.7" y2="15.9"/>
	<line class="st0" x1="114.7" y1="25.8" x2="97.8" y2="33.8"/>
	<line class="st0" x1="114.7" y1="25.8" x2="91.3" y2="37.5"/>
	<line class="st0" x1="114.7" y1="25.8" x2="88.1" y2="39.5"/>
	<line class="st0" x1="111.3" y1="27.2" x2="118.2" y2="24.4"/>
	<line class="st0" x1="111.3" y1="27.2" x2="114.7" y2="25.8"/>
	<line class="st0" x1="111.3" y1="27.2" x2="107.8" y2="28.7"/>
	<line class="st0" x1="111.3" y1="27.2" x2="104.4" y2="30.3"/>
	<line class="st0" x1="111.3" y1="27.2" x2="101.1" y2="32"/>
	<line class="st0" x1="111.3" y1="27.2" x2="150.7" y2="15.9"/>
	<line class="st0" x1="111.3" y1="27.2" x2="97.8" y2="33.8"/>
	<line class="st0" x1="111.3" y1="27.2" x2="91.3" y2="37.5"/>
	<line class="st0" x1="111.3" y1="27.2" x2="88.1" y2="39.5"/>
	<line class="st0" x1="165.6" y1="14.3" x2="81.9" y2="306.3"/>
	<line class="st0" x1="165.6" y1="14.3" x2="161.9" y2="335.4"/>
	<line class="st0" x1="165.6" y1="14.3" x2="16.2" y2="201.1"/>
	<line class="st0" x1="165.6" y1="14.3" x2="323.5" y2="237"/>
	<line class="st0" x1="165.6" y1="14.3" x2="255.5" y2="314.4"/>
	<line class="st0" x1="165.6" y1="14.3" x2="258.7" y2="312.5"/>
	<line class="st0" x1="165.6" y1="14.3" x2="261.9" y2="310.5"/>
	<line class="st0" x1="165.6" y1="14.3" x2="173.1" y2="335.9"/>
	<line class="st0" x1="165.6" y1="14.3" x2="85" y2="41.6"/>
	<line class="st0" x1="165.6" y1="14.3" x2="81.9" y2="43.7"/>
	<line class="st0" x1="165.6" y1="14.3" x2="78.9" y2="45.9"/>
	<line class="st0" x1="165.6" y1="14.3" x2="75.9" y2="48.2"/>
	<line class="st0" x1="165.6" y1="14.3" x2="73" y2="50.5"/>
	<line class="st0" x1="165.6" y1="14.3" x2="91.3" y2="312.5"/>
	<line class="st0" x1="165.6" y1="14.3" x2="94.5" y2="314.4"/>
	<line class="st0" x1="165.6" y1="14.3" x2="97.8" y2="316.2"/>
	<line class="st0" x1="165.6" y1="14.3" x2="70.1" y2="52.9"/>
	<line class="st0" x1="165.6" y1="14.3" x2="111.3" y2="322.8"/>
	<line class="st0" x1="165.6" y1="14.3" x2="17.6" y2="208.5"/>
	<line class="st0" x1="165.6" y1="14.3" x2="18.4" y2="212.1"/>
	<line class="st0" x1="165.6" y1="14.3" x2="19.3" y2="215.8"/>
	<line class="st0" x1="165.6" y1="14.3" x2="20.3" y2="219.4"/>
	<line class="st0" x1="165.6" y1="14.3" x2="22.5" y2="226.5"/>
	<line class="st0" x1="165.6" y1="14.3" x2="23.8" y2="230"/>
	<line class="st0" x1="165.6" y1="14.3" x2="309.5" y2="86.6"/>
	<line class="st0" x1="165.6" y1="14.3" x2="67.3" y2="55.4"/>
	<line class="st0" x1="165.6" y1="14.3" x2="64.6" y2="57.9"/>
	<line class="st0" x1="165.6" y1="14.3" x2="61.9" y2="60.5"/>
	<line class="st0" x1="165.6" y1="14.3" x2="59.2" y2="63.2"/>
	<line class="st0" x1="165.6" y1="14.3" x2="56.7" y2="65.9"/>
	<line class="st0" x1="165.6" y1="14.3" x2="54.2" y2="68.7"/>
	<line class="st0" x1="165.6" y1="14.3" x2="51.7" y2="71.6"/>
	<line class="st0" x1="165.6" y1="14.3" x2="44.8" y2="269.6"/>
	<line class="st0" x1="165.6" y1="14.3" x2="298.3" y2="71.6"/>
	<line class="st0" x1="165.6" y1="14.3" x2="293.3" y2="65.9"/>
	<line class="st0" x1="165.6" y1="14.3" x2="121.7" y2="326.9"/>
	<line class="st0" x1="165.6" y1="14.3" x2="125.3" y2="328.1"/>
	<line class="st0" x1="165.6" y1="14.3" x2="290.8" y2="63.2"/>
	<line class="st0" x1="165.6" y1="14.3" x2="335.5" y2="186.2"/>
	<line class="st0" x1="165.6" y1="14.3" x2="277" y2="50.5"/>
	<line class="st0" x1="165.6" y1="14.3" x2="268.1" y2="43.7"/>
	<line class="st0" x1="165.6" y1="14.3" x2="261.9" y2="39.5"/>
	<line class="st0" x1="165.6" y1="14.3" x2="147.1" y2="16.5"/>
	<line class="st0" x1="165.6" y1="14.3" x2="22.5" y2="123.5"/>
	<line class="st0" x1="165.6" y1="14.3" x2="245.6" y2="30.3"/>
	<line class="st0" x1="165.6" y1="14.3" x2="335.5" y2="163.8"/>
	<line class="st0" x1="165.6" y1="14.3" x2="238.7" y2="27.2"/>
	<line class="st0" x1="165.6" y1="14.3" x2="305.2" y2="269.6"/>
	<line class="st0" x1="165.6" y1="14.3" x2="228.3" y2="23.1"/>
	<line class="st0" x1="165.6" y1="14.3" x2="333.8" y2="148.9"/>
	<line class="st0" x1="165.6" y1="14.3" x2="221.2" y2="20.8"/>
	<line class="st0" x1="165.6" y1="14.3" x2="311.5" y2="260.3"/>
	<line class="st0" x1="165.6" y1="14.3" x2="238.7" y2="322.8"/>
	<line class="st0" x1="165.6" y1="14.3" x2="206.6" y2="17.2"/>
	<line class="st0" x1="165.6" y1="14.3" x2="195.5" y2="15.4"/>
	<line class="st0" x1="165.6" y1="14.3" x2="326.2" y2="120"/>
	<line class="st0" x1="165.6" y1="14.3" x2="191.8" y2="14.9"/>
	<line class="st0" x1="165.6" y1="14.3" x2="323.5" y2="113"/>
	<line class="st0" x1="165.6" y1="14.3" x2="188.1" y2="14.6"/>
	<line class="st0" x1="165.6" y1="14.3" x2="184.4" y2="14.3"/>
	<line class="st0" x1="107.8" y1="28.7" x2="118.2" y2="24.4"/>
	<line class="st0" x1="107.8" y1="28.7" x2="114.7" y2="25.8"/>
	<line class="st0" x1="107.8" y1="28.7" x2="104.4" y2="30.3"/>
	<line class="st0" x1="107.8" y1="28.7" x2="101.1" y2="32"/>
	<line class="st0" x1="107.8" y1="28.7" x2="150.7" y2="15.9"/>
	<line class="st0" x1="107.8" y1="28.7" x2="97.8" y2="33.8"/>
	<line class="st0" x1="107.8" y1="28.7" x2="91.3" y2="37.5"/>
	<line class="st0" x1="107.8" y1="28.7" x2="88.1" y2="39.5"/>
	<line class="st0" x1="104.4" y1="30.3" x2="101.1" y2="32"/>
	<line class="st0" x1="104.4" y1="30.3" x2="91.3" y2="37.5"/>
	<line class="st0" x1="104.4" y1="30.3" x2="88.1" y2="39.5"/>
	<line class="st0" x1="101.1" y1="32" x2="91.3" y2="37.5"/>
	<line class="st0" x1="101.1" y1="32" x2="88.1" y2="39.5"/>
	<line class="st0" x1="150.7" y1="15.9" x2="19.3" y2="134.2"/>
	<line class="st0" x1="150.7" y1="15.9" x2="104.4" y2="30.3"/>
	<line class="st0" x1="150.7" y1="15.9" x2="101.1" y2="32"/>
	<line class="st0" x1="150.7" y1="15.9" x2="97.8" y2="33.8"/>
	<line class="st0" x1="150.7" y1="15.9" x2="91.3" y2="37.5"/>
	<line class="st0" x1="150.7" y1="15.9" x2="88.1" y2="39.5"/>
	<line class="st0" x1="150.7" y1="15.9" x2="242.2" y2="321.3"/>
	<line class="st0" x1="150.7" y1="15.9" x2="245.6" y2="319.7"/>
	<line class="st0" x1="97.8" y1="33.8" x2="104.4" y2="30.3"/>
	<line class="st0" x1="97.8" y1="33.8" x2="101.1" y2="32"/>
	<line class="st0" x1="97.8" y1="33.8" x2="91.3" y2="37.5"/>
	<line class="st0" x1="97.8" y1="33.8" x2="88.1" y2="39.5"/>
	<line class="st0" x1="56.7" y1="284.1" x2="47" y2="272.6"/>
	<line class="st0" x1="56.7" y1="284.1" x2="49.3" y2="275.6"/>
	<line class="st0" x1="56.7" y1="284.1" x2="51.7" y2="278.5"/>
	<line class="st0" x1="56.7" y1="284.1" x2="54.2" y2="281.3"/>
	<line class="st0" x1="56.7" y1="284.1" x2="59.2" y2="286.8"/>
	<line class="st0" x1="59.2" y1="286.8" x2="47" y2="272.6"/>
	<line class="st0" x1="59.2" y1="286.8" x2="49.3" y2="275.6"/>
	<line class="st0" x1="59.2" y1="286.8" x2="51.7" y2="278.5"/>
	<line class="st0" x1="59.2" y1="286.8" x2="54.2" y2="281.3"/>
	<line class="st0" x1="217.6" y1="330.2" x2="221.2" y2="329.2"/>
	<line class="st0" x1="224.7" y1="328.1" x2="217.6" y2="330.2"/>
	<line class="st0" x1="224.7" y1="328.1" x2="221.2" y2="329.2"/>
	<line class="st0" x1="224.7" y1="328.1" x2="228.3" y2="326.9"/>
	<line class="st0" x1="94.5" y1="35.6" x2="118.2" y2="24.4"/>
	<line class="st0" x1="94.5" y1="35.6" x2="114.7" y2="25.8"/>
	<line class="st0" x1="94.5" y1="35.6" x2="111.3" y2="27.2"/>
	<line class="st0" x1="94.5" y1="35.6" x2="107.8" y2="28.7"/>
	<line class="st0" x1="94.5" y1="35.6" x2="104.4" y2="30.3"/>
	<line class="st0" x1="94.5" y1="35.6" x2="101.1" y2="32"/>
	<line class="st0" x1="94.5" y1="35.6" x2="150.7" y2="15.9"/>
	<line class="st0" x1="94.5" y1="35.6" x2="97.8" y2="33.8"/>
	<line class="st0" x1="94.5" y1="35.6" x2="91.3" y2="37.5"/>
	<line class="st0" x1="94.5" y1="35.6" x2="88.1" y2="39.5"/>
	<line class="st0" x1="228.3" y1="326.9" x2="217.6" y2="330.2"/>
	<line class="st0" x1="228.3" y1="326.9" x2="221.2" y2="329.2"/>
	<line class="st0" x1="147.1" y1="16.5" x2="118.2" y2="24.4"/>
	<line class="st0" x1="147.1" y1="16.5" x2="114.7" y2="25.8"/>
	<line class="st0" x1="147.1" y1="16.5" x2="111.3" y2="27.2"/>
	<line class="st0" x1="147.1" y1="16.5" x2="107.8" y2="28.7"/>
	<line class="st0" x1="147.1" y1="16.5" x2="104.4" y2="30.3"/>
	<line class="st0" x1="147.1" y1="16.5" x2="101.1" y2="32"/>
	<line class="st0" x1="147.1" y1="16.5" x2="150.7" y2="15.9"/>
	<line class="st0" x1="147.1" y1="16.5" x2="97.8" y2="33.8"/>
	<line class="st0" x1="147.1" y1="16.5" x2="94.5" y2="35.6"/>
	<line class="st0" x1="147.1" y1="16.5" x2="91.3" y2="37.5"/>
	<line class="st0" x1="147.1" y1="16.5" x2="88.1" y2="39.5"/>
	<line class="st0" x1="147.1" y1="16.5" x2="326.2" y2="120"/>
	<line class="st0" x1="300.7" y1="275.6" x2="335.8" y2="167.5"/>
	<line class="st0" x1="300.7" y1="275.6" x2="334.4" y2="152.6"/>
	<line class="st0" x1="22.5" y1="123.5" x2="17.6" y2="208.5"/>
	<line class="st0" x1="22.5" y1="123.5" x2="18.4" y2="212.1"/>
	<line class="st0" x1="22.5" y1="123.5" x2="19.3" y2="215.8"/>
	<line class="st0" x1="22.5" y1="123.5" x2="20.3" y2="219.4"/>
	<line class="st0" x1="22.5" y1="123.5" x2="22.5" y2="226.5"/>
	<line class="st0" x1="22.5" y1="123.5" x2="23.8" y2="230"/>
	<line class="st0" x1="22.5" y1="123.5" x2="44.8" y2="269.6"/>
	<line class="st0" x1="22.5" y1="123.5" x2="121.7" y2="326.9"/>
	<line class="st0" x1="22.5" y1="123.5" x2="335.5" y2="163.8"/>
	<line class="st0" x1="231.8" y1="325.6" x2="188.1" y2="335.4"/>
	<line class="st0" x1="231.8" y1="325.6" x2="303" y2="272.6"/>
	<line class="st0" x1="169.4" y1="14.2" x2="317.1" y2="99.4"/>
	<line class="st0" x1="169.4" y1="14.2" x2="16.8" y2="204.8"/>
	<line class="st0" x1="169.4" y1="14.2" x2="31.2" y2="247.2"/>
	<line class="st0" x1="169.4" y1="14.2" x2="32.9" y2="250.6"/>
	<line class="st0" x1="169.4" y1="14.2" x2="311.5" y2="89.7"/>
	<line class="st0" x1="169.4" y1="14.2" x2="188.1" y2="335.4"/>
	<line class="st0" x1="169.4" y1="14.2" x2="303" y2="77.4"/>
	<line class="st0" x1="169.4" y1="14.2" x2="295.8" y2="68.7"/>
	<line class="st0" x1="169.4" y1="14.2" x2="332.4" y2="208.5"/>
	<line class="st0" x1="169.4" y1="14.2" x2="333.2" y2="204.8"/>
	<line class="st0" x1="169.4" y1="14.2" x2="128.8" y2="329.2"/>
	<line class="st0" x1="169.4" y1="14.2" x2="333.8" y2="201.1"/>
	<line class="st0" x1="169.4" y1="14.2" x2="334.4" y2="197.4"/>
	<line class="st0" x1="169.4" y1="14.2" x2="334.9" y2="193.7"/>
	<line class="st0" x1="169.4" y1="14.2" x2="288.1" y2="60.5"/>
	<line class="st0" x1="169.4" y1="14.2" x2="288.1" y2="289.5"/>
	<line class="st0" x1="169.4" y1="14.2" x2="335.2" y2="190"/>
	<line class="st0" x1="169.4" y1="14.2" x2="290.8" y2="286.8"/>
	<line class="st0" x1="169.4" y1="14.2" x2="206.6" y2="332.8"/>
	<line class="st0" x1="169.4" y1="14.2" x2="210.3" y2="332"/>
	<line class="st0" x1="169.4" y1="14.2" x2="335.8" y2="182.5"/>
	<line class="st0" x1="169.4" y1="14.2" x2="293.3" y2="284.1"/>
	<line class="st0" x1="169.4" y1="14.2" x2="47" y2="272.6"/>
	<line class="st0" x1="169.4" y1="14.2" x2="139.7" y2="18"/>
	<line class="st0" x1="169.4" y1="14.2" x2="49.3" y2="275.6"/>
	<line class="st0" x1="169.4" y1="14.2" x2="136.1" y2="18.8"/>
	<line class="st0" x1="169.4" y1="14.2" x2="51.7" y2="278.5"/>
	<line class="st0" x1="169.4" y1="14.2" x2="132.4" y2="19.8"/>
	<line class="st0" x1="169.4" y1="14.2" x2="54.2" y2="281.3"/>
	<line class="st0" x1="169.4" y1="14.2" x2="128.8" y2="20.8"/>
	<line class="st0" x1="169.4" y1="14.2" x2="335.9" y2="171.3"/>
	<line class="st0" x1="169.4" y1="14.2" x2="295.8" y2="281.3"/>
	<line class="st0" x1="169.4" y1="14.2" x2="125.3" y2="21.9"/>
	<line class="st0" x1="169.4" y1="14.2" x2="121.7" y2="23.1"/>
	<line class="st0" x1="169.4" y1="14.2" x2="298.3" y2="278.5"/>
	<line class="st0" x1="169.4" y1="14.2" x2="213.9" y2="331.2"/>
	<line class="st0" x1="169.4" y1="14.2" x2="118.2" y2="24.4"/>
	<line class="st0" x1="169.4" y1="14.2" x2="114.7" y2="25.8"/>
	<line class="st0" x1="169.4" y1="14.2" x2="111.3" y2="27.2"/>
	<line class="st0" x1="169.4" y1="14.2" x2="107.8" y2="28.7"/>
	<line class="st0" x1="169.4" y1="14.2" x2="258.7" y2="37.5"/>
	<line class="st0" x1="169.4" y1="14.2" x2="104.4" y2="30.3"/>
	<line class="st0" x1="169.4" y1="14.2" x2="101.1" y2="32"/>
	<line class="st0" x1="169.4" y1="14.2" x2="150.7" y2="15.9"/>
	<line class="st0" x1="169.4" y1="14.2" x2="252.2" y2="33.8"/>
	<line class="st0" x1="169.4" y1="14.2" x2="97.8" y2="33.8"/>
	<line class="st0" x1="169.4" y1="14.2" x2="56.7" y2="284.1"/>
	<line class="st0" x1="169.4" y1="14.2" x2="59.2" y2="286.8"/>
	<line class="st0" x1="169.4" y1="14.2" x2="94.5" y2="35.6"/>
	<line class="st0" x1="169.4" y1="14.2" x2="147.1" y2="16.5"/>
	<line class="st0" x1="169.4" y1="14.2" x2="231.8" y2="325.6"/>
	<line class="st0" x1="169.4" y1="14.2" x2="303" y2="272.6"/>
	<line class="st0" x1="169.4" y1="14.2" x2="143.4" y2="17.2"/>
	<line class="st0" x1="169.4" y1="14.2" x2="91.3" y2="37.5"/>
	<line class="st0" x1="169.4" y1="14.2" x2="61.9" y2="289.5"/>
	<line class="st0" x1="169.4" y1="14.2" x2="88.1" y2="39.5"/>
	<line class="st0" x1="169.4" y1="14.2" x2="235.3" y2="324.2"/>
	<line class="st0" x1="169.4" y1="14.2" x2="49.3" y2="74.4"/>
	<line class="st0" x1="169.4" y1="14.2" x2="47" y2="77.4"/>
	<line class="st0" x1="169.4" y1="14.2" x2="44.8" y2="80.4"/>
	<line class="st0" x1="169.4" y1="14.2" x2="42.6" y2="83.5"/>
	<line class="st0" x1="169.4" y1="14.2" x2="40.5" y2="86.6"/>
	<line class="st0" x1="169.4" y1="14.2" x2="38.5" y2="89.7"/>
	<line class="st0" x1="169.4" y1="14.2" x2="36.6" y2="92.9"/>
	<line class="st0" x1="169.4" y1="14.2" x2="34.7" y2="96.2"/>
	<line class="st0" x1="169.4" y1="14.2" x2="32.9" y2="99.4"/>
	<line class="st0" x1="169.4" y1="14.2" x2="31.2" y2="102.8"/>
	<line class="st0" x1="169.4" y1="14.2" x2="161.9" y2="14.6"/>
	<line class="st0" x1="169.4" y1="14.2" x2="29.5" y2="106.1"/>
	<line class="st0" x1="169.4" y1="14.2" x2="64.6" y2="292.1"/>
	<line class="st0" x1="169.4" y1="14.2" x2="21.4" y2="127.1"/>
	<line class="st0" x1="169.4" y1="14.2" x2="20.3" y2="130.6"/>
	<line class="st0" x1="169.4" y1="14.2" x2="70.1" y2="297.1"/>
	<line class="st0" x1="169.4" y1="14.2" x2="328.6" y2="127.1"/>
	<line class="st0" x1="169.4" y1="14.2" x2="327.5" y2="123.5"/>
	<line class="st0" x1="169.4" y1="14.2" x2="73" y2="299.5"/>
	<line class="st0" x1="169.4" y1="14.2" x2="75.9" y2="301.8"/>
	<line class="st0" x1="169.4" y1="14.2" x2="29.5" y2="243.9"/>
	<line class="st0" x1="169.4" y1="14.2" x2="317.1" y2="250.6"/>
	<line class="st0" x1="169.4" y1="14.2" x2="248.9" y2="318"/>
	<line class="st0" x1="169.4" y1="14.2" x2="252.2" y2="316.2"/>
	<line class="st0" x1="169.4" y1="14.2" x2="78.9" y2="304.1"/>
	<line class="st0" x1="169.4" y1="14.2" x2="318.8" y2="247.2"/>
	<line class="st0" x1="235.3" y1="25.8" x2="169.4" y2="14.2"/>
	<line class="st0" x1="154.5" y1="15.4" x2="34.7" y2="253.8"/>
	<line class="st0" x1="154.5" y1="15.4" x2="282.7" y2="294.6"/>
	<line class="st0" x1="154.5" y1="15.4" x2="36.6" y2="257.1"/>
	<line class="st0" x1="154.5" y1="15.4" x2="38.5" y2="260.3"/>
	<line class="st0" x1="154.5" y1="15.4" x2="282.7" y2="55.4"/>
	<line class="st0" x1="154.5" y1="15.4" x2="335.9" y2="178.7"/>
	<line class="st0" x1="154.5" y1="15.4" x2="335.9" y2="175"/>
	<line class="st0" x1="154.5" y1="15.4" x2="158.2" y2="14.9"/>
	<line class="st0" x1="154.5" y1="15.4" x2="23.8" y2="120"/>
	<line class="st0" x1="154.5" y1="15.4" x2="224.7" y2="21.9"/>
	<line class="st0" x1="154.5" y1="15.4" x2="333.2" y2="145.2"/>
	<line class="st0" x1="154.5" y1="15.4" x2="332.4" y2="141.5"/>
	<line class="st0" x1="154.5" y1="15.4" x2="307.4" y2="266.5"/>
	<line class="st0" x1="154.5" y1="15.4" x2="309.5" y2="263.4"/>
	<line class="st0" x1="154.5" y1="15.4" x2="136.1" y2="331.2"/>
	<line class="st0" x1="154.5" y1="15.4" x2="330.7" y2="134.2"/>
	<line class="st0" x1="154.5" y1="15.4" x2="329.7" y2="130.6"/>
	<line class="st0" x1="154.5" y1="15.4" x2="143.4" y2="332.8"/>
	<line class="st0" x1="154.5" y1="15.4" x2="26.5" y2="113"/>
	<line class="st0" x1="154.5" y1="15.4" x2="147.1" y2="333.5"/>
	<line class="st0" x1="154.5" y1="15.4" x2="150.7" y2="334.1"/>
	<line class="st0" x1="154.5" y1="15.4" x2="154.5" y2="334.6"/>
	<line class="st0" x1="154.5" y1="15.4" x2="320.5" y2="243.9"/>
	<line class="st0" x1="154.5" y1="15.4" x2="158.2" y2="335.1"/>
	<line class="st0" x1="154.5" y1="15.4" x2="322" y2="240.5"/>
	<line class="st0" x1="334.9" y1="156.3" x2="143.4" y2="17.2"/>
	<line class="st0" x1="143.4" y1="17.2" x2="139.7" y2="18"/>
	<line class="st0" x1="143.4" y1="17.2" x2="136.1" y2="18.8"/>
	<line class="st0" x1="143.4" y1="17.2" x2="132.4" y2="19.8"/>
	<line class="st0" x1="143.4" y1="17.2" x2="128.8" y2="20.8"/>
	<line class="st0" x1="143.4" y1="17.2" x2="125.3" y2="21.9"/>
	<line class="st0" x1="143.4" y1="17.2" x2="121.7" y2="23.1"/>
	<line class="st0" x1="143.4" y1="17.2" x2="118.2" y2="24.4"/>
	<line class="st0" x1="143.4" y1="17.2" x2="114.7" y2="25.8"/>
	<line class="st0" x1="143.4" y1="17.2" x2="111.3" y2="27.2"/>
	<line class="st0" x1="143.4" y1="17.2" x2="107.8" y2="28.7"/>
	<line class="st0" x1="143.4" y1="17.2" x2="104.4" y2="30.3"/>
	<line class="st0" x1="143.4" y1="17.2" x2="101.1" y2="32"/>
	<line class="st0" x1="143.4" y1="17.2" x2="150.7" y2="15.9"/>
	<line class="st0" x1="143.4" y1="17.2" x2="97.8" y2="33.8"/>
	<line class="st0" x1="143.4" y1="17.2" x2="94.5" y2="35.6"/>
	<line class="st0" x1="143.4" y1="17.2" x2="147.1" y2="16.5"/>
	<line class="st0" x1="143.4" y1="17.2" x2="91.3" y2="37.5"/>
	<line class="st0" x1="143.4" y1="17.2" x2="88.1" y2="39.5"/>
	<line class="st0" x1="143.4" y1="17.2" x2="161.9" y2="14.6"/>
	<line class="st0" x1="91.3" y1="37.5" x2="88.1" y2="39.5"/>
	<line class="st0" x1="61.9" y1="289.5" x2="188.1" y2="335.4"/>
	<line class="st0" x1="61.9" y1="289.5" x2="231.8" y2="325.6"/>
	<line class="st0" x1="61.9" y1="289.5" x2="303" y2="272.6"/>
	<line class="st0" x1="305.2" y1="269.6" x2="335.5" y2="186.2"/>
	<line class="st0" x1="47" y1="77.4" x2="49.3" y2="74.4"/>
	<line class="st0" x1="44.8" y1="80.4" x2="49.3" y2="74.4"/>
	<line class="st0" x1="44.8" y1="80.4" x2="47" y2="77.4"/>
	<line class="st0" x1="42.6" y1="83.5" x2="49.3" y2="74.4"/>
	<line class="st0" x1="42.6" y1="83.5" x2="47" y2="77.4"/>
	<line class="st0" x1="42.6" y1="83.5" x2="44.8" y2="80.4"/>
	<line class="st0" x1="40.5" y1="86.6" x2="49.3" y2="74.4"/>
	<line class="st0" x1="40.5" y1="86.6" x2="47" y2="77.4"/>
	<line class="st0" x1="40.5" y1="86.6" x2="44.8" y2="80.4"/>
	<line class="st0" x1="40.5" y1="86.6" x2="42.6" y2="83.5"/>
	<line class="st0" x1="40.5" y1="86.6" x2="38.5" y2="89.7"/>
	<line class="st0" x1="40.5" y1="86.6" x2="36.6" y2="92.9"/>
	<line class="st0" x1="38.5" y1="89.7" x2="49.3" y2="74.4"/>
	<line class="st0" x1="38.5" y1="89.7" x2="47" y2="77.4"/>
	<line class="st0" x1="38.5" y1="89.7" x2="44.8" y2="80.4"/>
	<line class="st0" x1="38.5" y1="89.7" x2="42.6" y2="83.5"/>
	<line class="st0" x1="36.6" y1="92.9" x2="49.3" y2="74.4"/>
	<line class="st0" x1="36.6" y1="92.9" x2="47" y2="77.4"/>
	<line class="st0" x1="36.6" y1="92.9" x2="44.8" y2="80.4"/>
	<line class="st0" x1="36.6" y1="92.9" x2="42.6" y2="83.5"/>
	<line class="st0" x1="36.6" y1="92.9" x2="38.5" y2="89.7"/>
	<line class="st0" x1="34.7" y1="96.2" x2="49.3" y2="74.4"/>
	<line class="st0" x1="34.7" y1="96.2" x2="47" y2="77.4"/>
	<line class="st0" x1="34.7" y1="96.2" x2="44.8" y2="80.4"/>
	<line class="st0" x1="34.7" y1="96.2" x2="42.6" y2="83.5"/>
	<line class="st0" x1="34.7" y1="96.2" x2="40.5" y2="86.6"/>
	<line class="st0" x1="34.7" y1="96.2" x2="38.5" y2="89.7"/>
	<line class="st0" x1="34.7" y1="96.2" x2="36.6" y2="92.9"/>
	<line class="st0" x1="32.9" y1="99.4" x2="49.3" y2="74.4"/>
	<line class="st0" x1="32.9" y1="99.4" x2="47" y2="77.4"/>
	<line class="st0" x1="32.9" y1="99.4" x2="44.8" y2="80.4"/>
	<line class="st0" x1="32.9" y1="99.4" x2="42.6" y2="83.5"/>
	<line class="st0" x1="32.9" y1="99.4" x2="40.5" y2="86.6"/>
	<line class="st0" x1="32.9" y1="99.4" x2="38.5" y2="89.7"/>
	<line class="st0" x1="32.9" y1="99.4" x2="36.6" y2="92.9"/>
	<line class="st0" x1="32.9" y1="99.4" x2="34.7" y2="96.2"/>
	<line class="st0" x1="31.2" y1="102.8" x2="49.3" y2="74.4"/>
	<line class="st0" x1="31.2" y1="102.8" x2="47" y2="77.4"/>
	<line class="st0" x1="31.2" y1="102.8" x2="44.8" y2="80.4"/>
	<line class="st0" x1="31.2" y1="102.8" x2="42.6" y2="83.5"/>
	<line class="st0" x1="31.2" y1="102.8" x2="40.5" y2="86.6"/>
	<line class="st0" x1="31.2" y1="102.8" x2="38.5" y2="89.7"/>
	<line class="st0" x1="31.2" y1="102.8" x2="36.6" y2="92.9"/>
	<line class="st0" x1="31.2" y1="102.8" x2="34.7" y2="96.2"/>
	<line class="st0" x1="31.2" y1="102.8" x2="32.9" y2="99.4"/>
	<line class="st0" x1="161.9" y1="14.6" x2="139.7" y2="18"/>
	<line class="st0" x1="161.9" y1="14.6" x2="136.1" y2="18.8"/>
	<line class="st0" x1="161.9" y1="14.6" x2="132.4" y2="19.8"/>
	<line class="st0" x1="161.9" y1="14.6" x2="128.8" y2="20.8"/>
	<line class="st0" x1="161.9" y1="14.6" x2="125.3" y2="21.9"/>
	<line class="st0" x1="161.9" y1="14.6" x2="121.7" y2="23.1"/>
	<line class="st0" x1="161.9" y1="14.6" x2="118.2" y2="24.4"/>
	<line class="st0" x1="161.9" y1="14.6" x2="114.7" y2="25.8"/>
	<line class="st0" x1="161.9" y1="14.6" x2="111.3" y2="27.2"/>
	<line class="st0" x1="161.9" y1="14.6" x2="107.8" y2="28.7"/>
	<line class="st0" x1="161.9" y1="14.6" x2="104.4" y2="30.3"/>
	<line class="st0" x1="161.9" y1="14.6" x2="101.1" y2="32"/>
	<line class="st0" x1="161.9" y1="14.6" x2="150.7" y2="15.9"/>
	<line class="st0" x1="161.9" y1="14.6" x2="97.8" y2="33.8"/>
	<line class="st0" x1="161.9" y1="14.6" x2="94.5" y2="35.6"/>
	<line class="st0" x1="161.9" y1="14.6" x2="147.1" y2="16.5"/>
	<line class="st0" x1="161.9" y1="14.6" x2="91.3" y2="37.5"/>
	<line class="st0" x1="161.9" y1="14.6" x2="88.1" y2="39.5"/>
	<line class="st0" x1="161.9" y1="14.6" x2="49.3" y2="74.4"/>
	<line class="st0" x1="161.9" y1="14.6" x2="47" y2="77.4"/>
	<line class="st0" x1="161.9" y1="14.6" x2="44.8" y2="80.4"/>
	<line class="st0" x1="161.9" y1="14.6" x2="42.6" y2="83.5"/>
	<line class="st0" x1="161.9" y1="14.6" x2="40.5" y2="86.6"/>
	<line class="st0" x1="161.9" y1="14.6" x2="38.5" y2="89.7"/>
	<line class="st0" x1="161.9" y1="14.6" x2="36.6" y2="92.9"/>
	<line class="st0" x1="161.9" y1="14.6" x2="34.7" y2="96.2"/>
	<line class="st0" x1="161.9" y1="14.6" x2="32.9" y2="99.4"/>
	<line class="st0" x1="161.9" y1="14.6" x2="31.2" y2="102.8"/>
	<line class="st0" x1="29.5" y1="106.1" x2="49.3" y2="74.4"/>
	<line class="st0" x1="29.5" y1="106.1" x2="47" y2="77.4"/>
	<line class="st0" x1="29.5" y1="106.1" x2="44.8" y2="80.4"/>
	<line class="st0" x1="29.5" y1="106.1" x2="42.6" y2="83.5"/>
	<line class="st0" x1="29.5" y1="106.1" x2="40.5" y2="86.6"/>
	<line class="st0" x1="29.5" y1="106.1" x2="38.5" y2="89.7"/>
	<line class="st0" x1="29.5" y1="106.1" x2="36.6" y2="92.9"/>
	<line class="st0" x1="29.5" y1="106.1" x2="34.7" y2="96.2"/>
	<line class="st0" x1="29.5" y1="106.1" x2="32.9" y2="99.4"/>
	<line class="st0" x1="29.5" y1="106.1" x2="31.2" y2="102.8"/>
	<line class="st0" x1="29.5" y1="106.1" x2="161.9" y2="14.6"/>
	<line class="st0" x1="332.4" y1="141.5" x2="333.2" y2="145.2"/>
	<line class="st0" x1="309.5" y1="263.4" x2="307.4" y2="266.5"/>
	<line class="st0" x1="311.5" y1="260.3" x2="305.2" y2="269.6"/>
	<line class="st0" x1="311.5" y1="260.3" x2="333.8" y2="148.9"/>
	<line class="st0" x1="139.7" y1="332" x2="184.4" y2="335.7"/>
	<line class="st0" x1="139.7" y1="332" x2="191.8" y2="335.1"/>
	<line class="st0" x1="139.7" y1="332" x2="195.5" y2="334.6"/>
	<line class="st0" x1="139.7" y1="332" x2="331.6" y2="137.9"/>
	<line class="st0" x1="64.6" y1="292.1" x2="16.8" y2="204.8"/>
	<line class="st0" x1="64.6" y1="292.1" x2="31.2" y2="247.2"/>
	<line class="st0" x1="64.6" y1="292.1" x2="32.9" y2="250.6"/>
	<line class="st0" x1="64.6" y1="292.1" x2="21.4" y2="127.1"/>
	<line class="st0" x1="64.6" y1="292.1" x2="20.3" y2="130.6"/>
	<line class="st0" x1="21.4" y1="127.1" x2="16.8" y2="204.8"/>
	<line class="st0" x1="21.4" y1="127.1" x2="31.2" y2="247.2"/>
	<line class="st0" x1="21.4" y1="127.1" x2="32.9" y2="250.6"/>
	<line class="st0" x1="21.4" y1="127.1" x2="20.3" y2="130.6"/>
	<line class="st0" x1="21.4" y1="127.1" x2="70.1" y2="297.1"/>
	<line class="st0" x1="21.4" y1="127.1" x2="73" y2="299.5"/>
	<line class="st0" x1="21.4" y1="127.1" x2="75.9" y2="301.8"/>
	<line class="st0" x1="21.4" y1="127.1" x2="29.5" y2="243.9"/>
	<line class="st0" x1="20.3" y1="130.6" x2="16.8" y2="204.8"/>
	<line class="st0" x1="20.3" y1="130.6" x2="31.2" y2="247.2"/>
	<line class="st0" x1="20.3" y1="130.6" x2="32.9" y2="250.6"/>
	<line class="st0" x1="20.3" y1="130.6" x2="70.1" y2="297.1"/>
	<line class="st0" x1="20.3" y1="130.6" x2="73" y2="299.5"/>
	<line class="st0" x1="20.3" y1="130.6" x2="75.9" y2="301.8"/>
	<line class="st0" x1="20.3" y1="130.6" x2="29.5" y2="243.9"/>
	<line class="st0" x1="70.1" y1="297.1" x2="73" y2="299.5"/>
	<line class="st0" x1="70.1" y1="297.1" x2="75.9" y2="301.8"/>
	<line class="st0" x1="329.7" y1="130.6" x2="330.7" y2="134.2"/>
	<line class="st0" x1="327.5" y1="123.5" x2="328.6" y2="127.1"/>
	<line class="st0" x1="75.9" y1="301.8" x2="73" y2="299.5"/>
	<line class="st0" x1="242.2" y1="321.3" x2="245.6" y2="319.7"/>
	<line class="st0" x1="143.4" y1="332.8" x2="136.1" y2="331.2"/>
	<line class="st0" x1="315.3" y1="253.8" x2="313.4" y2="257.1"/>
	<line class="st0" x1="26.5" y1="113" x2="136.1" y2="331.2"/>
	<line class="st0" x1="26.5" y1="113" x2="143.4" y2="332.8"/>
	<line class="st0" x1="26.5" y1="113" x2="147.1" y2="333.5"/>
	<line class="st0" x1="26.5" y1="113" x2="150.7" y2="334.1"/>
	<line class="st0" x1="26.5" y1="113" x2="154.5" y2="334.6"/>
	<line class="st0" x1="26.5" y1="113" x2="320.5" y2="243.9"/>
	<line class="st0" x1="26.5" y1="113" x2="158.2" y2="335.1"/>
	<line class="st0" x1="26.5" y1="113" x2="322" y2="240.5"/>
	<line class="st0" x1="29.5" y1="243.9" x2="70.1" y2="297.1"/>
	<line class="st0" x1="29.5" y1="243.9" x2="73" y2="299.5"/>
	<line class="st0" x1="29.5" y1="243.9" x2="75.9" y2="301.8"/>
	<line class="st0" x1="317.1" y1="250.6" x2="78.9" y2="304.1"/>
	<line class="st0" x1="317.1" y1="250.6" x2="318.8" y2="247.2"/>
	<line class="st0" x1="147.1" y1="333.5" x2="150.7" y2="334.1"/>
	<line class="st0" x1="248.9" y1="318" x2="235.3" y2="324.2"/>
	<line class="st0" x1="252.2" y1="316.2" x2="235.3" y2="324.2"/>
	<line class="st0" x1="252.2" y1="316.2" x2="248.9" y2="318"/>
	<line class="st0" x1="78.9" y1="304.1" x2="235.3" y2="324.2"/>
	<line class="st0" x1="78.9" y1="304.1" x2="248.9" y2="318"/>
	<line class="st0" x1="78.9" y1="304.1" x2="252.2" y2="316.2"/>
	<line class="st0" x1="318.8" y1="247.2" x2="78.9" y2="304.1"/>
	<line class="st0" x1="322" y1="109.5" x2="320.5" y2="106.1"/>
	<line class="st0" x1="154.5" y1="334.6" x2="147.1" y2="333.5"/>
	<line class="st0" x1="154.5" y1="334.6" x2="150.7" y2="334.1"/>
	<line class="st0" x1="154.5" y1="334.6" x2="158.2" y2="335.1"/>
	<line class="st0" x1="158.2" y1="335.1" x2="147.1" y2="333.5"/>
	<line class="st0" x1="158.2" y1="335.1" x2="150.7" y2="334.1"/>
	<line class="st0" x1="322" y1="240.5" x2="320.5" y2="243.9"/>
	<path d="M19.5,141.5c0-1.1-0.9-1.9-1.9-1.9c-1.1,0-1.9,0.9-1.9,1.9c0,1.1,0.9,1.9,1.9,1.9C18.6,143.5,19.5,142.6,19.5,141.5"/>
	<path d="M18.8,145.2c0-1.1-0.9-1.9-1.9-1.9c-1.1,0-1.9,0.9-1.9,1.9c0,1.1,0.9,1.9,1.9,1.9C17.9,147.2,18.8,146.3,18.8,145.2"/>
	<path d="M18.1,148.9c0-1.1-0.9-1.9-1.9-1.9c-1.1,0-1.9,0.9-1.9,1.9s0.9,1.9,1.9,1.9C17.3,150.8,18.1,150,18.1,148.9"/>
	<path d="M83.9,306.3c0-1.1-0.9-1.9-1.9-1.9c-1.1,0-1.9,0.9-1.9,1.9c0,1.1,0.9,1.9,1.9,1.9C83,308.2,83.9,307.4,83.9,306.3"/>
	<path d="M17.6,152.6c0-1.1-0.9-1.9-1.9-1.9c-1.1,0-1.9,0.9-1.9,1.9c0,1.1,0.9,1.9,1.9,1.9C16.7,154.5,17.6,153.7,17.6,152.6"/>
	<path d="M163.8,335.4c0-1.1-0.9-1.9-1.9-1.9c-1.1,0-1.9,0.9-1.9,1.9c0,1.1,0.9,1.9,1.9,1.9C163,337.3,163.8,336.5,163.8,335.4"/>
	<path d="M167.6,335.7c0-1.1-0.9-1.9-1.9-1.9c-1.1,0-1.9,0.9-1.9,1.9s0.9,1.9,1.9,1.9C166.7,337.6,167.6,336.7,167.6,335.7"/>
	<path d="M18.1,201.1c0-1.1-0.9-1.9-1.9-1.9c-1.1,0-1.9,0.9-1.9,1.9c0,1.1,0.9,1.9,1.9,1.9C17.3,203,18.1,202.2,18.1,201.1"/>
	<path d="M325.5,237c0-1.1-0.9-1.9-1.9-1.9c-1.1,0-1.9,0.9-1.9,1.9s0.9,1.9,1.9,1.9C324.6,239,325.5,238.1,325.5,237"/>
	<path d="M17.1,156.3c0-1.1-0.9-1.9-1.9-1.9c-1.1,0-1.9,0.9-1.9,1.9s0.9,1.9,1.9,1.9C16.2,158.3,17.1,157.4,17.1,156.3"/>
	<path d="M257.4,314.4c0-1.1-0.9-1.9-1.9-1.9c-1.1,0-1.9,0.9-1.9,1.9c0,1.1,0.9,1.9,1.9,1.9C256.5,316.3,257.4,315.5,257.4,314.4"/>
	<path d="M171.3,335.8c0-1.1-0.9-1.9-1.9-1.9c-1.1,0-1.9,0.9-1.9,1.9c0,1.1,0.9,1.9,1.9,1.9C170.5,337.8,171.3,336.9,171.3,335.8"/>
	<path d="M260.6,312.5c0-1.1-0.9-1.9-1.9-1.9c-1.1,0-1.9,0.9-1.9,1.9c0,1.1,0.9,1.9,1.9,1.9C259.8,314.4,260.6,313.5,260.6,312.5"/>
	<path d="M263.8,310.5c0-1.1-0.9-1.9-1.9-1.9c-1.1,0-1.9,0.9-1.9,1.9c0,1.1,0.9,1.9,1.9,1.9C262.9,312.4,263.8,311.6,263.8,310.5"/>
	<path d="M175.1,335.9c0-1.1-0.9-1.9-1.9-1.9s-1.9,0.9-1.9,1.9c0,1.1,0.9,1.9,1.9,1.9S175.1,337,175.1,335.9"/>
	<path d="M320.8,102.8c0-1.1-0.9-1.9-1.9-1.9c-1.1,0-1.9,0.9-1.9,1.9c0,1.1,0.9,1.9,1.9,1.9C319.9,104.7,320.8,103.8,320.8,102.8"/>
	<path d="M319,99.4c0-1.1-0.9-1.9-1.9-1.9c-1.1,0-1.9,0.9-1.9,1.9c0,1.1,0.9,1.9,1.9,1.9C318.2,101.4,319,100.5,319,99.4"/>
	<path d="M86.9,308.4c0-1.1-0.9-1.9-1.9-1.9s-1.9,0.9-1.9,1.9c0,1.1,0.9,1.9,1.9,1.9S86.9,309.5,86.9,308.4"/>
	<path d="M90.1,310.5c0-1.1-0.9-1.9-1.9-1.9c-1.1,0-1.9,0.9-1.9,1.9c0,1.1,0.9,1.9,1.9,1.9C89.2,312.4,90.1,311.6,90.1,310.5"/>
	<path d="M178.8,335.9c0-1.1-0.9-1.9-1.9-1.9s-1.9,0.9-1.9,1.9c0,1.1,0.9,1.9,1.9,1.9S178.8,337,178.8,335.9"/>
	<path d="M182.6,335.8c0-1.1-0.9-1.9-1.9-1.9c-1.1,0-1.9,0.9-1.9,1.9c0,1.1,0.9,1.9,1.9,1.9C181.7,337.8,182.6,336.9,182.6,335.8"/>
	<path d="M18.8,204.8c0-1.1-0.9-1.9-1.9-1.9c-1.1,0-1.9,0.9-1.9,1.9c0,1.1,0.9,1.9,1.9,1.9C17.9,206.7,18.8,205.9,18.8,204.8"/>
	<path d="M266.9,308.4c0-1.1-0.9-1.9-1.9-1.9s-1.9,0.9-1.9,1.9c0,1.1,0.9,1.9,1.9,1.9S266.9,309.5,266.9,308.4"/>
	<path d="M270,306.3c0-1.1-0.9-1.9-1.9-1.9c-1.1,0-1.9,0.9-1.9,1.9c0,1.1,0.9,1.9,1.9,1.9C269.1,308.2,270,307.4,270,306.3"/>
	<path d="M273,304.1c0-1.1-0.9-1.9-1.9-1.9c-1.1,0-1.9,0.9-1.9,1.9c0,1.1,0.9,1.9,1.9,1.9C272.2,306,273,305.2,273,304.1"/>
	<path d="M33.1,247.2c0-1.1-0.9-1.9-1.9-1.9c-1.1,0-1.9,0.9-1.9,1.9c0,1.1,0.9,1.9,1.9,1.9C32.2,249.2,33.1,248.3,33.1,247.2"/>
	<path d="M34.8,250.6c0-1.1-0.9-1.9-1.9-1.9c-1.1,0-1.9,0.9-1.9,1.9c0,1.1,0.9,1.9,1.9,1.9C34,252.5,34.8,251.6,34.8,250.6"/>
	<path d="M16.7,160c0-1.1-0.9-1.9-1.9-1.9s-1.9,0.9-1.9,1.9c0,1.1,0.9,1.9,1.9,1.9S16.7,161.1,16.7,160"/>
	<path d="M16.4,163.8c0-1.1-0.9-1.9-1.9-1.9s-1.9,0.9-1.9,1.9s0.9,1.9,1.9,1.9S16.4,164.8,16.4,163.8"/>
	<path d="M86.9,41.6c0-1.1-0.9-1.9-1.9-1.9s-1.9,0.9-1.9,1.9c0,1.1,0.9,1.9,1.9,1.9S86.9,42.6,86.9,41.6"/>
	<path d="M16.2,167.5c0-1.1-0.9-1.9-1.9-1.9c-1.1,0-1.9,0.9-1.9,1.9c0,1.1,0.9,1.9,1.9,1.9C15.3,169.5,16.2,168.6,16.2,167.5"/>
	<path d="M16,171.3c0-1.1-0.9-1.9-1.9-1.9c-1.1,0-1.9,0.9-1.9,1.9c0,1.1,0.9,1.9,1.9,1.9C15.2,173.2,16,172.3,16,171.3"/>
	<path d="M317.2,96.2c0-1.1-0.9-1.9-1.9-1.9c-1.1,0-1.9,0.9-1.9,1.9c0,1.1,0.9,1.9,1.9,1.9C316.4,98.1,317.2,97.2,317.2,96.2"/>
	<path d="M16,175c0-1.1-0.9-1.9-1.9-1.9c-1.1,0-1.9,0.9-1.9,1.9c0,1.1,0.9,1.9,1.9,1.9C15.1,176.9,16,176.1,16,175"/>
	<path d="M83.9,43.7c0-1.1-0.9-1.9-1.9-1.9c-1.1,0-1.9,0.9-1.9,1.9c0,1.1,0.9,1.9,1.9,1.9C83,45.6,83.9,44.8,83.9,43.7"/>
	<path d="M276,301.8c0-1.1-0.9-1.9-1.9-1.9c-1.1,0-1.9,0.9-1.9,1.9c0,1.1,0.9,1.9,1.9,1.9C275.2,303.8,276,302.9,276,301.8"/>
	<path d="M16,178.7c0-1.1-0.9-1.9-1.9-1.9c-1.1,0-1.9,0.9-1.9,1.9c0,1.1,0.9,1.9,1.9,1.9C15.2,180.7,16,179.8,16,178.7"/>
	<path d="M80.8,45.9c0-1.1-0.9-1.9-1.9-1.9c-1.1,0-1.9,0.9-1.9,1.9c0,1.1,0.9,1.9,1.9,1.9C80,47.8,80.8,47,80.8,45.9"/>
	<path d="M278.9,299.5c0-1.1-0.9-1.9-1.9-1.9c-1.1,0-1.9,0.9-1.9,1.9c0,1.1,0.9,1.9,1.9,1.9C278.1,301.4,278.9,300.6,278.9,299.5"/>
	<path d="M16.2,182.5c0-1.1-0.9-1.9-1.9-1.9c-1.1,0-1.9,0.9-1.9,1.9c0,1.1,0.9,1.9,1.9,1.9C15.3,184.4,16.2,183.6,16.2,182.5"/>
	<path d="M77.9,48.2c0-1.1-0.9-1.9-1.9-1.9c-1.1,0-1.9,0.9-1.9,1.9c0,1.1,0.9,1.9,1.9,1.9C77,50.1,77.9,49.2,77.9,48.2"/>
	<path d="M281.8,297.1c0-1.1-0.9-1.9-1.9-1.9c-1.1,0-1.9,0.9-1.9,1.9c0,1.1,0.9,1.9,1.9,1.9C280.9,299,281.8,298.1,281.8,297.1"/>
	<path d="M16.4,186.2c0-1.1-0.9-1.9-1.9-1.9s-1.9,0.9-1.9,1.9c0,1.1,0.9,1.9,1.9,1.9S16.4,187.3,16.4,186.2"/>
	<path d="M74.9,50.5c0-1.1-0.9-1.9-1.9-1.9c-1.1,0-1.9,0.9-1.9,1.9s0.9,1.9,1.9,1.9C74.1,52.5,74.9,51.6,74.9,50.5"/>
	<path d="M326.9,233.5c0-1.1-0.9-1.9-1.9-1.9c-1.1,0-1.9,0.9-1.9,1.9c0,1.1,0.9,1.9,1.9,1.9C326,235.5,326.9,234.6,326.9,233.5"/>
	<path d="M93.2,312.5c0-1.1-0.9-1.9-1.9-1.9c-1.1,0-1.9,0.9-1.9,1.9c0,1.1,0.9,1.9,1.9,1.9C92.4,314.4,93.2,313.5,93.2,312.5"/>
	<path d="M315.4,92.9c0-1.1-0.9-1.9-1.9-1.9c-1.1,0-1.9,0.9-1.9,1.9c0,1.1,0.9,1.9,1.9,1.9C314.5,94.9,315.4,94,315.4,92.9"/>
	<path d="M96.5,314.4c0-1.1-0.9-1.9-1.9-1.9c-1.1,0-1.9,0.9-1.9,1.9c0,1.1,0.9,1.9,1.9,1.9C95.6,316.3,96.5,315.5,96.5,314.4"/>
	<path d="M99.7,316.2c0-1.1-0.9-1.9-1.9-1.9c-1.1,0-1.9,0.9-1.9,1.9s0.9,1.9,1.9,1.9C98.9,318.2,99.7,317.3,99.7,316.2"/>
	<path d="M175.1,14.1c0-1.1-0.9-1.9-1.9-1.9s-1.9,0.9-1.9,1.9c0,1.1,0.9,1.9,1.9,1.9S175.1,15.1,175.1,14.1"/>
	<path d="M72.1,52.9c0-1.1-0.9-1.9-1.9-1.9c-1.1,0-1.9,0.9-1.9,1.9c0,1.1,0.9,1.9,1.9,1.9C71.2,54.9,72.1,54,72.1,52.9"/>
	<path d="M16.7,190c0-1.1-0.9-1.9-1.9-1.9s-1.9,0.9-1.9,1.9c0,1.1,0.9,1.9,1.9,1.9S16.7,191,16.7,190"/>
	<path d="M103,318c0-1.1-0.9-1.9-1.9-1.9c-1.1,0-1.9,0.9-1.9,1.9c0,1.1,0.9,1.9,1.9,1.9C102.2,319.9,103,319,103,318"/>
	<path d="M106.4,319.7c0-1.1-0.9-1.9-1.9-1.9c-1.1,0-1.9,0.9-1.9,1.9c0,1.1,0.9,1.9,1.9,1.9C105.5,321.6,106.4,320.7,106.4,319.7"/>
	<path d="M17.1,193.7c0-1.1-0.9-1.9-1.9-1.9c-1.1,0-1.9,0.9-1.9,1.9s0.9,1.9,1.9,1.9C16.2,195.6,17.1,194.8,17.1,193.7"/>
	<path d="M109.8,321.3c0-1.1-0.9-1.9-1.9-1.9c-1.1,0-1.9,0.9-1.9,1.9c0,1.1,0.9,1.9,1.9,1.9C108.9,323.2,109.8,322.3,109.8,321.3"/>
	<path d="M113.2,322.8c0-1.1-0.9-1.9-1.9-1.9c-1.1,0-1.9,0.9-1.9,1.9s0.9,1.9,1.9,1.9C112.3,324.7,113.2,323.8,113.2,322.8"/>
	<path d="M17.6,197.4c0-1.1-0.9-1.9-1.9-1.9c-1.1,0-1.9,0.9-1.9,1.9c0,1.1,0.9,1.9,1.9,1.9C16.7,199.3,17.6,198.5,17.6,197.4"/>
	<path d="M328.2,230c0-1.1-0.9-1.9-1.9-1.9c-1.1,0-1.9,0.9-1.9,1.9c0,1.1,0.9,1.9,1.9,1.9C327.3,232,328.2,231.1,328.2,230"/>
	<path d="M116.7,324.2c0-1.1-0.9-1.9-1.9-1.9c-1.1,0-1.9,0.9-1.9,1.9c0,1.1,0.9,1.9,1.9,1.9C115.8,326.2,116.7,325.3,116.7,324.2"/>
	<path d="M120.1,325.6c0-1.1-0.9-1.9-1.9-1.9c-1.1,0-1.9,0.9-1.9,1.9c0,1.1,0.9,1.9,1.9,1.9C119.3,327.5,120.1,326.7,120.1,325.6"/>
	<path d="M19.5,208.5c0-1.1-0.9-1.9-1.9-1.9c-1.1,0-1.9,0.9-1.9,1.9c0,1.1,0.9,1.9,1.9,1.9C18.6,210.4,19.5,209.5,19.5,208.5"/>
	<path d="M20.3,212.1c0-1.1-0.9-1.9-1.9-1.9c-1.1,0-1.9,0.9-1.9,1.9c0,1.1,0.9,1.9,1.9,1.9C19.5,214.1,20.3,213.2,20.3,212.1"/>
	<path d="M36.6,253.8c0-1.1-0.9-1.9-1.9-1.9c-1.1,0-1.9,0.9-1.9,1.9c0,1.1,0.9,1.9,1.9,1.9C35.8,255.8,36.6,254.9,36.6,253.8"/>
	<path d="M21.2,215.8c0-1.1-0.9-1.9-1.9-1.9c-1.1,0-1.9,0.9-1.9,1.9c0,1.1,0.9,1.9,1.9,1.9C20.4,217.7,21.2,216.8,21.2,215.8"/>
	<path d="M22.2,219.4c0-1.1-0.9-1.9-1.9-1.9c-1.1,0-1.9,0.9-1.9,1.9s0.9,1.9,1.9,1.9C21.4,221.3,22.2,220.4,22.2,219.4"/>
	<path d="M23.3,222.9c0-1.1-0.9-1.9-1.9-1.9c-1.1,0-1.9,0.9-1.9,1.9c0,1.1,0.9,1.9,1.9,1.9C22.4,224.9,23.3,224,23.3,222.9"/>
	<path d="M24.5,226.5c0-1.1-0.9-1.9-1.9-1.9c-1.1,0-1.9,0.9-1.9,1.9c0,1.1,0.9,1.9,1.9,1.9C23.6,228.5,24.5,227.6,24.5,226.5"/>
	<path d="M25.7,230c0-1.1-0.9-1.9-1.9-1.9c-1.1,0-1.9,0.9-1.9,1.9c0,1.1,0.9,1.9,1.9,1.9C24.8,232,25.7,231.1,25.7,230"/>
	<path d="M313.4,89.7c0-1.1-0.9-1.9-1.9-1.9c-1.1,0-1.9,0.9-1.9,1.9c0,1.1,0.9,1.9,1.9,1.9C312.6,91.7,313.4,90.8,313.4,89.7"/>
	<path d="M27,233.5c0-1.1-0.9-1.9-1.9-1.9c-1.1,0-1.9,0.9-1.9,1.9c0,1.1,0.9,1.9,1.9,1.9C26.2,235.5,27,234.6,27,233.5"/>
	<path d="M186.3,335.7c0-1.1-0.9-1.9-1.9-1.9c-1.1,0-1.9,0.9-1.9,1.9s0.9,1.9,1.9,1.9C185.4,337.6,186.3,336.7,186.3,335.7"/>
	<path d="M311.4,86.6c0-1.1-0.9-1.9-1.9-1.9c-1.1,0-1.9,0.9-1.9,1.9c0,1.1,0.9,1.9,1.9,1.9C310.5,88.5,311.4,87.6,311.4,86.6"/>
	<path d="M29.9,109.5c0-1.1-0.9-1.9-1.9-1.9s-1.9,0.9-1.9,1.9c0,1.1,0.9,1.9,1.9,1.9S29.9,110.6,29.9,109.5"/>
	<path d="M190,335.4c0-1.1-0.9-1.9-1.9-1.9c-1.1,0-1.9,0.9-1.9,1.9c0,1.1,0.9,1.9,1.9,1.9C189.2,337.3,190,336.5,190,335.4"/>
	<path d="M329.4,226.5c0-1.1-0.9-1.9-1.9-1.9c-1.1,0-1.9,0.9-1.9,1.9c0,1.1,0.9,1.9,1.9,1.9C328.5,228.5,329.4,227.6,329.4,226.5"/>
	<path d="M193.8,335.1c0-1.1-0.9-1.9-1.9-1.9c-1.1,0-1.9,0.9-1.9,1.9c0,1.1,0.9,1.9,1.9,1.9C192.9,337,193.8,336.1,193.8,335.1"/>
	<path d="M69.2,55.4c0-1.1-0.9-1.9-1.9-1.9c-1.1,0-1.9,0.9-1.9,1.9c0,1.1,0.9,1.9,1.9,1.9C68.4,57.3,69.2,56.5,69.2,55.4"/>
	<path d="M28.4,237c0-1.1-0.9-1.9-1.9-1.9c-1.1,0-1.9,0.9-1.9,1.9s0.9,1.9,1.9,1.9C27.6,239,28.4,238.1,28.4,237"/>
	<path d="M197.5,334.6c0-1.1-0.9-1.9-1.9-1.9c-1.1,0-1.9,0.9-1.9,1.9c0,1.1,0.9,1.9,1.9,1.9C196.6,336.6,197.5,335.7,197.5,334.6"/>
	<path d="M330.6,222.9c0-1.1-0.9-1.9-1.9-1.9c-1.1,0-1.9,0.9-1.9,1.9c0,1.1,0.9,1.9,1.9,1.9C329.7,224.9,330.6,224,330.6,222.9"/>
	<path d="M331.6,219.4c0-1.1-0.9-1.9-1.9-1.9c-1.1,0-1.9,0.9-1.9,1.9s0.9,1.9,1.9,1.9C330.8,221.3,331.6,220.4,331.6,219.4"/>
	<path d="M332.6,215.8c0-1.1-0.9-1.9-1.9-1.9c-1.1,0-1.9,0.9-1.9,1.9c0,1.1,0.9,1.9,1.9,1.9C331.8,217.7,332.6,216.8,332.6,215.8"/>
	<path d="M309.3,83.5c0-1.1-0.9-1.9-1.9-1.9c-1.1,0-1.9,0.9-1.9,1.9c0,1.1,0.9,1.9,1.9,1.9C308.4,85.4,309.3,84.5,309.3,83.5"/>
	<path d="M66.5,57.9c0-1.1-0.9-1.9-1.9-1.9c-1.1,0-1.9,0.9-1.9,1.9c0,1.1,0.9,1.9,1.9,1.9C65.6,59.9,66.5,59,66.5,57.9"/>
	<path d="M29.9,240.5c0-1.1-0.9-1.9-1.9-1.9s-1.9,0.9-1.9,1.9c0,1.1,0.9,1.9,1.9,1.9S29.9,241.5,29.9,240.5"/>
	<path d="M63.8,60.5c0-1.1-0.9-1.9-1.9-1.9c-1.1,0-1.9,0.9-1.9,1.9c0,1.1,0.9,1.9,1.9,1.9C62.9,62.5,63.8,61.6,63.8,60.5"/>
	<path d="M27,116.5c0-1.1-0.9-1.9-1.9-1.9c-1.1,0-1.9,0.9-1.9,1.9c0,1.1,0.9,1.9,1.9,1.9C26.2,118.4,27,117.5,27,116.5"/>
	<path d="M61.2,63.2c0-1.1-0.9-1.9-1.9-1.9c-1.1,0-1.9,0.9-1.9,1.9c0,1.1,0.9,1.9,1.9,1.9C60.3,65.1,61.2,64.3,61.2,63.2"/>
	<path d="M58.6,65.9c0-1.1-0.9-1.9-1.9-1.9c-1.1,0-1.9,0.9-1.9,1.9c0,1.1,0.9,1.9,1.9,1.9C57.7,67.9,58.6,67,58.6,65.9"/>
	<path d="M56.1,68.7c0-1.1-0.9-1.9-1.9-1.9c-1.1,0-1.9,0.9-1.9,1.9c0,1.1,0.9,1.9,1.9,1.9C55.2,70.6,56.1,69.8,56.1,68.7"/>
	<path d="M53.7,71.6c0-1.1-0.9-1.9-1.9-1.9c-1.1,0-1.9,0.9-1.9,1.9c0,1.1,0.9,1.9,1.9,1.9C52.8,73.5,53.7,72.6,53.7,71.6"/>
	<path d="M284.6,294.6c0-1.1-0.9-1.9-1.9-1.9s-1.9,0.9-1.9,1.9c0,1.1,0.9,1.9,1.9,1.9S284.6,295.7,284.6,294.6"/>
	<path d="M38.5,257.1c0-1.1-0.9-1.9-1.9-1.9c-1.1,0-1.9,0.9-1.9,1.9c0,1.1,0.9,1.9,1.9,1.9C37.6,259,38.5,258.2,38.5,257.1"/>
	<path d="M307.1,80.4c0-1.1-0.9-1.9-1.9-1.9s-1.9,0.9-1.9,1.9c0,1.1,0.9,1.9,1.9,1.9S307.1,81.5,307.1,80.4"/>
	<path d="M304.9,77.4c0-1.1-0.9-1.9-1.9-1.9c-1.1,0-1.9,0.9-1.9,1.9c0,1.1,0.9,1.9,1.9,1.9C304,79.3,304.9,78.5,304.9,77.4"/>
	<path d="M40.5,260.3c0-1.1-0.9-1.9-1.9-1.9c-1.1,0-1.9,0.9-1.9,1.9c0,1.1,0.9,1.9,1.9,1.9C39.6,262.2,40.5,261.4,40.5,260.3"/>
	<path d="M201.2,334.1c0-1.1-0.9-1.9-1.9-1.9c-1.1,0-1.9,0.9-1.9,1.9c0,1.1,0.9,1.9,1.9,1.9C200.3,336,201.2,335.2,201.2,334.1"/>
	<path d="M204.9,333.5c0-1.1-0.9-1.9-1.9-1.9c-1.1,0-1.9,0.9-1.9,1.9c0,1.1,0.9,1.9,1.9,1.9C204,335.4,204.9,334.6,204.9,333.5"/>
	<path d="M333.5,212.1c0-1.1-0.9-1.9-1.9-1.9c-1.1,0-1.9,0.9-1.9,1.9c0,1.1,0.9,1.9,1.9,1.9C332.7,214.1,333.5,213.2,333.5,212.1"/>
	<path d="M287.4,292.1c0-1.1-0.9-1.9-1.9-1.9c-1.1,0-1.9,0.9-1.9,1.9c0,1.1,0.9,1.9,1.9,1.9C286.5,294,287.4,293.1,287.4,292.1"/>
	<path d="M21.2,134.2c0-1.1-0.9-1.9-1.9-1.9c-1.1,0-1.9,0.9-1.9,1.9c0,1.1,0.9,1.9,1.9,1.9C20.4,136.2,21.2,135.3,21.2,134.2"/>
	<path d="M302.6,74.4c0-1.1-0.9-1.9-1.9-1.9c-1.1,0-1.9,0.9-1.9,1.9c0,1.1,0.9,1.9,1.9,1.9C301.7,76.4,302.6,75.5,302.6,74.4"/>
	<path d="M42.5,263.4c0-1.1-0.9-1.9-1.9-1.9c-1.1,0-1.9,0.9-1.9,1.9c0,1.1,0.9,1.9,1.9,1.9C41.6,265.4,42.5,264.5,42.5,263.4"/>
	<path d="M44.6,266.5c0-1.1-0.9-1.9-1.9-1.9c-1.1,0-1.9,0.9-1.9,1.9c0,1.1,0.9,1.9,1.9,1.9C43.7,268.5,44.6,267.6,44.6,266.5"/>
	<path d="M46.7,269.6c0-1.1-0.9-1.9-1.9-1.9c-1.1,0-1.9,0.9-1.9,1.9c0,1.1,0.9,1.9,1.9,1.9C45.9,271.5,46.7,270.7,46.7,269.6"/>
	<path d="M20.3,137.9c0-1.1-0.9-1.9-1.9-1.9c-1.1,0-1.9,0.9-1.9,1.9c0,1.1,0.9,1.9,1.9,1.9C19.5,139.8,20.3,139,20.3,137.9"/>
	<path d="M300.2,71.6c0-1.1-0.9-1.9-1.9-1.9c-1.1,0-1.9,0.9-1.9,1.9c0,1.1,0.9,1.9,1.9,1.9C299.4,73.5,300.2,72.6,300.2,71.6"/>
	<path d="M297.8,68.7c0-1.1-0.9-1.9-1.9-1.9c-1.1,0-1.9,0.9-1.9,1.9c0,1.1,0.9,1.9,1.9,1.9C296.9,70.6,297.8,69.8,297.8,68.7"/>
	<path d="M334.4,208.5c0-1.1-0.9-1.9-1.9-1.9c-1.1,0-1.9,0.9-1.9,1.9c0,1.1,0.9,1.9,1.9,1.9C333.5,210.4,334.4,209.5,334.4,208.5"/>
	<path d="M295.3,65.9c0-1.1-0.9-1.9-1.9-1.9c-1.1,0-1.9,0.9-1.9,1.9c0,1.1,0.9,1.9,1.9,1.9C294.4,67.9,295.3,67,295.3,65.9"/>
	<path d="M123.7,326.9c0-1.1-0.9-1.9-1.9-1.9c-1.1,0-1.9,0.9-1.9,1.9c0,1.1,0.9,1.9,1.9,1.9C122.8,328.8,123.7,327.9,123.7,326.9"/>
	<path d="M127.2,328.1c0-1.1-0.9-1.9-1.9-1.9c-1.1,0-1.9,0.9-1.9,1.9c0,1.1,0.9,1.9,1.9,1.9C126.3,330,127.2,329.1,127.2,328.1"/>
	<path d="M335.1,204.8c0-1.1-0.9-1.9-1.9-1.9c-1.1,0-1.9,0.9-1.9,1.9c0,1.1,0.9,1.9,1.9,1.9C334.2,206.7,335.1,205.9,335.1,204.8"/>
	<path d="M130.8,329.2c0-1.1-0.9-1.9-1.9-1.9c-1.1,0-1.9,0.9-1.9,1.9c0,1.1,0.9,1.9,1.9,1.9C129.9,331.1,130.8,330.3,130.8,329.2"/>
	<path d="M335.7,201.1c0-1.1-0.9-1.9-1.9-1.9s-1.9,0.9-1.9,1.9c0,1.1,0.9,1.9,1.9,1.9S335.7,202.2,335.7,201.1"/>
	<path d="M336.3,197.4c0-1.1-0.9-1.9-1.9-1.9c-1.1,0-1.9,0.9-1.9,1.9c0,1.1,0.9,1.9,1.9,1.9C335.4,199.3,336.3,198.5,336.3,197.4"/>
	<path d="M336.8,193.7c0-1.1-0.9-1.9-1.9-1.9s-1.9,0.9-1.9,1.9s0.9,1.9,1.9,1.9S336.8,194.8,336.8,193.7"/>
	<path d="M292.7,63.2c0-1.1-0.9-1.9-1.9-1.9c-1.1,0-1.9,0.9-1.9,1.9c0,1.1,0.9,1.9,1.9,1.9C291.8,65.1,292.7,64.3,292.7,63.2"/>
	<path d="M290.1,60.5c0-1.1-0.9-1.9-1.9-1.9c-1.1,0-1.9,0.9-1.9,1.9c0,1.1,0.9,1.9,1.9,1.9C289.2,62.5,290.1,61.6,290.1,60.5"/>
	<path d="M290.1,289.5c0-1.1-0.9-1.9-1.9-1.9c-1.1,0-1.9,0.9-1.9,1.9c0,1.1,0.9,1.9,1.9,1.9C289.2,291.4,290.1,290.5,290.1,289.5"/>
	<path d="M337.2,190c0-1.1-0.9-1.9-1.9-1.9s-1.9,0.9-1.9,1.9c0,1.1,0.9,1.9,1.9,1.9S337.2,191,337.2,190"/>
	<path d="M337.5,186.2c0-1.1-0.9-1.9-1.9-1.9c-1.1,0-1.9,0.9-1.9,1.9c0,1.1,0.9,1.9,1.9,1.9C336.6,188.2,337.5,187.3,337.5,186.2"/>
	<path d="M292.7,286.8c0-1.1-0.9-1.9-1.9-1.9c-1.1,0-1.9,0.9-1.9,1.9c0,1.1,0.9,1.9,1.9,1.9C291.8,288.7,292.7,287.9,292.7,286.8"/>
	<path d="M208.6,332.8c0-1.1-0.9-1.9-1.9-1.9c-1.1,0-1.9,0.9-1.9,1.9c0,1.1,0.9,1.9,1.9,1.9C207.7,334.7,208.6,333.9,208.6,332.8"/>
	<path d="M212.2,332c0-1.1-0.9-1.9-1.9-1.9c-1.1,0-1.9,0.9-1.9,1.9c0,1.1,0.9,1.9,1.9,1.9C211.4,334,212.2,333.1,212.2,332"/>
	<path d="M337.7,182.5c0-1.1-0.9-1.9-1.9-1.9c-1.1,0-1.9,0.9-1.9,1.9c0,1.1,0.9,1.9,1.9,1.9C336.8,184.4,337.7,183.6,337.7,182.5"/>
	<path d="M295.3,284.1c0-1.1-0.9-1.9-1.9-1.9c-1.1,0-1.9,0.9-1.9,1.9c0,1.1,0.9,1.9,1.9,1.9C294.4,286,295.3,285.1,295.3,284.1"/>
	<path d="M287.4,57.9c0-1.1-0.9-1.9-1.9-1.9c-1.1,0-1.9,0.9-1.9,1.9c0,1.1,0.9,1.9,1.9,1.9C286.5,59.9,287.4,59,287.4,57.9"/>
	<path d="M284.6,55.4c0-1.1-0.9-1.9-1.9-1.9s-1.9,0.9-1.9,1.9c0,1.1,0.9,1.9,1.9,1.9S284.6,56.5,284.6,55.4"/>
	<path d="M337.8,178.7c0-1.1-0.9-1.9-1.9-1.9c-1.1,0-1.9,0.9-1.9,1.9c0,1.1,0.9,1.9,1.9,1.9C337,180.7,337.8,179.8,337.8,178.7"/>
	<path d="M337.9,175c0-1.1-0.9-1.9-1.9-1.9c-1.1,0-1.9,0.9-1.9,1.9c0,1.1,0.9,1.9,1.9,1.9C337,176.9,337.9,176.1,337.9,175"/>
	<path d="M281.8,52.9c0-1.1-0.9-1.9-1.9-1.9c-1.1,0-1.9,0.9-1.9,1.9c0,1.1,0.9,1.9,1.9,1.9C280.9,54.9,281.8,54,281.8,52.9"/>
	<path d="M278.9,50.5c0-1.1-0.9-1.9-1.9-1.9c-1.1,0-1.9,0.9-1.9,1.9s0.9,1.9,1.9,1.9C278.1,52.5,278.9,51.6,278.9,50.5"/>
	<path d="M49,272.6c0-1.1-0.9-1.9-1.9-1.9c-1.1,0-1.9,0.9-1.9,1.9c0,1.1,0.9,1.9,1.9,1.9C48.1,274.5,49,273.7,49,272.6"/>
	<path d="M141.6,18c0-1.1-0.9-1.9-1.9-1.9c-1.1,0-1.9,0.9-1.9,1.9c0,1.1,0.9,1.9,1.9,1.9C140.8,19.9,141.6,19,141.6,18"/>
	<path d="M51.3,275.6c0-1.1-0.9-1.9-1.9-1.9c-1.1,0-1.9,0.9-1.9,1.9s0.9,1.9,1.9,1.9C50.4,277.5,51.3,276.6,51.3,275.6"/>
	<path d="M138,18.8c0-1.1-0.9-1.9-1.9-1.9s-1.9,0.9-1.9,1.9c0,1.1,0.9,1.9,1.9,1.9S138,19.9,138,18.8"/>
	<path d="M53.7,278.5c0-1.1-0.9-1.9-1.9-1.9c-1.1,0-1.9,0.9-1.9,1.9c0,1.1,0.9,1.9,1.9,1.9C52.8,280.4,53.7,279.5,53.7,278.5"/>
	<path d="M134.4,19.8c0-1.1-0.9-1.9-1.9-1.9c-1.1,0-1.9,0.9-1.9,1.9c0,1.1,0.9,1.9,1.9,1.9C133.5,21.7,134.4,20.9,134.4,19.8"/>
	<path d="M56.1,281.3c0-1.1-0.9-1.9-1.9-1.9c-1.1,0-1.9,0.9-1.9,1.9c0,1.1,0.9,1.9,1.9,1.9C55.2,283.2,56.1,282.4,56.1,281.3"/>
	<path d="M130.8,20.8c0-1.1-0.9-1.9-1.9-1.9c-1.1,0-1.9,0.9-1.9,1.9c0,1.1,0.9,1.9,1.9,1.9C129.9,22.8,130.8,21.9,130.8,20.8"/>
	<path d="M337.8,171.3c0-1.1-0.9-1.9-1.9-1.9c-1.1,0-1.9,0.9-1.9,1.9c0,1.1,0.9,1.9,1.9,1.9C337,173.2,337.8,172.3,337.8,171.3"/>
	<path d="M276,48.2c0-1.1-0.9-1.9-1.9-1.9c-1.1,0-1.9,0.9-1.9,1.9c0,1.1,0.9,1.9,1.9,1.9C275.2,50.1,276,49.2,276,48.2"/>
	<path d="M297.8,281.3c0-1.1-0.9-1.9-1.9-1.9c-1.1,0-1.9,0.9-1.9,1.9c0,1.1,0.9,1.9,1.9,1.9C296.9,283.2,297.8,282.4,297.8,281.3"/>
	<path d="M127.2,21.9c0-1.1-0.9-1.9-1.9-1.9c-1.1,0-1.9,0.9-1.9,1.9c0,1.1,0.9,1.9,1.9,1.9C126.3,23.9,127.2,23,127.2,21.9"/>
	<path d="M123.7,23.1c0-1.1-0.9-1.9-1.9-1.9c-1.1,0-1.9,0.9-1.9,1.9c0,1.1,0.9,1.9,1.9,1.9C122.8,25.1,123.7,24.2,123.7,23.1"/>
	<path d="M273,45.9c0-1.1-0.9-1.9-1.9-1.9c-1.1,0-1.9,0.9-1.9,1.9c0,1.1,0.9,1.9,1.9,1.9C272.2,47.8,273,47,273,45.9"/>
	<path d="M160.1,14.9c0-1.1-0.9-1.9-1.9-1.9c-1.1,0-1.9,0.9-1.9,1.9c0,1.1,0.9,1.9,1.9,1.9C159.2,16.9,160.1,16,160.1,14.9"/>
	<path d="M300.2,278.5c0-1.1-0.9-1.9-1.9-1.9c-1.1,0-1.9,0.9-1.9,1.9c0,1.1,0.9,1.9,1.9,1.9C299.4,280.4,300.2,279.5,300.2,278.5"/>
	<path d="M25.7,120c0-1.1-0.9-1.9-1.9-1.9c-1.1,0-1.9,0.9-1.9,1.9c0,1.1,0.9,1.9,1.9,1.9C24.8,121.9,25.7,121,25.7,120"/>
	<path d="M215.9,331.2c0-1.1-0.9-1.9-1.9-1.9s-1.9,0.9-1.9,1.9c0,1.1,0.9,1.9,1.9,1.9S215.9,332.2,215.9,331.2"/>
	<path d="M270,43.7c0-1.1-0.9-1.9-1.9-1.9c-1.1,0-1.9,0.9-1.9,1.9c0,1.1,0.9,1.9,1.9,1.9C269.1,45.6,270,44.8,270,43.7"/>
	<path d="M266.9,41.6c0-1.1-0.9-1.9-1.9-1.9s-1.9,0.9-1.9,1.9c0,1.1,0.9,1.9,1.9,1.9S266.9,42.6,266.9,41.6"/>
	<path d="M263.8,39.5c0-1.1-0.9-1.9-1.9-1.9c-1.1,0-1.9,0.9-1.9,1.9c0,1.1,0.9,1.9,1.9,1.9C262.9,41.5,263.8,40.6,263.8,39.5"/>
	<path d="M120.1,24.4c0-1.1-0.9-1.9-1.9-1.9c-1.1,0-1.9,0.9-1.9,1.9c0,1.1,0.9,1.9,1.9,1.9C119.3,26.4,120.1,25.5,120.1,24.4"/>
	<path d="M116.7,25.8c0-1.1-0.9-1.9-1.9-1.9c-1.1,0-1.9,0.9-1.9,1.9c0,1.1,0.9,1.9,1.9,1.9C115.8,27.7,116.7,26.9,116.7,25.8"/>
	<path d="M113.2,27.2c0-1.1-0.9-1.9-1.9-1.9c-1.1,0-1.9,0.9-1.9,1.9c0,1.1,0.9,1.9,1.9,1.9C112.3,29.2,113.2,28.3,113.2,27.2"/>
	<path d="M167.6,14.3c0-1.1-0.9-1.9-1.9-1.9c-1.1,0-1.9,0.9-1.9,1.9c0,1.1,0.9,1.9,1.9,1.9C166.7,16.3,167.6,15.4,167.6,14.3"/>
	<path d="M109.8,28.7c0-1.1-0.9-1.9-1.9-1.9c-1.1,0-1.9,0.9-1.9,1.9c0,1.1,0.9,1.9,1.9,1.9C108.9,30.7,109.8,29.8,109.8,28.7"/>
	<path d="M260.6,37.5c0-1.1-0.9-1.9-1.9-1.9c-1.1,0-1.9,0.9-1.9,1.9c0,1.1,0.9,1.9,1.9,1.9C259.8,39.5,260.6,38.6,260.6,37.5"/>
	<path d="M106.4,30.3c0-1.1-0.9-1.9-1.9-1.9c-1.1,0-1.9,0.9-1.9,1.9c0,1.1,0.9,1.9,1.9,1.9C105.5,32.3,106.4,31.4,106.4,30.3"/>
	<path d="M257.4,35.6c0-1.1-0.9-1.9-1.9-1.9c-1.1,0-1.9,0.9-1.9,1.9c0,1.1,0.9,1.9,1.9,1.9C256.5,37.6,257.4,36.7,257.4,35.6"/>
	<path d="M103,32c0-1.1-0.9-1.9-1.9-1.9c-1.1,0-1.9,0.9-1.9,1.9c0,1.1,0.9,1.9,1.9,1.9C102.2,34,103,33.1,103,32"/>
	<path d="M337.7,167.5c0-1.1-0.9-1.9-1.9-1.9c-1.1,0-1.9,0.9-1.9,1.9c0,1.1,0.9,1.9,1.9,1.9C336.8,169.5,337.7,168.6,337.7,167.5"/>
	<path d="M152.7,15.9c0-1.1-0.9-1.9-1.9-1.9c-1.1,0-1.9,0.9-1.9,1.9s0.9,1.9,1.9,1.9C151.8,17.8,152.7,17,152.7,15.9"/>
	<path d="M254.1,33.8c0-1.1-0.9-1.9-1.9-1.9c-1.1,0-1.9,0.9-1.9,1.9s0.9,1.9,1.9,1.9C253.3,35.7,254.1,34.9,254.1,33.8"/>
	<path d="M99.7,33.8c0-1.1-0.9-1.9-1.9-1.9c-1.1,0-1.9,0.9-1.9,1.9s0.9,1.9,1.9,1.9C98.9,35.7,99.7,34.9,99.7,33.8"/>
	<path d="M58.6,284.1c0-1.1-0.9-1.9-1.9-1.9c-1.1,0-1.9,0.9-1.9,1.9c0,1.1,0.9,1.9,1.9,1.9C57.7,286,58.6,285.1,58.6,284.1"/>
	<path d="M61.2,286.8c0-1.1-0.9-1.9-1.9-1.9c-1.1,0-1.9,0.9-1.9,1.9c0,1.1,0.9,1.9,1.9,1.9C60.3,288.7,61.2,287.9,61.2,286.8"/>
	<path d="M219.5,330.2c0-1.1-0.9-1.9-1.9-1.9c-1.1,0-1.9,0.9-1.9,1.9c0,1.1,0.9,1.9,1.9,1.9C218.6,332.2,219.5,331.3,219.5,330.2"/>
	<path d="M223.1,329.2c0-1.1-0.9-1.9-1.9-1.9c-1.1,0-1.9,0.9-1.9,1.9c0,1.1,0.9,1.9,1.9,1.9C222.2,331.1,223.1,330.3,223.1,329.2"/>
	<path d="M226.7,328.1c0-1.1-0.9-1.9-1.9-1.9c-1.1,0-1.9,0.9-1.9,1.9c0,1.1,0.9,1.9,1.9,1.9C225.8,330,226.7,329.1,226.7,328.1"/>
	<path d="M96.5,35.6c0-1.1-0.9-1.9-1.9-1.9c-1.1,0-1.9,0.9-1.9,1.9c0,1.1,0.9,1.9,1.9,1.9C95.6,37.6,96.5,36.7,96.5,35.6"/>
	<path d="M230.2,326.9c0-1.1-0.9-1.9-1.9-1.9c-1.1,0-1.9,0.9-1.9,1.9c0,1.1,0.9,1.9,1.9,1.9C229.4,328.8,230.2,327.9,230.2,326.9"/>
	<path d="M149,16.5c0-1.1-0.9-1.9-1.9-1.9c-1.1,0-1.9,0.9-1.9,1.9c0,1.1,0.9,1.9,1.9,1.9C148.1,18.4,149,17.6,149,16.5"/>
	<path d="M302.6,275.6c0-1.1-0.9-1.9-1.9-1.9c-1.1,0-1.9,0.9-1.9,1.9s0.9,1.9,1.9,1.9C301.7,277.5,302.6,276.6,302.6,275.6"/>
	<path d="M24.5,123.5c0-1.1-0.9-1.9-1.9-1.9c-1.1,0-1.9,0.9-1.9,1.9c0,1.1,0.9,1.9,1.9,1.9C23.6,125.4,24.5,124.6,24.5,123.5"/>
	<path d="M250.8,32c0-1.1-0.9-1.9-1.9-1.9c-1.1,0-1.9,0.9-1.9,1.9c0,1.1,0.9,1.9,1.9,1.9C250,34,250.8,33.1,250.8,32"/>
	<path d="M247.5,30.3c0-1.1-0.9-1.9-1.9-1.9c-1.1,0-1.9,0.9-1.9,1.9c0,1.1,0.9,1.9,1.9,1.9C246.6,32.3,247.5,31.4,247.5,30.3"/>
	<path d="M244.1,28.7c0-1.1-0.9-1.9-1.9-1.9s-1.9,0.9-1.9,1.9c0,1.1,0.9,1.9,1.9,1.9S244.1,29.8,244.1,28.7"/>
	<path d="M337.5,163.8c0-1.1-0.9-1.9-1.9-1.9c-1.1,0-1.9,0.9-1.9,1.9s0.9,1.9,1.9,1.9C336.6,165.7,337.5,164.8,337.5,163.8"/>
	<path d="M337.2,160c0-1.1-0.9-1.9-1.9-1.9s-1.9,0.9-1.9,1.9c0,1.1,0.9,1.9,1.9,1.9S337.2,161.1,337.2,160"/>
	<path d="M233.7,325.6c0-1.1-0.9-1.9-1.9-1.9c-1.1,0-1.9,0.9-1.9,1.9c0,1.1,0.9,1.9,1.9,1.9C232.9,327.5,233.7,326.7,233.7,325.6"/>
	<path d="M134.4,330.2c0-1.1-0.9-1.9-1.9-1.9c-1.1,0-1.9,0.9-1.9,1.9c0,1.1,0.9,1.9,1.9,1.9C133.5,332.2,134.4,331.3,134.4,330.2"/>
	<path d="M304.9,272.6c0-1.1-0.9-1.9-1.9-1.9c-1.1,0-1.9,0.9-1.9,1.9c0,1.1,0.9,1.9,1.9,1.9C304,274.5,304.9,273.7,304.9,272.6"/>
	<path d="M171.3,14.2c0-1.1-0.9-1.9-1.9-1.9c-1.1,0-1.9,0.9-1.9,1.9c0,1.1,0.9,1.9,1.9,1.9C170.5,16.1,171.3,15.2,171.3,14.2"/>
	<path d="M240.7,27.2c0-1.1-0.9-1.9-1.9-1.9c-1.1,0-1.9,0.9-1.9,1.9c0,1.1,0.9,1.9,1.9,1.9C239.8,29.2,240.7,28.3,240.7,27.2"/>
	<path d="M237.2,25.8c0-1.1-0.9-1.9-1.9-1.9c-1.1,0-1.9,0.9-1.9,1.9c0,1.1,0.9,1.9,1.9,1.9C236.4,27.7,237.2,26.9,237.2,25.8"/>
	<path d="M156.4,15.4c0-1.1-0.9-1.9-1.9-1.9s-1.9,0.9-1.9,1.9c0,1.1,0.9,1.9,1.9,1.9S156.4,16.4,156.4,15.4"/>
	<path d="M336.8,156.3c0-1.1-0.9-1.9-1.9-1.9s-1.9,0.9-1.9,1.9s0.9,1.9,1.9,1.9S336.8,157.4,336.8,156.3"/>
	<path d="M145.3,17.2c0-1.1-0.9-1.9-1.9-1.9c-1.1,0-1.9,0.9-1.9,1.9c0,1.1,0.9,1.9,1.9,1.9C144.4,19.1,145.3,18.3,145.3,17.2"/>
	<path d="M233.7,24.4c0-1.1-0.9-1.9-1.9-1.9c-1.1,0-1.9,0.9-1.9,1.9c0,1.1,0.9,1.9,1.9,1.9C232.9,26.4,233.7,25.5,233.7,24.4"/>
	<path d="M93.2,37.5c0-1.1-0.9-1.9-1.9-1.9c-1.1,0-1.9,0.9-1.9,1.9c0,1.1,0.9,1.9,1.9,1.9C92.4,39.5,93.2,38.6,93.2,37.5"/>
	<path d="M63.8,289.5c0-1.1-0.9-1.9-1.9-1.9c-1.1,0-1.9,0.9-1.9,1.9c0,1.1,0.9,1.9,1.9,1.9C62.9,291.4,63.8,290.5,63.8,289.5"/>
	<path d="M90.1,39.5c0-1.1-0.9-1.9-1.9-1.9c-1.1,0-1.9,0.9-1.9,1.9c0,1.1,0.9,1.9,1.9,1.9C89.2,41.5,90.1,40.6,90.1,39.5"/>
	<path d="M336.3,152.6c0-1.1-0.9-1.9-1.9-1.9c-1.1,0-1.9,0.9-1.9,1.9c0,1.1,0.9,1.9,1.9,1.9C335.4,154.5,336.3,153.7,336.3,152.6"/>
	<path d="M237.2,324.2c0-1.1-0.9-1.9-1.9-1.9c-1.1,0-1.9,0.9-1.9,1.9c0,1.1,0.9,1.9,1.9,1.9C236.4,326.2,237.2,325.3,237.2,324.2"/>
	<path d="M307.1,269.6c0-1.1-0.9-1.9-1.9-1.9s-1.9,0.9-1.9,1.9c0,1.1,0.9,1.9,1.9,1.9S307.1,270.7,307.1,269.6"/>
	<path d="M230.2,23.1c0-1.1-0.9-1.9-1.9-1.9c-1.1,0-1.9,0.9-1.9,1.9c0,1.1,0.9,1.9,1.9,1.9C229.4,25.1,230.2,24.2,230.2,23.1"/>
	<path d="M335.7,148.9c0-1.1-0.9-1.9-1.9-1.9s-1.9,0.9-1.9,1.9s0.9,1.9,1.9,1.9S335.7,150,335.7,148.9"/>
	<path d="M226.7,21.9c0-1.1-0.9-1.9-1.9-1.9c-1.1,0-1.9,0.9-1.9,1.9c0,1.1,0.9,1.9,1.9,1.9C225.8,23.9,226.7,23,226.7,21.9"/>
	<path d="M51.3,74.4c0-1.1-0.9-1.9-1.9-1.9c-1.1,0-1.9,0.9-1.9,1.9c0,1.1,0.9,1.9,1.9,1.9C50.4,76.4,51.3,75.5,51.3,74.4"/>
	<path d="M49,77.4c0-1.1-0.9-1.9-1.9-1.9c-1.1,0-1.9,0.9-1.9,1.9c0,1.1,0.9,1.9,1.9,1.9C48.1,79.3,49,78.5,49,77.4"/>
	<path d="M46.7,80.4c0-1.1-0.9-1.9-1.9-1.9c-1.1,0-1.9,0.9-1.9,1.9c0,1.1,0.9,1.9,1.9,1.9C45.9,82.3,46.7,81.5,46.7,80.4"/>
	<path d="M44.6,83.5c0-1.1-0.9-1.9-1.9-1.9c-1.1,0-1.9,0.9-1.9,1.9c0,1.1,0.9,1.9,1.9,1.9C43.7,85.4,44.6,84.5,44.6,83.5"/>
	<path d="M42.5,86.6c0-1.1-0.9-1.9-1.9-1.9c-1.1,0-1.9,0.9-1.9,1.9c0,1.1,0.9,1.9,1.9,1.9C41.6,88.5,42.5,87.6,42.5,86.6"/>
	<path d="M40.5,89.7c0-1.1-0.9-1.9-1.9-1.9c-1.1,0-1.9,0.9-1.9,1.9c0,1.1,0.9,1.9,1.9,1.9C39.6,91.7,40.5,90.8,40.5,89.7"/>
	<path d="M38.5,92.9c0-1.1-0.9-1.9-1.9-1.9c-1.1,0-1.9,0.9-1.9,1.9c0,1.1,0.9,1.9,1.9,1.9C37.6,94.9,38.5,94,38.5,92.9"/>
	<path d="M36.6,96.2c0-1.1-0.9-1.9-1.9-1.9c-1.1,0-1.9,0.9-1.9,1.9c0,1.1,0.9,1.9,1.9,1.9C35.8,98.1,36.6,97.2,36.6,96.2"/>
	<path d="M34.8,99.4c0-1.1-0.9-1.9-1.9-1.9c-1.1,0-1.9,0.9-1.9,1.9c0,1.1,0.9,1.9,1.9,1.9C34,101.4,34.8,100.5,34.8,99.4"/>
	<path d="M33.1,102.8c0-1.1-0.9-1.9-1.9-1.9c-1.1,0-1.9,0.9-1.9,1.9c0,1.1,0.9,1.9,1.9,1.9C32.2,104.7,33.1,103.8,33.1,102.8"/>
	<path d="M163.8,14.6c0-1.1-0.9-1.9-1.9-1.9c-1.1,0-1.9,0.9-1.9,1.9c0,1.1,0.9,1.9,1.9,1.9C163,16.5,163.8,15.7,163.8,14.6"/>
	<path d="M31.5,106.1c0-1.1-0.9-1.9-1.9-1.9c-1.1,0-1.9,0.9-1.9,1.9c0,1.1,0.9,1.9,1.9,1.9C30.6,108.1,31.5,107.2,31.5,106.1"/>
	<path d="M335.1,145.2c0-1.1-0.9-1.9-1.9-1.9c-1.1,0-1.9,0.9-1.9,1.9c0,1.1,0.9,1.9,1.9,1.9C334.2,147.2,335.1,146.3,335.1,145.2"/>
	<path d="M334.4,141.5c0-1.1-0.9-1.9-1.9-1.9c-1.1,0-1.9,0.9-1.9,1.9c0,1.1,0.9,1.9,1.9,1.9C333.5,143.5,334.4,142.6,334.4,141.5"/>
	<path d="M309.3,266.5c0-1.1-0.9-1.9-1.9-1.9c-1.1,0-1.9,0.9-1.9,1.9c0,1.1,0.9,1.9,1.9,1.9C308.4,268.5,309.3,267.6,309.3,266.5"/>
	<path d="M311.4,263.4c0-1.1-0.9-1.9-1.9-1.9c-1.1,0-1.9,0.9-1.9,1.9c0,1.1,0.9,1.9,1.9,1.9C310.5,265.4,311.4,264.5,311.4,263.4"/>
	<path d="M223.1,20.8c0-1.1-0.9-1.9-1.9-1.9c-1.1,0-1.9,0.9-1.9,1.9c0,1.1,0.9,1.9,1.9,1.9C222.2,22.8,223.1,21.9,223.1,20.8"/>
	<path d="M313.4,260.3c0-1.1-0.9-1.9-1.9-1.9c-1.1,0-1.9,0.9-1.9,1.9c0,1.1,0.9,1.9,1.9,1.9C312.6,262.2,313.4,261.4,313.4,260.3"/>
	<path d="M138,331.2c0-1.1-0.9-1.9-1.9-1.9s-1.9,0.9-1.9,1.9c0,1.1,0.9,1.9,1.9,1.9S138,332.2,138,331.2"/>
	<path d="M219.5,19.8c0-1.1-0.9-1.9-1.9-1.9c-1.1,0-1.9,0.9-1.9,1.9c0,1.1,0.9,1.9,1.9,1.9C218.6,21.7,219.5,20.9,219.5,19.8"/>
	<path d="M141.6,332c0-1.1-0.9-1.9-1.9-1.9c-1.1,0-1.9,0.9-1.9,1.9c0,1.1,0.9,1.9,1.9,1.9C140.8,334,141.6,333.1,141.6,332"/>
	<path d="M215.9,18.8c0-1.1-0.9-1.9-1.9-1.9s-1.9,0.9-1.9,1.9c0,1.1,0.9,1.9,1.9,1.9S215.9,19.9,215.9,18.8"/>
	<path d="M66.5,292.1c0-1.1-0.9-1.9-1.9-1.9c-1.1,0-1.9,0.9-1.9,1.9c0,1.1,0.9,1.9,1.9,1.9C65.6,294,66.5,293.1,66.5,292.1"/>
	<path d="M333.5,137.9c0-1.1-0.9-1.9-1.9-1.9c-1.1,0-1.9,0.9-1.9,1.9c0,1.1,0.9,1.9,1.9,1.9C332.7,139.8,333.5,139,333.5,137.9"/>
	<path d="M212.2,18c0-1.1-0.9-1.9-1.9-1.9c-1.1,0-1.9,0.9-1.9,1.9c0,1.1,0.9,1.9,1.9,1.9C211.4,19.9,212.2,19,212.2,18"/>
	<path d="M69.2,294.6c0-1.1-0.9-1.9-1.9-1.9c-1.1,0-1.9,0.9-1.9,1.9c0,1.1,0.9,1.9,1.9,1.9C68.4,296.5,69.2,295.7,69.2,294.6"/>
	<path d="M240.7,322.8c0-1.1-0.9-1.9-1.9-1.9c-1.1,0-1.9,0.9-1.9,1.9s0.9,1.9,1.9,1.9C239.8,324.7,240.7,323.8,240.7,322.8"/>
	<path d="M208.6,17.2c0-1.1-0.9-1.9-1.9-1.9c-1.1,0-1.9,0.9-1.9,1.9c0,1.1,0.9,1.9,1.9,1.9C207.7,19.1,208.6,18.3,208.6,17.2"/>
	<path d="M23.3,127.1c0-1.1-0.9-1.9-1.9-1.9c-1.1,0-1.9,0.9-1.9,1.9c0,1.1,0.9,1.9,1.9,1.9C22.4,129,23.3,128.1,23.3,127.1"/>
	<path d="M22.2,130.6c0-1.1-0.9-1.9-1.9-1.9c-1.1,0-1.9,0.9-1.9,1.9s0.9,1.9,1.9,1.9C21.4,132.6,22.2,131.7,22.2,130.6"/>
	<path d="M72.1,297.1c0-1.1-0.9-1.9-1.9-1.9c-1.1,0-1.9,0.9-1.9,1.9c0,1.1,0.9,1.9,1.9,1.9C71.2,299,72.1,298.1,72.1,297.1"/>
	<path d="M332.6,134.2c0-1.1-0.9-1.9-1.9-1.9c-1.1,0-1.9,0.9-1.9,1.9c0,1.1,0.9,1.9,1.9,1.9C331.8,136.2,332.6,135.3,332.6,134.2"/>
	<path d="M331.6,130.6c0-1.1-0.9-1.9-1.9-1.9c-1.1,0-1.9,0.9-1.9,1.9s0.9,1.9,1.9,1.9C330.8,132.6,331.6,131.7,331.6,130.6"/>
	<path d="M204.9,16.5c0-1.1-0.9-1.9-1.9-1.9c-1.1,0-1.9,0.9-1.9,1.9c0,1.1,0.9,1.9,1.9,1.9C204,18.4,204.9,17.6,204.9,16.5"/>
	<path d="M330.6,127.1c0-1.1-0.9-1.9-1.9-1.9c-1.1,0-1.9,0.9-1.9,1.9c0,1.1,0.9,1.9,1.9,1.9C329.7,129,330.6,128.1,330.6,127.1"/>
	<path d="M329.4,123.5c0-1.1-0.9-1.9-1.9-1.9c-1.1,0-1.9,0.9-1.9,1.9c0,1.1,0.9,1.9,1.9,1.9C328.5,125.4,329.4,124.6,329.4,123.5"/>
	<path d="M74.9,299.5c0-1.1-0.9-1.9-1.9-1.9c-1.1,0-1.9,0.9-1.9,1.9c0,1.1,0.9,1.9,1.9,1.9C74.1,301.4,74.9,300.6,74.9,299.5"/>
	<path d="M77.9,301.8c0-1.1-0.9-1.9-1.9-1.9c-1.1,0-1.9,0.9-1.9,1.9c0,1.1,0.9,1.9,1.9,1.9C77,303.8,77.9,302.9,77.9,301.8"/>
	<path d="M244.1,321.3c0-1.1-0.9-1.9-1.9-1.9s-1.9,0.9-1.9,1.9c0,1.1,0.9,1.9,1.9,1.9S244.1,322.3,244.1,321.3"/>
	<path d="M145.3,332.8c0-1.1-0.9-1.9-1.9-1.9c-1.1,0-1.9,0.9-1.9,1.9c0,1.1,0.9,1.9,1.9,1.9C144.4,334.7,145.3,333.9,145.3,332.8"/>
	<path d="M201.2,15.9c0-1.1-0.9-1.9-1.9-1.9c-1.1,0-1.9,0.9-1.9,1.9s0.9,1.9,1.9,1.9C200.3,17.8,201.2,17,201.2,15.9"/>
	<path d="M247.5,319.7c0-1.1-0.9-1.9-1.9-1.9c-1.1,0-1.9,0.9-1.9,1.9c0,1.1,0.9,1.9,1.9,1.9C246.6,321.6,247.5,320.7,247.5,319.7"/>
	<path d="M315.4,257.1c0-1.1-0.9-1.9-1.9-1.9c-1.1,0-1.9,0.9-1.9,1.9c0,1.1,0.9,1.9,1.9,1.9C314.5,259,315.4,258.2,315.4,257.1"/>
	<path d="M317.2,253.8c0-1.1-0.9-1.9-1.9-1.9c-1.1,0-1.9,0.9-1.9,1.9c0,1.1,0.9,1.9,1.9,1.9C316.4,255.8,317.2,254.9,317.2,253.8"/>
	<path d="M197.5,15.4c0-1.1-0.9-1.9-1.9-1.9c-1.1,0-1.9,0.9-1.9,1.9c0,1.1,0.9,1.9,1.9,1.9C196.6,17.3,197.5,16.4,197.5,15.4"/>
	<path d="M328.2,120c0-1.1-0.9-1.9-1.9-1.9c-1.1,0-1.9,0.9-1.9,1.9c0,1.1,0.9,1.9,1.9,1.9C327.3,121.9,328.2,121,328.2,120"/>
	<path d="M28.4,113c0-1.1-0.9-1.9-1.9-1.9c-1.1,0-1.9,0.9-1.9,1.9c0,1.1,0.9,1.9,1.9,1.9C27.6,114.9,28.4,114.1,28.4,113"/>
	<path d="M31.5,243.9c0-1.1-0.9-1.9-1.9-1.9c-1.1,0-1.9,0.9-1.9,1.9c0,1.1,0.9,1.9,1.9,1.9C30.6,245.8,31.5,244.9,31.5,243.9"/>
	<path d="M326.9,116.5c0-1.1-0.9-1.9-1.9-1.9c-1.1,0-1.9,0.9-1.9,1.9c0,1.1,0.9,1.9,1.9,1.9C326,118.4,326.9,117.5,326.9,116.5"/>
	<path d="M319,250.6c0-1.1-0.9-1.9-1.9-1.9c-1.1,0-1.9,0.9-1.9,1.9c0,1.1,0.9,1.9,1.9,1.9C318.2,252.5,319,251.6,319,250.6"/>
	<path d="M149,333.5c0-1.1-0.9-1.9-1.9-1.9c-1.1,0-1.9,0.9-1.9,1.9c0,1.1,0.9,1.9,1.9,1.9C148.1,335.4,149,334.6,149,333.5"/>
	<path d="M152.7,334.1c0-1.1-0.9-1.9-1.9-1.9c-1.1,0-1.9,0.9-1.9,1.9c0,1.1,0.9,1.9,1.9,1.9C151.8,336,152.7,335.2,152.7,334.1"/>
	<path d="M250.8,318c0-1.1-0.9-1.9-1.9-1.9c-1.1,0-1.9,0.9-1.9,1.9c0,1.1,0.9,1.9,1.9,1.9C250,319.9,250.8,319,250.8,318"/>
	<path d="M254.1,316.2c0-1.1-0.9-1.9-1.9-1.9c-1.1,0-1.9,0.9-1.9,1.9s0.9,1.9,1.9,1.9C253.3,318.2,254.1,317.3,254.1,316.2"/>
	<path d="M193.8,14.9c0-1.1-0.9-1.9-1.9-1.9c-1.1,0-1.9,0.9-1.9,1.9c0,1.1,0.9,1.9,1.9,1.9C192.9,16.9,193.8,16,193.8,14.9"/>
	<path d="M325.5,113c0-1.1-0.9-1.9-1.9-1.9c-1.1,0-1.9,0.9-1.9,1.9c0,1.1,0.9,1.9,1.9,1.9C324.6,114.9,325.5,114.1,325.5,113"/>
	<path d="M80.8,304.1c0-1.1-0.9-1.9-1.9-1.9c-1.1,0-1.9,0.9-1.9,1.9c0,1.1,0.9,1.9,1.9,1.9C80,306,80.8,305.2,80.8,304.1"/>
	<path d="M320.8,247.2c0-1.1-0.9-1.9-1.9-1.9c-1.1,0-1.9,0.9-1.9,1.9c0,1.1,0.9,1.9,1.9,1.9C319.9,249.2,320.8,248.3,320.8,247.2"/>
	<path d="M190,14.6c0-1.1-0.9-1.9-1.9-1.9c-1.1,0-1.9,0.9-1.9,1.9c0,1.1,0.9,1.9,1.9,1.9C189.2,16.5,190,15.7,190,14.6"/>
	<path d="M186.3,14.3c0-1.1-0.9-1.9-1.9-1.9c-1.1,0-1.9,0.9-1.9,1.9c0,1.1,0.9,1.9,1.9,1.9C185.4,16.3,186.3,15.4,186.3,14.3"/>
	<path d="M324,109.5c0-1.1-0.9-1.9-1.9-1.9s-1.9,0.9-1.9,1.9c0,1.1,0.9,1.9,1.9,1.9S324,110.6,324,109.5"/>
	<path d="M156.4,334.6c0-1.1-0.9-1.9-1.9-1.9s-1.9,0.9-1.9,1.9c0,1.1,0.9,1.9,1.9,1.9S156.4,335.7,156.4,334.6"/>
	<path d="M322.4,243.9c0-1.1-0.9-1.9-1.9-1.9s-1.9,0.9-1.9,1.9c0,1.1,0.9,1.9,1.9,1.9S322.4,244.9,322.4,243.9"/>
	<path d="M160.1,335.1c0-1.1-0.9-1.9-1.9-1.9c-1.1,0-1.9,0.9-1.9,1.9c0,1.1,0.9,1.9,1.9,1.9C159.2,337,160.1,336.1,160.1,335.1"/>
	<path d="M182.6,14.2c0-1.1-0.9-1.9-1.9-1.9c-1.1,0-1.9,0.9-1.9,1.9c0,1.1,0.9,1.9,1.9,1.9C181.7,16.1,182.6,15.2,182.6,14.2"/>
	<path d="M322.4,106.1c0-1.1-0.9-1.9-1.9-1.9s-1.9,0.9-1.9,1.9c0,1.1,0.9,1.9,1.9,1.9S322.4,107.2,322.4,106.1"/>
	<path d="M324,240.5c0-1.1-0.9-1.9-1.9-1.9s-1.9,0.9-1.9,1.9c0,1.1,0.9,1.9,1.9,1.9S324,241.5,324,240.5"/>
	<path d="M178.8,14.1c0-1.1-0.9-1.9-1.9-1.9s-1.9,0.9-1.9,1.9c0,1.1,0.9,1.9,1.9,1.9S178.8,15.1,178.8,14.1"/>
</g>
</svg>
