<?xml version="1.0" encoding="utf-8"?>
<!-- Generator: Adobe Illustrator 21.1.0, SVG Export Plug-In . SVG Version: 6.00 Build 0)  -->
<svg version="1.1" id="Layer_1" xmlns="http://www.w3.org/2000/svg" xmlns:xlink="http://www.w3.org/1999/xlink" x="0px" y="0px"
	 viewBox="0 0 350 350" style="enable-background:new 0 0 350 350;" xml:space="preserve">
<style type="text/css">
	.st0{fill:none;stroke:#231F20;stroke-width:0.75;stroke-miterlimit:10;}
</style>
<g>
	<line class="st0" x1="76" y1="49" x2="172.3" y2="14.8"/>
	<line class="st0" x1="76" y1="49" x2="134.4" y2="20"/>
	<line class="st0" x1="76" y1="49" x2="129.1" y2="21.5"/>
	<line class="st0" x1="31.5" y1="246.3" x2="172.3" y2="14.8"/>
	<line class="st0" x1="31.5" y1="246.3" x2="166.8" y2="15"/>
	<line class="st0" x1="71.8" y1="52.4" x2="172.3" y2="14.8"/>
	<line class="st0" x1="71.8" y1="52.4" x2="34" y2="251.1"/>
	<line class="st0" x1="71.8" y1="52.4" x2="166.8" y2="15"/>
	<line class="st0" x1="67.6" y1="56" x2="63.6" y2="59.8"/>
	<line class="st0" x1="67.6" y1="56" x2="269.6" y2="45.7"/>
	<line class="st0" x1="67.6" y1="56" x2="226.1" y2="23.1"/>
	<line class="st0" x1="36.7" y1="255.9" x2="39.5" y2="260.6"/>
	<line class="st0" x1="36.7" y1="255.9" x2="155.9" y2="15.9"/>
	<line class="st0" x1="118.8" y1="24.9" x2="172.3" y2="14.8"/>
	<line class="st0" x1="118.8" y1="24.9" x2="42.5" y2="265.2"/>
	<line class="st0" x1="118.8" y1="24.9" x2="278.2" y2="52.4"/>
	<line class="st0" x1="118.8" y1="24.9" x2="231.2" y2="24.9"/>
	<line class="st0" x1="59.8" y1="63.6" x2="334.1" y2="194.1"/>
	<line class="st0" x1="59.8" y1="63.6" x2="18.7" y2="139.7"/>
	<line class="st0" x1="59.8" y1="63.6" x2="269.6" y2="304.3"/>
	<line class="st0" x1="45.7" y1="269.6" x2="172.3" y2="14.8"/>
	<line class="st0" x1="45.7" y1="269.6" x2="166.8" y2="15"/>
	<line class="st0" x1="49" y1="274" x2="172.3" y2="14.8"/>
	<line class="st0" x1="49" y1="274" x2="334.7" y2="188.7"/>
	<line class="st0" x1="52.4" y1="278.2" x2="56" y2="67.6"/>
	<line class="st0" x1="52.4" y1="278.2" x2="236.3" y2="27"/>
	<line class="st0" x1="113.7" y1="27" x2="172.3" y2="14.8"/>
	<line class="st0" x1="113.7" y1="27" x2="56" y2="282.4"/>
	<line class="st0" x1="113.7" y1="27" x2="155.9" y2="15.9"/>
	<line class="st0" x1="113.7" y1="27" x2="241.3" y2="320.9"/>
	<line class="st0" x1="59.8" y1="286.4" x2="172.3" y2="14.8"/>
	<line class="st0" x1="59.8" y1="286.4" x2="23.1" y2="123.9"/>
	<line class="st0" x1="63.6" y1="290.2" x2="172.3" y2="14.8"/>
	<line class="st0" x1="63.6" y1="290.2" x2="39.5" y2="260.6"/>
	<line class="st0" x1="67.6" y1="294" x2="172.3" y2="14.8"/>
	<line class="st0" x1="67.6" y1="294" x2="335" y2="183.2"/>
	<line class="st0" x1="108.7" y1="29.1" x2="172.3" y2="14.8"/>
	<line class="st0" x1="108.7" y1="29.1" x2="23.1" y2="123.9"/>
	<line class="st0" x1="108.7" y1="29.1" x2="155.9" y2="15.9"/>
	<line class="st0" x1="108.7" y1="29.1" x2="274" y2="301"/>
	<line class="st0" x1="71.8" y1="297.6" x2="172.3" y2="14.8"/>
	<line class="st0" x1="71.8" y1="297.6" x2="166.8" y2="15"/>
	<line class="st0" x1="76" y1="301" x2="172.3" y2="14.8"/>
	<line class="st0" x1="76" y1="301" x2="134.4" y2="20"/>
	<line class="st0" x1="52.4" y1="71.8" x2="56" y2="282.4"/>
	<line class="st0" x1="52.4" y1="71.8" x2="134.4" y2="20"/>
	<line class="st0" x1="52.4" y1="71.8" x2="330" y2="134.4"/>
	<line class="st0" x1="49" y1="76" x2="161.3" y2="15.3"/>
	<line class="st0" x1="49" y1="76" x2="139.7" y2="18.7"/>
	<line class="st0" x1="49" y1="76" x2="23.1" y2="226.1"/>
	<line class="st0" x1="103.7" y1="31.5" x2="172.3" y2="14.8"/>
	<line class="st0" x1="103.7" y1="31.5" x2="166.8" y2="15"/>
	<line class="st0" x1="103.7" y1="31.5" x2="145.1" y2="17.6"/>
	<line class="st0" x1="103.7" y1="31.5" x2="18.7" y2="139.7"/>
	<line class="st0" x1="45.7" y1="80.4" x2="150.5" y2="16.6"/>
	<line class="st0" x1="45.7" y1="80.4" x2="328.5" y2="129.1"/>
	<line class="st0" x1="45.7" y1="80.4" x2="310.5" y2="89.4"/>
	<line class="st0" x1="42.5" y1="84.8" x2="172.3" y2="14.8"/>
	<line class="st0" x1="42.5" y1="84.8" x2="166.8" y2="15"/>
	<line class="st0" x1="42.5" y1="84.8" x2="39.5" y2="89.4"/>
	<line class="st0" x1="36.7" y1="94.1" x2="166.8" y2="15"/>
	<line class="st0" x1="36.7" y1="94.1" x2="145.1" y2="17.6"/>
	<line class="st0" x1="36.7" y1="94.1" x2="188.7" y2="334.7"/>
	<line class="st0" x1="80.4" y1="304.3" x2="34" y2="251.1"/>
	<line class="st0" x1="80.4" y1="304.3" x2="145.1" y2="17.6"/>
	<line class="st0" x1="34" y1="98.9" x2="172.3" y2="14.8"/>
	<line class="st0" x1="34" y1="98.9" x2="166.8" y2="15"/>
	<line class="st0" x1="34" y1="98.9" x2="286.4" y2="59.8"/>
	<line class="st0" x1="335.2" y1="177.7" x2="161.3" y2="15.3"/>
	<line class="st0" x1="84.8" y1="307.5" x2="172.3" y2="14.8"/>
	<line class="st0" x1="84.8" y1="307.5" x2="166.8" y2="15"/>
	<line class="st0" x1="89.4" y1="310.5" x2="172.3" y2="14.8"/>
	<line class="st0" x1="89.4" y1="310.5" x2="166.8" y2="15"/>
	<line class="st0" x1="94.1" y1="313.3" x2="172.3" y2="14.8"/>
	<line class="st0" x1="94.1" y1="313.3" x2="265.2" y2="307.5"/>
	<line class="st0" x1="31.5" y1="103.7" x2="172.3" y2="14.8"/>
	<line class="st0" x1="31.5" y1="103.7" x2="330" y2="215.6"/>
	<line class="st0" x1="31.5" y1="103.7" x2="333.4" y2="199.5"/>
	<line class="st0" x1="29.1" y1="108.7" x2="172.3" y2="14.8"/>
	<line class="st0" x1="29.1" y1="108.7" x2="166.8" y2="15"/>
	<line class="st0" x1="29.1" y1="108.7" x2="145.1" y2="17.6"/>
	<line class="st0" x1="98.9" y1="34" x2="172.3" y2="14.8"/>
	<line class="st0" x1="98.9" y1="34" x2="166.8" y2="15"/>
	<line class="st0" x1="98.9" y1="34" x2="139.7" y2="18.7"/>
	<line class="st0" x1="98.9" y1="34" x2="304.3" y2="269.6"/>
	<line class="st0" x1="98.9" y1="316" x2="172.3" y2="14.8"/>
	<line class="st0" x1="98.9" y1="316" x2="129.1" y2="21.5"/>
	<line class="st0" x1="335.2" y1="172.3" x2="150.5" y2="16.6"/>
	<line class="st0" x1="27" y1="113.7" x2="42.5" y2="265.2"/>
	<line class="st0" x1="27" y1="113.7" x2="56" y2="67.6"/>
	<line class="st0" x1="27" y1="113.7" x2="188.7" y2="15.3"/>
	<line class="st0" x1="94.1" y1="36.7" x2="166.8" y2="15"/>
	<line class="st0" x1="94.1" y1="36.7" x2="129.1" y2="21.5"/>
	<line class="st0" x1="94.1" y1="36.7" x2="29.1" y2="241.3"/>
	<line class="st0" x1="94.1" y1="36.7" x2="199.5" y2="16.6"/>
	<line class="st0" x1="103.7" y1="318.5" x2="172.3" y2="14.8"/>
	<line class="st0" x1="103.7" y1="318.5" x2="150.5" y2="333.4"/>
	<line class="st0" x1="24.9" y1="118.8" x2="161.3" y2="15.3"/>
	<line class="st0" x1="24.9" y1="118.8" x2="39.5" y2="89.4"/>
	<line class="st0" x1="24.9" y1="118.8" x2="246.3" y2="31.5"/>
	<line class="st0" x1="108.7" y1="320.9" x2="166.8" y2="15"/>
	<line class="st0" x1="108.7" y1="320.9" x2="113.7" y2="323"/>
	<line class="st0" x1="89.4" y1="39.5" x2="166.8" y2="15"/>
	<line class="st0" x1="89.4" y1="39.5" x2="23.1" y2="123.9"/>
	<line class="st0" x1="89.4" y1="39.5" x2="123.9" y2="23.1"/>
	<line class="st0" x1="89.4" y1="39.5" x2="269.6" y2="304.3"/>
	<line class="st0" x1="21.5" y1="129.1" x2="161.3" y2="15.3"/>
	<line class="st0" x1="21.5" y1="129.1" x2="118.8" y2="325.1"/>
	<line class="st0" x1="21.5" y1="129.1" x2="304.3" y2="80.4"/>
	<line class="st0" x1="335" y1="166.8" x2="161.3" y2="15.3"/>
	<line class="st0" x1="123.9" y1="326.9" x2="172.3" y2="14.8"/>
	<line class="st0" x1="123.9" y1="326.9" x2="145.1" y2="17.6"/>
	<line class="st0" x1="84.8" y1="42.5" x2="172.3" y2="14.8"/>
	<line class="st0" x1="84.8" y1="42.5" x2="150.5" y2="16.6"/>
	<line class="st0" x1="84.8" y1="42.5" x2="21.5" y2="220.9"/>
	<line class="st0" x1="84.8" y1="42.5" x2="255.9" y2="36.7"/>
	<line class="st0" x1="334.7" y1="161.3" x2="161.3" y2="15.3"/>
	<line class="st0" x1="129.1" y1="328.5" x2="172.3" y2="14.8"/>
	<line class="st0" x1="129.1" y1="328.5" x2="333.4" y2="199.5"/>
	<line class="st0" x1="134.4" y1="330" x2="172.3" y2="14.8"/>
	<line class="st0" x1="134.4" y1="330" x2="166.8" y2="15"/>
	<line class="st0" x1="139.7" y1="331.3" x2="172.3" y2="14.8"/>
	<line class="st0" x1="139.7" y1="331.3" x2="166.8" y2="15"/>
	<line class="st0" x1="20" y1="134.4" x2="172.3" y2="14.8"/>
	<line class="st0" x1="20" y1="134.4" x2="18.7" y2="139.7"/>
	<line class="st0" x1="20" y1="134.4" x2="330" y2="215.6"/>
	<line class="st0" x1="334.1" y1="155.9" x2="123.9" y2="23.1"/>
	<line class="st0" x1="17.6" y1="145.1" x2="333.4" y2="150.5"/>
	<line class="st0" x1="17.6" y1="145.1" x2="21.5" y2="220.9"/>
	<line class="st0" x1="17.6" y1="145.1" x2="290.2" y2="63.6"/>
	<line class="st0" x1="16.6" y1="150.5" x2="15.9" y2="155.9"/>
	<line class="st0" x1="16.6" y1="150.5" x2="80.4" y2="45.7"/>
	<line class="st0" x1="16.6" y1="150.5" x2="316" y2="251.1"/>
	<line class="st0" x1="15.3" y1="161.3" x2="63.6" y2="59.8"/>
	<line class="st0" x1="15.3" y1="161.3" x2="332.4" y2="145.1"/>
	<line class="st0" x1="15.3" y1="161.3" x2="323" y2="236.3"/>
	<line class="st0" x1="145.1" y1="332.4" x2="150.5" y2="333.4"/>
	<line class="st0" x1="145.1" y1="332.4" x2="265.2" y2="307.5"/>
	<line class="st0" x1="15" y1="166.8" x2="172.3" y2="14.8"/>
	<line class="st0" x1="15" y1="166.8" x2="155.9" y2="15.9"/>
	<line class="st0" x1="15" y1="166.8" x2="318.5" y2="246.3"/>
	<line class="st0" x1="155.9" y1="334.1" x2="166.8" y2="15"/>
	<line class="st0" x1="155.9" y1="334.1" x2="331.3" y2="139.7"/>
	<line class="st0" x1="14.8" y1="172.3" x2="172.3" y2="14.8"/>
	<line class="st0" x1="14.8" y1="172.3" x2="145.1" y2="17.6"/>
	<line class="st0" x1="14.8" y1="172.3" x2="155.9" y2="15.9"/>
	<line class="st0" x1="161.3" y1="334.7" x2="172.3" y2="14.8"/>
	<line class="st0" x1="161.3" y1="334.7" x2="166.8" y2="15"/>
	<line class="st0" x1="166.8" y1="335" x2="172.3" y2="14.8"/>
	<line class="st0" x1="166.8" y1="335" x2="150.5" y2="16.6"/>
	<line class="st0" x1="14.8" y1="177.7" x2="56" y2="67.6"/>
	<line class="st0" x1="14.8" y1="177.7" x2="172.3" y2="335.2"/>
	<line class="st0" x1="14.8" y1="177.7" x2="307.5" y2="84.8"/>
	<line class="st0" x1="177.7" y1="335.2" x2="161.3" y2="15.3"/>
	<line class="st0" x1="177.7" y1="335.2" x2="23.1" y2="226.1"/>
	<line class="st0" x1="183.2" y1="335" x2="172.3" y2="14.8"/>
	<line class="st0" x1="183.2" y1="335" x2="113.7" y2="323"/>
	<line class="st0" x1="15" y1="183.2" x2="118.8" y2="325.1"/>
	<line class="st0" x1="15" y1="183.2" x2="18.7" y2="210.3"/>
	<line class="st0" x1="15" y1="183.2" x2="220.9" y2="21.5"/>
	<line class="st0" x1="194.1" y1="334.1" x2="172.3" y2="14.8"/>
	<line class="st0" x1="194.1" y1="334.1" x2="155.9" y2="15.9"/>
	<line class="st0" x1="15.3" y1="188.7" x2="172.3" y2="14.8"/>
	<line class="st0" x1="15.3" y1="188.7" x2="161.3" y2="15.3"/>
	<line class="st0" x1="15.3" y1="188.7" x2="139.7" y2="18.7"/>
	<line class="st0" x1="199.5" y1="333.4" x2="172.3" y2="14.8"/>
	<line class="st0" x1="199.5" y1="333.4" x2="326.9" y2="123.9"/>
	<line class="st0" x1="204.9" y1="332.4" x2="172.3" y2="14.8"/>
	<line class="st0" x1="204.9" y1="332.4" x2="39.5" y2="89.4"/>
	<line class="st0" x1="210.3" y1="331.3" x2="172.3" y2="14.8"/>
	<line class="st0" x1="210.3" y1="331.3" x2="188.7" y2="334.7"/>
	<line class="st0" x1="15.9" y1="194.1" x2="325.1" y2="118.8"/>
	<line class="st0" x1="15.9" y1="194.1" x2="282.4" y2="56"/>
	<line class="st0" x1="15.9" y1="194.1" x2="304.3" y2="269.6"/>
	<line class="st0" x1="215.6" y1="330" x2="166.8" y2="15"/>
	<line class="st0" x1="215.6" y1="330" x2="134.4" y2="20"/>
	<line class="st0" x1="323" y1="113.7" x2="63.6" y2="59.8"/>
	<line class="st0" x1="16.6" y1="199.5" x2="172.3" y2="14.8"/>
	<line class="st0" x1="16.6" y1="199.5" x2="166.8" y2="15"/>
	<line class="st0" x1="16.6" y1="199.5" x2="320.9" y2="108.7"/>
	<line class="st0" x1="17.6" y1="204.9" x2="172.3" y2="14.8"/>
	<line class="st0" x1="17.6" y1="204.9" x2="166.8" y2="15"/>
	<line class="st0" x1="17.6" y1="204.9" x2="331.3" y2="210.3"/>
	<line class="st0" x1="220.9" y1="328.5" x2="18.7" y2="210.3"/>
	<line class="st0" x1="220.9" y1="328.5" x2="80.4" y2="45.7"/>
	<line class="st0" x1="226.1" y1="326.9" x2="166.8" y2="15"/>
	<line class="st0" x1="226.1" y1="326.9" x2="29.1" y2="241.3"/>
	<line class="st0" x1="231.2" y1="325.1" x2="318.5" y2="103.7"/>
	<line class="st0" x1="231.2" y1="325.1" x2="301" y2="274"/>
	<line class="st0" x1="236.3" y1="323" x2="172.3" y2="14.8"/>
	<line class="st0" x1="236.3" y1="323" x2="166.8" y2="15"/>
	<line class="st0" x1="316" y1="98.9" x2="150.5" y2="16.6"/>
	<line class="st0" x1="246.3" y1="318.5" x2="166.8" y2="15"/>
	<line class="st0" x1="246.3" y1="318.5" x2="123.9" y2="23.1"/>
	<line class="st0" x1="251.1" y1="316" x2="18.7" y2="210.3"/>
	<line class="st0" x1="251.1" y1="316" x2="255.9" y2="313.3"/>
	<line class="st0" x1="313.3" y1="94.1" x2="123.9" y2="23.1"/>
	<line class="st0" x1="20" y1="215.6" x2="172.3" y2="14.8"/>
	<line class="st0" x1="20" y1="215.6" x2="161.3" y2="15.3"/>
	<line class="st0" x1="20" y1="215.6" x2="155.9" y2="15.9"/>
	<line class="st0" x1="260.6" y1="310.5" x2="172.3" y2="14.8"/>
	<line class="st0" x1="260.6" y1="310.5" x2="155.9" y2="15.9"/>
	<line class="st0" x1="24.9" y1="231.2" x2="172.3" y2="335.2"/>
	<line class="st0" x1="24.9" y1="231.2" x2="80.4" y2="45.7"/>
	<line class="st0" x1="24.9" y1="231.2" x2="241.3" y2="29.1"/>
	<line class="st0" x1="278.2" y1="297.6" x2="139.7" y2="18.7"/>
	<line class="st0" x1="278.2" y1="297.6" x2="301" y2="76"/>
	<line class="st0" x1="297.6" y1="71.8" x2="129.1" y2="21.5"/>
	<line class="st0" x1="282.4" y1="294" x2="161.3" y2="15.3"/>
	<line class="st0" x1="282.4" y1="294" x2="318.5" y2="246.3"/>
	<line class="st0" x1="286.4" y1="290.2" x2="161.3" y2="15.3"/>
	<line class="st0" x1="286.4" y1="290.2" x2="139.7" y2="18.7"/>
	<line class="st0" x1="290.2" y1="286.4" x2="172.3" y2="14.8"/>
	<line class="st0" x1="290.2" y1="286.4" x2="150.5" y2="16.6"/>
	<line class="st0" x1="294" y1="67.6" x2="145.1" y2="17.6"/>
	<line class="st0" x1="294" y1="282.4" x2="166.8" y2="15"/>
	<line class="st0" x1="294" y1="282.4" x2="241.3" y2="320.9"/>
	<line class="st0" x1="27" y1="236.3" x2="155.9" y2="15.9"/>
	<line class="st0" x1="27" y1="236.3" x2="274" y2="301"/>
	<line class="st0" x1="27" y1="236.3" x2="274" y2="49"/>
	<line class="st0" x1="297.6" y1="278.2" x2="150.5" y2="16.6"/>
	<line class="st0" x1="297.6" y1="278.2" x2="23.1" y2="226.1"/>
	<line class="st0" x1="307.5" y1="265.2" x2="129.1" y2="21.5"/>
	<line class="st0" x1="307.5" y1="265.2" x2="123.9" y2="23.1"/>
	<line class="st0" x1="265.2" y1="42.5" x2="166.8" y2="15"/>
	<line class="st0" x1="260.6" y1="39.5" x2="172.3" y2="14.8"/>
	<line class="st0" x1="310.5" y1="260.6" x2="15.9" y2="155.9"/>
	<line class="st0" x1="310.5" y1="260.6" x2="183.2" y2="15"/>
	<line class="st0" x1="313.3" y1="255.9" x2="80.4" y2="45.7"/>
	<line class="st0" x1="313.3" y1="255.9" x2="316" y2="251.1"/>
	<line class="st0" x1="320.9" y1="241.3" x2="323" y2="236.3"/>
	<line class="st0" x1="320.9" y1="241.3" x2="331.3" y2="210.3"/>
	<line class="st0" x1="251.1" y1="34" x2="161.3" y2="15.3"/>
	<line class="st0" x1="325.1" y1="231.2" x2="172.3" y2="14.8"/>
	<line class="st0" x1="325.1" y1="231.2" x2="166.8" y2="15"/>
	<line class="st0" x1="326.9" y1="226.1" x2="150.5" y2="16.6"/>
	<line class="st0" x1="326.9" y1="226.1" x2="301" y2="274"/>
	<line class="st0" x1="328.5" y1="220.9" x2="172.3" y2="14.8"/>
	<line class="st0" x1="328.5" y1="220.9" x2="139.7" y2="18.7"/>
	<line class="st0" x1="215.6" y1="20" x2="172.3" y2="14.8"/>
	<line class="st0" x1="210.3" y1="18.7" x2="134.4" y2="20"/>
	<line class="st0" x1="332.4" y1="204.9" x2="15.9" y2="155.9"/>
	<line class="st0" x1="332.4" y1="204.9" x2="255.9" y2="313.3"/>
	<line class="st0" x1="204.9" y1="17.6" x2="29.1" y2="241.3"/>
	<line class="st0" x1="194.1" y1="15.9" x2="172.3" y2="14.8"/>
	<line class="st0" x1="177.7" y1="14.8" x2="21.5" y2="220.9"/>
	<path d="M78,49c0-1.1-0.9-1.9-1.9-1.9c-1.1,0-1.9,0.9-1.9,1.9c0,1.1,0.9,1.9,1.9,1.9C77.1,50.9,78,50.1,78,49"/>
	<path d="M174.2,14.8c0-1.1-0.9-1.9-1.9-1.9c-1.1,0-1.9,0.9-1.9,1.9c0,1.1,0.9,1.9,1.9,1.9C173.3,16.7,174.2,15.9,174.2,14.8"/>
	<path d="M33.4,246.3c0-1.1-0.9-1.9-1.9-1.9c-1.1,0-1.9,0.9-1.9,1.9c0,1.1,0.9,1.9,1.9,1.9C32.6,248.2,33.4,247.4,33.4,246.3"/>
	<path d="M73.7,52.4c0-1.1-0.9-1.9-1.9-1.9c-1.1,0-1.9,0.9-1.9,1.9c0,1.1,0.9,1.9,1.9,1.9C72.8,54.4,73.7,53.5,73.7,52.4"/>
	<path d="M35.9,251.1c0-1.1-0.9-1.9-1.9-1.9c-1.1,0-1.9,0.9-1.9,1.9c0,1.1,0.9,1.9,1.9,1.9C35.1,253.1,35.9,252.2,35.9,251.1"/>
	<path d="M69.6,56c0-1.1-0.9-1.9-1.9-1.9c-1.1,0-1.9,0.9-1.9,1.9c0,1.1,0.9,1.9,1.9,1.9C68.7,58,69.6,57.1,69.6,56"/>
	<path d="M65.6,59.8c0-1.1-0.9-1.9-1.9-1.9c-1.1,0-1.9,0.9-1.9,1.9c0,1.1,0.9,1.9,1.9,1.9C64.7,61.7,65.6,60.8,65.6,59.8"/>
	<path d="M38.6,255.9c0-1.1-0.9-1.9-1.9-1.9c-1.1,0-1.9,0.9-1.9,1.9c0,1.1,0.9,1.9,1.9,1.9C37.8,257.8,38.6,257,38.6,255.9"/>
	<path d="M41.5,260.6c0-1.1-0.9-1.9-1.9-1.9c-1.1,0-1.9,0.9-1.9,1.9c0,1.1,0.9,1.9,1.9,1.9C40.6,262.5,41.5,261.7,41.5,260.6"/>
	<path d="M120.7,24.9c0-1.1-0.9-1.9-1.9-1.9c-1.1,0-1.9,0.9-1.9,1.9c0,1.1,0.9,1.9,1.9,1.9C119.8,26.9,120.7,26,120.7,24.9"/>
	<path d="M44.5,265.2c0-1.1-0.9-1.9-1.9-1.9c-1.1,0-1.9,0.9-1.9,1.9c0,1.1,0.9,1.9,1.9,1.9C43.6,267.1,44.5,266.2,44.5,265.2"/>
	<path d="M61.7,63.6c0-1.1-0.9-1.9-1.9-1.9c-1.1,0-1.9,0.9-1.9,1.9c0,1.1,0.9,1.9,1.9,1.9C60.8,65.6,61.7,64.7,61.7,63.6"/>
	<path d="M336,194.1c0-1.1-0.9-1.9-1.9-1.9c-1.1,0-1.9,0.9-1.9,1.9c0,1.1,0.9,1.9,1.9,1.9C335.2,196,336,195.2,336,194.1"/>
	<path d="M47.6,269.6c0-1.1-0.9-1.9-1.9-1.9c-1.1,0-1.9,0.9-1.9,1.9c0,1.1,0.9,1.9,1.9,1.9C46.8,271.6,47.6,270.7,47.6,269.6"/>
	<path d="M50.9,274c0-1.1-0.9-1.9-1.9-1.9c-1.1,0-1.9,0.9-1.9,1.9c0,1.1,0.9,1.9,1.9,1.9C50.1,275.9,50.9,275.1,50.9,274"/>
	<path d="M336.6,188.7c0-1.1-0.9-1.9-1.9-1.9c-1.1,0-1.9,0.9-1.9,1.9c0,1.1,0.9,1.9,1.9,1.9C335.7,190.6,336.6,189.7,336.6,188.7"/>
	<path d="M54.4,278.2c0-1.1-0.9-1.9-1.9-1.9c-1.1,0-1.9,0.9-1.9,1.9c0,1.1,0.9,1.9,1.9,1.9C53.5,280.2,54.4,279.3,54.4,278.2"/>
	<path d="M58,67.6c0-1.1-0.9-1.9-1.9-1.9c-1.1,0-1.9,0.9-1.9,1.9c0,1.1,0.9,1.9,1.9,1.9C57.1,69.6,58,68.7,58,67.6"/>
	<path d="M115.6,27c0-1.1-0.9-1.9-1.9-1.9c-1.1,0-1.9,0.9-1.9,1.9c0,1.1,0.9,1.9,1.9,1.9C114.7,28.9,115.6,28,115.6,27"/>
	<path d="M58,282.4c0-1.1-0.9-1.9-1.9-1.9c-1.1,0-1.9,0.9-1.9,1.9c0,1.1,0.9,1.9,1.9,1.9C57.1,284.3,58,283.4,58,282.4"/>
	<path d="M61.7,286.4c0-1.1-0.9-1.9-1.9-1.9c-1.1,0-1.9,0.9-1.9,1.9c0,1.1,0.9,1.9,1.9,1.9C60.8,288.3,61.7,287.4,61.7,286.4"/>
	<path d="M65.6,290.2c0-1.1-0.9-1.9-1.9-1.9c-1.1,0-1.9,0.9-1.9,1.9c0,1.1,0.9,1.9,1.9,1.9C64.7,292.2,65.6,291.3,65.6,290.2"/>
	<path d="M69.6,294c0-1.1-0.9-1.9-1.9-1.9c-1.1,0-1.9,0.9-1.9,1.9c0,1.1,0.9,1.9,1.9,1.9C68.7,295.9,69.6,295,69.6,294"/>
	<path d="M337,183.2c0-1.1-0.9-1.9-1.9-1.9c-1.1,0-1.9,0.9-1.9,1.9c0,1.1,0.9,1.9,1.9,1.9C336.1,185.1,337,184.3,337,183.2"/>
	<path d="M110.6,29.1c0-1.1-0.9-1.9-1.9-1.9c-1.1,0-1.9,0.9-1.9,1.9c0,1.1,0.9,1.9,1.9,1.9C109.7,31.1,110.6,30.2,110.6,29.1"/>
	<path d="M73.7,297.6c0-1.1-0.9-1.9-1.9-1.9c-1.1,0-1.9,0.9-1.9,1.9s0.9,1.9,1.9,1.9C72.8,299.5,73.7,298.6,73.7,297.6"/>
	<path d="M168.7,15c0-1.1-0.9-1.9-1.9-1.9c-1.1,0-1.9,0.9-1.9,1.9c0,1.1,0.9,1.9,1.9,1.9C167.9,16.9,168.7,16,168.7,15"/>
	<path d="M78,301c0-1.1-0.9-1.9-1.9-1.9c-1.1,0-1.9,0.9-1.9,1.9c0,1.1,0.9,1.9,1.9,1.9C77.1,302.9,78,302.1,78,301"/>
	<path d="M136.3,20c0-1.1-0.9-1.9-1.9-1.9c-1.1,0-1.9,0.9-1.9,1.9c0,1.1,0.9,1.9,1.9,1.9C135.5,21.9,136.3,21.1,136.3,20"/>
	<path d="M54.4,71.8c0-1.1-0.9-1.9-1.9-1.9c-1.1,0-1.9,0.9-1.9,1.9c0,1.1,0.9,1.9,1.9,1.9C53.5,73.7,54.4,72.8,54.4,71.8"/>
	<path d="M50.9,76c0-1.1-0.9-1.9-1.9-1.9c-1.1,0-1.9,0.9-1.9,1.9c0,1.1,0.9,1.9,1.9,1.9C50.1,78,50.9,77.1,50.9,76"/>
	<path d="M163.3,15.3c0-1.1-0.9-1.9-1.9-1.9c-1.1,0-1.9,0.9-1.9,1.9c0,1.1,0.9,1.9,1.9,1.9C162.4,17.3,163.3,16.4,163.3,15.3"/>
	<path d="M105.7,31.5c0-1.1-0.9-1.9-1.9-1.9c-1.1,0-1.9,0.9-1.9,1.9c0,1.1,0.9,1.9,1.9,1.9C104.8,33.4,105.7,32.6,105.7,31.5"/>
	<path d="M47.6,80.4c0-1.1-0.9-1.9-1.9-1.9c-1.1,0-1.9,0.9-1.9,1.9c0,1.1,0.9,1.9,1.9,1.9C46.8,82.3,47.6,81.4,47.6,80.4"/>
	<path d="M152.4,16.6c0-1.1-0.9-1.9-1.9-1.9c-1.1,0-1.9,0.9-1.9,1.9c0,1.1,0.9,1.9,1.9,1.9C151.5,18.6,152.4,17.7,152.4,16.6"/>
	<path d="M44.5,84.8c0-1.1-0.9-1.9-1.9-1.9c-1.1,0-1.9,0.9-1.9,1.9c0,1.1,0.9,1.9,1.9,1.9C43.6,86.8,44.5,85.9,44.5,84.8"/>
	<path d="M41.5,89.4c0-1.1-0.9-1.9-1.9-1.9c-1.1,0-1.9,0.9-1.9,1.9c0,1.1,0.9,1.9,1.9,1.9C40.6,91.4,41.5,90.5,41.5,89.4"/>
	<path d="M38.6,94.1c0-1.1-0.9-1.9-1.9-1.9c-1.1,0-1.9,0.9-1.9,1.9c0,1.1,0.9,1.9,1.9,1.9C37.8,96,38.6,95.2,38.6,94.1"/>
	<path d="M147,17.6c0-1.1-0.9-1.9-1.9-1.9c-1.1,0-1.9,0.9-1.9,1.9c0,1.1,0.9,1.9,1.9,1.9C146.2,19.5,147,18.6,147,17.6"/>
	<path d="M82.3,304.3c0-1.1-0.9-1.9-1.9-1.9c-1.1,0-1.9,0.9-1.9,1.9c0,1.1,0.9,1.9,1.9,1.9C81.4,306.3,82.3,305.4,82.3,304.3"/>
	<path d="M35.9,98.9c0-1.1-0.9-1.9-1.9-1.9c-1.1,0-1.9,0.9-1.9,1.9c0,1.1,0.9,1.9,1.9,1.9C35.1,100.8,35.9,99.9,35.9,98.9"/>
	<path d="M337.2,177.7c0-1.1-0.9-1.9-1.9-1.9c-1.1,0-1.9,0.9-1.9,1.9c0,1.1,0.9,1.9,1.9,1.9C336.3,179.7,337.2,178.8,337.2,177.7"/>
	<path d="M86.8,307.5c0-1.1-0.9-1.9-1.9-1.9c-1.1,0-1.9,0.9-1.9,1.9c0,1.1,0.9,1.9,1.9,1.9C85.9,309.4,86.8,308.5,86.8,307.5"/>
	<path d="M91.4,310.5c0-1.1-0.9-1.9-1.9-1.9c-1.1,0-1.9,0.9-1.9,1.9c0,1.1,0.9,1.9,1.9,1.9C90.5,312.4,91.4,311.5,91.4,310.5"/>
	<path d="M96,313.3c0-1.1-0.9-1.9-1.9-1.9c-1.1,0-1.9,0.9-1.9,1.9c0,1.1,0.9,1.9,1.9,1.9C95.2,315.3,96,314.4,96,313.3"/>
	<path d="M33.4,103.7c0-1.1-0.9-1.9-1.9-1.9c-1.1,0-1.9,0.9-1.9,1.9c0,1.1,0.9,1.9,1.9,1.9C32.6,105.7,33.4,104.8,33.4,103.7"/>
	<path d="M31.1,108.7c0-1.1-0.9-1.9-1.9-1.9c-1.1,0-1.9,0.9-1.9,1.9c0,1.1,0.9,1.9,1.9,1.9C30.2,110.6,31.1,109.7,31.1,108.7"/>
	<path d="M100.8,34c0-1.1-0.9-1.9-1.9-1.9c-1.1,0-1.9,0.9-1.9,1.9c0,1.1,0.9,1.9,1.9,1.9C99.9,35.9,100.8,35.1,100.8,34"/>
	<path d="M100.8,316c0-1.1-0.9-1.9-1.9-1.9c-1.1,0-1.9,0.9-1.9,1.9c0,1.1,0.9,1.9,1.9,1.9C99.9,317.9,100.8,317.1,100.8,316"/>
	<path d="M131.1,21.5c0-1.1-0.9-1.9-1.9-1.9c-1.1,0-1.9,0.9-1.9,1.9s0.9,1.9,1.9,1.9C130.2,23.4,131.1,22.5,131.1,21.5"/>
	<path d="M337.2,172.3c0-1.1-0.9-1.9-1.9-1.9c-1.1,0-1.9,0.9-1.9,1.9c0,1.1,0.9,1.9,1.9,1.9C336.3,174.2,337.2,173.3,337.2,172.3"/>
	<path d="M28.9,113.7c0-1.1-0.9-1.9-1.9-1.9c-1.1,0-1.9,0.9-1.9,1.9c0,1.1,0.9,1.9,1.9,1.9C28,115.6,28.9,114.7,28.9,113.7"/>
	<path d="M96,36.7c0-1.1-0.9-1.9-1.9-1.9c-1.1,0-1.9,0.9-1.9,1.9c0,1.1,0.9,1.9,1.9,1.9C95.2,38.6,96,37.8,96,36.7"/>
	<path d="M105.7,318.5c0-1.1-0.9-1.9-1.9-1.9c-1.1,0-1.9,0.9-1.9,1.9c0,1.1,0.9,1.9,1.9,1.9C104.8,320.5,105.7,319.6,105.7,318.5"/>
	<path d="M26.9,118.8c0-1.1-0.9-1.9-1.9-1.9c-1.1,0-1.9,0.9-1.9,1.9c0,1.1,0.9,1.9,1.9,1.9C26,120.7,26.9,119.8,26.9,118.8"/>
	<path d="M110.6,320.9c0-1.1-0.9-1.9-1.9-1.9c-1.1,0-1.9,0.9-1.9,1.9c0,1.1,0.9,1.9,1.9,1.9C109.7,322.8,110.6,321.9,110.6,320.9"/>
	<path d="M115.6,323c0-1.1-0.9-1.9-1.9-1.9c-1.1,0-1.9,0.9-1.9,1.9c0,1.1,0.9,1.9,1.9,1.9C114.7,325,115.6,324.1,115.6,323"/>
	<path d="M91.4,39.5c0-1.1-0.9-1.9-1.9-1.9c-1.1,0-1.9,0.9-1.9,1.9c0,1.1,0.9,1.9,1.9,1.9C90.5,41.5,91.4,40.6,91.4,39.5"/>
	<path d="M25.1,123.9c0-1.1-0.9-1.9-1.9-1.9c-1.1,0-1.9,0.9-1.9,1.9c0,1.1,0.9,1.9,1.9,1.9C24.2,125.9,25.1,125,25.1,123.9"/>
	<path d="M23.4,129.1c0-1.1-0.9-1.9-1.9-1.9c-1.1,0-1.9,0.9-1.9,1.9c0,1.1,0.9,1.9,1.9,1.9C22.5,131.1,23.4,130.2,23.4,129.1"/>
	<path d="M120.7,325.1c0-1.1-0.9-1.9-1.9-1.9c-1.1,0-1.9,0.9-1.9,1.9c0,1.1,0.9,1.9,1.9,1.9C119.8,327,120.7,326.1,120.7,325.1"/>
	<path d="M337,166.8c0-1.1-0.9-1.9-1.9-1.9c-1.1,0-1.9,0.9-1.9,1.9c0,1.1,0.9,1.9,1.9,1.9C336.1,168.7,337,167.9,337,166.8"/>
	<path d="M125.9,326.9c0-1.1-0.9-1.9-1.9-1.9c-1.1,0-1.9,0.9-1.9,1.9c0,1.1,0.9,1.9,1.9,1.9C125,328.8,125.9,328,125.9,326.9"/>
	<path d="M86.8,42.5c0-1.1-0.9-1.9-1.9-1.9c-1.1,0-1.9,0.9-1.9,1.9c0,1.1,0.9,1.9,1.9,1.9C85.9,44.5,86.8,43.6,86.8,42.5"/>
	<path d="M336.6,161.3c0-1.1-0.9-1.9-1.9-1.9c-1.1,0-1.9,0.9-1.9,1.9c0,1.1,0.9,1.9,1.9,1.9C335.7,163.3,336.6,162.4,336.6,161.3"/>
	<path d="M131.1,328.5c0-1.1-0.9-1.9-1.9-1.9c-1.1,0-1.9,0.9-1.9,1.9c0,1.1,0.9,1.9,1.9,1.9C130.2,330.5,131.1,329.6,131.1,328.5"/>
	<path d="M136.3,330c0-1.1-0.9-1.9-1.9-1.9c-1.1,0-1.9,0.9-1.9,1.9c0,1.1,0.9,1.9,1.9,1.9C135.5,332,136.3,331.1,136.3,330"/>
	<path d="M141.7,331.3c0-1.1-0.9-1.9-1.9-1.9c-1.1,0-1.9,0.9-1.9,1.9c0,1.1,0.9,1.9,1.9,1.9C140.8,333.3,141.7,332.4,141.7,331.3"/>
	<path d="M21.9,134.4c0-1.1-0.9-1.9-1.9-1.9c-1.1,0-1.9,0.9-1.9,1.9c0,1.1,0.9,1.9,1.9,1.9C21.1,136.3,21.9,135.5,21.9,134.4"/>
	<path d="M20.6,139.7c0-1.1-0.9-1.9-1.9-1.9c-1.1,0-1.9,0.9-1.9,1.9c0,1.1,0.9,1.9,1.9,1.9C19.8,141.7,20.6,140.8,20.6,139.7"/>
	<path d="M336,155.9c0-1.1-0.9-1.9-1.9-1.9c-1.1,0-1.9,0.9-1.9,1.9c0,1.1,0.9,1.9,1.9,1.9C335.2,157.8,336,157,336,155.9"/>
	<path d="M125.9,23.1c0-1.1-0.9-1.9-1.9-1.9c-1.1,0-1.9,0.9-1.9,1.9c0,1.1,0.9,1.9,1.9,1.9C125,25.1,125.9,24.2,125.9,23.1"/>
	<path d="M19.5,145.1c0-1.1-0.9-1.9-1.9-1.9c-1.1,0-1.9,0.9-1.9,1.9c0,1.1,0.9,1.9,1.9,1.9C18.6,147,19.5,146.2,19.5,145.1"/>
	<path d="M335.3,150.5c0-1.1-0.9-1.9-1.9-1.9c-1.1,0-1.9,0.9-1.9,1.9c0,1.1,0.9,1.9,1.9,1.9C334.4,152.4,335.3,151.5,335.3,150.5"/>
	<path d="M18.6,150.5c0-1.1-0.9-1.9-1.9-1.9c-1.1,0-1.9,0.9-1.9,1.9c0,1.1,0.9,1.9,1.9,1.9C17.7,152.4,18.6,151.5,18.6,150.5"/>
	<path d="M17.8,155.9c0-1.1-0.9-1.9-1.9-1.9c-1.1,0-1.9,0.9-1.9,1.9c0,1.1,0.9,1.9,1.9,1.9C17,157.8,17.8,157,17.8,155.9"/>
	<path d="M17.3,161.3c0-1.1-0.9-1.9-1.9-1.9c-1.1,0-1.9,0.9-1.9,1.9c0,1.1,0.9,1.9,1.9,1.9C16.4,163.3,17.3,162.4,17.3,161.3"/>
	<path d="M334.4,145.1c0-1.1-0.9-1.9-1.9-1.9c-1.1,0-1.9,0.9-1.9,1.9c0,1.1,0.9,1.9,1.9,1.9C333.5,147,334.4,146.2,334.4,145.1"/>
	<path d="M147,332.4c0-1.1-0.9-1.9-1.9-1.9c-1.1,0-1.9,0.9-1.9,1.9c0,1.1,0.9,1.9,1.9,1.9C146.2,334.4,147,333.5,147,332.4"/>
	<path d="M152.4,333.4c0-1.1-0.9-1.9-1.9-1.9c-1.1,0-1.9,0.9-1.9,1.9c0,1.1,0.9,1.9,1.9,1.9C151.5,335.3,152.4,334.4,152.4,333.4"/>
	<path d="M16.9,166.8c0-1.1-0.9-1.9-1.9-1.9c-1.1,0-1.9,0.9-1.9,1.9c0,1.1,0.9,1.9,1.9,1.9C16,168.7,16.9,167.9,16.9,166.8"/>
	<path d="M157.8,334.1c0-1.1-0.9-1.9-1.9-1.9c-1.1,0-1.9,0.9-1.9,1.9c0,1.1,0.9,1.9,1.9,1.9C157,336,157.8,335.2,157.8,334.1"/>
	<path d="M333.3,139.7c0-1.1-0.9-1.9-1.9-1.9c-1.1,0-1.9,0.9-1.9,1.9c0,1.1,0.9,1.9,1.9,1.9C332.4,141.7,333.3,140.8,333.3,139.7"/>
	<path d="M16.7,172.3c0-1.1-0.9-1.9-1.9-1.9c-1.1,0-1.9,0.9-1.9,1.9c0,1.1,0.9,1.9,1.9,1.9C15.9,174.2,16.7,173.3,16.7,172.3"/>
	<path d="M157.8,15.9c0-1.1-0.9-1.9-1.9-1.9c-1.1,0-1.9,0.9-1.9,1.9c0,1.1,0.9,1.9,1.9,1.9C157,17.8,157.8,17,157.8,15.9"/>
	<path d="M332,134.4c0-1.1-0.9-1.9-1.9-1.9c-1.1,0-1.9,0.9-1.9,1.9c0,1.1,0.9,1.9,1.9,1.9C331.1,136.3,332,135.5,332,134.4"/>
	<path d="M163.3,334.7c0-1.1-0.9-1.9-1.9-1.9c-1.1,0-1.9,0.9-1.9,1.9c0,1.1,0.9,1.9,1.9,1.9C162.4,336.6,163.3,335.7,163.3,334.7"/>
	<path d="M168.7,335c0-1.1-0.9-1.9-1.9-1.9c-1.1,0-1.9,0.9-1.9,1.9c0,1.1,0.9,1.9,1.9,1.9C167.9,337,168.7,336.1,168.7,335"/>
	<path d="M16.7,177.7c0-1.1-0.9-1.9-1.9-1.9c-1.1,0-1.9,0.9-1.9,1.9c0,1.1,0.9,1.9,1.9,1.9C15.9,179.7,16.7,178.8,16.7,177.7"/>
	<path d="M174.2,335.2c0-1.1-0.9-1.9-1.9-1.9c-1.1,0-1.9,0.9-1.9,1.9c0,1.1,0.9,1.9,1.9,1.9C173.3,337.2,174.2,336.3,174.2,335.2"/>
	<path d="M179.7,335.2c0-1.1-0.9-1.9-1.9-1.9s-1.9,0.9-1.9,1.9c0,1.1,0.9,1.9,1.9,1.9S179.7,336.3,179.7,335.2"/>
	<path d="M185.1,335c0-1.1-0.9-1.9-1.9-1.9c-1.1,0-1.9,0.9-1.9,1.9c0,1.1,0.9,1.9,1.9,1.9C184.3,337,185.1,336.1,185.1,335"/>
	<path d="M190.6,334.7c0-1.1-0.9-1.9-1.9-1.9c-1.1,0-1.9,0.9-1.9,1.9c0,1.1,0.9,1.9,1.9,1.9C189.7,336.6,190.6,335.7,190.6,334.7"/>
	<path d="M16.9,183.2c0-1.1-0.9-1.9-1.9-1.9c-1.1,0-1.9,0.9-1.9,1.9c0,1.1,0.9,1.9,1.9,1.9C16,185.1,16.9,184.3,16.9,183.2"/>
	<path d="M330.5,129.1c0-1.1-0.9-1.9-1.9-1.9c-1.1,0-1.9,0.9-1.9,1.9c0,1.1,0.9,1.9,1.9,1.9C329.6,131.1,330.5,130.2,330.5,129.1"/>
	<path d="M141.7,18.7c0-1.1-0.9-1.9-1.9-1.9c-1.1,0-1.9,0.9-1.9,1.9c0,1.1,0.9,1.9,1.9,1.9C140.8,20.6,141.7,19.8,141.7,18.7"/>
	<path d="M196,334.1c0-1.1-0.9-1.9-1.9-1.9c-1.1,0-1.9,0.9-1.9,1.9c0,1.1,0.9,1.9,1.9,1.9C195.2,336,196,335.2,196,334.1"/>
	<path d="M17.3,188.7c0-1.1-0.9-1.9-1.9-1.9c-1.1,0-1.9,0.9-1.9,1.9c0,1.1,0.9,1.9,1.9,1.9C16.4,190.6,17.3,189.7,17.3,188.7"/>
	<path d="M201.5,333.4c0-1.1-0.9-1.9-1.9-1.9c-1.1,0-1.9,0.9-1.9,1.9c0,1.1,0.9,1.9,1.9,1.9C200.6,335.3,201.5,334.4,201.5,333.4"/>
	<path d="M328.8,123.9c0-1.1-0.9-1.9-1.9-1.9c-1.1,0-1.9,0.9-1.9,1.9c0,1.1,0.9,1.9,1.9,1.9C328,125.9,328.8,125,328.8,123.9"/>
	<path d="M206.9,332.4c0-1.1-0.9-1.9-1.9-1.9c-1.1,0-1.9,0.9-1.9,1.9c0,1.1,0.9,1.9,1.9,1.9C206,334.4,206.9,333.5,206.9,332.4"/>
	<path d="M212.2,331.3c0-1.1-0.9-1.9-1.9-1.9c-1.1,0-1.9,0.9-1.9,1.9c0,1.1,0.9,1.9,1.9,1.9C211.3,333.3,212.2,332.4,212.2,331.3"/>
	<path d="M17.8,194.1c0-1.1-0.9-1.9-1.9-1.9c-1.1,0-1.9,0.9-1.9,1.9c0,1.1,0.9,1.9,1.9,1.9C17,196,17.8,195.2,17.8,194.1"/>
	<path d="M327,118.8c0-1.1-0.9-1.9-1.9-1.9c-1.1,0-1.9,0.9-1.9,1.9c0,1.1,0.9,1.9,1.9,1.9C326.1,120.7,327,119.8,327,118.8"/>
	<path d="M217.5,330c0-1.1-0.9-1.9-1.9-1.9c-1.1,0-1.9,0.9-1.9,1.9c0,1.1,0.9,1.9,1.9,1.9C216.7,332,217.5,331.1,217.5,330"/>
	<path d="M325,113.7c0-1.1-0.9-1.9-1.9-1.9c-1.1,0-1.9,0.9-1.9,1.9c0,1.1,0.9,1.9,1.9,1.9C324.1,115.6,325,114.7,325,113.7"/>
	<path d="M18.6,199.5c0-1.1-0.9-1.9-1.9-1.9c-1.1,0-1.9,0.9-1.9,1.9c0,1.1,0.9,1.9,1.9,1.9C17.7,201.5,18.6,200.6,18.6,199.5"/>
	<path d="M322.8,108.7c0-1.1-0.9-1.9-1.9-1.9c-1.1,0-1.9,0.9-1.9,1.9c0,1.1,0.9,1.9,1.9,1.9C321.9,110.6,322.8,109.7,322.8,108.7"/>
	<path d="M19.5,204.9c0-1.1-0.9-1.9-1.9-1.9c-1.1,0-1.9,0.9-1.9,1.9c0,1.1,0.9,1.9,1.9,1.9C18.6,206.9,19.5,206,19.5,204.9"/>
	<path d="M222.8,328.5c0-1.1-0.9-1.9-1.9-1.9c-1.1,0-1.9,0.9-1.9,1.9c0,1.1,0.9,1.9,1.9,1.9C221.9,330.5,222.8,329.6,222.8,328.5"/>
	<path d="M20.6,210.3c0-1.1-0.9-1.9-1.9-1.9c-1.1,0-1.9,0.9-1.9,1.9c0,1.1,0.9,1.9,1.9,1.9C19.8,212.2,20.6,211.3,20.6,210.3"/>
	<path d="M228,326.9c0-1.1-0.9-1.9-1.9-1.9c-1.1,0-1.9,0.9-1.9,1.9c0,1.1,0.9,1.9,1.9,1.9C227.1,328.8,228,328,228,326.9"/>
	<path d="M233.2,325.1c0-1.1-0.9-1.9-1.9-1.9c-1.1,0-1.9,0.9-1.9,1.9c0,1.1,0.9,1.9,1.9,1.9C232.3,327,233.2,326.1,233.2,325.1"/>
	<path d="M320.5,103.7c0-1.1-0.9-1.9-1.9-1.9c-1.1,0-1.9,0.9-1.9,1.9c0,1.1,0.9,1.9,1.9,1.9C319.6,105.7,320.5,104.8,320.5,103.7"/>
	<path d="M238.3,323c0-1.1-0.9-1.9-1.9-1.9c-1.1,0-1.9,0.9-1.9,1.9c0,1.1,0.9,1.9,1.9,1.9C237.4,325,238.3,324.1,238.3,323"/>
	<path d="M243.3,320.9c0-1.1-0.9-1.9-1.9-1.9c-1.1,0-1.9,0.9-1.9,1.9c0,1.1,0.9,1.9,1.9,1.9C242.4,322.8,243.3,321.9,243.3,320.9"/>
	<path d="M317.9,98.9c0-1.1-0.9-1.9-1.9-1.9c-1.1,0-1.9,0.9-1.9,1.9c0,1.1,0.9,1.9,1.9,1.9C317.1,100.8,317.9,99.9,317.9,98.9"/>
	<path d="M248.2,318.5c0-1.1-0.9-1.9-1.9-1.9c-1.1,0-1.9,0.9-1.9,1.9c0,1.1,0.9,1.9,1.9,1.9C247.4,320.5,248.2,319.6,248.2,318.5"/>
	<path d="M253.1,316c0-1.1-0.9-1.9-1.9-1.9c-1.1,0-1.9,0.9-1.9,1.9c0,1.1,0.9,1.9,1.9,1.9C252.2,317.9,253.1,317.1,253.1,316"/>
	<path d="M257.8,313.3c0-1.1-0.9-1.9-1.9-1.9c-1.1,0-1.9,0.9-1.9,1.9c0,1.1,0.9,1.9,1.9,1.9C257,315.3,257.8,314.4,257.8,313.3"/>
	<path d="M315.3,94.1c0-1.1-0.9-1.9-1.9-1.9c-1.1,0-1.9,0.9-1.9,1.9c0,1.1,0.9,1.9,1.9,1.9C314.4,96,315.3,95.2,315.3,94.1"/>
	<path d="M21.9,215.6c0-1.1-0.9-1.9-1.9-1.9c-1.1,0-1.9,0.9-1.9,1.9c0,1.1,0.9,1.9,1.9,1.9C21.1,217.5,21.9,216.7,21.9,215.6"/>
	<path d="M23.4,220.9c0-1.1-0.9-1.9-1.9-1.9c-1.1,0-1.9,0.9-1.9,1.9c0,1.1,0.9,1.9,1.9,1.9C22.5,222.8,23.4,221.9,23.4,220.9"/>
	<path d="M82.3,45.7c0-1.1-0.9-1.9-1.9-1.9c-1.1,0-1.9,0.9-1.9,1.9c0,1.1,0.9,1.9,1.9,1.9C81.4,47.6,82.3,46.8,82.3,45.7"/>
	<path d="M312.4,89.4c0-1.1-0.9-1.9-1.9-1.9c-1.1,0-1.9,0.9-1.9,1.9c0,1.1,0.9,1.9,1.9,1.9C311.5,91.4,312.4,90.5,312.4,89.4"/>
	<path d="M262.5,310.5c0-1.1-0.9-1.9-1.9-1.9c-1.1,0-1.9,0.9-1.9,1.9c0,1.1,0.9,1.9,1.9,1.9C261.7,312.4,262.5,311.5,262.5,310.5"/>
	<path d="M25.1,226.1c0-1.1-0.9-1.9-1.9-1.9c-1.1,0-1.9,0.9-1.9,1.9c0,1.1,0.9,1.9,1.9,1.9C24.2,228,25.1,227.1,25.1,226.1"/>
	<path d="M309.4,84.8c0-1.1-0.9-1.9-1.9-1.9c-1.1,0-1.9,0.9-1.9,1.9c0,1.1,0.9,1.9,1.9,1.9C308.5,86.8,309.4,85.9,309.4,84.8"/>
	<path d="M26.9,231.2c0-1.1-0.9-1.9-1.9-1.9c-1.1,0-1.9,0.9-1.9,1.9c0,1.1,0.9,1.9,1.9,1.9C26,233.2,26.9,232.3,26.9,231.2"/>
	<path d="M267.1,307.5c0-1.1-0.9-1.9-1.9-1.9c-1.1,0-1.9,0.9-1.9,1.9c0,1.1,0.9,1.9,1.9,1.9C266.2,309.4,267.1,308.5,267.1,307.5"/>
	<path d="M306.3,80.4c0-1.1-0.9-1.9-1.9-1.9c-1.1,0-1.9,0.9-1.9,1.9c0,1.1,0.9,1.9,1.9,1.9C305.4,82.3,306.3,81.4,306.3,80.4"/>
	<path d="M271.6,304.3c0-1.1-0.9-1.9-1.9-1.9c-1.1,0-1.9,0.9-1.9,1.9c0,1.1,0.9,1.9,1.9,1.9C270.7,306.3,271.6,305.4,271.6,304.3"/>
	<path d="M275.9,301c0-1.1-0.9-1.9-1.9-1.9c-1.1,0-1.9,0.9-1.9,1.9c0,1.1,0.9,1.9,1.9,1.9C275.1,302.9,275.9,302.1,275.9,301"/>
	<path d="M280.2,297.6c0-1.1-0.9-1.9-1.9-1.9c-1.1,0-1.9,0.9-1.9,1.9s0.9,1.9,1.9,1.9C279.3,299.5,280.2,298.6,280.2,297.6"/>
	<path d="M302.9,76c0-1.1-0.9-1.9-1.9-1.9c-1.1,0-1.9,0.9-1.9,1.9c0,1.1,0.9,1.9,1.9,1.9C302.1,78,302.9,77.1,302.9,76"/>
	<path d="M299.5,71.8c0-1.1-0.9-1.9-1.9-1.9c-1.1,0-1.9,0.9-1.9,1.9c0,1.1,0.9,1.9,1.9,1.9C298.6,73.7,299.5,72.8,299.5,71.8"/>
	<path d="M284.3,294c0-1.1-0.9-1.9-1.9-1.9c-1.1,0-1.9,0.9-1.9,1.9c0,1.1,0.9,1.9,1.9,1.9C283.4,295.9,284.3,295,284.3,294"/>
	<path d="M288.3,290.2c0-1.1-0.9-1.9-1.9-1.9c-1.1,0-1.9,0.9-1.9,1.9c0,1.1,0.9,1.9,1.9,1.9C287.4,292.2,288.3,291.3,288.3,290.2"/>
	<path d="M292.2,286.4c0-1.1-0.9-1.9-1.9-1.9c-1.1,0-1.9,0.9-1.9,1.9c0,1.1,0.9,1.9,1.9,1.9C291.3,288.3,292.2,287.4,292.2,286.4"/>
	<path d="M295.9,67.6c0-1.1-0.9-1.9-1.9-1.9c-1.1,0-1.9,0.9-1.9,1.9c0,1.1,0.9,1.9,1.9,1.9C295,69.6,295.9,68.7,295.9,67.6"/>
	<path d="M295.9,282.4c0-1.1-0.9-1.9-1.9-1.9c-1.1,0-1.9,0.9-1.9,1.9c0,1.1,0.9,1.9,1.9,1.9C295,284.3,295.9,283.4,295.9,282.4"/>
	<path d="M292.2,63.6c0-1.1-0.9-1.9-1.9-1.9c-1.1,0-1.9,0.9-1.9,1.9c0,1.1,0.9,1.9,1.9,1.9C291.3,65.6,292.2,64.7,292.2,63.6"/>
	<path d="M288.3,59.8c0-1.1-0.9-1.9-1.9-1.9c-1.1,0-1.9,0.9-1.9,1.9c0,1.1,0.9,1.9,1.9,1.9C287.4,61.7,288.3,60.8,288.3,59.8"/>
	<path d="M284.3,56c0-1.1-0.9-1.9-1.9-1.9c-1.1,0-1.9,0.9-1.9,1.9c0,1.1,0.9,1.9,1.9,1.9C283.4,58,284.3,57.1,284.3,56"/>
	<path d="M280.2,52.4c0-1.1-0.9-1.9-1.9-1.9c-1.1,0-1.9,0.9-1.9,1.9c0,1.1,0.9,1.9,1.9,1.9C279.3,54.4,280.2,53.5,280.2,52.4"/>
	<path d="M28.9,236.3c0-1.1-0.9-1.9-1.9-1.9c-1.1,0-1.9,0.9-1.9,1.9s0.9,1.9,1.9,1.9C28,238.3,28.9,237.4,28.9,236.3"/>
	<path d="M275.9,49c0-1.1-0.9-1.9-1.9-1.9c-1.1,0-1.9,0.9-1.9,1.9c0,1.1,0.9,1.9,1.9,1.9C275.1,50.9,275.9,50.1,275.9,49"/>
	<path d="M299.5,278.2c0-1.1-0.9-1.9-1.9-1.9c-1.1,0-1.9,0.9-1.9,1.9c0,1.1,0.9,1.9,1.9,1.9C298.6,280.2,299.5,279.3,299.5,278.2"/>
	<path d="M302.9,274c0-1.1-0.9-1.9-1.9-1.9c-1.1,0-1.9,0.9-1.9,1.9c0,1.1,0.9,1.9,1.9,1.9C302.1,275.9,302.9,275.1,302.9,274"/>
	<path d="M31.1,241.3c0-1.1-0.9-1.9-1.9-1.9c-1.1,0-1.9,0.9-1.9,1.9c0,1.1,0.9,1.9,1.9,1.9C30.2,243.3,31.1,242.4,31.1,241.3"/>
	<path d="M306.3,269.6c0-1.1-0.9-1.9-1.9-1.9c-1.1,0-1.9,0.9-1.9,1.9c0,1.1,0.9,1.9,1.9,1.9C305.4,271.6,306.3,270.7,306.3,269.6"/>
	<path d="M271.6,45.7c0-1.1-0.9-1.9-1.9-1.9c-1.1,0-1.9,0.9-1.9,1.9c0,1.1,0.9,1.9,1.9,1.9C270.7,47.6,271.6,46.8,271.6,45.7"/>
	<path d="M309.4,265.2c0-1.1-0.9-1.9-1.9-1.9c-1.1,0-1.9,0.9-1.9,1.9c0,1.1,0.9,1.9,1.9,1.9C308.5,267.1,309.4,266.2,309.4,265.2"/>
	<path d="M267.1,42.5c0-1.1-0.9-1.9-1.9-1.9c-1.1,0-1.9,0.9-1.9,1.9c0,1.1,0.9,1.9,1.9,1.9C266.2,44.5,267.1,43.6,267.1,42.5"/>
	<path d="M262.5,39.5c0-1.1-0.9-1.9-1.9-1.9c-1.1,0-1.9,0.9-1.9,1.9c0,1.1,0.9,1.9,1.9,1.9C261.7,41.5,262.5,40.6,262.5,39.5"/>
	<path d="M312.4,260.6c0-1.1-0.9-1.9-1.9-1.9c-1.1,0-1.9,0.9-1.9,1.9c0,1.1,0.9,1.9,1.9,1.9C311.5,262.5,312.4,261.7,312.4,260.6"/>
	<path d="M257.8,36.7c0-1.1-0.9-1.9-1.9-1.9c-1.1,0-1.9,0.9-1.9,1.9c0,1.1,0.9,1.9,1.9,1.9C257,38.6,257.8,37.8,257.8,36.7"/>
	<path d="M315.3,255.9c0-1.1-0.9-1.9-1.9-1.9c-1.1,0-1.9,0.9-1.9,1.9c0,1.1,0.9,1.9,1.9,1.9C314.4,257.8,315.3,257,315.3,255.9"/>
	<path d="M317.9,251.1c0-1.1-0.9-1.9-1.9-1.9c-1.1,0-1.9,0.9-1.9,1.9c0,1.1,0.9,1.9,1.9,1.9C317.1,253.1,317.9,252.2,317.9,251.1"/>
	<path d="M320.5,246.3c0-1.1-0.9-1.9-1.9-1.9c-1.1,0-1.9,0.9-1.9,1.9c0,1.1,0.9,1.9,1.9,1.9C319.6,248.2,320.5,247.4,320.5,246.3"/>
	<path d="M322.8,241.3c0-1.1-0.9-1.9-1.9-1.9c-1.1,0-1.9,0.9-1.9,1.9c0,1.1,0.9,1.9,1.9,1.9C321.9,243.3,322.8,242.4,322.8,241.3"/>
	<path d="M325,236.3c0-1.1-0.9-1.9-1.9-1.9c-1.1,0-1.9,0.9-1.9,1.9s0.9,1.9,1.9,1.9C324.1,238.3,325,237.4,325,236.3"/>
	<path d="M253.1,34c0-1.1-0.9-1.9-1.9-1.9c-1.1,0-1.9,0.9-1.9,1.9c0,1.1,0.9,1.9,1.9,1.9C252.2,35.9,253.1,35.1,253.1,34"/>
	<path d="M248.2,31.5c0-1.1-0.9-1.9-1.9-1.9c-1.1,0-1.9,0.9-1.9,1.9c0,1.1,0.9,1.9,1.9,1.9C247.4,33.4,248.2,32.6,248.2,31.5"/>
	<path d="M327,231.2c0-1.1-0.9-1.9-1.9-1.9c-1.1,0-1.9,0.9-1.9,1.9c0,1.1,0.9,1.9,1.9,1.9C326.1,233.2,327,232.3,327,231.2"/>
	<path d="M328.8,226.1c0-1.1-0.9-1.9-1.9-1.9c-1.1,0-1.9,0.9-1.9,1.9c0,1.1,0.9,1.9,1.9,1.9C328,228,328.8,227.1,328.8,226.1"/>
	<path d="M243.3,29.1c0-1.1-0.9-1.9-1.9-1.9c-1.1,0-1.9,0.9-1.9,1.9c0,1.1,0.9,1.9,1.9,1.9C242.4,31.1,243.3,30.2,243.3,29.1"/>
	<path d="M330.5,220.9c0-1.1-0.9-1.9-1.9-1.9c-1.1,0-1.9,0.9-1.9,1.9c0,1.1,0.9,1.9,1.9,1.9C329.6,222.8,330.5,221.9,330.5,220.9"/>
	<path d="M332,215.6c0-1.1-0.9-1.9-1.9-1.9c-1.1,0-1.9,0.9-1.9,1.9c0,1.1,0.9,1.9,1.9,1.9C331.1,217.5,332,216.7,332,215.6"/>
	<path d="M238.3,27c0-1.1-0.9-1.9-1.9-1.9c-1.1,0-1.9,0.9-1.9,1.9c0,1.1,0.9,1.9,1.9,1.9C237.4,28.9,238.3,28,238.3,27"/>
	<path d="M233.2,24.9c0-1.1-0.9-1.9-1.9-1.9c-1.1,0-1.9,0.9-1.9,1.9c0,1.1,0.9,1.9,1.9,1.9C232.3,26.9,233.2,26,233.2,24.9"/>
	<path d="M228,23.1c0-1.1-0.9-1.9-1.9-1.9c-1.1,0-1.9,0.9-1.9,1.9c0,1.1,0.9,1.9,1.9,1.9C227.1,25.1,228,24.2,228,23.1"/>
	<path d="M222.8,21.5c0-1.1-0.9-1.9-1.9-1.9c-1.1,0-1.9,0.9-1.9,1.9s0.9,1.9,1.9,1.9C221.9,23.4,222.8,22.5,222.8,21.5"/>
	<path d="M217.5,20c0-1.1-0.9-1.9-1.9-1.9c-1.1,0-1.9,0.9-1.9,1.9c0,1.1,0.9,1.9,1.9,1.9C216.7,21.9,217.5,21.1,217.5,20"/>
	<path d="M212.2,18.7c0-1.1-0.9-1.9-1.9-1.9c-1.1,0-1.9,0.9-1.9,1.9c0,1.1,0.9,1.9,1.9,1.9C211.3,20.6,212.2,19.8,212.2,18.7"/>
	<path d="M333.3,210.3c0-1.1-0.9-1.9-1.9-1.9c-1.1,0-1.9,0.9-1.9,1.9c0,1.1,0.9,1.9,1.9,1.9C332.4,212.2,333.3,211.3,333.3,210.3"/>
	<path d="M334.4,204.9c0-1.1-0.9-1.9-1.9-1.9c-1.1,0-1.9,0.9-1.9,1.9c0,1.1,0.9,1.9,1.9,1.9C333.5,206.9,334.4,206,334.4,204.9"/>
	<path d="M206.9,17.6c0-1.1-0.9-1.9-1.9-1.9c-1.1,0-1.9,0.9-1.9,1.9c0,1.1,0.9,1.9,1.9,1.9C206,19.5,206.9,18.6,206.9,17.6"/>
	<path d="M201.5,16.6c0-1.1-0.9-1.9-1.9-1.9c-1.1,0-1.9,0.9-1.9,1.9c0,1.1,0.9,1.9,1.9,1.9C200.6,18.6,201.5,17.7,201.5,16.6"/>
	<path d="M196,15.9c0-1.1-0.9-1.9-1.9-1.9c-1.1,0-1.9,0.9-1.9,1.9c0,1.1,0.9,1.9,1.9,1.9C195.2,17.8,196,17,196,15.9"/>
	<path d="M190.6,15.3c0-1.1-0.9-1.9-1.9-1.9c-1.1,0-1.9,0.9-1.9,1.9c0,1.1,0.9,1.9,1.9,1.9C189.7,17.3,190.6,16.4,190.6,15.3"/>
	<path d="M335.3,199.5c0-1.1-0.9-1.9-1.9-1.9c-1.1,0-1.9,0.9-1.9,1.9c0,1.1,0.9,1.9,1.9,1.9C334.4,201.5,335.3,200.6,335.3,199.5"/>
	<path d="M185.1,15c0-1.1-0.9-1.9-1.9-1.9c-1.1,0-1.9,0.9-1.9,1.9c0,1.1,0.9,1.9,1.9,1.9C184.3,16.9,185.1,16,185.1,15"/>
	<path d="M179.7,14.8c0-1.1-0.9-1.9-1.9-1.9s-1.9,0.9-1.9,1.9c0,1.1,0.9,1.9,1.9,1.9S179.7,15.9,179.7,14.8"/>
</g>
</svg>
