<?xml version="1.0" encoding="utf-8"?>
<!-- Generator: Adobe Illustrator 21.1.0, SVG Export Plug-In . SVG Version: 6.00 Build 0)  -->
<svg version="1.1" id="Layer_1" xmlns="http://www.w3.org/2000/svg" xmlns:xlink="http://www.w3.org/1999/xlink" x="0px" y="0px"
	 viewBox="0 0 350 350" style="enable-background:new 0 0 350 350;" xml:space="preserve">
<style type="text/css">
	.st0{fill:none;stroke:#231F20;stroke-width:0.75;stroke-miterlimit:10;}
</style>
<g>
	<line class="st0" x1="295.2" y1="282.4" x2="328.6" y2="126.1"/>
	<line class="st0" x1="149.9" y1="334.2" x2="153" y2="334.7"/>
	<line class="st0" x1="149.9" y1="334.2" x2="106.3" y2="29.2"/>
	<line class="st0" x1="149.9" y1="334.2" x2="242.3" y2="321.5"/>
	<line class="st0" x1="153" y1="334.7" x2="106.3" y2="29.2"/>
	<line class="st0" x1="153" y1="334.7" x2="242.3" y2="321.5"/>
	<line class="st0" x1="40.4" y1="86.3" x2="164" y2="14.2"/>
	<line class="st0" x1="40.4" y1="86.3" x2="15.4" y2="197.8"/>
	<line class="st0" x1="40.4" y1="86.3" x2="56.9" y2="284.7"/>
	<line class="st0" x1="40.4" y1="86.3" x2="14.5" y2="160"/>
	<line class="st0" x1="164" y1="14.2" x2="30.9" y2="102.7"/>
	<line class="st0" x1="164" y1="14.2" x2="15.4" y2="197.8"/>
	<line class="st0" x1="164" y1="14.2" x2="56.9" y2="284.7"/>
	<line class="st0" x1="164" y1="14.2" x2="59.1" y2="287"/>
	<line class="st0" x1="13.8" y1="172.6" x2="156.1" y2="335.1"/>
	<line class="st0" x1="13.8" y1="172.6" x2="173.4" y2="13.8"/>
	<line class="st0" x1="13.8" y1="172.6" x2="197" y2="334.7"/>
	<line class="st0" x1="13.8" y1="172.6" x2="318.4" y2="248.7"/>
	<line class="st0" x1="156.1" y1="335.1" x2="324.9" y2="234.3"/>
	<line class="st0" x1="151.4" y1="15.5" x2="297.3" y2="280"/>
	<line class="st0" x1="151.4" y1="15.5" x2="79.2" y2="45.3"/>
	<line class="st0" x1="151.4" y1="15.5" x2="145.2" y2="16.6"/>
	<line class="st0" x1="151.4" y1="15.5" x2="41.3" y2="265"/>
	<line class="st0" x1="151.4" y1="15.5" x2="95.1" y2="35"/>
	<line class="st0" x1="151.4" y1="15.5" x2="128.4" y2="329.3"/>
	<line class="st0" x1="151.4" y1="15.5" x2="131.4" y2="330.2"/>
	<line class="st0" x1="38.7" y1="89" x2="13.8" y2="175.8"/>
	<line class="st0" x1="38.7" y1="89" x2="28.2" y2="108.4"/>
	<line class="st0" x1="38.7" y1="89" x2="26.9" y2="111.3"/>
	<line class="st0" x1="38.7" y1="89" x2="157.7" y2="14.7"/>
	<line class="st0" x1="170.3" y1="13.9" x2="159.2" y2="335.4"/>
	<line class="st0" x1="170.3" y1="13.9" x2="19.2" y2="216.3"/>
	<line class="st0" x1="170.3" y1="13.9" x2="187.6" y2="335.7"/>
	<line class="st0" x1="170.3" y1="13.9" x2="136" y2="18.6"/>
	<line class="st0" x1="170.3" y1="13.9" x2="236.5" y2="324"/>
	<line class="st0" x1="170.3" y1="13.9" x2="125.3" y2="328.3"/>
	<line class="st0" x1="170.3" y1="13.9" x2="277" y2="299.8"/>
	<line class="st0" x1="13.9" y1="178.9" x2="14" y2="182.1"/>
	<line class="st0" x1="13.9" y1="178.9" x2="63.6" y2="291.5"/>
	<line class="st0" x1="299.3" y1="277.6" x2="327.6" y2="123.1"/>
	<line class="st0" x1="81.8" y1="43.5" x2="37" y2="91.7"/>
	<line class="st0" x1="81.8" y1="43.5" x2="62.4" y2="59.6"/>
	<line class="st0" x1="81.8" y1="43.5" x2="18.8" y2="135.2"/>
	<line class="st0" x1="81.8" y1="43.5" x2="140.6" y2="332.5"/>
	<line class="st0" x1="37" y1="91.7" x2="62.4" y2="59.6"/>
	<line class="st0" x1="37" y1="91.7" x2="18.8" y2="135.2"/>
	<line class="st0" x1="162.4" y1="335.7" x2="14.1" y2="185.2"/>
	<line class="st0" x1="162.4" y1="335.7" x2="14.2" y2="163.2"/>
	<line class="st0" x1="14.1" y1="185.2" x2="295.2" y2="282.4"/>
	<line class="st0" x1="14.1" y1="185.2" x2="330" y2="219.4"/>
	<line class="st0" x1="14.1" y1="185.2" x2="143.7" y2="333.1"/>
	<line class="st0" x1="35.4" y1="94.4" x2="165.5" y2="335.9"/>
	<line class="st0" x1="35.4" y1="94.4" x2="333.6" y2="204"/>
	<line class="st0" x1="35.4" y1="94.4" x2="334.1" y2="200.9"/>
	<line class="st0" x1="165.5" y1="335.9" x2="333.6" y2="204"/>
	<line class="st0" x1="168.7" y1="336.1" x2="14.4" y2="188.4"/>
	<line class="st0" x1="168.7" y1="336.1" x2="250.8" y2="317.3"/>
	<line class="st0" x1="14.4" y1="188.4" x2="250.8" y2="317.3"/>
	<line class="st0" x1="173.4" y1="13.8" x2="299.3" y2="277.6"/>
	<line class="st0" x1="173.4" y1="13.8" x2="14.4" y2="188.4"/>
	<line class="st0" x1="173.4" y1="13.8" x2="301.3" y2="275.1"/>
	<line class="st0" x1="173.4" y1="13.8" x2="148.3" y2="16"/>
	<line class="st0" x1="173.4" y1="13.8" x2="25.7" y2="114.2"/>
	<line class="st0" x1="173.4" y1="13.8" x2="325.5" y2="117.2"/>
	<line class="st0" x1="173.4" y1="13.8" x2="24" y2="231.4"/>
	<line class="st0" x1="173.4" y1="13.8" x2="313.8" y2="257"/>
	<line class="st0" x1="173.4" y1="13.8" x2="324.3" y2="114.2"/>
	<line class="st0" x1="173.4" y1="13.8" x2="21.4" y2="126.1"/>
	<line class="st0" x1="173.4" y1="13.8" x2="321.8" y2="108.4"/>
	<line class="st0" x1="173.4" y1="13.8" x2="320.5" y2="105.6"/>
	<line class="st0" x1="173.4" y1="13.8" x2="212.5" y2="331.8"/>
	<line class="st0" x1="173.4" y1="13.8" x2="319.1" y2="102.7"/>
	<line class="st0" x1="173.4" y1="13.8" x2="16.7" y2="144.4"/>
	<line class="st0" x1="173.4" y1="13.8" x2="316.1" y2="97.2"/>
	<line class="st0" x1="173.4" y1="13.8" x2="314.6" y2="94.4"/>
	<line class="st0" x1="173.4" y1="13.8" x2="14.8" y2="156.9"/>
	<line class="st0" x1="173.4" y1="13.8" x2="233.6" y2="325.2"/>
	<line class="st0" x1="173.4" y1="13.8" x2="332.3" y2="210.2"/>
	<line class="st0" x1="173.4" y1="13.8" x2="311.3" y2="89"/>
	<line class="st0" x1="173.4" y1="13.8" x2="309.6" y2="86.3"/>
	<line class="st0" x1="173.4" y1="13.8" x2="334.6" y2="197.8"/>
	<line class="st0" x1="173.4" y1="13.8" x2="306" y2="81.1"/>
	<line class="st0" x1="173.4" y1="13.8" x2="336.2" y2="175.8"/>
	<line class="st0" x1="173.4" y1="13.8" x2="300.3" y2="73.6"/>
	<line class="st0" x1="173.4" y1="13.8" x2="294.2" y2="66.4"/>
	<line class="st0" x1="173.4" y1="13.8" x2="289.8" y2="61.9"/>
	<line class="st0" x1="173.4" y1="13.8" x2="290.9" y2="287"/>
	<line class="st0" x1="173.4" y1="13.8" x2="273.3" y2="47.2"/>
	<line class="st0" x1="173.4" y1="13.8" x2="334.3" y2="150.6"/>
	<line class="st0" x1="173.4" y1="13.8" x2="270.8" y2="45.3"/>
	<line class="st0" x1="173.4" y1="13.8" x2="268.2" y2="43.5"/>
	<line class="st0" x1="173.4" y1="13.8" x2="333.3" y2="144.4"/>
	<line class="st0" x1="173.4" y1="13.8" x2="260.3" y2="38.2"/>
	<line class="st0" x1="173.4" y1="13.8" x2="257.6" y2="36.6"/>
	<line class="st0" x1="173.4" y1="13.8" x2="331.2" y2="135.2"/>
	<line class="st0" x1="173.4" y1="13.8" x2="240.8" y2="27.9"/>
	<line class="st0" x1="173.4" y1="13.8" x2="329.5" y2="129.1"/>
	<line class="st0" x1="173.4" y1="13.8" x2="223.2" y2="21.2"/>
	<line class="st0" x1="173.4" y1="13.8" x2="201.7" y2="16"/>
	<line class="st0" x1="173.4" y1="13.8" x2="195.5" y2="15.1"/>
	<line class="st0" x1="173.4" y1="13.8" x2="189.2" y2="14.4"/>
	<line class="st0" x1="173.4" y1="13.8" x2="186" y2="14.2"/>
	<line class="st0" x1="173.4" y1="13.8" x2="182.9" y2="14"/>
	<line class="st0" x1="14.7" y1="191.5" x2="33.9" y2="97.2"/>
	<line class="st0" x1="14.7" y1="191.5" x2="70.6" y2="297.8"/>
	<line class="st0" x1="14.7" y1="191.5" x2="73" y2="299.8"/>
	<line class="st0" x1="33.9" y1="97.2" x2="70.6" y2="297.8"/>
	<line class="st0" x1="33.9" y1="97.2" x2="73" y2="299.8"/>
	<line class="st0" x1="32.4" y1="99.9" x2="164" y2="14.2"/>
	<line class="st0" x1="32.4" y1="99.9" x2="30.9" y2="102.7"/>
	<line class="st0" x1="32.4" y1="99.9" x2="139" y2="17.9"/>
	<line class="st0" x1="32.4" y1="99.9" x2="59.1" y2="287"/>
	<line class="st0" x1="32.4" y1="99.9" x2="249.4" y2="32"/>
	<line class="st0" x1="30.9" y1="102.7" x2="59.1" y2="287"/>
	<line class="st0" x1="30.9" y1="102.7" x2="204.8" y2="16.6"/>
	<line class="st0" x1="148.3" y1="16" x2="29.5" y2="105.6"/>
	<line class="st0" x1="148.3" y1="16" x2="43" y2="267.6"/>
	<line class="st0" x1="148.3" y1="16" x2="75.5" y2="301.8"/>
	<line class="st0" x1="148.3" y1="16" x2="245.1" y2="320.1"/>
	<line class="st0" x1="148.3" y1="16" x2="116.4" y2="325.2"/>
	<line class="st0" x1="148.3" y1="16" x2="279.4" y2="297.8"/>
	<line class="st0" x1="148.3" y1="16" x2="140.6" y2="332.5"/>
	<line class="st0" x1="29.5" y1="105.6" x2="43" y2="267.6"/>
	<line class="st0" x1="29.5" y1="105.6" x2="75.5" y2="301.8"/>
	<line class="st0" x1="29.5" y1="105.6" x2="116.4" y2="325.2"/>
	<line class="st0" x1="79.2" y1="45.3" x2="64.7" y2="57.5"/>
	<line class="st0" x1="79.2" y1="45.3" x2="145.2" y2="16.6"/>
	<line class="st0" x1="171.8" y1="336.2" x2="175" y2="336.2"/>
	<line class="st0" x1="171.8" y1="336.2" x2="248" y2="318.7"/>
	<line class="st0" x1="171.8" y1="336.2" x2="13.9" y2="169.5"/>
	<line class="st0" x1="15" y1="194.7" x2="76.7" y2="47.2"/>
	<line class="st0" x1="15" y1="194.7" x2="36.2" y2="257"/>
	<line class="st0" x1="15" y1="194.7" x2="37.8" y2="259.7"/>
	<line class="st0" x1="15" y1="194.7" x2="78" y2="303.7"/>
	<line class="st0" x1="76.7" y1="47.2" x2="136" y2="18.6"/>
	<line class="st0" x1="76.7" y1="47.2" x2="316.9" y2="251.5"/>
	<line class="st0" x1="74.2" y1="49.2" x2="71.8" y2="51.2"/>
	<line class="st0" x1="74.2" y1="49.2" x2="92.4" y2="36.6"/>
	<line class="st0" x1="74.2" y1="49.2" x2="126.8" y2="21.2"/>
	<line class="st0" x1="74.2" y1="49.2" x2="330.4" y2="132.1"/>
	<line class="st0" x1="71.8" y1="51.2" x2="92.4" y2="36.6"/>
	<line class="st0" x1="71.8" y1="51.2" x2="239.4" y2="322.8"/>
	<line class="st0" x1="71.8" y1="51.2" x2="126.8" y2="21.2"/>
	<line class="st0" x1="28.2" y1="108.4" x2="13.8" y2="175.8"/>
	<line class="st0" x1="28.2" y1="108.4" x2="26.9" y2="111.3"/>
	<line class="st0" x1="28.2" y1="108.4" x2="157.7" y2="14.7"/>
	<line class="st0" x1="26.9" y1="111.3" x2="13.8" y2="175.8"/>
	<line class="st0" x1="26.9" y1="111.3" x2="157.7" y2="14.7"/>
	<line class="st0" x1="25.7" y1="114.2" x2="15.9" y2="200.9"/>
	<line class="st0" x1="25.7" y1="114.2" x2="109.2" y2="27.9"/>
	<line class="st0" x1="25.7" y1="114.2" x2="44.9" y2="270.1"/>
	<line class="st0" x1="25.7" y1="114.2" x2="97.8" y2="33.5"/>
	<line class="st0" x1="15.9" y1="200.9" x2="44.9" y2="270.1"/>
	<line class="st0" x1="15.9" y1="200.9" x2="97.8" y2="33.5"/>
	<line class="st0" x1="303.2" y1="272.7" x2="305.1" y2="270.1"/>
	<line class="st0" x1="120.9" y1="23.2" x2="16.4" y2="204"/>
	<line class="st0" x1="120.9" y1="23.2" x2="203.2" y2="333.7"/>
	<line class="st0" x1="120.9" y1="23.2" x2="52.7" y2="280"/>
	<line class="st0" x1="120.9" y1="23.2" x2="87" y2="39.9"/>
	<line class="st0" x1="120.9" y1="23.2" x2="274.5" y2="301.8"/>
	<line class="st0" x1="120.9" y1="23.2" x2="293.1" y2="284.7"/>
	<line class="st0" x1="117.9" y1="24.3" x2="160.8" y2="14.4"/>
	<line class="st0" x1="117.9" y1="24.3" x2="45.8" y2="78.6"/>
	<line class="st0" x1="117.9" y1="24.3" x2="42.1" y2="83.7"/>
	<line class="st0" x1="117.9" y1="24.3" x2="269.5" y2="305.6"/>
	<line class="st0" x1="117.9" y1="24.3" x2="284.1" y2="293.6"/>
	<line class="st0" x1="160.8" y1="14.4" x2="170.3" y2="13.9"/>
	<line class="st0" x1="160.8" y1="14.4" x2="159.2" y2="335.4"/>
	<line class="st0" x1="160.8" y1="14.4" x2="89.7" y2="38.2"/>
	<line class="st0" x1="160.8" y1="14.4" x2="236.5" y2="324"/>
	<line class="st0" x1="160.8" y1="14.4" x2="281.8" y2="295.7"/>
	<line class="st0" x1="307" y1="267.6" x2="69.4" y2="53.2"/>
	<line class="st0" x1="69.4" y1="53.2" x2="323.1" y2="111.3"/>
	<line class="st0" x1="69.4" y1="53.2" x2="221.6" y2="329.3"/>
	<line class="st0" x1="69.4" y1="53.2" x2="266.9" y2="307.4"/>
	<line class="st0" x1="308.7" y1="265" x2="326.6" y2="120.1"/>
	<line class="st0" x1="308.7" y1="265" x2="321.1" y2="243"/>
	<line class="st0" x1="17" y1="207.1" x2="310.5" y2="262.3"/>
	<line class="st0" x1="17" y1="207.1" x2="317.6" y2="99.9"/>
	<line class="st0" x1="17" y1="207.1" x2="179.7" y2="13.9"/>
	<line class="st0" x1="17.7" y1="210.2" x2="18.4" y2="213.3"/>
	<line class="st0" x1="17.7" y1="210.2" x2="137.5" y2="331.8"/>
	<line class="st0" x1="178.2" y1="336.2" x2="181.3" y2="336.1"/>
	<line class="st0" x1="178.2" y1="336.2" x2="259" y2="312.6"/>
	<line class="st0" x1="115" y1="25.4" x2="184.5" y2="335.9"/>
	<line class="st0" x1="115" y1="25.4" x2="326" y2="231.4"/>
	<line class="st0" x1="115" y1="25.4" x2="218.6" y2="330.2"/>
	<line class="st0" x1="115" y1="25.4" x2="286.4" y2="291.5"/>
	<line class="st0" x1="115" y1="25.4" x2="334.8" y2="153.8"/>
	<line class="st0" x1="167.1" y1="14" x2="170.3" y2="13.9"/>
	<line class="st0" x1="167.1" y1="14" x2="20" y2="219.4"/>
	<line class="st0" x1="167.1" y1="14" x2="26.3" y2="237.2"/>
	<line class="st0" x1="167.1" y1="14" x2="27.6" y2="240.1"/>
	<line class="st0" x1="167.1" y1="14" x2="89.7" y2="38.2"/>
	<line class="st0" x1="167.1" y1="14" x2="85.7" y2="309.2"/>
	<line class="st0" x1="167.1" y1="14" x2="277" y2="299.8"/>
	<line class="st0" x1="167.1" y1="14" x2="335.8" y2="163.2"/>
	<line class="st0" x1="20" y1="219.4" x2="115" y2="25.4"/>
	<line class="st0" x1="20" y1="219.4" x2="60.2" y2="61.9"/>
	<line class="st0" x1="20" y1="219.4" x2="335.8" y2="163.2"/>
	<line class="st0" x1="24.5" y1="117.2" x2="81.8" y2="43.5"/>
	<line class="st0" x1="24.5" y1="117.2" x2="37" y2="91.7"/>
	<line class="st0" x1="24.5" y1="117.2" x2="62.4" y2="59.6"/>
	<line class="st0" x1="24.5" y1="117.2" x2="18.8" y2="135.2"/>
	<line class="st0" x1="112" y1="26.6" x2="23.4" y2="120.1"/>
	<line class="st0" x1="112" y1="26.6" x2="157.7" y2="14.7"/>
	<line class="st0" x1="112" y1="26.6" x2="34.6" y2="254.2"/>
	<line class="st0" x1="112" y1="26.6" x2="65.9" y2="293.6"/>
	<line class="st0" x1="112" y1="26.6" x2="122.3" y2="327.3"/>
	<line class="st0" x1="23.4" y1="120.1" x2="58" y2="64.1"/>
	<line class="st0" x1="23.4" y1="120.1" x2="335.6" y2="188.4"/>
	<line class="st0" x1="67" y1="55.3" x2="20.9" y2="222.4"/>
	<line class="st0" x1="67" y1="55.3" x2="39.5" y2="262.3"/>
	<line class="st0" x1="67" y1="55.3" x2="93.7" y2="314.2"/>
	<line class="st0" x1="67" y1="55.3" x2="96.5" y2="315.8"/>
	<line class="st0" x1="20.9" y1="222.4" x2="93.7" y2="314.2"/>
	<line class="st0" x1="20.9" y1="222.4" x2="96.5" y2="315.8"/>
	<line class="st0" x1="21.9" y1="225.4" x2="170.3" y2="13.9"/>
	<line class="st0" x1="21.9" y1="225.4" x2="187.6" y2="335.7"/>
	<line class="st0" x1="64.7" y1="57.5" x2="22.9" y2="228.4"/>
	<line class="st0" x1="24" y1="231.4" x2="190.8" y2="335.4"/>
	<line class="st0" x1="62.4" y1="59.6" x2="335" y2="194.7"/>
	<line class="st0" x1="62.4" y1="59.6" x2="335.2" y2="156.9"/>
	<line class="st0" x1="25.1" y1="234.3" x2="109.2" y2="27.9"/>
	<line class="st0" x1="25.1" y1="234.3" x2="97.8" y2="33.5"/>
	<line class="st0" x1="25.1" y1="234.3" x2="54.8" y2="282.4"/>
	<line class="st0" x1="25.1" y1="234.3" x2="88.3" y2="310.9"/>
	<line class="st0" x1="109.2" y1="27.9" x2="15.9" y2="200.9"/>
	<line class="st0" x1="109.2" y1="27.9" x2="44.9" y2="270.1"/>
	<line class="st0" x1="109.2" y1="27.9" x2="97.8" y2="33.5"/>
	<line class="st0" x1="109.2" y1="27.9" x2="54.8" y2="282.4"/>
	<line class="st0" x1="109.2" y1="27.9" x2="88.3" y2="310.9"/>
	<line class="st0" x1="26.3" y1="237.2" x2="27.6" y2="240.1"/>
	<line class="st0" x1="26.3" y1="237.2" x2="85.7" y2="309.2"/>
	<line class="st0" x1="60.2" y1="61.9" x2="115" y2="25.4"/>
	<line class="st0" x1="60.2" y1="61.9" x2="28.9" y2="243"/>
	<line class="st0" x1="58" y1="64.1" x2="14.7" y2="191.5"/>
	<line class="st0" x1="58" y1="64.1" x2="33.9" y2="97.2"/>
	<line class="st0" x1="58" y1="64.1" x2="70.6" y2="297.8"/>
	<line class="st0" x1="58" y1="64.1" x2="73" y2="299.8"/>
	<line class="st0" x1="58" y1="64.1" x2="335.6" y2="188.4"/>
	<line class="st0" x1="145.2" y1="16.6" x2="142.1" y2="17.2"/>
	<line class="st0" x1="145.2" y1="16.6" x2="68.2" y2="295.7"/>
	<line class="st0" x1="142.1" y1="17.2" x2="17.7" y2="210.2"/>
	<line class="st0" x1="142.1" y1="17.2" x2="18.4" y2="213.3"/>
	<line class="st0" x1="142.1" y1="17.2" x2="68.2" y2="295.7"/>
	<line class="st0" x1="142.1" y1="17.2" x2="137.5" y2="331.8"/>
	<line class="st0" x1="106.3" y1="29.2" x2="30.2" y2="245.8"/>
	<line class="st0" x1="106.3" y1="29.2" x2="104.9" y2="320.1"/>
	<line class="st0" x1="106.3" y1="29.2" x2="242.3" y2="321.5"/>
	<line class="st0" x1="30.2" y1="245.8" x2="104.9" y2="320.1"/>
	<line class="st0" x1="139" y1="17.9" x2="40.4" y2="86.3"/>
	<line class="st0" x1="139" y1="17.9" x2="164" y2="14.2"/>
	<line class="st0" x1="139" y1="17.9" x2="30.9" y2="102.7"/>
	<line class="st0" x1="139" y1="17.9" x2="15.4" y2="197.8"/>
	<line class="st0" x1="139" y1="17.9" x2="56.9" y2="284.7"/>
	<line class="st0" x1="139" y1="17.9" x2="59.1" y2="287"/>
	<line class="st0" x1="139" y1="17.9" x2="14.5" y2="160"/>
	<line class="st0" x1="193.9" y1="335.1" x2="173.4" y2="13.8"/>
	<line class="st0" x1="193.9" y1="335.1" x2="312.2" y2="259.7"/>
	<line class="st0" x1="22.4" y1="123.1" x2="173.4" y2="13.8"/>
	<line class="st0" x1="22.4" y1="123.1" x2="178.2" y2="336.2"/>
	<line class="st0" x1="22.4" y1="123.1" x2="181.3" y2="336.1"/>
	<line class="st0" x1="22.4" y1="123.1" x2="313.8" y2="257"/>
	<line class="st0" x1="22.4" y1="123.1" x2="259" y2="312.6"/>
	<line class="st0" x1="103.4" y1="30.6" x2="315.4" y2="254.2"/>
	<line class="st0" x1="103.4" y1="30.6" x2="95.1" y2="35"/>
	<line class="st0" x1="103.4" y1="30.6" x2="50.7" y2="277.6"/>
	<line class="st0" x1="103.4" y1="30.6" x2="102" y2="318.7"/>
	<line class="st0" x1="103.4" y1="30.6" x2="298.3" y2="71.2"/>
	<line class="st0" x1="103.4" y1="30.6" x2="134.4" y2="331"/>
	<line class="st0" x1="103.4" y1="30.6" x2="288.7" y2="289.3"/>
	<line class="st0" x1="31.6" y1="248.7" x2="35.4" y2="94.4"/>
	<line class="st0" x1="31.6" y1="248.7" x2="79.2" y2="45.3"/>
	<line class="st0" x1="31.6" y1="248.7" x2="64.7" y2="57.5"/>
	<line class="st0" x1="31.6" y1="248.7" x2="123.8" y2="22.1"/>
	<line class="st0" x1="136" y1="18.6" x2="19.2" y2="216.3"/>
	<line class="st0" x1="136" y1="18.6" x2="316.9" y2="251.5"/>
	<line class="st0" x1="136" y1="18.6" x2="329.1" y2="222.4"/>
	<line class="st0" x1="136" y1="18.6" x2="125.3" y2="328.3"/>
	<line class="st0" x1="33.1" y1="251.5" x2="38.7" y2="89"/>
	<line class="st0" x1="33.1" y1="251.5" x2="28.2" y2="108.4"/>
	<line class="st0" x1="33.1" y1="251.5" x2="26.9" y2="111.3"/>
	<line class="st0" x1="33.1" y1="251.5" x2="157.7" y2="14.7"/>
	<line class="st0" x1="197" y1="334.7" x2="156.1" y2="335.1"/>
	<line class="st0" x1="197" y1="334.7" x2="318.4" y2="248.7"/>
	<line class="st0" x1="157.7" y1="14.7" x2="13.8" y2="175.8"/>
	<line class="st0" x1="157.7" y1="14.7" x2="34.6" y2="254.2"/>
	<line class="st0" x1="157.7" y1="14.7" x2="65.9" y2="293.6"/>
	<line class="st0" x1="157.7" y1="14.7" x2="122.3" y2="327.3"/>
	<line class="st0" x1="21.4" y1="126.1" x2="200.1" y2="334.2"/>
	<line class="st0" x1="21.4" y1="126.1" x2="275.8" y2="49.2"/>
	<line class="st0" x1="21.4" y1="126.1" x2="146.8" y2="333.7"/>
	<line class="st0" x1="100.6" y1="32" x2="170.3" y2="13.9"/>
	<line class="st0" x1="100.6" y1="32" x2="19.2" y2="216.3"/>
	<line class="st0" x1="100.6" y1="32" x2="136" y2="18.6"/>
	<line class="st0" x1="100.6" y1="32" x2="206.3" y2="333.1"/>
	<line class="st0" x1="100.6" y1="32" x2="227.7" y2="327.3"/>
	<line class="st0" x1="100.6" y1="32" x2="42.1" y2="83.7"/>
	<line class="st0" x1="100.6" y1="32" x2="125.3" y2="328.3"/>
	<line class="st0" x1="206.3" y1="333.1" x2="227.7" y2="327.3"/>
	<line class="st0" x1="206.3" y1="333.1" x2="42.1" y2="83.7"/>
	<line class="st0" x1="36.2" y1="257" x2="76.7" y2="47.2"/>
	<line class="st0" x1="36.2" y1="257" x2="37.8" y2="259.7"/>
	<line class="st0" x1="37.8" y1="259.7" x2="76.7" y2="47.2"/>
	<line class="st0" x1="39.5" y1="262.3" x2="20.9" y2="222.4"/>
	<line class="st0" x1="39.5" y1="262.3" x2="93.7" y2="314.2"/>
	<line class="st0" x1="39.5" y1="262.3" x2="96.5" y2="315.8"/>
	<line class="st0" x1="41.3" y1="265" x2="79.2" y2="45.3"/>
	<line class="st0" x1="41.3" y1="265" x2="145.2" y2="16.6"/>
	<line class="st0" x1="41.3" y1="265" x2="128.4" y2="329.3"/>
	<line class="st0" x1="43" y1="267.6" x2="116.4" y2="325.2"/>
	<line class="st0" x1="55.8" y1="66.4" x2="17.7" y2="210.2"/>
	<line class="st0" x1="55.8" y1="66.4" x2="18.4" y2="213.3"/>
	<line class="st0" x1="55.8" y1="66.4" x2="142.1" y2="17.2"/>
	<line class="st0" x1="55.8" y1="66.4" x2="319.8" y2="245.8"/>
	<line class="st0" x1="55.8" y1="66.4" x2="137.5" y2="331.8"/>
	<line class="st0" x1="44.9" y1="270.1" x2="97.8" y2="33.5"/>
	<line class="st0" x1="97.8" y1="33.5" x2="54.8" y2="282.4"/>
	<line class="st0" x1="97.8" y1="33.5" x2="88.3" y2="310.9"/>
	<line class="st0" x1="46.8" y1="272.7" x2="106.3" y2="29.2"/>
	<line class="st0" x1="46.8" y1="272.7" x2="30.2" y2="245.8"/>
	<line class="st0" x1="46.8" y1="272.7" x2="20.5" y2="129.1"/>
	<line class="st0" x1="46.8" y1="272.7" x2="104.9" y2="320.1"/>
	<line class="st0" x1="20.5" y1="129.1" x2="170.3" y2="13.9"/>
	<line class="st0" x1="20.5" y1="129.1" x2="106.3" y2="29.2"/>
	<line class="st0" x1="20.5" y1="129.1" x2="30.2" y2="245.8"/>
	<line class="st0" x1="20.5" y1="129.1" x2="104.9" y2="320.1"/>
	<line class="st0" x1="48.7" y1="275.1" x2="53.7" y2="68.8"/>
	<line class="st0" x1="48.7" y1="275.1" x2="99.2" y2="317.3"/>
	<line class="st0" x1="48.7" y1="275.1" x2="154.5" y2="15.1"/>
	<line class="st0" x1="53.7" y1="68.8" x2="69.4" y2="53.2"/>
	<line class="st0" x1="53.7" y1="68.8" x2="220.1" y2="20.3"/>
	<line class="st0" x1="95.1" y1="35" x2="50.7" y2="277.6"/>
	<line class="st0" x1="95.1" y1="35" x2="102" y2="318.7"/>
	<line class="st0" x1="95.1" y1="35" x2="134.4" y2="331"/>
	<line class="st0" x1="50.7" y1="277.6" x2="102" y2="318.7"/>
	<line class="st0" x1="50.7" y1="277.6" x2="134.4" y2="331"/>
	<line class="st0" x1="132.9" y1="19.4" x2="120.9" y2="23.2"/>
	<line class="st0" x1="132.9" y1="19.4" x2="16.4" y2="204"/>
	<line class="st0" x1="132.9" y1="19.4" x2="52.7" y2="280"/>
	<line class="st0" x1="132.9" y1="19.4" x2="327.1" y2="228.4"/>
	<line class="st0" x1="132.9" y1="19.4" x2="328.1" y2="225.4"/>
	<line class="st0" x1="132.9" y1="19.4" x2="87" y2="39.9"/>
	<line class="st0" x1="132.9" y1="19.4" x2="333" y2="207.1"/>
	<line class="st0" x1="132.9" y1="19.4" x2="333.8" y2="147.5"/>
	<line class="st0" x1="52.7" y1="280" x2="16.4" y2="204"/>
	<line class="st0" x1="321.1" y1="243" x2="154.5" y2="15.1"/>
	<line class="st0" x1="129.9" y1="20.3" x2="303.2" y2="272.7"/>
	<line class="st0" x1="129.9" y1="20.3" x2="305.1" y2="270.1"/>
	<line class="st0" x1="129.9" y1="20.3" x2="112" y2="26.6"/>
	<line class="st0" x1="129.9" y1="20.3" x2="23.4" y2="120.1"/>
	<line class="st0" x1="129.9" y1="20.3" x2="209.4" y2="332.5"/>
	<line class="st0" x1="129.9" y1="20.3" x2="87" y2="39.9"/>
	<line class="st0" x1="129.9" y1="20.3" x2="272" y2="303.7"/>
	<line class="st0" x1="209.4" y1="332.5" x2="272" y2="303.7"/>
	<line class="st0" x1="51.7" y1="71.2" x2="74.2" y2="49.2"/>
	<line class="st0" x1="51.7" y1="71.2" x2="71.8" y2="51.2"/>
	<line class="st0" x1="51.7" y1="71.2" x2="92.4" y2="36.6"/>
	<line class="st0" x1="51.7" y1="71.2" x2="330.8" y2="216.3"/>
	<line class="st0" x1="51.7" y1="71.2" x2="239.4" y2="322.8"/>
	<line class="st0" x1="51.7" y1="71.2" x2="126.8" y2="21.2"/>
	<line class="st0" x1="92.4" y1="36.6" x2="126.8" y2="21.2"/>
	<line class="st0" x1="92.4" y1="36.6" x2="335.3" y2="191.5"/>
	<line class="st0" x1="92.4" y1="36.6" x2="285.3" y2="57.5"/>
	<line class="st0" x1="322.4" y1="240.1" x2="323.7" y2="237.2"/>
	<line class="st0" x1="212.5" y1="331.8" x2="334.3" y2="150.6"/>
	<line class="st0" x1="19.6" y1="132.1" x2="170.3" y2="13.9"/>
	<line class="st0" x1="19.6" y1="132.1" x2="167.1" y2="14"/>
	<line class="st0" x1="19.6" y1="132.1" x2="322.4" y2="240.1"/>
	<line class="st0" x1="19.6" y1="132.1" x2="323.7" y2="237.2"/>
	<line class="st0" x1="19.6" y1="132.1" x2="277" y2="299.8"/>
	<line class="st0" x1="61.3" y1="289.3" x2="81.8" y2="43.5"/>
	<line class="st0" x1="61.3" y1="289.3" x2="37" y2="91.7"/>
	<line class="st0" x1="61.3" y1="289.3" x2="24.5" y2="117.2"/>
	<line class="st0" x1="61.3" y1="289.3" x2="18.8" y2="135.2"/>
	<line class="st0" x1="18.8" y1="135.2" x2="62.4" y2="59.6"/>
	<line class="st0" x1="18.1" y1="138.2" x2="145.2" y2="16.6"/>
	<line class="st0" x1="18.1" y1="138.2" x2="142.1" y2="17.2"/>
	<line class="st0" x1="18.1" y1="138.2" x2="17.4" y2="141.3"/>
	<line class="st0" x1="18.1" y1="138.2" x2="68.2" y2="295.7"/>
	<line class="st0" x1="18.1" y1="138.2" x2="278.2" y2="51.2"/>
	<line class="st0" x1="17.4" y1="141.3" x2="145.2" y2="16.6"/>
	<line class="st0" x1="17.4" y1="141.3" x2="142.1" y2="17.2"/>
	<line class="st0" x1="17.4" y1="141.3" x2="68.2" y2="295.7"/>
	<line class="st0" x1="17.4" y1="141.3" x2="207.9" y2="17.2"/>
	<line class="st0" x1="16.7" y1="144.4" x2="13.9" y2="178.9"/>
	<line class="st0" x1="16.7" y1="144.4" x2="14" y2="182.1"/>
	<line class="st0" x1="16.7" y1="144.4" x2="63.6" y2="291.5"/>
	<line class="st0" x1="16.7" y1="144.4" x2="113.5" y2="324"/>
	<line class="st0" x1="63.6" y1="291.5" x2="14" y2="182.1"/>
	<line class="st0" x1="49.7" y1="73.6" x2="67" y2="55.3"/>
	<line class="st0" x1="49.7" y1="73.6" x2="60.2" y2="61.9"/>
	<line class="st0" x1="49.7" y1="73.6" x2="28.9" y2="243"/>
	<line class="st0" x1="49.7" y1="73.6" x2="16.2" y2="147.5"/>
	<line class="st0" x1="49.7" y1="73.6" x2="110.6" y2="322.8"/>
	<line class="st0" x1="16.2" y1="147.5" x2="60.2" y2="61.9"/>
	<line class="st0" x1="16.2" y1="147.5" x2="28.9" y2="243"/>
	<line class="st0" x1="16.2" y1="147.5" x2="246.6" y2="30.6"/>
	<line class="st0" x1="89.7" y1="38.2" x2="170.3" y2="13.9"/>
	<line class="st0" x1="89.7" y1="38.2" x2="26.3" y2="237.2"/>
	<line class="st0" x1="89.7" y1="38.2" x2="27.6" y2="240.1"/>
	<line class="st0" x1="89.7" y1="38.2" x2="85.7" y2="309.2"/>
	<line class="st0" x1="89.7" y1="38.2" x2="281.8" y2="295.7"/>
	<line class="st0" x1="47.7" y1="76.1" x2="71.8" y2="51.2"/>
	<line class="st0" x1="47.7" y1="76.1" x2="92.4" y2="36.6"/>
	<line class="st0" x1="47.7" y1="76.1" x2="215.6" y2="331"/>
	<line class="st0" x1="47.7" y1="76.1" x2="126.8" y2="21.2"/>
	<line class="st0" x1="47.7" y1="76.1" x2="335.3" y2="191.5"/>
	<line class="st0" x1="47.7" y1="76.1" x2="256.3" y2="314.2"/>
	<line class="st0" x1="65.9" y1="293.6" x2="34.6" y2="254.2"/>
	<line class="st0" x1="65.9" y1="293.6" x2="122.3" y2="327.3"/>
	<line class="st0" x1="70.6" y1="297.8" x2="73" y2="299.8"/>
	<line class="st0" x1="75.5" y1="301.8" x2="43" y2="267.6"/>
	<line class="st0" x1="75.5" y1="301.8" x2="116.4" y2="325.2"/>
	<line class="st0" x1="78" y1="303.7" x2="76.7" y2="47.2"/>
	<line class="st0" x1="78" y1="303.7" x2="36.2" y2="257"/>
	<line class="st0" x1="78" y1="303.7" x2="37.8" y2="259.7"/>
	<line class="st0" x1="326" y1="231.4" x2="334.8" y2="153.8"/>
	<line class="st0" x1="80.5" y1="305.6" x2="151.4" y2="15.5"/>
	<line class="st0" x1="80.5" y1="305.6" x2="95.1" y2="35"/>
	<line class="st0" x1="80.5" y1="305.6" x2="131.4" y2="330.2"/>
	<line class="st0" x1="80.5" y1="305.6" x2="263" y2="39.9"/>
	<line class="st0" x1="218.6" y1="330.2" x2="184.5" y2="335.9"/>
	<line class="st0" x1="218.6" y1="330.2" x2="286.4" y2="291.5"/>
	<line class="st0" x1="221.6" y1="329.3" x2="266.9" y2="307.4"/>
	<line class="st0" x1="15.7" y1="150.6" x2="167.1" y2="14"/>
	<line class="st0" x1="15.7" y1="150.6" x2="224.7" y2="328.3"/>
	<line class="st0" x1="15.7" y1="150.6" x2="313" y2="91.7"/>
	<line class="st0" x1="15.7" y1="150.6" x2="264.3" y2="309.2"/>
	<line class="st0" x1="15.7" y1="150.6" x2="217.1" y2="19.4"/>
	<line class="st0" x1="224.7" y1="328.3" x2="167.1" y2="14"/>
	<line class="st0" x1="327.1" y1="228.4" x2="328.1" y2="225.4"/>
	<line class="st0" x1="87" y1="39.9" x2="16.4" y2="204"/>
	<line class="st0" x1="87" y1="39.9" x2="52.7" y2="280"/>
	<line class="st0" x1="87" y1="39.9" x2="209.4" y2="332.5"/>
	<line class="st0" x1="87" y1="39.9" x2="272" y2="303.7"/>
	<line class="st0" x1="227.7" y1="327.3" x2="42.1" y2="83.7"/>
	<line class="st0" x1="83.1" y1="307.4" x2="117.9" y2="24.3"/>
	<line class="st0" x1="83.1" y1="307.4" x2="160.8" y2="14.4"/>
	<line class="st0" x1="83.1" y1="307.4" x2="45.8" y2="78.6"/>
	<line class="st0" x1="83.1" y1="307.4" x2="119.4" y2="326.3"/>
	<line class="st0" x1="45.8" y1="78.6" x2="160.8" y2="14.4"/>
	<line class="st0" x1="45.8" y1="78.6" x2="335.9" y2="185.2"/>
	<line class="st0" x1="45.8" y1="78.6" x2="332.6" y2="141.3"/>
	<line class="st0" x1="44" y1="81.1" x2="170.3" y2="13.9"/>
	<line class="st0" x1="44" y1="81.1" x2="112" y2="26.6"/>
	<line class="st0" x1="44" y1="81.1" x2="23.4" y2="120.1"/>
	<line class="st0" x1="44" y1="81.1" x2="21.9" y2="225.4"/>
	<line class="st0" x1="44" y1="81.1" x2="187.6" y2="335.7"/>
	<line class="st0" x1="44" y1="81.1" x2="129.9" y2="20.3"/>
	<line class="st0" x1="85.7" y1="309.2" x2="27.6" y2="240.1"/>
	<line class="st0" x1="88.3" y1="310.9" x2="54.8" y2="282.4"/>
	<line class="st0" x1="42.1" y1="83.7" x2="269.5" y2="305.6"/>
	<line class="st0" x1="42.1" y1="83.7" x2="284.1" y2="293.6"/>
	<line class="st0" x1="15.2" y1="153.8" x2="64.7" y2="57.5"/>
	<line class="st0" x1="15.2" y1="153.8" x2="22.9" y2="228.4"/>
	<line class="st0" x1="15.2" y1="153.8" x2="324.9" y2="234.3"/>
	<line class="st0" x1="15.2" y1="153.8" x2="91" y2="312.6"/>
	<line class="st0" x1="91" y1="312.6" x2="64.7" y2="57.5"/>
	<line class="st0" x1="91" y1="312.6" x2="22.9" y2="228.4"/>
	<line class="st0" x1="93.7" y1="314.2" x2="96.5" y2="315.8"/>
	<line class="st0" x1="330.8" y1="216.3" x2="331.6" y2="213.3"/>
	<line class="st0" x1="331.6" y1="213.3" x2="143.7" y2="333.1"/>
	<line class="st0" x1="14.8" y1="156.9" x2="336.1" y2="178.9"/>
	<line class="st0" x1="14.8" y1="156.9" x2="296.3" y2="68.8"/>
	<line class="st0" x1="230.6" y1="326.3" x2="162.4" y2="335.7"/>
	<line class="st0" x1="230.6" y1="326.3" x2="14.2" y2="163.2"/>
	<line class="st0" x1="99.2" y1="317.3" x2="53.7" y2="68.8"/>
	<line class="st0" x1="102" y1="318.7" x2="134.4" y2="331"/>
	<line class="st0" x1="233.6" y1="325.2" x2="332.3" y2="210.2"/>
	<line class="st0" x1="107.7" y1="321.5" x2="310.5" y2="262.3"/>
	<line class="st0" x1="107.7" y1="321.5" x2="24" y2="231.4"/>
	<line class="st0" x1="107.7" y1="321.5" x2="190.8" y2="335.4"/>
	<line class="st0" x1="110.6" y1="322.8" x2="60.2" y2="61.9"/>
	<line class="st0" x1="110.6" y1="322.8" x2="28.9" y2="243"/>
	<line class="st0" x1="110.6" y1="322.8" x2="16.2" y2="147.5"/>
	<line class="st0" x1="236.5" y1="324" x2="159.2" y2="335.4"/>
	<line class="st0" x1="113.5" y1="324" x2="13.9" y2="178.9"/>
	<line class="st0" x1="113.5" y1="324" x2="14" y2="182.1"/>
	<line class="st0" x1="113.5" y1="324" x2="63.6" y2="291.5"/>
	<line class="st0" x1="14.5" y1="160" x2="164" y2="14.2"/>
	<line class="st0" x1="14.5" y1="160" x2="15.4" y2="197.8"/>
	<line class="st0" x1="14.5" y1="160" x2="56.9" y2="284.7"/>
	<line class="st0" x1="245.1" y1="320.1" x2="279.4" y2="297.8"/>
	<line class="st0" x1="245.1" y1="320.1" x2="140.6" y2="332.5"/>
	<line class="st0" x1="248" y1="318.7" x2="175" y2="336.2"/>
	<line class="st0" x1="333" y1="207.1" x2="333.8" y2="147.5"/>
	<line class="st0" x1="126.8" y1="21.2" x2="215.6" y2="331"/>
	<line class="st0" x1="126.8" y1="21.2" x2="239.4" y2="322.8"/>
	<line class="st0" x1="126.8" y1="21.2" x2="256.3" y2="314.2"/>
	<line class="st0" x1="154.5" y1="15.1" x2="24" y2="231.4"/>
	<line class="st0" x1="154.5" y1="15.1" x2="190.8" y2="335.4"/>
	<line class="st0" x1="154.5" y1="15.1" x2="53.7" y2="68.8"/>
	<line class="st0" x1="154.5" y1="15.1" x2="99.2" y2="317.3"/>
	<line class="st0" x1="154.5" y1="15.1" x2="107.7" y2="321.5"/>
	<line class="st0" x1="154.5" y1="15.1" x2="214" y2="18.6"/>
	<line class="st0" x1="84.4" y1="41.7" x2="168.7" y2="336.1"/>
	<line class="st0" x1="84.4" y1="41.7" x2="14.4" y2="188.4"/>
	<line class="st0" x1="84.4" y1="41.7" x2="136" y2="18.6"/>
	<line class="st0" x1="84.4" y1="41.7" x2="329.1" y2="222.4"/>
	<line class="st0" x1="84.4" y1="41.7" x2="250.8" y2="317.3"/>
	<line class="st0" x1="84.4" y1="41.7" x2="307.9" y2="83.7"/>
	<line class="st0" x1="84.4" y1="41.7" x2="254.9" y2="35"/>
	<line class="st0" x1="253.5" y1="315.8" x2="164" y2="14.2"/>
	<line class="st0" x1="253.5" y1="315.8" x2="55.8" y2="66.4"/>
	<line class="st0" x1="253.5" y1="315.8" x2="283" y2="55.3"/>
	<line class="st0" x1="123.8" y1="22.1" x2="35.4" y2="94.4"/>
	<line class="st0" x1="123.8" y1="22.1" x2="165.5" y2="335.9"/>
	<line class="st0" x1="123.8" y1="22.1" x2="64.7" y2="57.5"/>
	<line class="st0" x1="123.8" y1="22.1" x2="22.9" y2="228.4"/>
	<line class="st0" x1="123.8" y1="22.1" x2="15.2" y2="153.8"/>
	<line class="st0" x1="123.8" y1="22.1" x2="91" y2="312.6"/>
	<line class="st0" x1="123.8" y1="22.1" x2="334.1" y2="200.9"/>
	<line class="st0" x1="334.6" y1="197.8" x2="331.2" y2="135.2"/>
	<line class="st0" x1="335" y1="194.7" x2="335.2" y2="156.9"/>
	<line class="st0" x1="256.3" y1="314.2" x2="215.6" y2="331"/>
	<line class="st0" x1="119.4" y1="326.3" x2="117.9" y2="24.3"/>
	<line class="st0" x1="119.4" y1="326.3" x2="160.8" y2="14.4"/>
	<line class="st0" x1="119.4" y1="326.3" x2="45.8" y2="78.6"/>
	<line class="st0" x1="259" y1="312.6" x2="181.3" y2="336.1"/>
	<line class="st0" x1="122.3" y1="327.3" x2="34.6" y2="254.2"/>
	<line class="st0" x1="261.7" y1="310.9" x2="21.4" y2="126.1"/>
	<line class="st0" x1="261.7" y1="310.9" x2="200.1" y2="334.2"/>
	<line class="st0" x1="261.7" y1="310.9" x2="146.8" y2="333.7"/>
	<line class="st0" x1="125.3" y1="328.3" x2="19.2" y2="216.3"/>
	<line class="st0" x1="264.3" y1="309.2" x2="167.1" y2="14"/>
	<line class="st0" x1="264.3" y1="309.2" x2="224.7" y2="328.3"/>
	<line class="st0" x1="335.9" y1="185.2" x2="332.6" y2="141.3"/>
	<line class="st0" x1="336" y1="182.1" x2="14.8" y2="156.9"/>
	<line class="st0" x1="336" y1="182.1" x2="336.1" y2="178.9"/>
	<line class="st0" x1="304.2" y1="78.6" x2="301.3" y2="275.1"/>
	<line class="st0" x1="269.5" y1="305.6" x2="284.1" y2="293.6"/>
	<line class="st0" x1="274.5" y1="301.8" x2="203.2" y2="333.7"/>
	<line class="st0" x1="336.2" y1="175.8" x2="329.5" y2="129.1"/>
	<line class="st0" x1="128.4" y1="329.3" x2="79.2" y2="45.3"/>
	<line class="st0" x1="128.4" y1="329.3" x2="145.2" y2="16.6"/>
	<line class="st0" x1="336.2" y1="172.6" x2="74.2" y2="49.2"/>
	<line class="st0" x1="336.2" y1="172.6" x2="302.3" y2="76.1"/>
	<line class="st0" x1="131.4" y1="330.2" x2="297.3" y2="280"/>
	<line class="st0" x1="131.4" y1="330.2" x2="95.1" y2="35"/>
	<line class="st0" x1="137.5" y1="331.8" x2="18.4" y2="213.3"/>
	<line class="st0" x1="140.6" y1="332.5" x2="279.4" y2="297.8"/>
	<line class="st0" x1="336.1" y1="169.5" x2="173.4" y2="13.8"/>
	<line class="st0" x1="292" y1="64.1" x2="336.1" y2="169.5"/>
	<line class="st0" x1="14.2" y1="163.2" x2="69.4" y2="53.2"/>
	<line class="st0" x1="14.2" y1="163.2" x2="221.6" y2="329.3"/>
	<line class="st0" x1="14.2" y1="163.2" x2="266.9" y2="307.4"/>
	<line class="st0" x1="281.8" y1="295.7" x2="170.3" y2="13.9"/>
	<line class="st0" x1="14" y1="166.3" x2="17" y2="207.1"/>
	<line class="st0" x1="14" y1="166.3" x2="48.7" y2="275.1"/>
	<line class="st0" x1="14" y1="166.3" x2="53.7" y2="68.8"/>
	<line class="st0" x1="14" y1="166.3" x2="99.2" y2="317.3"/>
	<line class="st0" x1="14" y1="166.3" x2="154.5" y2="15.1"/>
	<line class="st0" x1="336" y1="166.3" x2="307" y2="267.6"/>
	<line class="st0" x1="336" y1="166.3" x2="265.6" y2="41.7"/>
	<line class="st0" x1="287.6" y1="59.6" x2="67" y2="55.3"/>
	<line class="st0" x1="286.4" y1="291.5" x2="184.5" y2="335.9"/>
	<line class="st0" x1="143.7" y1="333.1" x2="330" y2="219.4"/>
	<line class="st0" x1="143.7" y1="333.1" x2="280.6" y2="53.2"/>
	<line class="st0" x1="288.7" y1="289.3" x2="315.4" y2="254.2"/>
	<line class="st0" x1="288.7" y1="289.3" x2="226.2" y2="22.1"/>
	<line class="st0" x1="335.5" y1="160" x2="193.9" y2="335.1"/>
	<line class="st0" x1="335.5" y1="160" x2="312.2" y2="259.7"/>
	<line class="st0" x1="290.9" y1="287" x2="14.8" y2="156.9"/>
	<line class="st0" x1="333.3" y1="144.4" x2="212.5" y2="331.8"/>
	<line class="st0" x1="331.9" y1="138.2" x2="21.9" y2="225.4"/>
	<line class="st0" x1="331.9" y1="138.2" x2="235" y2="25.4"/>
	<line class="st0" x1="330.4" y1="132.1" x2="192.3" y2="14.7"/>
	<line class="st0" x1="252.2" y1="33.5" x2="233.6" y2="325.2"/>
	<line class="st0" x1="13.9" y1="169.5" x2="175" y2="336.2"/>
	<line class="st0" x1="13.9" y1="169.5" x2="319.8" y2="245.8"/>
	<line class="st0" x1="13.9" y1="169.5" x2="248" y2="318.7"/>
	<line class="st0" x1="13.9" y1="169.5" x2="232.1" y2="24.3"/>
	<line class="st0" x1="146.8" y1="333.7" x2="200.1" y2="334.2"/>
	<line class="st0" x1="146.8" y1="333.7" x2="243.7" y2="29.2"/>
	<line class="st0" x1="293.1" y1="284.7" x2="203.2" y2="333.7"/>
	<line class="st0" x1="293.1" y1="284.7" x2="274.5" y2="301.8"/>
	<line class="st0" x1="238" y1="26.6" x2="290.9" y2="287"/>
	<line class="st0" x1="229.1" y1="23.2" x2="33.9" y2="97.2"/>
	<line class="st0" x1="211" y1="17.9" x2="49.7" y2="73.6"/>
	<line class="st0" x1="198.6" y1="15.5" x2="230.6" y2="326.3"/>
	<line class="st0" x1="176.6" y1="13.8" x2="29.5" y2="105.6"/>
	<path d="M297.1,282.4c0-1.1-0.9-1.9-1.9-1.9c-1.1,0-1.9,0.9-1.9,1.9c0,1.1,0.9,1.9,1.9,1.9C296.3,284.3,297.1,283.5,297.1,282.4"/>
	<path d="M330.5,126.1c0-1.1-0.9-1.9-1.9-1.9c-1.1,0-1.9,0.9-1.9,1.9c0,1.1,0.9,1.9,1.9,1.9C329.7,128,330.5,127.2,330.5,126.1"/>
	<path d="M151.8,334.2c0-1.1-0.9-1.9-1.9-1.9c-1.1,0-1.9,0.9-1.9,1.9c0,1.1,0.9,1.9,1.9,1.9C150.9,336.2,151.8,335.3,151.8,334.2"/>
	<path d="M154.9,334.7c0-1.1-0.9-1.9-1.9-1.9c-1.1,0-1.9,0.9-1.9,1.9c0,1.1,0.9,1.9,1.9,1.9C154.1,336.6,154.9,335.7,154.9,334.7"/>
	<path d="M42.3,86.3c0-1.1-0.9-1.9-1.9-1.9s-1.9,0.9-1.9,1.9c0,1.1,0.9,1.9,1.9,1.9S42.3,87.4,42.3,86.3"/>
	<path d="M165.9,14.2c0-1.1-0.9-1.9-1.9-1.9c-1.1,0-1.9,0.9-1.9,1.9c0,1.1,0.9,1.9,1.9,1.9C165,16.1,165.9,15.3,165.9,14.2"/>
	<path d="M15.8,172.6c0-1.1-0.9-1.9-1.9-1.9c-1.1,0-1.9,0.9-1.9,1.9c0,1.1,0.9,1.9,1.9,1.9C14.9,174.6,15.8,173.7,15.8,172.6"/>
	<path d="M158.1,335.1c0-1.1-0.9-1.9-1.9-1.9c-1.1,0-1.9,0.9-1.9,1.9c0,1.1,0.9,1.9,1.9,1.9C157.2,337,158.1,336.1,158.1,335.1"/>
	<path d="M153.4,15.5c0-1.1-0.9-1.9-1.9-1.9c-1.1,0-1.9,0.9-1.9,1.9c0,1.1,0.9,1.9,1.9,1.9C152.5,17.5,153.4,16.6,153.4,15.5"/>
	<path d="M299.2,280c0-1.1-0.9-1.9-1.9-1.9c-1.1,0-1.9,0.9-1.9,1.9c0,1.1,0.9,1.9,1.9,1.9C298.4,281.9,299.2,281.1,299.2,280"/>
	<path d="M40.6,89c0-1.1-0.9-1.9-1.9-1.9c-1.1,0-1.9,0.9-1.9,1.9c0,1.1,0.9,1.9,1.9,1.9C39.7,90.9,40.6,90.1,40.6,89"/>
	<path d="M15.8,175.8c0-1.1-0.9-1.9-1.9-1.9c-1.1,0-1.9,0.9-1.9,1.9c0,1.1,0.9,1.9,1.9,1.9C14.9,177.7,15.8,176.9,15.8,175.8"/>
	<path d="M172.2,13.9c0-1.1-0.9-1.9-1.9-1.9c-1.1,0-1.9,0.9-1.9,1.9c0,1.1,0.9,1.9,1.9,1.9C171.3,15.8,172.2,14.9,172.2,13.9"/>
	<path d="M161.2,335.4c0-1.1-0.9-1.9-1.9-1.9c-1.1,0-1.9,0.9-1.9,1.9c0,1.1,0.9,1.9,1.9,1.9C160.3,337.4,161.2,336.5,161.2,335.4"/>
	<path d="M15.8,178.9c0-1.1-0.9-1.9-1.9-1.9c-1.1,0-1.9,0.9-1.9,1.9c0,1.1,0.9,1.9,1.9,1.9C14.9,180.9,15.8,180,15.8,178.9"/>
	<path d="M15.9,182.1c0-1.1-0.9-1.9-1.9-1.9S12,181,12,182.1c0,1.1,0.9,1.9,1.9,1.9S15.9,183.2,15.9,182.1"/>
	<path d="M301.3,277.6c0-1.1-0.9-1.9-1.9-1.9c-1.1,0-1.9,0.9-1.9,1.9c0,1.1,0.9,1.9,1.9,1.9C300.4,279.5,301.3,278.7,301.3,277.6"/>
	<path d="M329.5,123.1c0-1.1-0.9-1.9-1.9-1.9c-1.1,0-1.9,0.9-1.9,1.9c0,1.1,0.9,1.9,1.9,1.9C328.7,125,329.5,124.2,329.5,123.1"/>
	<path d="M83.7,43.5c0-1.1-0.9-1.9-1.9-1.9s-1.9,0.9-1.9,1.9c0,1.1,0.9,1.9,1.9,1.9S83.7,44.6,83.7,43.5"/>
	<path d="M39,91.7c0-1.1-0.9-1.9-1.9-1.9c-1.1,0-1.9,0.9-1.9,1.9c0,1.1,0.9,1.9,1.9,1.9C38.1,93.6,39,92.8,39,91.7"/>
	<path d="M164.3,335.7c0-1.1-0.9-1.9-1.9-1.9s-1.9,0.9-1.9,1.9c0,1.1,0.9,1.9,1.9,1.9S164.3,336.8,164.3,335.7"/>
	<path d="M16.1,185.2c0-1.1-0.9-1.9-1.9-1.9s-1.9,0.9-1.9,1.9c0,1.1,0.9,1.9,1.9,1.9S16.1,186.3,16.1,185.2"/>
	<path d="M37.3,94.4c0-1.1-0.9-1.9-1.9-1.9s-1.9,0.9-1.9,1.9c0,1.1,0.9,1.9,1.9,1.9S37.3,95.5,37.3,94.4"/>
	<path d="M167.5,335.9c0-1.1-0.9-1.9-1.9-1.9c-1.1,0-1.9,0.9-1.9,1.9c0,1.1,0.9,1.9,1.9,1.9C166.6,337.8,167.5,337,167.5,335.9"/>
	<path d="M170.6,336.1c0-1.1-0.9-1.9-1.9-1.9c-1.1,0-1.9,0.9-1.9,1.9s0.9,1.9,1.9,1.9C169.8,338,170.6,337.1,170.6,336.1"/>
	<path d="M16.3,188.4c0-1.1-0.9-1.9-1.9-1.9s-1.9,0.9-1.9,1.9c0,1.1,0.9,1.9,1.9,1.9S16.3,189.5,16.3,188.4"/>
	<path d="M175.4,13.8c0-1.1-0.9-1.9-1.9-1.9c-1.1,0-1.9,0.9-1.9,1.9s0.9,1.9,1.9,1.9C174.5,15.8,175.4,14.9,175.4,13.8"/>
	<path d="M303.2,275.1c0-1.1-0.9-1.9-1.9-1.9c-1.1,0-1.9,0.9-1.9,1.9c0,1.1,0.9,1.9,1.9,1.9C302.4,277.1,303.2,276.2,303.2,275.1"/>
	<path d="M16.6,191.5c0-1.1-0.9-1.9-1.9-1.9c-1.1,0-1.9,0.9-1.9,1.9c0,1.1,0.9,1.9,1.9,1.9C15.7,193.5,16.6,192.6,16.6,191.5"/>
	<path d="M35.8,97.2c0-1.1-0.9-1.9-1.9-1.9c-1.1,0-1.9,0.9-1.9,1.9c0,1.1,0.9,1.9,1.9,1.9C34.9,99.1,35.8,98.2,35.8,97.2"/>
	<path d="M34.3,99.9c0-1.1-0.9-1.9-1.9-1.9c-1.1,0-1.9,0.9-1.9,1.9c0,1.1,0.9,1.9,1.9,1.9C33.4,101.9,34.3,101,34.3,99.9"/>
	<path d="M32.9,102.7c0-1.1-0.9-1.9-1.9-1.9c-1.1,0-1.9,0.9-1.9,1.9c0,1.1,0.9,1.9,1.9,1.9C32,104.7,32.9,103.8,32.9,102.7"/>
	<path d="M150.2,16c0-1.1-0.9-1.9-1.9-1.9c-1.1,0-1.9,0.9-1.9,1.9c0,1.1,0.9,1.9,1.9,1.9C149.4,18,150.2,17.1,150.2,16"/>
	<path d="M31.5,105.6c0-1.1-0.9-1.9-1.9-1.9c-1.1,0-1.9,0.9-1.9,1.9c0,1.1,0.9,1.9,1.9,1.9C30.6,107.5,31.5,106.6,31.5,105.6"/>
	<path d="M81.2,45.3c0-1.1-0.9-1.9-1.9-1.9c-1.1,0-1.9,0.9-1.9,1.9s0.9,1.9,1.9,1.9C80.3,47.3,81.2,46.4,81.2,45.3"/>
	<path d="M173.8,336.2c0-1.1-0.9-1.9-1.9-1.9s-1.9,0.9-1.9,1.9c0,1.1,0.9,1.9,1.9,1.9S173.8,337.2,173.8,336.2"/>
	<path d="M176.9,336.2c0-1.1-0.9-1.9-1.9-1.9c-1.1,0-1.9,0.9-1.9,1.9c0,1.1,0.9,1.9,1.9,1.9C176.1,338.1,176.9,337.3,176.9,336.2"/>
	<path d="M17,194.7c0-1.1-0.9-1.9-1.9-1.9c-1.1,0-1.9,0.9-1.9,1.9c0,1.1,0.9,1.9,1.9,1.9C16.1,196.6,17,195.7,17,194.7"/>
	<path d="M78.7,47.2c0-1.1-0.9-1.9-1.9-1.9s-1.9,0.9-1.9,1.9c0,1.1,0.9,1.9,1.9,1.9S78.7,48.3,78.7,47.2"/>
	<path d="M76.2,49.2c0-1.1-0.9-1.9-1.9-1.9s-1.9,0.9-1.9,1.9c0,1.1,0.9,1.9,1.9,1.9S76.2,50.3,76.2,49.2"/>
	<path d="M73.7,51.2c0-1.1-0.9-1.9-1.9-1.9c-1.1,0-1.9,0.9-1.9,1.9c0,1.1,0.9,1.9,1.9,1.9C72.9,53.1,73.7,52.3,73.7,51.2"/>
	<path d="M17.4,197.8c0-1.1-0.9-1.9-1.9-1.9c-1.1,0-1.9,0.9-1.9,1.9c0,1.1,0.9,1.9,1.9,1.9C16.5,199.7,17.4,198.9,17.4,197.8"/>
	<path d="M30.1,108.4c0-1.1-0.9-1.9-1.9-1.9c-1.1,0-1.9,0.9-1.9,1.9c0,1.1,0.9,1.9,1.9,1.9C29.3,110.4,30.1,109.5,30.1,108.4"/>
	<path d="M28.9,111.3c0-1.1-0.9-1.9-1.9-1.9c-1.1,0-1.9,0.9-1.9,1.9c0,1.1,0.9,1.9,1.9,1.9C28,113.3,28.9,112.4,28.9,111.3"/>
	<path d="M27.6,114.2c0-1.1-0.9-1.9-1.9-1.9c-1.1,0-1.9,0.9-1.9,1.9c0,1.1,0.9,1.9,1.9,1.9C26.8,116.2,27.6,115.3,27.6,114.2"/>
	<path d="M17.8,200.9c0-1.1-0.9-1.9-1.9-1.9c-1.1,0-1.9,0.9-1.9,1.9s0.9,1.9,1.9,1.9C17,202.9,17.8,202,17.8,200.9"/>
	<path d="M305.2,272.7c0-1.1-0.9-1.9-1.9-1.9c-1.1,0-1.9,0.9-1.9,1.9c0,1.1,0.9,1.9,1.9,1.9C304.3,274.6,305.2,273.7,305.2,272.7"/>
	<path d="M307.1,270.1c0-1.1-0.9-1.9-1.9-1.9c-1.1,0-1.9,0.9-1.9,1.9c0,1.1,0.9,1.9,1.9,1.9C306.2,272.1,307.1,271.2,307.1,270.1"/>
	<path d="M122.8,23.2c0-1.1-0.9-1.9-1.9-1.9c-1.1,0-1.9,0.9-1.9,1.9c0,1.1,0.9,1.9,1.9,1.9C121.9,25.1,122.8,24.2,122.8,23.2"/>
	<path d="M18.4,204c0-1.1-0.9-1.9-1.9-1.9c-1.1,0-1.9,0.9-1.9,1.9c0,1.1,0.9,1.9,1.9,1.9C17.5,206,18.4,205.1,18.4,204"/>
	<path d="M119.8,24.3c0-1.1-0.9-1.9-1.9-1.9c-1.1,0-1.9,0.9-1.9,1.9c0,1.1,0.9,1.9,1.9,1.9C119,26.2,119.8,25.3,119.8,24.3"/>
	<path d="M162.8,14.4c0-1.1-0.9-1.9-1.9-1.9s-1.9,0.9-1.9,1.9c0,1.1,0.9,1.9,1.9,1.9S162.8,15.5,162.8,14.4"/>
	<path d="M308.9,267.6c0-1.1-0.9-1.9-1.9-1.9c-1.1,0-1.9,0.9-1.9,1.9s0.9,1.9,1.9,1.9C308,269.5,308.9,268.6,308.9,267.6"/>
	<path d="M71.3,53.2c0-1.1-0.9-1.9-1.9-1.9c-1.1,0-1.9,0.9-1.9,1.9c0,1.1,0.9,1.9,1.9,1.9C70.5,55.2,71.3,54.3,71.3,53.2"/>
	<path d="M310.7,265c0-1.1-0.9-1.9-1.9-1.9c-1.1,0-1.9,0.9-1.9,1.9c0,1.1,0.9,1.9,1.9,1.9C309.8,266.9,310.7,266,310.7,265"/>
	<path d="M328.5,120.1c0-1.1-0.9-1.9-1.9-1.9c-1.1,0-1.9,0.9-1.9,1.9s0.9,1.9,1.9,1.9C327.6,122.1,328.5,121.2,328.5,120.1"/>
	<path d="M19,207.1c0-1.1-0.9-1.9-1.9-1.9c-1.1,0-1.9,0.9-1.9,1.9c0,1.1,0.9,1.9,1.9,1.9C18.1,209.1,19,208.2,19,207.1"/>
	<path d="M312.4,262.3c0-1.1-0.9-1.9-1.9-1.9c-1.1,0-1.9,0.9-1.9,1.9s0.9,1.9,1.9,1.9C311.6,264.3,312.4,263.4,312.4,262.3"/>
	<path d="M19.6,210.2c0-1.1-0.9-1.9-1.9-1.9c-1.1,0-1.9,0.9-1.9,1.9s0.9,1.9,1.9,1.9C18.8,212.1,19.6,211.3,19.6,210.2"/>
	<path d="M20.4,213.3c0-1.1-0.9-1.9-1.9-1.9c-1.1,0-1.9,0.9-1.9,1.9c0,1.1,0.9,1.9,1.9,1.9C19.5,215.2,20.4,214.3,20.4,213.3"/>
	<path d="M180.1,336.2c0-1.1-0.9-1.9-1.9-1.9s-1.9,0.9-1.9,1.9c0,1.1,0.9,1.9,1.9,1.9S180.1,337.2,180.1,336.2"/>
	<path d="M183.2,336.1c0-1.1-0.9-1.9-1.9-1.9c-1.1,0-1.9,0.9-1.9,1.9s0.9,1.9,1.9,1.9C182.4,338,183.2,337.1,183.2,336.1"/>
	<path d="M21.1,216.3c0-1.1-0.9-1.9-1.9-1.9c-1.1,0-1.9,0.9-1.9,1.9c0,1.1,0.9,1.9,1.9,1.9C20.3,218.3,21.1,217.4,21.1,216.3"/>
	<path d="M116.9,25.4c0-1.1-0.9-1.9-1.9-1.9s-1.9,0.9-1.9,1.9c0,1.1,0.9,1.9,1.9,1.9S116.9,26.5,116.9,25.4"/>
	<path d="M186.4,335.9c0-1.1-0.9-1.9-1.9-1.9c-1.1,0-1.9,0.9-1.9,1.9c0,1.1,0.9,1.9,1.9,1.9C185.5,337.8,186.4,337,186.4,335.9"/>
	<path d="M327.4,117.2c0-1.1-0.9-1.9-1.9-1.9c-1.1,0-1.9,0.9-1.9,1.9c0,1.1,0.9,1.9,1.9,1.9C326.5,119.1,327.4,118.2,327.4,117.2"/>
	<path d="M169.1,14c0-1.1-0.9-1.9-1.9-1.9c-1.1,0-1.9,0.9-1.9,1.9c0,1.1,0.9,1.9,1.9,1.9C168.2,15.9,169.1,15.1,169.1,14"/>
	<path d="M22,219.4c0-1.1-0.9-1.9-1.9-1.9s-1.9,0.9-1.9,1.9c0,1.1,0.9,1.9,1.9,1.9S22,220.4,22,219.4"/>
	<path d="M26.5,117.2c0-1.1-0.9-1.9-1.9-1.9c-1.1,0-1.9,0.9-1.9,1.9c0,1.1,0.9,1.9,1.9,1.9C25.6,119.1,26.5,118.2,26.5,117.2"/>
	<path d="M114,26.6c0-1.1-0.9-1.9-1.9-1.9c-1.1,0-1.9,0.9-1.9,1.9c0,1.1,0.9,1.9,1.9,1.9C113.1,28.6,114,27.7,114,26.6"/>
	<path d="M25.4,120.1c0-1.1-0.9-1.9-1.9-1.9c-1.1,0-1.9,0.9-1.9,1.9s0.9,1.9,1.9,1.9C24.5,122.1,25.4,121.2,25.4,120.1"/>
	<path d="M69,55.3c0-1.1-0.9-1.9-1.9-1.9c-1.1,0-1.9,0.9-1.9,1.9c0,1.1,0.9,1.9,1.9,1.9C68.1,57.3,69,56.4,69,55.3"/>
	<path d="M22.9,222.4c0-1.1-0.9-1.9-1.9-1.9c-1.1,0-1.9,0.9-1.9,1.9s0.9,1.9,1.9,1.9C22,224.3,22.9,223.5,22.9,222.4"/>
	<path d="M23.8,225.4c0-1.1-0.9-1.9-1.9-1.9c-1.1,0-1.9,0.9-1.9,1.9c0,1.1,0.9,1.9,1.9,1.9C23,227.3,23.8,226.5,23.8,225.4"/>
	<path d="M189.5,335.7c0-1.1-0.9-1.9-1.9-1.9s-1.9,0.9-1.9,1.9c0,1.1,0.9,1.9,1.9,1.9S189.5,336.8,189.5,335.7"/>
	<path d="M66.6,57.5c0-1.1-0.9-1.9-1.9-1.9c-1.1,0-1.9,0.9-1.9,1.9c0,1.1,0.9,1.9,1.9,1.9C65.8,59.4,66.6,58.5,66.6,57.5"/>
	<path d="M24.9,228.4c0-1.1-0.9-1.9-1.9-1.9c-1.1,0-1.9,0.9-1.9,1.9c0,1.1,0.9,1.9,1.9,1.9C24,230.3,24.9,229.5,24.9,228.4"/>
	<path d="M25.9,231.4c0-1.1-0.9-1.9-1.9-1.9c-1.1,0-1.9,0.9-1.9,1.9c0,1.1,0.9,1.9,1.9,1.9C25.1,233.3,25.9,232.4,25.9,231.4"/>
	<path d="M192.7,335.4c0-1.1-0.9-1.9-1.9-1.9s-1.9,0.9-1.9,1.9c0,1.1,0.9,1.9,1.9,1.9S192.7,336.5,192.7,335.4"/>
	<path d="M64.4,59.6c0-1.1-0.9-1.9-1.9-1.9c-1.1,0-1.9,0.9-1.9,1.9c0,1.1,0.9,1.9,1.9,1.9C63.5,61.6,64.4,60.7,64.4,59.6"/>
	<path d="M27.1,234.3c0-1.1-0.9-1.9-1.9-1.9c-1.1,0-1.9,0.9-1.9,1.9c0,1.1,0.9,1.9,1.9,1.9C26.2,236.2,27.1,235.4,27.1,234.3"/>
	<path d="M111.1,27.9c0-1.1-0.9-1.9-1.9-1.9c-1.1,0-1.9,0.9-1.9,1.9c0,1.1,0.9,1.9,1.9,1.9C110.2,29.8,111.1,28.9,111.1,27.9"/>
	<path d="M28.2,237.2c0-1.1-0.9-1.9-1.9-1.9c-1.1,0-1.9,0.9-1.9,1.9c0,1.1,0.9,1.9,1.9,1.9C27.4,239.2,28.2,238.3,28.2,237.2"/>
	<path d="M29.5,240.1c0-1.1-0.9-1.9-1.9-1.9c-1.1,0-1.9,0.9-1.9,1.9c0,1.1,0.9,1.9,1.9,1.9C28.6,242.1,29.5,241.2,29.5,240.1"/>
	<path d="M62.1,61.9c0-1.1-0.9-1.9-1.9-1.9c-1.1,0-1.9,0.9-1.9,1.9c0,1.1,0.9,1.9,1.9,1.9C61.3,63.8,62.1,62.9,62.1,61.9"/>
	<path d="M30.8,243c0-1.1-0.9-1.9-1.9-1.9c-1.1,0-1.9,0.9-1.9,1.9c0,1.1,0.9,1.9,1.9,1.9C29.9,244.9,30.8,244.1,30.8,243"/>
	<path d="M59.9,64.1c0-1.1-0.9-1.9-1.9-1.9c-1.1,0-1.9,0.9-1.9,1.9c0,1.1,0.9,1.9,1.9,1.9C59.1,66.1,59.9,65.2,59.9,64.1"/>
	<path d="M147.1,16.6c0-1.1-0.9-1.9-1.9-1.9s-1.9,0.9-1.9,1.9c0,1.1,0.9,1.9,1.9,1.9S147.1,17.7,147.1,16.6"/>
	<path d="M144,17.2c0-1.1-0.9-1.9-1.9-1.9c-1.1,0-1.9,0.9-1.9,1.9c0,1.1,0.9,1.9,1.9,1.9C143.2,19.1,144,18.3,144,17.2"/>
	<path d="M108.2,29.2c0-1.1-0.9-1.9-1.9-1.9c-1.1,0-1.9,0.9-1.9,1.9s0.9,1.9,1.9,1.9C107.4,31.1,108.2,30.3,108.2,29.2"/>
	<path d="M32.2,245.8c0-1.1-0.9-1.9-1.9-1.9c-1.1,0-1.9,0.9-1.9,1.9c0,1.1,0.9,1.9,1.9,1.9C31.3,247.8,32.2,246.9,32.2,245.8"/>
	<path d="M141,17.9c0-1.1-0.9-1.9-1.9-1.9c-1.1,0-1.9,0.9-1.9,1.9c0,1.1,0.9,1.9,1.9,1.9C140.1,19.8,141,18.9,141,17.9"/>
	<path d="M195.8,335.1c0-1.1-0.9-1.9-1.9-1.9c-1.1,0-1.9,0.9-1.9,1.9c0,1.1,0.9,1.9,1.9,1.9C195,337,195.8,336.1,195.8,335.1"/>
	<path d="M314.1,259.7c0-1.1-0.9-1.9-1.9-1.9c-1.1,0-1.9,0.9-1.9,1.9c0,1.1,0.9,1.9,1.9,1.9C313.2,261.6,314.1,260.7,314.1,259.7"/>
	<path d="M24.3,123.1c0-1.1-0.9-1.9-1.9-1.9c-1.1,0-1.9,0.9-1.9,1.9c0,1.1,0.9,1.9,1.9,1.9C23.5,125,24.3,124.2,24.3,123.1"/>
	<path d="M315.7,257c0-1.1-0.9-1.9-1.9-1.9c-1.1,0-1.9,0.9-1.9,1.9c0,1.1,0.9,1.9,1.9,1.9C314.9,258.9,315.7,258,315.7,257"/>
	<path d="M105.4,30.6c0-1.1-0.9-1.9-1.9-1.9c-1.1,0-1.9,0.9-1.9,1.9c0,1.1,0.9,1.9,1.9,1.9C104.5,32.5,105.4,31.6,105.4,30.6"/>
	<path d="M317.3,254.2c0-1.1-0.9-1.9-1.9-1.9c-1.1,0-1.9,0.9-1.9,1.9c0,1.1,0.9,1.9,1.9,1.9C316.4,256.2,317.3,255.3,317.3,254.2"/>
	<path d="M33.6,248.7c0-1.1-0.9-1.9-1.9-1.9c-1.1,0-1.9,0.9-1.9,1.9c0,1.1,0.9,1.9,1.9,1.9C32.7,250.6,33.6,249.7,33.6,248.7"/>
	<path d="M326.2,114.2c0-1.1-0.9-1.9-1.9-1.9c-1.1,0-1.9,0.9-1.9,1.9c0,1.1,0.9,1.9,1.9,1.9C325.4,116.2,326.2,115.3,326.2,114.2"/>
	<path d="M137.9,18.6c0-1.1-0.9-1.9-1.9-1.9c-1.1,0-1.9,0.9-1.9,1.9c0,1.1,0.9,1.9,1.9,1.9C137,20.5,137.9,19.7,137.9,18.6"/>
	<path d="M318.8,251.5c0-1.1-0.9-1.9-1.9-1.9c-1.1,0-1.9,0.9-1.9,1.9c0,1.1,0.9,1.9,1.9,1.9C318,253.4,318.8,252.5,318.8,251.5"/>
	<path d="M35,251.5c0-1.1-0.9-1.9-1.9-1.9c-1.1,0-1.9,0.9-1.9,1.9c0,1.1,0.9,1.9,1.9,1.9C34.2,253.4,35,252.5,35,251.5"/>
	<path d="M199,334.7c0-1.1-0.9-1.9-1.9-1.9c-1.1,0-1.9,0.9-1.9,1.9c0,1.1,0.9,1.9,1.9,1.9C198.1,336.6,199,335.7,199,334.7"/>
	<path d="M320.3,248.7c0-1.1-0.9-1.9-1.9-1.9c-1.1,0-1.9,0.9-1.9,1.9c0,1.1,0.9,1.9,1.9,1.9C319.4,250.6,320.3,249.7,320.3,248.7"/>
	<path d="M159.6,14.7c0-1.1-0.9-1.9-1.9-1.9c-1.1,0-1.9,0.9-1.9,1.9c0,1.1,0.9,1.9,1.9,1.9C158.8,16.7,159.6,15.8,159.6,14.7"/>
	<path d="M36.6,254.2c0-1.1-0.9-1.9-1.9-1.9s-1.9,0.9-1.9,1.9c0,1.1,0.9,1.9,1.9,1.9S36.6,255.3,36.6,254.2"/>
	<path d="M23.4,126.1c0-1.1-0.9-1.9-1.9-1.9c-1.1,0-1.9,0.9-1.9,1.9c0,1.1,0.9,1.9,1.9,1.9C22.5,128,23.4,127.2,23.4,126.1"/>
	<path d="M202.1,334.2c0-1.1-0.9-1.9-1.9-1.9c-1.1,0-1.9,0.9-1.9,1.9c0,1.1,0.9,1.9,1.9,1.9C201.2,336.2,202.1,335.3,202.1,334.2"/>
	<path d="M205.2,333.7c0-1.1-0.9-1.9-1.9-1.9c-1.1,0-1.9,0.9-1.9,1.9c0,1.1,0.9,1.9,1.9,1.9C204.3,335.6,205.2,334.8,205.2,333.7"/>
	<path d="M325,111.3c0-1.1-0.9-1.9-1.9-1.9c-1.1,0-1.9,0.9-1.9,1.9c0,1.1,0.9,1.9,1.9,1.9C324.1,113.3,325,112.4,325,111.3"/>
	<path d="M102.6,32c0-1.1-0.9-1.9-1.9-1.9c-1.1,0-1.9,0.9-1.9,1.9c0,1.1,0.9,1.9,1.9,1.9C101.7,33.9,102.6,33.1,102.6,32"/>
	<path d="M208.3,333.1c0-1.1-0.9-1.9-1.9-1.9c-1.1,0-1.9,0.9-1.9,1.9c0,1.1,0.9,1.9,1.9,1.9C207.4,335,208.3,334.2,208.3,333.1"/>
	<path d="M38.1,257c0-1.1-0.9-1.9-1.9-1.9c-1.1,0-1.9,0.9-1.9,1.9c0,1.1,0.9,1.9,1.9,1.9C37.3,258.9,38.1,258,38.1,257"/>
	<path d="M39.8,259.7c0-1.1-0.9-1.9-1.9-1.9c-1.1,0-1.9,0.9-1.9,1.9c0,1.1,0.9,1.9,1.9,1.9C38.9,261.6,39.8,260.7,39.8,259.7"/>
	<path d="M41.5,262.3c0-1.1-0.9-1.9-1.9-1.9c-1.1,0-1.9,0.9-1.9,1.9s0.9,1.9,1.9,1.9C40.6,264.3,41.5,263.4,41.5,262.3"/>
	<path d="M43.2,265c0-1.1-0.9-1.9-1.9-1.9s-1.9,0.9-1.9,1.9c0,1.1,0.9,1.9,1.9,1.9S43.2,266,43.2,265"/>
	<path d="M45,267.6c0-1.1-0.9-1.9-1.9-1.9c-1.1,0-1.9,0.9-1.9,1.9s0.9,1.9,1.9,1.9C44.1,269.5,45,268.6,45,267.6"/>
	<path d="M57.8,66.4c0-1.1-0.9-1.9-1.9-1.9c-1.1,0-1.9,0.9-1.9,1.9c0,1.1,0.9,1.9,1.9,1.9C56.9,68.4,57.8,67.5,57.8,66.4"/>
	<path d="M321.7,245.8c0-1.1-0.9-1.9-1.9-1.9c-1.1,0-1.9,0.9-1.9,1.9c0,1.1,0.9,1.9,1.9,1.9C320.9,247.8,321.7,246.9,321.7,245.8"/>
	<path d="M323.7,108.4c0-1.1-0.9-1.9-1.9-1.9c-1.1,0-1.9,0.9-1.9,1.9c0,1.1,0.9,1.9,1.9,1.9C322.9,110.4,323.7,109.5,323.7,108.4"/>
	<path d="M46.8,270.1c0-1.1-0.9-1.9-1.9-1.9s-1.9,0.9-1.9,1.9c0,1.1,0.9,1.9,1.9,1.9S46.8,271.2,46.8,270.1"/>
	<path d="M99.8,33.5c0-1.1-0.9-1.9-1.9-1.9c-1.1,0-1.9,0.9-1.9,1.9c0,1.1,0.9,1.9,1.9,1.9C98.9,35.4,99.8,34.5,99.8,33.5"/>
	<path d="M48.7,272.7c0-1.1-0.9-1.9-1.9-1.9c-1.1,0-1.9,0.9-1.9,1.9c0,1.1,0.9,1.9,1.9,1.9C47.8,274.6,48.7,273.7,48.7,272.7"/>
	<path d="M22.4,129.1c0-1.1-0.9-1.9-1.9-1.9c-1.1,0-1.9,0.9-1.9,1.9c0,1.1,0.9,1.9,1.9,1.9C21.6,131,22.4,130.2,22.4,129.1"/>
	<path d="M50.6,275.1c0-1.1-0.9-1.9-1.9-1.9c-1.1,0-1.9,0.9-1.9,1.9c0,1.1,0.9,1.9,1.9,1.9C49.8,277.1,50.6,276.2,50.6,275.1"/>
	<path d="M55.7,68.8c0-1.1-0.9-1.9-1.9-1.9c-1.1,0-1.9,0.9-1.9,1.9c0,1.1,0.9,1.9,1.9,1.9C54.8,70.7,55.7,69.9,55.7,68.8"/>
	<path d="M97,35c0-1.1-0.9-1.9-1.9-1.9s-1.9,0.9-1.9,1.9c0,1.1,0.9,1.9,1.9,1.9S97,36.1,97,35"/>
	<path d="M52.6,277.6c0-1.1-0.9-1.9-1.9-1.9c-1.1,0-1.9,0.9-1.9,1.9c0,1.1,0.9,1.9,1.9,1.9C51.8,279.5,52.6,278.7,52.6,277.6"/>
	<path d="M134.8,19.4c0-1.1-0.9-1.9-1.9-1.9c-1.1,0-1.9,0.9-1.9,1.9c0,1.1,0.9,1.9,1.9,1.9C134,21.3,134.8,20.5,134.8,19.4"/>
	<path d="M54.7,280c0-1.1-0.9-1.9-1.9-1.9c-1.1,0-1.9,0.9-1.9,1.9c0,1.1,0.9,1.9,1.9,1.9C53.8,281.9,54.7,281.1,54.7,280"/>
	<path d="M323.1,243c0-1.1-0.9-1.9-1.9-1.9c-1.1,0-1.9,0.9-1.9,1.9c0,1.1,0.9,1.9,1.9,1.9C322.2,244.9,323.1,244.1,323.1,243"/>
	<path d="M131.8,20.3c0-1.1-0.9-1.9-1.9-1.9c-1.1,0-1.9,0.9-1.9,1.9c0,1.1,0.9,1.9,1.9,1.9C130.9,22.2,131.8,21.3,131.8,20.3"/>
	<path d="M211.4,332.5c0-1.1-0.9-1.9-1.9-1.9c-1.1,0-1.9,0.9-1.9,1.9c0,1.1,0.9,1.9,1.9,1.9C210.5,334.4,211.4,333.5,211.4,332.5"/>
	<path d="M56.7,282.4c0-1.1-0.9-1.9-1.9-1.9c-1.1,0-1.9,0.9-1.9,1.9c0,1.1,0.9,1.9,1.9,1.9C55.9,284.3,56.7,283.5,56.7,282.4"/>
	<path d="M53.6,71.2c0-1.1-0.9-1.9-1.9-1.9c-1.1,0-1.9,0.9-1.9,1.9c0,1.1,0.9,1.9,1.9,1.9C52.8,73.1,53.6,72.3,53.6,71.2"/>
	<path d="M94.3,36.6c0-1.1-0.9-1.9-1.9-1.9c-1.1,0-1.9,0.9-1.9,1.9c0,1.1,0.9,1.9,1.9,1.9C93.4,38.5,94.3,37.7,94.3,36.6"/>
	<path d="M58.9,284.7c0-1.1-0.9-1.9-1.9-1.9c-1.1,0-1.9,0.9-1.9,1.9c0,1.1,0.9,1.9,1.9,1.9C58,286.7,58.9,285.8,58.9,284.7"/>
	<path d="M322.4,105.6c0-1.1-0.9-1.9-1.9-1.9c-1.1,0-1.9,0.9-1.9,1.9c0,1.1,0.9,1.9,1.9,1.9C321.5,107.5,322.4,106.6,322.4,105.6"/>
	<path d="M324.4,240.1c0-1.1-0.9-1.9-1.9-1.9c-1.1,0-1.9,0.9-1.9,1.9c0,1.1,0.9,1.9,1.9,1.9C323.5,242.1,324.4,241.2,324.4,240.1"/>
	<path d="M325.6,237.2c0-1.1-0.9-1.9-1.9-1.9c-1.1,0-1.9,0.9-1.9,1.9c0,1.1,0.9,1.9,1.9,1.9C324.8,239.2,325.6,238.3,325.6,237.2"/>
	<path d="M326.8,234.3c0-1.1-0.9-1.9-1.9-1.9c-1.1,0-1.9,0.9-1.9,1.9c0,1.1,0.9,1.9,1.9,1.9C326,236.2,326.8,235.4,326.8,234.3"/>
	<path d="M214.5,331.8c0-1.1-0.9-1.9-1.9-1.9c-1.1,0-1.9,0.9-1.9,1.9c0,1.1,0.9,1.9,1.9,1.9C213.6,333.7,214.5,332.8,214.5,331.8"/>
	<path d="M321,102.7c0-1.1-0.9-1.9-1.9-1.9c-1.1,0-1.9,0.9-1.9,1.9c0,1.1,0.9,1.9,1.9,1.9C320.2,104.7,321,103.8,321,102.7"/>
	<path d="M319.6,99.9c0-1.1-0.9-1.9-1.9-1.9c-1.1,0-1.9,0.9-1.9,1.9c0,1.1,0.9,1.9,1.9,1.9C318.7,101.9,319.6,101,319.6,99.9"/>
	<path d="M61,287c0-1.1-0.9-1.9-1.9-1.9c-1.1,0-1.9,0.9-1.9,1.9c0,1.1,0.9,1.9,1.9,1.9C60.2,288.9,61,288.1,61,287"/>
	<path d="M21.6,132.1c0-1.1-0.9-1.9-1.9-1.9c-1.1,0-1.9,0.9-1.9,1.9s0.9,1.9,1.9,1.9C20.7,134.1,21.6,133.2,21.6,132.1"/>
	<path d="M63.2,289.3c0-1.1-0.9-1.9-1.9-1.9s-1.9,0.9-1.9,1.9c0,1.1,0.9,1.9,1.9,1.9S63.2,290.3,63.2,289.3"/>
	<path d="M20.7,135.2c0-1.1-0.9-1.9-1.9-1.9c-1.1,0-1.9,0.9-1.9,1.9c0,1.1,0.9,1.9,1.9,1.9C19.9,137.1,20.7,136.3,20.7,135.2"/>
	<path d="M20,138.2c0-1.1-0.9-1.9-1.9-1.9c-1.1,0-1.9,0.9-1.9,1.9c0,1.1,0.9,1.9,1.9,1.9C19.1,140.2,20,139.3,20,138.2"/>
	<path d="M19.3,141.3c0-1.1-0.9-1.9-1.9-1.9c-1.1,0-1.9,0.9-1.9,1.9c0,1.1,0.9,1.9,1.9,1.9C18.4,143.3,19.3,142.4,19.3,141.3"/>
	<path d="M18.7,144.4c0-1.1-0.9-1.9-1.9-1.9c-1.1,0-1.9,0.9-1.9,1.9c0,1.1,0.9,1.9,1.9,1.9C17.8,146.4,18.7,145.5,18.7,144.4"/>
	<path d="M65.5,291.5c0-1.1-0.9-1.9-1.9-1.9c-1.1,0-1.9,0.9-1.9,1.9c0,1.1,0.9,1.9,1.9,1.9C64.6,293.4,65.5,292.5,65.5,291.5"/>
	<path d="M51.6,73.6c0-1.1-0.9-1.9-1.9-1.9c-1.1,0-1.9,0.9-1.9,1.9c0,1.1,0.9,1.9,1.9,1.9C50.8,75.6,51.6,74.7,51.6,73.6"/>
	<path d="M18.1,147.5c0-1.1-0.9-1.9-1.9-1.9c-1.1,0-1.9,0.9-1.9,1.9c0,1.1,0.9,1.9,1.9,1.9C17.2,149.5,18.1,148.6,18.1,147.5"/>
	<path d="M318.1,97.2c0-1.1-0.9-1.9-1.9-1.9c-1.1,0-1.9,0.9-1.9,1.9c0,1.1,0.9,1.9,1.9,1.9C317.2,99.1,318.1,98.2,318.1,97.2"/>
	<path d="M91.6,38.2c0-1.1-0.9-1.9-1.9-1.9s-1.9,0.9-1.9,1.9s0.9,1.9,1.9,1.9S91.6,39.3,91.6,38.2"/>
	<path d="M49.7,76.1c0-1.1-0.9-1.9-1.9-1.9c-1.1,0-1.9,0.9-1.9,1.9c0,1.1,0.9,1.9,1.9,1.9C48.8,78,49.7,77.2,49.7,76.1"/>
	<path d="M217.5,331c0-1.1-0.9-1.9-1.9-1.9c-1.1,0-1.9,0.9-1.9,1.9c0,1.1,0.9,1.9,1.9,1.9C216.6,332.9,217.5,332.1,217.5,331"/>
	<path d="M67.8,293.6c0-1.1-0.9-1.9-1.9-1.9c-1.1,0-1.9,0.9-1.9,1.9c0,1.1,0.9,1.9,1.9,1.9C66.9,295.6,67.8,294.7,67.8,293.6"/>
	<path d="M70.1,295.7c0-1.1-0.9-1.9-1.9-1.9c-1.1,0-1.9,0.9-1.9,1.9c0,1.1,0.9,1.9,1.9,1.9C69.3,297.7,70.1,296.8,70.1,295.7"/>
	<path d="M72.5,297.8c0-1.1-0.9-1.9-1.9-1.9c-1.1,0-1.9,0.9-1.9,1.9c0,1.1,0.9,1.9,1.9,1.9C71.7,299.7,72.5,298.9,72.5,297.8"/>
	<path d="M74.9,299.8c0-1.1-0.9-1.9-1.9-1.9c-1.1,0-1.9,0.9-1.9,1.9c0,1.1,0.9,1.9,1.9,1.9C74.1,301.8,74.9,300.9,74.9,299.8"/>
	<path d="M77.4,301.8c0-1.1-0.9-1.9-1.9-1.9c-1.1,0-1.9,0.9-1.9,1.9c0,1.1,0.9,1.9,1.9,1.9C76.5,303.7,77.4,302.9,77.4,301.8"/>
	<path d="M79.9,303.7c0-1.1-0.9-1.9-1.9-1.9c-1.1,0-1.9,0.9-1.9,1.9c0,1.1,0.9,1.9,1.9,1.9C79,305.7,79.9,304.8,79.9,303.7"/>
	<path d="M328,231.4c0-1.1-0.9-1.9-1.9-1.9c-1.1,0-1.9,0.9-1.9,1.9c0,1.1,0.9,1.9,1.9,1.9C327.1,233.3,328,232.4,328,231.4"/>
	<path d="M82.5,305.6c0-1.1-0.9-1.9-1.9-1.9c-1.1,0-1.9,0.9-1.9,1.9c0,1.1,0.9,1.9,1.9,1.9C81.6,307.5,82.5,306.7,82.5,305.6"/>
	<path d="M316.5,94.4c0-1.1-0.9-1.9-1.9-1.9c-1.1,0-1.9,0.9-1.9,1.9c0,1.1,0.9,1.9,1.9,1.9C315.7,96.3,316.5,95.5,316.5,94.4"/>
	<path d="M220.6,330.2c0-1.1-0.9-1.9-1.9-1.9c-1.1,0-1.9,0.9-1.9,1.9c0,1.1,0.9,1.9,1.9,1.9C219.7,332.1,220.6,331.2,220.6,330.2"/>
	<path d="M223.6,329.3c0-1.1-0.9-1.9-1.9-1.9s-1.9,0.9-1.9,1.9s0.9,1.9,1.9,1.9S223.6,330.4,223.6,329.3"/>
	<path d="M17.6,150.6c0-1.1-0.9-1.9-1.9-1.9s-1.9,0.9-1.9,1.9c0,1.1,0.9,1.9,1.9,1.9S17.6,151.7,17.6,150.6"/>
	<path d="M226.6,328.3c0-1.1-0.9-1.9-1.9-1.9c-1.1,0-1.9,0.9-1.9,1.9c0,1.1,0.9,1.9,1.9,1.9C225.7,330.3,226.6,329.4,226.6,328.3"/>
	<path d="M329,228.4c0-1.1-0.9-1.9-1.9-1.9c-1.1,0-1.9,0.9-1.9,1.9c0,1.1,0.9,1.9,1.9,1.9C328.2,230.3,329,229.5,329,228.4"/>
	<path d="M330,225.4c0-1.1-0.9-1.9-1.9-1.9c-1.1,0-1.9,0.9-1.9,1.9c0,1.1,0.9,1.9,1.9,1.9C329.2,227.3,330,226.5,330,225.4"/>
	<path d="M89,39.9c0-1.1-0.9-1.9-1.9-1.9c-1.1,0-1.9,0.9-1.9,1.9c0,1.1,0.9,1.9,1.9,1.9C88.1,41.9,89,41,89,39.9"/>
	<path d="M229.6,327.3c0-1.1-0.9-1.9-1.9-1.9c-1.1,0-1.9,0.9-1.9,1.9c0,1.1,0.9,1.9,1.9,1.9C228.7,329.3,229.6,328.4,229.6,327.3"/>
	<path d="M85,307.4c0-1.1-0.9-1.9-1.9-1.9c-1.1,0-1.9,0.9-1.9,1.9c0,1.1,0.9,1.9,1.9,1.9C84.2,309.4,85,308.5,85,307.4"/>
	<path d="M47.8,78.6c0-1.1-0.9-1.9-1.9-1.9s-1.9,0.9-1.9,1.9c0,1.1,0.9,1.9,1.9,1.9S47.8,79.7,47.8,78.6"/>
	<path d="M45.9,81.1c0-1.1-0.9-1.9-1.9-1.9c-1.1,0-1.9,0.9-1.9,1.9s0.9,1.9,1.9,1.9C45,83.1,45.9,82.2,45.9,81.1"/>
	<path d="M87.6,309.2c0-1.1-0.9-1.9-1.9-1.9s-1.9,0.9-1.9,1.9c0,1.1,0.9,1.9,1.9,1.9S87.6,310.3,87.6,309.2"/>
	<path d="M90.3,310.9c0-1.1-0.9-1.9-1.9-1.9s-1.9,0.9-1.9,1.9s0.9,1.9,1.9,1.9S90.3,312,90.3,310.9"/>
	<path d="M44.1,83.7c0-1.1-0.9-1.9-1.9-1.9c-1.1,0-1.9,0.9-1.9,1.9s0.9,1.9,1.9,1.9C43.2,85.7,44.1,84.8,44.1,83.7"/>
	<path d="M17.2,153.8c0-1.1-0.9-1.9-1.9-1.9c-1.1,0-1.9,0.9-1.9,1.9s0.9,1.9,1.9,1.9C16.3,155.7,17.2,154.8,17.2,153.8"/>
	<path d="M93,312.6c0-1.1-0.9-1.9-1.9-1.9s-1.9,0.9-1.9,1.9c0,1.1,0.9,1.9,1.9,1.9S93,313.6,93,312.6"/>
	<path d="M331,222.4c0-1.1-0.9-1.9-1.9-1.9c-1.1,0-1.9,0.9-1.9,1.9s0.9,1.9,1.9,1.9C330.1,224.3,331,223.5,331,222.4"/>
	<path d="M331.9,219.4c0-1.1-0.9-1.9-1.9-1.9c-1.1,0-1.9,0.9-1.9,1.9c0,1.1,0.9,1.9,1.9,1.9C331,221.3,331.9,220.4,331.9,219.4"/>
	<path d="M95.7,314.2c0-1.1-0.9-1.9-1.9-1.9c-1.1,0-1.9,0.9-1.9,1.9c0,1.1,0.9,1.9,1.9,1.9C94.8,316.1,95.7,315.3,95.7,314.2"/>
	<path d="M98.4,315.8c0-1.1-0.9-1.9-1.9-1.9s-1.9,0.9-1.9,1.9c0,1.1,0.9,1.9,1.9,1.9S98.4,316.8,98.4,315.8"/>
	<path d="M332.7,216.3c0-1.1-0.9-1.9-1.9-1.9c-1.1,0-1.9,0.9-1.9,1.9c0,1.1,0.9,1.9,1.9,1.9C331.9,218.3,332.7,217.4,332.7,216.3"/>
	<path d="M333.5,213.3c0-1.1-0.9-1.9-1.9-1.9c-1.1,0-1.9,0.9-1.9,1.9c0,1.1,0.9,1.9,1.9,1.9C332.6,215.2,333.5,214.3,333.5,213.3"/>
	<path d="M16.8,156.9c0-1.1-0.9-1.9-1.9-1.9c-1.1,0-1.9,0.9-1.9,1.9s0.9,1.9,1.9,1.9C15.9,158.8,16.8,158,16.8,156.9"/>
	<path d="M232.6,326.3c0-1.1-0.9-1.9-1.9-1.9c-1.1,0-1.9,0.9-1.9,1.9c0,1.1,0.9,1.9,1.9,1.9C231.7,328.2,232.6,327.4,232.6,326.3"/>
	<path d="M101.2,317.3c0-1.1-0.9-1.9-1.9-1.9s-1.9,0.9-1.9,1.9c0,1.1,0.9,1.9,1.9,1.9S101.2,318.3,101.2,317.3"/>
	<path d="M104,318.7c0-1.1-0.9-1.9-1.9-1.9c-1.1,0-1.9,0.9-1.9,1.9c0,1.1,0.9,1.9,1.9,1.9C103.1,320.7,104,319.8,104,318.7"/>
	<path d="M106.8,320.1c0-1.1-0.9-1.9-1.9-1.9c-1.1,0-1.9,0.9-1.9,1.9c0,1.1,0.9,1.9,1.9,1.9C105.9,322.1,106.8,321.2,106.8,320.1"/>
	<path d="M235.5,325.2c0-1.1-0.9-1.9-1.9-1.9s-1.9,0.9-1.9,1.9c0,1.1,0.9,1.9,1.9,1.9S235.5,326.2,235.5,325.2"/>
	<path d="M334.2,210.2c0-1.1-0.9-1.9-1.9-1.9c-1.1,0-1.9,0.9-1.9,1.9s0.9,1.9,1.9,1.9C333.4,212.1,334.2,211.3,334.2,210.2"/>
	<path d="M109.7,321.5c0-1.1-0.9-1.9-1.9-1.9c-1.1,0-1.9,0.9-1.9,1.9c0,1.1,0.9,1.9,1.9,1.9C108.8,323.4,109.7,322.5,109.7,321.5"/>
	<path d="M112.5,322.8c0-1.1-0.9-1.9-1.9-1.9c-1.1,0-1.9,0.9-1.9,1.9c0,1.1,0.9,1.9,1.9,1.9C111.7,324.7,112.5,323.8,112.5,322.8"/>
	<path d="M238.4,324c0-1.1-0.9-1.9-1.9-1.9c-1.1,0-1.9,0.9-1.9,1.9c0,1.1,0.9,1.9,1.9,1.9C237.6,325.9,238.4,325.1,238.4,324"/>
	<path d="M115.4,324c0-1.1-0.9-1.9-1.9-1.9c-1.1,0-1.9,0.9-1.9,1.9c0,1.1,0.9,1.9,1.9,1.9C114.6,325.9,115.4,325.1,115.4,324"/>
	<path d="M314.9,91.7c0-1.1-0.9-1.9-1.9-1.9c-1.1,0-1.9,0.9-1.9,1.9c0,1.1,0.9,1.9,1.9,1.9C314.1,93.6,314.9,92.8,314.9,91.7"/>
	<path d="M16.4,160c0-1.1-0.9-1.9-1.9-1.9c-1.1,0-1.9,0.9-1.9,1.9c0,1.1,0.9,1.9,1.9,1.9C15.6,162,16.4,161.1,16.4,160"/>
	<path d="M241.3,322.8c0-1.1-0.9-1.9-1.9-1.9c-1.1,0-1.9,0.9-1.9,1.9c0,1.1,0.9,1.9,1.9,1.9C240.5,324.7,241.3,323.8,241.3,322.8"/>
	<path d="M244.2,321.5c0-1.1-0.9-1.9-1.9-1.9c-1.1,0-1.9,0.9-1.9,1.9c0,1.1,0.9,1.9,1.9,1.9C243.4,323.4,244.2,322.5,244.2,321.5"/>
	<path d="M247.1,320.1c0-1.1-0.9-1.9-1.9-1.9c-1.1,0-1.9,0.9-1.9,1.9c0,1.1,0.9,1.9,1.9,1.9C246.2,322.1,247.1,321.2,247.1,320.1"/>
	<path d="M249.9,318.7c0-1.1-0.9-1.9-1.9-1.9c-1.1,0-1.9,0.9-1.9,1.9c0,1.1,0.9,1.9,1.9,1.9C249,320.7,249.9,319.8,249.9,318.7"/>
	<path d="M313.3,89c0-1.1-0.9-1.9-1.9-1.9c-1.1,0-1.9,0.9-1.9,1.9c0,1.1,0.9,1.9,1.9,1.9C312.4,90.9,313.3,90.1,313.3,89"/>
	<path d="M334.9,207.1c0-1.1-0.9-1.9-1.9-1.9c-1.1,0-1.9,0.9-1.9,1.9c0,1.1,0.9,1.9,1.9,1.9C334,209.1,334.9,208.2,334.9,207.1"/>
	<path d="M128.8,21.2c0-1.1-0.9-1.9-1.9-1.9c-1.1,0-1.9,0.9-1.9,1.9c0,1.1,0.9,1.9,1.9,1.9C127.9,23.1,128.8,22.2,128.8,21.2"/>
	<path d="M156.5,15.1c0-1.1-0.9-1.9-1.9-1.9s-1.9,0.9-1.9,1.9c0,1.1,0.9,1.9,1.9,1.9S156.5,16.2,156.5,15.1"/>
	<path d="M86.3,41.7c0-1.1-0.9-1.9-1.9-1.9c-1.1,0-1.9,0.9-1.9,1.9c0,1.1,0.9,1.9,1.9,1.9C85.5,43.6,86.3,42.8,86.3,41.7"/>
	<path d="M252.7,317.3c0-1.1-0.9-1.9-1.9-1.9s-1.9,0.9-1.9,1.9c0,1.1,0.9,1.9,1.9,1.9S252.7,318.3,252.7,317.3"/>
	<path d="M335.5,204c0-1.1-0.9-1.9-1.9-1.9c-1.1,0-1.9,0.9-1.9,1.9c0,1.1,0.9,1.9,1.9,1.9C334.6,206,335.5,205.1,335.5,204"/>
	<path d="M311.6,86.3c0-1.1-0.9-1.9-1.9-1.9c-1.1,0-1.9,0.9-1.9,1.9c0,1.1,0.9,1.9,1.9,1.9C310.7,88.3,311.6,87.4,311.6,86.3"/>
	<path d="M255.5,315.8c0-1.1-0.9-1.9-1.9-1.9c-1.1,0-1.9,0.9-1.9,1.9c0,1.1,0.9,1.9,1.9,1.9C254.6,317.7,255.5,316.8,255.5,315.8"/>
	<path d="M125.8,22.1c0-1.1-0.9-1.9-1.9-1.9c-1.1,0-1.9,0.9-1.9,1.9c0,1.1,0.9,1.9,1.9,1.9C124.9,24.1,125.8,23.2,125.8,22.1"/>
	<path d="M336,200.9c0-1.1-0.9-1.9-1.9-1.9c-1.1,0-1.9,0.9-1.9,1.9s0.9,1.9,1.9,1.9C335.2,202.9,336,202,336,200.9"/>
	<path d="M118.4,325.2c0-1.1-0.9-1.9-1.9-1.9c-1.1,0-1.9,0.9-1.9,1.9c0,1.1,0.9,1.9,1.9,1.9C117.5,327.1,118.4,326.2,118.4,325.2"/>
	<path d="M309.8,83.7c0-1.1-0.9-1.9-1.9-1.9c-1.1,0-1.9,0.9-1.9,1.9s0.9,1.9,1.9,1.9C308.9,85.7,309.8,84.8,309.8,83.7"/>
	<path d="M336.5,197.8c0-1.1-0.9-1.9-1.9-1.9c-1.1,0-1.9,0.9-1.9,1.9c0,1.1,0.9,1.9,1.9,1.9C335.6,199.7,336.5,198.9,336.5,197.8"/>
	<path d="M336.9,194.7c0-1.1-0.9-1.9-1.9-1.9c-1.1,0-1.9,0.9-1.9,1.9c0,1.1,0.9,1.9,1.9,1.9C336.1,196.6,336.9,195.7,336.9,194.7"/>
	<path d="M337.3,191.5c0-1.1-0.9-1.9-1.9-1.9c-1.1,0-1.9,0.9-1.9,1.9c0,1.1,0.9,1.9,1.9,1.9C336.4,193.5,337.3,192.6,337.3,191.5"/>
	<path d="M258.2,314.2c0-1.1-0.9-1.9-1.9-1.9s-1.9,0.9-1.9,1.9c0,1.1,0.9,1.9,1.9,1.9S258.2,315.3,258.2,314.2"/>
	<path d="M308,81.1c0-1.1-0.9-1.9-1.9-1.9c-1.1,0-1.9,0.9-1.9,1.9s0.9,1.9,1.9,1.9C307.1,83.1,308,82.2,308,81.1"/>
	<path d="M121.3,326.3c0-1.1-0.9-1.9-1.9-1.9c-1.1,0-1.9,0.9-1.9,1.9c0,1.1,0.9,1.9,1.9,1.9C120.4,328.2,121.3,327.4,121.3,326.3"/>
	<path d="M337.6,188.4c0-1.1-0.9-1.9-1.9-1.9c-1.1,0-1.9,0.9-1.9,1.9c0,1.1,0.9,1.9,1.9,1.9C336.7,190.3,337.6,189.5,337.6,188.4"/>
	<path d="M260.9,312.6c0-1.1-0.9-1.9-1.9-1.9c-1.1,0-1.9,0.9-1.9,1.9c0,1.1,0.9,1.9,1.9,1.9C260.1,314.5,260.9,313.6,260.9,312.6"/>
	<path d="M124.3,327.3c0-1.1-0.9-1.9-1.9-1.9c-1.1,0-1.9,0.9-1.9,1.9c0,1.1,0.9,1.9,1.9,1.9C123.4,329.3,124.3,328.4,124.3,327.3"/>
	<path d="M263.6,310.9c0-1.1-0.9-1.9-1.9-1.9s-1.9,0.9-1.9,1.9s0.9,1.9,1.9,1.9S263.6,312,263.6,310.9"/>
	<path d="M127.3,328.3c0-1.1-0.9-1.9-1.9-1.9c-1.1,0-1.9,0.9-1.9,1.9c0,1.1,0.9,1.9,1.9,1.9C126.4,330.3,127.3,329.4,127.3,328.3"/>
	<path d="M266.2,309.2c0-1.1-0.9-1.9-1.9-1.9s-1.9,0.9-1.9,1.9c0,1.1,0.9,1.9,1.9,1.9S266.2,310.3,266.2,309.2"/>
	<path d="M268.9,307.4c0-1.1-0.9-1.9-1.9-1.9c-1.1,0-1.9,0.9-1.9,1.9c0,1.1,0.9,1.9,1.9,1.9C268,309.4,268.9,308.5,268.9,307.4"/>
	<path d="M337.8,185.2c0-1.1-0.9-1.9-1.9-1.9c-1.1,0-1.9,0.9-1.9,1.9c0,1.1,0.9,1.9,1.9,1.9C336.9,187.2,337.8,186.3,337.8,185.2"/>
	<path d="M338,182.1c0-1.1-0.9-1.9-1.9-1.9c-1.1,0-1.9,0.9-1.9,1.9c0,1.1,0.9,1.9,1.9,1.9C337.1,184,338,183.2,338,182.1"/>
	<path d="M338.1,178.9c0-1.1-0.9-1.9-1.9-1.9c-1.1,0-1.9,0.9-1.9,1.9c0,1.1,0.9,1.9,1.9,1.9C337.2,180.9,338.1,180,338.1,178.9"/>
	<path d="M306.1,78.6c0-1.1-0.9-1.9-1.9-1.9c-1.1,0-1.9,0.9-1.9,1.9c0,1.1,0.9,1.9,1.9,1.9C305.3,80.5,306.1,79.7,306.1,78.6"/>
	<path d="M271.4,305.6c0-1.1-0.9-1.9-1.9-1.9c-1.1,0-1.9,0.9-1.9,1.9c0,1.1,0.9,1.9,1.9,1.9C270.6,307.5,271.4,306.7,271.4,305.6"/>
	<path d="M274,303.7c0-1.1-0.9-1.9-1.9-1.9c-1.1,0-1.9,0.9-1.9,1.9c0,1.1,0.9,1.9,1.9,1.9C273.1,305.7,274,304.8,274,303.7"/>
	<path d="M276.5,301.8c0-1.1-0.9-1.9-1.9-1.9c-1.1,0-1.9,0.9-1.9,1.9c0,1.1,0.9,1.9,1.9,1.9C275.6,303.7,276.5,302.9,276.5,301.8"/>
	<path d="M338.1,175.8c0-1.1-0.9-1.9-1.9-1.9c-1.1,0-1.9,0.9-1.9,1.9c0,1.1,0.9,1.9,1.9,1.9C337.3,177.7,338.1,176.9,338.1,175.8"/>
	<path d="M130.3,329.3c0-1.1-0.9-1.9-1.9-1.9s-1.9,0.9-1.9,1.9s0.9,1.9,1.9,1.9S130.3,330.4,130.3,329.3"/>
	<path d="M338.1,172.6c0-1.1-0.9-1.9-1.9-1.9c-1.1,0-1.9,0.9-1.9,1.9c0,1.1,0.9,1.9,1.9,1.9C337.2,174.6,338.1,173.7,338.1,172.6"/>
	<path d="M304.2,76.1c0-1.1-0.9-1.9-1.9-1.9c-1.1,0-1.9,0.9-1.9,1.9c0,1.1,0.9,1.9,1.9,1.9C303.3,78,304.2,77.2,304.2,76.1"/>
	<path d="M278.9,299.8c0-1.1-0.9-1.9-1.9-1.9c-1.1,0-1.9,0.9-1.9,1.9c0,1.1,0.9,1.9,1.9,1.9C278.1,301.8,278.9,300.9,278.9,299.8"/>
	<path d="M302.3,73.6c0-1.1-0.9-1.9-1.9-1.9c-1.1,0-1.9,0.9-1.9,1.9c0,1.1,0.9,1.9,1.9,1.9C301.4,75.6,302.3,74.7,302.3,73.6"/>
	<path d="M300.2,71.2c0-1.1-0.9-1.9-1.9-1.9c-1.1,0-1.9,0.9-1.9,1.9c0,1.1,0.9,1.9,1.9,1.9C299.4,73.1,300.2,72.3,300.2,71.2"/>
	<path d="M133.3,330.2c0-1.1-0.9-1.9-1.9-1.9c-1.1,0-1.9,0.9-1.9,1.9c0,1.1,0.9,1.9,1.9,1.9C132.5,332.1,133.3,331.2,133.3,330.2"/>
	<path d="M136.4,331c0-1.1-0.9-1.9-1.9-1.9c-1.1,0-1.9,0.9-1.9,1.9c0,1.1,0.9,1.9,1.9,1.9C135.5,332.9,136.4,332.1,136.4,331"/>
	<path d="M298.2,68.8c0-1.1-0.9-1.9-1.9-1.9c-1.1,0-1.9,0.9-1.9,1.9c0,1.1,0.9,1.9,1.9,1.9C297.3,70.7,298.2,69.9,298.2,68.8"/>
	<path d="M281.4,297.8c0-1.1-0.9-1.9-1.9-1.9c-1.1,0-1.9,0.9-1.9,1.9c0,1.1,0.9,1.9,1.9,1.9C280.5,299.7,281.4,298.9,281.4,297.8"/>
	<path d="M139.4,331.8c0-1.1-0.9-1.9-1.9-1.9s-1.9,0.9-1.9,1.9c0,1.1,0.9,1.9,1.9,1.9S139.4,332.8,139.4,331.8"/>
	<path d="M296.1,66.4c0-1.1-0.9-1.9-1.9-1.9s-1.9,0.9-1.9,1.9c0,1.1,0.9,1.9,1.9,1.9S296.1,67.5,296.1,66.4"/>
	<path d="M142.5,332.5c0-1.1-0.9-1.9-1.9-1.9c-1.1,0-1.9,0.9-1.9,1.9c0,1.1,0.9,1.9,1.9,1.9C141.6,334.4,142.5,333.5,142.5,332.5"/>
	<path d="M338,169.5c0-1.1-0.9-1.9-1.9-1.9c-1.1,0-1.9,0.9-1.9,1.9s0.9,1.9,1.9,1.9C337.2,171.4,338,170.5,338,169.5"/>
	<path d="M293.9,64.1c0-1.1-0.9-1.9-1.9-1.9c-1.1,0-1.9,0.9-1.9,1.9c0,1.1,0.9,1.9,1.9,1.9C293.1,66.1,293.9,65.2,293.9,64.1"/>
	<path d="M16.2,163.2c0-1.1-0.9-1.9-1.9-1.9s-1.9,0.9-1.9,1.9c0,1.1,0.9,1.9,1.9,1.9S16.2,164.2,16.2,163.2"/>
	<path d="M283.7,295.7c0-1.1-0.9-1.9-1.9-1.9c-1.1,0-1.9,0.9-1.9,1.9c0,1.1,0.9,1.9,1.9,1.9C282.9,297.7,283.7,296.8,283.7,295.7"/>
	<path d="M16,166.3c0-1.1-0.9-1.9-1.9-1.9c-1.1,0-1.9,0.9-1.9,1.9c0,1.1,0.9,1.9,1.9,1.9C15.1,168.3,16,167.4,16,166.3"/>
	<path d="M291.8,61.9c0-1.1-0.9-1.9-1.9-1.9c-1.1,0-1.9,0.9-1.9,1.9c0,1.1,0.9,1.9,1.9,1.9C290.9,63.8,291.8,62.9,291.8,61.9"/>
	<path d="M337.9,166.3c0-1.1-0.9-1.9-1.9-1.9c-1.1,0-1.9,0.9-1.9,1.9c0,1.1,0.9,1.9,1.9,1.9C337,168.3,337.9,167.4,337.9,166.3"/>
	<path d="M289.5,59.6c0-1.1-0.9-1.9-1.9-1.9c-1.1,0-1.9,0.9-1.9,1.9c0,1.1,0.9,1.9,1.9,1.9C288.6,61.6,289.5,60.7,289.5,59.6"/>
	<path d="M286.1,293.6c0-1.1-0.9-1.9-1.9-1.9c-1.1,0-1.9,0.9-1.9,1.9c0,1.1,0.9,1.9,1.9,1.9C285.2,295.6,286.1,294.7,286.1,293.6"/>
	<path d="M337.7,163.2c0-1.1-0.9-1.9-1.9-1.9c-1.1,0-1.9,0.9-1.9,1.9c0,1.1,0.9,1.9,1.9,1.9C336.8,165.1,337.7,164.2,337.7,163.2"/>
	<path d="M287.2,57.5c0-1.1-0.9-1.9-1.9-1.9c-1.1,0-1.9,0.9-1.9,1.9c0,1.1,0.9,1.9,1.9,1.9C286.4,59.4,287.2,58.5,287.2,57.5"/>
	<path d="M284.9,55.3c0-1.1-0.9-1.9-1.9-1.9c-1.1,0-1.9,0.9-1.9,1.9c0,1.1,0.9,1.9,1.9,1.9C284,57.3,284.9,56.4,284.9,55.3"/>
	<path d="M288.4,291.5c0-1.1-0.9-1.9-1.9-1.9c-1.1,0-1.9,0.9-1.9,1.9c0,1.1,0.9,1.9,1.9,1.9C287.5,293.4,288.4,292.5,288.4,291.5"/>
	<path d="M145.6,333.1c0-1.1-0.9-1.9-1.9-1.9s-1.9,0.9-1.9,1.9c0,1.1,0.9,1.9,1.9,1.9S145.6,334.2,145.6,333.1"/>
	<path d="M282.6,53.2c0-1.1-0.9-1.9-1.9-1.9c-1.1,0-1.9,0.9-1.9,1.9c0,1.1,0.9,1.9,1.9,1.9C281.7,55.2,282.6,54.3,282.6,53.2"/>
	<path d="M280.1,51.2c0-1.1-0.9-1.9-1.9-1.9c-1.1,0-1.9,0.9-1.9,1.9c0,1.1,0.9,1.9,1.9,1.9C279.3,53.1,280.1,52.3,280.1,51.2"/>
	<path d="M290.6,289.3c0-1.1-0.9-1.9-1.9-1.9s-1.9,0.9-1.9,1.9c0,1.1,0.9,1.9,1.9,1.9S290.6,290.3,290.6,289.3"/>
	<path d="M277.7,49.2c0-1.1-0.9-1.9-1.9-1.9s-1.9,0.9-1.9,1.9c0,1.1,0.9,1.9,1.9,1.9S277.7,50.3,277.7,49.2"/>
	<path d="M337.4,160c0-1.1-0.9-1.9-1.9-1.9c-1.1,0-1.9,0.9-1.9,1.9c0,1.1,0.9,1.9,1.9,1.9C336.6,162,337.4,161.1,337.4,160"/>
	<path d="M292.9,287c0-1.1-0.9-1.9-1.9-1.9c-1.1,0-1.9,0.9-1.9,1.9c0,1.1,0.9,1.9,1.9,1.9C292,288.9,292.9,288.1,292.9,287"/>
	<path d="M275.2,47.2c0-1.1-0.9-1.9-1.9-1.9c-1.1,0-1.9,0.9-1.9,1.9c0,1.1,0.9,1.9,1.9,1.9C274.4,49.2,275.2,48.3,275.2,47.2"/>
	<path d="M337.1,156.9c0-1.1-0.9-1.9-1.9-1.9c-1.1,0-1.9,0.9-1.9,1.9s0.9,1.9,1.9,1.9C336.2,158.8,337.1,158,337.1,156.9"/>
	<path d="M336.7,153.8c0-1.1-0.9-1.9-1.9-1.9c-1.1,0-1.9,0.9-1.9,1.9s0.9,1.9,1.9,1.9C335.9,155.7,336.7,154.8,336.7,153.8"/>
	<path d="M336.3,150.6c0-1.1-0.9-1.9-1.9-1.9c-1.1,0-1.9,0.9-1.9,1.9c0,1.1,0.9,1.9,1.9,1.9C335.4,152.6,336.3,151.7,336.3,150.6"/>
	<path d="M272.7,45.3c0-1.1-0.9-1.9-1.9-1.9c-1.1,0-1.9,0.9-1.9,1.9s0.9,1.9,1.9,1.9C271.8,47.3,272.7,46.4,272.7,45.3"/>
	<path d="M335.8,147.5c0-1.1-0.9-1.9-1.9-1.9c-1.1,0-1.9,0.9-1.9,1.9c0,1.1,0.9,1.9,1.9,1.9C334.9,149.5,335.8,148.6,335.8,147.5"/>
	<path d="M270.1,43.5c0-1.1-0.9-1.9-1.9-1.9c-1.1,0-1.9,0.9-1.9,1.9c0,1.1,0.9,1.9,1.9,1.9C269.3,45.4,270.1,44.6,270.1,43.5"/>
	<path d="M267.6,41.7c0-1.1-0.9-1.9-1.9-1.9c-1.1,0-1.9,0.9-1.9,1.9c0,1.1,0.9,1.9,1.9,1.9C266.7,43.6,267.6,42.8,267.6,41.7"/>
	<path d="M335.2,144.4c0-1.1-0.9-1.9-1.9-1.9c-1.1,0-1.9,0.9-1.9,1.9c0,1.1,0.9,1.9,1.9,1.9C334.3,146.4,335.2,145.5,335.2,144.4"/>
	<path d="M264.9,39.9c0-1.1-0.9-1.9-1.9-1.9c-1.1,0-1.9,0.9-1.9,1.9c0,1.1,0.9,1.9,1.9,1.9C264.1,41.9,264.9,41,264.9,39.9"/>
	<path d="M334.6,141.3c0-1.1-0.9-1.9-1.9-1.9c-1.1,0-1.9,0.9-1.9,1.9c0,1.1,0.9,1.9,1.9,1.9C333.7,143.3,334.6,142.4,334.6,141.3"/>
	<path d="M262.3,38.2c0-1.1-0.9-1.9-1.9-1.9s-1.9,0.9-1.9,1.9s0.9,1.9,1.9,1.9S262.3,39.3,262.3,38.2"/>
	<path d="M333.9,138.2c0-1.1-0.9-1.9-1.9-1.9c-1.1,0-1.9,0.9-1.9,1.9c0,1.1,0.9,1.9,1.9,1.9C333,140.2,333.9,139.3,333.9,138.2"/>
	<path d="M259.6,36.6c0-1.1-0.9-1.9-1.9-1.9c-1.1,0-1.9,0.9-1.9,1.9c0,1.1,0.9,1.9,1.9,1.9C258.7,38.5,259.6,37.7,259.6,36.6"/>
	<path d="M333.1,135.2c0-1.1-0.9-1.9-1.9-1.9c-1.1,0-1.9,0.9-1.9,1.9c0,1.1,0.9,1.9,1.9,1.9C332.3,137.1,333.1,136.3,333.1,135.2"/>
	<path d="M256.8,35c0-1.1-0.9-1.9-1.9-1.9S253,33.9,253,35c0,1.1,0.9,1.9,1.9,1.9S256.8,36.1,256.8,35"/>
	<path d="M332.3,132.1c0-1.1-0.9-1.9-1.9-1.9c-1.1,0-1.9,0.9-1.9,1.9s0.9,1.9,1.9,1.9C331.5,134.1,332.3,133.2,332.3,132.1"/>
	<path d="M254.1,33.5c0-1.1-0.9-1.9-1.9-1.9c-1.1,0-1.9,0.9-1.9,1.9c0,1.1,0.9,1.9,1.9,1.9C253.2,35.4,254.1,34.5,254.1,33.5"/>
	<path d="M251.3,32c0-1.1-0.9-1.9-1.9-1.9c-1.1,0-1.9,0.9-1.9,1.9c0,1.1,0.9,1.9,1.9,1.9C250.4,33.9,251.3,33.1,251.3,32"/>
	<path d="M15.8,169.5c0-1.1-0.9-1.9-1.9-1.9c-1.1,0-1.9,0.9-1.9,1.9s0.9,1.9,1.9,1.9C15,171.4,15.8,170.5,15.8,169.5"/>
	<path d="M248.5,30.6c0-1.1-0.9-1.9-1.9-1.9c-1.1,0-1.9,0.9-1.9,1.9c0,1.1,0.9,1.9,1.9,1.9C247.6,32.5,248.5,31.6,248.5,30.6"/>
	<path d="M148.7,333.7c0-1.1-0.9-1.9-1.9-1.9c-1.1,0-1.9,0.9-1.9,1.9c0,1.1,0.9,1.9,1.9,1.9C147.8,335.6,148.7,334.8,148.7,333.7"/>
	<path d="M245.7,29.2c0-1.1-0.9-1.9-1.9-1.9c-1.1,0-1.9,0.9-1.9,1.9s0.9,1.9,1.9,1.9C244.8,31.1,245.7,30.3,245.7,29.2"/>
	<path d="M295,284.7c0-1.1-0.9-1.9-1.9-1.9c-1.1,0-1.9,0.9-1.9,1.9c0,1.1,0.9,1.9,1.9,1.9C294.2,286.7,295,285.8,295,284.7"/>
	<path d="M242.8,27.9c0-1.1-0.9-1.9-1.9-1.9c-1.1,0-1.9,0.9-1.9,1.9c0,1.1,0.9,1.9,1.9,1.9C241.9,29.8,242.8,28.9,242.8,27.9"/>
	<path d="M239.9,26.6c0-1.1-0.9-1.9-1.9-1.9c-1.1,0-1.9,0.9-1.9,1.9c0,1.1,0.9,1.9,1.9,1.9C239,28.6,239.9,27.7,239.9,26.6"/>
	<path d="M237,25.4c0-1.1-0.9-1.9-1.9-1.9c-1.1,0-1.9,0.9-1.9,1.9c0,1.1,0.9,1.9,1.9,1.9C236.1,27.3,237,26.5,237,25.4"/>
	<path d="M331.5,129.1c0-1.1-0.9-1.9-1.9-1.9c-1.1,0-1.9,0.9-1.9,1.9c0,1.1,0.9,1.9,1.9,1.9C330.6,131,331.5,130.2,331.5,129.1"/>
	<path d="M234,24.3c0-1.1-0.9-1.9-1.9-1.9c-1.1,0-1.9,0.9-1.9,1.9c0,1.1,0.9,1.9,1.9,1.9C233.2,26.2,234,25.3,234,24.3"/>
	<path d="M231.1,23.2c0-1.1-0.9-1.9-1.9-1.9c-1.1,0-1.9,0.9-1.9,1.9c0,1.1,0.9,1.9,1.9,1.9C230.2,25.1,231.1,24.2,231.1,23.2"/>
	<path d="M228.1,22.1c0-1.1-0.9-1.9-1.9-1.9c-1.1,0-1.9,0.9-1.9,1.9c0,1.1,0.9,1.9,1.9,1.9C227.2,24.1,228.1,23.2,228.1,22.1"/>
	<path d="M225.1,21.2c0-1.1-0.9-1.9-1.9-1.9c-1.1,0-1.9,0.9-1.9,1.9c0,1.1,0.9,1.9,1.9,1.9C224.2,23.1,225.1,22.2,225.1,21.2"/>
	<path d="M222.1,20.3c0-1.1-0.9-1.9-1.9-1.9c-1.1,0-1.9,0.9-1.9,1.9c0,1.1,0.9,1.9,1.9,1.9C221.2,22.2,222.1,21.3,222.1,20.3"/>
	<path d="M219,19.4c0-1.1-0.9-1.9-1.9-1.9c-1.1,0-1.9,0.9-1.9,1.9c0,1.1,0.9,1.9,1.9,1.9C218.2,21.3,219,20.5,219,19.4"/>
	<path d="M216,18.6c0-1.1-0.9-1.9-1.9-1.9c-1.1,0-1.9,0.9-1.9,1.9c0,1.1,0.9,1.9,1.9,1.9C215.1,20.5,216,19.7,216,18.6"/>
	<path d="M212.9,17.9c0-1.1-0.9-1.9-1.9-1.9c-1.1,0-1.9,0.9-1.9,1.9c0,1.1,0.9,1.9,1.9,1.9C212,19.8,212.9,18.9,212.9,17.9"/>
	<path d="M209.8,17.2c0-1.1-0.9-1.9-1.9-1.9c-1.1,0-1.9,0.9-1.9,1.9c0,1.1,0.9,1.9,1.9,1.9C209,19.1,209.8,18.3,209.8,17.2"/>
	<path d="M206.7,16.6c0-1.1-0.9-1.9-1.9-1.9s-1.9,0.9-1.9,1.9c0,1.1,0.9,1.9,1.9,1.9S206.7,17.7,206.7,16.6"/>
	<path d="M203.6,16c0-1.1-0.9-1.9-1.9-1.9c-1.1,0-1.9,0.9-1.9,1.9c0,1.1,0.9,1.9,1.9,1.9C202.8,18,203.6,17.1,203.6,16"/>
	<path d="M200.5,15.5c0-1.1-0.9-1.9-1.9-1.9c-1.1,0-1.9,0.9-1.9,1.9c0,1.1,0.9,1.9,1.9,1.9C199.6,17.5,200.5,16.6,200.5,15.5"/>
	<path d="M197.4,15.1c0-1.1-0.9-1.9-1.9-1.9c-1.1,0-1.9,0.9-1.9,1.9c0,1.1,0.9,1.9,1.9,1.9C196.5,17.1,197.4,16.2,197.4,15.1"/>
	<path d="M194.3,14.7c0-1.1-0.9-1.9-1.9-1.9c-1.1,0-1.9,0.9-1.9,1.9c0,1.1,0.9,1.9,1.9,1.9C193.4,16.7,194.3,15.8,194.3,14.7"/>
	<path d="M191.1,14.4c0-1.1-0.9-1.9-1.9-1.9s-1.9,0.9-1.9,1.9c0,1.1,0.9,1.9,1.9,1.9S191.1,15.5,191.1,14.4"/>
	<path d="M188,14.2c0-1.1-0.9-1.9-1.9-1.9c-1.1,0-1.9,0.9-1.9,1.9c0,1.1,0.9,1.9,1.9,1.9C187.1,16.1,188,15.3,188,14.2"/>
	<path d="M184.8,14c0-1.1-0.9-1.9-1.9-1.9c-1.1,0-1.9,0.9-1.9,1.9c0,1.1,0.9,1.9,1.9,1.9C184,15.9,184.8,15.1,184.8,14"/>
	<path d="M181.7,13.9c0-1.1-0.9-1.9-1.9-1.9c-1.1,0-1.9,0.9-1.9,1.9c0,1.1,0.9,1.9,1.9,1.9C180.8,15.8,181.7,14.9,181.7,13.9"/>
	<path d="M178.5,13.8c0-1.1-0.9-1.9-1.9-1.9c-1.1,0-1.9,0.9-1.9,1.9s0.9,1.9,1.9,1.9C177.6,15.8,178.5,14.9,178.5,13.8"/>
</g>
</svg>
