<?xml version="1.0" encoding="utf-8"?>
<!-- Generator: Adobe Illustrator 22.0.1, SVG Export Plug-In . SVG Version: 6.00 Build 0)  -->
<svg version="1.1" id="Layer_1" xmlns="http://www.w3.org/2000/svg" xmlns:xlink="http://www.w3.org/1999/xlink" x="0px" y="0px"
	 viewBox="0 0 350 350" style="enable-background:new 0 0 350 350;" xml:space="preserve">
<style type="text/css">
	.st0{fill:none;stroke:#777777;stroke-width:0.75;stroke-miterlimit:10;}
	.st1{stroke:#444444;stroke-miterlimit:10;}
</style>
<g>
	<line class="st0" x1="158.6" y1="19.2" x2="96.7" y2="310.7"/>
	<line class="st0" x1="158.6" y1="19.2" x2="253.3" y2="310.7"/>
	<line class="st0" x1="126.6" y1="26" x2="158.6" y2="19.2"/>
	<line class="st0" x1="126.6" y1="26" x2="96.7" y2="39.3"/>
	<line class="st0" x1="126.6" y1="26" x2="318.1" y2="238.7"/>
	<line class="st0" x1="126.6" y1="26" x2="21.8" y2="142.4"/>
	<line class="st0" x1="126.6" y1="26" x2="18.3" y2="175"/>
	<line class="st0" x1="126.6" y1="26" x2="31.9" y2="238.7"/>
	<line class="st0" x1="126.6" y1="26" x2="48.3" y2="267.1"/>
	<line class="st0" x1="126.6" y1="26" x2="96.7" y2="310.7"/>
	<line class="st0" x1="126.6" y1="26" x2="126.6" y2="324"/>
	<line class="st0" x1="126.6" y1="26" x2="191.4" y2="330.8"/>
	<line class="st0" x1="126.6" y1="26" x2="223.4" y2="324"/>
	<line class="st0" x1="126.6" y1="26" x2="253.3" y2="310.7"/>
	<line class="st0" x1="126.6" y1="26" x2="279.8" y2="291.4"/>
	<line class="st0" x1="96.7" y1="39.3" x2="158.6" y2="19.2"/>
	<line class="st0" x1="96.7" y1="39.3" x2="31.9" y2="238.7"/>
	<line class="st0" x1="96.7" y1="39.3" x2="96.7" y2="310.7"/>
	<line class="st0" x1="96.7" y1="39.3" x2="191.4" y2="330.8"/>
	<line class="st0" x1="96.7" y1="39.3" x2="223.4" y2="324"/>
	<line class="st0" x1="96.7" y1="39.3" x2="253.3" y2="310.7"/>
	<line class="st0" x1="70.2" y1="58.6" x2="158.6" y2="19.2"/>
	<line class="st0" x1="70.2" y1="58.6" x2="126.6" y2="26"/>
	<line class="st0" x1="70.2" y1="58.6" x2="96.7" y2="39.3"/>
	<line class="st0" x1="70.2" y1="58.6" x2="31.9" y2="111.3"/>
	<line class="st0" x1="70.2" y1="58.6" x2="318.1" y2="238.7"/>
	<line class="st0" x1="70.2" y1="58.6" x2="21.8" y2="142.4"/>
	<line class="st0" x1="70.2" y1="58.6" x2="328.2" y2="207.6"/>
	<line class="st0" x1="70.2" y1="58.6" x2="18.3" y2="175"/>
	<line class="st0" x1="70.2" y1="58.6" x2="21.8" y2="207.6"/>
	<line class="st0" x1="70.2" y1="58.6" x2="31.9" y2="238.7"/>
	<line class="st0" x1="70.2" y1="58.6" x2="48.3" y2="267.1"/>
	<line class="st0" x1="70.2" y1="58.6" x2="70.2" y2="291.4"/>
	<line class="st0" x1="70.2" y1="58.6" x2="96.7" y2="310.7"/>
	<line class="st0" x1="70.2" y1="58.6" x2="126.6" y2="324"/>
	<line class="st0" x1="70.2" y1="58.6" x2="158.6" y2="330.8"/>
	<line class="st0" x1="70.2" y1="58.6" x2="301.7" y2="82.9"/>
	<line class="st0" x1="70.2" y1="58.6" x2="191.4" y2="330.8"/>
	<line class="st0" x1="70.2" y1="58.6" x2="223.4" y2="324"/>
	<line class="st0" x1="70.2" y1="58.6" x2="253.3" y2="310.7"/>
	<line class="st0" x1="70.2" y1="58.6" x2="279.8" y2="291.4"/>
	<line class="st0" x1="301.7" y1="267.1" x2="158.6" y2="19.2"/>
	<line class="st0" x1="301.7" y1="267.1" x2="126.6" y2="26"/>
	<line class="st0" x1="301.7" y1="267.1" x2="96.7" y2="39.3"/>
	<line class="st0" x1="301.7" y1="267.1" x2="70.2" y2="58.6"/>
	<line class="st0" x1="301.7" y1="267.1" x2="31.9" y2="111.3"/>
	<line class="st0" x1="301.7" y1="267.1" x2="318.1" y2="238.7"/>
	<line class="st0" x1="301.7" y1="267.1" x2="21.8" y2="142.4"/>
	<line class="st0" x1="301.7" y1="267.1" x2="328.2" y2="207.6"/>
	<line class="st0" x1="301.7" y1="267.1" x2="18.3" y2="175"/>
	<line class="st0" x1="301.7" y1="267.1" x2="21.8" y2="207.6"/>
	<line class="st0" x1="301.7" y1="267.1" x2="331.7" y2="175"/>
	<line class="st0" x1="301.7" y1="267.1" x2="31.9" y2="238.7"/>
	<line class="st0" x1="301.7" y1="267.1" x2="48.3" y2="267.1"/>
	<line class="st0" x1="301.7" y1="267.1" x2="70.2" y2="291.4"/>
	<line class="st0" x1="301.7" y1="267.1" x2="96.7" y2="310.7"/>
	<line class="st0" x1="301.7" y1="267.1" x2="126.6" y2="324"/>
	<line class="st0" x1="301.7" y1="267.1" x2="158.6" y2="330.8"/>
	<line class="st0" x1="301.7" y1="267.1" x2="301.7" y2="82.9"/>
	<line class="st0" x1="301.7" y1="267.1" x2="191.4" y2="330.8"/>
	<line class="st0" x1="301.7" y1="267.1" x2="223.4" y2="324"/>
	<line class="st0" x1="301.7" y1="267.1" x2="253.3" y2="310.7"/>
	<line class="st0" x1="301.7" y1="267.1" x2="279.8" y2="291.4"/>
	<line class="st0" x1="48.3" y1="82.9" x2="158.6" y2="19.2"/>
	<line class="st0" x1="48.3" y1="82.9" x2="126.6" y2="26"/>
	<line class="st0" x1="48.3" y1="82.9" x2="96.7" y2="39.3"/>
	<line class="st0" x1="48.3" y1="82.9" x2="70.2" y2="58.6"/>
	<line class="st0" x1="48.3" y1="82.9" x2="301.7" y2="267.1"/>
	<line class="st0" x1="48.3" y1="82.9" x2="31.9" y2="111.3"/>
	<line class="st0" x1="48.3" y1="82.9" x2="318.1" y2="238.7"/>
	<line class="st0" x1="48.3" y1="82.9" x2="21.8" y2="142.4"/>
	<line class="st0" x1="48.3" y1="82.9" x2="328.2" y2="207.6"/>
	<line class="st0" x1="48.3" y1="82.9" x2="18.3" y2="175"/>
	<line class="st0" x1="48.3" y1="82.9" x2="21.8" y2="207.6"/>
	<line class="st0" x1="48.3" y1="82.9" x2="31.9" y2="238.7"/>
	<line class="st0" x1="48.3" y1="82.9" x2="48.3" y2="267.1"/>
	<line class="st0" x1="48.3" y1="82.9" x2="70.2" y2="291.4"/>
	<line class="st0" x1="48.3" y1="82.9" x2="96.7" y2="310.7"/>
	<line class="st0" x1="48.3" y1="82.9" x2="328.2" y2="142.4"/>
	<line class="st0" x1="48.3" y1="82.9" x2="126.6" y2="324"/>
	<line class="st0" x1="48.3" y1="82.9" x2="158.6" y2="330.8"/>
	<line class="st0" x1="48.3" y1="82.9" x2="318.1" y2="111.3"/>
	<line class="st0" x1="48.3" y1="82.9" x2="301.7" y2="82.9"/>
	<line class="st0" x1="48.3" y1="82.9" x2="191.4" y2="330.8"/>
	<line class="st0" x1="48.3" y1="82.9" x2="223.4" y2="324"/>
	<line class="st0" x1="48.3" y1="82.9" x2="253.3" y2="310.7"/>
	<line class="st0" x1="48.3" y1="82.9" x2="279.8" y2="291.4"/>
	<line class="st0" x1="31.9" y1="111.3" x2="158.6" y2="19.2"/>
	<line class="st0" x1="31.9" y1="111.3" x2="126.6" y2="26"/>
	<line class="st0" x1="31.9" y1="111.3" x2="96.7" y2="39.3"/>
	<line class="st0" x1="31.9" y1="111.3" x2="318.1" y2="238.7"/>
	<line class="st0" x1="31.9" y1="111.3" x2="21.8" y2="142.4"/>
	<line class="st0" x1="31.9" y1="111.3" x2="328.2" y2="207.6"/>
	<line class="st0" x1="31.9" y1="111.3" x2="18.3" y2="175"/>
	<line class="st0" x1="31.9" y1="111.3" x2="21.8" y2="207.6"/>
	<line class="st0" x1="31.9" y1="111.3" x2="31.9" y2="238.7"/>
	<line class="st0" x1="31.9" y1="111.3" x2="48.3" y2="267.1"/>
	<line class="st0" x1="31.9" y1="111.3" x2="70.2" y2="291.4"/>
	<line class="st0" x1="31.9" y1="111.3" x2="96.7" y2="310.7"/>
	<line class="st0" x1="31.9" y1="111.3" x2="126.6" y2="324"/>
	<line class="st0" x1="31.9" y1="111.3" x2="191.4" y2="330.8"/>
	<line class="st0" x1="31.9" y1="111.3" x2="223.4" y2="324"/>
	<line class="st0" x1="31.9" y1="111.3" x2="253.3" y2="310.7"/>
	<line class="st0" x1="31.9" y1="111.3" x2="279.8" y2="291.4"/>
	<line class="st0" x1="318.1" y1="238.7" x2="158.6" y2="19.2"/>
	<line class="st0" x1="318.1" y1="238.7" x2="96.7" y2="39.3"/>
	<line class="st0" x1="318.1" y1="238.7" x2="331.7" y2="175"/>
	<line class="st0" x1="318.1" y1="238.7" x2="31.9" y2="238.7"/>
	<line class="st0" x1="318.1" y1="238.7" x2="96.7" y2="310.7"/>
	<line class="st0" x1="318.1" y1="238.7" x2="126.6" y2="324"/>
	<line class="st0" x1="318.1" y1="238.7" x2="191.4" y2="330.8"/>
	<line class="st0" x1="318.1" y1="238.7" x2="223.4" y2="324"/>
	<line class="st0" x1="318.1" y1="238.7" x2="253.3" y2="310.7"/>
	<line class="st0" x1="318.1" y1="238.7" x2="279.8" y2="291.4"/>
	<line class="st0" x1="21.8" y1="142.4" x2="158.6" y2="19.2"/>
	<line class="st0" x1="21.8" y1="142.4" x2="96.7" y2="39.3"/>
	<line class="st0" x1="21.8" y1="142.4" x2="318.1" y2="238.7"/>
	<line class="st0" x1="21.8" y1="142.4" x2="18.3" y2="175"/>
	<line class="st0" x1="21.8" y1="142.4" x2="31.9" y2="238.7"/>
	<line class="st0" x1="21.8" y1="142.4" x2="48.3" y2="267.1"/>
	<line class="st0" x1="21.8" y1="142.4" x2="96.7" y2="310.7"/>
	<line class="st0" x1="21.8" y1="142.4" x2="126.6" y2="324"/>
	<line class="st0" x1="21.8" y1="142.4" x2="191.4" y2="330.8"/>
	<line class="st0" x1="21.8" y1="142.4" x2="223.4" y2="324"/>
	<line class="st0" x1="21.8" y1="142.4" x2="253.3" y2="310.7"/>
	<line class="st0" x1="21.8" y1="142.4" x2="279.8" y2="291.4"/>
	<line class="st0" x1="328.2" y1="207.6" x2="158.6" y2="19.2"/>
	<line class="st0" x1="328.2" y1="207.6" x2="126.6" y2="26"/>
	<line class="st0" x1="328.2" y1="207.6" x2="96.7" y2="39.3"/>
	<line class="st0" x1="328.2" y1="207.6" x2="318.1" y2="238.7"/>
	<line class="st0" x1="328.2" y1="207.6" x2="21.8" y2="142.4"/>
	<line class="st0" x1="328.2" y1="207.6" x2="18.3" y2="175"/>
	<line class="st0" x1="328.2" y1="207.6" x2="331.7" y2="175"/>
	<line class="st0" x1="328.2" y1="207.6" x2="31.9" y2="238.7"/>
	<line class="st0" x1="328.2" y1="207.6" x2="48.3" y2="267.1"/>
	<line class="st0" x1="328.2" y1="207.6" x2="96.7" y2="310.7"/>
	<line class="st0" x1="328.2" y1="207.6" x2="126.6" y2="324"/>
	<line class="st0" x1="328.2" y1="207.6" x2="191.4" y2="330.8"/>
	<line class="st0" x1="328.2" y1="207.6" x2="223.4" y2="324"/>
	<line class="st0" x1="328.2" y1="207.6" x2="253.3" y2="310.7"/>
	<line class="st0" x1="328.2" y1="207.6" x2="279.8" y2="291.4"/>
	<line class="st0" x1="18.3" y1="175" x2="158.6" y2="19.2"/>
	<line class="st0" x1="18.3" y1="175" x2="96.7" y2="39.3"/>
	<line class="st0" x1="18.3" y1="175" x2="318.1" y2="238.7"/>
	<line class="st0" x1="18.3" y1="175" x2="31.9" y2="238.7"/>
	<line class="st0" x1="18.3" y1="175" x2="96.7" y2="310.7"/>
	<line class="st0" x1="18.3" y1="175" x2="126.6" y2="324"/>
	<line class="st0" x1="18.3" y1="175" x2="191.4" y2="330.8"/>
	<line class="st0" x1="18.3" y1="175" x2="223.4" y2="324"/>
	<line class="st0" x1="18.3" y1="175" x2="253.3" y2="310.7"/>
	<line class="st0" x1="18.3" y1="175" x2="279.8" y2="291.4"/>
	<line class="st0" x1="21.8" y1="207.6" x2="158.6" y2="19.2"/>
	<line class="st0" x1="21.8" y1="207.6" x2="126.6" y2="26"/>
	<line class="st0" x1="21.8" y1="207.6" x2="96.7" y2="39.3"/>
	<line class="st0" x1="21.8" y1="207.6" x2="318.1" y2="238.7"/>
	<line class="st0" x1="21.8" y1="207.6" x2="21.8" y2="142.4"/>
	<line class="st0" x1="21.8" y1="207.6" x2="328.2" y2="207.6"/>
	<line class="st0" x1="21.8" y1="207.6" x2="18.3" y2="175"/>
	<line class="st0" x1="21.8" y1="207.6" x2="31.9" y2="238.7"/>
	<line class="st0" x1="21.8" y1="207.6" x2="48.3" y2="267.1"/>
	<line class="st0" x1="21.8" y1="207.6" x2="70.2" y2="291.4"/>
	<line class="st0" x1="21.8" y1="207.6" x2="96.7" y2="310.7"/>
	<line class="st0" x1="21.8" y1="207.6" x2="126.6" y2="324"/>
	<line class="st0" x1="21.8" y1="207.6" x2="191.4" y2="330.8"/>
	<line class="st0" x1="21.8" y1="207.6" x2="223.4" y2="324"/>
	<line class="st0" x1="21.8" y1="207.6" x2="253.3" y2="310.7"/>
	<line class="st0" x1="21.8" y1="207.6" x2="279.8" y2="291.4"/>
	<line class="st0" x1="279.8" y1="58.6" x2="191.4" y2="19.2"/>
	<line class="st0" x1="31.9" y1="238.7" x2="158.6" y2="19.2"/>
	<line class="st0" x1="31.9" y1="238.7" x2="96.7" y2="310.7"/>
	<line class="st0" x1="31.9" y1="238.7" x2="191.4" y2="330.8"/>
	<line class="st0" x1="31.9" y1="238.7" x2="253.3" y2="310.7"/>
	<line class="st0" x1="48.3" y1="267.1" x2="158.6" y2="19.2"/>
	<line class="st0" x1="48.3" y1="267.1" x2="96.7" y2="39.3"/>
	<line class="st0" x1="48.3" y1="267.1" x2="318.1" y2="238.7"/>
	<line class="st0" x1="48.3" y1="267.1" x2="18.3" y2="175"/>
	<line class="st0" x1="48.3" y1="267.1" x2="31.9" y2="238.7"/>
	<line class="st0" x1="48.3" y1="267.1" x2="96.7" y2="310.7"/>
	<line class="st0" x1="48.3" y1="267.1" x2="126.6" y2="324"/>
	<line class="st0" x1="48.3" y1="267.1" x2="191.4" y2="330.8"/>
	<line class="st0" x1="48.3" y1="267.1" x2="223.4" y2="324"/>
	<line class="st0" x1="48.3" y1="267.1" x2="253.3" y2="310.7"/>
	<line class="st0" x1="48.3" y1="267.1" x2="279.8" y2="291.4"/>
	<line class="st0" x1="70.2" y1="291.4" x2="158.6" y2="19.2"/>
	<line class="st0" x1="70.2" y1="291.4" x2="126.6" y2="26"/>
	<line class="st0" x1="70.2" y1="291.4" x2="96.7" y2="39.3"/>
	<line class="st0" x1="70.2" y1="291.4" x2="318.1" y2="238.7"/>
	<line class="st0" x1="70.2" y1="291.4" x2="21.8" y2="142.4"/>
	<line class="st0" x1="70.2" y1="291.4" x2="328.2" y2="207.6"/>
	<line class="st0" x1="70.2" y1="291.4" x2="18.3" y2="175"/>
	<line class="st0" x1="70.2" y1="291.4" x2="31.9" y2="238.7"/>
	<line class="st0" x1="70.2" y1="291.4" x2="48.3" y2="267.1"/>
	<line class="st0" x1="70.2" y1="291.4" x2="96.7" y2="310.7"/>
	<line class="st0" x1="70.2" y1="291.4" x2="126.6" y2="324"/>
	<line class="st0" x1="70.2" y1="291.4" x2="191.4" y2="330.8"/>
	<line class="st0" x1="70.2" y1="291.4" x2="223.4" y2="324"/>
	<line class="st0" x1="70.2" y1="291.4" x2="253.3" y2="310.7"/>
	<line class="st0" x1="70.2" y1="291.4" x2="279.8" y2="291.4"/>
	<line class="st0" x1="328.2" y1="142.4" x2="158.6" y2="19.2"/>
	<line class="st0" x1="328.2" y1="142.4" x2="126.6" y2="26"/>
	<line class="st0" x1="328.2" y1="142.4" x2="96.7" y2="39.3"/>
	<line class="st0" x1="328.2" y1="142.4" x2="70.2" y2="58.6"/>
	<line class="st0" x1="328.2" y1="142.4" x2="301.7" y2="267.1"/>
	<line class="st0" x1="328.2" y1="142.4" x2="31.9" y2="111.3"/>
	<line class="st0" x1="328.2" y1="142.4" x2="318.1" y2="238.7"/>
	<line class="st0" x1="328.2" y1="142.4" x2="21.8" y2="142.4"/>
	<line class="st0" x1="328.2" y1="142.4" x2="328.2" y2="207.6"/>
	<line class="st0" x1="328.2" y1="142.4" x2="18.3" y2="175"/>
	<line class="st0" x1="328.2" y1="142.4" x2="21.8" y2="207.6"/>
	<line class="st0" x1="328.2" y1="142.4" x2="331.7" y2="175"/>
	<line class="st0" x1="328.2" y1="142.4" x2="31.9" y2="238.7"/>
	<line class="st0" x1="328.2" y1="142.4" x2="48.3" y2="267.1"/>
	<line class="st0" x1="328.2" y1="142.4" x2="70.2" y2="291.4"/>
	<line class="st0" x1="328.2" y1="142.4" x2="96.7" y2="310.7"/>
	<line class="st0" x1="328.2" y1="142.4" x2="126.6" y2="324"/>
	<line class="st0" x1="328.2" y1="142.4" x2="158.6" y2="330.8"/>
	<line class="st0" x1="328.2" y1="142.4" x2="301.7" y2="82.9"/>
	<line class="st0" x1="328.2" y1="142.4" x2="191.4" y2="330.8"/>
	<line class="st0" x1="328.2" y1="142.4" x2="223.4" y2="324"/>
	<line class="st0" x1="328.2" y1="142.4" x2="253.3" y2="310.7"/>
	<line class="st0" x1="328.2" y1="142.4" x2="279.8" y2="291.4"/>
	<line class="st0" x1="126.6" y1="324" x2="158.6" y2="19.2"/>
	<line class="st0" x1="126.6" y1="324" x2="96.7" y2="39.3"/>
	<line class="st0" x1="126.6" y1="324" x2="31.9" y2="238.7"/>
	<line class="st0" x1="126.6" y1="324" x2="96.7" y2="310.7"/>
	<line class="st0" x1="126.6" y1="324" x2="191.4" y2="330.8"/>
	<line class="st0" x1="126.6" y1="324" x2="223.4" y2="26"/>
	<line class="st0" x1="126.6" y1="324" x2="223.4" y2="324"/>
	<line class="st0" x1="126.6" y1="324" x2="253.3" y2="310.7"/>
	<line class="st0" x1="126.6" y1="324" x2="279.8" y2="291.4"/>
	<line class="st0" x1="158.6" y1="330.8" x2="158.6" y2="19.2"/>
	<line class="st0" x1="158.6" y1="330.8" x2="126.6" y2="26"/>
	<line class="st0" x1="158.6" y1="330.8" x2="96.7" y2="39.3"/>
	<line class="st0" x1="158.6" y1="330.8" x2="31.9" y2="111.3"/>
	<line class="st0" x1="158.6" y1="330.8" x2="318.1" y2="238.7"/>
	<line class="st0" x1="158.6" y1="330.8" x2="21.8" y2="142.4"/>
	<line class="st0" x1="158.6" y1="330.8" x2="328.2" y2="207.6"/>
	<line class="st0" x1="158.6" y1="330.8" x2="18.3" y2="175"/>
	<line class="st0" x1="158.6" y1="330.8" x2="21.8" y2="207.6"/>
	<line class="st0" x1="158.6" y1="330.8" x2="31.9" y2="238.7"/>
	<line class="st0" x1="158.6" y1="330.8" x2="48.3" y2="267.1"/>
	<line class="st0" x1="158.6" y1="330.8" x2="70.2" y2="291.4"/>
	<line class="st0" x1="158.6" y1="330.8" x2="96.7" y2="310.7"/>
	<line class="st0" x1="158.6" y1="330.8" x2="126.6" y2="324"/>
	<line class="st0" x1="158.6" y1="330.8" x2="301.7" y2="82.9"/>
	<line class="st0" x1="158.6" y1="330.8" x2="191.4" y2="330.8"/>
	<line class="st0" x1="158.6" y1="330.8" x2="223.4" y2="324"/>
	<line class="st0" x1="158.6" y1="330.8" x2="253.3" y2="310.7"/>
	<line class="st0" x1="158.6" y1="330.8" x2="279.8" y2="291.4"/>
	<line class="st0" x1="318.1" y1="111.3" x2="158.6" y2="19.2"/>
	<line class="st0" x1="318.1" y1="111.3" x2="126.6" y2="26"/>
	<line class="st0" x1="318.1" y1="111.3" x2="96.7" y2="39.3"/>
	<line class="st0" x1="318.1" y1="111.3" x2="70.2" y2="58.6"/>
	<line class="st0" x1="318.1" y1="111.3" x2="301.7" y2="267.1"/>
	<line class="st0" x1="318.1" y1="111.3" x2="31.9" y2="111.3"/>
	<line class="st0" x1="318.1" y1="111.3" x2="318.1" y2="238.7"/>
	<line class="st0" x1="318.1" y1="111.3" x2="21.8" y2="142.4"/>
	<line class="st0" x1="318.1" y1="111.3" x2="328.2" y2="207.6"/>
	<line class="st0" x1="318.1" y1="111.3" x2="18.3" y2="175"/>
	<line class="st0" x1="318.1" y1="111.3" x2="21.8" y2="207.6"/>
	<line class="st0" x1="318.1" y1="111.3" x2="331.7" y2="175"/>
	<line class="st0" x1="318.1" y1="111.3" x2="31.9" y2="238.7"/>
	<line class="st0" x1="318.1" y1="111.3" x2="48.3" y2="267.1"/>
	<line class="st0" x1="318.1" y1="111.3" x2="70.2" y2="291.4"/>
	<line class="st0" x1="318.1" y1="111.3" x2="96.7" y2="310.7"/>
	<line class="st0" x1="318.1" y1="111.3" x2="328.2" y2="142.4"/>
	<line class="st0" x1="318.1" y1="111.3" x2="126.6" y2="324"/>
	<line class="st0" x1="318.1" y1="111.3" x2="158.6" y2="330.8"/>
	<line class="st0" x1="318.1" y1="111.3" x2="301.7" y2="82.9"/>
	<line class="st0" x1="318.1" y1="111.3" x2="191.4" y2="330.8"/>
	<line class="st0" x1="318.1" y1="111.3" x2="223.4" y2="324"/>
	<line class="st0" x1="318.1" y1="111.3" x2="253.3" y2="310.7"/>
	<line class="st0" x1="318.1" y1="111.3" x2="279.8" y2="291.4"/>
	<line class="st0" x1="253.3" y1="39.3" x2="158.6" y2="19.2"/>
	<line class="st0" x1="253.3" y1="39.3" x2="126.6" y2="26"/>
	<line class="st0" x1="253.3" y1="39.3" x2="96.7" y2="39.3"/>
	<line class="st0" x1="253.3" y1="39.3" x2="70.2" y2="58.6"/>
	<line class="st0" x1="253.3" y1="39.3" x2="301.7" y2="267.1"/>
	<line class="st0" x1="253.3" y1="39.3" x2="48.3" y2="82.9"/>
	<line class="st0" x1="253.3" y1="39.3" x2="31.9" y2="111.3"/>
	<line class="st0" x1="253.3" y1="39.3" x2="318.1" y2="238.7"/>
	<line class="st0" x1="253.3" y1="39.3" x2="21.8" y2="142.4"/>
	<line class="st0" x1="253.3" y1="39.3" x2="328.2" y2="207.6"/>
	<line class="st0" x1="253.3" y1="39.3" x2="18.3" y2="175"/>
	<line class="st0" x1="253.3" y1="39.3" x2="21.8" y2="207.6"/>
	<line class="st0" x1="253.3" y1="39.3" x2="331.7" y2="175"/>
	<line class="st0" x1="253.3" y1="39.3" x2="279.8" y2="58.6"/>
	<line class="st0" x1="253.3" y1="39.3" x2="31.9" y2="238.7"/>
	<line class="st0" x1="253.3" y1="39.3" x2="48.3" y2="267.1"/>
	<line class="st0" x1="253.3" y1="39.3" x2="70.2" y2="291.4"/>
	<line class="st0" x1="253.3" y1="39.3" x2="96.7" y2="310.7"/>
	<line class="st0" x1="253.3" y1="39.3" x2="328.2" y2="142.4"/>
	<line class="st0" x1="253.3" y1="39.3" x2="126.6" y2="324"/>
	<line class="st0" x1="253.3" y1="39.3" x2="158.6" y2="330.8"/>
	<line class="st0" x1="253.3" y1="39.3" x2="318.1" y2="111.3"/>
	<line class="st0" x1="253.3" y1="39.3" x2="301.7" y2="82.9"/>
	<line class="st0" x1="253.3" y1="39.3" x2="191.4" y2="330.8"/>
	<line class="st0" x1="253.3" y1="39.3" x2="223.4" y2="26"/>
	<line class="st0" x1="253.3" y1="39.3" x2="223.4" y2="324"/>
	<line class="st0" x1="253.3" y1="39.3" x2="253.3" y2="310.7"/>
	<line class="st0" x1="253.3" y1="39.3" x2="279.8" y2="291.4"/>
	<line class="st0" x1="253.3" y1="39.3" x2="191.4" y2="19.2"/>
	<line class="st0" x1="301.7" y1="82.9" x2="158.6" y2="19.2"/>
	<line class="st0" x1="301.7" y1="82.9" x2="126.6" y2="26"/>
	<line class="st0" x1="301.7" y1="82.9" x2="96.7" y2="39.3"/>
	<line class="st0" x1="301.7" y1="82.9" x2="31.9" y2="111.3"/>
	<line class="st0" x1="301.7" y1="82.9" x2="318.1" y2="238.7"/>
	<line class="st0" x1="301.7" y1="82.9" x2="21.8" y2="142.4"/>
	<line class="st0" x1="301.7" y1="82.9" x2="328.2" y2="207.6"/>
	<line class="st0" x1="301.7" y1="82.9" x2="18.3" y2="175"/>
	<line class="st0" x1="301.7" y1="82.9" x2="21.8" y2="207.6"/>
	<line class="st0" x1="301.7" y1="82.9" x2="331.7" y2="175"/>
	<line class="st0" x1="301.7" y1="82.9" x2="31.9" y2="238.7"/>
	<line class="st0" x1="301.7" y1="82.9" x2="48.3" y2="267.1"/>
	<line class="st0" x1="301.7" y1="82.9" x2="70.2" y2="291.4"/>
	<line class="st0" x1="301.7" y1="82.9" x2="96.7" y2="310.7"/>
	<line class="st0" x1="301.7" y1="82.9" x2="126.6" y2="324"/>
	<line class="st0" x1="301.7" y1="82.9" x2="191.4" y2="330.8"/>
	<line class="st0" x1="301.7" y1="82.9" x2="223.4" y2="324"/>
	<line class="st0" x1="301.7" y1="82.9" x2="253.3" y2="310.7"/>
	<line class="st0" x1="301.7" y1="82.9" x2="279.8" y2="291.4"/>
	<line class="st0" x1="191.4" y1="330.8" x2="158.6" y2="19.2"/>
	<line class="st0" x1="191.4" y1="330.8" x2="96.7" y2="310.7"/>
	<line class="st0" x1="191.4" y1="330.8" x2="253.3" y2="310.7"/>
	<line class="st0" x1="223.4" y1="324" x2="158.6" y2="19.2"/>
	<line class="st0" x1="223.4" y1="324" x2="31.9" y2="238.7"/>
	<line class="st0" x1="223.4" y1="324" x2="96.7" y2="310.7"/>
	<line class="st0" x1="223.4" y1="324" x2="191.4" y2="330.8"/>
	<line class="st0" x1="223.4" y1="324" x2="253.3" y2="310.7"/>
	<line class="st0" x1="253.3" y1="310.7" x2="96.7" y2="310.7"/>
	<line class="st0" x1="279.8" y1="291.4" x2="158.6" y2="19.2"/>
	<line class="st0" x1="279.8" y1="291.4" x2="96.7" y2="39.3"/>
	<line class="st0" x1="279.8" y1="291.4" x2="31.9" y2="238.7"/>
	<line class="st0" x1="279.8" y1="291.4" x2="96.7" y2="310.7"/>
	<line class="st0" x1="279.8" y1="291.4" x2="191.4" y2="330.8"/>
	<line class="st0" x1="279.8" y1="291.4" x2="223.4" y2="324"/>
	<line class="st0" x1="279.8" y1="291.4" x2="253.3" y2="310.7"/>
	<path class="st1" d="M160.6,19.2c0-1.1-0.9-2-2-2c-1.1,0-2,0.9-2,2c0,1.1,0.9,2,2,2C159.7,21.2,160.6,20.3,160.6,19.2"/>
	<path class="st1" d="M128.5,26c0-1.1-0.9-2-2-2c-1.1,0-2,0.9-2,2c0,1.1,0.9,2,2,2C127.7,28,128.5,27.1,128.5,26"/>
	<path class="st1" d="M98.6,39.3c0-1.1-0.9-2-2-2c-1.1,0-2,0.9-2,2c0,1.1,0.9,2,2,2C97.7,41.3,98.6,40.4,98.6,39.3"/>
	<path class="st1" d="M72.1,58.6c0-1.1-0.9-2-2-2c-1.1,0-2,0.9-2,2c0,1.1,0.9,2,2,2C71.2,60.5,72.1,59.7,72.1,58.6"/>
	<path class="st1" d="M303.7,267.1c0-1.1-0.9-2-2-2c-1.1,0-2,0.9-2,2c0,1.1,0.9,2,2,2C302.8,269,303.7,268.2,303.7,267.1"/>
	<path class="st1" d="M50.2,82.9c0-1.1-0.9-2-2-2c-1.1,0-2,0.9-2,2c0,1.1,0.9,2,2,2C49.3,84.9,50.2,84,50.2,82.9"/>
	<path class="st1" d="M33.8,111.3c0-1.1-0.9-2-2-2c-1.1,0-2,0.9-2,2c0,1.1,0.9,2,2,2C33,113.2,33.8,112.4,33.8,111.3"/>
	<path class="st1" d="M320.1,238.7c0-1.1-0.9-2-2-2c-1.1,0-2,0.9-2,2c0,1.1,0.9,2,2,2C319.2,240.7,320.1,239.8,320.1,238.7"/>
	<path class="st1" d="M23.7,142.4c0-1.1-0.9-2-2-2c-1.1,0-2,0.9-2,2c0,1.1,0.9,2,2,2C22.8,144.4,23.7,143.5,23.7,142.4"/>
	<path class="st1" d="M330.2,207.6c0-1.1-0.9-2-2-2c-1.1,0-2,0.9-2,2c0,1.1,0.9,2,2,2C329.3,209.5,330.2,208.6,330.2,207.6"/>
	<path class="st1" d="M20.3,175c0-1.1-0.9-2-2-2c-1.1,0-2,0.9-2,2c0,1.1,0.9,2,2,2C19.4,177,20.3,176.1,20.3,175"/>
	<path class="st1" d="M23.7,207.6c0-1.1-0.9-2-2-2c-1.1,0-2,0.9-2,2c0,1.1,0.9,2,2,2C22.8,209.5,23.7,208.6,23.7,207.6"/>
	<path class="st1" d="M333.6,175c0-1.1-0.9-2-2-2c-1.1,0-2,0.9-2,2c0,1.1,0.9,2,2,2C332.7,177,333.6,176.1,333.6,175"/>
	<path class="st1" d="M281.8,58.6c0-1.1-0.9-2-2-2c-1.1,0-2,0.9-2,2c0,1.1,0.9,2,2,2C280.9,60.5,281.8,59.7,281.8,58.6"/>
	<path class="st1" d="M33.8,238.7c0-1.1-0.9-2-2-2c-1.1,0-2,0.9-2,2c0,1.1,0.9,2,2,2C33,240.7,33.8,239.8,33.8,238.7"/>
	<path class="st1" d="M50.2,267.1c0-1.1-0.9-2-2-2c-1.1,0-2,0.9-2,2c0,1.1,0.9,2,2,2C49.3,269,50.2,268.2,50.2,267.1"/>
	<path class="st1" d="M72.1,291.4c0-1.1-0.9-2-2-2c-1.1,0-2,0.9-2,2c0,1.1,0.9,2,2,2C71.2,293.4,72.1,292.5,72.1,291.4"/>
	<path class="st1" d="M98.6,310.7c0-1.1-0.9-2-2-2c-1.1,0-2,0.9-2,2c0,1.1,0.9,2,2,2C97.7,312.6,98.6,311.8,98.6,310.7"/>
	<path class="st1" d="M330.2,142.4c0-1.1-0.9-2-2-2c-1.1,0-2,0.9-2,2c0,1.1,0.9,2,2,2C329.3,144.4,330.2,143.5,330.2,142.4"/>
	<path class="st1" d="M128.5,324c0-1.1-0.9-2-2-2c-1.1,0-2,0.9-2,2c0,1.1,0.9,2,2,2C127.7,325.9,128.5,325.1,128.5,324"/>
	<path class="st1" d="M160.6,330.8c0-1.1-0.9-2-2-2c-1.1,0-2,0.9-2,2c0,1.1,0.9,2,2,2C159.7,332.8,160.6,331.9,160.6,330.8"/>
	<path class="st1" d="M320.1,111.3c0-1.1-0.9-2-2-2c-1.1,0-2,0.9-2,2c0,1.1,0.9,2,2,2C319.2,113.2,320.1,112.4,320.1,111.3"/>
	<path class="st1" d="M255.3,39.3c0-1.1-0.9-2-2-2c-1.1,0-2,0.9-2,2c0,1.1,0.9,2,2,2C254.4,41.3,255.3,40.4,255.3,39.3"/>
	<path class="st1" d="M303.7,82.9c0-1.1-0.9-2-2-2c-1.1,0-2,0.9-2,2c0,1.1,0.9,2,2,2C302.8,84.9,303.7,84,303.7,82.9"/>
	<path class="st1" d="M193.3,330.8c0-1.1-0.9-2-2-2c-1.1,0-2,0.9-2,2c0,1.1,0.9,2,2,2C192.5,332.8,193.3,331.9,193.3,330.8"/>
	<path class="st1" d="M225.4,26c0-1.1-0.9-2-2-2c-1.1,0-2,0.9-2,2c0,1.1,0.9,2,2,2C224.5,28,225.4,27.1,225.4,26"/>
	<path class="st1" d="M225.4,324c0-1.1-0.9-2-2-2c-1.1,0-2,0.9-2,2c0,1.1,0.9,2,2,2C224.5,325.9,225.4,325.1,225.4,324"/>
	<path class="st1" d="M255.3,310.7c0-1.1-0.9-2-2-2c-1.1,0-2,0.9-2,2c0,1.1,0.9,2,2,2C254.4,312.6,255.3,311.8,255.3,310.7"/>
	<path class="st1" d="M281.8,291.4c0-1.1-0.9-2-2-2c-1.1,0-2,0.9-2,2c0,1.1,0.9,2,2,2C280.9,293.4,281.8,292.5,281.8,291.4"/>
	<path class="st1" d="M193.3,19.2c0-1.1-0.9-2-2-2c-1.1,0-2,0.9-2,2c0,1.1,0.9,2,2,2C192.5,21.2,193.3,20.3,193.3,19.2"/>
</g>
</svg>
