<?xml version="1.0" encoding="utf-8"?>
<!-- Generator: Adobe Illustrator 21.1.0, SVG Export Plug-In . SVG Version: 6.00 Build 0)  -->
<svg version="1.1" id="Layer_1" xmlns="http://www.w3.org/2000/svg" xmlns:xlink="http://www.w3.org/1999/xlink" x="0px" y="0px"
	 viewBox="0 0 350 350" style="enable-background:new 0 0 350 350;" xml:space="preserve">
<style type="text/css">
	.st0{fill:none;stroke:#231F20;stroke-width:0.75;stroke-miterlimit:10;}
</style>
<g>
	<line class="st0" x1="167.8" y1="21.4" x2="189.4" y2="328"/>
	<line class="st0" x1="167.8" y1="21.4" x2="24.7" y2="142.7"/>
	<line class="st0" x1="167.8" y1="21.4" x2="39.5" y2="102.3"/>
	<line class="st0" x1="167.8" y1="21.4" x2="257" y2="304.9"/>
	<line class="st0" x1="167.8" y1="21.4" x2="298.9" y2="265.9"/>
	<line class="st0" x1="167.8" y1="21.4" x2="75.6" y2="57.7"/>
	<line class="st0" x1="21.3" y1="171.3" x2="274.4" y2="57.7"/>
	<line class="st0" x1="21.3" y1="171.3" x2="328.3" y2="185.7"/>
	<line class="st0" x1="30.7" y1="227.9" x2="36.3" y2="241.1"/>
	<line class="st0" x1="30.7" y1="227.9" x2="51.1" y2="265.9"/>
	<line class="st0" x1="30.7" y1="227.9" x2="146.3" y2="325.9"/>
	<line class="st0" x1="323.6" y1="214.1" x2="21.3" y2="171.3"/>
	<line class="st0" x1="33.3" y1="115.3" x2="55.5" y2="78.3"/>
	<line class="st0" x1="33.3" y1="115.3" x2="217.7" y2="322.6"/>
	<line class="st0" x1="33.3" y1="115.3" x2="279.8" y2="287.4"/>
	<line class="st0" x1="33.3" y1="115.3" x2="289.9" y2="277.1"/>
	<line class="st0" x1="33.3" y1="115.3" x2="182.2" y2="21.4"/>
	<line class="st0" x1="65" y1="67.5" x2="26.4" y2="214.1"/>
	<line class="st0" x1="65" y1="67.5" x2="93" y2="304.9"/>
	<line class="st0" x1="43.1" y1="253.8" x2="160.6" y2="328"/>
	<line class="st0" x1="316.7" y1="115.3" x2="310.5" y2="102.3"/>
	<line class="st0" x1="51.1" y1="265.9" x2="36.3" y2="241.1"/>
	<line class="st0" x1="51.1" y1="265.9" x2="146.3" y2="325.9"/>
	<line class="st0" x1="326.6" y1="200" x2="21.3" y2="171.3"/>
	<line class="st0" x1="326.6" y1="200" x2="323.6" y2="214.1"/>
	<line class="st0" x1="70.2" y1="287.4" x2="43.1" y2="253.8"/>
	<line class="st0" x1="70.2" y1="287.4" x2="160.6" y2="328"/>
	<line class="st0" x1="81.2" y1="296.7" x2="33.3" y2="115.3"/>
	<line class="st0" x1="81.2" y1="296.7" x2="217.7" y2="322.6"/>
	<line class="st0" x1="81.2" y1="296.7" x2="279.8" y2="287.4"/>
	<line class="st0" x1="81.2" y1="296.7" x2="289.9" y2="277.1"/>
	<line class="st0" x1="93" y1="304.9" x2="26.4" y2="214.1"/>
	<line class="st0" x1="55.5" y1="78.3" x2="65" y2="67.5"/>
	<line class="st0" x1="55.5" y1="78.3" x2="303.1" y2="89.9"/>
	<line class="st0" x1="55.5" y1="78.3" x2="46.9" y2="89.9"/>
	<line class="st0" x1="55.5" y1="78.3" x2="319.3" y2="227.9"/>
	<line class="st0" x1="55.5" y1="78.3" x2="22.3" y2="156.9"/>
	<line class="st0" x1="105.5" y1="312" x2="125.4" y2="29.4"/>
	<line class="st0" x1="105.5" y1="312" x2="244.5" y2="312"/>
	<line class="st0" x1="105.5" y1="312" x2="268.8" y2="296.7"/>
	<line class="st0" x1="105.5" y1="312" x2="306.9" y2="253.8"/>
	<line class="st0" x1="118.7" y1="317.9" x2="43.1" y2="253.8"/>
	<line class="st0" x1="118.7" y1="317.9" x2="70.2" y2="287.4"/>
	<line class="st0" x1="118.7" y1="317.9" x2="160.6" y2="328"/>
	<line class="st0" x1="132.3" y1="322.6" x2="125.4" y2="29.4"/>
	<line class="st0" x1="132.3" y1="322.6" x2="139.3" y2="25.4"/>
	<line class="st0" x1="132.3" y1="322.6" x2="99.2" y2="41.2"/>
	<line class="st0" x1="132.3" y1="322.6" x2="23.4" y2="200"/>
	<line class="st0" x1="146.3" y1="325.9" x2="36.3" y2="241.1"/>
	<line class="st0" x1="285" y1="67.5" x2="327.7" y2="156.9"/>
	<line class="st0" x1="28.4" y1="128.8" x2="167.8" y2="21.4"/>
	<line class="st0" x1="28.4" y1="128.8" x2="325.3" y2="142.7"/>
	<line class="st0" x1="28.4" y1="128.8" x2="21.7" y2="185.7"/>
	<line class="st0" x1="28.4" y1="128.8" x2="231.3" y2="317.9"/>
	<line class="st0" x1="28.4" y1="128.8" x2="153.4" y2="22.7"/>
	<line class="st0" x1="28.4" y1="128.8" x2="99.2" y2="41.2"/>
	<line class="st0" x1="175" y1="328.6" x2="60.1" y2="277.1"/>
	<line class="st0" x1="175" y1="328.6" x2="87" y2="48.9"/>
	<line class="st0" x1="203.7" y1="325.9" x2="60.1" y2="277.1"/>
	<line class="st0" x1="203.7" y1="325.9" x2="175" y2="328.6"/>
	<line class="st0" x1="203.7" y1="325.9" x2="87" y2="48.9"/>
	<line class="st0" x1="217.7" y1="322.6" x2="279.8" y2="287.4"/>
	<line class="st0" x1="217.7" y1="322.6" x2="289.9" y2="277.1"/>
	<line class="st0" x1="263" y1="48.9" x2="294.5" y2="78.3"/>
	<line class="st0" x1="263" y1="48.9" x2="22.3" y2="156.9"/>
	<line class="st0" x1="21.7" y1="185.7" x2="167.8" y2="21.4"/>
	<line class="st0" x1="21.7" y1="185.7" x2="224.6" y2="29.4"/>
	<line class="st0" x1="21.7" y1="185.7" x2="231.3" y2="317.9"/>
	<line class="st0" x1="21.7" y1="185.7" x2="153.4" y2="22.7"/>
	<line class="st0" x1="231.3" y1="317.9" x2="167.8" y2="21.4"/>
	<line class="st0" x1="250.8" y1="41.2" x2="328.7" y2="171.3"/>
	<line class="st0" x1="328.3" y1="185.7" x2="274.4" y2="57.7"/>
	<line class="st0" x1="328.3" y1="185.7" x2="210.7" y2="25.4"/>
	<line class="st0" x1="24.7" y1="142.7" x2="316.7" y2="115.3"/>
	<line class="st0" x1="24.7" y1="142.7" x2="310.5" y2="102.3"/>
	<line class="st0" x1="24.7" y1="142.7" x2="39.5" y2="102.3"/>
	<line class="st0" x1="24.7" y1="142.7" x2="75.6" y2="57.7"/>
	<line class="st0" x1="46.9" y1="89.9" x2="26.4" y2="214.1"/>
	<line class="st0" x1="46.9" y1="89.9" x2="65" y2="67.5"/>
	<line class="st0" x1="46.9" y1="89.9" x2="93" y2="304.9"/>
	<line class="st0" x1="46.9" y1="89.9" x2="22.3" y2="156.9"/>
	<line class="st0" x1="125.4" y1="29.4" x2="244.5" y2="312"/>
	<line class="st0" x1="125.4" y1="29.4" x2="268.8" y2="296.7"/>
	<line class="st0" x1="125.4" y1="29.4" x2="306.9" y2="253.8"/>
	<line class="st0" x1="125.4" y1="29.4" x2="23.4" y2="200"/>
	<line class="st0" x1="39.5" y1="102.3" x2="238" y2="34.7"/>
	<line class="st0" x1="39.5" y1="102.3" x2="303.1" y2="89.9"/>
	<line class="st0" x1="39.5" y1="102.3" x2="55.5" y2="78.3"/>
	<line class="st0" x1="39.5" y1="102.3" x2="75.6" y2="57.7"/>
	<line class="st0" x1="244.5" y1="312" x2="268.8" y2="296.7"/>
	<line class="st0" x1="244.5" y1="312" x2="306.9" y2="253.8"/>
	<line class="st0" x1="112" y1="34.7" x2="328.7" y2="171.3"/>
	<line class="st0" x1="112" y1="34.7" x2="321.6" y2="128.8"/>
	<line class="st0" x1="112" y1="34.7" x2="60.1" y2="277.1"/>
	<line class="st0" x1="112" y1="34.7" x2="175" y2="328.6"/>
	<line class="st0" x1="112" y1="34.7" x2="203.7" y2="325.9"/>
	<line class="st0" x1="112" y1="34.7" x2="250.8" y2="41.2"/>
	<line class="st0" x1="112" y1="34.7" x2="87" y2="48.9"/>
	<line class="st0" x1="139.3" y1="25.4" x2="21.3" y2="171.3"/>
	<line class="st0" x1="139.3" y1="25.4" x2="327.7" y2="156.9"/>
	<line class="st0" x1="139.3" y1="25.4" x2="323.6" y2="214.1"/>
	<line class="st0" x1="139.3" y1="25.4" x2="326.6" y2="200"/>
	<line class="st0" x1="139.3" y1="25.4" x2="285" y2="67.5"/>
	<line class="st0" x1="139.3" y1="25.4" x2="125.4" y2="29.4"/>
	<line class="st0" x1="139.3" y1="25.4" x2="99.2" y2="41.2"/>
	<line class="st0" x1="139.3" y1="25.4" x2="23.4" y2="200"/>
	<line class="st0" x1="153.4" y1="22.7" x2="167.8" y2="21.4"/>
	<line class="st0" x1="153.4" y1="22.7" x2="189.4" y2="328"/>
	<line class="st0" x1="153.4" y1="22.7" x2="231.3" y2="317.9"/>
	<line class="st0" x1="153.4" y1="22.7" x2="24.7" y2="142.7"/>
	<line class="st0" x1="153.4" y1="22.7" x2="39.5" y2="102.3"/>
	<line class="st0" x1="153.4" y1="22.7" x2="257" y2="304.9"/>
	<line class="st0" x1="153.4" y1="22.7" x2="298.9" y2="265.9"/>
	<line class="st0" x1="153.4" y1="22.7" x2="75.6" y2="57.7"/>
	<line class="st0" x1="257" y1="304.9" x2="189.4" y2="328"/>
	<line class="st0" x1="257" y1="304.9" x2="298.9" y2="265.9"/>
	<line class="st0" x1="289.9" y1="277.1" x2="279.8" y2="287.4"/>
	<line class="st0" x1="99.2" y1="41.2" x2="325.3" y2="142.7"/>
	<line class="st0" x1="99.2" y1="41.2" x2="321.6" y2="128.8"/>
	<line class="st0" x1="99.2" y1="41.2" x2="125.4" y2="29.4"/>
	<line class="st0" x1="99.2" y1="41.2" x2="112" y2="34.7"/>
	<line class="st0" x1="99.2" y1="41.2" x2="23.4" y2="200"/>
	<line class="st0" x1="87" y1="48.9" x2="43.1" y2="253.8"/>
	<line class="st0" x1="87" y1="48.9" x2="60.1" y2="277.1"/>
	<line class="st0" x1="87" y1="48.9" x2="70.2" y2="287.4"/>
	<line class="st0" x1="87" y1="48.9" x2="118.7" y2="317.9"/>
	<line class="st0" x1="87" y1="48.9" x2="160.6" y2="328"/>
	<line class="st0" x1="298.9" y1="265.9" x2="189.4" y2="328"/>
	<line class="st0" x1="306.9" y1="253.8" x2="268.8" y2="296.7"/>
	<line class="st0" x1="313.7" y1="241.1" x2="26.4" y2="214.1"/>
	<line class="st0" x1="313.7" y1="241.1" x2="65" y2="67.5"/>
	<line class="st0" x1="313.7" y1="241.1" x2="93" y2="304.9"/>
	<line class="st0" x1="313.7" y1="241.1" x2="46.9" y2="89.9"/>
	<line class="st0" x1="75.6" y1="57.7" x2="30.7" y2="227.9"/>
	<line class="st0" x1="75.6" y1="57.7" x2="36.3" y2="241.1"/>
	<line class="st0" x1="75.6" y1="57.7" x2="51.1" y2="265.9"/>
	<line class="st0" x1="75.6" y1="57.7" x2="146.3" y2="325.9"/>
	<line class="st0" x1="319.3" y1="227.9" x2="65" y2="67.5"/>
	<line class="st0" x1="319.3" y1="227.9" x2="46.9" y2="89.9"/>
	<line class="st0" x1="319.3" y1="227.9" x2="22.3" y2="156.9"/>
	<line class="st0" x1="23.4" y1="200" x2="196.6" y2="22.7"/>
	<line class="st0" x1="22.3" y1="156.9" x2="65" y2="67.5"/>
	<line class="st0" x1="22.3" y1="156.9" x2="294.5" y2="78.3"/>
	<path d="M169.7,21.4c0-1.1-0.9-1.9-1.9-1.9c-1.1,0-1.9,0.9-1.9,1.9c0,1.1,0.9,1.9,1.9,1.9C168.9,23.3,169.7,22.4,169.7,21.4"/>
	<path d="M28.3,214.1c0-1.1-0.9-1.9-1.9-1.9c-1.1,0-1.9,0.9-1.9,1.9s0.9,1.9,1.9,1.9C27.4,216.1,28.3,215.2,28.3,214.1"/>
	<path d="M23.3,171.3c0-1.1-0.9-1.9-1.9-1.9c-1.1,0-1.9,0.9-1.9,1.9c0,1.1,0.9,1.9,1.9,1.9C22.4,173.3,23.3,172.4,23.3,171.3"/>
	<path d="M239.9,34.7c0-1.1-0.9-1.9-1.9-1.9c-1.1,0-1.9,0.9-1.9,1.9s0.9,1.9,1.9,1.9C239,36.6,239.9,35.8,239.9,34.7"/>
	<path d="M330.6,171.3c0-1.1-0.9-1.9-1.9-1.9c-1.1,0-1.9,0.9-1.9,1.9c0,1.1,0.9,1.9,1.9,1.9C329.7,173.3,330.6,172.4,330.6,171.3"/>
	<path d="M329.6,156.9c0-1.1-0.9-1.9-1.9-1.9c-1.1,0-1.9,0.9-1.9,1.9c0,1.1,0.9,1.9,1.9,1.9C328.7,158.9,329.6,158,329.6,156.9"/>
	<path d="M32.6,227.9c0-1.1-0.9-1.9-1.9-1.9c-1.1,0-1.9,0.9-1.9,1.9c0,1.1,0.9,1.9,1.9,1.9C31.8,229.8,32.6,228.9,32.6,227.9"/>
	<path d="M327.2,142.7c0-1.1-0.9-1.9-1.9-1.9c-1.1,0-1.9,0.9-1.9,1.9c0,1.1,0.9,1.9,1.9,1.9C326.4,144.7,327.2,143.8,327.2,142.7"/>
	<path d="M325.6,214.1c0-1.1-0.9-1.9-1.9-1.9c-1.1,0-1.9,0.9-1.9,1.9s0.9,1.9,1.9,1.9C324.7,216.1,325.6,215.2,325.6,214.1"/>
	<path d="M35.3,115.3c0-1.1-0.9-1.9-1.9-1.9c-1.1,0-1.9,0.9-1.9,1.9c0,1.1,0.9,1.9,1.9,1.9C34.4,117.2,35.3,116.3,35.3,115.3"/>
	<path d="M67,67.5c0-1.1-0.9-1.9-1.9-1.9c-1.1,0-1.9,0.9-1.9,1.9s0.9,1.9,1.9,1.9C66.1,69.4,67,68.6,67,67.5"/>
	<path d="M38.2,241.1c0-1.1-0.9-1.9-1.9-1.9c-1.1,0-1.9,0.9-1.9,1.9c0,1.1,0.9,1.9,1.9,1.9C37.4,243.1,38.2,242.2,38.2,241.1"/>
	<path d="M323.6,128.8c0-1.1-0.9-1.9-1.9-1.9c-1.1,0-1.9,0.9-1.9,1.9c0,1.1,0.9,1.9,1.9,1.9C322.7,130.7,323.6,129.9,323.6,128.8"/>
	<path d="M45,253.8c0-1.1-0.9-1.9-1.9-1.9c-1.1,0-1.9,0.9-1.9,1.9c0,1.1,0.9,1.9,1.9,1.9C44.2,255.8,45,254.9,45,253.8"/>
	<path d="M318.6,115.3c0-1.1-0.9-1.9-1.9-1.9c-1.1,0-1.9,0.9-1.9,1.9c0,1.1,0.9,1.9,1.9,1.9C317.7,117.2,318.6,116.3,318.6,115.3"/>
	<path d="M53,265.9c0-1.1-0.9-1.9-1.9-1.9c-1.1,0-1.9,0.9-1.9,1.9c0,1.1,0.9,1.9,1.9,1.9C52.1,267.8,53,266.9,53,265.9"/>
	<path d="M312.4,102.3c0-1.1-0.9-1.9-1.9-1.9c-1.1,0-1.9,0.9-1.9,1.9s0.9,1.9,1.9,1.9C311.5,104.2,312.4,103.3,312.4,102.3"/>
	<path d="M62.1,277.1c0-1.1-0.9-1.9-1.9-1.9c-1.1,0-1.9,0.9-1.9,1.9c0,1.1,0.9,1.9,1.9,1.9C61.2,279,62.1,278.1,62.1,277.1"/>
	<path d="M328.6,200c0-1.1-0.9-1.9-1.9-1.9c-1.1,0-1.9,0.9-1.9,1.9c0,1.1,0.9,1.9,1.9,1.9C327.7,202,328.6,201.1,328.6,200"/>
	<path d="M72.1,287.4c0-1.1-0.9-1.9-1.9-1.9s-1.9,0.9-1.9,1.9c0,1.1,0.9,1.9,1.9,1.9S72.1,288.4,72.1,287.4"/>
	<path d="M305,89.9c0-1.1-0.9-1.9-1.9-1.9c-1.1,0-1.9,0.9-1.9,1.9c0,1.1,0.9,1.9,1.9,1.9C304.1,91.8,305,91,305,89.9"/>
	<path d="M83.1,296.7c0-1.1-0.9-1.9-1.9-1.9s-1.9,0.9-1.9,1.9s0.9,1.9,1.9,1.9S83.1,297.8,83.1,296.7"/>
	<path d="M296.5,78.3c0-1.1-0.9-1.9-1.9-1.9c-1.1,0-1.9,0.9-1.9,1.9s0.9,1.9,1.9,1.9C295.6,80.2,296.5,79.3,296.5,78.3"/>
	<path d="M94.9,304.9c0-1.1-0.9-1.9-1.9-1.9s-1.9,0.9-1.9,1.9c0,1.1,0.9,1.9,1.9,1.9S94.9,306,94.9,304.9"/>
	<path d="M57.4,78.3c0-1.1-0.9-1.9-1.9-1.9c-1.1,0-1.9,0.9-1.9,1.9s0.9,1.9,1.9,1.9C56.5,80.2,57.4,79.3,57.4,78.3"/>
	<path d="M107.5,312c0-1.1-0.9-1.9-1.9-1.9s-1.9,0.9-1.9,1.9s0.9,1.9,1.9,1.9S107.5,313.1,107.5,312"/>
	<path d="M120.6,317.9c0-1.1-0.9-1.9-1.9-1.9c-1.1,0-1.9,0.9-1.9,1.9c0,1.1,0.9,1.9,1.9,1.9C119.8,319.9,120.6,319,120.6,317.9"/>
	<path d="M134.3,322.6c0-1.1-0.9-1.9-1.9-1.9c-1.1,0-1.9,0.9-1.9,1.9s0.9,1.9,1.9,1.9C133.4,324.5,134.3,323.7,134.3,322.6"/>
	<path d="M148.3,325.9c0-1.1-0.9-1.9-1.9-1.9s-1.9,0.9-1.9,1.9c0,1.1,0.9,1.9,1.9,1.9S148.3,327,148.3,325.9"/>
	<path d="M162.5,328c0-1.1-0.9-1.9-1.9-1.9c-1.1,0-1.9,0.9-1.9,1.9c0,1.1,0.9,1.9,1.9,1.9C161.7,329.9,162.5,329,162.5,328"/>
	<path d="M286.9,67.5c0-1.1-0.9-1.9-1.9-1.9c-1.1,0-1.9,0.9-1.9,1.9s0.9,1.9,1.9,1.9C286,69.4,286.9,68.6,286.9,67.5"/>
	<path d="M276.4,57.7c0-1.1-0.9-1.9-1.9-1.9c-1.1,0-1.9,0.9-1.9,1.9c0,1.1,0.9,1.9,1.9,1.9C275.5,59.6,276.4,58.8,276.4,57.7"/>
	<path d="M30.3,128.8c0-1.1-0.9-1.9-1.9-1.9c-1.1,0-1.9,0.9-1.9,1.9c0,1.1,0.9,1.9,1.9,1.9C29.4,130.7,30.3,129.9,30.3,128.8"/>
	<path d="M176.9,328.6c0-1.1-0.9-1.9-1.9-1.9s-1.9,0.9-1.9,1.9s0.9,1.9,1.9,1.9S176.9,329.7,176.9,328.6"/>
	<path d="M226.5,29.4c0-1.1-0.9-1.9-1.9-1.9s-1.9,0.9-1.9,1.9c0,1.1,0.9,1.9,1.9,1.9S226.5,30.5,226.5,29.4"/>
	<path d="M191.3,328c0-1.1-0.9-1.9-1.9-1.9c-1.1,0-1.9,0.9-1.9,1.9c0,1.1,0.9,1.9,1.9,1.9C190.5,329.9,191.3,329,191.3,328"/>
	<path d="M205.6,325.9c0-1.1-0.9-1.9-1.9-1.9s-1.9,0.9-1.9,1.9c0,1.1,0.9,1.9,1.9,1.9S205.6,327,205.6,325.9"/>
	<path d="M219.6,322.6c0-1.1-0.9-1.9-1.9-1.9c-1.1,0-1.9,0.9-1.9,1.9s0.9,1.9,1.9,1.9C218.7,324.5,219.6,323.7,219.6,322.6"/>
	<path d="M264.9,48.9c0-1.1-0.9-1.9-1.9-1.9c-1.1,0-1.9,0.9-1.9,1.9s0.9,1.9,1.9,1.9C264.1,50.8,264.9,50,264.9,48.9"/>
	<path d="M23.6,185.7c0-1.1-0.9-1.9-1.9-1.9c-1.1,0-1.9,0.9-1.9,1.9c0,1.1,0.9,1.9,1.9,1.9C22.7,187.7,23.6,186.8,23.6,185.7"/>
	<path d="M233.3,317.9c0-1.1-0.9-1.9-1.9-1.9c-1.1,0-1.9,0.9-1.9,1.9c0,1.1,0.9,1.9,1.9,1.9C232.4,319.9,233.3,319,233.3,317.9"/>
	<path d="M252.8,41.2c0-1.1-0.9-1.9-1.9-1.9c-1.1,0-1.9,0.9-1.9,1.9c0,1.1,0.9,1.9,1.9,1.9C251.9,43.1,252.8,42.3,252.8,41.2"/>
	<path d="M212.6,25.4c0-1.1-0.9-1.9-1.9-1.9s-1.9,0.9-1.9,1.9c0,1.1,0.9,1.9,1.9,1.9S212.6,26.5,212.6,25.4"/>
	<path d="M330.3,185.7c0-1.1-0.9-1.9-1.9-1.9c-1.1,0-1.9,0.9-1.9,1.9c0,1.1,0.9,1.9,1.9,1.9C329.4,187.7,330.3,186.8,330.3,185.7"/>
	<path d="M26.6,142.7c0-1.1-0.9-1.9-1.9-1.9c-1.1,0-1.9,0.9-1.9,1.9c0,1.1,0.9,1.9,1.9,1.9C25.8,144.7,26.6,143.8,26.6,142.7"/>
	<path d="M48.9,89.9c0-1.1-0.9-1.9-1.9-1.9c-1.1,0-1.9,0.9-1.9,1.9c0,1.1,0.9,1.9,1.9,1.9C48,91.8,48.9,91,48.9,89.9"/>
	<path d="M127.4,29.4c0-1.1-0.9-1.9-1.9-1.9s-1.9,0.9-1.9,1.9c0,1.1,0.9,1.9,1.9,1.9S127.4,30.5,127.4,29.4"/>
	<path d="M41.5,102.3c0-1.1-0.9-1.9-1.9-1.9c-1.1,0-1.9,0.9-1.9,1.9s0.9,1.9,1.9,1.9C40.6,104.2,41.5,103.3,41.5,102.3"/>
	<path d="M246.4,312c0-1.1-0.9-1.9-1.9-1.9s-1.9,0.9-1.9,1.9s0.9,1.9,1.9,1.9S246.4,313.1,246.4,312"/>
	<path d="M114,34.7c0-1.1-0.9-1.9-1.9-1.9c-1.1,0-1.9,0.9-1.9,1.9s0.9,1.9,1.9,1.9C113.1,36.6,114,35.8,114,34.7"/>
	<path d="M198.5,22.7c0-1.1-0.9-1.9-1.9-1.9s-1.9,0.9-1.9,1.9c0,1.1,0.9,1.9,1.9,1.9S198.5,23.8,198.5,22.7"/>
	<path d="M141.2,25.4c0-1.1-0.9-1.9-1.9-1.9s-1.9,0.9-1.9,1.9c0,1.1,0.9,1.9,1.9,1.9S141.2,26.5,141.2,25.4"/>
	<path d="M155.4,22.7c0-1.1-0.9-1.9-1.9-1.9s-1.9,0.9-1.9,1.9c0,1.1,0.9,1.9,1.9,1.9S155.4,23.8,155.4,22.7"/>
	<path d="M258.9,304.9c0-1.1-0.9-1.9-1.9-1.9c-1.1,0-1.9,0.9-1.9,1.9c0,1.1,0.9,1.9,1.9,1.9C258.1,306.9,258.9,306,258.9,304.9"/>
	<path d="M270.8,296.7c0-1.1-0.9-1.9-1.9-1.9s-1.9,0.9-1.9,1.9s0.9,1.9,1.9,1.9S270.8,297.8,270.8,296.7"/>
	<path d="M281.7,287.4c0-1.1-0.9-1.9-1.9-1.9s-1.9,0.9-1.9,1.9c0,1.1,0.9,1.9,1.9,1.9S281.7,288.4,281.7,287.4"/>
	<path d="M291.8,277.1c0-1.1-0.9-1.9-1.9-1.9c-1.1,0-1.9,0.9-1.9,1.9c0,1.1,0.9,1.9,1.9,1.9C290.9,279,291.8,278.1,291.8,277.1"/>
	<path d="M101.1,41.2c0-1.1-0.9-1.9-1.9-1.9c-1.1,0-1.9,0.9-1.9,1.9c0,1.1,0.9,1.9,1.9,1.9C100.3,43.1,101.1,42.3,101.1,41.2"/>
	<path d="M88.9,48.9c0-1.1-0.9-1.9-1.9-1.9c-1.1,0-1.9,0.9-1.9,1.9s0.9,1.9,1.9,1.9C88.1,50.8,88.9,50,88.9,48.9"/>
	<path d="M300.9,265.9c0-1.1-0.9-1.9-1.9-1.9c-1.1,0-1.9,0.9-1.9,1.9c0,1.1,0.9,1.9,1.9,1.9C300,267.8,300.9,266.9,300.9,265.9"/>
	<path d="M308.8,253.8c0-1.1-0.9-1.9-1.9-1.9c-1.1,0-1.9,0.9-1.9,1.9c0,1.1,0.9,1.9,1.9,1.9C308,255.8,308.8,254.9,308.8,253.8"/>
	<path d="M315.7,241.1c0-1.1-0.9-1.9-1.9-1.9c-1.1,0-1.9,0.9-1.9,1.9c0,1.1,0.9,1.9,1.9,1.9C314.8,243.1,315.7,242.2,315.7,241.1"/>
	<path d="M77.5,57.7c0-1.1-0.9-1.9-1.9-1.9c-1.1,0-1.9,0.9-1.9,1.9c0,1.1,0.9,1.9,1.9,1.9C76.7,59.6,77.5,58.8,77.5,57.7"/>
	<path d="M321.2,227.9c0-1.1-0.9-1.9-1.9-1.9c-1.1,0-1.9,0.9-1.9,1.9c0,1.1,0.9,1.9,1.9,1.9C320.4,229.8,321.2,228.9,321.2,227.9"/>
	<path d="M184.1,21.4c0-1.1-0.9-1.9-1.9-1.9c-1.1,0-1.9,0.9-1.9,1.9c0,1.1,0.9,1.9,1.9,1.9C183.3,23.3,184.1,22.4,184.1,21.4"/>
	<path d="M25.3,200c0-1.1-0.9-1.9-1.9-1.9c-1.1,0-1.9,0.9-1.9,1.9c0,1.1,0.9,1.9,1.9,1.9C24.4,202,25.3,201.1,25.3,200"/>
	<path d="M24.3,156.9c0-1.1-0.9-1.9-1.9-1.9c-1.1,0-1.9,0.9-1.9,1.9c0,1.1,0.9,1.9,1.9,1.9C23.4,158.9,24.3,158,24.3,156.9"/>
</g>
</svg>
