<?xml version="1.0" encoding="utf-8"?>
<!-- Generator: Adobe Illustrator 21.1.0, SVG Export Plug-In . SVG Version: 6.00 Build 0)  -->
<svg version="1.1" id="Layer_1" xmlns="http://www.w3.org/2000/svg" xmlns:xlink="http://www.w3.org/1999/xlink" x="0px" y="0px"
	 viewBox="0 0 350 350" style="enable-background:new 0 0 350 350;" xml:space="preserve">
<style type="text/css">
	.st0{fill:none;stroke:#231F20;stroke-width:0.75;stroke-miterlimit:10;}
</style>
<g>
	<line class="st0" x1="153.6" y1="15.9" x2="25" y2="117.7"/>
	<line class="st0" x1="153.6" y1="15.9" x2="21.9" y2="126.8"/>
	<line class="st0" x1="153.6" y1="15.9" x2="172.6" y2="14.5"/>
	<line class="st0" x1="153.6" y1="15.9" x2="38.9" y2="260"/>
	<line class="st0" x1="153.6" y1="15.9" x2="99.3" y2="33.5"/>
	<line class="st0" x1="153.6" y1="15.9" x2="148.8" y2="16.6"/>
	<line class="st0" x1="153.6" y1="15.9" x2="47" y2="271.8"/>
	<line class="st0" x1="153.6" y1="15.9" x2="300.1" y2="275.6"/>
	<line class="st0" x1="153.6" y1="15.9" x2="53" y2="279.3"/>
	<line class="st0" x1="153.6" y1="15.9" x2="56.1" y2="282.9"/>
	<line class="st0" x1="153.6" y1="15.9" x2="333.6" y2="150"/>
	<line class="st0" x1="153.6" y1="15.9" x2="73.5" y2="299.3"/>
	<line class="st0" x1="153.6" y1="15.9" x2="205.9" y2="17.5"/>
	<line class="st0" x1="95.1" y1="35.8" x2="158.3" y2="15.3"/>
	<line class="st0" x1="95.1" y1="35.8" x2="85" y2="307.9"/>
	<line class="st0" x1="95.1" y1="35.8" x2="79.1" y2="46.3"/>
	<line class="st0" x1="95.1" y1="35.8" x2="148.8" y2="16.6"/>
	<line class="st0" x1="95.1" y1="35.8" x2="114.4" y2="323.6"/>
	<line class="st0" x1="95.1" y1="35.8" x2="297" y2="279.3"/>
	<line class="st0" x1="95.1" y1="35.8" x2="155.9" y2="334.4"/>
	<line class="st0" x1="95.1" y1="35.8" x2="330.7" y2="136"/>
	<line class="st0" x1="144.1" y1="17.5" x2="158.3" y2="15.3"/>
	<line class="st0" x1="144.1" y1="17.5" x2="217.5" y2="329.8"/>
	<line class="st0" x1="144.1" y1="17.5" x2="222.1" y2="328.4"/>
	<line class="st0" x1="144.1" y1="17.5" x2="37.6" y2="92"/>
	<line class="st0" x1="144.1" y1="17.5" x2="99.3" y2="33.5"/>
	<line class="st0" x1="144.1" y1="17.5" x2="148.8" y2="16.6"/>
	<line class="st0" x1="144.1" y1="17.5" x2="15.8" y2="154.7"/>
	<line class="st0" x1="144.1" y1="17.5" x2="320.3" y2="243.2"/>
	<line class="st0" x1="144.1" y1="17.5" x2="179.8" y2="335.4"/>
	<line class="st0" x1="144.1" y1="17.5" x2="321.3" y2="108.9"/>
	<line class="st0" x1="144.1" y1="17.5" x2="48.5" y2="76.3"/>
	<line class="st0" x1="144.1" y1="17.5" x2="259" y2="38.2"/>
	<line class="st0" x1="130.2" y1="20.9" x2="158.3" y2="15.3"/>
	<line class="st0" x1="130.2" y1="20.9" x2="77.2" y2="302.3"/>
	<line class="st0" x1="130.2" y1="20.9" x2="25.9" y2="234.5"/>
	<line class="st0" x1="130.2" y1="20.9" x2="64.5" y2="58.6"/>
	<line class="st0" x1="130.2" y1="20.9" x2="79.1" y2="46.3"/>
	<line class="st0" x1="130.2" y1="20.9" x2="103.5" y2="31.3"/>
	<line class="st0" x1="130.2" y1="20.9" x2="123.4" y2="327"/>
	<line class="st0" x1="130.2" y1="20.9" x2="30.8" y2="104.6"/>
	<line class="st0" x1="130.2" y1="20.9" x2="53" y2="279.3"/>
	<line class="st0" x1="130.2" y1="20.9" x2="66.2" y2="293"/>
	<line class="st0" x1="23.4" y1="122.2" x2="77.2" y2="302.3"/>
	<line class="st0" x1="23.4" y1="122.2" x2="71.6" y2="52.2"/>
	<line class="st0" x1="23.4" y1="122.2" x2="31.8" y2="247.5"/>
	<line class="st0" x1="23.4" y1="122.2" x2="103.5" y2="31.3"/>
	<line class="st0" x1="23.4" y1="122.2" x2="44.2" y2="268"/>
	<line class="st0" x1="24.2" y1="230" x2="226.6" y2="327"/>
	<line class="st0" x1="24.2" y1="230" x2="172.6" y2="14.5"/>
	<line class="st0" x1="24.2" y1="230" x2="14.6" y2="169"/>
	<line class="st0" x1="45.6" y1="80.1" x2="231.1" y2="325.4"/>
	<line class="st0" x1="45.6" y1="80.1" x2="68" y2="55.3"/>
	<line class="st0" x1="45.6" y1="80.1" x2="139.4" y2="18.5"/>
	<line class="st0" x1="45.6" y1="80.1" x2="330.1" y2="216.3"/>
	<line class="st0" x1="45.6" y1="80.1" x2="334.2" y2="154.7"/>
	<line class="st0" x1="45.6" y1="80.1" x2="175" y2="335.5"/>
	<line class="st0" x1="125.6" y1="22.3" x2="25.9" y2="234.5"/>
	<line class="st0" x1="125.6" y1="22.3" x2="81" y2="305.1"/>
	<line class="st0" x1="125.6" y1="22.3" x2="172.6" y2="14.5"/>
	<line class="st0" x1="125.6" y1="22.3" x2="139.4" y2="18.5"/>
	<line class="st0" x1="125.6" y1="22.3" x2="44.2" y2="268"/>
	<line class="st0" x1="125.6" y1="22.3" x2="49.9" y2="275.6"/>
	<line class="st0" x1="125.6" y1="22.3" x2="51.4" y2="72.5"/>
	<line class="st0" x1="125.6" y1="22.3" x2="328.8" y2="220.9"/>
	<line class="st0" x1="125.6" y1="22.3" x2="317.1" y2="100.3"/>
	<line class="st0" x1="125.6" y1="22.3" x2="208.2" y2="332"/>
	<line class="st0" x1="235.6" y1="323.6" x2="27.8" y2="238.9"/>
	<line class="st0" x1="29.7" y1="243.2" x2="172.6" y2="14.5"/>
	<line class="st0" x1="29.7" y1="243.2" x2="22.6" y2="225.5"/>
	<line class="st0" x1="29.7" y1="243.2" x2="59.4" y2="286.4"/>
	<line class="st0" x1="121.1" y1="23.8" x2="25" y2="117.7"/>
	<line class="st0" x1="121.1" y1="23.8" x2="172.6" y2="14.5"/>
	<line class="st0" x1="121.1" y1="23.8" x2="91" y2="38.2"/>
	<line class="st0" x1="121.1" y1="23.8" x2="139.4" y2="18.5"/>
	<line class="st0" x1="121.1" y1="23.8" x2="97.2" y2="315.4"/>
	<line class="st0" x1="121.1" y1="23.8" x2="37.6" y2="92"/>
	<line class="st0" x1="121.1" y1="23.8" x2="305.8" y2="268"/>
	<line class="st0" x1="121.1" y1="23.8" x2="155.9" y2="334.4"/>
	<line class="st0" x1="121.1" y1="23.8" x2="278.4" y2="52.2"/>
	<line class="st0" x1="121.1" y1="23.8" x2="215.2" y2="19.6"/>
	<line class="st0" x1="112.2" y1="27.3" x2="31.8" y2="247.5"/>
	<line class="st0" x1="112.2" y1="27.3" x2="244.3" y2="319.8"/>
	<line class="st0" x1="112.2" y1="27.3" x2="148.8" y2="16.6"/>
	<line class="st0" x1="112.2" y1="27.3" x2="47" y2="271.8"/>
	<line class="st0" x1="112.2" y1="27.3" x2="30.8" y2="104.6"/>
	<line class="st0" x1="112.2" y1="27.3" x2="179.8" y2="335.4"/>
	<line class="st0" x1="112.2" y1="27.3" x2="66.2" y2="293"/>
	<line class="st0" x1="112.2" y1="27.3" x2="48.5" y2="76.3"/>
	<line class="st0" x1="112.2" y1="27.3" x2="267" y2="43.5"/>
	<line class="st0" x1="240" y1="321.8" x2="14.6" y2="169"/>
	<line class="st0" x1="248.6" y1="317.6" x2="172.6" y2="14.5"/>
	<line class="st0" x1="42.8" y1="84" x2="71.6" y2="52.2"/>
	<line class="st0" x1="42.8" y1="84" x2="91" y2="38.2"/>
	<line class="st0" x1="42.8" y1="84" x2="79.1" y2="46.3"/>
	<line class="st0" x1="42.8" y1="84" x2="148.8" y2="16.6"/>
	<line class="st0" x1="42.8" y1="84" x2="308.5" y2="264"/>
	<line class="st0" x1="42.8" y1="84" x2="219.8" y2="20.9"/>
	<line class="st0" x1="252.8" y1="315.4" x2="68" y2="55.3"/>
	<line class="st0" x1="167.8" y1="14.6" x2="158.3" y2="15.3"/>
	<line class="st0" x1="167.8" y1="14.6" x2="21.9" y2="126.8"/>
	<line class="st0" x1="167.8" y1="14.6" x2="172.6" y2="14.5"/>
	<line class="st0" x1="167.8" y1="14.6" x2="91" y2="38.2"/>
	<line class="st0" x1="167.8" y1="14.6" x2="68" y2="55.3"/>
	<line class="st0" x1="167.8" y1="14.6" x2="257" y2="313"/>
	<line class="st0" x1="167.8" y1="14.6" x2="64.5" y2="58.6"/>
	<line class="st0" x1="167.8" y1="14.6" x2="139.4" y2="18.5"/>
	<line class="st0" x1="167.8" y1="14.6" x2="57.8" y2="65.4"/>
	<line class="st0" x1="167.8" y1="14.6" x2="16.1" y2="197.6"/>
	<line class="st0" x1="167.8" y1="14.6" x2="79.1" y2="46.3"/>
	<line class="st0" x1="167.8" y1="14.6" x2="38.9" y2="260"/>
	<line class="st0" x1="167.8" y1="14.6" x2="99.3" y2="33.5"/>
	<line class="st0" x1="167.8" y1="14.6" x2="148.8" y2="16.6"/>
	<line class="st0" x1="167.8" y1="14.6" x2="44.2" y2="268"/>
	<line class="st0" x1="167.8" y1="14.6" x2="47" y2="271.8"/>
	<line class="st0" x1="167.8" y1="14.6" x2="26.8" y2="113.3"/>
	<line class="st0" x1="167.8" y1="14.6" x2="51.4" y2="72.5"/>
	<line class="st0" x1="167.8" y1="14.6" x2="14.8" y2="164.2"/>
	<line class="st0" x1="167.8" y1="14.6" x2="165.4" y2="335.2"/>
	<line class="st0" x1="167.8" y1="14.6" x2="292.2" y2="65.4"/>
	<line class="st0" x1="167.8" y1="14.6" x2="191.7" y2="15.3"/>
	<line class="st0" x1="20.5" y1="131.3" x2="64.5" y2="58.6"/>
	<line class="st0" x1="20.5" y1="131.3" x2="14.8" y2="164.2"/>
	<line class="st0" x1="20.5" y1="131.3" x2="59.4" y2="286.4"/>
	<line class="st0" x1="20.5" y1="131.3" x2="325" y2="117.7"/>
	<line class="st0" x1="20.5" y1="131.3" x2="48.5" y2="76.3"/>
	<line class="st0" x1="34" y1="251.8" x2="68" y2="55.3"/>
	<line class="st0" x1="34" y1="251.8" x2="261" y2="310.5"/>
	<line class="st0" x1="34" y1="251.8" x2="141.8" y2="332"/>
	<line class="st0" x1="163.1" y1="14.9" x2="158.3" y2="15.3"/>
	<line class="st0" x1="163.1" y1="14.9" x2="91" y2="38.2"/>
	<line class="st0" x1="163.1" y1="14.9" x2="139.4" y2="18.5"/>
	<line class="st0" x1="163.1" y1="14.9" x2="57.8" y2="65.4"/>
	<line class="st0" x1="163.1" y1="14.9" x2="16.1" y2="197.6"/>
	<line class="st0" x1="163.1" y1="14.9" x2="38.9" y2="260"/>
	<line class="st0" x1="163.1" y1="14.9" x2="101.4" y2="317.6"/>
	<line class="st0" x1="163.1" y1="14.9" x2="99.3" y2="33.5"/>
	<line class="st0" x1="163.1" y1="14.9" x2="148.8" y2="16.6"/>
	<line class="st0" x1="163.1" y1="14.9" x2="26.8" y2="113.3"/>
	<line class="st0" x1="163.1" y1="14.9" x2="21.2" y2="220.9"/>
	<line class="st0" x1="163.1" y1="14.9" x2="51.4" y2="72.5"/>
	<line class="st0" x1="163.1" y1="14.9" x2="322.2" y2="238.9"/>
	<line class="st0" x1="163.1" y1="14.9" x2="14.8" y2="164.2"/>
	<line class="st0" x1="163.1" y1="14.9" x2="59.4" y2="286.4"/>
	<line class="st0" x1="163.1" y1="14.9" x2="48.5" y2="76.3"/>
	<line class="st0" x1="163.1" y1="14.9" x2="203.5" y2="332.9"/>
	<line class="st0" x1="163.1" y1="14.9" x2="73.5" y2="299.3"/>
	<line class="st0" x1="36.4" y1="255.9" x2="71.6" y2="52.2"/>
	<line class="st0" x1="36.4" y1="255.9" x2="14.5" y2="173.8"/>
	<line class="st0" x1="36.4" y1="255.9" x2="62.8" y2="289.8"/>
	<line class="st0" x1="14.5" y1="178.6" x2="172.6" y2="14.5"/>
	<line class="st0" x1="14.5" y1="178.6" x2="68" y2="55.3"/>
	<line class="st0" x1="14.5" y1="178.6" x2="85" y2="307.9"/>
	<line class="st0" x1="14.5" y1="178.6" x2="48.5" y2="76.3"/>
	<line class="st0" x1="61.1" y1="61.9" x2="158.3" y2="15.3"/>
	<line class="st0" x1="61.1" y1="61.9" x2="14.7" y2="183.4"/>
	<line class="st0" x1="61.1" y1="61.9" x2="103.5" y2="31.3"/>
	<line class="st0" x1="61.1" y1="61.9" x2="37.6" y2="92"/>
	<line class="st0" x1="61.1" y1="61.9" x2="151.2" y2="333.7"/>
	<line class="st0" x1="61.1" y1="61.9" x2="328.1" y2="126.8"/>
	<line class="st0" x1="61.1" y1="61.9" x2="69.8" y2="296.2"/>
	<line class="st0" x1="15" y1="188.1" x2="158.3" y2="15.3"/>
	<line class="st0" x1="15" y1="188.1" x2="91" y2="38.2"/>
	<line class="st0" x1="15" y1="188.1" x2="64.5" y2="58.6"/>
	<line class="st0" x1="15" y1="188.1" x2="103.5" y2="31.3"/>
	<line class="st0" x1="19.3" y1="136" x2="68" y2="55.3"/>
	<line class="st0" x1="19.3" y1="136" x2="265" y2="307.9"/>
	<line class="st0" x1="19.3" y1="136" x2="53" y2="279.3"/>
	<line class="st0" x1="19.3" y1="136" x2="165.4" y2="335.2"/>
	<line class="st0" x1="19.3" y1="136" x2="237.8" y2="27.3"/>
	<line class="st0" x1="86.9" y1="40.8" x2="71.6" y2="52.2"/>
	<line class="st0" x1="86.9" y1="40.8" x2="25.9" y2="234.5"/>
	<line class="st0" x1="86.9" y1="40.8" x2="139.4" y2="18.5"/>
	<line class="st0" x1="86.9" y1="40.8" x2="15.5" y2="192.9"/>
	<line class="st0" x1="86.9" y1="40.8" x2="103.5" y2="31.3"/>
	<line class="st0" x1="86.9" y1="40.8" x2="318.2" y2="247.5"/>
	<line class="st0" x1="86.9" y1="40.8" x2="69.8" y2="296.2"/>
	<line class="st0" x1="86.9" y1="40.8" x2="250.7" y2="33.5"/>
	<line class="st0" x1="269" y1="305.1" x2="14.5" y2="173.8"/>
	<line class="st0" x1="83" y1="43.5" x2="158.3" y2="15.3"/>
	<line class="st0" x1="83" y1="43.5" x2="16.1" y2="197.6"/>
	<line class="st0" x1="83" y1="43.5" x2="93" y2="313"/>
	<line class="st0" x1="83" y1="43.5" x2="99.3" y2="33.5"/>
	<line class="st0" x1="83" y1="43.5" x2="148.8" y2="16.6"/>
	<line class="st0" x1="83" y1="43.5" x2="21.2" y2="220.9"/>
	<line class="st0" x1="83" y1="43.5" x2="51.4" y2="72.5"/>
	<line class="st0" x1="83" y1="43.5" x2="228.9" y2="23.8"/>
	<line class="st0" x1="107.8" y1="29.2" x2="158.3" y2="15.3"/>
	<line class="st0" x1="107.8" y1="29.2" x2="139.4" y2="18.5"/>
	<line class="st0" x1="107.8" y1="29.2" x2="272.8" y2="302.3"/>
	<line class="st0" x1="107.8" y1="29.2" x2="280.2" y2="296.2"/>
	<line class="st0" x1="107.8" y1="29.2" x2="316" y2="251.8"/>
	<line class="st0" x1="107.8" y1="29.2" x2="151.2" y2="333.7"/>
	<line class="st0" x1="107.8" y1="29.2" x2="175" y2="335.5"/>
	<line class="st0" x1="107.8" y1="29.2" x2="198.8" y2="333.7"/>
	<line class="st0" x1="107.8" y1="29.2" x2="242.2" y2="29.2"/>
	<line class="st0" x1="89" y1="310.5" x2="81" y2="305.1"/>
	<line class="st0" x1="89" y1="310.5" x2="79.1" y2="46.3"/>
	<line class="st0" x1="40.1" y1="87.9" x2="172.6" y2="14.5"/>
	<line class="st0" x1="40.1" y1="87.9" x2="68" y2="55.3"/>
	<line class="st0" x1="40.1" y1="87.9" x2="139.4" y2="18.5"/>
	<line class="st0" x1="40.1" y1="87.9" x2="15.5" y2="192.9"/>
	<line class="st0" x1="40.1" y1="87.9" x2="37.6" y2="92"/>
	<line class="st0" x1="40.1" y1="87.9" x2="56.1" y2="282.9"/>
	<line class="st0" x1="134.8" y1="19.6" x2="158.3" y2="15.3"/>
	<line class="st0" x1="134.8" y1="19.6" x2="71.6" y2="52.2"/>
	<line class="st0" x1="134.8" y1="19.6" x2="14.6" y2="169"/>
	<line class="st0" x1="134.8" y1="19.6" x2="139.4" y2="18.5"/>
	<line class="st0" x1="134.8" y1="19.6" x2="57.8" y2="65.4"/>
	<line class="st0" x1="134.8" y1="19.6" x2="93" y2="313"/>
	<line class="st0" x1="134.8" y1="19.6" x2="37.6" y2="92"/>
	<line class="st0" x1="134.8" y1="19.6" x2="148.8" y2="16.6"/>
	<line class="st0" x1="134.8" y1="19.6" x2="325.8" y2="230"/>
	<line class="st0" x1="134.8" y1="19.6" x2="184.6" y2="335.2"/>
	<line class="st0" x1="134.8" y1="19.6" x2="274.7" y2="49.2"/>
	<line class="st0" x1="276.5" y1="299.3" x2="25" y2="117.7"/>
	<line class="st0" x1="283.8" y1="293" x2="15.5" y2="192.9"/>
	<line class="st0" x1="18.2" y1="140.6" x2="97.2" y2="315.4"/>
	<line class="st0" x1="18.2" y1="140.6" x2="26.8" y2="113.3"/>
	<line class="st0" x1="18.2" y1="140.6" x2="21.2" y2="220.9"/>
	<line class="st0" x1="18.2" y1="140.6" x2="14.8" y2="164.2"/>
	<line class="st0" x1="18.2" y1="140.6" x2="141.8" y2="332"/>
	<line class="st0" x1="41.5" y1="264" x2="79.1" y2="46.3"/>
	<line class="st0" x1="41.5" y1="264" x2="103.5" y2="31.3"/>
	<line class="st0" x1="41.5" y1="264" x2="324.1" y2="234.5"/>
	<line class="st0" x1="16.8" y1="202.3" x2="27.8" y2="238.9"/>
	<line class="st0" x1="16.8" y1="202.3" x2="15.5" y2="192.9"/>
	<line class="st0" x1="16.8" y1="202.3" x2="15.8" y2="154.7"/>
	<line class="st0" x1="16.8" y1="202.3" x2="22.6" y2="225.5"/>
	<line class="st0" x1="287.2" y1="289.8" x2="172.6" y2="14.5"/>
	<line class="st0" x1="290.6" y1="286.4" x2="172.6" y2="14.5"/>
	<line class="st0" x1="105.7" y1="319.8" x2="57.8" y2="65.4"/>
	<line class="st0" x1="105.7" y1="319.8" x2="110" y2="321.8"/>
	<line class="st0" x1="17.7" y1="207" x2="14.5" y2="173.8"/>
	<line class="st0" x1="17.7" y1="207" x2="148.8" y2="16.6"/>
	<line class="st0" x1="17.7" y1="207" x2="335.5" y2="178.6"/>
	<line class="st0" x1="17.7" y1="207" x2="301.6" y2="76.3"/>
	<line class="st0" x1="75.3" y1="49.2" x2="21.9" y2="126.8"/>
	<line class="st0" x1="75.3" y1="49.2" x2="172.6" y2="14.5"/>
	<line class="st0" x1="75.3" y1="49.2" x2="57.8" y2="65.4"/>
	<line class="st0" x1="75.3" y1="49.2" x2="16.1" y2="197.6"/>
	<line class="st0" x1="75.3" y1="49.2" x2="148.8" y2="16.6"/>
	<line class="st0" x1="75.3" y1="49.2" x2="30.8" y2="104.6"/>
	<line class="st0" x1="75.3" y1="49.2" x2="26.8" y2="113.3"/>
	<line class="st0" x1="75.3" y1="49.2" x2="73.5" y2="299.3"/>
	<line class="st0" x1="17.3" y1="145.3" x2="25" y2="117.7"/>
	<line class="st0" x1="17.3" y1="145.3" x2="172.6" y2="14.5"/>
	<line class="st0" x1="17.3" y1="145.3" x2="14.7" y2="183.4"/>
	<line class="st0" x1="17.3" y1="145.3" x2="103.5" y2="31.3"/>
	<line class="st0" x1="17.3" y1="145.3" x2="99.3" y2="33.5"/>
	<line class="st0" x1="35.2" y1="96.1" x2="158.3" y2="15.3"/>
	<line class="st0" x1="35.2" y1="96.1" x2="99.3" y2="33.5"/>
	<line class="st0" x1="35.2" y1="96.1" x2="148.8" y2="16.6"/>
	<line class="st0" x1="35.2" y1="96.1" x2="51.4" y2="72.5"/>
	<line class="st0" x1="35.2" y1="96.1" x2="295.5" y2="68.9"/>
	<line class="st0" x1="35.2" y1="96.1" x2="177.4" y2="14.5"/>
	<line class="st0" x1="18.7" y1="211.7" x2="57.8" y2="65.4"/>
	<line class="st0" x1="18.7" y1="211.7" x2="293.9" y2="282.9"/>
	<line class="st0" x1="18.7" y1="211.7" x2="335.3" y2="183.4"/>
	<line class="st0" x1="18.7" y1="211.7" x2="298.6" y2="72.5"/>
	<line class="st0" x1="16.4" y1="150" x2="15.8" y2="154.7"/>
	<line class="st0" x1="16.4" y1="150" x2="303" y2="271.8"/>
	<line class="st0" x1="16.4" y1="150" x2="332.7" y2="145.3"/>
	<line class="st0" x1="16.4" y1="150" x2="203.5" y2="332.9"/>
	<line class="st0" x1="16.4" y1="150" x2="186.9" y2="14.9"/>
	<line class="st0" x1="118.9" y1="325.4" x2="64.5" y2="58.6"/>
	<line class="st0" x1="118.9" y1="325.4" x2="123.4" y2="327"/>
	<line class="st0" x1="32.9" y1="100.3" x2="21.9" y2="126.8"/>
	<line class="st0" x1="32.9" y1="100.3" x2="91" y2="38.2"/>
	<line class="st0" x1="32.9" y1="100.3" x2="64.5" y2="58.6"/>
	<line class="st0" x1="32.9" y1="100.3" x2="57.8" y2="65.4"/>
	<line class="st0" x1="32.9" y1="100.3" x2="37.6" y2="92"/>
	<line class="st0" x1="32.9" y1="100.3" x2="246.5" y2="31.3"/>
	<line class="st0" x1="116.6" y1="25.5" x2="172.6" y2="14.5"/>
	<line class="st0" x1="116.6" y1="25.5" x2="91" y2="38.2"/>
	<line class="st0" x1="116.6" y1="25.5" x2="139.4" y2="18.5"/>
	<line class="st0" x1="116.6" y1="25.5" x2="30.8" y2="104.6"/>
	<line class="st0" x1="116.6" y1="25.5" x2="49.9" y2="275.6"/>
	<line class="st0" x1="116.6" y1="25.5" x2="21.2" y2="220.9"/>
	<line class="st0" x1="116.6" y1="25.5" x2="51.4" y2="72.5"/>
	<line class="st0" x1="116.6" y1="25.5" x2="333.2" y2="202.3"/>
	<line class="st0" x1="116.6" y1="25.5" x2="304.4" y2="80.1"/>
	<line class="st0" x1="116.6" y1="25.5" x2="282" y2="55.3"/>
	<line class="st0" x1="28.7" y1="108.9" x2="158.3" y2="15.3"/>
	<line class="st0" x1="28.7" y1="108.9" x2="71.6" y2="52.2"/>
	<line class="st0" x1="28.7" y1="108.9" x2="172.6" y2="14.5"/>
	<line class="st0" x1="28.7" y1="108.9" x2="14.7" y2="183.4"/>
	<line class="st0" x1="28.7" y1="108.9" x2="22.6" y2="225.5"/>
	<line class="st0" x1="28.7" y1="108.9" x2="210.6" y2="18.5"/>
	<line class="st0" x1="54.5" y1="68.9" x2="158.3" y2="15.3"/>
	<line class="st0" x1="54.5" y1="68.9" x2="101.4" y2="317.6"/>
	<line class="st0" x1="54.5" y1="68.9" x2="110" y2="321.8"/>
	<line class="st0" x1="54.5" y1="68.9" x2="26.8" y2="113.3"/>
	<line class="st0" x1="54.5" y1="68.9" x2="51.4" y2="72.5"/>
	<line class="st0" x1="54.5" y1="68.9" x2="66.2" y2="293"/>
	<line class="st0" x1="54.5" y1="68.9" x2="48.5" y2="76.3"/>
	<line class="st0" x1="15.2" y1="159.5" x2="172.6" y2="14.5"/>
	<line class="st0" x1="15.2" y1="159.5" x2="148.8" y2="16.6"/>
	<line class="st0" x1="15.2" y1="159.5" x2="30.8" y2="104.6"/>
	<line class="st0" x1="15.2" y1="159.5" x2="49.9" y2="275.6"/>
	<line class="st0" x1="15.2" y1="159.5" x2="224.4" y2="22.3"/>
	<line class="st0" x1="19.9" y1="216.3" x2="15.8" y2="154.7"/>
	<line class="st0" x1="19.9" y1="216.3" x2="311.1" y2="260"/>
	<line class="st0" x1="19.9" y1="216.3" x2="22.6" y2="225.5"/>
	<line class="st0" x1="19.9" y1="216.3" x2="208.2" y2="332"/>
	<line class="st0" x1="313.6" y1="255.9" x2="14.7" y2="183.4"/>
	<line class="st0" x1="127.9" y1="328.4" x2="172.6" y2="14.5"/>
	<line class="st0" x1="127.9" y1="328.4" x2="56.1" y2="282.9"/>
	<line class="st0" x1="132.5" y1="329.8" x2="79.1" y2="46.3"/>
	<line class="st0" x1="132.5" y1="329.8" x2="334.5" y2="192.9"/>
	<line class="st0" x1="137.1" y1="331" x2="172.6" y2="14.5"/>
	<line class="st0" x1="137.1" y1="331" x2="323.2" y2="113.3"/>
	<line class="st0" x1="146.5" y1="332.9" x2="99.3" y2="33.5"/>
	<line class="st0" x1="146.5" y1="332.9" x2="184.6" y2="335.2"/>
	<line class="st0" x1="327.4" y1="225.5" x2="91" y2="38.2"/>
	<line class="st0" x1="331.3" y1="211.7" x2="14.6" y2="169"/>
	<line class="st0" x1="332.3" y1="207" x2="71.6" y2="52.2"/>
	<line class="st0" x1="333.9" y1="197.6" x2="64.5" y2="58.6"/>
	<line class="st0" x1="335" y1="188.1" x2="62.8" y2="289.8"/>
	<line class="st0" x1="335.5" y1="173.8" x2="172.6" y2="14.5"/>
	<line class="st0" x1="335.4" y1="169" x2="21.9" y2="126.8"/>
	<line class="st0" x1="335.2" y1="164.2" x2="14.5" y2="173.8"/>
	<line class="st0" x1="334.8" y1="159.5" x2="172.6" y2="14.5"/>
	<line class="st0" x1="160.7" y1="334.9" x2="25" y2="117.7"/>
	<line class="st0" x1="160.7" y1="334.9" x2="27.8" y2="238.9"/>
	<line class="st0" x1="331.8" y1="140.6" x2="103.5" y2="31.3"/>
	<line class="st0" x1="170.2" y1="335.4" x2="30.8" y2="104.6"/>
	<line class="st0" x1="170.2" y1="335.4" x2="26.8" y2="113.3"/>
	<line class="st0" x1="329.5" y1="131.3" x2="158.3" y2="15.3"/>
	<line class="st0" x1="326.6" y1="122.2" x2="172.6" y2="14.5"/>
	<line class="st0" x1="189.3" y1="334.9" x2="172.6" y2="14.5"/>
	<line class="st0" x1="189.3" y1="334.9" x2="15.8" y2="154.7"/>
	<line class="st0" x1="194.1" y1="334.4" x2="319.2" y2="104.6"/>
	<line class="st0" x1="194.1" y1="334.4" x2="198.8" y2="333.7"/>
	<line class="st0" x1="314.8" y1="96.1" x2="99.3" y2="33.5"/>
	<line class="st0" x1="312.4" y1="92" x2="172.6" y2="14.5"/>
	<line class="st0" x1="309.9" y1="87.9" x2="103.5" y2="31.3"/>
	<line class="st0" x1="307.2" y1="84" x2="62.8" y2="289.8"/>
	<line class="st0" x1="288.9" y1="61.9" x2="69.8" y2="296.2"/>
	<line class="st0" x1="285.5" y1="58.6" x2="14.8" y2="164.2"/>
	<line class="st0" x1="270.9" y1="46.3" x2="114.4" y2="323.6"/>
	<line class="st0" x1="263.1" y1="40.8" x2="79.1" y2="46.3"/>
	<line class="st0" x1="212.9" y1="331" x2="31.8" y2="247.5"/>
	<line class="st0" x1="212.9" y1="331" x2="139.4" y2="18.5"/>
	<line class="st0" x1="254.9" y1="35.8" x2="172.6" y2="14.5"/>
	<line class="st0" x1="233.4" y1="25.5" x2="172.6" y2="14.5"/>
	<line class="st0" x1="201.2" y1="16.6" x2="158.3" y2="15.3"/>
	<line class="st0" x1="196.4" y1="15.9" x2="158.3" y2="15.3"/>
	<line class="st0" x1="182.2" y1="14.6" x2="48.5" y2="76.3"/>
	<path d="M155.5,15.9c0-1.1-0.9-1.9-1.9-1.9c-1.1,0-1.9,0.9-1.9,1.9c0,1.1,0.9,1.9,1.9,1.9C154.6,17.9,155.5,17,155.5,15.9"/>
	<path d="M27,117.7c0-1.1-0.9-1.9-1.9-1.9c-1.1,0-1.9,0.9-1.9,1.9c0,1.1,0.9,1.9,1.9,1.9C26.1,119.7,27,118.8,27,117.7"/>
	<path d="M97,35.8c0-1.1-0.9-1.9-1.9-1.9c-1.1,0-1.9,0.9-1.9,1.9c0,1.1,0.9,1.9,1.9,1.9C96.2,37.7,97,36.9,97,35.8"/>
	<path d="M160.2,15.3c0-1.1-0.9-1.9-1.9-1.9c-1.1,0-1.9,0.9-1.9,1.9c0,1.1,0.9,1.9,1.9,1.9C159.4,17.3,160.2,16.4,160.2,15.3"/>
	<path d="M146.1,17.5c0-1.1-0.9-1.9-1.9-1.9c-1.1,0-1.9,0.9-1.9,1.9c0,1.1,0.9,1.9,1.9,1.9C145.2,19.4,146.1,18.5,146.1,17.5"/>
	<path d="M219.4,329.8c0-1.1-0.9-1.9-1.9-1.9c-1.1,0-1.9,0.9-1.9,1.9c0,1.1,0.9,1.9,1.9,1.9C218.6,331.7,219.4,330.8,219.4,329.8"/>
	<path d="M132.1,20.9c0-1.1-0.9-1.9-1.9-1.9s-1.9,0.9-1.9,1.9c0,1.1,0.9,1.9,1.9,1.9S132.1,21.9,132.1,20.9"/>
	<path d="M79.1,302.3c0-1.1-0.9-1.9-1.9-1.9c-1.1,0-1.9,0.9-1.9,1.9c0,1.1,0.9,1.9,1.9,1.9C78.3,304.2,79.1,303.3,79.1,302.3"/>
	<path d="M224,328.4c0-1.1-0.9-1.9-1.9-1.9s-1.9,0.9-1.9,1.9c0,1.1,0.9,1.9,1.9,1.9S224,329.5,224,328.4"/>
	<path d="M25.3,122.2c0-1.1-0.9-1.9-1.9-1.9c-1.1,0-1.9,0.9-1.9,1.9c0,1.1,0.9,1.9,1.9,1.9C24.5,124.2,25.3,123.3,25.3,122.2"/>
	<path d="M73.6,52.2c0-1.1-0.9-1.9-1.9-1.9c-1.1,0-1.9,0.9-1.9,1.9c0,1.1,0.9,1.9,1.9,1.9C72.7,54.1,73.6,53.3,73.6,52.2"/>
	<path d="M26.2,230c0-1.1-0.9-1.9-1.9-1.9c-1.1,0-1.9,0.9-1.9,1.9c0,1.1,0.9,1.9,1.9,1.9C25.3,232,26.2,231.1,26.2,230"/>
	<path d="M228.6,327c0-1.1-0.9-1.9-1.9-1.9c-1.1,0-1.9,0.9-1.9,1.9c0,1.1,0.9,1.9,1.9,1.9C227.7,328.9,228.6,328,228.6,327"/>
	<path d="M23.8,126.8c0-1.1-0.9-1.9-1.9-1.9c-1.1,0-1.9,0.9-1.9,1.9c0,1.1,0.9,1.9,1.9,1.9C23,128.7,23.8,127.8,23.8,126.8"/>
	<path d="M47.5,80.1c0-1.1-0.9-1.9-1.9-1.9c-1.1,0-1.9,0.9-1.9,1.9c0,1.1,0.9,1.9,1.9,1.9C46.6,82,47.5,81.1,47.5,80.1"/>
	<path d="M233.1,325.4c0-1.1-0.9-1.9-1.9-1.9c-1.1,0-1.9,0.9-1.9,1.9c0,1.1,0.9,1.9,1.9,1.9C232.2,327.3,233.1,326.4,233.1,325.4"/>
	<path d="M127.6,22.3c0-1.1-0.9-1.9-1.9-1.9c-1.1,0-1.9,0.9-1.9,1.9c0,1.1,0.9,1.9,1.9,1.9C126.7,24.2,127.6,23.3,127.6,22.3"/>
	<path d="M27.9,234.5c0-1.1-0.9-1.9-1.9-1.9c-1.1,0-1.9,0.9-1.9,1.9c0,1.1,0.9,1.9,1.9,1.9C27,236.4,27.9,235.5,27.9,234.5"/>
	<path d="M237.5,323.6c0-1.1-0.9-1.9-1.9-1.9c-1.1,0-1.9,0.9-1.9,1.9c0,1.1,0.9,1.9,1.9,1.9C236.7,325.6,237.5,324.7,237.5,323.6"/>
	<path d="M29.7,238.9c0-1.1-0.9-1.9-1.9-1.9c-1.1,0-1.9,0.9-1.9,1.9s0.9,1.9,1.9,1.9C28.8,240.8,29.7,240,29.7,238.9"/>
	<path d="M83,305.1c0-1.1-0.9-1.9-1.9-1.9c-1.1,0-1.9,0.9-1.9,1.9c0,1.1,0.9,1.9,1.9,1.9C82.1,307.1,83,306.2,83,305.1"/>
	<path d="M31.7,243.2c0-1.1-0.9-1.9-1.9-1.9c-1.1,0-1.9,0.9-1.9,1.9c0,1.1,0.9,1.9,1.9,1.9C30.8,245.2,31.7,244.3,31.7,243.2"/>
	<path d="M174.5,14.5c0-1.1-0.9-1.9-1.9-1.9c-1.1,0-1.9,0.9-1.9,1.9c0,1.1,0.9,1.9,1.9,1.9C173.7,16.4,174.5,15.6,174.5,14.5"/>
	<path d="M123,23.8c0-1.1-0.9-1.9-1.9-1.9c-1.1,0-1.9,0.9-1.9,1.9c0,1.1,0.9,1.9,1.9,1.9C122.2,25.7,123,24.9,123,23.8"/>
	<path d="M92.9,38.2c0-1.1-0.9-1.9-1.9-1.9S89,37.2,89,38.2c0,1.1,0.9,1.9,1.9,1.9S92.9,39.3,92.9,38.2"/>
	<path d="M114.1,27.3c0-1.1-0.9-1.9-1.9-1.9c-1.1,0-1.9,0.9-1.9,1.9c0,1.1,0.9,1.9,1.9,1.9C113.3,29.2,114.1,28.3,114.1,27.3"/>
	<path d="M33.8,247.5c0-1.1-0.9-1.9-1.9-1.9c-1.1,0-1.9,0.9-1.9,1.9c0,1.1,0.9,1.9,1.9,1.9C32.9,249.5,33.8,248.6,33.8,247.5"/>
	<path d="M241.9,321.8c0-1.1-0.9-1.9-1.9-1.9c-1.1,0-1.9,0.9-1.9,1.9c0,1.1,0.9,1.9,1.9,1.9C241.1,323.7,241.9,322.8,241.9,321.8"/>
	<path d="M16.5,169c0-1.1-0.9-1.9-1.9-1.9c-1.1,0-1.9,0.9-1.9,1.9c0,1.1,0.9,1.9,1.9,1.9C15.7,171,16.5,170.1,16.5,169"/>
	<path d="M246.3,319.8c0-1.1-0.9-1.9-1.9-1.9c-1.1,0-1.9,0.9-1.9,1.9c0,1.1,0.9,1.9,1.9,1.9C245.4,321.7,246.3,320.8,246.3,319.8"/>
	<path d="M250.6,317.6c0-1.1-0.9-1.9-1.9-1.9c-1.1,0-1.9,0.9-1.9,1.9c0,1.1,0.9,1.9,1.9,1.9C249.7,319.6,250.6,318.7,250.6,317.6"/>
	<path d="M44.7,84c0-1.1-0.9-1.9-1.9-1.9c-1.1,0-1.9,0.9-1.9,1.9c0,1.1,0.9,1.9,1.9,1.9C43.9,85.9,44.7,85,44.7,84"/>
	<path d="M254.8,315.4c0-1.1-0.9-1.9-1.9-1.9c-1.1,0-1.9,0.9-1.9,1.9c0,1.1,0.9,1.9,1.9,1.9C253.9,317.3,254.8,316.4,254.8,315.4"/>
	<path d="M70,55.3c0-1.1-0.9-1.9-1.9-1.9c-1.1,0-1.9,0.9-1.9,1.9c0,1.1,0.9,1.9,1.9,1.9C69.1,57.3,70,56.4,70,55.3"/>
	<path d="M169.8,14.6c0-1.1-0.9-1.9-1.9-1.9c-1.1,0-1.9,0.9-1.9,1.9c0,1.1,0.9,1.9,1.9,1.9C168.9,16.6,169.8,15.7,169.8,14.6"/>
	<path d="M258.9,313c0-1.1-0.9-1.9-1.9-1.9c-1.1,0-1.9,0.9-1.9,1.9c0,1.1,0.9,1.9,1.9,1.9C258,314.9,258.9,314.1,258.9,313"/>
	<path d="M22.5,131.3c0-1.1-0.9-1.9-1.9-1.9c-1.1,0-1.9,0.9-1.9,1.9c0,1.1,0.9,1.9,1.9,1.9C21.6,133.3,22.5,132.4,22.5,131.3"/>
	<path d="M66.4,58.6c0-1.1-0.9-1.9-1.9-1.9c-1.1,0-1.9,0.9-1.9,1.9c0,1.1,0.9,1.9,1.9,1.9C65.6,60.5,66.4,59.6,66.4,58.6"/>
	<path d="M36,251.8c0-1.1-0.9-1.9-1.9-1.9c-1.1,0-1.9,0.9-1.9,1.9c0,1.1,0.9,1.9,1.9,1.9C35.1,253.7,36,252.8,36,251.8"/>
	<path d="M263,310.5c0-1.1-0.9-1.9-1.9-1.9c-1.1,0-1.9,0.9-1.9,1.9c0,1.1,0.9,1.9,1.9,1.9C262.1,312.4,263,311.6,263,310.5"/>
	<path d="M165,14.9c0-1.1-0.9-1.9-1.9-1.9c-1.1,0-1.9,0.9-1.9,1.9c0,1.1,0.9,1.9,1.9,1.9C164.1,16.9,165,16,165,14.9"/>
	<path d="M141.4,18.5c0-1.1-0.9-1.9-1.9-1.9c-1.1,0-1.9,0.9-1.9,1.9c0,1.1,0.9,1.9,1.9,1.9C140.5,20.4,141.4,19.5,141.4,18.5"/>
	<path d="M38.3,255.9c0-1.1-0.9-1.9-1.9-1.9c-1.1,0-1.9,0.9-1.9,1.9c0,1.1,0.9,1.9,1.9,1.9C37.5,257.9,38.3,257,38.3,255.9"/>
	<path d="M16.4,173.8c0-1.1-0.9-1.9-1.9-1.9s-1.9,0.9-1.9,1.9c0,1.1,0.9,1.9,1.9,1.9S16.4,174.9,16.4,173.8"/>
	<path d="M16.5,178.6c0-1.1-0.9-1.9-1.9-1.9c-1.1,0-1.9,0.9-1.9,1.9c0,1.1,0.9,1.9,1.9,1.9C15.6,180.5,16.5,179.6,16.5,178.6"/>
	<path d="M86.9,307.9c0-1.1-0.9-1.9-1.9-1.9c-1.1,0-1.9,0.9-1.9,1.9c0,1.1,0.9,1.9,1.9,1.9C86,309.8,86.9,308.9,86.9,307.9"/>
	<path d="M63,61.9c0-1.1-0.9-1.9-1.9-1.9c-1.1,0-1.9,0.9-1.9,1.9c0,1.1,0.9,1.9,1.9,1.9C62.2,63.9,63,63,63,61.9"/>
	<path d="M16.6,183.4c0-1.1-0.9-1.9-1.9-1.9c-1.1,0-1.9,0.9-1.9,1.9c0,1.1,0.9,1.9,1.9,1.9C15.8,185.3,16.6,184.4,16.6,183.4"/>
	<path d="M17,188.1c0-1.1-0.9-1.9-1.9-1.9c-1.1,0-1.9,0.9-1.9,1.9c0,1.1,0.9,1.9,1.9,1.9C16.1,190.1,17,189.2,17,188.1"/>
	<path d="M21.2,136c0-1.1-0.9-1.9-1.9-1.9c-1.1,0-1.9,0.9-1.9,1.9c0,1.1,0.9,1.9,1.9,1.9C20.4,137.9,21.2,137,21.2,136"/>
	<path d="M267,307.9c0-1.1-0.9-1.9-1.9-1.9c-1.1,0-1.9,0.9-1.9,1.9c0,1.1,0.9,1.9,1.9,1.9C266.1,309.8,267,308.9,267,307.9"/>
	<path d="M59.7,65.4c0-1.1-0.9-1.9-1.9-1.9c-1.1,0-1.9,0.9-1.9,1.9c0,1.1,0.9,1.9,1.9,1.9C58.8,67.3,59.7,66.4,59.7,65.4"/>
	<path d="M88.9,40.8c0-1.1-0.9-1.9-1.9-1.9c-1.1,0-1.9,0.9-1.9,1.9s0.9,1.9,1.9,1.9C88,42.7,88.9,41.9,88.9,40.8"/>
	<path d="M17.4,192.9c0-1.1-0.9-1.9-1.9-1.9s-1.9,0.9-1.9,1.9c0,1.1,0.9,1.9,1.9,1.9S17.4,194,17.4,192.9"/>
	<path d="M270.9,305.1c0-1.1-0.9-1.9-1.9-1.9c-1.1,0-1.9,0.9-1.9,1.9c0,1.1,0.9,1.9,1.9,1.9C270,307.1,270.9,306.2,270.9,305.1"/>
	<path d="M84.9,43.5c0-1.1-0.9-1.9-1.9-1.9c-1.1,0-1.9,0.9-1.9,1.9c0,1.1,0.9,1.9,1.9,1.9C84.1,45.4,84.9,44.5,84.9,43.5"/>
	<path d="M18,197.6c0-1.1-0.9-1.9-1.9-1.9s-1.9,0.9-1.9,1.9c0,1.1,0.9,1.9,1.9,1.9S18,198.7,18,197.6"/>
	<path d="M109.8,29.2c0-1.1-0.9-1.9-1.9-1.9c-1.1,0-1.9,0.9-1.9,1.9c0,1.1,0.9,1.9,1.9,1.9C108.9,31.1,109.8,30.3,109.8,29.2"/>
	<path d="M274.7,302.3c0-1.1-0.9-1.9-1.9-1.9c-1.1,0-1.9,0.9-1.9,1.9c0,1.1,0.9,1.9,1.9,1.9C273.9,304.2,274.7,303.3,274.7,302.3"/>
	<path d="M90.9,310.5c0-1.1-0.9-1.9-1.9-1.9c-1.1,0-1.9,0.9-1.9,1.9c0,1.1,0.9,1.9,1.9,1.9C90,312.4,90.9,311.6,90.9,310.5"/>
	<path d="M81.1,46.3c0-1.1-0.9-1.9-1.9-1.9c-1.1,0-1.9,0.9-1.9,1.9c0,1.1,0.9,1.9,1.9,1.9C80.2,48.2,81.1,47.3,81.1,46.3"/>
	<path d="M42.1,87.9c0-1.1-0.9-1.9-1.9-1.9c-1.1,0-1.9,0.9-1.9,1.9c0,1.1,0.9,1.9,1.9,1.9C41.2,89.9,42.1,89,42.1,87.9"/>
	<path d="M136.7,19.6c0-1.1-0.9-1.9-1.9-1.9c-1.1,0-1.9,0.9-1.9,1.9c0,1.1,0.9,1.9,1.9,1.9C135.9,21.5,136.7,20.7,136.7,19.6"/>
	<path d="M95,313c0-1.1-0.9-1.9-1.9-1.9c-1.1,0-1.9,0.9-1.9,1.9c0,1.1,0.9,1.9,1.9,1.9C94.1,314.9,95,314.1,95,313"/>
	<path d="M278.5,299.3c0-1.1-0.9-1.9-1.9-1.9c-1.1,0-1.9,0.9-1.9,1.9c0,1.1,0.9,1.9,1.9,1.9C277.6,301.2,278.5,300.4,278.5,299.3"/>
	<path d="M282.1,296.2c0-1.1-0.9-1.9-1.9-1.9s-1.9,0.9-1.9,1.9c0,1.1,0.9,1.9,1.9,1.9S282.1,297.3,282.1,296.2"/>
	<path d="M285.7,293c0-1.1-0.9-1.9-1.9-1.9c-1.1,0-1.9,0.9-1.9,1.9c0,1.1,0.9,1.9,1.9,1.9C284.8,295,285.7,294.1,285.7,293"/>
	<path d="M20.2,140.6c0-1.1-0.9-1.9-1.9-1.9s-1.9,0.9-1.9,1.9c0,1.1,0.9,1.9,1.9,1.9S20.2,141.7,20.2,140.6"/>
	<path d="M99.1,315.4c0-1.1-0.9-1.9-1.9-1.9c-1.1,0-1.9,0.9-1.9,1.9c0,1.1,0.9,1.9,1.9,1.9C98.2,317.3,99.1,316.4,99.1,315.4"/>
	<path d="M40.8,260c0-1.1-0.9-1.9-1.9-1.9c-1.1,0-1.9,0.9-1.9,1.9c0,1.1,0.9,1.9,1.9,1.9C39.9,262,40.8,261.1,40.8,260"/>
	<path d="M43.4,264c0-1.1-0.9-1.9-1.9-1.9c-1.1,0-1.9,0.9-1.9,1.9c0,1.1,0.9,1.9,1.9,1.9C42.5,266,43.4,265.1,43.4,264"/>
	<path d="M105.5,31.3c0-1.1-0.9-1.9-1.9-1.9c-1.1,0-1.9,0.9-1.9,1.9c0,1.1,0.9,1.9,1.9,1.9C104.6,33.2,105.5,32.3,105.5,31.3"/>
	<path d="M39.6,92c0-1.1-0.9-1.9-1.9-1.9c-1.1,0-1.9,0.9-1.9,1.9c0,1.1,0.9,1.9,1.9,1.9C38.7,93.9,39.6,93.1,39.6,92"/>
	<path d="M18.8,202.3c0-1.1-0.9-1.9-1.9-1.9c-1.1,0-1.9,0.9-1.9,1.9c0,1.1,0.9,1.9,1.9,1.9C17.9,204.3,18.8,203.4,18.8,202.3"/>
	<path d="M289.2,289.8c0-1.1-0.9-1.9-1.9-1.9c-1.1,0-1.9,0.9-1.9,1.9c0,1.1,0.9,1.9,1.9,1.9C288.3,291.7,289.2,290.8,289.2,289.8"/>
	<path d="M103.3,317.6c0-1.1-0.9-1.9-1.9-1.9c-1.1,0-1.9,0.9-1.9,1.9c0,1.1,0.9,1.9,1.9,1.9C102.5,319.6,103.3,318.7,103.3,317.6"/>
	<path d="M292.5,286.4c0-1.1-0.9-1.9-1.9-1.9c-1.1,0-1.9,0.9-1.9,1.9c0,1.1,0.9,1.9,1.9,1.9C291.7,288.3,292.5,287.4,292.5,286.4"/>
	<path d="M107.6,319.8c0-1.1-0.9-1.9-1.9-1.9c-1.1,0-1.9,0.9-1.9,1.9c0,1.1,0.9,1.9,1.9,1.9C106.7,321.7,107.6,320.8,107.6,319.8"/>
	<path d="M111.9,321.8c0-1.1-0.9-1.9-1.9-1.9c-1.1,0-1.9,0.9-1.9,1.9c0,1.1,0.9,1.9,1.9,1.9C111.1,323.7,111.9,322.8,111.9,321.8"/>
	<path d="M19.7,207c0-1.1-0.9-1.9-1.9-1.9c-1.1,0-1.9,0.9-1.9,1.9c0,1.1,0.9,1.9,1.9,1.9C18.8,209,19.7,208.1,19.7,207"/>
	<path d="M77.3,49.2c0-1.1-0.9-1.9-1.9-1.9c-1.1,0-1.9,0.9-1.9,1.9c0,1.1,0.9,1.9,1.9,1.9C76.4,51.1,77.3,50.3,77.3,49.2"/>
	<path d="M19.2,145.3c0-1.1-0.9-1.9-1.9-1.9c-1.1,0-1.9,0.9-1.9,1.9c0,1.1,0.9,1.9,1.9,1.9C18.3,147.2,19.2,146.4,19.2,145.3"/>
	<path d="M101.2,33.5c0-1.1-0.9-1.9-1.9-1.9c-1.1,0-1.9,0.9-1.9,1.9c0,1.1,0.9,1.9,1.9,1.9C100.3,35.4,101.2,34.5,101.2,33.5"/>
	<path d="M37.1,96.1c0-1.1-0.9-1.9-1.9-1.9c-1.1,0-1.9,0.9-1.9,1.9c0,1.1,0.9,1.9,1.9,1.9C36.3,98.1,37.1,97.2,37.1,96.1"/>
	<path d="M150.8,16.6c0-1.1-0.9-1.9-1.9-1.9c-1.1,0-1.9,0.9-1.9,1.9c0,1.1,0.9,1.9,1.9,1.9C149.9,18.6,150.8,17.7,150.8,16.6"/>
	<path d="M20.7,211.7c0-1.1-0.9-1.9-1.9-1.9c-1.1,0-1.9,0.9-1.9,1.9c0,1.1,0.9,1.9,1.9,1.9C19.8,213.6,20.7,212.8,20.7,211.7"/>
	<path d="M295.8,282.9c0-1.1-0.9-1.9-1.9-1.9c-1.1,0-1.9,0.9-1.9,1.9c0,1.1,0.9,1.9,1.9,1.9C294.9,284.8,295.8,283.9,295.8,282.9"/>
	<path d="M116.3,323.6c0-1.1-0.9-1.9-1.9-1.9c-1.1,0-1.9,0.9-1.9,1.9c0,1.1,0.9,1.9,1.9,1.9C115.5,325.6,116.3,324.7,116.3,323.6"/>
	<path d="M299,279.3c0-1.1-0.9-1.9-1.9-1.9c-1.1,0-1.9,0.9-1.9,1.9c0,1.1,0.9,1.9,1.9,1.9C298.1,281.2,299,280.4,299,279.3"/>
	<path d="M46.1,268c0-1.1-0.9-1.9-1.9-1.9c-1.1,0-1.9,0.9-1.9,1.9c0,1.1,0.9,1.9,1.9,1.9C45.2,269.9,46.1,269.1,46.1,268"/>
	<path d="M48.9,271.8c0-1.1-0.9-1.9-1.9-1.9c-1.1,0-1.9,0.9-1.9,1.9c0,1.1,0.9,1.9,1.9,1.9C48.1,273.8,48.9,272.9,48.9,271.8"/>
	<path d="M18.4,150c0-1.1-0.9-1.9-1.9-1.9s-1.9,0.9-1.9,1.9c0,1.1,0.9,1.9,1.9,1.9S18.4,151.1,18.4,150"/>
	<path d="M17.7,154.7c0-1.1-0.9-1.9-1.9-1.9c-1.1,0-1.9,0.9-1.9,1.9c0,1.1,0.9,1.9,1.9,1.9C16.8,156.7,17.7,155.8,17.7,154.7"/>
	<path d="M302,275.6c0-1.1-0.9-1.9-1.9-1.9c-1.1,0-1.9,0.9-1.9,1.9c0,1.1,0.9,1.9,1.9,1.9C301.1,277.5,302,276.7,302,275.6"/>
	<path d="M120.8,325.4c0-1.1-0.9-1.9-1.9-1.9c-1.1,0-1.9,0.9-1.9,1.9c0,1.1,0.9,1.9,1.9,1.9C119.9,327.3,120.8,326.4,120.8,325.4"/>
	<path d="M125.3,327c0-1.1-0.9-1.9-1.9-1.9c-1.1,0-1.9,0.9-1.9,1.9c0,1.1,0.9,1.9,1.9,1.9C124.4,328.9,125.3,328,125.3,327"/>
	<path d="M304.9,271.8c0-1.1-0.9-1.9-1.9-1.9c-1.1,0-1.9,0.9-1.9,1.9c0,1.1,0.9,1.9,1.9,1.9C304.1,273.8,304.9,272.9,304.9,271.8"/>
	<path d="M307.8,268c0-1.1-0.9-1.9-1.9-1.9c-1.1,0-1.9,0.9-1.9,1.9c0,1.1,0.9,1.9,1.9,1.9C306.9,269.9,307.8,269.1,307.8,268"/>
	<path d="M34.9,100.3c0-1.1-0.9-1.9-1.9-1.9c-1.1,0-1.9,0.9-1.9,1.9c0,1.1,0.9,1.9,1.9,1.9C34,102.3,34.9,101.4,34.9,100.3"/>
	<path d="M118.6,25.5c0-1.1-0.9-1.9-1.9-1.9c-1.1,0-1.9,0.9-1.9,1.9c0,1.1,0.9,1.9,1.9,1.9C117.7,27.4,118.6,26.5,118.6,25.5"/>
	<path d="M32.7,104.6c0-1.1-0.9-1.9-1.9-1.9c-1.1,0-1.9,0.9-1.9,1.9c0,1.1,0.9,1.9,1.9,1.9C31.8,106.5,32.7,105.6,32.7,104.6"/>
	<path d="M51.9,275.6c0-1.1-0.9-1.9-1.9-1.9c-1.1,0-1.9,0.9-1.9,1.9c0,1.1,0.9,1.9,1.9,1.9C51,277.5,51.9,276.7,51.9,275.6"/>
	<path d="M30.7,108.9c0-1.1-0.9-1.9-1.9-1.9c-1.1,0-1.9,0.9-1.9,1.9c0,1.1,0.9,1.9,1.9,1.9C29.8,110.8,30.7,110,30.7,108.9"/>
	<path d="M310.5,264c0-1.1-0.9-1.9-1.9-1.9c-1.1,0-1.9,0.9-1.9,1.9c0,1.1,0.9,1.9,1.9,1.9C309.6,266,310.5,265.1,310.5,264"/>
	<path d="M56.5,68.9c0-1.1-0.9-1.9-1.9-1.9c-1.1,0-1.9,0.9-1.9,1.9c0,1.1,0.9,1.9,1.9,1.9C55.6,70.8,56.5,70,56.5,68.9"/>
	<path d="M28.8,113.3c0-1.1-0.9-1.9-1.9-1.9c-1.1,0-1.9,0.9-1.9,1.9c0,1.1,0.9,1.9,1.9,1.9C27.9,115.2,28.8,114.4,28.8,113.3"/>
	<path d="M17.2,159.5c0-1.1-0.9-1.9-1.9-1.9s-1.9,0.9-1.9,1.9c0,1.1,0.9,1.9,1.9,1.9S17.2,160.6,17.2,159.5"/>
	<path d="M21.8,216.3c0-1.1-0.9-1.9-1.9-1.9c-1.1,0-1.9,0.9-1.9,1.9c0,1.1,0.9,1.9,1.9,1.9C21,218.3,21.8,217.4,21.8,216.3"/>
	<path d="M313.1,260c0-1.1-0.9-1.9-1.9-1.9c-1.1,0-1.9,0.9-1.9,1.9c0,1.1,0.9,1.9,1.9,1.9C312.2,262,313.1,261.1,313.1,260"/>
	<path d="M23.1,220.9c0-1.1-0.9-1.9-1.9-1.9c-1.1,0-1.9,0.9-1.9,1.9c0,1.1,0.9,1.9,1.9,1.9C22.3,222.9,23.1,222,23.1,220.9"/>
	<path d="M315.5,255.9c0-1.1-0.9-1.9-1.9-1.9c-1.1,0-1.9,0.9-1.9,1.9c0,1.1,0.9,1.9,1.9,1.9C314.7,257.9,315.5,257,315.5,255.9"/>
	<path d="M129.8,328.4c0-1.1-0.9-1.9-1.9-1.9s-1.9,0.9-1.9,1.9c0,1.1,0.9,1.9,1.9,1.9S129.8,329.5,129.8,328.4"/>
	<path d="M317.9,251.8c0-1.1-0.9-1.9-1.9-1.9c-1.1,0-1.9,0.9-1.9,1.9c0,1.1,0.9,1.9,1.9,1.9C317,253.7,317.9,252.8,317.9,251.8"/>
	<path d="M53.4,72.5c0-1.1-0.9-1.9-1.9-1.9c-1.1,0-1.9,0.9-1.9,1.9c0,1.1,0.9,1.9,1.9,1.9C52.5,74.5,53.4,73.6,53.4,72.5"/>
	<path d="M320.1,247.5c0-1.1-0.9-1.9-1.9-1.9c-1.1,0-1.9,0.9-1.9,1.9c0,1.1,0.9,1.9,1.9,1.9C319.3,249.5,320.1,248.6,320.1,247.5"/>
	<path d="M134.4,329.8c0-1.1-0.9-1.9-1.9-1.9c-1.1,0-1.9,0.9-1.9,1.9c0,1.1,0.9,1.9,1.9,1.9C133.6,331.7,134.4,330.8,134.4,329.8"/>
	<path d="M322.2,243.2c0-1.1-0.9-1.9-1.9-1.9c-1.1,0-1.9,0.9-1.9,1.9c0,1.1,0.9,1.9,1.9,1.9C321.3,245.2,322.2,244.3,322.2,243.2"/>
	<path d="M139.1,331c0-1.1-0.9-1.9-1.9-1.9c-1.1,0-1.9,0.9-1.9,1.9c0,1.1,0.9,1.9,1.9,1.9C138.2,332.9,139.1,332,139.1,331"/>
	<path d="M324.2,238.9c0-1.1-0.9-1.9-1.9-1.9c-1.1,0-1.9,0.9-1.9,1.9s0.9,1.9,1.9,1.9C323.3,240.8,324.2,240,324.2,238.9"/>
	<path d="M54.9,279.3c0-1.1-0.9-1.9-1.9-1.9c-1.1,0-1.9,0.9-1.9,1.9c0,1.1,0.9,1.9,1.9,1.9C54.1,281.2,54.9,280.4,54.9,279.3"/>
	<path d="M326,234.5c0-1.1-0.9-1.9-1.9-1.9c-1.1,0-1.9,0.9-1.9,1.9c0,1.1,0.9,1.9,1.9,1.9C325.2,236.4,326,235.5,326,234.5"/>
	<path d="M16.8,164.2c0-1.1-0.9-1.9-1.9-1.9c-1.1,0-1.9,0.9-1.9,1.9c0,1.1,0.9,1.9,1.9,1.9C15.9,166.2,16.8,165.3,16.8,164.2"/>
	<path d="M327.7,230c0-1.1-0.9-1.9-1.9-1.9c-1.1,0-1.9,0.9-1.9,1.9c0,1.1,0.9,1.9,1.9,1.9C326.9,232,327.7,231.1,327.7,230"/>
	<path d="M143.7,332c0-1.1-0.9-1.9-1.9-1.9c-1.1,0-1.9,0.9-1.9,1.9c0,1.1,0.9,1.9,1.9,1.9C142.9,334,143.7,333.1,143.7,332"/>
	<path d="M148.4,332.9c0-1.1-0.9-1.9-1.9-1.9c-1.1,0-1.9,0.9-1.9,1.9c0,1.1,0.9,1.9,1.9,1.9C147.5,334.9,148.4,334,148.4,332.9"/>
	<path d="M329.3,225.5c0-1.1-0.9-1.9-1.9-1.9c-1.1,0-1.9,0.9-1.9,1.9c0,1.1,0.9,1.9,1.9,1.9C328.4,227.4,329.3,226.6,329.3,225.5"/>
	<path d="M24.6,225.5c0-1.1-0.9-1.9-1.9-1.9c-1.1,0-1.9,0.9-1.9,1.9c0,1.1,0.9,1.9,1.9,1.9C23.7,227.4,24.6,226.6,24.6,225.5"/>
	<path d="M330.7,220.9c0-1.1-0.9-1.9-1.9-1.9s-1.9,0.9-1.9,1.9c0,1.1,0.9,1.9,1.9,1.9S330.7,222,330.7,220.9"/>
	<path d="M332,216.3c0-1.1-0.9-1.9-1.9-1.9c-1.1,0-1.9,0.9-1.9,1.9c0,1.1,0.9,1.9,1.9,1.9C331.2,218.3,332,217.4,332,216.3"/>
	<path d="M333.2,211.7c0-1.1-0.9-1.9-1.9-1.9c-1.1,0-1.9,0.9-1.9,1.9c0,1.1,0.9,1.9,1.9,1.9C332.3,213.6,333.2,212.8,333.2,211.7"/>
	<path d="M58.1,282.9c0-1.1-0.9-1.9-1.9-1.9c-1.1,0-1.9,0.9-1.9,1.9c0,1.1,0.9,1.9,1.9,1.9C57.2,284.8,58.1,283.9,58.1,282.9"/>
	<path d="M153.1,333.7c0-1.1-0.9-1.9-1.9-1.9c-1.1,0-1.9,0.9-1.9,1.9c0,1.1,0.9,1.9,1.9,1.9C152.3,335.7,153.1,334.8,153.1,333.7"/>
	<path d="M334.2,207c0-1.1-0.9-1.9-1.9-1.9c-1.1,0-1.9,0.9-1.9,1.9c0,1.1,0.9,1.9,1.9,1.9C333.4,209,334.2,208.1,334.2,207"/>
	<path d="M61.3,286.4c0-1.1-0.9-1.9-1.9-1.9c-1.1,0-1.9,0.9-1.9,1.9c0,1.1,0.9,1.9,1.9,1.9C60.5,288.3,61.3,287.4,61.3,286.4"/>
	<path d="M335.1,202.3c0-1.1-0.9-1.9-1.9-1.9c-1.1,0-1.9,0.9-1.9,1.9c0,1.1,0.9,1.9,1.9,1.9C334.2,204.3,335.1,203.4,335.1,202.3"/>
	<path d="M157.9,334.4c0-1.1-0.9-1.9-1.9-1.9c-1.1,0-1.9,0.9-1.9,1.9c0,1.1,0.9,1.9,1.9,1.9C157,336.3,157.9,335.4,157.9,334.4"/>
	<path d="M335.8,197.6c0-1.1-0.9-1.9-1.9-1.9c-1.1,0-1.9,0.9-1.9,1.9c0,1.1,0.9,1.9,1.9,1.9C335,199.6,335.8,198.7,335.8,197.6"/>
	<path d="M336.5,192.9c0-1.1-0.9-1.9-1.9-1.9c-1.1,0-1.9,0.9-1.9,1.9c0,1.1,0.9,1.9,1.9,1.9C335.6,194.8,336.5,194,336.5,192.9"/>
	<path d="M336.9,188.1c0-1.1-0.9-1.9-1.9-1.9c-1.1,0-1.9,0.9-1.9,1.9c0,1.1,0.9,1.9,1.9,1.9C336,190.1,336.9,189.2,336.9,188.1"/>
	<path d="M64.7,289.8c0-1.1-0.9-1.9-1.9-1.9c-1.1,0-1.9,0.9-1.9,1.9c0,1.1,0.9,1.9,1.9,1.9C63.8,291.7,64.7,290.8,64.7,289.8"/>
	<path d="M337.2,183.4c0-1.1-0.9-1.9-1.9-1.9c-1.1,0-1.9,0.9-1.9,1.9c0,1.1,0.9,1.9,1.9,1.9C336.4,185.3,337.2,184.4,337.2,183.4"/>
	<path d="M337.4,178.6c0-1.1-0.9-1.9-1.9-1.9c-1.1,0-1.9,0.9-1.9,1.9c0,1.1,0.9,1.9,1.9,1.9C336.5,180.5,337.4,179.6,337.4,178.6"/>
	<path d="M337.4,173.8c0-1.1-0.9-1.9-1.9-1.9c-1.1,0-1.9,0.9-1.9,1.9c0,1.1,0.9,1.9,1.9,1.9C336.6,175.7,337.4,174.9,337.4,173.8"/>
	<path d="M337.3,169c0-1.1-0.9-1.9-1.9-1.9c-1.1,0-1.9,0.9-1.9,1.9c0,1.1,0.9,1.9,1.9,1.9C336.5,171,337.3,170.1,337.3,169"/>
	<path d="M337.1,164.2c0-1.1-0.9-1.9-1.9-1.9c-1.1,0-1.9,0.9-1.9,1.9c0,1.1,0.9,1.9,1.9,1.9C336.2,166.2,337.1,165.3,337.1,164.2"/>
	<path d="M336.7,159.5c0-1.1-0.9-1.9-1.9-1.9c-1.1,0-1.9,0.9-1.9,1.9c0,1.1,0.9,1.9,1.9,1.9C335.8,161.4,336.7,160.6,336.7,159.5"/>
	<path d="M336.2,154.7c0-1.1-0.9-1.9-1.9-1.9c-1.1,0-1.9,0.9-1.9,1.9c0,1.1,0.9,1.9,1.9,1.9C335.3,156.7,336.2,155.8,336.2,154.7"/>
	<path d="M162.6,334.9c0-1.1-0.9-1.9-1.9-1.9c-1.1,0-1.9,0.9-1.9,1.9c0,1.1,0.9,1.9,1.9,1.9C161.8,336.8,162.6,335.9,162.6,334.9"/>
	<path d="M335.5,150c0-1.1-0.9-1.9-1.9-1.9c-1.1,0-1.9,0.9-1.9,1.9c0,1.1,0.9,1.9,1.9,1.9C334.6,151.9,335.5,151.1,335.5,150"/>
	<path d="M167.4,335.2c0-1.1-0.9-1.9-1.9-1.9c-1.1,0-1.9,0.9-1.9,1.9c0,1.1,0.9,1.9,1.9,1.9C166.5,337.2,167.4,336.3,167.4,335.2"/>
	<path d="M334.7,145.3c0-1.1-0.9-1.9-1.9-1.9c-1.1,0-1.9,0.9-1.9,1.9c0,1.1,0.9,1.9,1.9,1.9C333.8,147.2,334.7,146.4,334.7,145.3"/>
	<path d="M333.7,140.6c0-1.1-0.9-1.9-1.9-1.9c-1.1,0-1.9,0.9-1.9,1.9c0,1.1,0.9,1.9,1.9,1.9C332.9,142.5,333.7,141.7,333.7,140.6"/>
	<path d="M332.6,136c0-1.1-0.9-1.9-1.9-1.9c-1.1,0-1.9,0.9-1.9,1.9c0,1.1,0.9,1.9,1.9,1.9C331.8,137.9,332.6,137,332.6,136"/>
	<path d="M172.2,335.4c0-1.1-0.9-1.9-1.9-1.9c-1.1,0-1.9,0.9-1.9,1.9c0,1.1,0.9,1.9,1.9,1.9C171.3,337.4,172.2,336.5,172.2,335.4"/>
	<path d="M331.4,131.3c0-1.1-0.9-1.9-1.9-1.9c-1.1,0-1.9,0.9-1.9,1.9c0,1.1,0.9,1.9,1.9,1.9C330.5,133.3,331.4,132.4,331.4,131.3"/>
	<path d="M176.9,335.5c0-1.1-0.9-1.9-1.9-1.9c-1.1,0-1.9,0.9-1.9,1.9c0,1.1,0.9,1.9,1.9,1.9C176.1,337.4,176.9,336.6,176.9,335.5"/>
	<path d="M330,126.8c0-1.1-0.9-1.9-1.9-1.9c-1.1,0-1.9,0.9-1.9,1.9c0,1.1,0.9,1.9,1.9,1.9C329.2,128.7,330,127.8,330,126.8"/>
	<path d="M328.5,122.2c0-1.1-0.9-1.9-1.9-1.9c-1.1,0-1.9,0.9-1.9,1.9c0,1.1,0.9,1.9,1.9,1.9C327.7,124.2,328.5,123.3,328.5,122.2"/>
	<path d="M181.7,335.4c0-1.1-0.9-1.9-1.9-1.9c-1.1,0-1.9,0.9-1.9,1.9c0,1.1,0.9,1.9,1.9,1.9C180.9,337.4,181.7,336.5,181.7,335.4"/>
	<path d="M186.5,335.2c0-1.1-0.9-1.9-1.9-1.9s-1.9,0.9-1.9,1.9c0,1.1,0.9,1.9,1.9,1.9S186.5,336.3,186.5,335.2"/>
	<path d="M191.3,334.9c0-1.1-0.9-1.9-1.9-1.9c-1.1,0-1.9,0.9-1.9,1.9c0,1.1,0.9,1.9,1.9,1.9C190.4,336.8,191.3,335.9,191.3,334.9"/>
	<path d="M68.2,293c0-1.1-0.9-1.9-1.9-1.9c-1.1,0-1.9,0.9-1.9,1.9c0,1.1,0.9,1.9,1.9,1.9C67.3,295,68.2,294.1,68.2,293"/>
	<path d="M326.9,117.7c0-1.1-0.9-1.9-1.9-1.9c-1.1,0-1.9,0.9-1.9,1.9c0,1.1,0.9,1.9,1.9,1.9C326,119.7,326.9,118.8,326.9,117.7"/>
	<path d="M325.1,113.3c0-1.1-0.9-1.9-1.9-1.9c-1.1,0-1.9,0.9-1.9,1.9c0,1.1,0.9,1.9,1.9,1.9C324.3,115.2,325.1,114.4,325.1,113.3"/>
	<path d="M323.2,108.9c0-1.1-0.9-1.9-1.9-1.9c-1.1,0-1.9,0.9-1.9,1.9c0,1.1,0.9,1.9,1.9,1.9C322.3,110.8,323.2,110,323.2,108.9"/>
	<path d="M196,334.4c0-1.1-0.9-1.9-1.9-1.9c-1.1,0-1.9,0.9-1.9,1.9c0,1.1,0.9,1.9,1.9,1.9C195.1,336.3,196,335.4,196,334.4"/>
	<path d="M321.2,104.6c0-1.1-0.9-1.9-1.9-1.9c-1.1,0-1.9,0.9-1.9,1.9c0,1.1,0.9,1.9,1.9,1.9C320.3,106.5,321.2,105.6,321.2,104.6"/>
	<path d="M319,100.3c0-1.1-0.9-1.9-1.9-1.9c-1.1,0-1.9,0.9-1.9,1.9c0,1.1,0.9,1.9,1.9,1.9C318.2,102.3,319,101.4,319,100.3"/>
	<path d="M316.7,96.1c0-1.1-0.9-1.9-1.9-1.9c-1.1,0-1.9,0.9-1.9,1.9c0,1.1,0.9,1.9,1.9,1.9C315.9,98.1,316.7,97.2,316.7,96.1"/>
	<path d="M200.8,333.7c0-1.1-0.9-1.9-1.9-1.9c-1.1,0-1.9,0.9-1.9,1.9c0,1.1,0.9,1.9,1.9,1.9C199.9,335.7,200.8,334.8,200.8,333.7"/>
	<path d="M314.3,92c0-1.1-0.9-1.9-1.9-1.9c-1.1,0-1.9,0.9-1.9,1.9c0,1.1,0.9,1.9,1.9,1.9C313.5,93.9,314.3,93.1,314.3,92"/>
	<path d="M311.8,87.9c0-1.1-0.9-1.9-1.9-1.9c-1.1,0-1.9,0.9-1.9,1.9c0,1.1,0.9,1.9,1.9,1.9C310.9,89.9,311.8,89,311.8,87.9"/>
	<path d="M50.4,76.3c0-1.1-0.9-1.9-1.9-1.9c-1.1,0-1.9,0.9-1.9,1.9c0,1.1,0.9,1.9,1.9,1.9C49.5,78.2,50.4,77.3,50.4,76.3"/>
	<path d="M309.1,84c0-1.1-0.9-1.9-1.9-1.9c-1.1,0-1.9,0.9-1.9,1.9c0,1.1,0.9,1.9,1.9,1.9C308.3,85.9,309.1,85,309.1,84"/>
	<path d="M306.4,80.1c0-1.1-0.9-1.9-1.9-1.9c-1.1,0-1.9,0.9-1.9,1.9c0,1.1,0.9,1.9,1.9,1.9C305.5,82,306.4,81.1,306.4,80.1"/>
	<path d="M303.5,76.3c0-1.1-0.9-1.9-1.9-1.9c-1.1,0-1.9,0.9-1.9,1.9c0,1.1,0.9,1.9,1.9,1.9C302.6,78.2,303.5,77.3,303.5,76.3"/>
	<path d="M300.5,72.5c0-1.1-0.9-1.9-1.9-1.9c-1.1,0-1.9,0.9-1.9,1.9c0,1.1,0.9,1.9,1.9,1.9C299.6,74.5,300.5,73.6,300.5,72.5"/>
	<path d="M297.4,68.9c0-1.1-0.9-1.9-1.9-1.9c-1.1,0-1.9,0.9-1.9,1.9c0,1.1,0.9,1.9,1.9,1.9C296.5,70.8,297.4,70,297.4,68.9"/>
	<path d="M294.2,65.4c0-1.1-0.9-1.9-1.9-1.9c-1.1,0-1.9,0.9-1.9,1.9c0,1.1,0.9,1.9,1.9,1.9C293.3,67.3,294.2,66.4,294.2,65.4"/>
	<path d="M205.5,332.9c0-1.1-0.9-1.9-1.9-1.9c-1.1,0-1.9,0.9-1.9,1.9c0,1.1,0.9,1.9,1.9,1.9C204.6,334.9,205.5,334,205.5,332.9"/>
	<path d="M290.9,61.9c0-1.1-0.9-1.9-1.9-1.9c-1.1,0-1.9,0.9-1.9,1.9c0,1.1,0.9,1.9,1.9,1.9C290,63.9,290.9,63,290.9,61.9"/>
	<path d="M71.7,296.2c0-1.1-0.9-1.9-1.9-1.9c-1.1,0-1.9,0.9-1.9,1.9c0,1.1,0.9,1.9,1.9,1.9C70.9,298.2,71.7,297.3,71.7,296.2"/>
	<path d="M287.4,58.6c0-1.1-0.9-1.9-1.9-1.9c-1.1,0-1.9,0.9-1.9,1.9c0,1.1,0.9,1.9,1.9,1.9C286.6,60.5,287.4,59.6,287.4,58.6"/>
	<path d="M283.9,55.3c0-1.1-0.9-1.9-1.9-1.9c-1.1,0-1.9,0.9-1.9,1.9c0,1.1,0.9,1.9,1.9,1.9C283.1,57.3,283.9,56.4,283.9,55.3"/>
	<path d="M280.3,52.2c0-1.1-0.9-1.9-1.9-1.9c-1.1,0-1.9,0.9-1.9,1.9c0,1.1,0.9,1.9,1.9,1.9C279.5,54.1,280.3,53.3,280.3,52.2"/>
	<path d="M276.6,49.2c0-1.1-0.9-1.9-1.9-1.9c-1.1,0-1.9,0.9-1.9,1.9c0,1.1,0.9,1.9,1.9,1.9C275.7,51.1,276.6,50.3,276.6,49.2"/>
	<path d="M272.8,46.3c0-1.1-0.9-1.9-1.9-1.9c-1.1,0-1.9,0.9-1.9,1.9c0,1.1,0.9,1.9,1.9,1.9C272,48.2,272.8,47.3,272.8,46.3"/>
	<path d="M269,43.5c0-1.1-0.9-1.9-1.9-1.9c-1.1,0-1.9,0.9-1.9,1.9c0,1.1,0.9,1.9,1.9,1.9C268.1,45.4,269,44.5,269,43.5"/>
	<path d="M265,40.8c0-1.1-0.9-1.9-1.9-1.9c-1.1,0-1.9,0.9-1.9,1.9s0.9,1.9,1.9,1.9C264.1,42.7,265,41.9,265,40.8"/>
	<path d="M75.4,299.3c0-1.1-0.9-1.9-1.9-1.9c-1.1,0-1.9,0.9-1.9,1.9c0,1.1,0.9,1.9,1.9,1.9C74.5,301.2,75.4,300.4,75.4,299.3"/>
	<path d="M210.2,332c0-1.1-0.9-1.9-1.9-1.9c-1.1,0-1.9,0.9-1.9,1.9c0,1.1,0.9,1.9,1.9,1.9C209.3,334,210.2,333.1,210.2,332"/>
	<path d="M261,38.2c0-1.1-0.9-1.9-1.9-1.9c-1.1,0-1.9,0.9-1.9,1.9c0,1.1,0.9,1.9,1.9,1.9C260.1,40.2,261,39.3,261,38.2"/>
	<path d="M214.8,331c0-1.1-0.9-1.9-1.9-1.9c-1.1,0-1.9,0.9-1.9,1.9c0,1.1,0.9,1.9,1.9,1.9C213.9,332.9,214.8,332,214.8,331"/>
	<path d="M256.9,35.8c0-1.1-0.9-1.9-1.9-1.9c-1.1,0-1.9,0.9-1.9,1.9c0,1.1,0.9,1.9,1.9,1.9C256,37.7,256.9,36.9,256.9,35.8"/>
	<path d="M252.7,33.5c0-1.1-0.9-1.9-1.9-1.9c-1.1,0-1.9,0.9-1.9,1.9c0,1.1,0.9,1.9,1.9,1.9C251.8,35.4,252.7,34.5,252.7,33.5"/>
	<path d="M248.4,31.3c0-1.1-0.9-1.9-1.9-1.9c-1.1,0-1.9,0.9-1.9,1.9c0,1.1,0.9,1.9,1.9,1.9C247.6,33.2,248.4,32.3,248.4,31.3"/>
	<path d="M244.1,29.2c0-1.1-0.9-1.9-1.9-1.9c-1.1,0-1.9,0.9-1.9,1.9c0,1.1,0.9,1.9,1.9,1.9C243.2,31.1,244.1,30.3,244.1,29.2"/>
	<path d="M239.7,27.3c0-1.1-0.9-1.9-1.9-1.9c-1.1,0-1.9,0.9-1.9,1.9c0,1.1,0.9,1.9,1.9,1.9C238.9,29.2,239.7,28.3,239.7,27.3"/>
	<path d="M235.3,25.5c0-1.1-0.9-1.9-1.9-1.9c-1.1,0-1.9,0.9-1.9,1.9c0,1.1,0.9,1.9,1.9,1.9C234.4,27.4,235.3,26.5,235.3,25.5"/>
	<path d="M230.8,23.8c0-1.1-0.9-1.9-1.9-1.9c-1.1,0-1.9,0.9-1.9,1.9c0,1.1,0.9,1.9,1.9,1.9C230,25.7,230.8,24.9,230.8,23.8"/>
	<path d="M226.3,22.3c0-1.1-0.9-1.9-1.9-1.9c-1.1,0-1.9,0.9-1.9,1.9c0,1.1,0.9,1.9,1.9,1.9C225.4,24.2,226.3,23.3,226.3,22.3"/>
	<path d="M221.7,20.9c0-1.1-0.9-1.9-1.9-1.9c-1.1,0-1.9,0.9-1.9,1.9c0,1.1,0.9,1.9,1.9,1.9C220.9,22.8,221.7,21.9,221.7,20.9"/>
	<path d="M217.1,19.6c0-1.1-0.9-1.9-1.9-1.9c-1.1,0-1.9,0.9-1.9,1.9c0,1.1,0.9,1.9,1.9,1.9C216.3,21.5,217.1,20.7,217.1,19.6"/>
	<path d="M212.5,18.5c0-1.1-0.9-1.9-1.9-1.9c-1.1,0-1.9,0.9-1.9,1.9c0,1.1,0.9,1.9,1.9,1.9C211.6,20.4,212.5,19.5,212.5,18.5"/>
	<path d="M207.8,17.5c0-1.1-0.9-1.9-1.9-1.9c-1.1,0-1.9,0.9-1.9,1.9c0,1.1,0.9,1.9,1.9,1.9C206.9,19.4,207.8,18.5,207.8,17.5"/>
	<path d="M203.1,16.6c0-1.1-0.9-1.9-1.9-1.9c-1.1,0-1.9,0.9-1.9,1.9c0,1.1,0.9,1.9,1.9,1.9C202.2,18.6,203.1,17.7,203.1,16.6"/>
	<path d="M198.4,15.9c0-1.1-0.9-1.9-1.9-1.9c-1.1,0-1.9,0.9-1.9,1.9c0,1.1,0.9,1.9,1.9,1.9C197.5,17.9,198.4,17,198.4,15.9"/>
	<path d="M193.6,15.3c0-1.1-0.9-1.9-1.9-1.9c-1.1,0-1.9,0.9-1.9,1.9c0,1.1,0.9,1.9,1.9,1.9C192.8,17.3,193.6,16.4,193.6,15.3"/>
	<path d="M188.9,14.9c0-1.1-0.9-1.9-1.9-1.9c-1.1,0-1.9,0.9-1.9,1.9c0,1.1,0.9,1.9,1.9,1.9C188,16.9,188.9,16,188.9,14.9"/>
	<path d="M184.1,14.6c0-1.1-0.9-1.9-1.9-1.9c-1.1,0-1.9,0.9-1.9,1.9c0,1.1,0.9,1.9,1.9,1.9C183.2,16.6,184.1,15.7,184.1,14.6"/>
	<path d="M179.3,14.5c0-1.1-0.9-1.9-1.9-1.9c-1.1,0-1.9,0.9-1.9,1.9c0,1.1,0.9,1.9,1.9,1.9C178.5,16.4,179.3,15.6,179.3,14.5"/>
</g>
</svg>
