<?xml version="1.0" encoding="utf-8"?>
<!-- Generator: Adobe Illustrator 21.1.0, SVG Export Plug-In . SVG Version: 6.00 Build 0)  -->
<svg version="1.1" id="Layer_1" xmlns="http://www.w3.org/2000/svg" xmlns:xlink="http://www.w3.org/1999/xlink" x="0px" y="0px"
	 viewBox="0 0 350 350" style="enable-background:new 0 0 350 350;" xml:space="preserve">
<style type="text/css">
	.st0{fill:none;stroke:#231F20;stroke-width:0.75;stroke-linecap:square;stroke-miterlimit:10;}
</style>
<g>
	<line class="st0" x1="287.6" y1="221.3" x2="289.7" y2="228.8"/>
	<line class="st0" x1="84.8" y1="185.9" x2="80.7" y2="188.4"/>
	<line class="st0" x1="233.5" y1="41.6" x2="233.5" y2="50.5"/>
	<line class="st0" x1="182.3" y1="158.3" x2="197" y2="148.8"/>
	<line class="st0" x1="261" y1="115.2" x2="265.4" y2="120.4"/>
	<line class="st0" x1="95" y1="287.7" x2="97.4" y2="290.9"/>
	<line class="st0" x1="104.8" y1="228.2" x2="98.5" y2="232.7"/>
	<line class="st0" x1="145.4" y1="140.2" x2="142.3" y2="141.8"/>
	<line class="st0" x1="174" y1="177.9" x2="181.9" y2="185.5"/>
	<line class="st0" x1="156.7" y1="102.3" x2="154" y2="93.1"/>
	<line class="st0" x1="270.5" y1="214.7" x2="283.6" y2="214.8"/>
	<line class="st0" x1="231.7" y1="112.9" x2="226.7" y2="111.7"/>
	<line class="st0" x1="146.1" y1="199.1" x2="152.3" y2="189.2"/>
	<line class="st0" x1="163.5" y1="167.6" x2="171.6" y2="155.2"/>
	<line class="st0" x1="146.8" y1="276.5" x2="148" y2="281.1"/>
	<line class="st0" x1="225.3" y1="43.4" x2="224.3" y2="48.3"/>
	<line class="st0" x1="164" y1="140.9" x2="166.5" y2="126.8"/>
	<line class="st0" x1="261" y1="115.2" x2="247.9" y2="115.3"/>
	<line class="st0" x1="284.3" y1="69.4" x2="284.7" y2="72.6"/>
	<line class="st0" x1="149" y1="238.6" x2="139.8" y2="234.2"/>
	<line class="st0" x1="320.5" y1="234.2" x2="314.9" y2="236.8"/>
	<line class="st0" x1="233.5" y1="50.5" x2="236.7" y2="43.5"/>
	<line class="st0" x1="92" y1="289" x2="94.2" y2="290.5"/>
	<line class="st0" x1="142.7" y1="156.1" x2="131.5" y2="152.1"/>
	<line class="st0" x1="123.4" y1="278.2" x2="119" y2="279.2"/>
	<line class="st0" x1="124.5" y1="304.5" x2="127.8" y2="298.3"/>
	<line class="st0" x1="103.2" y1="245.8" x2="96.7" y2="238.1"/>
	<line class="st0" x1="254.7" y1="203.3" x2="243.3" y2="206.1"/>
	<line class="st0" x1="231.9" y1="192.1" x2="240.7" y2="192.1"/>
	<line class="st0" x1="216.2" y1="212.9" x2="207.4" y2="204.1"/>
	<line class="st0" x1="252.2" y1="79.4" x2="257.8" y2="79.5"/>
	<line class="st0" x1="173" y1="196" x2="175.7" y2="195.4"/>
	<line class="st0" x1="104.8" y1="228.2" x2="121.3" y2="219.8"/>
	<line class="st0" x1="52.9" y1="197.1" x2="47.5" y2="189.2"/>
	<line class="st0" x1="163.5" y1="167.6" x2="166.1" y2="157.7"/>
	<line class="st0" x1="82.9" y1="220" x2="64.3" y2="208.9"/>
	<line class="st0" x1="156.3" y1="91.3" x2="154" y2="93.1"/>
	<line class="st0" x1="108.7" y1="268.9" x2="121.7" y2="265.5"/>
	<line class="st0" x1="21.4" y1="189.2" x2="15.8" y2="181.8"/>
	<line class="st0" x1="102" y1="242.2" x2="107.4" y2="240.4"/>
	<line class="st0" x1="235.1" y1="123.7" x2="229" y2="126.3"/>
	<line class="st0" x1="186.9" y1="181.8" x2="198.4" y2="187.7"/>
	<line class="st0" x1="154" y1="93.1" x2="151.8" y2="88.7"/>
	<line class="st0" x1="119.9" y1="144.1" x2="129.2" y2="146.8"/>
	<line class="st0" x1="83.5" y1="224.7" x2="82.1" y2="228.1"/>
	<line class="st0" x1="46.6" y1="203.6" x2="38.1" y2="200.6"/>
	<line class="st0" x1="137.2" y1="273.5" x2="148" y2="281.1"/>
	<line class="st0" x1="163.5" y1="167.6" x2="186.9" y2="181.8"/>
	<line class="st0" x1="254.2" y1="103.3" x2="254.6" y2="87.8"/>
	<line class="st0" x1="88.4" y1="195.1" x2="91.8" y2="201.2"/>
	<line class="st0" x1="229.5" y1="46.1" x2="224.3" y2="48.3"/>
	<line class="st0" x1="80.7" y1="188.4" x2="88.4" y2="195.1"/>
	<line class="st0" x1="149.1" y1="160.5" x2="138.4" y2="157.4"/>
	<line class="st0" x1="170.9" y1="184.8" x2="168.1" y2="180.1"/>
	<line class="st0" x1="283.2" y1="130.9" x2="290.5" y2="136.1"/>
	<line class="st0" x1="238.1" y1="117.6" x2="235.1" y2="123.7"/>
	<line class="st0" x1="163.5" y1="167.6" x2="170.3" y2="173.9"/>
	<line class="st0" x1="126.5" y1="222.6" x2="133.7" y2="229.4"/>
	<line class="st0" x1="90.7" y1="286.1" x2="95" y2="287.7"/>
	<line class="st0" x1="191.8" y1="152.4" x2="192.6" y2="156.2"/>
	<line class="st0" x1="99" y1="280.9" x2="101.5" y2="274.9"/>
	<line class="st0" x1="145.4" y1="174.1" x2="135.1" y2="176.2"/>
	<line class="st0" x1="124.5" y1="304.5" x2="121.3" y2="313.5"/>
	<line class="st0" x1="243.3" y1="206.1" x2="246.3" y2="213.8"/>
	<line class="st0" x1="117.4" y1="229" x2="121.1" y2="237"/>
	<line class="st0" x1="238.1" y1="117.6" x2="231.7" y2="112.9"/>
	<line class="st0" x1="146.9" y1="240.5" x2="149.5" y2="242.6"/>
	<line class="st0" x1="21.4" y1="189.2" x2="15.1" y2="186.2"/>
	<line class="st0" x1="255.4" y1="111.4" x2="247.9" y2="115.3"/>
	<line class="st0" x1="164" y1="140.9" x2="167.4" y2="130.2"/>
	<line class="st0" x1="253.3" y1="73.3" x2="265.5" y2="72.5"/>
	<line class="st0" x1="163.5" y1="167.6" x2="155.8" y2="175.5"/>
	<line class="st0" x1="133.1" y1="149.2" x2="128.3" y2="148.2"/>
	<line class="st0" x1="93.7" y1="199" x2="96.1" y2="209.7"/>
	<line class="st0" x1="218" y1="196" x2="225.1" y2="199.4"/>
	<line class="st0" x1="272.4" y1="124.1" x2="278.7" y2="128.3"/>
	<line class="st0" x1="131.5" y1="302.8" x2="125.1" y2="299.4"/>
	<line class="st0" x1="231.9" y1="192.1" x2="220.8" y2="191.8"/>
	<line class="st0" x1="117.4" y1="272.1" x2="118.4" y2="283"/>
	<line class="st0" x1="128.3" y1="148.2" x2="122.6" y2="140.1"/>
	<line class="st0" x1="313.4" y1="231.7" x2="312" y2="240.1"/>
	<line class="st0" x1="233.5" y1="41.6" x2="230.2" y2="42"/>
	<line class="st0" x1="163.5" y1="167.6" x2="162.2" y2="157.3"/>
	<line class="st0" x1="89.8" y1="211.2" x2="86.3" y2="214.2"/>
	<line class="st0" x1="254.6" y1="87.8" x2="257.8" y2="79.5"/>
	<line class="st0" x1="163.5" y1="167.6" x2="152.3" y2="189.2"/>
	<line class="st0" x1="197" y1="148.8" x2="210.8" y2="139.8"/>
	<line class="st0" x1="163.5" y1="167.6" x2="164.6" y2="179.8"/>
	<line class="st0" x1="163.5" y1="167.6" x2="168.2" y2="161.3"/>
	<line class="st0" x1="216.2" y1="212.9" x2="222.5" y2="220.8"/>
	<line class="st0" x1="64.3" y1="208.9" x2="52.9" y2="197.1"/>
	<line class="st0" x1="233.5" y1="50.5" x2="226.5" y2="50.1"/>
	<line class="st0" x1="93.7" y1="219.5" x2="82.9" y2="220"/>
	<line class="st0" x1="157.8" y1="93.5" x2="151.4" y2="93.7"/>
	<line class="st0" x1="251.3" y1="94.6" x2="254.8" y2="93.8"/>
	<line class="st0" x1="150.7" y1="151.8" x2="141.6" y2="144.4"/>
	<line class="st0" x1="32.9" y1="197.7" x2="34.9" y2="204.9"/>
	<line class="st0" x1="163.5" y1="167.6" x2="175" y2="165.8"/>
	<line class="st0" x1="82.9" y1="220" x2="91.1" y2="227.6"/>
	<line class="st0" x1="314.3" y1="245.1" x2="317.3" y2="249"/>
	<line class="st0" x1="99" y1="280.9" x2="105.6" y2="278"/>
	<line class="st0" x1="251.3" y1="94.6" x2="257.4" y2="95.5"/>
	<line class="st0" x1="283.6" y1="214.8" x2="287.6" y2="221.3"/>
	<line class="st0" x1="143.6" y1="281.1" x2="145.1" y2="278.6"/>
	<line class="st0" x1="169.6" y1="131.1" x2="167.4" y2="130.2"/>
	<line class="st0" x1="149" y1="238.6" x2="145.1" y2="242.7"/>
	<line class="st0" x1="52.9" y1="197.1" x2="44.9" y2="191.4"/>
	<line class="st0" x1="271.8" y1="116.1" x2="272.4" y2="124.1"/>
	<line class="st0" x1="163.5" y1="167.6" x2="155.7" y2="171.1"/>
	<line class="st0" x1="52.9" y1="197.1" x2="51.8" y2="188.2"/>
	<line class="st0" x1="243.3" y1="206.1" x2="251.6" y2="208.5"/>
	<line class="st0" x1="68.7" y1="222.2" x2="73.1" y2="218.9"/>
	<line class="st0" x1="170.9" y1="184.8" x2="173" y2="196"/>
	<line class="st0" x1="117.4" y1="229" x2="121.3" y2="219.8"/>
	<line class="st0" x1="132.5" y1="311.7" x2="135.8" y2="312.5"/>
	<line class="st0" x1="124.5" y1="304.5" x2="123.2" y2="290"/>
	<line class="st0" x1="121.1" y1="237" x2="118.6" y2="236.3"/>
	<line class="st0" x1="94.8" y1="244.7" x2="92.6" y2="249.8"/>
	<line class="st0" x1="92" y1="289" x2="99" y2="280.9"/>
	<line class="st0" x1="110.8" y1="252" x2="108.7" y2="268.9"/>
	<line class="st0" x1="83.5" y1="224.7" x2="80.7" y2="226.2"/>
	<line class="st0" x1="129.2" y1="146.8" x2="120.8" y2="141.8"/>
	<line class="st0" x1="103.2" y1="245.8" x2="113.7" y2="240"/>
	<line class="st0" x1="104.8" y1="228.2" x2="107.4" y2="240.4"/>
	<line class="st0" x1="223.7" y1="130.4" x2="231.3" y2="128.4"/>
	<line class="st0" x1="126.5" y1="222.6" x2="134.2" y2="215.7"/>
	<line class="st0" x1="283.6" y1="214.8" x2="290.4" y2="213.6"/>
	<line class="st0" x1="13.5" y1="184.1" x2="18.4" y2="181.8"/>
	<line class="st0" x1="309.9" y1="221.8" x2="303.7" y2="216.3"/>
	<line class="st0" x1="163.5" y1="167.6" x2="158.7" y2="150.7"/>
	<line class="st0" x1="91.1" y1="227.6" x2="104.8" y2="228.2"/>
	<line class="st0" x1="265" y1="219.2" x2="270.5" y2="214.7"/>
	<line class="st0" x1="217.2" y1="198.3" x2="225.1" y2="199.4"/>
	<line class="st0" x1="272.4" y1="124.1" x2="272.6" y2="131.3"/>
	<line class="st0" x1="254.8" y1="93.8" x2="254.6" y2="87.8"/>
	<line class="st0" x1="88.4" y1="195.1" x2="89.2" y2="201.6"/>
	<line class="st0" x1="177.7" y1="172.1" x2="175.6" y2="168.6"/>
	<line class="st0" x1="198.9" y1="192.8" x2="186.9" y2="181.8"/>
	<line class="st0" x1="37.6" y1="203.5" x2="38.1" y2="200.6"/>
	<line class="st0" x1="104.8" y1="228.2" x2="101.6" y2="234"/>
	<line class="st0" x1="144.8" y1="142.4" x2="141.6" y2="144.4"/>
	<line class="st0" x1="163.5" y1="167.6" x2="174" y2="177.9"/>
	<line class="st0" x1="94.2" y1="290.5" x2="97.4" y2="290.9"/>
	<line class="st0" x1="68.7" y1="222.2" x2="58.7" y2="222.5"/>
	<line class="st0" x1="108.7" y1="268.9" x2="105.6" y2="278"/>
	<line class="st0" x1="233.5" y1="41.6" x2="234.1" y2="45.3"/>
	<line class="st0" x1="150.7" y1="151.8" x2="144.8" y2="142.4"/>
	<line class="st0" x1="313.4" y1="231.7" x2="310.6" y2="235.6"/>
	<line class="st0" x1="84.8" y1="185.9" x2="82.1" y2="186.4"/>
	<line class="st0" x1="164" y1="140.9" x2="162.7" y2="128.2"/>
	<line class="st0" x1="146.9" y1="240.5" x2="139.8" y2="234.2"/>
	<line class="st0" x1="281.4" y1="67.8" x2="284.7" y2="72.6"/>
	<line class="st0" x1="163.5" y1="167.6" x2="142.7" y2="156.1"/>
	<line class="st0" x1="163.5" y1="167.6" x2="173.1" y2="161"/>
	<line class="st0" x1="131.5" y1="302.8" x2="137.6" y2="309.2"/>
	<line class="st0" x1="320.5" y1="234.2" x2="316.1" y2="240"/>
	<line class="st0" x1="142.7" y1="156.1" x2="128.3" y2="148.2"/>
	<line class="st0" x1="220.8" y1="191.8" x2="207.8" y2="192.3"/>
	<line class="st0" x1="140.7" y1="207.1" x2="148.4" y2="200.6"/>
	<line class="st0" x1="231.7" y1="112.9" x2="228.9" y2="105.6"/>
	<line class="st0" x1="163.5" y1="167.6" x2="159.3" y2="159.5"/>
	<line class="st0" x1="244.2" y1="60.9" x2="233.5" y2="50.5"/>
	<line class="st0" x1="229.4" y1="120.9" x2="228.1" y2="114.8"/>
	<line class="st0" x1="255.4" y1="111.4" x2="254.2" y2="103.3"/>
	<line class="st0" x1="198.9" y1="192.8" x2="207.4" y2="204.1"/>
	<line class="st0" x1="166.5" y1="126.8" x2="163.4" y2="131.3"/>
	<line class="st0" x1="140.7" y1="207.1" x2="146.3" y2="214.2"/>
	<line class="st0" x1="229.5" y1="46.1" x2="234.1" y2="45.3"/>
	<line class="st0" x1="163.5" y1="167.6" x2="173.3" y2="171.2"/>
	<line class="st0" x1="229.4" y1="120.9" x2="223.7" y2="130.4"/>
	<line class="st0" x1="151.8" y1="88.7" x2="150.3" y2="78.9"/>
	<line class="st0" x1="156.3" y1="91.3" x2="151.4" y2="93.7"/>
	<line class="st0" x1="91.1" y1="227.6" x2="82.1" y2="228.1"/>
	<line class="st0" x1="314.3" y1="245.1" x2="310.6" y2="248.8"/>
	<line class="st0" x1="320.2" y1="246.9" x2="317.3" y2="249"/>
	<line class="st0" x1="32.9" y1="197.7" x2="46.6" y2="203.6"/>
	<line class="st0" x1="163.5" y1="167.6" x2="173.3" y2="173.4"/>
	<line class="st0" x1="233.5" y1="41.6" x2="236.7" y2="43.5"/>
	<line class="st0" x1="96.3" y1="247.3" x2="92.6" y2="249.8"/>
	<line class="st0" x1="137.2" y1="273.5" x2="130.4" y2="270.4"/>
	<line class="st0" x1="117.4" y1="272.1" x2="119" y2="279.2"/>
	<line class="st0" x1="131.5" y1="302.8" x2="127.8" y2="298.3"/>
	<line class="st0" x1="104.8" y1="228.2" x2="126.5" y2="222.6"/>
	<line class="st0" x1="173" y1="196" x2="177.8" y2="193.9"/>
	<line class="st0" x1="253.3" y1="73.3" x2="254.6" y2="87.8"/>
	<line class="st0" x1="90.7" y1="286.1" x2="94.2" y2="290.5"/>
	<line class="st0" x1="103.5" y1="276.8" x2="101.5" y2="274.9"/>
	<line class="st0" x1="135.5" y1="179.1" x2="145.4" y2="174.1"/>
	<line class="st0" x1="163.5" y1="167.6" x2="168.1" y2="180.1"/>
	<line class="st0" x1="117.4" y1="229" x2="115.9" y2="224.3"/>
	<line class="st0" x1="73.1" y1="222.5" x2="73.1" y2="218.9"/>
	<line class="st0" x1="251.6" y1="208.5" x2="250.8" y2="211.9"/>
	<line class="st0" x1="117.4" y1="229" x2="113.7" y2="240"/>
	<line class="st0" x1="92.6" y1="249.8" x2="86.6" y2="257.8"/>
	<line class="st0" x1="155.1" y1="139.8" x2="157.9" y2="140.4"/>
	<line class="st0" x1="137.2" y1="273.5" x2="143.6" y2="281.1"/>
	<line class="st0" x1="229.5" y1="46.1" x2="226.5" y2="50.1"/>
	<line class="st0" x1="177.8" y1="146.2" x2="171.6" y2="155.2"/>
	<line class="st0" x1="251.3" y1="94.6" x2="254.2" y2="103.3"/>
	<line class="st0" x1="93.7" y1="219.5" x2="104.8" y2="228.2"/>
	<line class="st0" x1="151.4" y1="93.7" x2="151.8" y2="88.7"/>
	<line class="st0" x1="139.8" y1="234.2" x2="133.7" y2="229.4"/>
	<line class="st0" x1="247.9" y1="115.3" x2="235.1" y2="123.7"/>
	<line class="st0" x1="113.7" y1="240" x2="113.6" y2="246.3"/>
	<line class="st0" x1="119.9" y1="144.1" x2="122.6" y2="140.1"/>
	<line class="st0" x1="314.9" y1="236.8" x2="316.1" y2="240"/>
	<line class="st0" x1="117.4" y1="272.1" x2="121.6" y2="282.4"/>
	<line class="st0" x1="182.3" y1="158.3" x2="191.8" y2="152.4"/>
	<line class="st0" x1="96.1" y1="209.7" x2="91.8" y2="201.2"/>
	<line class="st0" x1="131.5" y1="152.1" x2="133.1" y2="149.2"/>
	<line class="st0" x1="126.5" y1="314.2" x2="121.3" y2="313.5"/>
	<line class="st0" x1="163.5" y1="167.6" x2="155.7" y2="160.7"/>
	<line class="st0" x1="225.1" y1="199.4" x2="243.3" y2="206.1"/>
	<line class="st0" x1="15.1" y1="186.2" x2="18.4" y2="181.8"/>
	<line class="st0" x1="255.4" y1="111.4" x2="252.4" y2="111.8"/>
	<line class="st0" x1="140.7" y1="207.1" x2="146.1" y2="199.1"/>
	<line class="st0" x1="329.3" y1="229.6" x2="336.8" y2="226.9"/>
	<line class="st0" x1="93.7" y1="219.5" x2="93.8" y2="223.3"/>
	<line class="st0" x1="163.5" y1="167.6" x2="171.2" y2="163.9"/>
	<line class="st0" x1="144.8" y1="142.4" x2="142.3" y2="141.8"/>
	<line class="st0" x1="96.7" y1="238.1" x2="98.5" y2="232.7"/>
	<line class="st0" x1="157.8" y1="93.5" x2="154" y2="93.1"/>
	<line class="st0" x1="314.3" y1="245.1" x2="314.9" y2="236.8"/>
	<line class="st0" x1="283.2" y1="130.9" x2="291.9" y2="129.3"/>
	<line class="st0" x1="261" y1="115.2" x2="268.7" y2="118.8"/>
	<line class="st0" x1="191.8" y1="152.4" x2="197" y2="148.8"/>
	<line class="st0" x1="233.5" y1="50.5" x2="230.2" y2="42"/>
	<line class="st0" x1="96.7" y1="238.1" x2="91.1" y2="227.6"/>
	<line class="st0" x1="93.7" y1="219.5" x2="86.3" y2="214.2"/>
	<line class="st0" x1="207.8" y1="192.3" x2="217.2" y2="198.3"/>
	<line class="st0" x1="272.6" y1="131.3" x2="277.6" y2="131.4"/>
	<line class="st0" x1="158.7" y1="150.7" x2="152.8" y2="141.3"/>
	<line class="st0" x1="162.7" y1="128.2" x2="160" y2="128.9"/>
	<line class="st0" x1="254.6" y1="87.8" x2="255.3" y2="78.7"/>
	<line class="st0" x1="163.5" y1="167.6" x2="172.1" y2="167.7"/>
	<line class="st0" x1="96.3" y1="247.3" x2="96.7" y2="238.1"/>
	<line class="st0" x1="156.7" y1="102.3" x2="160.6" y2="121.2"/>
	<line class="st0" x1="223.7" y1="130.4" x2="210.8" y2="139.8"/>
	<line class="st0" x1="124.5" y1="304.5" x2="125.1" y2="299.4"/>
	<line class="st0" x1="73.1" y1="218.9" x2="82.9" y2="220"/>
	<line class="st0" x1="126.5" y1="222.6" x2="121.3" y2="219.8"/>
	<line class="st0" x1="170.9" y1="184.8" x2="175.7" y2="195.4"/>
	<line class="st0" x1="252.2" y1="79.4" x2="255.3" y2="78.7"/>
	<line class="st0" x1="268.7" y1="118.8" x2="272.4" y2="124.1"/>
	<line class="st0" x1="95" y1="287.7" x2="94.2" y2="290.5"/>
	<line class="st0" x1="142.7" y1="156.1" x2="129.2" y2="146.8"/>
	<line class="st0" x1="229.5" y1="46.1" x2="236.7" y2="43.5"/>
	<line class="st0" x1="149" y1="238.6" x2="149.5" y2="242.6"/>
	<line class="st0" x1="182.3" y1="158.3" x2="163.5" y2="167.6"/>
	<line class="st0" x1="225.3" y1="43.4" x2="233.5" y2="50.5"/>
	<line class="st0" x1="166.5" y1="126.8" x2="169.6" y2="131.1"/>
	<line class="st0" x1="261" y1="115.2" x2="252.4" y2="111.8"/>
	<line class="st0" x1="284.3" y1="69.4" x2="281.4" y2="67.8"/>
	<line class="st0" x1="149.6" y1="168.3" x2="163.5" y2="167.6"/>
	<line class="st0" x1="138.8" y1="168.9" x2="149.6" y2="168.3"/>
	<line class="st0" x1="270.5" y1="214.7" x2="257.3" y2="212.2"/>
	<line class="st0" x1="91.1" y1="227.6" x2="96.2" y2="230.6"/>
	<line class="st0" x1="148" y1="281.1" x2="145.1" y2="278.6"/>
	<line class="st0" x1="216.4" y1="202.1" x2="217.2" y2="198.3"/>
	<line class="st0" x1="163.5" y1="167.6" x2="168.6" y2="170.4"/>
	<line class="st0" x1="283.2" y1="130.9" x2="272.6" y2="131.3"/>
	<line class="st0" x1="254.6" y1="87.8" x2="257.4" y2="95.5"/>
	<line class="st0" x1="93.7" y1="199" x2="91.8" y2="201.2"/>
	<line class="st0" x1="264.7" y1="201" x2="254.7" y2="203.3"/>
	<line class="st0" x1="13.2" y1="191.7" x2="21.4" y2="189.2"/>
	<line class="st0" x1="207.8" y1="192.3" x2="198.4" y2="187.7"/>
	<line class="st0" x1="82.9" y1="220" x2="83.5" y2="224.7"/>
	<line class="st0" x1="119.9" y1="144.1" x2="128.3" y2="148.2"/>
	<line class="st0" x1="113.7" y1="240" x2="110.2" y2="247.6"/>
	<line class="st0" x1="34.9" y1="204.9" x2="38.1" y2="200.6"/>
	<line class="st0" x1="117.4" y1="272.1" x2="121.7" y2="265.5"/>
	<line class="st0" x1="156.3" y1="91.3" x2="156.7" y2="102.3"/>
	<line class="st0" x1="82.9" y1="220" x2="72.4" y2="213.7"/>
	<line class="st0" x1="312" y1="240.1" x2="305.8" y2="244.8"/>
	<line class="st0" x1="229.4" y1="120.9" x2="229" y2="126.3"/>
	<line class="st0" x1="110.8" y1="252" x2="102" y2="242.2"/>
	<line class="st0" x1="21.4" y1="189.2" x2="13.5" y2="184.1"/>
	<line class="st0" x1="244.2" y1="60.9" x2="248" y2="54"/>
	<line class="st0" x1="49.3" y1="187" x2="47.5" y2="189.2"/>
	<line class="st0" x1="167.4" y1="130.2" x2="163.4" y2="131.3"/>
	<line class="st0" x1="294.9" y1="213.6" x2="302.1" y2="209.1"/>
	<line class="st0" x1="140.7" y1="207.1" x2="152.3" y2="189.2"/>
	<line class="st0" x1="124.5" y1="304.5" x2="126.5" y2="314.2"/>
	<line class="st0" x1="251.3" y1="94.6" x2="246.3" y2="88.3"/>
	<line class="st0" x1="238.1" y1="117.6" x2="229.4" y2="120.9"/>
	<line class="st0" x1="144.8" y1="142.4" x2="145.4" y2="140.2"/>
	<line class="st0" x1="108.7" y1="268.9" x2="101.5" y2="274.9"/>
	<line class="st0" x1="163.5" y1="167.6" x2="164" y2="140.9"/>
	<line class="st0" x1="316.1" y1="240" x2="310.6" y2="235.6"/>
	<line class="st0" x1="283.2" y1="130.9" x2="294.2" y2="133.8"/>
	<line class="st0" x1="145.4" y1="174.1" x2="138.6" y2="181.2"/>
	<line class="st0" x1="88.4" y1="195.1" x2="82.1" y2="186.4"/>
	<line class="st0" x1="140" y1="154.2" x2="138.4" y2="157.4"/>
	<line class="st0" x1="135.5" y1="179.1" x2="135.1" y2="176.2"/>
	<line class="st0" x1="158.3" y1="155.1" x2="158.7" y2="150.7"/>
	<line class="st0" x1="216.4" y1="202.1" x2="216.2" y2="212.9"/>
	<line class="st0" x1="229.4" y1="120.9" x2="235.1" y2="123.7"/>
	<line class="st0" x1="229.5" y1="46.1" x2="230.2" y2="42"/>
	<line class="st0" x1="37.6" y1="203.5" x2="34.9" y2="204.9"/>
	<line class="st0" x1="82.9" y1="220" x2="80.7" y2="226.2"/>
	<line class="st0" x1="312" y1="240.1" x2="310.6" y2="248.8"/>
	<line class="st0" x1="163.5" y1="167.6" x2="174.5" y2="163.2"/>
	<line class="st0" x1="314.3" y1="245.1" x2="316.1" y2="240"/>
	<line class="st0" x1="150.3" y1="78.9" x2="146.6" y2="80"/>
	<line class="st0" x1="154" y1="93.1" x2="151.4" y2="93.7"/>
	<line class="st0" x1="150.7" y1="151.8" x2="145.4" y2="140.2"/>
	<line class="st0" x1="254.8" y1="93.8" x2="257.4" y2="95.5"/>
	<line class="st0" x1="225.3" y1="43.4" x2="226.5" y2="50.1"/>
	<line class="st0" x1="82.9" y1="220" x2="104.8" y2="228.2"/>
	<line class="st0" x1="64.3" y1="208.9" x2="46.6" y2="203.6"/>
	<line class="st0" x1="44.9" y1="191.4" x2="44.7" y2="194.6"/>
	<line class="st0" x1="164.6" y1="179.8" x2="163.6" y2="177.7"/>
	<line class="st0" x1="146.8" y1="276.5" x2="145.1" y2="278.6"/>
	<line class="st0" x1="164" y1="140.9" x2="169.6" y2="131.1"/>
	<line class="st0" x1="145.1" y1="242.7" x2="149.5" y2="242.6"/>
	<line class="st0" x1="163.5" y1="167.6" x2="163.8" y2="159.7"/>
	<line class="st0" x1="137.6" y1="309.2" x2="140.3" y2="308.7"/>
	<line class="st0" x1="163.5" y1="167.6" x2="158.5" y2="173.7"/>
	<line class="st0" x1="247.9" y1="115.3" x2="254.2" y2="103.3"/>
	<line class="st0" x1="229.4" y1="120.9" x2="226.7" y2="111.7"/>
	<line class="st0" x1="15.1" y1="186.2" x2="15.8" y2="181.8"/>
	<line class="st0" x1="264.7" y1="201" x2="272.8" y2="199.7"/>
	<line class="st0" x1="313.4" y1="231.7" x2="314.9" y2="236.8"/>
	<line class="st0" x1="118.4" y1="283" x2="121.6" y2="282.4"/>
	<line class="st0" x1="96.3" y1="247.3" x2="103.2" y2="245.8"/>
	<line class="st0" x1="216.4" y1="202.1" x2="218" y2="196"/>
	<line class="st0" x1="123.2" y1="290" x2="125.1" y2="299.4"/>
	<line class="st0" x1="283.2" y1="130.9" x2="278.7" y2="128.3"/>
	<line class="st0" x1="131.5" y1="152.1" x2="128.3" y2="148.2"/>
	<line class="st0" x1="163.5" y1="167.6" x2="160.9" y2="179.7"/>
	<line class="st0" x1="253.3" y1="73.3" x2="257.8" y2="79.5"/>
	<line class="st0" x1="231.3" y1="128.4" x2="235.1" y2="123.7"/>
	<line class="st0" x1="140.7" y1="207.1" x2="134.2" y2="215.7"/>
	<line class="st0" x1="103.2" y1="245.8" x2="113.6" y2="246.3"/>
	<line class="st0" x1="128.3" y1="148.2" x2="120.8" y2="141.8"/>
	<line class="st0" x1="110.8" y1="252" x2="117.4" y2="272.1"/>
	<line class="st0" x1="207.8" y1="192.3" x2="198.9" y2="192.8"/>
	<line class="st0" x1="314.9" y1="236.8" x2="312" y2="240.1"/>
	<line class="st0" x1="163.5" y1="167.6" x2="177.7" y2="172.1"/>
	<line class="st0" x1="93.7" y1="199" x2="89.2" y2="201.6"/>
	<line class="st0" x1="207.8" y1="192.3" x2="225.1" y2="199.4"/>
	<line class="st0" x1="272.4" y1="124.1" x2="277.6" y2="131.4"/>
	<line class="st0" x1="96.7" y1="238.1" x2="104.8" y2="228.2"/>
	<line class="st0" x1="84.8" y1="185.9" x2="88.4" y2="195.1"/>
	<line class="st0" x1="164" y1="140.9" x2="160.6" y2="121.2"/>
	<line class="st0" x1="108.7" y1="268.9" x2="99" y2="280.9"/>
	<line class="st0" x1="234.1" y1="45.3" x2="233.5" y2="50.5"/>
	<line class="st0" x1="105.6" y1="278" x2="103.5" y2="276.8"/>
	<line class="st0" x1="271.8" y1="116.1" x2="280.5" y2="113.3"/>
	<line class="st0" x1="95" y1="287.7" x2="99" y2="280.9"/>
	<line class="st0" x1="94.8" y1="244.7" x2="103.2" y2="245.8"/>
	<line class="st0" x1="92.6" y1="249.8" x2="84" y2="255.8"/>
	<line class="st0" x1="118.6" y1="236.3" x2="113.7" y2="240"/>
	<line class="st0" x1="257.3" y1="212.2" x2="243.3" y2="206.1"/>
	<line class="st0" x1="131.5" y1="302.8" x2="135.8" y2="312.5"/>
	<line class="st0" x1="117.4" y1="229" x2="104.8" y2="228.2"/>
	<line class="st0" x1="68.7" y1="222.2" x2="73.1" y2="222.5"/>
	<line class="st0" x1="51.8" y1="188.2" x2="49.3" y2="187"/>
	<line class="st0" x1="271.8" y1="116.1" x2="261" y2="115.2"/>
	<line class="st0" x1="163.5" y1="167.6" x2="153.7" y2="173"/>
	<line class="st0" x1="21.4" y1="189.2" x2="18.4" y2="181.8"/>
	<line class="st0" x1="294.9" y1="213.6" x2="290.4" y2="213.6"/>
	<line class="st0" x1="110.8" y1="252" x2="104.8" y2="228.2"/>
	<line class="st0" x1="253.3" y1="73.3" x2="252.2" y2="79.4"/>
	<line class="st0" x1="177.8" y1="193.9" x2="175.7" y2="195.4"/>
	<line class="st0" x1="104.8" y1="228.2" x2="115.9" y2="224.3"/>
	<line class="st0" x1="90" y1="247.6" x2="102" y2="242.2"/>
	<line class="st0" x1="117.4" y1="272.1" x2="123.4" y2="278.2"/>
	<line class="st0" x1="123.2" y1="290" x2="127.8" y2="298.3"/>
	<line class="st0" x1="121.7" y1="265.5" x2="137.2" y2="273.5"/>
	<line class="st0" x1="92.6" y1="249.8" x2="96.7" y2="238.1"/>
	<line class="st0" x1="234.1" y1="45.3" x2="236.7" y2="43.5"/>
	<line class="st0" x1="95" y1="287.7" x2="92" y2="289"/>
	<line class="st0" x1="142.7" y1="156.1" x2="133.1" y2="149.2"/>
	<line class="st0" x1="320.5" y1="234.2" x2="312" y2="240.1"/>
	<line class="st0" x1="163.5" y1="167.6" x2="161.2" y2="175.9"/>
	<line class="st0" x1="64.3" y1="208.9" x2="72.4" y2="213.7"/>
	<line class="st0" x1="157.8" y1="93.5" x2="156.3" y2="91.3"/>
	<line class="st0" x1="223.7" y1="130.4" x2="229" y2="126.3"/>
	<line class="st0" x1="173.3" y1="171.2" x2="170.4" y2="176.3"/>
	<line class="st0" x1="110.8" y1="252" x2="107.4" y2="240.4"/>
	<line class="st0" x1="229.5" y1="46.1" x2="233.5" y2="41.6"/>
	<line class="st0" x1="52.9" y1="197.1" x2="49.3" y2="187"/>
	<line class="st0" x1="140.7" y1="207.1" x2="142.6" y2="215.4"/>
	<line class="st0" x1="320.5" y1="234.2" x2="329.2" y2="237.1"/>
	<line class="st0" x1="146.1" y1="199.1" x2="148.4" y2="200.6"/>
	<line class="st0" x1="96.1" y1="209.7" x2="104.8" y2="228.2"/>
	<line class="st0" x1="226.7" y1="111.7" x2="228.9" y2="105.6"/>
	<line class="st0" x1="101.6" y1="234" x2="98.5" y2="232.7"/>
	<line class="st0" x1="141.6" y1="144.4" x2="142.3" y2="141.8"/>
	<line class="st0" x1="92" y1="289" x2="97.4" y2="290.9"/>
	<line class="st0" x1="188.6" y1="173.7" x2="177.7" y2="172.1"/>
	<line class="st0" x1="268.7" y1="118.8" x2="265.4" y2="120.4"/>
	<line class="st0" x1="225.3" y1="43.4" x2="221.1" y2="35.2"/>
	<line class="st0" x1="276.9" y1="74.1" x2="284.7" y2="72.6"/>
	<line class="st0" x1="145.1" y1="242.7" x2="139.8" y2="234.2"/>
	<line class="st0" x1="34.9" y1="204.9" x2="26.1" y2="208"/>
	<line class="st0" x1="166.5" y1="126.8" x2="167.4" y2="130.2"/>
	<line class="st0" x1="131.9" y1="174.9" x2="121.7" y2="173.6"/>
	<line class="st0" x1="261" y1="115.2" x2="254.2" y2="103.3"/>
	<line class="st0" x1="149.1" y1="160.5" x2="163.5" y2="167.6"/>
	<line class="st0" x1="229.4" y1="120.9" x2="231.7" y2="112.9"/>
	<line class="st0" x1="182.3" y1="158.3" x2="192.6" y2="156.2"/>
	<line class="st0" x1="123.8" y1="314.8" x2="121.3" y2="313.5"/>
	<line class="st0" x1="163.5" y1="167.6" x2="171.1" y2="159.3"/>
	<line class="st0" x1="163.5" y1="167.6" x2="145.4" y2="174.1"/>
	<line class="st0" x1="257.3" y1="212.2" x2="250.8" y2="211.9"/>
	<line class="st0" x1="117.4" y1="229" x2="118.6" y2="236.3"/>
	<line class="st0" x1="117.4" y1="272.1" x2="123.2" y2="290"/>
	<line class="st0" x1="129.2" y1="146.8" x2="122.6" y2="140.1"/>
	<line class="st0" x1="313.4" y1="231.7" x2="316.1" y2="240"/>
	<line class="st0" x1="153.9" y1="146.1" x2="158.3" y2="155.1"/>
	<line class="st0" x1="252.4" y1="111.8" x2="247.9" y2="115.3"/>
	<line class="st0" x1="15.1" y1="186.2" x2="13.5" y2="184.1"/>
	<line class="st0" x1="90" y1="247.6" x2="80.5" y2="251.9"/>
	<line class="st0" x1="145.1" y1="242.7" x2="146.9" y2="240.5"/>
	<line class="st0" x1="276.9" y1="74.1" x2="265.5" y2="72.5"/>
	<line class="st0" x1="163.5" y1="167.6" x2="153.6" y2="163.6"/>
	<line class="st0" x1="276.9" y1="74.1" x2="280.3" y2="82.6"/>
	<line class="st0" x1="93.7" y1="199" x2="88.4" y2="195.1"/>
	<line class="st0" x1="156.3" y1="91.3" x2="151.8" y2="88.7"/>
	<line class="st0" x1="225.3" y1="43.4" x2="229.5" y2="46.1"/>
	<line class="st0" x1="155.4" y1="287.7" x2="148" y2="281.1"/>
	<line class="st0" x1="155.1" y1="139.8" x2="158.7" y2="150.7"/>
	<line class="st0" x1="254.8" y1="93.8" x2="254.2" y2="103.3"/>
	<line class="st0" x1="294.2" y1="133.8" x2="303" y2="135.5"/>
	<line class="st0" x1="163.5" y1="167.6" x2="158.2" y2="177.5"/>
	<line class="st0" x1="137.2" y1="273.5" x2="146.8" y2="276.5"/>
	<line class="st0" x1="316.1" y1="240" x2="320.2" y2="246.9"/>
	<line class="st0" x1="117.4" y1="272.1" x2="108.7" y2="268.9"/>
	<line class="st0" x1="37.6" y1="203.5" x2="46.6" y2="203.6"/>
	<line class="st0" x1="80.7" y1="226.2" x2="82.1" y2="228.1"/>
	<line class="st0" x1="207.8" y1="192.3" x2="186.9" y2="181.8"/>
	<line class="st0" x1="145.4" y1="174.1" x2="131.9" y2="174.9"/>
	<line class="st0" x1="170.9" y1="184.8" x2="163.5" y2="167.6"/>
	<line class="st0" x1="105.6" y1="278" x2="101.5" y2="274.9"/>
	<line class="st0" x1="90.7" y1="286.1" x2="92" y2="289"/>
	<line class="st0" x1="238.1" y1="117.6" x2="247.9" y2="115.3"/>
	<line class="st0" x1="139.8" y1="234.2" x2="126.5" y2="222.6"/>
	<line class="st0" x1="294.2" y1="133.8" x2="290.5" y2="136.1"/>
	<line class="st0" x1="225.1" y1="199.4" x2="232.2" y2="205"/>
	<line class="st0" x1="52.9" y1="197.1" x2="44.7" y2="194.6"/>
	<line class="st0" x1="94.8" y1="244.7" x2="96.7" y2="238.1"/>
	<line class="st0" x1="68.7" y1="222.2" x2="59.5" y2="226.7"/>
	<line class="st0" x1="94.2" y1="290.5" x2="99" y2="280.9"/>
	<line class="st0" x1="82.9" y1="220" x2="93.8" y2="223.3"/>
	<line class="st0" x1="303.7" y1="216.3" x2="294.9" y2="213.6"/>
	<line class="st0" x1="233.5" y1="50.5" x2="224.3" y2="48.3"/>
	<line class="st0" x1="46.6" y1="203.6" x2="52.9" y2="197.1"/>
	<line class="st0" x1="284.3" y1="69.4" x2="276.9" y2="74.1"/>
	<line class="st0" x1="149" y1="238.6" x2="146.9" y2="240.5"/>
	<line class="st0" x1="146.8" y1="276.5" x2="143.6" y2="281.1"/>
	<line class="st0" x1="169.6" y1="131.1" x2="163.4" y2="131.3"/>
	<line class="st0" x1="261" y1="115.2" x2="255.4" y2="111.4"/>
	<line class="st0" x1="207.8" y1="192.3" x2="212.1" y2="199.4"/>
	<line class="st0" x1="234.1" y1="45.3" x2="230.2" y2="42"/>
	<line class="st0" x1="313.4" y1="231.7" x2="309.9" y2="221.8"/>
	<line class="st0" x1="32.9" y1="197.7" x2="37.6" y2="203.5"/>
	<line class="st0" x1="91.1" y1="227.6" x2="80.7" y2="226.2"/>
	<line class="st0" x1="316.1" y1="240" x2="317.3" y2="249"/>
	<line class="st0" x1="96.7" y1="238.1" x2="101.6" y2="234"/>
	<line class="st0" x1="150.7" y1="151.8" x2="142.3" y2="141.8"/>
	<line class="st0" x1="157.8" y1="93.5" x2="156.7" y2="102.3"/>
	<line class="st0" x1="131.5" y1="302.8" x2="123.2" y2="290"/>
	<line class="st0" x1="129.2" y1="146.8" x2="133.1" y2="149.2"/>
	<line class="st0" x1="96.1" y1="209.7" x2="88.4" y2="195.1"/>
	<line class="st0" x1="160.6" y1="121.2" x2="160" y2="128.9"/>
	<line class="st0" x1="255.3" y1="78.7" x2="257.8" y2="79.5"/>
	<line class="st0" x1="278.7" y1="128.3" x2="277.6" y2="131.4"/>
	<line class="st0" x1="218" y1="196" x2="207.8" y2="192.3"/>
	<line class="st0" x1="93.7" y1="219.5" x2="89.8" y2="211.2"/>
	<line class="st0" x1="108.7" y1="268.9" x2="103.5" y2="276.8"/>
	<line class="st0" x1="145.4" y1="140.2" x2="141.6" y2="144.4"/>
	<line class="st0" x1="99" y1="280.9" x2="97.4" y2="290.9"/>
	<line class="st0" x1="152.3" y1="189.2" x2="148.4" y2="200.6"/>
	<line class="st0" x1="124.5" y1="304.5" x2="123.8" y2="314.8"/>
	<line class="st0" x1="251.3" y1="94.6" x2="254.6" y2="87.8"/>
	<line class="st0" x1="148" y1="281.1" x2="143.6" y2="281.1"/>
	<line class="st0" x1="283.2" y1="130.9" x2="272.4" y2="124.1"/>
	<line class="st0" x1="216.4" y1="202.1" x2="225.1" y2="199.4"/>
	<line class="st0" x1="96.2" y1="230.6" x2="104.8" y2="228.2"/>
	<line class="st0" x1="265" y1="219.2" x2="257.3" y2="212.2"/>
	<line class="st0" x1="24.1" y1="197.4" x2="32.9" y2="197.7"/>
	<line class="st0" x1="244.2" y1="60.9" x2="253.3" y2="73.3"/>
	<line class="st0" x1="163.5" y1="167.6" x2="158.3" y2="155.1"/>
	<line class="st0" x1="162.7" y1="128.2" x2="160.6" y2="121.2"/>
	<line class="st0" x1="140" y1="154.2" x2="149.1" y2="160.5"/>
	<line class="st0" x1="80.7" y1="188.4" x2="82.1" y2="186.4"/>
	<line class="st0" x1="314.9" y1="236.8" x2="310.6" y2="235.6"/>
	<line class="st0" x1="131.9" y1="174.9" x2="135.1" y2="176.2"/>
	<line class="st0" x1="231.3" y1="128.4" x2="229" y2="126.3"/>
	<line class="st0" x1="102" y1="242.2" x2="104.8" y2="228.2"/>
	<line class="st0" x1="91.1" y1="227.6" x2="83.5" y2="224.7"/>
	<line class="st0" x1="110.8" y1="252" x2="121.7" y2="265.5"/>
	<line class="st0" x1="198.9" y1="192.8" x2="198.4" y2="187.7"/>
	<line class="st0" x1="119.9" y1="144.1" x2="120.8" y2="141.8"/>
	<line class="st0" x1="32.9" y1="197.7" x2="38.1" y2="200.6"/>
	<line class="st0" x1="103.2" y1="245.8" x2="110.2" y2="247.6"/>
	<line class="st0" x1="91.8" y1="201.2" x2="89.2" y2="201.6"/>
	<line class="st0" x1="32.9" y1="197.7" x2="21.4" y2="189.2"/>
	<line class="st0" x1="163.5" y1="167.6" x2="150.7" y2="151.8"/>
	<line class="st0" x1="115.9" y1="224.3" x2="121.3" y2="219.8"/>
	<line class="st0" x1="131.5" y1="302.8" x2="132.5" y2="311.7"/>
	<line class="st0" x1="170.9" y1="184.8" x2="177.8" y2="193.9"/>
	<line class="st0" x1="131.5" y1="302.8" x2="124.5" y2="304.5"/>
	<line class="st0" x1="257.3" y1="212.2" x2="251.6" y2="208.5"/>
	<line class="st0" x1="68.7" y1="222.2" x2="82.9" y2="220"/>
	<line class="st0" x1="271.8" y1="116.1" x2="268.7" y2="118.8"/>
	<line class="st0" x1="51.8" y1="188.2" x2="47.5" y2="189.2"/>
	<line class="st0" x1="254.6" y1="87.8" x2="252.2" y2="79.4"/>
	<line class="st0" x1="15.8" y1="181.8" x2="13.5" y2="184.1"/>
	<line class="st0" x1="254.8" y1="93.8" x2="254.1" y2="85.8"/>
	<line class="st0" x1="104.8" y1="228.2" x2="93.8" y2="223.3"/>
	<line class="st0" x1="224.3" y1="48.3" x2="226.5" y2="50.1"/>
	<line class="st0" x1="254.2" y1="103.3" x2="257.4" y2="95.5"/>
	<line class="st0" x1="158.7" y1="150.7" x2="157.9" y2="140.4"/>
	<line class="st0" x1="224.3" y1="48.3" x2="218.3" y2="43.2"/>
	<line class="st0" x1="163.5" y1="167.6" x2="157.3" y2="163.9"/>
	<line class="st0" x1="156.7" y1="102.3" x2="151.8" y2="88.7"/>
	<line class="st0" x1="34.9" y1="204.9" x2="46.6" y2="203.6"/>
	<line class="st0" x1="268.2" y1="227.2" x2="265" y2="219.2"/>
	<line class="st0" x1="163.5" y1="167.6" x2="153.3" y2="168.2"/>
	<line class="st0" x1="156.7" y1="102.3" x2="151.4" y2="93.7"/>
	<line class="st0" x1="151.8" y1="88.7" x2="146.6" y2="80"/>
	<line class="st0" x1="314.3" y1="245.1" x2="320.2" y2="246.9"/>
	<line class="st0" x1="314.3" y1="245.1" x2="312" y2="240.1"/>
	<line class="st0" x1="82.9" y1="220" x2="82.1" y2="228.1"/>
	<line class="st0" x1="163.5" y1="167.6" x2="170.4" y2="176.3"/>
	<line class="st0" x1="223.7" y1="130.4" x2="235.1" y2="123.7"/>
	<line class="st0" x1="229.5" y1="46.1" x2="233.5" y2="50.5"/>
	<line class="st0" x1="329.2" y1="237.1" x2="336.2" y2="240.7"/>
	<line class="st0" x1="253.3" y1="73.3" x2="255.3" y2="78.7"/>
	<line class="st0" x1="160.9" y1="179.7" x2="164.6" y2="179.8"/>
	<line class="st0" x1="218" y1="196" x2="217.2" y2="198.3"/>
	<line class="st0" x1="126.5" y1="222.6" x2="115.9" y2="224.3"/>
	<line class="st0" x1="121.7" y1="265.5" x2="130.4" y2="270.4"/>
	<line class="st0" x1="278.7" y1="128.3" x2="272.6" y2="131.3"/>
	<line class="st0" x1="125.1" y1="299.4" x2="127.8" y2="298.3"/>
	<line class="st0" x1="103.2" y1="245.8" x2="92.6" y2="249.8"/>
	<line class="st0" x1="129.2" y1="146.8" x2="128.3" y2="148.2"/>
	<line class="st0" x1="313.4" y1="231.7" x2="320.5" y2="234.2"/>
	<line class="st0" x1="123.2" y1="290" x2="118.4" y2="283"/>
	<line class="st0" x1="163.5" y1="167.6" x2="166.4" y2="175.7"/>
	<line class="st0" x1="131.5" y1="302.8" x2="140.3" y2="308.7"/>
	<line class="st0" x1="149.5" y1="242.6" x2="139.8" y2="234.2"/>
	<line class="st0" x1="276.9" y1="74.1" x2="281.4" y2="67.8"/>
	<line class="st0" x1="231.7" y1="112.9" x2="228.1" y2="114.8"/>
	<line class="st0" x1="252.4" y1="111.8" x2="254.2" y2="103.3"/>
	<line class="st0" x1="164" y1="140.9" x2="163.4" y2="131.3"/>
	<line class="st0" x1="283.2" y1="130.9" x2="277.6" y2="131.4"/>
	<line class="st0" x1="163.5" y1="167.6" x2="168.6" y2="157.9"/>
	<line class="st0" x1="216.4" y1="202.1" x2="207.8" y2="192.3"/>
	<line class="st0" x1="96.7" y1="238.1" x2="96.2" y2="230.6"/>
	<line class="st0" x1="164" y1="140.9" x2="160" y2="128.9"/>
	<line class="st0" x1="312" y1="240.1" x2="316.1" y2="240"/>
	<line class="st0" x1="163.5" y1="167.6" x2="175.6" y2="168.6"/>
	<line class="st0" x1="129.2" y1="146.8" x2="131.5" y2="152.1"/>
	<line class="st0" x1="96.1" y1="209.7" x2="89.2" y2="201.6"/>
	<line class="st0" x1="140.7" y1="207.1" x2="126.5" y2="222.6"/>
	<line class="st0" x1="120.8" y1="141.8" x2="122.6" y2="140.1"/>
	<line class="st0" x1="113.6" y1="246.3" x2="110.2" y2="247.6"/>
	<line class="st0" x1="123.2" y1="290" x2="121.6" y2="282.4"/>
	<line class="st0" x1="329.3" y1="229.6" x2="320.5" y2="234.2"/>
	<line class="st0" x1="283.6" y1="214.8" x2="294.9" y2="213.6"/>
	<line class="st0" x1="15.8" y1="181.8" x2="18.4" y2="181.8"/>
	<line class="st0" x1="155.7" y1="160.7" x2="153.6" y2="163.6"/>
	<line class="st0" x1="229.4" y1="120.9" x2="231.3" y2="128.4"/>
	<line class="st0" x1="163.5" y1="167.6" x2="156" y2="166.9"/>
	<line class="st0" x1="261" y1="115.2" x2="272.4" y2="124.1"/>
	<line class="st0" x1="117.4" y1="229" x2="126.5" y2="222.6"/>
	<line class="st0" x1="123.8" y1="314.8" x2="126.5" y2="314.2"/>
	<line class="st0" x1="90.7" y1="286.1" x2="99" y2="280.9"/>
	<line class="st0" x1="243.3" y1="206.1" x2="250.8" y2="211.9"/>
	<line class="st0" x1="121.1" y1="237" x2="113.7" y2="240"/>
	<line class="st0" x1="73.1" y1="222.5" x2="82.9" y2="220"/>
	<line class="st0" x1="94.8" y1="244.7" x2="96.3" y2="247.3"/>
	<line class="st0" x1="86.6" y1="257.8" x2="84" y2="255.8"/>
	<line class="st0" x1="135.5" y1="179.1" x2="131.9" y2="174.9"/>
	<line class="st0" x1="216.2" y1="212.9" x2="219.2" y2="222.4"/>
	<line class="st0" x1="99" y1="280.9" x2="103.5" y2="276.8"/>
	<line class="st0" x1="163.5" y1="167.6" x2="163.6" y2="177.7"/>
	<line class="st0" x1="137.2" y1="273.5" x2="145.1" y2="278.6"/>
	<line class="st0" x1="167.6" y1="116" x2="166.5" y2="126.8"/>
	<path d="M164,138.9c1.1,0,1.9,0.9,1.9,1.9c0,1.1-0.9,1.9-1.9,1.9s-1.9-0.9-1.9-1.9C162.1,139.8,162.9,138.9,164,138.9L164,138.9z"
		/>
	<path d="M121.1,235c1.1,0,1.9,0.9,1.9,1.9s-0.9,1.9-1.9,1.9s-1.9-0.9-1.9-1.9S120.1,235,121.1,235L121.1,235z"/>
	<path d="M123.8,312.9c1.1,0,1.9,0.9,1.9,1.9c0,1.1-0.9,1.9-1.9,1.9c-1.1,0-1.9-0.9-1.9-1.9C121.8,313.8,122.7,312.9,123.8,312.9
		L123.8,312.9z"/>
	<path d="M92.6,247.8c1.1,0,1.9,0.9,1.9,1.9c0,1.1-0.9,1.9-1.9,1.9s-1.9-0.9-1.9-1.9C90.6,248.7,91.5,247.8,92.6,247.8L92.6,247.8z"
		/>
	<path d="M207.4,202.2c1.1,0,1.9,0.9,1.9,1.9c0,1.1-0.9,1.9-1.9,1.9s-1.9-0.9-1.9-1.9C205.4,203.1,206.3,202.2,207.4,202.2
		L207.4,202.2z"/>
	<path d="M320.5,232.2c1.1,0,1.9,0.9,1.9,1.9c0,1.1-0.9,1.9-1.9,1.9c-1.1,0-1.9-0.9-1.9-1.9C318.5,233.1,319.4,232.2,320.5,232.2
		L320.5,232.2z"/>
	<path d="M149.5,240.7c1.1,0,1.9,0.9,1.9,1.9c0,1.1-0.9,1.9-1.9,1.9s-1.9-0.9-1.9-1.9C147.5,241.5,148.4,240.7,149.5,240.7
		L149.5,240.7z"/>
	<path d="M93.8,221.3c1.1,0,1.9,0.9,1.9,1.9c0,1.1-0.9,1.9-1.9,1.9c-1.1,0-1.9-0.9-1.9-1.9C91.9,222.2,92.7,221.3,93.8,221.3
		L93.8,221.3z"/>
	<path d="M283.6,212.9c1.1,0,1.9,0.9,1.9,1.9c0,1.1-0.9,1.9-1.9,1.9s-1.9-0.9-1.9-1.9C281.6,213.7,282.5,212.9,283.6,212.9
		L283.6,212.9z"/>
	<path d="M231.7,111c1.1,0,1.9,0.9,1.9,1.9s-0.9,1.9-1.9,1.9c-1.1,0-1.9-0.9-1.9-1.9S230.6,111,231.7,111L231.7,111z"/>
	<path d="M58.7,220.5c1.1,0,1.9,0.9,1.9,1.9c0,1.1-0.9,1.9-1.9,1.9c-1.1,0-1.9-0.9-1.9-1.9C56.8,221.4,57.7,220.5,58.7,220.5
		L58.7,220.5z"/>
	<path d="M144.8,140.5c1.1,0,1.9,0.9,1.9,1.9s-0.9,1.9-1.9,1.9s-1.9-0.9-1.9-1.9S143.7,140.5,144.8,140.5L144.8,140.5z"/>
	<path d="M82.1,226.1c1.1,0,1.9,0.9,1.9,1.9c0,1.1-0.9,1.9-1.9,1.9c-1.1,0-1.9-0.9-1.9-1.9C80.2,227,81.1,226.1,82.1,226.1
		L82.1,226.1z"/>
	<path d="M152.3,187.2c1.1,0,1.9,0.9,1.9,1.9s-0.9,1.9-1.9,1.9c-1.1,0-1.9-0.9-1.9-1.9S151.2,187.2,152.3,187.2L152.3,187.2z"/>
	<path d="M257.7,77.5c1.1,0,1.9,0.9,1.9,1.9c0,1.1-0.9,1.9-1.9,1.9c-1.1,0-1.9-0.9-1.9-1.9C255.8,78.4,256.7,77.5,257.7,77.5
		L257.7,77.5z"/>
	<path d="M173.3,171.5c1.1,0,1.9,0.9,1.9,1.9c0,1.1-0.9,1.9-1.9,1.9c-1.1,0-1.9-0.9-1.9-1.9C171.3,172.4,172.2,171.5,173.3,171.5
		L173.3,171.5z"/>
	<path d="M115.9,222.4c1.1,0,1.9,0.9,1.9,1.9s-0.9,1.9-1.9,1.9c-1.1,0-1.9-0.9-1.9-1.9S114.8,222.4,115.9,222.4L115.9,222.4z"/>
	<path d="M90.7,284.2c1.1,0,1.9,0.9,1.9,1.9s-0.9,1.9-1.9,1.9s-1.9-0.9-1.9-1.9S89.6,284.2,90.7,284.2L90.7,284.2z"/>
	<path d="M91.1,225.6c1.1,0,1.9,0.9,1.9,1.9c0,1.1-0.9,1.9-1.9,1.9c-1.1,0-1.9-0.9-1.9-1.9C89.1,226.5,90,225.6,91.1,225.6
		L91.1,225.6z"/>
	<path d="M171.2,161.9c1.1,0,1.9,0.9,1.9,1.9c0,1.1-0.9,1.9-1.9,1.9c-1.1,0-1.9-0.9-1.9-1.9C169.3,162.8,170.1,161.9,171.2,161.9
		L171.2,161.9z"/>
	<path d="M99,278.9c1.1,0,1.9,0.9,1.9,1.9s-0.9,1.9-1.9,1.9c-1.1,0-1.9-0.9-1.9-1.9S98,278.9,99,278.9L99,278.9z"/>
	<path d="M110.8,250.1c1.1,0,1.9,0.9,1.9,1.9s-0.9,1.9-1.9,1.9s-1.9-0.9-1.9-1.9S109.8,250.1,110.8,250.1L110.8,250.1z"/>
	<path d="M174.5,161.3c1.1,0,1.9,0.9,1.9,1.9c0,1.1-0.9,1.9-1.9,1.9s-1.9-0.9-1.9-1.9C172.6,162.1,173.4,161.3,174.5,161.3
		L174.5,161.3z"/>
	<path d="M168.2,159.3c1.1,0,1.9,0.9,1.9,1.9c0,1.1-0.9,1.9-1.9,1.9c-1.1,0-1.9-0.9-1.9-1.9C166.2,160.2,167.1,159.3,168.2,159.3
		L168.2,159.3z"/>
	<path d="M133.7,227.5c1.1,0,1.9,0.9,1.9,1.9c0,1.1-0.9,1.9-1.9,1.9s-1.9-0.9-1.9-1.9C131.8,228.4,132.6,227.5,133.7,227.5
		L133.7,227.5z"/>
	<path d="M226.5,48.2c1.1,0,1.9,0.9,1.9,1.9c0,1.1-0.9,1.9-1.9,1.9c-1.1,0-1.9-0.9-1.9-1.9C224.6,49,225.4,48.2,226.5,48.2
		L226.5,48.2z"/>
	<path d="M138.4,155.5c1.1,0,1.9,0.9,1.9,1.9c0,1.1-0.9,1.9-1.9,1.9s-1.9-0.9-1.9-1.9C136.4,156.4,137.3,155.5,138.4,155.5
		L138.4,155.5z"/>
	<path d="M167.4,128.3c1.1,0,1.9,0.9,1.9,1.9s-0.9,1.9-1.9,1.9c-1.1,0-1.9-0.9-1.9-1.9S166.3,128.3,167.4,128.3L167.4,128.3z"/>
	<path d="M34.9,203c1.1,0,1.9,0.9,1.9,1.9c0,1.1-0.9,1.9-1.9,1.9s-1.9-0.9-1.9-1.9C32.9,203.8,33.8,203,34.9,203L34.9,203z"/>
	<path d="M143.6,279.2c1.1,0,1.9,0.9,1.9,1.9s-0.9,1.9-1.9,1.9c-1.1,0-1.9-0.9-1.9-1.9S142.5,279.2,143.6,279.2L143.6,279.2z"/>
	<path d="M250.8,210c1.1,0,1.9,0.9,1.9,1.9s-0.9,1.9-1.9,1.9c-1.1,0-1.9-0.9-1.9-1.9S249.7,210,250.8,210L250.8,210z"/>
	<path d="M131.5,150.1c1.1,0,1.9,0.9,1.9,1.9c0,1.1-0.9,1.9-1.9,1.9s-1.9-0.9-1.9-1.9C129.5,151,130.4,150.1,131.5,150.1
		L131.5,150.1z"/>
	<path d="M15.8,179.9c1.1,0,1.9,0.9,1.9,1.9s-0.9,1.9-1.9,1.9s-1.9-0.9-1.9-1.9S14.7,179.9,15.8,179.9L15.8,179.9z"/>
	<path d="M181.9,183.6c1.1,0,1.9,0.9,1.9,1.9c0,1.1-0.9,1.9-1.9,1.9s-1.9-0.9-1.9-1.9C180,184.4,180.9,183.6,181.9,183.6
		L181.9,183.6z"/>
	<path d="M162.2,155.4c1.1,0,1.9,0.9,1.9,1.9c0,1.1-0.9,1.9-1.9,1.9c-1.1,0-1.9-0.9-1.9-1.9C160.2,156.2,161.1,155.4,162.2,155.4
		L162.2,155.4z"/>
	<path d="M283.2,128.9c1.1,0,1.9,0.9,1.9,1.9s-0.9,1.9-1.9,1.9s-1.9-0.9-1.9-1.9S282.2,128.9,283.2,128.9L283.2,128.9z"/>
	<path d="M212.1,197.5c1.1,0,1.9,0.9,1.9,1.9c0,1.1-0.9,1.9-1.9,1.9c-1.1,0-1.9-0.9-1.9-1.9C210.2,198.4,211,197.5,212.1,197.5
		L212.1,197.5z"/>
	<path d="M230.2,40.1c1.1,0,1.9,0.9,1.9,1.9c0,1.1-0.9,1.9-1.9,1.9s-1.9-0.9-1.9-1.9C228.3,40.9,229.2,40.1,230.2,40.1L230.2,40.1z"
		/>
	<path d="M49.3,185c1.1,0,1.9,0.9,1.9,1.9s-0.9,1.9-1.9,1.9c-1.1,0-1.9-0.9-1.9-1.9S48.2,185,49.3,185L49.3,185z"/>
	<path d="M73.1,220.5c1.1,0,1.9,0.9,1.9,1.9c0,1.1-0.9,1.9-1.9,1.9s-1.9-0.9-1.9-1.9C71.2,221.4,72,220.5,73.1,220.5L73.1,220.5z"/>
	<path d="M244.2,58.9c1.1,0,1.9,0.9,1.9,1.9c0,1.1-0.9,1.9-1.9,1.9c-1.1,0-1.9-0.9-1.9-1.9C242.2,59.8,243.1,58.9,244.2,58.9
		L244.2,58.9z"/>
	<path d="M24.1,195.4c1.1,0,1.9,0.9,1.9,1.9s-0.9,1.9-1.9,1.9c-1.1,0-1.9-0.9-1.9-1.9S23,195.4,24.1,195.4L24.1,195.4z"/>
	<path d="M135.5,177.2c1.1,0,1.9,0.9,1.9,1.9s-0.9,1.9-1.9,1.9s-1.9-0.9-1.9-1.9S134.4,177.2,135.5,177.2L135.5,177.2z"/>
	<path d="M177.8,144.2c1.1,0,1.9,0.9,1.9,1.9s-0.9,1.9-1.9,1.9s-1.9-0.9-1.9-1.9S176.8,144.2,177.8,144.2L177.8,144.2z"/>
	<path d="M207.8,190.4c1.1,0,1.9,0.9,1.9,1.9s-0.9,1.9-1.9,1.9c-1.1,0-1.9-0.9-1.9-1.9S206.8,190.4,207.8,190.4L207.8,190.4z"/>
	<path d="M157.8,91.6c1.1,0,1.9,0.9,1.9,1.9c0,1.1-0.9,1.9-1.9,1.9s-1.9-0.9-1.9-1.9C155.8,92.4,156.7,91.6,157.8,91.6L157.8,91.6z"
		/>
	<path d="M156.7,100.3c1.1,0,1.9,0.9,1.9,1.9c0,1.1-0.9,1.9-1.9,1.9c-1.1,0-1.9-0.9-1.9-1.9C154.8,101.2,155.7,100.3,156.7,100.3
		L156.7,100.3z"/>
	<path d="M265,217.2c1.1,0,1.9,0.9,1.9,1.9c0,1.1-0.9,1.9-1.9,1.9s-1.9-0.9-1.9-1.9C263,218.1,263.9,217.2,265,217.2L265,217.2z"/>
	<path d="M310.6,233.7c1.1,0,1.9,0.9,1.9,1.9s-0.9,1.9-1.9,1.9c-1.1,0-1.9-0.9-1.9-1.9S309.5,233.7,310.6,233.7L310.6,233.7z"/>
	<path d="M255.4,109.4c1.1,0,1.9,0.9,1.9,1.9c0,1.1-0.9,1.9-1.9,1.9c-1.1,0-1.9-0.9-1.9-1.9C253.5,110.3,254.4,109.4,255.4,109.4
		L255.4,109.4z"/>
	<path d="M153.6,161.6c1.1,0,1.9,0.9,1.9,1.9c0,1.1-0.9,1.9-1.9,1.9s-1.9-0.9-1.9-1.9C151.7,162.5,152.5,161.6,153.6,161.6
		L153.6,161.6z"/>
	<path d="M312,238.2c1.1,0,1.9,0.9,1.9,1.9c0,1.1-0.9,1.9-1.9,1.9c-1.1,0-1.9-0.9-1.9-1.9C310.1,239.1,311,238.2,312,238.2
		L312,238.2z"/>
	<path d="M218.3,41.2c1.1,0,1.9,0.9,1.9,1.9c0,1.1-0.9,1.9-1.9,1.9s-1.9-0.9-1.9-1.9C216.4,42.1,217.3,41.2,218.3,41.2L218.3,41.2z"
		/>
	<path d="M265.4,118.5c1.1,0,1.9,0.9,1.9,1.9c0,1.1-0.9,1.9-1.9,1.9c-1.1,0-1.9-0.9-1.9-1.9C263.4,119.4,264.3,118.5,265.4,118.5
		L265.4,118.5z"/>
	<path d="M219.2,220.4c1.1,0,1.9,0.9,1.9,1.9s-0.9,1.9-1.9,1.9s-1.9-0.9-1.9-1.9S218.1,220.4,219.2,220.4L219.2,220.4z"/>
	<path d="M232.2,203.1c1.1,0,1.9,0.9,1.9,1.9s-0.9,1.9-1.9,1.9s-1.9-0.9-1.9-1.9S231.1,203.1,232.2,203.1L232.2,203.1z"/>
	<path d="M155.1,137.9c1.1,0,1.9,0.9,1.9,1.9c0,1.1-0.9,1.9-1.9,1.9c-1.1,0-1.9-0.9-1.9-1.9C153.2,138.8,154,137.9,155.1,137.9
		L155.1,137.9z"/>
	<path d="M163.5,165.7c1.1,0,1.9,0.9,1.9,1.9c0,1.1-0.9,1.9-1.9,1.9s-1.9-0.9-1.9-1.9C161.6,166.5,162.4,165.7,163.5,165.7
		L163.5,165.7z"/>
	<path d="M272.6,129.4c1.1,0,1.9,0.9,1.9,1.9s-0.9,1.9-1.9,1.9s-1.9-0.9-1.9-1.9S271.5,129.4,272.6,129.4L272.6,129.4z"/>
	<path d="M167.6,114.1c1.1,0,1.9,0.9,1.9,1.9s-0.9,1.9-1.9,1.9c-1.1,0-1.9-0.9-1.9-1.9S166.5,114.1,167.6,114.1L167.6,114.1z"/>
	<path d="M134.2,213.8c1.1,0,1.9,0.9,1.9,1.9c0,1.1-0.9,1.9-1.9,1.9c-1.1,0-1.9-0.9-1.9-1.9C132.2,214.7,133.1,213.8,134.2,213.8
		L134.2,213.8z"/>
	<path d="M231.3,126.4c1.1,0,1.9,0.9,1.9,1.9s-0.9,1.9-1.9,1.9c-1.1,0-1.9-0.9-1.9-1.9S230.3,126.4,231.3,126.4L231.3,126.4z"/>
	<path d="M314.9,234.9c1.1,0,1.9,0.9,1.9,1.9c0,1.1-0.9,1.9-1.9,1.9c-1.1,0-1.9-0.9-1.9-1.9C313,235.7,313.8,234.9,314.9,234.9
		L314.9,234.9z"/>
	<path d="M86.3,212.3c1.1,0,1.9,0.9,1.9,1.9s-0.9,1.9-1.9,1.9c-1.1,0-1.9-0.9-1.9-1.9S85.3,212.3,86.3,212.3L86.3,212.3z"/>
	<path d="M82.1,184.5c1.1,0,1.9,0.9,1.9,1.9s-0.9,1.9-1.9,1.9s-1.9-0.9-1.9-1.9S81,184.5,82.1,184.5L82.1,184.5z"/>
	<path d="M313.4,229.7c1.1,0,1.9,0.9,1.9,1.9s-0.9,1.9-1.9,1.9c-1.1,0-1.9-0.9-1.9-1.9S312.3,229.7,313.4,229.7L313.4,229.7z"/>
	<path d="M170.9,182.9c1.1,0,1.9,0.9,1.9,1.9s-0.9,1.9-1.9,1.9s-1.9-0.9-1.9-1.9S169.8,182.9,170.9,182.9L170.9,182.9z"/>
	<path d="M117.4,270.1c1.1,0,1.9,0.9,1.9,1.9c0,1.1-0.9,1.9-1.9,1.9s-1.9-0.9-1.9-1.9C115.4,271,116.3,270.1,117.4,270.1
		L117.4,270.1z"/>
	<path d="M175,163.9c1.1,0,1.9,0.9,1.9,1.9c0,1.1-0.9,1.9-1.9,1.9c-1.1,0-1.9-0.9-1.9-1.9C173,164.7,173.9,163.9,175,163.9
		L175,163.9z"/>
	<path d="M120.8,139.9c1.1,0,1.9,0.9,1.9,1.9c0,1.1-0.9,1.9-1.9,1.9c-1.1,0-1.9-0.9-1.9-1.9C118.9,140.7,119.7,139.9,120.8,139.9
		L120.8,139.9z"/>
	<path d="M158.5,171.8c1.1,0,1.9,0.9,1.9,1.9c0,1.1-0.9,1.9-1.9,1.9s-1.9-0.9-1.9-1.9C156.6,172.7,157.4,171.8,158.5,171.8
		L158.5,171.8z"/>
	<path d="M131.5,300.9c1.1,0,1.9,0.9,1.9,1.9s-0.9,1.9-1.9,1.9s-1.9-0.9-1.9-1.9S130.4,300.9,131.5,300.9L131.5,300.9z"/>
	<path d="M163.4,129.3c1.1,0,1.9,0.9,1.9,1.9c0,1.1-0.9,1.9-1.9,1.9s-1.9-0.9-1.9-1.9C161.5,130.2,162.3,129.3,163.4,129.3
		L163.4,129.3z"/>
	<path d="M217.2,196.3c1.1,0,1.9,0.9,1.9,1.9c0,1.1-0.9,1.9-1.9,1.9c-1.1,0-1.9-0.9-1.9-1.9C215.2,197.2,216.1,196.3,217.2,196.3
		L217.2,196.3z"/>
	<path d="M101.6,232c1.1,0,1.9,0.9,1.9,1.9c0,1.1-0.9,1.9-1.9,1.9c-1.1,0-1.9-0.9-1.9-1.9C99.6,232.9,100.5,232,101.6,232L101.6,232
		z"/>
	<path d="M284.3,67.5c1.1,0,1.9,0.9,1.9,1.9c0,1.1-0.9,1.9-1.9,1.9s-1.9-0.9-1.9-1.9C282.4,68.3,283.3,67.5,284.3,67.5L284.3,67.5z"
		/>
	<path d="M302.1,207.2c1.1,0,1.9,0.9,1.9,1.9c0,1.1-0.9,1.9-1.9,1.9s-1.9-0.9-1.9-1.9C300.2,208.1,301,207.2,302.1,207.2
		L302.1,207.2z"/>
	<path d="M229.5,44.2c1.1,0,1.9,0.9,1.9,1.9c0,1.1-0.9,1.9-1.9,1.9s-1.9-0.9-1.9-1.9C227.5,45,228.4,44.2,229.5,44.2L229.5,44.2z"/>
	<path d="M86.6,255.9c1.1,0,1.9,0.9,1.9,1.9s-0.9,1.9-1.9,1.9s-1.9-0.9-1.9-1.9S85.6,255.9,86.6,255.9L86.6,255.9z"/>
	<path d="M223.7,128.5c1.1,0,1.9,0.9,1.9,1.9c0,1.1-0.9,1.9-1.9,1.9c-1.1,0-1.9-0.9-1.9-1.9C221.8,129.4,222.7,128.5,223.7,128.5
		L223.7,128.5z"/>
	<path d="M145.1,276.7c1.1,0,1.9,0.9,1.9,1.9s-0.9,1.9-1.9,1.9s-1.9-0.9-1.9-1.9S144,276.7,145.1,276.7L145.1,276.7z"/>
	<path d="M13.5,182.2c1.1,0,1.9,0.9,1.9,1.9s-0.9,1.9-1.9,1.9c-1.1,0-1.9-0.9-1.9-1.9S12.4,182.2,13.5,182.2L13.5,182.2z"/>
	<path d="M94.8,242.7c1.1,0,1.9,0.9,1.9,1.9s-0.9,1.9-1.9,1.9c-1.1,0-1.9-0.9-1.9-1.9S93.7,242.7,94.8,242.7L94.8,242.7z"/>
	<path d="M272.8,197.8c1.1,0,1.9,0.9,1.9,1.9c0,1.1-0.9,1.9-1.9,1.9s-1.9-0.9-1.9-1.9C270.9,198.7,271.8,197.8,272.8,197.8
		L272.8,197.8z"/>
	<path d="M47.5,187.3c1.1,0,1.9,0.9,1.9,1.9s-0.9,1.9-1.9,1.9s-1.9-0.9-1.9-1.9S46.4,187.3,47.5,187.3L47.5,187.3z"/>
	<path d="M305.8,242.9c1.1,0,1.9,0.9,1.9,1.9s-0.9,1.9-1.9,1.9c-1.1,0-1.9-0.9-1.9-1.9S304.7,242.9,305.8,242.9L305.8,242.9z"/>
	<path d="M96.7,236.2c1.1,0,1.9,0.9,1.9,1.9s-0.9,1.9-1.9,1.9c-1.1,0-1.9-0.9-1.9-1.9S95.7,236.2,96.7,236.2L96.7,236.2z"/>
	<path d="M126.5,312.3c1.1,0,1.9,0.9,1.9,1.9c0,1.1-0.9,1.9-1.9,1.9c-1.1,0-1.9-0.9-1.9-1.9C124.6,313.1,125.5,312.3,126.5,312.3
		L126.5,312.3z"/>
	<path d="M44.9,189.5c1.1,0,1.9,0.9,1.9,1.9s-0.9,1.9-1.9,1.9s-1.9-0.9-1.9-1.9S43.8,189.5,44.9,189.5L44.9,189.5z"/>
	<path d="M93.7,197.1c1.1,0,1.9,0.9,1.9,1.9s-0.9,1.9-1.9,1.9c-1.1,0-1.9-0.9-1.9-1.9S92.6,197.1,93.7,197.1L93.7,197.1z"/>
	<path d="M133.1,147.2c1.1,0,1.9,0.9,1.9,1.9s-0.9,1.9-1.9,1.9c-1.1,0-1.9-0.9-1.9-1.9S132.1,147.2,133.1,147.2L133.1,147.2z"/>
	<path d="M161.2,173.9c1.1,0,1.9,0.9,1.9,1.9s-0.9,1.9-1.9,1.9s-1.9-0.9-1.9-1.9S160.2,173.9,161.2,173.9L161.2,173.9z"/>
	<path d="M124.5,302.6c1.1,0,1.9,0.9,1.9,1.9s-0.9,1.9-1.9,1.9c-1.1,0-1.9-0.9-1.9-1.9S123.4,302.6,124.5,302.6L124.5,302.6z"/>
	<path d="M26.1,206c1.1,0,1.9,0.9,1.9,1.9c0,1.1-0.9,1.9-1.9,1.9c-1.1,0-1.9-0.9-1.9-1.9C24.2,206.9,25,206,26.1,206L26.1,206z"/>
	<path d="M155.4,285.8c1.1,0,1.9,0.9,1.9,1.9s-0.9,1.9-1.9,1.9s-1.9-0.9-1.9-1.9S154.4,285.8,155.4,285.8L155.4,285.8z"/>
	<path d="M162.7,126.3c1.1,0,1.9,0.9,1.9,1.9c0,1.1-0.9,1.9-1.9,1.9c-1.1,0-1.9-0.9-1.9-1.9C160.8,127.1,161.6,126.3,162.7,126.3
		L162.7,126.3z"/>
	<path d="M37.6,201.5c1.1,0,1.9,0.9,1.9,1.9c0,1.1-0.9,1.9-1.9,1.9c-1.1,0-1.9-0.9-1.9-1.9C35.7,202.4,36.6,201.5,37.6,201.5
		L37.6,201.5z"/>
	<path d="M148.4,198.6c1.1,0,1.9,0.9,1.9,1.9s-0.9,1.9-1.9,1.9c-1.1,0-1.9-0.9-1.9-1.9S147.4,198.6,148.4,198.6L148.4,198.6z"/>
	<path d="M153.9,144.1c1.1,0,1.9,0.9,1.9,1.9c0,1.1-0.9,1.9-1.9,1.9s-1.9-0.9-1.9-1.9C151.9,145,152.8,144.1,153.9,144.1
		L153.9,144.1z"/>
	<path d="M139.8,232.2c1.1,0,1.9,0.9,1.9,1.9c0,1.1-0.9,1.9-1.9,1.9c-1.1,0-1.9-0.9-1.9-1.9C137.8,233.1,138.7,232.2,139.8,232.2
		L139.8,232.2z"/>
	<path d="M155.7,169.1c1.1,0,1.9,0.9,1.9,1.9s-0.9,1.9-1.9,1.9s-1.9-0.9-1.9-1.9S154.6,169.1,155.7,169.1L155.7,169.1z"/>
	<path d="M118.6,234.4c1.1,0,1.9,0.9,1.9,1.9c0,1.1-0.9,1.9-1.9,1.9c-1.1,0-1.9-0.9-1.9-1.9C116.7,235.2,117.6,234.4,118.6,234.4
		L118.6,234.4z"/>
	<path d="M336.2,238.8c1.1,0,1.9,0.9,1.9,1.9c0,1.1-0.9,1.9-1.9,1.9c-1.1,0-1.9-0.9-1.9-1.9C334.3,239.7,335.2,238.8,336.2,238.8
		L336.2,238.8z"/>
	<path d="M64.3,206.9c1.1,0,1.9,0.9,1.9,1.9s-0.9,1.9-1.9,1.9c-1.1,0-1.9-0.9-1.9-1.9S63.2,206.9,64.3,206.9L64.3,206.9z"/>
	<path d="M132.5,309.8c1.1,0,1.9,0.9,1.9,1.9c0,1.1-0.9,1.9-1.9,1.9s-1.9-0.9-1.9-1.9C130.5,310.7,131.4,309.8,132.5,309.8
		L132.5,309.8z"/>
	<path d="M96.2,228.7c1.1,0,1.9,0.9,1.9,1.9c0,1.1-0.9,1.9-1.9,1.9s-1.9-0.9-1.9-1.9C94.2,229.6,95.1,228.7,96.2,228.7L96.2,228.7z"
		/>
	<path d="M95,285.8c1.1,0,1.9,0.9,1.9,1.9s-0.9,1.9-1.9,1.9s-1.9-0.9-1.9-1.9S93.9,285.8,95,285.8L95,285.8z"/>
	<path d="M121.3,217.9c1.1,0,1.9,0.9,1.9,1.9s-0.9,1.9-1.9,1.9s-1.9-0.9-1.9-1.9S120.2,217.9,121.3,217.9L121.3,217.9z"/>
	<path d="M192.6,154.2c1.1,0,1.9,0.9,1.9,1.9c0,1.1-0.9,1.9-1.9,1.9s-1.9-0.9-1.9-1.9C190.7,155.1,191.6,154.2,192.6,154.2
		L192.6,154.2z"/>
	<path d="M303.7,214.4c1.1,0,1.9,0.9,1.9,1.9c0,1.1-0.9,1.9-1.9,1.9s-1.9-0.9-1.9-1.9C301.7,215.2,302.6,214.4,303.7,214.4
		L303.7,214.4z"/>
	<path d="M163.8,157.8c1.1,0,1.9,0.9,1.9,1.9s-0.9,1.9-1.9,1.9c-1.1,0-1.9-0.9-1.9-1.9S162.8,157.8,163.8,157.8L163.8,157.8z"/>
	<path d="M171.6,153.3c1.1,0,1.9,0.9,1.9,1.9s-0.9,1.9-1.9,1.9s-1.9-0.9-1.9-1.9S170.5,153.3,171.6,153.3L171.6,153.3z"/>
	<path d="M130.4,268.5c1.1,0,1.9,0.9,1.9,1.9c0,1.1-0.9,1.9-1.9,1.9s-1.9-0.9-1.9-1.9C128.5,269.4,129.3,268.5,130.4,268.5
		L130.4,268.5z"/>
	<path d="M140.7,205.2c1.1,0,1.9,0.9,1.9,1.9s-0.9,1.9-1.9,1.9c-1.1,0-1.9-0.9-1.9-1.9S139.7,205.2,140.7,205.2L140.7,205.2z"/>
	<path d="M13.2,189.7c1.1,0,1.9,0.9,1.9,1.9c0,1.1-0.9,1.9-1.9,1.9s-1.9-0.9-1.9-1.9C11.2,190.6,12.1,189.7,13.2,189.7L13.2,189.7z"
		/>
	<path d="M235.1,121.8c1.1,0,1.9,0.9,1.9,1.9c0,1.1-0.9,1.9-1.9,1.9c-1.1,0-1.9-0.9-1.9-1.9C233.2,122.7,234.1,121.8,235.1,121.8
		L235.1,121.8z"/>
	<path d="M158.7,148.8c1.1,0,1.9,0.9,1.9,1.9c0,1.1-0.9,1.9-1.9,1.9c-1.1,0-1.9-0.9-1.9-1.9C156.8,149.7,157.6,148.8,158.7,148.8
		L158.7,148.8z"/>
	<path d="M277.6,129.5c1.1,0,1.9,0.9,1.9,1.9c0,1.1-0.9,1.9-1.9,1.9s-1.9-0.9-1.9-1.9C275.7,130.3,276.6,129.5,277.6,129.5
		L277.6,129.5z"/>
	<path d="M225.1,197.4c1.1,0,1.9,0.9,1.9,1.9c0,1.1-0.9,1.9-1.9,1.9c-1.1,0-1.9-0.9-1.9-1.9C223.2,198.3,224.1,197.4,225.1,197.4
		L225.1,197.4z"/>
	<path d="M309.9,219.8c1.1,0,1.9,0.9,1.9,1.9s-0.9,1.9-1.9,1.9c-1.1,0-1.9-0.9-1.9-1.9S308.8,219.8,309.9,219.8L309.9,219.8z"/>
	<path d="M276.9,72.2c1.1,0,1.9,0.9,1.9,1.9c0,1.1-0.9,1.9-1.9,1.9c-1.1,0-1.9-0.9-1.9-1.9C275,73,275.9,72.2,276.9,72.2L276.9,72.2
		z"/>
	<path d="M294.2,131.9c1.1,0,1.9,0.9,1.9,1.9s-0.9,1.9-1.9,1.9s-1.9-0.9-1.9-1.9S293.2,131.9,294.2,131.9L294.2,131.9z"/>
	<path d="M210.8,137.8c1.1,0,1.9,0.9,1.9,1.9s-0.9,1.9-1.9,1.9s-1.9-0.9-1.9-1.9S209.7,137.8,210.8,137.8L210.8,137.8z"/>
	<path d="M233.5,39.7c1.1,0,1.9,0.9,1.9,1.9c0,1.1-0.9,1.9-1.9,1.9s-1.9-0.9-1.9-1.9C231.6,40.6,232.4,39.7,233.5,39.7L233.5,39.7z"
		/>
	<path d="M163.6,175.7c1.1,0,1.9,0.9,1.9,1.9s-0.9,1.9-1.9,1.9c-1.1,0-1.9-0.9-1.9-1.9S162.5,175.7,163.6,175.7L163.6,175.7z"/>
	<path d="M243.3,204.1c1.1,0,1.9,0.9,1.9,1.9c0,1.1-0.9,1.9-1.9,1.9s-1.9-0.9-1.9-1.9C241.3,205,242.2,204.1,243.3,204.1
		L243.3,204.1z"/>
	<path d="M173,194c1.1,0,1.9,0.9,1.9,1.9c0,1.1-0.9,1.9-1.9,1.9c-1.1,0-1.9-0.9-1.9-1.9C171.1,194.9,172,194,173,194L173,194z"/>
	<path d="M108.7,266.9c1.1,0,1.9,0.9,1.9,1.9s-0.9,1.9-1.9,1.9c-1.1,0-1.9-0.9-1.9-1.9S107.7,266.9,108.7,266.9L108.7,266.9z"/>
	<path d="M251.3,92.6c1.1,0,1.9,0.9,1.9,1.9c0,1.1-0.9,1.9-1.9,1.9s-1.9-0.9-1.9-1.9C249.3,93.5,250.2,92.6,251.3,92.6L251.3,92.6z"
		/>
	<path d="M166.5,124.9c1.1,0,1.9,0.9,1.9,1.9c0,1.1-0.9,1.9-1.9,1.9c-1.1,0-1.9-0.9-1.9-1.9C164.6,125.7,165.4,124.9,166.5,124.9
		L166.5,124.9z"/>
	<path d="M149,236.7c1.1,0,1.9,0.9,1.9,1.9s-0.9,1.9-1.9,1.9c-1.1,0-1.9-0.9-1.9-1.9S147.9,236.7,149,236.7L149,236.7z"/>
	<path d="M138.8,166.9c1.1,0,1.9,0.9,1.9,1.9c0,1.1-0.9,1.9-1.9,1.9c-1.1,0-1.9-0.9-1.9-1.9C136.8,167.8,137.7,166.9,138.8,166.9
		L138.8,166.9z"/>
	<path d="M154,91.1c1.1,0,1.9,0.9,1.9,1.9c0,1.1-0.9,1.9-1.9,1.9c-1.1,0-1.9-0.9-1.9-1.9C152,92,152.9,91.1,154,91.1L154,91.1z"/>
	<path d="M32.9,195.8c1.1,0,1.9,0.9,1.9,1.9s-0.9,1.9-1.9,1.9c-1.1,0-1.9-0.9-1.9-1.9S31.8,195.8,32.9,195.8L32.9,195.8z"/>
	<path d="M80.5,249.9c1.1,0,1.9,0.9,1.9,1.9s-0.9,1.9-1.9,1.9c-1.1,0-1.9-0.9-1.9-1.9S79.4,249.9,80.5,249.9L80.5,249.9z"/>
	<path d="M155.7,158.7c1.1,0,1.9,0.9,1.9,1.9s-0.9,1.9-1.9,1.9s-1.9-0.9-1.9-1.9S154.6,158.7,155.7,158.7L155.7,158.7z"/>
	<path d="M73.1,217c1.1,0,1.9,0.9,1.9,1.9c0,1.1-0.9,1.9-1.9,1.9s-1.9-0.9-1.9-1.9C71.1,217.9,72,217,73.1,217L73.1,217z"/>
	<path d="M248,52c1.1,0,1.9,0.9,1.9,1.9c0,1.1-0.9,1.9-1.9,1.9S246,55,246,54C246,52.9,246.9,52,248,52L248,52z"/>
	<path d="M252.4,109.9c1.1,0,1.9,0.9,1.9,1.9c0,1.1-0.9,1.9-1.9,1.9c-1.1,0-1.9-0.9-1.9-1.9C250.4,110.7,251.3,109.9,252.4,109.9
		L252.4,109.9z"/>
	<path d="M123.4,276.3c1.1,0,1.9,0.9,1.9,1.9s-0.9,1.9-1.9,1.9c-1.1,0-1.9-0.9-1.9-1.9S122.3,276.3,123.4,276.3L123.4,276.3z"/>
	<path d="M171.1,157.4c1.1,0,1.9,0.9,1.9,1.9c0,1.1-0.9,1.9-1.9,1.9s-1.9-0.9-1.9-1.9C169.2,158.2,170,157.4,171.1,157.4
		L171.1,157.4z"/>
	<path d="M257.3,210.2c1.1,0,1.9,0.9,1.9,1.9c0,1.1-0.9,1.9-1.9,1.9s-1.9-0.9-1.9-1.9C255.3,211.1,256.2,210.2,257.3,210.2
		L257.3,210.2z"/>
	<path d="M175.6,166.7c1.1,0,1.9,0.9,1.9,1.9c0,1.1-0.9,1.9-1.9,1.9c-1.1,0-1.9-0.9-1.9-1.9C173.7,167.5,174.5,166.7,175.6,166.7
		L175.6,166.7z"/>
	<path d="M145.4,172.2c1.1,0,1.9,0.9,1.9,1.9c0,1.1-0.9,1.9-1.9,1.9c-1.1,0-1.9-0.9-1.9-1.9C143.4,173.1,144.3,172.2,145.4,172.2
		L145.4,172.2z"/>
	<path d="M316.1,238c1.1,0,1.9,0.9,1.9,1.9c0,1.1-0.9,1.9-1.9,1.9s-1.9-0.9-1.9-1.9C314.2,238.9,315.1,238,316.1,238L316.1,238z"/>
	<path d="M145.4,138.2c1.1,0,1.9,0.9,1.9,1.9c0,1.1-0.9,1.9-1.9,1.9c-1.1,0-1.9-0.9-1.9-1.9C143.4,139.1,144.3,138.2,145.4,138.2
		L145.4,138.2z"/>
	<path d="M142.6,213.5c1.1,0,1.9,0.9,1.9,1.9s-0.9,1.9-1.9,1.9c-1.1,0-1.9-0.9-1.9-1.9S141.5,213.5,142.6,213.5L142.6,213.5z"/>
	<path d="M228.1,112.9c1.1,0,1.9,0.9,1.9,1.9s-0.9,1.9-1.9,1.9s-1.9-0.9-1.9-1.9S227,112.9,228.1,112.9L228.1,112.9z"/>
	<path d="M158.2,175.6c1.1,0,1.9,0.9,1.9,1.9c0,1.1-0.9,1.9-1.9,1.9s-1.9-0.9-1.9-1.9C156.2,176.5,157.1,175.6,158.2,175.6
		L158.2,175.6z"/>
	<path d="M153.3,166.2c1.1,0,1.9,0.9,1.9,1.9c0,1.1-0.9,1.9-1.9,1.9s-1.9-0.9-1.9-1.9C151.3,167.1,152.2,166.2,153.3,166.2
		L153.3,166.2z"/>
	<path d="M46.6,201.7c1.1,0,1.9,0.9,1.9,1.9c0,1.1-0.9,1.9-1.9,1.9c-1.1,0-1.9-0.9-1.9-1.9C44.7,202.5,45.5,201.7,46.6,201.7
		L46.6,201.7z"/>
	<path d="M84,253.9c1.1,0,1.9,0.9,1.9,1.9s-0.9,1.9-1.9,1.9s-1.9-0.9-1.9-1.9S83,253.9,84,253.9L84,253.9z"/>
	<path d="M146.3,212.2c1.1,0,1.9,0.9,1.9,1.9c0,1.1-0.9,1.9-1.9,1.9s-1.9-0.9-1.9-1.9C144.4,213.1,145.3,212.2,146.3,212.2
		L146.3,212.2z"/>
	<path d="M140,152.3c1.1,0,1.9,0.9,1.9,1.9c0,1.1-0.9,1.9-1.9,1.9s-1.9-0.9-1.9-1.9C138,153.1,138.9,152.3,140,152.3L140,152.3z"/>
	<path d="M216.4,200.2c1.1,0,1.9,0.9,1.9,1.9s-0.9,1.9-1.9,1.9s-1.9-0.9-1.9-1.9S215.3,200.2,216.4,200.2L216.4,200.2z"/>
	<path d="M236.7,41.5c1.1,0,1.9,0.9,1.9,1.9c0,1.1-0.9,1.9-1.9,1.9s-1.9-0.9-1.9-1.9C234.7,42.4,235.6,41.5,236.7,41.5L236.7,41.5z"
		/>
	<path d="M164.6,177.9c1.1,0,1.9,0.9,1.9,1.9s-0.9,1.9-1.9,1.9c-1.1,0-1.9-0.9-1.9-1.9S163.6,177.9,164.6,177.9L164.6,177.9z"/>
	<path d="M98.5,230.7c1.1,0,1.9,0.9,1.9,1.9s-0.9,1.9-1.9,1.9c-1.1,0-1.9-0.9-1.9-1.9S97.5,230.7,98.5,230.7L98.5,230.7z"/>
	<path d="M91.8,199.2c1.1,0,1.9,0.9,1.9,1.9s-0.9,1.9-1.9,1.9c-1.1,0-1.9-0.9-1.9-1.9S90.7,199.2,91.8,199.2L91.8,199.2z"/>
	<path d="M72.4,211.8c1.1,0,1.9,0.9,1.9,1.9s-0.9,1.9-1.9,1.9s-1.9-0.9-1.9-1.9S71.4,211.8,72.4,211.8L72.4,211.8z"/>
	<path d="M157.9,138.5c1.1,0,1.9,0.9,1.9,1.9c0,1.1-0.9,1.9-1.9,1.9c-1.1,0-1.9-0.9-1.9-1.9C155.9,139.3,156.8,138.5,157.9,138.5
		L157.9,138.5z"/>
	<path d="M173.1,159.1c1.1,0,1.9,0.9,1.9,1.9c0,1.1-0.9,1.9-1.9,1.9c-1.1,0-1.9-0.9-1.9-1.9C171.1,160,172,159.1,173.1,159.1
		L173.1,159.1z"/>
	<path d="M150.3,77c1.1,0,1.9,0.9,1.9,1.9c0,1.1-0.9,1.9-1.9,1.9c-1.1,0-1.9-0.9-1.9-1.9C148.4,77.8,149.2,77,150.3,77L150.3,77z"/>
	<path d="M252.2,77.5c1.1,0,1.9,0.9,1.9,1.9c0,1.1-0.9,1.9-1.9,1.9c-1.1,0-1.9-0.9-1.9-1.9C250.3,78.3,251.1,77.5,252.2,77.5
		L252.2,77.5z"/>
	<path d="M320.2,245c1.1,0,1.9,0.9,1.9,1.9c0,1.1-0.9,1.9-1.9,1.9c-1.1,0-1.9-0.9-1.9-1.9C318.2,245.8,319.1,245,320.2,245
		L320.2,245z"/>
	<path d="M84.8,183.9c1.1,0,1.9,0.9,1.9,1.9s-0.9,1.9-1.9,1.9s-1.9-0.9-1.9-1.9S83.7,183.9,84.8,183.9L84.8,183.9z"/>
	<path d="M158.3,153.1c1.1,0,1.9,0.9,1.9,1.9s-0.9,1.9-1.9,1.9s-1.9-0.9-1.9-1.9S157.2,153.1,158.3,153.1L158.3,153.1z"/>
	<path d="M287.6,219.4c1.1,0,1.9,0.9,1.9,1.9c0,1.1-0.9,1.9-1.9,1.9s-1.9-0.9-1.9-1.9C285.7,220.3,286.5,219.4,287.6,219.4
		L287.6,219.4z"/>
	<path d="M92,287c1.1,0,1.9,0.9,1.9,1.9s-0.9,1.9-1.9,1.9c-1.1,0-1.9-0.9-1.9-1.9S90.9,287,92,287L92,287z"/>
	<path d="M119.9,142.2c1.1,0,1.9,0.9,1.9,1.9s-0.9,1.9-1.9,1.9c-1.1,0-1.9-0.9-1.9-1.9S118.8,142.2,119.9,142.2L119.9,142.2z"/>
	<path d="M104.8,226.2c1.1,0,1.9,0.9,1.9,1.9c0,1.1-0.9,1.9-1.9,1.9s-1.9-0.9-1.9-1.9C102.9,227.1,103.7,226.2,104.8,226.2
		L104.8,226.2z"/>
	<path d="M121.3,311.6c1.1,0,1.9,0.9,1.9,1.9s-0.9,1.9-1.9,1.9s-1.9-0.9-1.9-1.9S120.2,311.6,121.3,311.6L121.3,311.6z"/>
	<path d="M96.3,245.4c1.1,0,1.9,0.9,1.9,1.9s-0.9,1.9-1.9,1.9s-1.9-0.9-1.9-1.9S95.2,245.4,96.3,245.4L96.3,245.4z"/>
	<path d="M226.7,109.8c1.1,0,1.9,0.9,1.9,1.9c0,1.1-0.9,1.9-1.9,1.9c-1.1,0-1.9-0.9-1.9-1.9C224.8,110.7,225.7,109.8,226.7,109.8
		L226.7,109.8z"/>
	<path d="M231.9,190.2c1.1,0,1.9,0.9,1.9,1.9c0,1.1-0.9,1.9-1.9,1.9s-1.9-0.9-1.9-1.9C230,191,230.8,190.2,231.9,190.2L231.9,190.2z
		"/>
	<path d="M18.4,179.8c1.1,0,1.9,0.9,1.9,1.9c0,1.1-0.9,1.9-1.9,1.9c-1.1,0-1.9-0.9-1.9-1.9C16.5,180.7,17.4,179.8,18.4,179.8
		L18.4,179.8z"/>
	<path d="M254.7,201.4c1.1,0,1.9,0.9,1.9,1.9c0,1.1-0.9,1.9-1.9,1.9s-1.9-0.9-1.9-1.9C252.7,202.2,253.6,201.4,254.7,201.4
		L254.7,201.4z"/>
	<path d="M186.9,179.9c1.1,0,1.9,0.9,1.9,1.9s-0.9,1.9-1.9,1.9c-1.1,0-1.9-0.9-1.9-1.9S185.9,179.9,186.9,179.9L186.9,179.9z"/>
	<path d="M113.7,238.1c1.1,0,1.9,0.9,1.9,1.9s-0.9,1.9-1.9,1.9s-1.9-0.9-1.9-1.9S112.6,238.1,113.7,238.1L113.7,238.1z"/>
	<path d="M221.1,33.2c1.1,0,1.9,0.9,1.9,1.9c0,1.1-0.9,1.9-1.9,1.9c-1.1,0-1.9-0.9-1.9-1.9C219.2,34.1,220,33.2,221.1,33.2
		L221.1,33.2z"/>
	<path d="M137.6,307.3c1.1,0,1.9,0.9,1.9,1.9c0,1.1-0.9,1.9-1.9,1.9s-1.9-0.9-1.9-1.9C135.6,308.2,136.5,307.3,137.6,307.3
		L137.6,307.3z"/>
	<path d="M122.6,138.2c1.1,0,1.9,0.9,1.9,1.9c0,1.1-0.9,1.9-1.9,1.9c-1.1,0-1.9-0.9-1.9-1.9C120.7,139,121.5,138.2,122.6,138.2
		L122.6,138.2z"/>
	<path d="M198.9,190.8c1.1,0,1.9,0.9,1.9,1.9s-0.9,1.9-1.9,1.9s-1.9-0.9-1.9-1.9S197.8,190.8,198.9,190.8L198.9,190.8z"/>
	<path d="M188.6,171.8c1.1,0,1.9,0.9,1.9,1.9c0,1.1-0.9,1.9-1.9,1.9s-1.9-0.9-1.9-1.9C186.6,172.7,187.5,171.8,188.6,171.8
		L188.6,171.8z"/>
	<path d="M123.2,288c1.1,0,1.9,0.9,1.9,1.9s-0.9,1.9-1.9,1.9s-1.9-0.9-1.9-1.9S122.1,288,123.2,288L123.2,288z"/>
	<path d="M105.6,276.1c1.1,0,1.9,0.9,1.9,1.9s-0.9,1.9-1.9,1.9c-1.1,0-1.9-0.9-1.9-1.9S104.5,276.1,105.6,276.1L105.6,276.1z"/>
	<path d="M137.2,271.5c1.1,0,1.9,0.9,1.9,1.9c0,1.1-0.9,1.9-1.9,1.9c-1.1,0-1.9-0.9-1.9-1.9C135.2,272.4,136.1,271.5,137.2,271.5
		L137.2,271.5z"/>
	<path d="M128.3,146.2c1.1,0,1.9,0.9,1.9,1.9c0,1.1-0.9,1.9-1.9,1.9c-1.1,0-1.9-0.9-1.9-1.9C126.3,147.1,127.2,146.2,128.3,146.2
		L128.3,146.2z"/>
	<path d="M289.7,226.9c1.1,0,1.9,0.9,1.9,1.9s-0.9,1.9-1.9,1.9s-1.9-0.9-1.9-1.9S288.6,226.9,289.7,226.9L289.7,226.9z"/>
	<path d="M44.7,192.7c1.1,0,1.9,0.9,1.9,1.9s-0.9,1.9-1.9,1.9s-1.9-0.9-1.9-1.9S43.7,192.7,44.7,192.7L44.7,192.7z"/>
	<path d="M131.9,172.9c1.1,0,1.9,0.9,1.9,1.9c0,1.1-0.9,1.9-1.9,1.9s-1.9-0.9-1.9-1.9C129.9,173.8,130.8,172.9,131.9,172.9
		L131.9,172.9z"/>
	<path d="M119,277.3c1.1,0,1.9,0.9,1.9,1.9s-0.9,1.9-1.9,1.9s-1.9-0.9-1.9-1.9S118,277.3,119,277.3L119,277.3z"/>
	<path d="M118.4,281c1.1,0,1.9,0.9,1.9,1.9s-0.9,1.9-1.9,1.9s-1.9-0.9-1.9-1.9S117.3,281,118.4,281L118.4,281z"/>
	<path d="M247.9,113.3c1.1,0,1.9,0.9,1.9,1.9c0,1.1-0.9,1.9-1.9,1.9c-1.1,0-1.9-0.9-1.9-1.9C246,114.2,246.8,113.3,247.9,113.3
		L247.9,113.3z"/>
	<path d="M173.3,169.3c1.1,0,1.9,0.9,1.9,1.9c0,1.1-0.9,1.9-1.9,1.9c-1.1,0-1.9-0.9-1.9-1.9C171.3,170.2,172.2,169.3,173.3,169.3
		L173.3,169.3z"/>
	<path d="M182.3,156.4c1.1,0,1.9,0.9,1.9,1.9c0,1.1-0.9,1.9-1.9,1.9s-1.9-0.9-1.9-1.9C180.3,157.2,181.2,156.4,182.3,156.4
		L182.3,156.4z"/>
	<path d="M21.4,187.2c1.1,0,1.9,0.9,1.9,1.9s-0.9,1.9-1.9,1.9c-1.1,0-1.9-0.9-1.9-1.9S20.3,187.2,21.4,187.2L21.4,187.2z"/>
	<path d="M291.9,127.4c1.1,0,1.9,0.9,1.9,1.9c0,1.1-0.9,1.9-1.9,1.9s-1.9-0.9-1.9-1.9C290,128.3,290.9,127.4,291.9,127.4
		L291.9,127.4z"/>
	<path d="M138.6,179.2c1.1,0,1.9,0.9,1.9,1.9s-0.9,1.9-1.9,1.9s-1.9-0.9-1.9-1.9S137.5,179.2,138.6,179.2L138.6,179.2z"/>
	<path d="M166.4,173.7c1.1,0,1.9,0.9,1.9,1.9s-0.9,1.9-1.9,1.9c-1.1,0-1.9-0.9-1.9-1.9S165.4,173.7,166.4,173.7L166.4,173.7z"/>
	<path d="M151.4,91.8c1.1,0,1.9,0.9,1.9,1.9c0,1.1-0.9,1.9-1.9,1.9s-1.9-0.9-1.9-1.9C149.5,92.6,150.3,91.8,151.4,91.8L151.4,91.8z"
		/>
	<path d="M149.6,166.3c1.1,0,1.9,0.9,1.9,1.9s-0.9,1.9-1.9,1.9s-1.9-0.9-1.9-1.9S148.5,166.3,149.6,166.3L149.6,166.3z"/>
	<path d="M145.1,240.7c1.1,0,1.9,0.9,1.9,1.9s-0.9,1.9-1.9,1.9s-1.9-0.9-1.9-1.9S144,240.7,145.1,240.7L145.1,240.7z"/>
	<path d="M157.3,162c1.1,0,1.9,0.9,1.9,1.9c0,1.1-0.9,1.9-1.9,1.9s-1.9-0.9-1.9-1.9C155.4,162.9,156.3,162,157.3,162L157.3,162z"/>
	<path d="M238.1,115.6c1.1,0,1.9,0.9,1.9,1.9s-0.9,1.9-1.9,1.9s-1.9-0.9-1.9-1.9S237,115.6,238.1,115.6L238.1,115.6z"/>
	<path d="M83.5,222.8c1.1,0,1.9,0.9,1.9,1.9c0,1.1-0.9,1.9-1.9,1.9c-1.1,0-1.9-0.9-1.9-1.9C81.6,223.7,82.4,222.8,83.5,222.8
		L83.5,222.8z"/>
	<path d="M141.6,142.4c1.1,0,1.9,0.9,1.9,1.9s-0.9,1.9-1.9,1.9c-1.1,0-1.9-0.9-1.9-1.9S140.5,142.4,141.6,142.4L141.6,142.4z"/>
	<path d="M234.1,43.3c1.1,0,1.9,0.9,1.9,1.9c0,1.1-0.9,1.9-1.9,1.9s-1.9-0.9-1.9-1.9C232.2,44.2,233,43.3,234.1,43.3L234.1,43.3z"/>
	<path d="M246.3,211.9c1.1,0,1.9,0.9,1.9,1.9s-0.9,1.9-1.9,1.9s-1.9-0.9-1.9-1.9S245.2,211.9,246.3,211.9L246.3,211.9z"/>
	<path d="M251.6,206.6c1.1,0,1.9,0.9,1.9,1.9c0,1.1-0.9,1.9-1.9,1.9s-1.9-0.9-1.9-1.9C249.7,207.4,250.6,206.6,251.6,206.6
		L251.6,206.6z"/>
	<path d="M281.4,65.9c1.1,0,1.9,0.9,1.9,1.9c0,1.1-0.9,1.9-1.9,1.9s-1.9-0.9-1.9-1.9C279.5,66.7,280.3,65.9,281.4,65.9L281.4,65.9z"
		/>
	<path d="M82.9,218c1.1,0,1.9,0.9,1.9,1.9c0,1.1-0.9,1.9-1.9,1.9c-1.1,0-1.9-0.9-1.9-1.9C80.9,218.9,81.8,218,82.9,218L82.9,218z"/>
	<path d="M113.6,244.3c1.1,0,1.9,0.9,1.9,1.9s-0.9,1.9-1.9,1.9s-1.9-0.9-1.9-1.9S112.5,244.3,113.6,244.3L113.6,244.3z"/>
	<path d="M290.5,134.2c1.1,0,1.9,0.9,1.9,1.9c0,1.1-0.9,1.9-1.9,1.9c-1.1,0-1.9-0.9-1.9-1.9C288.6,135.1,289.4,134.2,290.5,134.2
		L290.5,134.2z"/>
	<path d="M142.7,154.2c1.1,0,1.9,0.9,1.9,1.9c0,1.1-0.9,1.9-1.9,1.9c-1.1,0-1.9-0.9-1.9-1.9C140.8,155.1,141.6,154.2,142.7,154.2
		L142.7,154.2z"/>
	<path d="M166.1,155.8c1.1,0,1.9,0.9,1.9,1.9c0,1.1-0.9,1.9-1.9,1.9s-1.9-0.9-1.9-1.9C164.2,156.6,165.1,155.8,166.1,155.8
		L166.1,155.8z"/>
	<path d="M107.4,238.5c1.1,0,1.9,0.9,1.9,1.9c0,1.1-0.9,1.9-1.9,1.9c-1.1,0-1.9-0.9-1.9-1.9C105.5,239.4,106.4,238.5,107.4,238.5
		L107.4,238.5z"/>
	<path d="M254.6,85.9c1.1,0,1.9,0.9,1.9,1.9c0,1.1-0.9,1.9-1.9,1.9c-1.1,0-1.9-0.9-1.9-1.9C252.7,86.8,253.6,85.9,254.6,85.9
		L254.6,85.9z"/>
	<path d="M253.3,71.4c1.1,0,1.9,0.9,1.9,1.9c0,1.1-0.9,1.9-1.9,1.9s-1.9-0.9-1.9-1.9C251.4,72.2,252.3,71.4,253.3,71.4L253.3,71.4z"
		/>
	<path d="M229,124.3c1.1,0,1.9,0.9,1.9,1.9s-0.9,1.9-1.9,1.9c-1.1,0-1.9-0.9-1.9-1.9S227.9,124.3,229,124.3L229,124.3z"/>
	<path d="M90,245.7c1.1,0,1.9,0.9,1.9,1.9s-0.9,1.9-1.9,1.9c-1.1,0-1.9-0.9-1.9-1.9S88.9,245.7,90,245.7L90,245.7z"/>
	<path d="M218,194c1.1,0,1.9,0.9,1.9,1.9c0,1.1-0.9,1.9-1.9,1.9S216,197,216,196C216,194.9,216.9,194,218,194L218,194z"/>
	<path d="M146.8,274.6c1.1,0,1.9,0.9,1.9,1.9s-0.9,1.9-1.9,1.9c-1.1,0-1.9-0.9-1.9-1.9S145.7,274.6,146.8,274.6L146.8,274.6z"/>
	<path d="M197,146.9c1.1,0,1.9,0.9,1.9,1.9c0,1.1-0.9,1.9-1.9,1.9s-1.9-0.9-1.9-1.9C195.1,147.8,195.9,146.9,197,146.9L197,146.9z"
		/>
	<path d="M121.7,263.5c1.1,0,1.9,0.9,1.9,1.9c0,1.1-0.9,1.9-1.9,1.9c-1.1,0-1.9-0.9-1.9-1.9C119.8,264.4,120.6,263.5,121.7,263.5
		L121.7,263.5z"/>
	<path d="M294.9,211.6c1.1,0,1.9,0.9,1.9,1.9s-0.9,1.9-1.9,1.9s-1.9-0.9-1.9-1.9S293.8,211.6,294.9,211.6L294.9,211.6z"/>
	<path d="M160,126.9c1.1,0,1.9,0.9,1.9,1.9c0,1.1-0.9,1.9-1.9,1.9c-1.1,0-1.9-0.9-1.9-1.9C158,127.8,158.9,126.9,160,126.9
		L160,126.9z"/>
	<path d="M177.8,191.9c1.1,0,1.9,0.9,1.9,1.9s-0.9,1.9-1.9,1.9s-1.9-0.9-1.9-1.9S176.7,191.9,177.8,191.9L177.8,191.9z"/>
	<path d="M254.1,83.9c1.1,0,1.9,0.9,1.9,1.9c0,1.1-0.9,1.9-1.9,1.9c-1.1,0-1.9-0.9-1.9-1.9C252.1,84.7,253,83.9,254.1,83.9
		L254.1,83.9z"/>
	<path d="M170.3,172c1.1,0,1.9,0.9,1.9,1.9c0,1.1-0.9,1.9-1.9,1.9c-1.1,0-1.9-0.9-1.9-1.9C168.4,172.8,169.2,172,170.3,172
		L170.3,172z"/>
	<path d="M155.8,173.6c1.1,0,1.9,0.9,1.9,1.9s-0.9,1.9-1.9,1.9s-1.9-0.9-1.9-1.9S154.7,173.6,155.8,173.6L155.8,173.6z"/>
	<path d="M246.3,86.4c1.1,0,1.9,0.9,1.9,1.9c0,1.1-0.9,1.9-1.9,1.9s-1.9-0.9-1.9-1.9C244.3,87.2,245.2,86.4,246.3,86.4L246.3,86.4z"
		/>
	<path d="M270.5,212.7c1.1,0,1.9,0.9,1.9,1.9c0,1.1-0.9,1.9-1.9,1.9s-1.9-0.9-1.9-1.9C268.6,213.6,269.4,212.7,270.5,212.7
		L270.5,212.7z"/>
	<path d="M168.6,156c1.1,0,1.9,0.9,1.9,1.9s-0.9,1.9-1.9,1.9s-1.9-0.9-1.9-1.9S167.6,156,168.6,156L168.6,156z"/>
	<path d="M146.9,238.6c1.1,0,1.9,0.9,1.9,1.9s-0.9,1.9-1.9,1.9c-1.1,0-1.9-0.9-1.9-1.9S145.9,238.6,146.9,238.6L146.9,238.6z"/>
	<path d="M150.7,149.8c1.1,0,1.9,0.9,1.9,1.9s-0.9,1.9-1.9,1.9s-1.9-0.9-1.9-1.9S149.6,149.8,150.7,149.8L150.7,149.8z"/>
	<path d="M172.1,165.7c1.1,0,1.9,0.9,1.9,1.9c0,1.1-0.9,1.9-1.9,1.9c-1.1,0-1.9-0.9-1.9-1.9C170.2,166.6,171,165.7,172.1,165.7
		L172.1,165.7z"/>
	<path d="M329.3,227.7c1.1,0,1.9,0.9,1.9,1.9s-0.9,1.9-1.9,1.9c-1.1,0-1.9-0.9-1.9-1.9S328.2,227.7,329.3,227.7L329.3,227.7z"/>
	<path d="M146.1,197.1c1.1,0,1.9,0.9,1.9,1.9s-0.9,1.9-1.9,1.9s-1.9-0.9-1.9-1.9S145,197.1,146.1,197.1L146.1,197.1z"/>
	<path d="M152.8,139.4c1.1,0,1.9,0.9,1.9,1.9c0,1.1-0.9,1.9-1.9,1.9c-1.1,0-1.9-0.9-1.9-1.9C150.9,140.3,151.7,139.4,152.8,139.4
		L152.8,139.4z"/>
	<path d="M80.7,224.3c1.1,0,1.9,0.9,1.9,1.9s-0.9,1.9-1.9,1.9s-1.9-0.9-1.9-1.9S79.6,224.3,80.7,224.3L80.7,224.3z"/>
	<path d="M146.6,78c1.1,0,1.9,0.9,1.9,1.9c0,1.1-0.9,1.9-1.9,1.9s-1.9-0.9-1.9-1.9C144.7,78.9,145.6,78,146.6,78L146.6,78z"/>
	<path d="M68.7,220.2c1.1,0,1.9,0.9,1.9,1.9c0,1.1-0.9,1.9-1.9,1.9s-1.9-0.9-1.9-1.9C66.8,221.1,67.6,220.2,68.7,220.2L68.7,220.2z"
		/>
	<path d="M229.4,118.9c1.1,0,1.9,0.9,1.9,1.9c0,1.1-0.9,1.9-1.9,1.9c-1.1,0-1.9-0.9-1.9-1.9C227.4,119.8,228.3,118.9,229.4,118.9
		L229.4,118.9z"/>
	<path d="M198.4,185.8c1.1,0,1.9,0.9,1.9,1.9s-0.9,1.9-1.9,1.9c-1.1,0-1.9-0.9-1.9-1.9S197.3,185.8,198.4,185.8L198.4,185.8z"/>
	<path d="M153.7,171.1c1.1,0,1.9,0.9,1.9,1.9c0,1.1-0.9,1.9-1.9,1.9s-1.9-0.9-1.9-1.9C151.7,171.9,152.6,171.1,153.7,171.1
		L153.7,171.1z"/>
	<path d="M280.3,80.7c1.1,0,1.9,0.9,1.9,1.9c0,1.1-0.9,1.9-1.9,1.9c-1.1,0-1.9-0.9-1.9-1.9C278.4,81.6,279.3,80.7,280.3,80.7
		L280.3,80.7z"/>
	<path d="M103.2,243.8c1.1,0,1.9,0.9,1.9,1.9s-0.9,1.9-1.9,1.9c-1.1,0-1.9-0.9-1.9-1.9S102.2,243.8,103.2,243.8L103.2,243.8z"/>
	<path d="M228.9,103.7c1.1,0,1.9,0.9,1.9,1.9c0,1.1-0.9,1.9-1.9,1.9c-1.1,0-1.9-0.9-1.9-1.9C226.9,104.6,227.8,103.7,228.9,103.7
		L228.9,103.7z"/>
	<path d="M117.4,227.1c1.1,0,1.9,0.9,1.9,1.9s-0.9,1.9-1.9,1.9s-1.9-0.9-1.9-1.9S116.3,227.1,117.4,227.1L117.4,227.1z"/>
	<path d="M254.8,91.9c1.1,0,1.9,0.9,1.9,1.9s-0.9,1.9-1.9,1.9s-1.9-0.9-1.9-1.9S253.8,91.9,254.8,91.9L254.8,91.9z"/>
	<path d="M135.8,310.5c1.1,0,1.9,0.9,1.9,1.9c0,1.1-0.9,1.9-1.9,1.9c-1.1,0-1.9-0.9-1.9-1.9C133.9,311.4,134.8,310.5,135.8,310.5
		L135.8,310.5z"/>
	<path d="M121.7,171.7c1.1,0,1.9,0.9,1.9,1.9c0,1.1-0.9,1.9-1.9,1.9c-1.1,0-1.9-0.9-1.9-1.9C119.7,172.6,120.6,171.7,121.7,171.7
		L121.7,171.7z"/>
	<path d="M125.1,297.5c1.1,0,1.9,0.9,1.9,1.9c0,1.1-0.9,1.9-1.9,1.9s-1.9-0.9-1.9-1.9C123.2,298.3,124,297.5,125.1,297.5
		L125.1,297.5z"/>
	<path d="M177.7,170.2c1.1,0,1.9,0.9,1.9,1.9c0,1.1-0.9,1.9-1.9,1.9c-1.1,0-1.9-0.9-1.9-1.9C175.7,171.1,176.6,170.2,177.7,170.2
		L177.7,170.2z"/>
	<path d="M271.8,114.2c1.1,0,1.9,0.9,1.9,1.9c0,1.1-0.9,1.9-1.9,1.9s-1.9-0.9-1.9-1.9C269.8,115,270.7,114.2,271.8,114.2
		L271.8,114.2z"/>
	<path d="M264.7,199c1.1,0,1.9,0.9,1.9,1.9s-0.9,1.9-1.9,1.9s-1.9-0.9-1.9-1.9S263.6,199,264.7,199L264.7,199z"/>
	<path d="M129.2,144.9c1.1,0,1.9,0.9,1.9,1.9c0,1.1-0.9,1.9-1.9,1.9c-1.1,0-1.9-0.9-1.9-1.9C127.3,145.7,128.1,144.9,129.2,144.9
		L129.2,144.9z"/>
	<path d="M103.5,274.8c1.1,0,1.9,0.9,1.9,1.9s-0.9,1.9-1.9,1.9c-1.1,0-1.9-0.9-1.9-1.9S102.5,274.8,103.5,274.8L103.5,274.8z"/>
	<path d="M169.7,129.1c1.1,0,1.9,0.9,1.9,1.9s-0.9,1.9-1.9,1.9s-1.9-0.9-1.9-1.9S168.6,129.1,169.7,129.1L169.7,129.1z"/>
	<path d="M140.3,306.7c1.1,0,1.9,0.9,1.9,1.9c0,1.1-0.9,1.9-1.9,1.9s-1.9-0.9-1.9-1.9C138.4,307.6,139.2,306.7,140.3,306.7
		L140.3,306.7z"/>
	<path d="M148,279.2c1.1,0,1.9,0.9,1.9,1.9s-0.9,1.9-1.9,1.9s-1.9-0.9-1.9-1.9S146.9,279.2,148,279.2L148,279.2z"/>
	<path d="M89.2,199.7c1.1,0,1.9,0.9,1.9,1.9c0,1.1-0.9,1.9-1.9,1.9c-1.1,0-1.9-0.9-1.9-1.9C87.2,200.6,88.1,199.7,89.2,199.7
		L89.2,199.7z"/>
	<path d="M102,240.3c1.1,0,1.9,0.9,1.9,1.9c0,1.1-0.9,1.9-1.9,1.9s-1.9-0.9-1.9-1.9C100.1,241.2,100.9,240.3,102,240.3L102,240.3z"
		/>
	<path d="M149.1,158.6c1.1,0,1.9,0.9,1.9,1.9c0,1.1-0.9,1.9-1.9,1.9c-1.1,0-1.9-0.9-1.9-1.9C147.1,159.5,148,158.6,149.1,158.6
		L149.1,158.6z"/>
	<path d="M224.3,46.4c1.1,0,1.9,0.9,1.9,1.9c0,1.1-0.9,1.9-1.9,1.9s-1.9-0.9-1.9-1.9C222.3,47.2,223.2,46.4,224.3,46.4L224.3,46.4z"
		/>
	<path d="M240.7,190.2c1.1,0,1.9,0.9,1.9,1.9c0,1.1-0.9,1.9-1.9,1.9c-1.1,0-1.9-0.9-1.9-1.9C238.7,191,239.6,190.2,240.7,190.2
		L240.7,190.2z"/>
	<path d="M52.9,195.2c1.1,0,1.9,0.9,1.9,1.9s-0.9,1.9-1.9,1.9c-1.1,0-1.9-0.9-1.9-1.9S51.8,195.2,52.9,195.2L52.9,195.2z"/>
	<path d="M94.2,288.6c1.1,0,1.9,0.9,1.9,1.9c0,1.1-0.9,1.9-1.9,1.9s-1.9-0.9-1.9-1.9C92.2,289.5,93.1,288.6,94.2,288.6L94.2,288.6z"
		/>
	<path d="M255.3,76.8c1.1,0,1.9,0.9,1.9,1.9s-0.9,1.9-1.9,1.9c-1.1,0-1.9-0.9-1.9-1.9S254.2,76.8,255.3,76.8L255.3,76.8z"/>
	<path d="M216.2,211c1.1,0,1.9,0.9,1.9,1.9c0,1.1-0.9,1.9-1.9,1.9c-1.1,0-1.9-0.9-1.9-1.9C214.3,211.9,215.2,211,216.2,211
		L216.2,211z"/>
	<path d="M336.9,225c1.1,0,1.9,0.9,1.9,1.9s-0.9,1.9-1.9,1.9c-1.1,0-1.9-0.9-1.9-1.9S335.8,225,336.9,225L336.9,225z"/>
	<path d="M93.7,217.5c1.1,0,1.9,0.9,1.9,1.9s-0.9,1.9-1.9,1.9c-1.1,0-1.9-0.9-1.9-1.9S92.6,217.5,93.7,217.5L93.7,217.5z"/>
	<path d="M59.5,224.8c1.1,0,1.9,0.9,1.9,1.9c0,1.1-0.9,1.9-1.9,1.9c-1.1,0-1.9-0.9-1.9-1.9C57.6,225.6,58.5,224.8,59.5,224.8
		L59.5,224.8z"/>
	<path d="M80.7,186.5c1.1,0,1.9,0.9,1.9,1.9c0,1.1-0.9,1.9-1.9,1.9s-1.9-0.9-1.9-1.9C78.7,187.3,79.6,186.5,80.7,186.5L80.7,186.5z"
		/>
	<path d="M317.3,247.1c1.1,0,1.9,0.9,1.9,1.9s-0.9,1.9-1.9,1.9c-1.1,0-1.9-0.9-1.9-1.9S316.3,247.1,317.3,247.1L317.3,247.1z"/>
	<path d="M156.3,89.4c1.1,0,1.9,0.9,1.9,1.9c0,1.1-0.9,1.9-1.9,1.9c-1.1,0-1.9-0.9-1.9-1.9C154.4,90.2,155.2,89.4,156.3,89.4
		L156.3,89.4z"/>
	<path d="M225.3,41.5c1.1,0,1.9,0.9,1.9,1.9c0,1.1-0.9,1.9-1.9,1.9c-1.1,0-1.9-0.9-1.9-1.9C223.3,42.4,224.2,41.5,225.3,41.5
		L225.3,41.5z"/>
	<path d="M101.5,273c1.1,0,1.9,0.9,1.9,1.9s-0.9,1.9-1.9,1.9c-1.1,0-1.9-0.9-1.9-1.9S100.4,273,101.5,273L101.5,273z"/>
	<path d="M268.2,225.3c1.1,0,1.9,0.9,1.9,1.9c0,1.1-0.9,1.9-1.9,1.9s-1.9-0.9-1.9-1.9C266.3,226.2,267.2,225.3,268.2,225.3
		L268.2,225.3z"/>
	<path d="M127.8,296.4c1.1,0,1.9,0.9,1.9,1.9s-0.9,1.9-1.9,1.9c-1.1,0-1.9-0.9-1.9-1.9S126.7,296.4,127.8,296.4L127.8,296.4z"/>
	<path d="M280.5,111.4c1.1,0,1.9,0.9,1.9,1.9c0,1.1-0.9,1.9-1.9,1.9s-1.9-0.9-1.9-1.9C278.5,112.3,279.4,111.4,280.5,111.4
		L280.5,111.4z"/>
	<path d="M272.4,122.1c1.1,0,1.9,0.9,1.9,1.9c0,1.1-0.9,1.9-1.9,1.9s-1.9-0.9-1.9-1.9C270.5,123,271.4,122.1,272.4,122.1
		L272.4,122.1z"/>
	<path d="M156,165c1.1,0,1.9,0.9,1.9,1.9c0,1.1-0.9,1.9-1.9,1.9c-1.1,0-1.9-0.9-1.9-1.9C154.1,165.9,155,165,156,165L156,165z"/>
	<path d="M310.6,246.9c1.1,0,1.9,0.9,1.9,1.9c0,1.1-0.9,1.9-1.9,1.9c-1.1,0-1.9-0.9-1.9-1.9C308.7,247.7,309.6,246.9,310.6,246.9
		L310.6,246.9z"/>
	<path d="M257.4,93.6c1.1,0,1.9,0.9,1.9,1.9s-0.9,1.9-1.9,1.9c-1.1,0-1.9-0.9-1.9-1.9S256.4,93.6,257.4,93.6L257.4,93.6z"/>
	<path d="M96.1,207.8c1.1,0,1.9,0.9,1.9,1.9s-0.9,1.9-1.9,1.9s-1.9-0.9-1.9-1.9S95,207.8,96.1,207.8L96.1,207.8z"/>
	<path d="M220.8,189.8c1.1,0,1.9,0.9,1.9,1.9s-0.9,1.9-1.9,1.9c-1.1,0-1.9-0.9-1.9-1.9S219.7,189.8,220.8,189.8L220.8,189.8z"/>
	<path d="M110.2,245.7c1.1,0,1.9,0.9,1.9,1.9c0,1.1-0.9,1.9-1.9,1.9c-1.1,0-1.9-0.9-1.9-1.9C108.3,246.6,109.1,245.7,110.2,245.7
		L110.2,245.7z"/>
	<path d="M135.1,174.3c1.1,0,1.9,0.9,1.9,1.9s-0.9,1.9-1.9,1.9c-1.1,0-1.9-0.9-1.9-1.9S134.1,174.3,135.1,174.3L135.1,174.3z"/>
	<path d="M174,176c1.1,0,1.9,0.9,1.9,1.9c0,1.1-0.9,1.9-1.9,1.9c-1.1,0-1.9-0.9-1.9-1.9C172.1,176.9,173,176,174,176L174,176z"/>
	<path d="M175.7,193.5c1.1,0,1.9,0.9,1.9,1.9s-0.9,1.9-1.9,1.9c-1.1,0-1.9-0.9-1.9-1.9S174.6,193.5,175.7,193.5L175.7,193.5z"/>
	<path d="M15.1,184.3c1.1,0,1.9,0.9,1.9,1.9s-0.9,1.9-1.9,1.9s-1.9-0.9-1.9-1.9S14,184.3,15.1,184.3L15.1,184.3z"/>
	<path d="M284.7,70.7c1.1,0,1.9,0.9,1.9,1.9c0,1.1-0.9,1.9-1.9,1.9c-1.1,0-1.9-0.9-1.9-1.9C282.8,71.5,283.6,70.7,284.7,70.7
		L284.7,70.7z"/>
	<path d="M168.1,178.2c1.1,0,1.9,0.9,1.9,1.9c0,1.1-0.9,1.9-1.9,1.9s-1.9-0.9-1.9-1.9C166.2,179,167,178.2,168.1,178.2L168.1,178.2z
		"/>
	<path d="M160.9,177.8c1.1,0,1.9,0.9,1.9,1.9s-0.9,1.9-1.9,1.9c-1.1,0-1.9-0.9-1.9-1.9S159.8,177.8,160.9,177.8L160.9,177.8z"/>
	<path d="M51.8,186.3c1.1,0,1.9,0.9,1.9,1.9c0,1.1-0.9,1.9-1.9,1.9c-1.1,0-1.9-0.9-1.9-1.9C49.9,187.1,50.8,186.3,51.8,186.3
		L51.8,186.3z"/>
	<path d="M233.5,48.5c1.1,0,1.9,0.9,1.9,1.9c0,1.1-0.9,1.9-1.9,1.9s-1.9-0.9-1.9-1.9C231.6,49.4,232.5,48.5,233.5,48.5L233.5,48.5z"
		/>
	<path d="M168.6,168.5c1.1,0,1.9,0.9,1.9,1.9c0,1.1-0.9,1.9-1.9,1.9c-1.1,0-1.9-0.9-1.9-1.9C166.6,169.4,167.5,168.5,168.6,168.5
		L168.6,168.5z"/>
	<path d="M265.5,70.6c1.1,0,1.9,0.9,1.9,1.9s-0.9,1.9-1.9,1.9s-1.9-0.9-1.9-1.9S264.4,70.6,265.5,70.6L265.5,70.6z"/>
	<path d="M290.4,211.7c1.1,0,1.9,0.9,1.9,1.9c0,1.1-0.9,1.9-1.9,1.9s-1.9-0.9-1.9-1.9C288.4,212.6,289.3,211.7,290.4,211.7
		L290.4,211.7z"/>
	<path d="M159.3,157.6c1.1,0,1.9,0.9,1.9,1.9c0,1.1-0.9,1.9-1.9,1.9s-1.9-0.9-1.9-1.9C157.4,158.5,158.3,157.6,159.3,157.6
		L159.3,157.6z"/>
	<path d="M222.5,218.9c1.1,0,1.9,0.9,1.9,1.9c0,1.1-0.9,1.9-1.9,1.9s-1.9-0.9-1.9-1.9C220.6,219.7,221.4,218.9,222.5,218.9
		L222.5,218.9z"/>
	<path d="M329.2,235.2c1.1,0,1.9,0.9,1.9,1.9s-0.9,1.9-1.9,1.9s-1.9-0.9-1.9-1.9S328.1,235.2,329.2,235.2L329.2,235.2z"/>
	<path d="M38.1,198.7c1.1,0,1.9,0.9,1.9,1.9c0,1.1-0.9,1.9-1.9,1.9s-1.9-0.9-1.9-1.9C36.2,199.5,37,198.7,38.1,198.7L38.1,198.7z"/>
	<path d="M88.4,193.2c1.1,0,1.9,0.9,1.9,1.9s-0.9,1.9-1.9,1.9s-1.9-0.9-1.9-1.9S87.3,193.2,88.4,193.2L88.4,193.2z"/>
	<path d="M89.8,209.2c1.1,0,1.9,0.9,1.9,1.9c0,1.1-0.9,1.9-1.9,1.9s-1.9-0.9-1.9-1.9C87.8,210.1,88.7,209.2,89.8,209.2L89.8,209.2z"
		/>
	<path d="M191.8,150.5c1.1,0,1.9,0.9,1.9,1.9c0,1.1-0.9,1.9-1.9,1.9c-1.1,0-1.9-0.9-1.9-1.9C189.9,151.3,190.8,150.5,191.8,150.5
		L191.8,150.5z"/>
	<path d="M151.8,86.8c1.1,0,1.9,0.9,1.9,1.9s-0.9,1.9-1.9,1.9s-1.9-0.9-1.9-1.9S150.8,86.8,151.8,86.8L151.8,86.8z"/>
	<path d="M278.7,126.4c1.1,0,1.9,0.9,1.9,1.9c0,1.1-0.9,1.9-1.9,1.9c-1.1,0-1.9-0.9-1.9-1.9C276.8,127.3,277.6,126.4,278.7,126.4
		L278.7,126.4z"/>
	<path d="M170.4,174.4c1.1,0,1.9,0.9,1.9,1.9c0,1.1-0.9,1.9-1.9,1.9c-1.1,0-1.9-0.9-1.9-1.9C168.5,175.2,169.4,174.4,170.4,174.4
		L170.4,174.4z"/>
	<path d="M314.3,243.1c1.1,0,1.9,0.9,1.9,1.9s-0.9,1.9-1.9,1.9s-1.9-0.9-1.9-1.9S313.3,243.1,314.3,243.1L314.3,243.1z"/>
	<path d="M126.5,220.6c1.1,0,1.9,0.9,1.9,1.9c0,1.1-0.9,1.9-1.9,1.9c-1.1,0-1.9-0.9-1.9-1.9C124.5,221.5,125.4,220.6,126.5,220.6
		L126.5,220.6z"/>
	<path d="M268.7,116.8c1.1,0,1.9,0.9,1.9,1.9c0,1.1-0.9,1.9-1.9,1.9s-1.9-0.9-1.9-1.9C266.8,117.7,267.7,116.8,268.7,116.8
		L268.7,116.8z"/>
	<path d="M254.2,101.4c1.1,0,1.9,0.9,1.9,1.9c0,1.1-0.9,1.9-1.9,1.9s-1.9-0.9-1.9-1.9C252.2,102.3,253.1,101.4,254.2,101.4
		L254.2,101.4z"/>
	<path d="M160.6,119.2c1.1,0,1.9,0.9,1.9,1.9c0,1.1-0.9,1.9-1.9,1.9c-1.1,0-1.9-0.9-1.9-1.9C158.7,120.1,159.6,119.2,160.6,119.2
		L160.6,119.2z"/>
	<path d="M142.3,139.9c1.1,0,1.9,0.9,1.9,1.9c0,1.1-0.9,1.9-1.9,1.9s-1.9-0.9-1.9-1.9C140.3,140.7,141.2,139.9,142.3,139.9
		L142.3,139.9z"/>
	<path d="M303,133.5c1.1,0,1.9,0.9,1.9,1.9s-0.9,1.9-1.9,1.9s-1.9-0.9-1.9-1.9S301.9,133.5,303,133.5L303,133.5z"/>
	<path d="M97.4,288.9c1.1,0,1.9,0.9,1.9,1.9s-0.9,1.9-1.9,1.9s-1.9-0.9-1.9-1.9S96.3,288.9,97.4,288.9L97.4,288.9z"/>
	<path d="M121.6,280.5c1.1,0,1.9,0.9,1.9,1.9s-0.9,1.9-1.9,1.9c-1.1,0-1.9-0.9-1.9-1.9S120.5,280.5,121.6,280.5L121.6,280.5z"/>
	<path d="M261,113.2c1.1,0,1.9,0.9,1.9,1.9c0,1.1-0.9,1.9-1.9,1.9c-1.1,0-1.9-0.9-1.9-1.9C259.1,114.1,260,113.2,261,113.2
		L261,113.2z"/>
</g>
</svg>
