<?xml version="1.0" encoding="utf-8"?>
<!-- Generator: Adobe Illustrator 21.1.0, SVG Export Plug-In . SVG Version: 6.00 Build 0)  -->
<svg version="1.1" id="Layer_1" xmlns="http://www.w3.org/2000/svg" xmlns:xlink="http://www.w3.org/1999/xlink" x="0px" y="0px"
	 viewBox="0 0 350 350" style="enable-background:new 0 0 350 350;" xml:space="preserve">
<style type="text/css">
	.st0{fill:none;stroke:#231F20;stroke-width:0.75;stroke-linecap:square;stroke-miterlimit:10;}
</style>
<g>
	<line class="st0" x1="144.1" y1="289.4" x2="173.2" y2="202.2"/>
	<line class="st0" x1="184.1" y1="176.3" x2="189.8" y2="262.4"/>
	<line class="st0" x1="209" y1="276.4" x2="226.6" y2="233.9"/>
	<line class="st0" x1="174.7" y1="237.5" x2="218.8" y2="189.3"/>
	<line class="st0" x1="232.9" y1="208.5" x2="218.8" y2="189.3"/>
	<line class="st0" x1="163.3" y1="277.5" x2="241.7" y2="316.4"/>
	<line class="st0" x1="218.8" y1="189.3" x2="163.3" y2="277.5"/>
	<line class="st0" x1="238.6" y1="293.1" x2="189.8" y2="262.4"/>
	<line class="st0" x1="238.6" y1="293.1" x2="261.4" y2="289.9"/>
	<line class="st0" x1="218.8" y1="189.3" x2="261.4" y2="289.9"/>
	<line class="st0" x1="247.4" y1="260.9" x2="163.3" y2="277.5"/>
	<line class="st0" x1="184.1" y1="176.3" x2="241.7" y2="316.4"/>
	<line class="st0" x1="163.8" y1="308.1" x2="232.9" y2="208.5"/>
	<line class="st0" x1="173.2" y1="202.2" x2="217.8" y2="316.9"/>
	<line class="st0" x1="209" y1="276.4" x2="191.9" y2="301.9"/>
	<line class="st0" x1="232.9" y1="208.5" x2="238.6" y2="293.1"/>
	<line class="st0" x1="238.6" y1="293.1" x2="241.7" y2="316.4"/>
	<line class="st0" x1="232.9" y1="208.5" x2="271.3" y2="226.1"/>
	<line class="st0" x1="174.7" y1="237.5" x2="195.5" y2="206.4"/>
	<line class="st0" x1="232.9" y1="208.5" x2="195.5" y2="206.4"/>
	<line class="st0" x1="174.7" y1="237.5" x2="271.3" y2="226.1"/>
	<line class="st0" x1="194.5" y1="324.7" x2="152.9" y2="210"/>
	<line class="st0" x1="152.9" y1="210" x2="226.6" y2="233.9"/>
	<line class="st0" x1="163.8" y1="308.1" x2="152.9" y2="210"/>
	<line class="st0" x1="266.6" y1="245.3" x2="195.5" y2="206.4"/>
	<line class="st0" x1="232.9" y1="208.5" x2="194.5" y2="324.7"/>
	<line class="st0" x1="174.7" y1="237.5" x2="194.5" y2="324.7"/>
	<line class="st0" x1="274.9" y1="268.7" x2="218.8" y2="189.3"/>
	<line class="st0" x1="217.8" y1="316.9" x2="189.8" y2="262.4"/>
	<line class="st0" x1="189.8" y1="262.4" x2="226.6" y2="233.9"/>
	<line class="st0" x1="148.3" y1="237.5" x2="247.4" y2="260.9"/>
	<line class="st0" x1="266.6" y1="245.3" x2="247.4" y2="260.9"/>
	<line class="st0" x1="141.5" y1="259.8" x2="75.1" y2="244.3"/>
	<line class="st0" x1="163.8" y1="308.1" x2="217.8" y2="316.9"/>
	<line class="st0" x1="274.9" y1="268.7" x2="247.4" y2="260.9"/>
	<line class="st0" x1="232.9" y1="208.5" x2="254.7" y2="208"/>
	<line class="st0" x1="209" y1="276.4" x2="173.2" y2="202.2"/>
	<line class="st0" x1="152.9" y1="210" x2="191.9" y2="301.9"/>
	<line class="st0" x1="144.1" y1="289.4" x2="141.5" y2="259.8"/>
	<line class="st0" x1="266.6" y1="245.3" x2="254.7" y2="208"/>
	<line class="st0" x1="217.8" y1="316.9" x2="241.7" y2="316.4"/>
	<line class="st0" x1="209" y1="276.4" x2="75.1" y2="244.3"/>
	<line class="st0" x1="184.1" y1="176.3" x2="261.4" y2="289.9"/>
	<line class="st0" x1="184.1" y1="176.3" x2="163.3" y2="277.5"/>
	<line class="st0" x1="191.9" y1="301.9" x2="195.5" y2="206.4"/>
	<line class="st0" x1="148.3" y1="237.5" x2="152.9" y2="210"/>
	<line class="st0" x1="174.7" y1="237.5" x2="238.6" y2="293.1"/>
	<line class="st0" x1="148.3" y1="237.5" x2="217.8" y2="316.9"/>
	<line class="st0" x1="209" y1="276.4" x2="144.1" y2="289.4"/>
	<line class="st0" x1="274.9" y1="268.7" x2="217.8" y2="316.9"/>
	<line class="st0" x1="266.6" y1="245.3" x2="217.8" y2="316.9"/>
	<line class="st0" x1="238.6" y1="293.1" x2="163.3" y2="277.5"/>
	<line class="st0" x1="266.6" y1="245.3" x2="148.3" y2="237.5"/>
	<line class="st0" x1="232.9" y1="208.5" x2="148.3" y2="237.5"/>
	<line class="st0" x1="274.9" y1="268.7" x2="163.3" y2="277.5"/>
	<line class="st0" x1="247.4" y1="260.9" x2="254.7" y2="208"/>
	<line class="st0" x1="271.3" y1="226.1" x2="173.2" y2="202.2"/>
	<line class="st0" x1="194.5" y1="324.7" x2="173.2" y2="202.2"/>
	<line class="st0" x1="238.6" y1="293.1" x2="218.8" y2="189.3"/>
	<line class="st0" x1="191.9" y1="301.9" x2="254.7" y2="208"/>
	<line class="st0" x1="163.8" y1="308.1" x2="226.6" y2="233.9"/>
	<line class="st0" x1="152.9" y1="210" x2="173.2" y2="202.2"/>
	<line class="st0" x1="271.3" y1="226.1" x2="226.6" y2="233.9"/>
	<line class="st0" x1="141.5" y1="259.8" x2="189.8" y2="262.4"/>
	<line class="st0" x1="174.7" y1="237.5" x2="266.6" y2="245.3"/>
	<line class="st0" x1="232.9" y1="208.5" x2="266.6" y2="245.3"/>
	<line class="st0" x1="194.5" y1="324.7" x2="226.6" y2="233.9"/>
	<line class="st0" x1="261.4" y1="289.9" x2="189.8" y2="262.4"/>
	<line class="st0" x1="184.1" y1="176.3" x2="209" y2="276.4"/>
	<line class="st0" x1="217.8" y1="316.9" x2="163.3" y2="277.5"/>
	<line class="st0" x1="274.9" y1="268.7" x2="238.6" y2="293.1"/>
	<line class="st0" x1="174.7" y1="237.5" x2="247.4" y2="260.9"/>
	<line class="st0" x1="232.9" y1="208.5" x2="247.4" y2="260.9"/>
	<line class="st0" x1="184.1" y1="176.3" x2="274.9" y2="268.7"/>
	<line class="st0" x1="174.7" y1="237.5" x2="254.7" y2="208"/>
	<line class="st0" x1="141.5" y1="259.8" x2="241.7" y2="316.4"/>
	<line class="st0" x1="184.1" y1="176.3" x2="208.5" y2="25.3"/>
	<line class="st0" x1="194.5" y1="324.7" x2="191.9" y2="301.9"/>
	<line class="st0" x1="271.3" y1="226.1" x2="191.9" y2="301.9"/>
	<line class="st0" x1="261.4" y1="289.9" x2="241.7" y2="316.4"/>
	<line class="st0" x1="209" y1="276.4" x2="141.5" y2="259.8"/>
	<line class="st0" x1="218.8" y1="189.3" x2="195.5" y2="206.4"/>
	<line class="st0" x1="247.4" y1="260.9" x2="195.5" y2="206.4"/>
	<line class="st0" x1="218.8" y1="189.3" x2="271.3" y2="226.1"/>
	<line class="st0" x1="152.9" y1="210" x2="75.1" y2="244.3"/>
	<line class="st0" x1="232.9" y1="208.5" x2="217.8" y2="316.9"/>
	<line class="st0" x1="238.6" y1="293.1" x2="254.7" y2="208"/>
	<line class="st0" x1="218.8" y1="189.3" x2="247.4" y2="260.9"/>
	<line class="st0" x1="274.9" y1="268.7" x2="261.4" y2="289.9"/>
	<line class="st0" x1="274.9" y1="268.7" x2="141.5" y2="259.8"/>
	<line class="st0" x1="174.7" y1="237.5" x2="148.3" y2="237.5"/>
	<line class="st0" x1="266.6" y1="245.3" x2="152.9" y2="210"/>
	<line class="st0" x1="174.7" y1="237.5" x2="217.8" y2="316.9"/>
	<line class="st0" x1="195.5" y1="206.4" x2="226.6" y2="233.9"/>
	<line class="st0" x1="238.6" y1="293.1" x2="194.5" y2="324.7"/>
	<line class="st0" x1="184.1" y1="176.3" x2="194.5" y2="324.7"/>
	<line class="st0" x1="173.2" y1="202.2" x2="226.6" y2="233.9"/>
	<line class="st0" x1="226.6" y1="233.9" x2="241.7" y2="316.4"/>
	<line class="st0" x1="184.1" y1="176.3" x2="218.8" y2="189.3"/>
	<line class="st0" x1="217.8" y1="316.9" x2="195.5" y2="206.4"/>
	<line class="st0" x1="194.5" y1="324.7" x2="141.5" y2="259.8"/>
	<line class="st0" x1="209" y1="276.4" x2="189.8" y2="262.4"/>
	<line class="st0" x1="189.8" y1="262.4" x2="241.7" y2="316.4"/>
	<line class="st0" x1="218.8" y1="189.3" x2="254.7" y2="208"/>
	<line class="st0" x1="173.2" y1="202.2" x2="84.4" y2="107.8"/>
	<line class="st0" x1="173.2" y1="202.2" x2="191.9" y2="301.9"/>
	<line class="st0" x1="163.8" y1="308.1" x2="173.2" y2="202.2"/>
	<line class="st0" x1="174.7" y1="237.5" x2="163.8" y2="308.1"/>
	<line class="st0" x1="163.8" y1="308.1" x2="191.9" y2="301.9"/>
	<line class="st0" x1="174.7" y1="237.5" x2="232.9" y2="208.5"/>
	<line class="st0" x1="209" y1="276.4" x2="241.7" y2="316.4"/>
	<line class="st0" x1="261.4" y1="289.9" x2="163.3" y2="277.5"/>
	<line class="st0" x1="191.9" y1="301.9" x2="217.8" y2="316.9"/>
	<line class="st0" x1="144.1" y1="289.4" x2="261.4" y2="289.9"/>
	<line class="st0" x1="141.5" y1="259.8" x2="261.4" y2="289.9"/>
	<line class="st0" x1="141.5" y1="259.8" x2="163.3" y2="277.5"/>
	<line class="st0" x1="144.1" y1="289.4" x2="189.8" y2="262.4"/>
	<line class="st0" x1="232.9" y1="208.5" x2="152.9" y2="210"/>
	<line class="st0" x1="174.7" y1="237.5" x2="152.9" y2="210"/>
	<line class="st0" x1="238.6" y1="293.1" x2="266.6" y2="245.3"/>
	<line class="st0" x1="148.3" y1="237.5" x2="226.6" y2="233.9"/>
	<line class="st0" x1="238.6" y1="293.1" x2="271.3" y2="226.1"/>
	<line class="st0" x1="238.6" y1="293.1" x2="195.5" y2="206.4"/>
	<line class="st0" x1="184.1" y1="176.3" x2="271.3" y2="226.1"/>
	<line class="st0" x1="144.1" y1="289.4" x2="241.7" y2="316.4"/>
	<line class="st0" x1="184.1" y1="176.3" x2="195.5" y2="206.4"/>
	<line class="st0" x1="266.6" y1="245.3" x2="191.9" y2="301.9"/>
	<line class="st0" x1="150.4" y1="26.8" x2="208.5" y2="25.3"/>
	<line class="st0" x1="148.3" y1="237.5" x2="191.9" y2="301.9"/>
	<line class="st0" x1="184.1" y1="176.3" x2="174.7" y2="237.5"/>
	<line class="st0" x1="271.3" y1="226.1" x2="241.7" y2="316.4"/>
	<line class="st0" x1="184.1" y1="176.3" x2="254.7" y2="208"/>
	<line class="st0" x1="184.1" y1="176.3" x2="247.4" y2="260.9"/>
	<line class="st0" x1="274.9" y1="268.7" x2="144.1" y2="289.4"/>
	<line class="st0" x1="274.9" y1="268.7" x2="209" y2="276.4"/>
	<line class="st0" x1="238.6" y1="293.1" x2="247.4" y2="260.9"/>
	<line class="st0" x1="152.9" y1="210" x2="189.8" y2="262.4"/>
	<line class="st0" x1="189.8" y1="262.4" x2="163.3" y2="277.5"/>
	<line class="st0" x1="247.4" y1="260.9" x2="152.9" y2="210"/>
	<line class="st0" x1="218.8" y1="189.3" x2="152.9" y2="210"/>
	<line class="st0" x1="144.1" y1="289.4" x2="194.5" y2="324.7"/>
	<line class="st0" x1="254.7" y1="208" x2="226.6" y2="233.9"/>
	<line class="st0" x1="163.8" y1="308.1" x2="141.5" y2="259.8"/>
	<line class="st0" x1="141.5" y1="259.8" x2="271.3" y2="226.1"/>
	<line class="st0" x1="261.4" y1="289.9" x2="195.5" y2="206.4"/>
	<line class="st0" x1="141.5" y1="259.8" x2="195.5" y2="206.4"/>
	<line class="st0" x1="152.9" y1="210" x2="241.7" y2="316.4"/>
	<line class="st0" x1="247.4" y1="260.9" x2="217.8" y2="316.9"/>
	<line class="st0" x1="274.9" y1="268.7" x2="226.6" y2="233.9"/>
	<line class="st0" x1="261.4" y1="289.9" x2="254.7" y2="208"/>
	<line class="st0" x1="218.8" y1="189.3" x2="148.3" y2="237.5"/>
	<line class="st0" x1="238.6" y1="293.1" x2="148.3" y2="237.5"/>
	<line class="st0" x1="274.9" y1="268.7" x2="189.8" y2="262.4"/>
	<line class="st0" x1="209" y1="276.4" x2="261.4" y2="289.9"/>
	<line class="st0" x1="144.1" y1="289.4" x2="163.3" y2="277.5"/>
	<line class="st0" x1="218.8" y1="189.3" x2="217.8" y2="316.9"/>
	<line class="st0" x1="184.1" y1="176.3" x2="238.6" y2="293.1"/>
	<line class="st0" x1="163.8" y1="308.1" x2="144.1" y2="289.4"/>
	<line class="st0" x1="209" y1="276.4" x2="163.3" y2="277.5"/>
	<line class="st0" x1="266.6" y1="245.3" x2="226.6" y2="233.9"/>
	<line class="st0" x1="184.1" y1="176.3" x2="266.6" y2="245.3"/>
	<line class="st0" x1="194.5" y1="324.7" x2="189.8" y2="262.4"/>
	<line class="st0" x1="271.3" y1="226.1" x2="189.8" y2="262.4"/>
	<line class="st0" x1="217.8" y1="316.9" x2="254.7" y2="208"/>
	<line class="st0" x1="144.1" y1="289.4" x2="218.8" y2="189.3"/>
	<line class="st0" x1="232.9" y1="208.5" x2="226.6" y2="233.9"/>
	<line class="st0" x1="266.6" y1="245.3" x2="173.2" y2="202.2"/>
	<line class="st0" x1="148.3" y1="237.5" x2="173.2" y2="202.2"/>
	<line class="st0" x1="247.4" y1="260.9" x2="226.6" y2="233.9"/>
	<line class="st0" x1="144.1" y1="289.4" x2="266.6" y2="245.3"/>
	<line class="st0" x1="144.1" y1="289.4" x2="195.5" y2="206.4"/>
	<line class="st0" x1="238.6" y1="293.1" x2="152.9" y2="210"/>
	<line class="st0" x1="184.1" y1="176.3" x2="152.9" y2="210"/>
	<line class="st0" x1="209" y1="276.4" x2="194.5" y2="324.7"/>
	<line class="st0" x1="144.1" y1="289.4" x2="247.4" y2="260.9"/>
	<line class="st0" x1="191.9" y1="301.9" x2="226.6" y2="233.9"/>
	<line class="st0" x1="274.9" y1="268.7" x2="194.5" y2="324.7"/>
	<line class="st0" x1="184.1" y1="176.3" x2="217.8" y2="316.9"/>
	<line class="st0" x1="173.2" y1="202.2" x2="189.8" y2="262.4"/>
	<line class="st0" x1="174.7" y1="237.5" x2="191.9" y2="301.9"/>
	<line class="st0" x1="152.9" y1="210" x2="163.3" y2="277.5"/>
	<line class="st0" x1="271.3" y1="226.1" x2="261.4" y2="289.9"/>
	<line class="st0" x1="184.1" y1="176.3" x2="232.9" y2="208.5"/>
	<line class="st0" x1="184.1" y1="176.3" x2="163.8" y2="308.1"/>
	<line class="st0" x1="209" y1="276.4" x2="195.5" y2="206.4"/>
	<line class="st0" x1="194.5" y1="324.7" x2="241.7" y2="316.4"/>
	<line class="st0" x1="232.9" y1="208.5" x2="191.9" y2="301.9"/>
	<line class="st0" x1="163.8" y1="308.1" x2="241.7" y2="316.4"/>
	<line class="st0" x1="209" y1="276.4" x2="271.3" y2="226.1"/>
	<line class="st0" x1="144.1" y1="289.4" x2="271.3" y2="226.1"/>
	<line class="st0" x1="163.8" y1="308.1" x2="189.8" y2="262.4"/>
	<line class="st0" x1="266.6" y1="245.3" x2="141.5" y2="259.8"/>
	<line class="st0" x1="209" y1="276.4" x2="218.8" y2="189.3"/>
	<line class="st0" x1="174.7" y1="237.5" x2="226.6" y2="233.9"/>
	<line class="st0" x1="189.8" y1="262.4" x2="195.5" y2="206.4"/>
	<line class="st0" x1="271.3" y1="226.1" x2="163.3" y2="277.5"/>
	<line class="st0" x1="163.8" y1="308.1" x2="261.4" y2="289.9"/>
	<line class="st0" x1="194.5" y1="324.7" x2="261.4" y2="289.9"/>
	<line class="st0" x1="194.5" y1="324.7" x2="163.3" y2="277.5"/>
	<line class="st0" x1="209" y1="276.4" x2="238.6" y2="293.1"/>
	<line class="st0" x1="184.1" y1="176.3" x2="148.3" y2="237.5"/>
	<line class="st0" x1="274.9" y1="268.7" x2="271.3" y2="226.1"/>
	<line class="st0" x1="274.9" y1="268.7" x2="152.9" y2="210"/>
	<line class="st0" x1="141.5" y1="259.8" x2="247.4" y2="260.9"/>
	<line class="st0" x1="144.1" y1="289.4" x2="254.7" y2="208"/>
	<line class="st0" x1="238.6" y1="293.1" x2="217.8" y2="316.9"/>
	<line class="st0" x1="184.1" y1="176.3" x2="75.1" y2="244.3"/>
	<line class="st0" x1="232.9" y1="208.5" x2="173.2" y2="202.2"/>
	<line class="st0" x1="174.7" y1="237.5" x2="173.2" y2="202.2"/>
	<line class="st0" x1="141.5" y1="259.8" x2="254.7" y2="208"/>
	<line class="st0" x1="195.5" y1="206.4" x2="241.7" y2="316.4"/>
	<line class="st0" x1="148.3" y1="237.5" x2="189.8" y2="262.4"/>
	<line class="st0" x1="194.5" y1="324.7" x2="218.8" y2="189.3"/>
	<line class="st0" x1="266.6" y1="245.3" x2="189.8" y2="262.4"/>
	<line class="st0" x1="209" y1="276.4" x2="266.6" y2="245.3"/>
	<line class="st0" x1="218.8" y1="189.3" x2="226.6" y2="233.9"/>
	<line class="st0" x1="148.3" y1="237.5" x2="261.4" y2="289.9"/>
	<line class="st0" x1="195.5" y1="206.4" x2="163.3" y2="277.5"/>
	<line class="st0" x1="209" y1="276.4" x2="247.4" y2="260.9"/>
	<line class="st0" x1="173.2" y1="202.2" x2="163.3" y2="277.5"/>
	<line class="st0" x1="274.9" y1="268.7" x2="163.8" y2="308.1"/>
	<line class="st0" x1="209" y1="276.4" x2="163.8" y2="308.1"/>
	<line class="st0" x1="141.5" y1="259.8" x2="148.3" y2="237.5"/>
	<line class="st0" x1="274.9" y1="268.7" x2="195.5" y2="206.4"/>
	<line class="st0" x1="274.9" y1="268.7" x2="241.7" y2="316.4"/>
	<line class="st0" x1="144.1" y1="289.4" x2="148.3" y2="237.5"/>
	<line class="st0" x1="152.9" y1="210" x2="254.7" y2="208"/>
	<line class="st0" x1="261.4" y1="289.9" x2="217.8" y2="316.9"/>
	<line class="st0" x1="247.4" y1="260.9" x2="173.2" y2="202.2"/>
	<line class="st0" x1="218.8" y1="189.3" x2="173.2" y2="202.2"/>
	<line class="st0" x1="238.6" y1="293.1" x2="226.6" y2="233.9"/>
	<line class="st0" x1="189.8" y1="262.4" x2="254.7" y2="208"/>
	<line class="st0" x1="163.3" y1="277.5" x2="226.6" y2="233.9"/>
	<line class="st0" x1="174.7" y1="237.5" x2="144.1" y2="289.4"/>
	<line class="st0" x1="152.9" y1="210" x2="195.5" y2="206.4"/>
	<line class="st0" x1="261.4" y1="289.9" x2="152.9" y2="210"/>
	<line class="st0" x1="141.5" y1="259.8" x2="152.9" y2="210"/>
	<line class="st0" x1="274.9" y1="268.7" x2="173.2" y2="202.2"/>
	<line class="st0" x1="232.9" y1="208.5" x2="144.1" y2="289.4"/>
	<line class="st0" x1="209" y1="276.4" x2="148.3" y2="237.5"/>
	<line class="st0" x1="163.8" y1="308.1" x2="163.3" y2="277.5"/>
	<line class="st0" x1="141.5" y1="259.8" x2="217.8" y2="316.9"/>
	<line class="st0" x1="144.1" y1="289.4" x2="217.8" y2="316.9"/>
	<line class="st0" x1="218.8" y1="189.3" x2="191.9" y2="301.9"/>
	<line class="st0" x1="209" y1="276.4" x2="254.7" y2="208"/>
	<line class="st0" x1="184.1" y1="176.3" x2="84.4" y2="107.8"/>
	<line class="st0" x1="174.7" y1="237.5" x2="75.1" y2="244.3"/>
	<line class="st0" x1="173.2" y1="202.2" x2="241.7" y2="316.4"/>
	<line class="st0" x1="271.3" y1="226.1" x2="195.5" y2="206.4"/>
	<line class="st0" x1="247.4" y1="260.9" x2="191.9" y2="301.9"/>
	<line class="st0" x1="148.3" y1="237.5" x2="241.7" y2="316.4"/>
	<line class="st0" x1="174.7" y1="237.5" x2="141.5" y2="259.8"/>
	<line class="st0" x1="232.9" y1="208.5" x2="141.5" y2="259.8"/>
	<line class="st0" x1="209" y1="276.4" x2="232.9" y2="208.5"/>
	<line class="st0" x1="174.7" y1="237.5" x2="241.7" y2="316.4"/>
	<line class="st0" x1="148.3" y1="237.5" x2="163.3" y2="277.5"/>
	<line class="st0" x1="271.3" y1="226.1" x2="148.3" y2="237.5"/>
	<line class="st0" x1="152.9" y1="210" x2="217.8" y2="316.9"/>
	<line class="st0" x1="184.1" y1="176.3" x2="191.9" y2="301.9"/>
	<line class="st0" x1="266.6" y1="245.3" x2="163.3" y2="277.5"/>
	<line class="st0" x1="232.9" y1="208.5" x2="189.8" y2="262.4"/>
	<line class="st0" x1="163.8" y1="308.1" x2="238.6" y2="293.1"/>
	<line class="st0" x1="232.9" y1="208.5" x2="261.4" y2="289.9"/>
	<line class="st0" x1="266.6" y1="245.3" x2="261.4" y2="289.9"/>
	<line class="st0" x1="184.1" y1="176.3" x2="226.6" y2="233.9"/>
	<line class="st0" x1="174.7" y1="237.5" x2="189.8" y2="262.4"/>
	<line class="st0" x1="238.6" y1="293.1" x2="173.2" y2="202.2"/>
	<line class="st0" x1="218.8" y1="189.3" x2="141.5" y2="259.8"/>
	<line class="st0" x1="163.8" y1="308.1" x2="218.8" y2="189.3"/>
	<line class="st0" x1="184.1" y1="176.3" x2="173.2" y2="202.2"/>
	<line class="st0" x1="271.3" y1="226.1" x2="254.7" y2="208"/>
	<line class="st0" x1="254.7" y1="208" x2="241.7" y2="316.4"/>
	<line class="st0" x1="163.8" y1="308.1" x2="75.1" y2="244.3"/>
	<line class="st0" x1="194.5" y1="324.7" x2="247.4" y2="260.9"/>
	<line class="st0" x1="194.5" y1="324.7" x2="254.7" y2="208"/>
	<line class="st0" x1="271.3" y1="226.1" x2="247.4" y2="260.9"/>
	<line class="st0" x1="274.9" y1="268.7" x2="148.3" y2="237.5"/>
	<line class="st0" x1="163.8" y1="308.1" x2="254.7" y2="208"/>
	<line class="st0" x1="144.1" y1="289.4" x2="75.1" y2="244.3"/>
	<line class="st0" x1="194.5" y1="324.7" x2="266.6" y2="245.3"/>
	<line class="st0" x1="209" y1="276.4" x2="217.8" y2="316.9"/>
	<line class="st0" x1="191.9" y1="301.9" x2="189.8" y2="262.4"/>
	<line class="st0" x1="217.8" y1="316.9" x2="226.6" y2="233.9"/>
	<line class="st0" x1="163.8" y1="308.1" x2="194.5" y2="324.7"/>
	<line class="st0" x1="274.9" y1="268.7" x2="266.6" y2="245.3"/>
	<line class="st0" x1="144.1" y1="289.4" x2="152.9" y2="210"/>
	<line class="st0" x1="209" y1="276.4" x2="152.9" y2="210"/>
	<line class="st0" x1="194.5" y1="324.7" x2="195.5" y2="206.4"/>
	<line class="st0" x1="261.4" y1="289.9" x2="226.6" y2="233.9"/>
	<line class="st0" x1="232.9" y1="208.5" x2="241.7" y2="316.4"/>
	<line class="st0" x1="194.5" y1="324.7" x2="271.3" y2="226.1"/>
	<line class="st0" x1="163.8" y1="308.1" x2="271.3" y2="226.1"/>
	<line class="st0" x1="266.6" y1="245.3" x2="241.7" y2="316.4"/>
	<line class="st0" x1="238.6" y1="293.1" x2="191.9" y2="301.9"/>
	<line class="st0" x1="163.8" y1="308.1" x2="195.5" y2="206.4"/>
	<line class="st0" x1="163.8" y1="308.1" x2="148.3" y2="237.5"/>
	<line class="st0" x1="173.2" y1="202.2" x2="254.7" y2="208"/>
	<line class="st0" x1="194.5" y1="324.7" x2="148.3" y2="237.5"/>
	<line class="st0" x1="148.3" y1="237.5" x2="254.7" y2="208"/>
	<line class="st0" x1="274.9" y1="268.7" x2="254.7" y2="208"/>
	<line class="st0" x1="184.1" y1="176.3" x2="144.1" y2="289.4"/>
	<line class="st0" x1="271.3" y1="226.1" x2="217.8" y2="316.9"/>
	<line class="st0" x1="194.5" y1="324.7" x2="217.8" y2="316.9"/>
	<line class="st0" x1="238.6" y1="293.1" x2="144.1" y2="289.4"/>
	<line class="st0" x1="274.9" y1="268.7" x2="191.9" y2="301.9"/>
	<line class="st0" x1="232.9" y1="208.5" x2="163.3" y2="277.5"/>
	<line class="st0" x1="174.7" y1="237.5" x2="261.4" y2="289.9"/>
	<line class="st0" x1="271.3" y1="226.1" x2="152.9" y2="210"/>
	<line class="st0" x1="173.2" y1="202.2" x2="195.5" y2="206.4"/>
	<line class="st0" x1="174.7" y1="237.5" x2="163.3" y2="277.5"/>
	<line class="st0" x1="247.4" y1="260.9" x2="241.7" y2="316.4"/>
	<line class="st0" x1="238.6" y1="293.1" x2="141.5" y2="259.8"/>
	<line class="st0" x1="184.1" y1="176.3" x2="141.5" y2="259.8"/>
	<line class="st0" x1="191.9" y1="301.9" x2="241.7" y2="316.4"/>
	<line class="st0" x1="261.4" y1="289.9" x2="191.9" y2="301.9"/>
	<line class="st0" x1="148.3" y1="237.5" x2="195.5" y2="206.4"/>
	<line class="st0" x1="184.1" y1="176.3" x2="150.4" y2="26.8"/>
	<line class="st0" x1="218.8" y1="189.3" x2="241.7" y2="316.4"/>
	<line class="st0" x1="254.7" y1="208" x2="163.3" y2="277.5"/>
	<line class="st0" x1="266.6" y1="245.3" x2="271.3" y2="226.1"/>
	<line class="st0" x1="144.1" y1="289.4" x2="191.9" y2="301.9"/>
	<line class="st0" x1="141.5" y1="259.8" x2="191.9" y2="301.9"/>
	<line class="st0" x1="274.9" y1="268.7" x2="232.9" y2="208.5"/>
	<line class="st0" x1="191.9" y1="301.9" x2="163.3" y2="277.5"/>
	<line class="st0" x1="247.4" y1="260.9" x2="189.8" y2="262.4"/>
	<line class="st0" x1="174.7" y1="237.5" x2="209" y2="276.4"/>
	<line class="st0" x1="247.4" y1="260.9" x2="261.4" y2="289.9"/>
	<line class="st0" x1="163.8" y1="308.1" x2="247.4" y2="260.9"/>
	<line class="st0" x1="141.5" y1="259.8" x2="226.6" y2="233.9"/>
	<line class="st0" x1="218.8" y1="189.3" x2="189.8" y2="262.4"/>
	<line class="st0" x1="274.9" y1="268.7" x2="174.7" y2="237.5"/>
	<line class="st0" x1="266.6" y1="245.3" x2="218.8" y2="189.3"/>
	<line class="st0" x1="163.8" y1="308.1" x2="266.6" y2="245.3"/>
	<line class="st0" x1="195.5" y1="206.4" x2="254.7" y2="208"/>
	<line class="st0" x1="141.5" y1="259.8" x2="173.2" y2="202.2"/>
	<line class="st0" x1="144.1" y1="289.4" x2="226.6" y2="233.9"/>
	<line class="st0" x1="261.4" y1="289.9" x2="173.2" y2="202.2"/>
	<path d="M163.3,275.5c1.1,0,1.9,0.9,1.9,1.9c0,1.1-0.9,1.9-1.9,1.9c-1.1,0-1.9-0.9-1.9-1.9C161.4,276.4,162.3,275.5,163.3,275.5
		L163.3,275.5z"/>
	<path d="M271.3,224.2c1.1,0,1.9,0.9,1.9,1.9s-0.9,1.9-1.9,1.9c-1.1,0-1.9-0.9-1.9-1.9S270.2,224.2,271.3,224.2L271.3,224.2z"/>
	<path d="M217.8,315c1.1,0,1.9,0.9,1.9,1.9c0,1.1-0.9,1.9-1.9,1.9c-1.1,0-1.9-0.9-1.9-1.9C215.9,315.9,216.7,315,217.8,315
		L217.8,315z"/>
	<path d="M232.9,206.5c1.1,0,1.9,0.9,1.9,1.9s-0.9,1.9-1.9,1.9s-1.9-0.9-1.9-1.9S231.8,206.5,232.9,206.5L232.9,206.5z"/>
	<path d="M163.8,306.2c1.1,0,1.9,0.9,1.9,1.9s-0.9,1.9-1.9,1.9c-1.1,0-1.9-0.9-1.9-1.9S162.8,306.2,163.8,306.2L163.8,306.2z"/>
	<path d="M274.9,266.7c1.1,0,1.9,0.9,1.9,1.9c0,1.1-0.9,1.9-1.9,1.9c-1.1,0-1.9-0.9-1.9-1.9C273,267.6,273.8,266.7,274.9,266.7
		L274.9,266.7z"/>
	<path d="M194.5,322.8c1.1,0,1.9,0.9,1.9,1.9s-0.9,1.9-1.9,1.9c-1.1,0-1.9-0.9-1.9-1.9S193.4,322.8,194.5,322.8L194.5,322.8z"/>
	<path d="M152.9,208.1c1.1,0,1.9,0.9,1.9,1.9c0,1.1-0.9,1.9-1.9,1.9c-1.1,0-1.9-0.9-1.9-1.9C151,209,151.9,208.1,152.9,208.1
		L152.9,208.1z"/>
	<path d="M148.3,235.6c1.1,0,1.9,0.9,1.9,1.9s-0.9,1.9-1.9,1.9c-1.1,0-1.9-0.9-1.9-1.9S147.2,235.6,148.3,235.6L148.3,235.6z"/>
	<path d="M141.5,257.9c1.1,0,1.9,0.9,1.9,1.9c0,1.1-0.9,1.9-1.9,1.9c-1.1,0-1.9-0.9-1.9-1.9C139.6,258.8,140.5,257.9,141.5,257.9
		L141.5,257.9z"/>
	<path d="M261.4,288c1.1,0,1.9,0.9,1.9,1.9c0,1.1-0.9,1.9-1.9,1.9c-1.1,0-1.9-0.9-1.9-1.9C259.5,288.9,260.3,288,261.4,288
		L261.4,288z"/>
	<path d="M266.6,243.4c1.1,0,1.9,0.9,1.9,1.9c0,1.1-0.9,1.9-1.9,1.9c-1.1,0-1.9-0.9-1.9-1.9C264.6,244.2,265.5,243.4,266.6,243.4
		L266.6,243.4z"/>
	<path d="M75.1,242.3c1.1,0,1.9,0.9,1.9,1.9c0,1.1-0.9,1.9-1.9,1.9c-1.1,0-1.9-0.9-1.9-1.9C73.2,243.2,74,242.3,75.1,242.3
		L75.1,242.3z"/>
	<path d="M150.4,24.9c1.1,0,1.9,0.9,1.9,1.9c0,1.1-0.9,1.9-1.9,1.9c-1.1,0-1.9-0.9-1.9-1.9C148.4,25.8,149.3,24.9,150.4,24.9
		L150.4,24.9z"/>
	<path d="M195.5,204.5c1.1,0,1.9,0.9,1.9,1.9s-0.9,1.9-1.9,1.9c-1.1,0-1.9-0.9-1.9-1.9S194.4,204.5,195.5,204.5L195.5,204.5z"/>
	<path d="M247.4,258.9c1.1,0,1.9,0.9,1.9,1.9c0,1.1-0.9,1.9-1.9,1.9c-1.1,0-1.9-0.9-1.9-1.9C245.4,259.8,246.3,258.9,247.4,258.9
		L247.4,258.9z"/>
	<path d="M218.8,187.3c1.1,0,1.9,0.9,1.9,1.9c0,1.1-0.9,1.9-1.9,1.9c-1.1,0-1.9-0.9-1.9-1.9C216.9,188.2,217.8,187.3,218.8,187.3
		L218.8,187.3z"/>
	<path d="M241.7,314.5c1.1,0,1.9,0.9,1.9,1.9c0,1.1-0.9,1.9-1.9,1.9c-1.1,0-1.9-0.9-1.9-1.9C239.7,315.3,240.6,314.5,241.7,314.5
		L241.7,314.5z"/>
	<path d="M209,274.5c1.1,0,1.9,0.9,1.9,1.9c0,1.1-0.9,1.9-1.9,1.9c-1.1,0-1.9-0.9-1.9-1.9C207,275.4,207.9,274.5,209,274.5
		L209,274.5z"/>
	<path d="M173.2,200.3c1.1,0,1.9,0.9,1.9,1.9c0,1.1-0.9,1.9-1.9,1.9c-1.1,0-1.9-0.9-1.9-1.9C171.2,201.2,172.1,200.3,173.2,200.3
		L173.2,200.3z"/>
	<path d="M238.6,291.1c1.1,0,1.9,0.9,1.9,1.9c0,1.1-0.9,1.9-1.9,1.9c-1.1,0-1.9-0.9-1.9-1.9C236.6,292,237.5,291.1,238.6,291.1
		L238.6,291.1z"/>
	<path d="M174.7,235.6c1.1,0,1.9,0.9,1.9,1.9s-0.9,1.9-1.9,1.9c-1.1,0-1.9-0.9-1.9-1.9S173.7,235.6,174.7,235.6L174.7,235.6z"/>
	<path d="M184.1,174.4c1.1,0,1.9,0.9,1.9,1.9c0,1.1-0.9,1.9-1.9,1.9c-1.1,0-1.9-0.9-1.9-1.9C182.1,175.2,183,174.4,184.1,174.4
		L184.1,174.4z"/>
	<path d="M144.1,287.5c1.1,0,1.9,0.9,1.9,1.9c0,1.1-0.9,1.9-1.9,1.9s-1.9-0.9-1.9-1.9C142.2,288.4,143.1,287.5,144.1,287.5
		L144.1,287.5z"/>
	<path d="M254.7,206c1.1,0,1.9,0.9,1.9,1.9s-0.9,1.9-1.9,1.9c-1.1,0-1.9-0.9-1.9-1.9S253.6,206,254.7,206L254.7,206z"/>
	<path d="M84.4,105.9c1.1,0,1.9,0.9,1.9,1.9c0,1.1-0.9,1.9-1.9,1.9c-1.1,0-1.9-0.9-1.9-1.9C82.5,106.7,83.4,105.9,84.4,105.9
		L84.4,105.9z"/>
	<path d="M189.8,260.5c1.1,0,1.9,0.9,1.9,1.9c0,1.1-0.9,1.9-1.9,1.9c-1.1,0-1.9-0.9-1.9-1.9C187.8,261.4,188.7,260.5,189.8,260.5
		L189.8,260.5z"/>
	<path d="M226.6,232c1.1,0,1.9,0.9,1.9,1.9c0,1.1-0.9,1.9-1.9,1.9c-1.1,0-1.9-0.9-1.9-1.9C224.7,232.8,225.6,232,226.6,232
		L226.6,232z"/>
	<path d="M191.9,299.9c1.1,0,1.9,0.9,1.9,1.9c0,1.1-0.9,1.9-1.9,1.9c-1.1,0-1.9-0.9-1.9-1.9C189.9,300.8,190.8,299.9,191.9,299.9
		L191.9,299.9z"/>
	<path d="M208.5,23.4c1.1,0,1.9,0.9,1.9,1.9c0,1.1-0.9,1.9-1.9,1.9c-1.1,0-1.9-0.9-1.9-1.9C206.5,24.2,207.4,23.4,208.5,23.4
		L208.5,23.4z"/>
</g>
</svg>
