<?xml version="1.0" encoding="utf-8"?>
<!-- Generator: Adobe Illustrator 21.1.0, SVG Export Plug-In . SVG Version: 6.00 Build 0)  -->
<svg version="1.1" id="Layer_1" xmlns="http://www.w3.org/2000/svg" xmlns:xlink="http://www.w3.org/1999/xlink" x="0px" y="0px"
	 viewBox="0 0 350 350" style="enable-background:new 0 0 350 350;" xml:space="preserve">
<style type="text/css">
	.st0{fill:none;stroke:#231F20;stroke-width:0.75;stroke-linecap:square;stroke-miterlimit:10;}
</style>
<g>
	<line class="st0" x1="229.3" y1="170.3" x2="204.4" y2="170"/>
	<line class="st0" x1="214" y1="162.2" x2="204.4" y2="170"/>
	<line class="st0" x1="213.9" y1="151.8" x2="218.6" y2="135.9"/>
	<line class="st0" x1="192.1" y1="24.2" x2="195.9" y2="39.1"/>
	<line class="st0" x1="213.7" y1="210.5" x2="206.7" y2="207"/>
	<line class="st0" x1="174.9" y1="188.1" x2="149.1" y2="204.3"/>
	<line class="st0" x1="251.5" y1="200.4" x2="262.5" y2="210.8"/>
	<line class="st0" x1="216.6" y1="169.8" x2="204.4" y2="170"/>
	<line class="st0" x1="219.9" y1="157.2" x2="231" y2="146"/>
	<line class="st0" x1="88.7" y1="235.9" x2="103.5" y2="236.7"/>
	<line class="st0" x1="225.1" y1="180.7" x2="246" y2="176.6"/>
	<line class="st0" x1="218.7" y1="180.3" x2="204.4" y2="170"/>
	<line class="st0" x1="204.8" y1="190.7" x2="204.4" y2="170"/>
	<line class="st0" x1="189.3" y1="179.2" x2="179" y2="188.1"/>
	<line class="st0" x1="217.2" y1="188.6" x2="204.4" y2="170"/>
	<line class="st0" x1="219.9" y1="168" x2="226.6" y2="160.4"/>
	<line class="st0" x1="226.4" y1="166.9" x2="245.5" y2="165.1"/>
	<line class="st0" x1="261.9" y1="168.7" x2="245.5" y2="165.1"/>
	<line class="st0" x1="166.4" y1="185" x2="171.7" y2="202.4"/>
	<line class="st0" x1="222.6" y1="172.8" x2="226.6" y2="160.4"/>
	<line class="st0" x1="156.3" y1="125" x2="168.1" y2="142.4"/>
	<line class="st0" x1="209.3" y1="174.4" x2="196.3" y2="191.5"/>
	<line class="st0" x1="220.9" y1="144.9" x2="213.8" y2="156"/>
	<line class="st0" x1="214.2" y1="138.5" x2="213.8" y2="156"/>
	<line class="st0" x1="219.5" y1="154.6" x2="204.4" y2="170"/>
	<line class="st0" x1="161" y1="212.9" x2="171.7" y2="202.4"/>
	<line class="st0" x1="216" y1="166.6" x2="204.4" y2="170"/>
	<line class="st0" x1="211.6" y1="160.1" x2="204.4" y2="170"/>
	<line class="st0" x1="200.9" y1="148.5" x2="204.4" y2="170"/>
	<line class="st0" x1="209.3" y1="188.9" x2="204.4" y2="170"/>
	<line class="st0" x1="211.3" y1="156.4" x2="204.4" y2="170"/>
	<line class="st0" x1="199.5" y1="157.3" x2="226.6" y2="160.4"/>
	<line class="st0" x1="227" y1="174" x2="247.3" y2="174.3"/>
	<line class="st0" x1="156.1" y1="135.1" x2="168.1" y2="142.4"/>
	<line class="st0" x1="125.1" y1="220.3" x2="103.5" y2="236.7"/>
	<line class="st0" x1="250" y1="160.2" x2="226.6" y2="160.4"/>
	<line class="st0" x1="196.2" y1="150.2" x2="204.4" y2="170"/>
	<line class="st0" x1="185" y1="207.5" x2="171.7" y2="202.4"/>
	<line class="st0" x1="235.7" y1="174.4" x2="230.5" y2="187.7"/>
	<line class="st0" x1="244" y1="175.7" x2="231.9" y2="185.2"/>
	<line class="st0" x1="159.7" y1="224.4" x2="148.9" y2="243.4"/>
	<line class="st0" x1="168" y1="216.7" x2="171.7" y2="202.4"/>
	<line class="st0" x1="202" y1="159.3" x2="213.8" y2="156"/>
	<line class="st0" x1="178.3" y1="156.2" x2="204.4" y2="170"/>
	<line class="st0" x1="164.3" y1="215" x2="171.7" y2="202.4"/>
	<line class="st0" x1="201.8" y1="187" x2="204.4" y2="170"/>
	<line class="st0" x1="219.1" y1="164.9" x2="226.6" y2="160.4"/>
	<line class="st0" x1="213.4" y1="165" x2="204.4" y2="170"/>
	<line class="st0" x1="219.4" y1="185.5" x2="235.4" y2="189"/>
	<line class="st0" x1="277.9" y1="179.5" x2="262.1" y2="177.1"/>
	<line class="st0" x1="135.6" y1="142.9" x2="123" y2="136.9"/>
	<line class="st0" x1="99" y1="304.2" x2="106.7" y2="315"/>
	<line class="st0" x1="199.5" y1="56.5" x2="201.7" y2="46"/>
	<line class="st0" x1="193.4" y1="119.5" x2="193.1" y2="132.3"/>
	<line class="st0" x1="199.7" y1="190.7" x2="204.4" y2="170"/>
	<line class="st0" x1="241.7" y1="145.5" x2="252.9" y2="134.3"/>
	<line class="st0" x1="211.8" y1="175.9" x2="211.6" y2="194.1"/>
	<line class="st0" x1="261.9" y1="168.7" x2="277.6" y2="167.4"/>
	<line class="st0" x1="218.9" y1="171.5" x2="226.6" y2="160.4"/>
	<line class="st0" x1="185.8" y1="154.6" x2="204.4" y2="170"/>
	<line class="st0" x1="86.1" y1="255" x2="72.5" y2="274.3"/>
	<line class="st0" x1="158.3" y1="190.9" x2="171.7" y2="202.4"/>
	<line class="st0" x1="216.3" y1="182.9" x2="230.5" y2="187.7"/>
	<line class="st0" x1="220.9" y1="144.9" x2="208.5" y2="137.8"/>
	<line class="st0" x1="138.2" y1="261.1" x2="148.9" y2="243.4"/>
	<line class="st0" x1="156.3" y1="125" x2="146.4" y2="115.1"/>
	<line class="st0" x1="209.3" y1="174.4" x2="204.4" y2="170"/>
	<line class="st0" x1="166.4" y1="185" x2="178.7" y2="172.4"/>
	<line class="st0" x1="222.6" y1="172.8" x2="213.8" y2="156"/>
	<line class="st0" x1="227" y1="174" x2="204.4" y2="170"/>
	<line class="st0" x1="213.7" y1="210.5" x2="211.6" y2="194.1"/>
	<line class="st0" x1="213.9" y1="151.8" x2="226.6" y2="160.4"/>
	<line class="st0" x1="204.1" y1="184.3" x2="211.6" y2="194.1"/>
	<line class="st0" x1="199.5" y1="157.3" x2="178.7" y2="172.4"/>
	<line class="st0" x1="185.3" y1="184.7" x2="171.7" y2="202.4"/>
	<line class="st0" x1="185.8" y1="166.2" x2="171.3" y2="163.4"/>
	<line class="st0" x1="195.3" y1="181.5" x2="196.3" y2="191.5"/>
	<line class="st0" x1="202.3" y1="151.8" x2="208.5" y2="137.8"/>
	<line class="st0" x1="174.9" y1="188.1" x2="204.4" y2="170"/>
	<line class="st0" x1="185.7" y1="114.4" x2="184.2" y2="100"/>
	<line class="st0" x1="241.8" y1="155.7" x2="245.5" y2="165.1"/>
	<line class="st0" x1="198.7" y1="28.8" x2="195.9" y2="39.1"/>
	<line class="st0" x1="217.1" y1="152.7" x2="225" y2="137.9"/>
	<line class="st0" x1="251.5" y1="200.4" x2="235.4" y2="189"/>
	<line class="st0" x1="219.1" y1="164.9" x2="204.4" y2="170"/>
	<line class="st0" x1="226.4" y1="166.9" x2="204.4" y2="170"/>
	<line class="st0" x1="211.9" y1="146" x2="226.6" y2="160.4"/>
	<line class="st0" x1="219.9" y1="168" x2="204.4" y2="170"/>
	<line class="st0" x1="111.2" y1="283.3" x2="126.1" y2="275.8"/>
	<line class="st0" x1="246.6" y1="153.5" x2="226.6" y2="160.4"/>
	<line class="st0" x1="123" y1="107.1" x2="113.1" y2="99.1"/>
	<line class="st0" x1="215" y1="159.4" x2="226.6" y2="160.4"/>
	<line class="st0" x1="225.1" y1="180.7" x2="240.1" y2="180.6"/>
	<line class="st0" x1="160.5" y1="130.8" x2="168.1" y2="142.4"/>
	<line class="st0" x1="247.2" y1="167.2" x2="226.6" y2="160.4"/>
	<line class="st0" x1="126.3" y1="289.5" x2="123.5" y2="302"/>
	<line class="st0" x1="276.6" y1="184.1" x2="262.1" y2="177.1"/>
	<line class="st0" x1="192.4" y1="190.6" x2="171.7" y2="202.4"/>
	<line class="st0" x1="135.6" y1="142.9" x2="155.4" y2="148.6"/>
	<line class="st0" x1="99" y1="304.2" x2="96.6" y2="290.2"/>
	<line class="st0" x1="156.3" y1="125" x2="150.3" y2="112.1"/>
	<line class="st0" x1="207.6" y1="184.3" x2="211.6" y2="194.1"/>
	<line class="st0" x1="166.4" y1="185" x2="155.5" y2="175.6"/>
	<line class="st0" x1="86.1" y1="255" x2="75.1" y2="256.2"/>
	<line class="st0" x1="81.9" y1="284.6" x2="72.5" y2="274.3"/>
	<line class="st0" x1="193.4" y1="119.5" x2="198.5" y2="130.8"/>
	<line class="st0" x1="211.8" y1="175.9" x2="213.8" y2="156"/>
	<line class="st0" x1="218.9" y1="171.5" x2="204.4" y2="170"/>
	<line class="st0" x1="261.9" y1="168.7" x2="246" y2="176.6"/>
	<line class="st0" x1="159.7" y1="224.4" x2="153.9" y2="236"/>
	<line class="st0" x1="178.3" y1="156.2" x2="168.1" y2="142.4"/>
	<line class="st0" x1="244" y1="175.7" x2="254.1" y2="189.2"/>
	<line class="st0" x1="217.2" y1="188.6" x2="222.9" y2="204.6"/>
	<line class="st0" x1="250" y1="160.2" x2="247.3" y2="174.3"/>
	<line class="st0" x1="185" y1="207.5" x2="196.3" y2="191.5"/>
	<line class="st0" x1="160" y1="170.9" x2="145" y2="170.6"/>
	<line class="st0" x1="125.1" y1="220.3" x2="149.1" y2="204.3"/>
	<line class="st0" x1="219.4" y1="185.5" x2="204.4" y2="170"/>
	<line class="st0" x1="217.1" y1="152.7" x2="226.6" y2="160.4"/>
	<line class="st0" x1="261.2" y1="183" x2="247.3" y2="174.3"/>
	<line class="st0" x1="180" y1="213.2" x2="171.7" y2="202.4"/>
	<line class="st0" x1="170.5" y1="187.3" x2="171.7" y2="202.4"/>
	<line class="st0" x1="202" y1="159.3" x2="204.4" y2="170"/>
	<line class="st0" x1="184.7" y1="156.3" x2="168.1" y2="142.4"/>
	<line class="st0" x1="211.9" y1="146" x2="204.4" y2="170"/>
	<line class="st0" x1="206.4" y1="141" x2="213.8" y2="156"/>
	<line class="st0" x1="240.5" y1="167.3" x2="226.6" y2="160.4"/>
	<line class="st0" x1="222.6" y1="172.8" x2="235.4" y2="189"/>
	<line class="st0" x1="135.6" y1="142.9" x2="121.8" y2="141.6"/>
	<line class="st0" x1="219.5" y1="154.6" x2="229.5" y2="141.3"/>
	<line class="st0" x1="241.8" y1="155.7" x2="226.6" y2="160.4"/>
	<line class="st0" x1="185.7" y1="114.4" x2="179.7" y2="101.3"/>
	<line class="st0" x1="174.9" y1="188.1" x2="163.3" y2="197.2"/>
	<line class="st0" x1="218.8" y1="213.1" x2="221.8" y2="227.9"/>
	<line class="st0" x1="156.9" y1="157.5" x2="168.1" y2="142.4"/>
	<line class="st0" x1="225.1" y1="180.7" x2="204.4" y2="170"/>
	<line class="st0" x1="123" y1="107.1" x2="136" y2="117.3"/>
	<line class="st0" x1="215" y1="159.4" x2="204.4" y2="170"/>
	<line class="st0" x1="111.2" y1="283.3" x2="96.6" y2="290.2"/>
	<line class="st0" x1="246.6" y1="153.5" x2="262.9" y2="151.9"/>
	<line class="st0" x1="185.3" y1="184.7" x2="178.7" y2="172.4"/>
	<line class="st0" x1="213.9" y1="151.8" x2="204.4" y2="170"/>
	<line class="st0" x1="199.5" y1="157.3" x2="191.5" y2="135"/>
	<line class="st0" x1="192.1" y1="24.2" x2="186.6" y2="14.9"/>
	<line class="st0" x1="229.3" y1="170.3" x2="245.5" y2="165.1"/>
	<line class="st0" x1="202.3" y1="151.8" x2="204.4" y2="170"/>
	<line class="st0" x1="264.3" y1="178.8" x2="247.3" y2="174.3"/>
	<line class="st0" x1="250" y1="160.2" x2="262.9" y2="151.9"/>
	<line class="st0" x1="160" y1="170.9" x2="178.7" y2="172.4"/>
	<line class="st0" x1="204.1" y1="184.3" x2="204.4" y2="170"/>
	<line class="st0" x1="238.1" y1="149" x2="226.6" y2="160.4"/>
	<line class="st0" x1="216.3" y1="182.9" x2="204.4" y2="170"/>
	<line class="st0" x1="158.3" y1="190.9" x2="155.5" y2="175.6"/>
	<line class="st0" x1="185.8" y1="166.2" x2="204.4" y2="170"/>
	<line class="st0" x1="195.3" y1="181.5" x2="204.4" y2="170"/>
	<line class="st0" x1="138.2" y1="261.1" x2="126.1" y2="275.8"/>
	<line class="st0" x1="191.8" y1="167.4" x2="204.4" y2="170"/>
	<line class="st0" x1="217.1" y1="152.7" x2="204.4" y2="170"/>
	<line class="st0" x1="199.5" y1="56.5" x2="195.9" y2="39.1"/>
	<line class="st0" x1="185.7" y1="114.4" x2="191.5" y2="135"/>
	<line class="st0" x1="218.8" y1="213.1" x2="222.9" y2="204.6"/>
	<line class="st0" x1="108.3" y1="326.5" x2="106.7" y2="315"/>
	<line class="st0" x1="217.2" y1="188.6" x2="211.6" y2="194.1"/>
	<line class="st0" x1="244" y1="175.7" x2="226.6" y2="160.4"/>
	<line class="st0" x1="159.7" y1="224.4" x2="171.7" y2="202.4"/>
	<line class="st0" x1="178.3" y1="156.2" x2="165.8" y2="149.6"/>
	<line class="st0" x1="90" y1="299" x2="90.1" y2="307.8"/>
	<line class="st0" x1="170.5" y1="187.3" x2="178.7" y2="172.4"/>
	<line class="st0" x1="180" y1="213.2" x2="191.4" y2="206"/>
	<line class="st0" x1="207.6" y1="184.3" x2="204.4" y2="170"/>
	<line class="st0" x1="206.9" y1="97.3" x2="203.1" y2="76.2"/>
	<line class="st0" x1="158.9" y1="209.2" x2="171.7" y2="202.4"/>
	<line class="st0" x1="185" y1="207.5" x2="183.6" y2="222.6"/>
	<line class="st0" x1="217.6" y1="162" x2="226.6" y2="160.4"/>
	<line class="st0" x1="192.4" y1="190.6" x2="211.6" y2="194.1"/>
	<line class="st0" x1="126.3" y1="289.5" x2="126.1" y2="275.8"/>
	<line class="st0" x1="247.2" y1="167.2" x2="262.1" y2="177.1"/>
	<line class="st0" x1="150.7" y1="129.2" x2="168.1" y2="142.4"/>
	<line class="st0" x1="211.3" y1="156.4" x2="226.6" y2="160.4"/>
	<line class="st0" x1="211.8" y1="175.9" x2="204.4" y2="170"/>
	<line class="st0" x1="81.9" y1="284.6" x2="72.1" y2="288.8"/>
	<line class="st0" x1="188.4" y1="171.5" x2="178.7" y2="172.4"/>
	<line class="st0" x1="209.3" y1="188.9" x2="219.1" y2="198.3"/>
	<line class="st0" x1="86.1" y1="255" x2="103.5" y2="236.7"/>
	<line class="st0" x1="219.9" y1="157.2" x2="204.4" y2="170"/>
	<line class="st0" x1="225.1" y1="180.7" x2="211.6" y2="194.1"/>
	<line class="st0" x1="88.7" y1="235.9" x2="77.6" y2="234.9"/>
	<line class="st0" x1="174.9" y1="188.1" x2="161.1" y2="193.7"/>
	<line class="st0" x1="216.6" y1="169.8" x2="226.6" y2="160.4"/>
	<line class="st0" x1="264.3" y1="178.8" x2="262.1" y2="177.1"/>
	<line class="st0" x1="251.5" y1="200.4" x2="254.1" y2="189.2"/>
	<line class="st0" x1="214" y1="162.2" x2="226.6" y2="160.4"/>
	<line class="st0" x1="229.3" y1="170.3" x2="247.3" y2="174.3"/>
	<line class="st0" x1="185.3" y1="184.7" x2="204.4" y2="170"/>
	<line class="st0" x1="192.1" y1="24.2" x2="193.7" y2="13.4"/>
	<line class="st0" x1="199.5" y1="157.3" x2="204.4" y2="170"/>
	<line class="st0" x1="211.6" y1="160.1" x2="226.6" y2="160.4"/>
	<line class="st0" x1="138.2" y1="261.1" x2="138.7" y2="271.7"/>
	<line class="st0" x1="200.9" y1="148.5" x2="198.5" y2="130.8"/>
	<line class="st0" x1="192.6" y1="162.7" x2="204.4" y2="170"/>
	<line class="st0" x1="220.9" y1="144.9" x2="226.6" y2="160.4"/>
	<line class="st0" x1="214.2" y1="138.5" x2="218.6" y2="135.9"/>
	<line class="st0" x1="150.7" y1="129.2" x2="136" y2="117.3"/>
	<line class="st0" x1="219.5" y1="154.6" x2="226.6" y2="160.4"/>
	<line class="st0" x1="209.3" y1="174.4" x2="226.6" y2="160.4"/>
	<line class="st0" x1="222.6" y1="172.8" x2="204.4" y2="170"/>
	<line class="st0" x1="261.1" y1="160.9" x2="245.5" y2="165.1"/>
	<line class="st0" x1="240.5" y1="167.3" x2="240.1" y2="180.6"/>
	<line class="st0" x1="184.7" y1="156.3" x2="204.4" y2="170"/>
	<line class="st0" x1="211.9" y1="146" x2="209.8" y2="120.6"/>
	<line class="st0" x1="117.2" y1="311.4" x2="106.7" y2="315"/>
	<line class="st0" x1="218.7" y1="180.3" x2="231.9" y2="185.2"/>
	<line class="st0" x1="199.7" y1="190.7" x2="191.4" y2="206"/>
	<line class="st0" x1="189.3" y1="179.2" x2="204.4" y2="170"/>
	<line class="st0" x1="156.9" y1="157.5" x2="155.5" y2="175.6"/>
	<line class="st0" x1="235.7" y1="174.4" x2="226.6" y2="160.4"/>
	<line class="st0" x1="244" y1="175.7" x2="262.1" y2="177.1"/>
	<line class="st0" x1="277.5" y1="146.3" x2="262.9" y2="151.9"/>
	<line class="st0" x1="217.6" y1="162" x2="204.4" y2="170"/>
	<line class="st0" x1="196.2" y1="150.2" x2="193.1" y2="132.3"/>
	<line class="st0" x1="250" y1="160.2" x2="266" y2="157.6"/>
	<line class="st0" x1="206.9" y1="97.3" x2="209.8" y2="120.6"/>
	<line class="st0" x1="192.5" y1="173.9" x2="204.4" y2="170"/>
	<line class="st0" x1="125.1" y1="220.3" x2="113" y2="223"/>
	<line class="st0" x1="81.9" y1="284.6" x2="96.6" y2="290.2"/>
	<line class="st0" x1="209.3" y1="188.9" x2="205" y2="200.2"/>
	<line class="st0" x1="188.4" y1="171.5" x2="204.4" y2="170"/>
	<line class="st0" x1="216" y1="166.6" x2="226.6" y2="160.4"/>
	<line class="st0" x1="185.8" y1="154.6" x2="168.1" y2="142.4"/>
	<line class="st0" x1="211.3" y1="156.4" x2="213.8" y2="156"/>
	<line class="st0" x1="117.2" y1="311.4" x2="123.5" y2="302"/>
	<line class="st0" x1="241.7" y1="145.5" x2="226.6" y2="160.4"/>
	<line class="st0" x1="192.4" y1="190.6" x2="204.4" y2="170"/>
	<line class="st0" x1="199.7" y1="190.7" x2="211.6" y2="194.1"/>
	<line class="st0" x1="218.8" y1="213.1" x2="211.6" y2="194.1"/>
	<line class="st0" x1="108.3" y1="326.5" x2="108.8" y2="336.6"/>
	<line class="st0" x1="199.5" y1="56.5" x2="203.1" y2="76.2"/>
	<line class="st0" x1="99" y1="304.2" x2="90.1" y2="307.8"/>
	<line class="st0" x1="201.8" y1="187" x2="205" y2="200.2"/>
	<line class="st0" x1="141.9" y1="144.7" x2="155.4" y2="148.6"/>
	<line class="st0" x1="219.4" y1="185.5" x2="219.1" y2="198.3"/>
	<line class="st0" x1="213.4" y1="165" x2="226.6" y2="160.4"/>
	<line class="st0" x1="90" y1="299" x2="96.6" y2="290.2"/>
	<line class="st0" x1="204.8" y1="190.7" x2="206.7" y2="207"/>
	<line class="st0" x1="217.2" y1="188.6" x2="231.9" y2="185.2"/>
	<line class="st0" x1="178.3" y1="156.2" x2="155.4" y2="148.6"/>
	<path d="M135.6,141c1.1,0,1.9,0.9,1.9,1.9c0,1.1-0.9,1.9-1.9,1.9c-1.1,0-1.9-0.9-1.9-1.9C133.6,141.8,134.5,141,135.6,141
		L135.6,141z"/>
	<path d="M264.3,176.8c1.1,0,1.9,0.9,1.9,1.9c0,1.1-0.9,1.9-1.9,1.9c-1.1,0-1.9-0.9-1.9-1.9C262.3,177.7,263.2,176.8,264.3,176.8
		L264.3,176.8z"/>
	<path d="M277.6,165.5c1.1,0,1.9,0.9,1.9,1.9c0,1.1-0.9,1.9-1.9,1.9c-1.1,0-1.9-0.9-1.9-1.9C275.7,166.4,276.6,165.5,277.6,165.5
		L277.6,165.5z"/>
	<path d="M219.4,183.6c1.1,0,1.9,0.9,1.9,1.9c0,1.1-0.9,1.9-1.9,1.9c-1.1,0-1.9-0.9-1.9-1.9C217.4,184.4,218.3,183.6,219.4,183.6
		L219.4,183.6z"/>
	<path d="M171.7,200.4c1.1,0,1.9,0.9,1.9,1.9c0,1.1-0.9,1.9-1.9,1.9c-1.1,0-1.9-0.9-1.9-1.9C169.8,201.3,170.7,200.4,171.7,200.4
		L171.7,200.4z"/>
	<path d="M138.2,259.1c1.1,0,1.9,0.9,1.9,1.9c0,1.1-0.9,1.9-1.9,1.9c-1.1,0-1.9-0.9-1.9-1.9C136.2,260,137.1,259.1,138.2,259.1
		L138.2,259.1z"/>
	<path d="M209.3,187c1.1,0,1.9,0.9,1.9,1.9c0,1.1-0.9,1.9-1.9,1.9c-1.1,0-1.9-0.9-1.9-1.9C207.4,187.9,208.2,187,209.3,187
		L209.3,187z"/>
	<path d="M220.9,143c1.1,0,1.9,0.9,1.9,1.9c0,1.1-0.9,1.9-1.9,1.9c-1.1,0-1.9-0.9-1.9-1.9C218.9,143.8,219.8,143,220.9,143
		L220.9,143z"/>
	<path d="M145,168.7c1.1,0,1.9,0.9,1.9,1.9c0,1.1-0.9,1.9-1.9,1.9c-1.1,0-1.9-0.9-1.9-1.9C143.1,169.5,143.9,168.7,145,168.7
		L145,168.7z"/>
	<path d="M219.5,152.6c1.1,0,1.9,0.9,1.9,1.9c0,1.1-0.9,1.9-1.9,1.9c-1.1,0-1.9-0.9-1.9-1.9C217.6,153.5,218.4,152.6,219.5,152.6
		L219.5,152.6z"/>
	<path d="M211.9,144.1c1.1,0,1.9,0.9,1.9,1.9c0,1.1-0.9,1.9-1.9,1.9c-1.1,0-1.9-0.9-1.9-1.9C210,145,210.9,144.1,211.9,144.1
		L211.9,144.1z"/>
	<path d="M225.1,178.7c1.1,0,1.9,0.9,1.9,1.9c0,1.1-0.9,1.9-1.9,1.9c-1.1,0-1.9-0.9-1.9-1.9C223.2,179.6,224.1,178.7,225.1,178.7
		L225.1,178.7z"/>
	<path d="M86.1,253.1c1.1,0,1.9,0.9,1.9,1.9c0,1.1-0.9,1.9-1.9,1.9c-1.1,0-1.9-0.9-1.9-1.9C84.1,254,85,253.1,86.1,253.1L86.1,253.1
		z"/>
	<path d="M81.9,282.7c1.1,0,1.9,0.9,1.9,1.9c0,1.1-0.9,1.9-1.9,1.9c-1.1,0-1.9-0.9-1.9-1.9C79.9,283.6,80.8,282.7,81.9,282.7
		L81.9,282.7z"/>
	<path d="M148.9,241.5c1.1,0,1.9,0.9,1.9,1.9c0,1.1-0.9,1.9-1.9,1.9c-1.1,0-1.9-0.9-1.9-1.9C147,242.3,147.8,241.5,148.9,241.5
		L148.9,241.5z"/>
	<path d="M219.9,155.3c1.1,0,1.9,0.9,1.9,1.9c0,1.1-0.9,1.9-1.9,1.9c-1.1,0-1.9-0.9-1.9-1.9C217.9,156.1,218.8,155.3,219.9,155.3
		L219.9,155.3z"/>
	<path d="M198.7,26.9c1.1,0,1.9,0.9,1.9,1.9c0,1.1-0.9,1.9-1.9,1.9c-1.1,0-1.9-0.9-1.9-1.9C196.8,27.7,197.6,26.9,198.7,26.9
		L198.7,26.9z"/>
	<path d="M199.5,155.3c1.1,0,1.9,0.9,1.9,1.9c0,1.1-0.9,1.9-1.9,1.9c-1.1,0-1.9-0.9-1.9-1.9C197.5,156.2,198.4,155.3,199.5,155.3
		L199.5,155.3z"/>
	<path d="M90.1,305.9c1.1,0,1.9,0.9,1.9,1.9c0,1.1-0.9,1.9-1.9,1.9c-1.1,0-1.9-0.9-1.9-1.9C88.2,306.7,89.1,305.9,90.1,305.9
		L90.1,305.9z"/>
	<path d="M161.1,191.8c1.1,0,1.9,0.9,1.9,1.9c0,1.1-0.9,1.9-1.9,1.9c-1.1,0-1.9-0.9-1.9-1.9C159.2,192.6,160.1,191.8,161.1,191.8
		L161.1,191.8z"/>
	<path d="M184.7,154.4c1.1,0,1.9,0.9,1.9,1.9c0,1.1-0.9,1.9-1.9,1.9s-1.9-0.9-1.9-1.9C182.7,155.3,183.6,154.4,184.7,154.4
		L184.7,154.4z"/>
	<path d="M219.1,162.9c1.1,0,1.9,0.9,1.9,1.9c0,1.1-0.9,1.9-1.9,1.9s-1.9-0.9-1.9-1.9C217.2,163.8,218,162.9,219.1,162.9
		L219.1,162.9z"/>
	<path d="M215,157.4c1.1,0,1.9,0.9,1.9,1.9c0,1.1-0.9,1.9-1.9,1.9c-1.1,0-1.9-0.9-1.9-1.9C213.1,158.3,213.9,157.4,215,157.4
		L215,157.4z"/>
	<path d="M156.9,155.5c1.1,0,1.9,0.9,1.9,1.9c0,1.1-0.9,1.9-1.9,1.9c-1.1,0-1.9-0.9-1.9-1.9C155,156.4,155.9,155.5,156.9,155.5
		L156.9,155.5z"/>
	<path d="M204.4,168.1c1.1,0,1.9,0.9,1.9,1.9c0,1.1-0.9,1.9-1.9,1.9c-1.1,0-1.9-0.9-1.9-1.9C202.5,168.9,203.3,168.1,204.4,168.1
		L204.4,168.1z"/>
	<path d="M245.5,163.1c1.1,0,1.9,0.9,1.9,1.9c0,1.1-0.9,1.9-1.9,1.9c-1.1,0-1.9-0.9-1.9-1.9C243.5,164,244.4,163.1,245.5,163.1
		L245.5,163.1z"/>
	<path d="M121.8,139.6c1.1,0,1.9,0.9,1.9,1.9c0,1.1-0.9,1.9-1.9,1.9c-1.1,0-1.9-0.9-1.9-1.9C119.9,140.5,120.7,139.6,121.8,139.6
		L121.8,139.6z"/>
	<path d="M205,198.3c1.1,0,1.9,0.9,1.9,1.9c0,1.1-0.9,1.9-1.9,1.9c-1.1,0-1.9-0.9-1.9-1.9C203,199.1,203.9,198.3,205,198.3
		L205,198.3z"/>
	<path d="M191.8,165.5c1.1,0,1.9,0.9,1.9,1.9c0,1.1-0.9,1.9-1.9,1.9c-1.1,0-1.9-0.9-1.9-1.9C189.9,166.4,190.7,165.5,191.8,165.5
		L191.8,165.5z"/>
	<path d="M108.3,324.5c1.1,0,1.9,0.9,1.9,1.9c0,1.1-0.9,1.9-1.9,1.9c-1.1,0-1.9-0.9-1.9-1.9C106.4,325.4,107.2,324.5,108.3,324.5
		L108.3,324.5z"/>
	<path d="M207.6,182.4c1.1,0,1.9,0.9,1.9,1.9c0,1.1-0.9,1.9-1.9,1.9s-1.9-0.9-1.9-1.9C205.6,183.3,206.5,182.4,207.6,182.4
		L207.6,182.4z"/>
	<path d="M214.2,136.6c1.1,0,1.9,0.9,1.9,1.9c0,1.1-0.9,1.9-1.9,1.9c-1.1,0-1.9-0.9-1.9-1.9C212.2,137.4,213.1,136.6,214.2,136.6
		L214.2,136.6z"/>
	<path d="M75.1,254.3c1.1,0,1.9,0.9,1.9,1.9c0,1.1-0.9,1.9-1.9,1.9c-1.1,0-1.9-0.9-1.9-1.9C73.2,255.1,74.1,254.3,75.1,254.3
		L75.1,254.3z"/>
	<path d="M235.7,172.4c1.1,0,1.9,0.9,1.9,1.9c0,1.1-0.9,1.9-1.9,1.9c-1.1,0-1.9-0.9-1.9-1.9C233.8,173.3,234.7,172.4,235.7,172.4
		L235.7,172.4z"/>
	<path d="M196.2,148.2c1.1,0,1.9,0.9,1.9,1.9c0,1.1-0.9,1.9-1.9,1.9s-1.9-0.9-1.9-1.9C194.3,149.1,195.1,148.2,196.2,148.2
		L196.2,148.2z"/>
	<path d="M77.6,233c1.1,0,1.9,0.9,1.9,1.9c0,1.1-0.9,1.9-1.9,1.9c-1.1,0-1.9-0.9-1.9-1.9C75.7,233.8,76.6,233,77.6,233L77.6,233z"/>
	<path d="M222.6,170.8c1.1,0,1.9,0.9,1.9,1.9c0,1.1-0.9,1.9-1.9,1.9c-1.1,0-1.9-0.9-1.9-1.9C220.7,171.7,221.6,170.8,222.6,170.8
		L222.6,170.8z"/>
	<path d="M211.8,173.9c1.1,0,1.9,0.9,1.9,1.9c0,1.1-0.9,1.9-1.9,1.9c-1.1,0-1.9-0.9-1.9-1.9C209.9,174.8,210.8,173.9,211.8,173.9
		L211.8,173.9z"/>
	<path d="M199.7,188.7c1.1,0,1.9,0.9,1.9,1.9c0,1.1-0.9,1.9-1.9,1.9c-1.1,0-1.9-0.9-1.9-1.9C197.8,189.6,198.7,188.7,199.7,188.7
		L199.7,188.7z"/>
	<path d="M168.1,140.4c1.1,0,1.9,0.9,1.9,1.9c0,1.1-0.9,1.9-1.9,1.9c-1.1,0-1.9-0.9-1.9-1.9C166.1,141.3,167,140.4,168.1,140.4
		L168.1,140.4z"/>
	<path d="M161,210.9c1.1,0,1.9,0.9,1.9,1.9c0,1.1-0.9,1.9-1.9,1.9c-1.1,0-1.9-0.9-1.9-1.9C159.1,211.8,160,210.9,161,210.9
		L161,210.9z"/>
	<path d="M266,155.7c1.1,0,1.9,0.9,1.9,1.9c0,1.1-0.9,1.9-1.9,1.9c-1.1,0-1.9-0.9-1.9-1.9C264,156.5,264.9,155.7,266,155.7
		L266,155.7z"/>
	<path d="M254.1,187.3c1.1,0,1.9,0.9,1.9,1.9c0,1.1-0.9,1.9-1.9,1.9c-1.1,0-1.9-0.9-1.9-1.9C252.2,188.1,253.1,187.3,254.1,187.3
		L254.1,187.3z"/>
	<path d="M196.3,189.6c1.1,0,1.9,0.9,1.9,1.9c0,1.1-0.9,1.9-1.9,1.9c-1.1,0-1.9-0.9-1.9-1.9C194.4,190.4,195.2,189.6,196.3,189.6
		L196.3,189.6z"/>
	<path d="M200.9,146.6c1.1,0,1.9,0.9,1.9,1.9c0,1.1-0.9,1.9-1.9,1.9s-1.9-0.9-1.9-1.9C199,147.4,199.9,146.6,200.9,146.6
		L200.9,146.6z"/>
	<path d="M193.1,130.4c1.1,0,1.9,0.9,1.9,1.9c0,1.1-0.9,1.9-1.9,1.9c-1.1,0-1.9-0.9-1.9-1.9C191.2,131.3,192.1,130.4,193.1,130.4
		L193.1,130.4z"/>
	<path d="M178.7,170.4c1.1,0,1.9,0.9,1.9,1.9c0,1.1-0.9,1.9-1.9,1.9c-1.1,0-1.9-0.9-1.9-1.9C176.8,171.3,177.6,170.4,178.7,170.4
		L178.7,170.4z"/>
	<path d="M230.5,185.8c1.1,0,1.9,0.9,1.9,1.9c0,1.1-0.9,1.9-1.9,1.9s-1.9-0.9-1.9-1.9C228.6,186.6,229.4,185.8,230.5,185.8
		L230.5,185.8z"/>
	<path d="M193.7,11.4c1.1,0,1.9,0.9,1.9,1.9c0,1.1-0.9,1.9-1.9,1.9c-1.1,0-1.9-0.9-1.9-1.9C191.8,12.3,192.6,11.4,193.7,11.4
		L193.7,11.4z"/>
	<path d="M201.8,185.1c1.1,0,1.9,0.9,1.9,1.9c0,1.1-0.9,1.9-1.9,1.9c-1.1,0-1.9-0.9-1.9-1.9C199.9,185.9,200.8,185.1,201.8,185.1
		L201.8,185.1z"/>
	<path d="M179,186.2c1.1,0,1.9,0.9,1.9,1.9c0,1.1-0.9,1.9-1.9,1.9c-1.1,0-1.9-0.9-1.9-1.9C177,187,177.9,186.2,179,186.2L179,186.2z
		"/>
	<path d="M213.9,149.9c1.1,0,1.9,0.9,1.9,1.9c0,1.1-0.9,1.9-1.9,1.9c-1.1,0-1.9-0.9-1.9-1.9C212,150.7,212.8,149.9,213.9,149.9
		L213.9,149.9z"/>
	<path d="M218.8,211.1c1.1,0,1.9,0.9,1.9,1.9c0,1.1-0.9,1.9-1.9,1.9c-1.1,0-1.9-0.9-1.9-1.9C216.9,212,217.8,211.1,218.8,211.1
		L218.8,211.1z"/>
	<path d="M171.3,161.4c1.1,0,1.9,0.9,1.9,1.9c0,1.1-0.9,1.9-1.9,1.9c-1.1,0-1.9-0.9-1.9-1.9C169.3,162.3,170.2,161.4,171.3,161.4
		L171.3,161.4z"/>
	<path d="M103.5,234.8c1.1,0,1.9,0.9,1.9,1.9c0,1.1-0.9,1.9-1.9,1.9c-1.1,0-1.9-0.9-1.9-1.9C101.6,235.6,102.4,234.8,103.5,234.8
		L103.5,234.8z"/>
	<path d="M208.5,135.9c1.1,0,1.9,0.9,1.9,1.9c0,1.1-0.9,1.9-1.9,1.9c-1.1,0-1.9-0.9-1.9-1.9C206.6,136.7,207.4,135.9,208.5,135.9
		L208.5,135.9z"/>
	<path d="M262.9,150c1.1,0,1.9,0.9,1.9,1.9c0,1.1-0.9,1.9-1.9,1.9c-1.1,0-1.9-0.9-1.9-1.9C261,150.8,261.9,150,262.9,150L262.9,150z
		"/>
	<path d="M178.3,154.3c1.1,0,1.9,0.9,1.9,1.9c0,1.1-0.9,1.9-1.9,1.9c-1.1,0-1.9-0.9-1.9-1.9C176.3,155.2,177.2,154.3,178.3,154.3
		L178.3,154.3z"/>
	<path d="M202,157.4c1.1,0,1.9,0.9,1.9,1.9c0,1.1-0.9,1.9-1.9,1.9c-1.1,0-1.9-0.9-1.9-1.9C200,158.2,200.9,157.4,202,157.4
		L202,157.4z"/>
	<path d="M184.2,98.1c1.1,0,1.9,0.9,1.9,1.9s-0.9,1.9-1.9,1.9c-1.1,0-1.9-0.9-1.9-1.9S183.1,98.1,184.2,98.1L184.2,98.1z"/>
	<path d="M99,302.2c1.1,0,1.9,0.9,1.9,1.9c0,1.1-0.9,1.9-1.9,1.9c-1.1,0-1.9-0.9-1.9-1.9C97,303.1,97.9,302.2,99,302.2L99,302.2z"/>
	<path d="M185.7,112.5c1.1,0,1.9,0.9,1.9,1.9s-0.9,1.9-1.9,1.9c-1.1,0-1.9-0.9-1.9-1.9S184.6,112.5,185.7,112.5L185.7,112.5z"/>
	<path d="M204.8,188.7c1.1,0,1.9,0.9,1.9,1.9c0,1.1-0.9,1.9-1.9,1.9c-1.1,0-1.9-0.9-1.9-1.9C202.9,189.6,203.7,188.7,204.8,188.7
		L204.8,188.7z"/>
	<path d="M165.8,147.7c1.1,0,1.9,0.9,1.9,1.9c0,1.1-0.9,1.9-1.9,1.9c-1.1,0-1.9-0.9-1.9-1.9C163.8,148.6,164.7,147.7,165.8,147.7
		L165.8,147.7z"/>
	<path d="M213.7,208.5c1.1,0,1.9,0.9,1.9,1.9c0,1.1-0.9,1.9-1.9,1.9s-1.9-0.9-1.9-1.9C211.8,209.4,212.7,208.5,213.7,208.5
		L213.7,208.5z"/>
	<path d="M211.6,192.2c1.1,0,1.9,0.9,1.9,1.9c0,1.1-0.9,1.9-1.9,1.9c-1.1,0-1.9-0.9-1.9-1.9C209.7,193,210.5,192.2,211.6,192.2
		L211.6,192.2z"/>
	<path d="M155.5,173.6c1.1,0,1.9,0.9,1.9,1.9c0,1.1-0.9,1.9-1.9,1.9c-1.1,0-1.9-0.9-1.9-1.9C153.6,174.5,154.4,173.6,155.5,173.6
		L155.5,173.6z"/>
	<path d="M201.7,44c1.1,0,1.9,0.9,1.9,1.9c0,1.1-0.9,1.9-1.9,1.9c-1.1,0-1.9-0.9-1.9-1.9C199.7,44.9,200.6,44,201.7,44L201.7,44z"/>
	<path d="M185,205.6c1.1,0,1.9,0.9,1.9,1.9c0,1.1-0.9,1.9-1.9,1.9c-1.1,0-1.9-0.9-1.9-1.9C183,206.5,183.9,205.6,185,205.6
		L185,205.6z"/>
	<path d="M217.1,150.7c1.1,0,1.9,0.9,1.9,1.9c0,1.1-0.9,1.9-1.9,1.9s-1.9-0.9-1.9-1.9C215.1,151.6,216,150.7,217.1,150.7
		L217.1,150.7z"/>
	<path d="M180,211.3c1.1,0,1.9,0.9,1.9,1.9c0,1.1-0.9,1.9-1.9,1.9c-1.1,0-1.9-0.9-1.9-1.9C178.1,212.1,179,211.3,180,211.3
		L180,211.3z"/>
	<path d="M123,105.1c1.1,0,1.9,0.9,1.9,1.9c0,1.1-0.9,1.9-1.9,1.9s-1.9-0.9-1.9-1.9C121,106,121.9,105.1,123,105.1L123,105.1z"/>
	<path d="M195.9,37.1c1.1,0,1.9,0.9,1.9,1.9c0,1.1-0.9,1.9-1.9,1.9c-1.1,0-1.9-0.9-1.9-1.9C193.9,38,194.8,37.1,195.9,37.1
		L195.9,37.1z"/>
	<path d="M246.6,151.5c1.1,0,1.9,0.9,1.9,1.9c0,1.1-0.9,1.9-1.9,1.9c-1.1,0-1.9-0.9-1.9-1.9C244.6,152.4,245.5,151.5,246.6,151.5
		L246.6,151.5z"/>
	<path d="M222.9,202.7c1.1,0,1.9,0.9,1.9,1.9c0,1.1-0.9,1.9-1.9,1.9c-1.1,0-1.9-0.9-1.9-1.9C220.9,203.5,221.8,202.7,222.9,202.7
		L222.9,202.7z"/>
	<path d="M159.7,222.5c1.1,0,1.9,0.9,1.9,1.9c0,1.1-0.9,1.9-1.9,1.9c-1.1,0-1.9-0.9-1.9-1.9C157.7,223.4,158.6,222.5,159.7,222.5
		L159.7,222.5z"/>
	<path d="M113,221.1c1.1,0,1.9,0.9,1.9,1.9c0,1.1-0.9,1.9-1.9,1.9c-1.1,0-1.9-0.9-1.9-1.9C111.1,222,111.9,221.1,113,221.1
		L113,221.1z"/>
	<path d="M211.6,158.2c1.1,0,1.9,0.9,1.9,1.9c0,1.1-0.9,1.9-1.9,1.9c-1.1,0-1.9-0.9-1.9-1.9C209.7,159.1,210.5,158.2,211.6,158.2
		L211.6,158.2z"/>
	<path d="M216,164.7c1.1,0,1.9,0.9,1.9,1.9c0,1.1-0.9,1.9-1.9,1.9c-1.1,0-1.9-0.9-1.9-1.9C214.1,165.6,215,164.7,216,164.7
		L216,164.7z"/>
	<path d="M241.7,143.5c1.1,0,1.9,0.9,1.9,1.9c0,1.1-0.9,1.9-1.9,1.9c-1.1,0-1.9-0.9-1.9-1.9C239.7,144.4,240.6,143.5,241.7,143.5
		L241.7,143.5z"/>
	<path d="M111.2,281.3c1.1,0,1.9,0.9,1.9,1.9c0,1.1-0.9,1.9-1.9,1.9c-1.1,0-1.9-0.9-1.9-1.9C109.3,282.2,110.2,281.3,111.2,281.3
		L111.2,281.3z"/>
	<path d="M276.6,182.2c1.1,0,1.9,0.9,1.9,1.9c0,1.1-0.9,1.9-1.9,1.9c-1.1,0-1.9-0.9-1.9-1.9C274.6,183.1,275.5,182.2,276.6,182.2
		L276.6,182.2z"/>
	<path d="M156.3,123.1c1.1,0,1.9,0.9,1.9,1.9c0,1.1-0.9,1.9-1.9,1.9c-1.1,0-1.9-0.9-1.9-1.9C154.4,123.9,155.3,123.1,156.3,123.1
		L156.3,123.1z"/>
	<path d="M262.1,175.2c1.1,0,1.9,0.9,1.9,1.9c0,1.1-0.9,1.9-1.9,1.9c-1.1,0-1.9-0.9-1.9-1.9C260.1,176,261,175.2,262.1,175.2
		L262.1,175.2z"/>
	<path d="M206.4,139.1c1.1,0,1.9,0.9,1.9,1.9c0,1.1-0.9,1.9-1.9,1.9c-1.1,0-1.9-0.9-1.9-1.9C204.5,139.9,205.3,139.1,206.4,139.1
		L206.4,139.1z"/>
	<path d="M150.3,110.2c1.1,0,1.9,0.9,1.9,1.9s-0.9,1.9-1.9,1.9c-1.1,0-1.9-0.9-1.9-1.9S149.2,110.2,150.3,110.2L150.3,110.2z"/>
	<path d="M193.4,117.6c1.1,0,1.9,0.9,1.9,1.9c0,1.1-0.9,1.9-1.9,1.9c-1.1,0-1.9-0.9-1.9-1.9C191.5,118.4,192.3,117.6,193.4,117.6
		L193.4,117.6z"/>
	<path d="M247.3,172.4c1.1,0,1.9,0.9,1.9,1.9c0,1.1-0.9,1.9-1.9,1.9c-1.1,0-1.9-0.9-1.9-1.9C245.4,173.2,246.2,172.4,247.3,172.4
		L247.3,172.4z"/>
	<path d="M203.1,74.3c1.1,0,1.9,0.9,1.9,1.9c0,1.1-0.9,1.9-1.9,1.9c-1.1,0-1.9-0.9-1.9-1.9C201.2,75.1,202.1,74.3,203.1,74.3
		L203.1,74.3z"/>
	<path d="M123.5,300c1.1,0,1.9,0.9,1.9,1.9c0,1.1-0.9,1.9-1.9,1.9c-1.1,0-1.9-0.9-1.9-1.9C121.6,300.9,122.4,300,123.5,300
		L123.5,300z"/>
	<path d="M96.6,288.2c1.1,0,1.9,0.9,1.9,1.9c0,1.1-0.9,1.9-1.9,1.9c-1.1,0-1.9-0.9-1.9-1.9C94.6,289.1,95.5,288.2,96.6,288.2
		L96.6,288.2z"/>
	<path d="M192.5,171.9c1.1,0,1.9,0.9,1.9,1.9c0,1.1-0.9,1.9-1.9,1.9s-1.9-0.9-1.9-1.9C190.6,172.8,191.5,171.9,192.5,171.9
		L192.5,171.9z"/>
	<path d="M204.1,182.4c1.1,0,1.9,0.9,1.9,1.9c0,1.1-0.9,1.9-1.9,1.9s-1.9-0.9-1.9-1.9C202.1,183.3,203,182.4,204.1,182.4
		L204.1,182.4z"/>
	<path d="M192.4,188.6c1.1,0,1.9,0.9,1.9,1.9c0,1.1-0.9,1.9-1.9,1.9c-1.1,0-1.9-0.9-1.9-1.9C190.5,189.5,191.4,188.6,192.4,188.6
		L192.4,188.6z"/>
	<path d="M136,115.4c1.1,0,1.9,0.9,1.9,1.9c0,1.1-0.9,1.9-1.9,1.9c-1.1,0-1.9-0.9-1.9-1.9C134.1,116.3,134.9,115.4,136,115.4
		L136,115.4z"/>
	<path d="M163.3,195.3c1.1,0,1.9,0.9,1.9,1.9c0,1.1-0.9,1.9-1.9,1.9c-1.1,0-1.9-0.9-1.9-1.9C161.4,196.2,162.3,195.3,163.3,195.3
		L163.3,195.3z"/>
	<path d="M90,297.1c1.1,0,1.9,0.9,1.9,1.9c0,1.1-0.9,1.9-1.9,1.9c-1.1,0-1.9-0.9-1.9-1.9C88,297.9,88.9,297.1,90,297.1L90,297.1z"/>
	<path d="M244,173.7c1.1,0,1.9,0.9,1.9,1.9c0,1.1-0.9,1.9-1.9,1.9c-1.1,0-1.9-0.9-1.9-1.9C242,174.6,242.9,173.7,244,173.7
		L244,173.7z"/>
	<path d="M160,169c1.1,0,1.9,0.9,1.9,1.9c0,1.1-0.9,1.9-1.9,1.9c-1.1,0-1.9-0.9-1.9-1.9C158,169.9,158.9,169,160,169L160,169z"/>
	<path d="M209.3,172.5c1.1,0,1.9,0.9,1.9,1.9c0,1.1-0.9,1.9-1.9,1.9c-1.1,0-1.9-0.9-1.9-1.9C207.4,173.3,208.2,172.5,209.3,172.5
		L209.3,172.5z"/>
	<path d="M241.8,153.7c1.1,0,1.9,0.9,1.9,1.9c0,1.1-0.9,1.9-1.9,1.9c-1.1,0-1.9-0.9-1.9-1.9C239.9,154.6,240.8,153.7,241.8,153.7
		L241.8,153.7z"/>
	<path d="M213.8,154.1c1.1,0,1.9,0.9,1.9,1.9c0,1.1-0.9,1.9-1.9,1.9s-1.9-0.9-1.9-1.9C211.9,154.9,212.8,154.1,213.8,154.1
		L213.8,154.1z"/>
	<path d="M213.4,163.1c1.1,0,1.9,0.9,1.9,1.9c0,1.1-0.9,1.9-1.9,1.9c-1.1,0-1.9-0.9-1.9-1.9C211.4,164,212.3,163.1,213.4,163.1
		L213.4,163.1z"/>
	<path d="M185.8,152.6c1.1,0,1.9,0.9,1.9,1.9c0,1.1-0.9,1.9-1.9,1.9c-1.1,0-1.9-0.9-1.9-1.9C183.9,153.5,184.8,152.6,185.8,152.6
		L185.8,152.6z"/>
	<path d="M185.3,182.7c1.1,0,1.9,0.9,1.9,1.9c0,1.1-0.9,1.9-1.9,1.9c-1.1,0-1.9-0.9-1.9-1.9C183.4,183.6,184.2,182.7,185.3,182.7
		L185.3,182.7z"/>
	<path d="M108.8,334.7c1.1,0,1.9,0.9,1.9,1.9c0,1.1-0.9,1.9-1.9,1.9c-1.1,0-1.9-0.9-1.9-1.9C106.9,335.5,107.8,334.7,108.8,334.7
		L108.8,334.7z"/>
	<path d="M219.1,196.4c1.1,0,1.9,0.9,1.9,1.9c0,1.1-0.9,1.9-1.9,1.9s-1.9-0.9-1.9-1.9C217.2,197.2,218,196.4,219.1,196.4
		L219.1,196.4z"/>
	<path d="M262.5,208.9c1.1,0,1.9,0.9,1.9,1.9c0,1.1-0.9,1.9-1.9,1.9c-1.1,0-1.9-0.9-1.9-1.9C260.6,209.7,261.4,208.9,262.5,208.9
		L262.5,208.9z"/>
	<path d="M218.9,169.6c1.1,0,1.9,0.9,1.9,1.9c0,1.1-0.9,1.9-1.9,1.9s-1.9-0.9-1.9-1.9C216.9,170.5,217.8,169.6,218.9,169.6
		L218.9,169.6z"/>
	<path d="M261.2,181c1.1,0,1.9,0.9,1.9,1.9c0,1.1-0.9,1.9-1.9,1.9c-1.1,0-1.9-0.9-1.9-1.9C259.3,181.9,260.2,181,261.2,181
		L261.2,181z"/>
	<path d="M123,135c1.1,0,1.9,0.9,1.9,1.9c0,1.1-0.9,1.9-1.9,1.9s-1.9-0.9-1.9-1.9C121,135.8,121.9,135,123,135L123,135z"/>
	<path d="M192.6,160.7c1.1,0,1.9,0.9,1.9,1.9c0,1.1-0.9,1.9-1.9,1.9c-1.1,0-1.9-0.9-1.9-1.9C190.7,161.6,191.6,160.7,192.6,160.7
		L192.6,160.7z"/>
	<path d="M188.4,169.5c1.1,0,1.9,0.9,1.9,1.9c0,1.1-0.9,1.9-1.9,1.9c-1.1,0-1.9-0.9-1.9-1.9C186.5,170.4,187.4,169.5,188.4,169.5
		L188.4,169.5z"/>
	<path d="M195.3,179.6c1.1,0,1.9,0.9,1.9,1.9s-0.9,1.9-1.9,1.9c-1.1,0-1.9-0.9-1.9-1.9S194.3,179.6,195.3,179.6L195.3,179.6z"/>
	<path d="M250,158.3c1.1,0,1.9,0.9,1.9,1.9c0,1.1-0.9,1.9-1.9,1.9c-1.1,0-1.9-0.9-1.9-1.9C248.1,159.1,248.9,158.3,250,158.3
		L250,158.3z"/>
	<path d="M251.5,198.4c1.1,0,1.9,0.9,1.9,1.9c0,1.1-0.9,1.9-1.9,1.9c-1.1,0-1.9-0.9-1.9-1.9C249.6,199.3,250.4,198.4,251.5,198.4
		L251.5,198.4z"/>
	<path d="M158.3,189c1.1,0,1.9,0.9,1.9,1.9c0,1.1-0.9,1.9-1.9,1.9c-1.1,0-1.9-0.9-1.9-1.9C156.4,189.9,157.2,189,158.3,189
		L158.3,189z"/>
	<path d="M141.9,142.7c1.1,0,1.9,0.9,1.9,1.9s-0.9,1.9-1.9,1.9s-1.9-0.9-1.9-1.9S140.8,142.7,141.9,142.7L141.9,142.7z"/>
	<path d="M150.7,127.3c1.1,0,1.9,0.9,1.9,1.9s-0.9,1.9-1.9,1.9c-1.1,0-1.9-0.9-1.9-1.9S149.6,127.3,150.7,127.3L150.7,127.3z"/>
	<path d="M231,144c1.1,0,1.9,0.9,1.9,1.9c0,1.1-0.9,1.9-1.9,1.9c-1.1,0-1.9-0.9-1.9-1.9C229.1,144.9,229.9,144,231,144L231,144z"/>
	<path d="M240.1,178.6c1.1,0,1.9,0.9,1.9,1.9c0,1.1-0.9,1.9-1.9,1.9c-1.1,0-1.9-0.9-1.9-1.9C238.1,179.5,239,178.6,240.1,178.6
		L240.1,178.6z"/>
	<path d="M72.1,286.9c1.1,0,1.9,0.9,1.9,1.9c0,1.1-0.9,1.9-1.9,1.9c-1.1,0-1.9-0.9-1.9-1.9C70.1,287.8,71,286.9,72.1,286.9
		L72.1,286.9z"/>
	<path d="M209.8,118.7c1.1,0,1.9,0.9,1.9,1.9c0,1.1-0.9,1.9-1.9,1.9c-1.1,0-1.9-0.9-1.9-1.9C207.8,119.6,208.7,118.7,209.8,118.7
		L209.8,118.7z"/>
	<path d="M174.9,186.2c1.1,0,1.9,0.9,1.9,1.9c0,1.1-0.9,1.9-1.9,1.9c-1.1,0-1.9-0.9-1.9-1.9C172.9,187,173.8,186.2,174.9,186.2
		L174.9,186.2z"/>
	<path d="M88.7,233.9c1.1,0,1.9,0.9,1.9,1.9c0,1.1-0.9,1.9-1.9,1.9c-1.1,0-1.9-0.9-1.9-1.9C86.8,234.8,87.6,233.9,88.7,233.9
		L88.7,233.9z"/>
	<path d="M229.5,139.4c1.1,0,1.9,0.9,1.9,1.9c0,1.1-0.9,1.9-1.9,1.9c-1.1,0-1.9-0.9-1.9-1.9C227.6,140.3,228.5,139.4,229.5,139.4
		L229.5,139.4z"/>
	<g>
		<path d="M72.5,272.3c1.1,0,1.9,0.9,1.9,1.9s-0.9,1.9-1.9,1.9c-1.1,0-1.9-0.9-1.9-1.9S71.5,272.3,72.5,272.3L72.5,272.3z"/>
	</g>
	<path d="M138.7,269.8c1.1,0,1.9,0.9,1.9,1.9c0,1.1-0.9,1.9-1.9,1.9c-1.1,0-1.9-0.9-1.9-1.9C136.8,270.7,137.7,269.8,138.7,269.8
		L138.7,269.8z"/>
	<path d="M218.6,133.9c1.1,0,1.9,0.9,1.9,1.9c0,1.1-0.9,1.9-1.9,1.9c-1.1,0-1.9-0.9-1.9-1.9C216.7,134.8,217.6,133.9,218.6,133.9
		L218.6,133.9z"/>
	<path d="M238.1,147c1.1,0,1.9,0.9,1.9,1.9c0,1.1-0.9,1.9-1.9,1.9c-1.1,0-1.9-0.9-1.9-1.9C236.1,147.9,237,147,238.1,147L238.1,147z
		"/>
	<path d="M126.3,287.5c1.1,0,1.9,0.9,1.9,1.9c0,1.1-0.9,1.9-1.9,1.9c-1.1,0-1.9-0.9-1.9-1.9C124.4,288.4,125.3,287.5,126.3,287.5
		L126.3,287.5z"/>
	<path d="M246,174.6c1.1,0,1.9,0.9,1.9,1.9c0,1.1-0.9,1.9-1.9,1.9c-1.1,0-1.9-0.9-1.9-1.9C244,175.5,244.9,174.6,246,174.6
		L246,174.6z"/>
	<path d="M211.3,154.5c1.1,0,1.9,0.9,1.9,1.9c0,1.1-0.9,1.9-1.9,1.9c-1.1,0-1.9-0.9-1.9-1.9C209.3,155.4,210.2,154.5,211.3,154.5
		L211.3,154.5z"/>
	<path d="M191.4,204.1c1.1,0,1.9,0.9,1.9,1.9c0,1.1-0.9,1.9-1.9,1.9c-1.1,0-1.9-0.9-1.9-1.9C189.5,205,190.3,204.1,191.4,204.1
		L191.4,204.1z"/>
	<path d="M235.4,187.1c1.1,0,1.9,0.9,1.9,1.9c0,1.1-0.9,1.9-1.9,1.9c-1.1,0-1.9-0.9-1.9-1.9C233.4,188,234.3,187.1,235.4,187.1
		L235.4,187.1z"/>
	<path d="M218.7,178.3c1.1,0,1.9,0.9,1.9,1.9c0,1.1-0.9,1.9-1.9,1.9s-1.9-0.9-1.9-1.9C216.7,179.2,217.6,178.3,218.7,178.3
		L218.7,178.3z"/>
	<path d="M219.9,166.1c1.1,0,1.9,0.9,1.9,1.9s-0.9,1.9-1.9,1.9c-1.1,0-1.9-0.9-1.9-1.9S218.8,166.1,219.9,166.1L219.9,166.1z"/>
	<path d="M240.5,165.4c1.1,0,1.9,0.9,1.9,1.9c0,1.1-0.9,1.9-1.9,1.9c-1.1,0-1.9-0.9-1.9-1.9C238.5,166.3,239.4,165.4,240.5,165.4
		L240.5,165.4z"/>
	<path d="M226.6,158.5c1.1,0,1.9,0.9,1.9,1.9c0,1.1-0.9,1.9-1.9,1.9c-1.1,0-1.9-0.9-1.9-1.9C224.7,159.3,225.6,158.5,226.6,158.5
		L226.6,158.5z"/>
	<path d="M261.9,166.8c1.1,0,1.9,0.9,1.9,1.9c0,1.1-0.9,1.9-1.9,1.9c-1.1,0-1.9-0.9-1.9-1.9C260,167.6,260.8,166.8,261.9,166.8
		L261.9,166.8z"/>
	<path d="M155.4,146.6c1.1,0,1.9,0.9,1.9,1.9c0,1.1-0.9,1.9-1.9,1.9c-1.1,0-1.9-0.9-1.9-1.9C153.4,147.5,154.3,146.6,155.4,146.6
		L155.4,146.6z"/>
	<path d="M206.9,95.4c1.1,0,1.9,0.9,1.9,1.9c0,1.1-0.9,1.9-1.9,1.9c-1.1,0-1.9-0.9-1.9-1.9C204.9,96.2,205.8,95.4,206.9,95.4
		L206.9,95.4z"/>
	<g>
		<path d="M277.5,144.3c1.1,0,1.9,0.9,1.9,1.9c0,1.1-0.9,1.9-1.9,1.9c-1.1,0-1.9-0.9-1.9-1.9C275.6,145.2,276.4,144.3,277.5,144.3
			L277.5,144.3z"/>
	</g>
	<path d="M126.1,273.9c1.1,0,1.9,0.9,1.9,1.9c0,1.1-0.9,1.9-1.9,1.9s-1.9-0.9-1.9-1.9C124.2,274.8,125.1,273.9,126.1,273.9
		L126.1,273.9z"/>
	<path d="M261.1,159c1.1,0,1.9,0.9,1.9,1.9c0,1.1-0.9,1.9-1.9,1.9c-1.1,0-1.9-0.9-1.9-1.9C259.1,159.9,260,159,261.1,159L261.1,159z
		"/>
	<path d="M252.9,132.4c1.1,0,1.9,0.9,1.9,1.9c0,1.1-0.9,1.9-1.9,1.9c-1.1,0-1.9-0.9-1.9-1.9C251,133.2,251.9,132.4,252.9,132.4
		L252.9,132.4z"/>
	<path d="M202.3,149.9c1.1,0,1.9,0.9,1.9,1.9c0,1.1-0.9,1.9-1.9,1.9c-1.1,0-1.9-0.9-1.9-1.9C200.3,150.8,201.2,149.9,202.3,149.9
		L202.3,149.9z"/>
	<path d="M185.8,164.2c1.1,0,1.9,0.9,1.9,1.9c0,1.1-0.9,1.9-1.9,1.9c-1.1,0-1.9-0.9-1.9-1.9C183.9,165.1,184.7,164.2,185.8,164.2
		L185.8,164.2z"/>
	<path d="M149.1,202.3c1.1,0,1.9,0.9,1.9,1.9s-0.9,1.9-1.9,1.9c-1.1,0-1.9-0.9-1.9-1.9S148,202.3,149.1,202.3L149.1,202.3z"/>
	<g>
		<path d="M277.9,177.6c1.1,0,1.9,0.9,1.9,1.9c0,1.1-0.9,1.9-1.9,1.9c-1.1,0-1.9-0.9-1.9-1.9C276,178.5,276.9,177.6,277.9,177.6
			L277.9,177.6z"/>
	</g>
	<path d="M153.9,234c1.1,0,1.9,0.9,1.9,1.9c0,1.1-0.9,1.9-1.9,1.9c-1.1,0-1.9-0.9-1.9-1.9C152,234.9,152.8,234,153.9,234L153.9,234z
		"/>
	<path d="M113.1,97.1c1.1,0,1.9,0.9,1.9,1.9c0,1.1-0.9,1.9-1.9,1.9c-1.1,0-1.9-0.9-1.9-1.9C111.2,98,112,97.1,113.1,97.1L113.1,97.1
		z"/>
	<path d="M189.3,177.3c1.1,0,1.9,0.9,1.9,1.9c0,1.1-0.9,1.9-1.9,1.9s-1.9-0.9-1.9-1.9C187.4,178.2,188.2,177.3,189.3,177.3
		L189.3,177.3z"/>
	<path d="M217.2,186.7c1.1,0,1.9,0.9,1.9,1.9c0,1.1-0.9,1.9-1.9,1.9s-1.9-0.9-1.9-1.9C215.2,187.6,216.1,186.7,217.2,186.7
		L217.2,186.7z"/>
	<path d="M216.6,167.8c1.1,0,1.9,0.9,1.9,1.9c0,1.1-0.9,1.9-1.9,1.9c-1.1,0-1.9-0.9-1.9-1.9C214.6,168.7,215.5,167.8,216.6,167.8
		L216.6,167.8z"/>
	<path d="M225,135.9c1.1,0,1.9,0.9,1.9,1.9c0,1.1-0.9,1.9-1.9,1.9c-1.1,0-1.9-0.9-1.9-1.9C223,136.8,223.9,135.9,225,135.9
		L225,135.9z"/>
	<path d="M166.4,183c1.1,0,1.9,0.9,1.9,1.9c0,1.1-0.9,1.9-1.9,1.9c-1.1,0-1.9-0.9-1.9-1.9C164.4,183.9,165.3,183,166.4,183
		L166.4,183z"/>
	<path d="M117.2,309.4c1.1,0,1.9,0.9,1.9,1.9c0,1.1-0.9,1.9-1.9,1.9c-1.1,0-1.9-0.9-1.9-1.9C115.2,310.3,116.1,309.4,117.2,309.4
		L117.2,309.4z"/>
	<path d="M198.5,128.9c1.1,0,1.9,0.9,1.9,1.9c0,1.1-0.9,1.9-1.9,1.9c-1.1,0-1.9-0.9-1.9-1.9C196.5,129.8,197.4,128.9,198.5,128.9
		L198.5,128.9z"/>
	<path d="M227,172c1.1,0,1.9,0.9,1.9,1.9c0,1.1-0.9,1.9-1.9,1.9c-1.1,0-1.9-0.9-1.9-1.9C225.1,172.9,226,172,227,172L227,172z"/>
	<path d="M156.1,133.1c1.1,0,1.9,0.9,1.9,1.9c0,1.1-0.9,1.9-1.9,1.9c-1.1,0-1.9-0.9-1.9-1.9C154.2,134,155,133.1,156.1,133.1
		L156.1,133.1z"/>
	<path d="M106.7,313c1.1,0,1.9,0.9,1.9,1.9c0,1.1-0.9,1.9-1.9,1.9s-1.9-0.9-1.9-1.9C104.8,313.9,105.7,313,106.7,313L106.7,313z"/>
	<path d="M229.3,168.3c1.1,0,1.9,0.9,1.9,1.9c0,1.1-0.9,1.9-1.9,1.9c-1.1,0-1.9-0.9-1.9-1.9C227.3,169.2,228.2,168.3,229.3,168.3
		L229.3,168.3z"/>
	<path d="M214,160.3c1.1,0,1.9,0.9,1.9,1.9c0,1.1-0.9,1.9-1.9,1.9s-1.9-0.9-1.9-1.9C212.1,161.2,213,160.3,214,160.3L214,160.3z"/>
	<path d="M231.9,183.2c1.1,0,1.9,0.9,1.9,1.9c0,1.1-0.9,1.9-1.9,1.9c-1.1,0-1.9-0.9-1.9-1.9C229.9,184.1,230.8,183.2,231.9,183.2
		L231.9,183.2z"/>
	<path d="M168,214.8c1.1,0,1.9,0.9,1.9,1.9c0,1.1-0.9,1.9-1.9,1.9c-1.1,0-1.9-0.9-1.9-1.9C166,215.7,166.9,214.8,168,214.8
		L168,214.8z"/>
	<path d="M247.2,165.2c1.1,0,1.9,0.9,1.9,1.9c0,1.1-0.9,1.9-1.9,1.9c-1.1,0-1.9-0.9-1.9-1.9C245.3,166.1,246.1,165.2,247.2,165.2
		L247.2,165.2z"/>
	<path d="M146.4,113.2c1.1,0,1.9,0.9,1.9,1.9c0,1.1-0.9,1.9-1.9,1.9c-1.1,0-1.9-0.9-1.9-1.9C144.4,114,145.3,113.2,146.4,113.2
		L146.4,113.2z"/>
	<path d="M226.4,164.9c1.1,0,1.9,0.9,1.9,1.9c0,1.1-0.9,1.9-1.9,1.9c-1.1,0-1.9-0.9-1.9-1.9C224.5,165.8,225.4,164.9,226.4,164.9
		L226.4,164.9z"/>
	<path d="M221.8,225.9c1.1,0,1.9,0.9,1.9,1.9c0,1.1-0.9,1.9-1.9,1.9s-1.9-0.9-1.9-1.9C219.9,226.8,220.7,225.9,221.8,225.9
		L221.8,225.9z"/>
	<path d="M158.9,207.3c1.1,0,1.9,0.9,1.9,1.9s-0.9,1.9-1.9,1.9s-1.9-0.9-1.9-1.9S157.9,207.3,158.9,207.3L158.9,207.3z"/>
	<path d="M125.1,218.4c1.1,0,1.9,0.9,1.9,1.9c0,1.1-0.9,1.9-1.9,1.9c-1.1,0-1.9-0.9-1.9-1.9C123.1,219.2,124,218.4,125.1,218.4
		L125.1,218.4z"/>
	<path d="M217.6,160.1c1.1,0,1.9,0.9,1.9,1.9c0,1.1-0.9,1.9-1.9,1.9c-1.1,0-1.9-0.9-1.9-1.9C215.6,160.9,216.5,160.1,217.6,160.1
		L217.6,160.1z"/>
	<path d="M164.3,213.1c1.1,0,1.9,0.9,1.9,1.9c0,1.1-0.9,1.9-1.9,1.9c-1.1,0-1.9-0.9-1.9-1.9C162.3,213.9,163.2,213.1,164.3,213.1
		L164.3,213.1z"/>
	<path d="M186.6,13c1.1,0,1.9,0.9,1.9,1.9c0,1.1-0.9,1.9-1.9,1.9c-1.1,0-1.9-0.9-1.9-1.9C184.7,13.8,185.6,13,186.6,13L186.6,13z"/>
	<path d="M199.5,54.5c1.1,0,1.9,0.9,1.9,1.9c0,1.1-0.9,1.9-1.9,1.9s-1.9-0.9-1.9-1.9C197.6,55.4,198.5,54.5,199.5,54.5L199.5,54.5z"
		/>
	<path d="M216.3,181c1.1,0,1.9,0.9,1.9,1.9c0,1.1-0.9,1.9-1.9,1.9c-1.1,0-1.9-0.9-1.9-1.9C214.4,181.8,215.3,181,216.3,181
		L216.3,181z"/>
	<path d="M183.6,220.7c1.1,0,1.9,0.9,1.9,1.9c0,1.1-0.9,1.9-1.9,1.9c-1.1,0-1.9-0.9-1.9-1.9C181.7,221.6,182.6,220.7,183.6,220.7
		L183.6,220.7z"/>
	<path d="M206.7,205.1c1.1,0,1.9,0.9,1.9,1.9c0,1.1-0.9,1.9-1.9,1.9c-1.1,0-1.9-0.9-1.9-1.9C204.8,205.9,205.6,205.1,206.7,205.1
		L206.7,205.1z"/>
	<path d="M160.5,128.8c1.1,0,1.9,0.9,1.9,1.9c0,1.1-0.9,1.9-1.9,1.9c-1.1,0-1.9-0.9-1.9-1.9C158.5,129.7,159.4,128.8,160.5,128.8
		L160.5,128.8z"/>
	<path d="M191.5,133.1c1.1,0,1.9,0.9,1.9,1.9s-0.9,1.9-1.9,1.9c-1.1,0-1.9-0.9-1.9-1.9S190.4,133.1,191.5,133.1L191.5,133.1z"/>
	<path d="M170.5,185.3c1.1,0,1.9,0.9,1.9,1.9c0,1.1-0.9,1.9-1.9,1.9c-1.1,0-1.9-0.9-1.9-1.9C168.5,186.2,169.4,185.3,170.5,185.3
		L170.5,185.3z"/>
	<path d="M192.1,22.3c1.1,0,1.9,0.9,1.9,1.9c0,1.1-0.9,1.9-1.9,1.9c-1.1,0-1.9-0.9-1.9-1.9C190.2,23.2,191.1,22.3,192.1,22.3
		L192.1,22.3z"/>
	<path d="M179.7,99.4c1.1,0,1.9,0.9,1.9,1.9c0,1.1-0.9,1.9-1.9,1.9c-1.1,0-1.9-0.9-1.9-1.9C177.8,100.3,178.6,99.4,179.7,99.4
		L179.7,99.4z"/>
</g>
</svg>
