<?xml version="1.0" encoding="utf-8"?>
<!-- Generator: Adobe Illustrator 21.1.0, SVG Export Plug-In . SVG Version: 6.00 Build 0)  -->
<svg version="1.1" id="Layer_1" xmlns="http://www.w3.org/2000/svg" xmlns:xlink="http://www.w3.org/1999/xlink" x="0px" y="0px"
	 viewBox="0 0 350 350" style="enable-background:new 0 0 350 350;" xml:space="preserve">
<style type="text/css">
	.st0{fill:none;stroke:#231F20;stroke-width:0.75;stroke-linecap:square;stroke-miterlimit:10;}
</style>
<g>
	<line class="st0" x1="57" y1="31.9" x2="50" y2="31.3"/>
	<line class="st0" x1="105.9" y1="96.6" x2="106" y2="107.4"/>
	<line class="st0" x1="71" y1="73.6" x2="47.8" y2="24.2"/>
	<line class="st0" x1="60.5" y1="24.8" x2="63.8" y2="37"/>
	<line class="st0" x1="71" y1="73.6" x2="41.8" y2="29"/>
	<line class="st0" x1="47.8" y1="24.2" x2="41.8" y2="29"/>
	<line class="st0" x1="60.5" y1="24.8" x2="50" y2="31.3"/>
	<line class="st0" x1="71" y1="73.6" x2="50" y2="31.3"/>
	<line class="st0" x1="71" y1="73.6" x2="63.8" y2="37"/>
	<line class="st0" x1="285.9" y1="241.2" x2="317.1" y2="265.2"/>
	<line class="st0" x1="121.5" y1="96.9" x2="150.5" y2="96.3"/>
	<line class="st0" x1="71" y1="73.6" x2="41.3" y2="109.2"/>
	<line class="st0" x1="41.3" y1="109.2" x2="35.1" y2="94"/>
	<line class="st0" x1="121.1" y1="101.9" x2="150.5" y2="96.3"/>
	<line class="st0" x1="28.3" y1="106.9" x2="35.1" y2="94"/>
	<line class="st0" x1="21.7" y1="101" x2="35.1" y2="94"/>
	<line class="st0" x1="110.6" y1="81.1" x2="100.4" y2="107.5"/>
	<line class="st0" x1="110.6" y1="81.1" x2="106" y2="102"/>
	<line class="st0" x1="110.6" y1="81.1" x2="106" y2="107.4"/>
	<line class="st0" x1="21.7" y1="101" x2="41.3" y2="109.2"/>
	<line class="st0" x1="110.6" y1="81.1" x2="150.5" y2="96.3"/>
	<line class="st0" x1="21.7" y1="101" x2="34.7" y2="104.7"/>
	<line class="st0" x1="106" y1="102" x2="121.5" y2="96.9"/>
	<line class="st0" x1="106" y1="107.4" x2="121.5" y2="96.9"/>
	<line class="st0" x1="110.6" y1="81.1" x2="121.5" y2="96.9"/>
	<line class="st0" x1="110.6" y1="81.1" x2="121.1" y2="101.9"/>
	<line class="st0" x1="71" y1="73.6" x2="35.1" y2="94"/>
	<line class="st0" x1="35.1" y1="94" x2="34.7" y2="104.7"/>
	<line class="st0" x1="41.3" y1="109.2" x2="34.7" y2="104.7"/>
	<line class="st0" x1="28.3" y1="106.9" x2="34.7" y2="104.7"/>
	<line class="st0" x1="105.9" y1="96.6" x2="117.4" y2="94"/>
	<line class="st0" x1="29.5" y1="33.9" x2="31" y2="42.3"/>
	<line class="st0" x1="267.6" y1="84.1" x2="278.5" y2="163"/>
	<line class="st0" x1="105.9" y1="96.6" x2="100.4" y2="107.5"/>
	<line class="st0" x1="105.9" y1="96.6" x2="121.1" y2="101.9"/>
	<line class="st0" x1="105.9" y1="96.6" x2="121.5" y2="96.9"/>
	<line class="st0" x1="110.6" y1="81.1" x2="105.9" y2="96.6"/>
	<line class="st0" x1="105.9" y1="96.6" x2="150.5" y2="96.3"/>
	<line class="st0" x1="105.9" y1="96.6" x2="112" y2="93.8"/>
	<line class="st0" x1="71" y1="73.6" x2="105.9" y2="96.6"/>
	<line class="st0" x1="105.9" y1="96.6" x2="117.8" y2="106.1"/>
	<line class="st0" x1="110.9" y1="239.7" x2="109.6" y2="249.3"/>
	<line class="st0" x1="100.4" y1="107.5" x2="121.5" y2="96.9"/>
	<line class="st0" x1="40.7" y1="100.5" x2="28.3" y2="106.9"/>
	<line class="st0" x1="29.5" y1="33.9" x2="25.1" y2="42.5"/>
	<line class="st0" x1="140.2" y1="240.1" x2="109.6" y2="249.3"/>
	<line class="st0" x1="40.7" y1="100.5" x2="21.7" y2="101"/>
	<line class="st0" x1="40.7" y1="100.5" x2="35.1" y2="94"/>
	<line class="st0" x1="140.2" y1="240.1" x2="110.9" y2="239.7"/>
	<line class="st0" x1="106" y1="107.4" x2="121.1" y2="101.9"/>
	<line class="st0" x1="40.7" y1="100.5" x2="41.3" y2="109.2"/>
	<line class="st0" x1="121.1" y1="101.9" x2="121.5" y2="96.9"/>
	<line class="st0" x1="140.2" y1="240.1" x2="136.2" y2="269.3"/>
	<line class="st0" x1="71" y1="73.6" x2="34.7" y2="104.7"/>
	<line class="st0" x1="100.4" y1="107.5" x2="121.1" y2="101.9"/>
	<line class="st0" x1="96.6" y1="272.1" x2="97.5" y2="278.4"/>
	<line class="st0" x1="40.7" y1="100.5" x2="34.7" y2="104.7"/>
	<line class="st0" x1="106" y1="102" x2="121.1" y2="101.9"/>
	<line class="st0" x1="96.6" y1="272.1" x2="108.2" y2="282.6"/>
	<line class="st0" x1="106" y1="102" x2="100.4" y2="107.5"/>
	<line class="st0" x1="140.2" y1="240.1" x2="96.6" y2="272.1"/>
	<line class="st0" x1="105.9" y1="96.6" x2="106" y2="102"/>
	<line class="st0" x1="106" y1="107.4" x2="100.4" y2="107.5"/>
	<line class="st0" x1="96.6" y1="272.1" x2="103.9" y2="285.3"/>
	<line class="st0" x1="47.8" y1="24.2" x2="63.6" y2="18.5"/>
	<line class="st0" x1="106" y1="107.4" x2="106" y2="102"/>
	<line class="st0" x1="103.9" y1="285.3" x2="103.7" y2="277.2"/>
	<line class="st0" x1="53.9" y1="22.4" x2="63.6" y2="18.5"/>
	<line class="st0" x1="96.6" y1="272.1" x2="103.7" y2="277.2"/>
	<line class="st0" x1="285.9" y1="241.2" x2="323.9" y2="257"/>
	<line class="st0" x1="285.9" y1="241.2" x2="335.4" y2="246.8"/>
	<line class="st0" x1="71" y1="73.6" x2="40.7" y2="100.5"/>
	<line class="st0" x1="335.4" y1="246.8" x2="323.9" y2="257"/>
	<line class="st0" x1="285.9" y1="241.2" x2="278.5" y2="163"/>
	<line class="st0" x1="71" y1="73.6" x2="30.6" y2="50"/>
	<line class="st0" x1="23.3" y1="55.9" x2="30.6" y2="50"/>
	<line class="st0" x1="32.7" y1="55.9" x2="30.6" y2="50"/>
	<line class="st0" x1="71" y1="73.6" x2="32.7" y2="55.9"/>
	<line class="st0" x1="23.3" y1="55.9" x2="37" y2="64.2"/>
	<line class="st0" x1="25.1" y1="42.5" x2="22.6" y2="48.7"/>
	<line class="st0" x1="23.3" y1="55.9" x2="32.7" y2="55.9"/>
	<line class="st0" x1="31" y1="42.3" x2="25.1" y2="42.5"/>
	<line class="st0" x1="300.3" y1="72.8" x2="305.8" y2="71.2"/>
	<line class="st0" x1="31" y1="42.3" x2="22.6" y2="48.7"/>
	<line class="st0" x1="267.6" y1="84.1" x2="305.8" y2="71.2"/>
	<line class="st0" x1="29.5" y1="33.9" x2="22.6" y2="48.7"/>
	<line class="st0" x1="303.3" y1="57.7" x2="300.3" y2="72.8"/>
	<line class="st0" x1="71" y1="73.6" x2="25.1" y2="42.5"/>
	<line class="st0" x1="267.6" y1="84.1" x2="300.3" y2="72.8"/>
	<line class="st0" x1="71" y1="73.6" x2="22.6" y2="48.7"/>
	<line class="st0" x1="267.6" y1="84.1" x2="242.1" y2="66.5"/>
	<line class="st0" x1="71" y1="73.6" x2="31" y2="42.3"/>
	<line class="st0" x1="71" y1="73.6" x2="106" y2="107.4"/>
	<line class="st0" x1="267.6" y1="84.1" x2="150.5" y2="96.3"/>
	<line class="st0" x1="71" y1="73.6" x2="117.8" y2="106.1"/>
	<line class="st0" x1="285.9" y1="241.2" x2="311.3" y2="272.2"/>
	<line class="st0" x1="112" y1="93.8" x2="117.8" y2="106.1"/>
	<line class="st0" x1="150.5" y1="96.3" x2="117.8" y2="106.1"/>
	<line class="st0" x1="303.3" y1="109.9" x2="297.1" y2="122"/>
	<line class="st0" x1="303.3" y1="109.9" x2="309.1" y2="105.5"/>
	<line class="st0" x1="297.1" y1="122" x2="309.1" y2="105.5"/>
	<line class="st0" x1="40.6" y1="34.6" x2="29.5" y2="33.9"/>
	<line class="st0" x1="309.1" y1="105.5" x2="296.7" y2="113.1"/>
	<line class="st0" x1="71" y1="73.6" x2="29.5" y2="33.9"/>
	<line class="st0" x1="303.3" y1="109.9" x2="296.7" y2="113.1"/>
	<line class="st0" x1="297.1" y1="122" x2="296.7" y2="113.1"/>
	<line class="st0" x1="267.6" y1="84.1" x2="296.7" y2="113.1"/>
	<line class="st0" x1="71" y1="73.6" x2="112" y2="93.8"/>
	<line class="st0" x1="267.6" y1="84.1" x2="296.9" y2="56.5"/>
	<line class="st0" x1="71" y1="73.6" x2="150.5" y2="96.3"/>
	<line class="st0" x1="71" y1="73.6" x2="121.5" y2="96.9"/>
	<line class="st0" x1="71" y1="73.6" x2="121.1" y2="101.9"/>
	<line class="st0" x1="71" y1="73.6" x2="100.4" y2="107.5"/>
	<line class="st0" x1="71" y1="73.6" x2="106" y2="102"/>
	<line class="st0" x1="71" y1="73.6" x2="53.9" y2="22.4"/>
	<line class="st0" x1="53.9" y1="22.4" x2="47.8" y2="24.2"/>
	<line class="st0" x1="53.9" y1="22.4" x2="41.8" y2="29"/>
	<line class="st0" x1="36.7" y1="39.1" x2="40.6" y2="34.6"/>
	<line class="st0" x1="71" y1="73.6" x2="45" y2="78.9"/>
	<line class="st0" x1="36.7" y1="39.1" x2="29.5" y2="33.9"/>
	<line class="st0" x1="71" y1="73.6" x2="42.6" y2="45.7"/>
	<line class="st0" x1="71" y1="73.6" x2="36.7" y2="39.1"/>
	<line class="st0" x1="42.6" y1="45.7" x2="48.4" y2="39.5"/>
	<line class="st0" x1="71" y1="73.6" x2="40.6" y2="34.6"/>
	<line class="st0" x1="71" y1="73.6" x2="48.4" y2="39.5"/>
	<line class="st0" x1="213.6" y1="322.2" x2="210.6" y2="326.5"/>
	<line class="st0" x1="210.2" y1="229.1" x2="204.9" y2="172"/>
	<line class="st0" x1="222.9" y1="285.7" x2="213.6" y2="322.2"/>
	<line class="st0" x1="32.2" y1="72.3" x2="28.5" y2="63.3"/>
	<line class="st0" x1="140.2" y1="240.1" x2="153.2" y2="271.3"/>
	<line class="st0" x1="71" y1="73.6" x2="32.2" y2="72.3"/>
	<line class="st0" x1="135.4" y1="281.1" x2="153.2" y2="271.3"/>
	<line class="st0" x1="71" y1="73.6" x2="28.5" y2="63.3"/>
	<line class="st0" x1="100.4" y1="107.5" x2="112" y2="93.8"/>
	<line class="st0" x1="179" y1="206.7" x2="163.5" y2="190.6"/>
	<line class="st0" x1="106" y1="102" x2="112" y2="93.8"/>
	<line class="st0" x1="204.9" y1="172" x2="163.5" y2="190.6"/>
	<line class="st0" x1="121.5" y1="96.9" x2="112" y2="93.8"/>
	<line class="st0" x1="140.2" y1="240.1" x2="114.6" y2="266.8"/>
	<line class="st0" x1="121.1" y1="101.9" x2="112" y2="93.8"/>
	<line class="st0" x1="204.9" y1="172" x2="179" y2="206.7"/>
	<line class="st0" x1="210.6" y1="326.5" x2="203.8" y2="325"/>
	<line class="st0" x1="204.9" y1="172" x2="184.2" y2="211.6"/>
	<line class="st0" x1="213.6" y1="322.2" x2="203.8" y2="325"/>
	<line class="st0" x1="210.2" y1="229.1" x2="184.2" y2="211.6"/>
	<line class="st0" x1="106" y1="107.4" x2="112" y2="93.8"/>
	<line class="st0" x1="163.5" y1="190.6" x2="184.2" y2="211.6"/>
	<line class="st0" x1="222.9" y1="285.7" x2="210.6" y2="326.5"/>
	<line class="st0" x1="179" y1="206.7" x2="184.2" y2="211.6"/>
	<line class="st0" x1="100.4" y1="107.5" x2="150.5" y2="96.3"/>
	<line class="st0" x1="210.2" y1="229.1" x2="163.5" y2="190.6"/>
	<line class="st0" x1="210.2" y1="229.1" x2="179" y2="206.7"/>
	<line class="st0" x1="150.5" y1="96.3" x2="112" y2="93.8"/>
	<line class="st0" x1="110.6" y1="81.1" x2="112" y2="93.8"/>
	<line class="st0" x1="106" y1="102" x2="150.5" y2="96.3"/>
	<line class="st0" x1="106" y1="107.4" x2="150.5" y2="96.3"/>
	<line class="st0" x1="290.7" y1="107.9" x2="278.4" y2="115.3"/>
	<line class="st0" x1="267.6" y1="84.1" x2="278.4" y2="115.3"/>
	<line class="st0" x1="140.2" y1="240.1" x2="163.5" y2="190.6"/>
	<line class="st0" x1="267.6" y1="84.1" x2="204.9" y2="172"/>
	<line class="st0" x1="140.2" y1="240.1" x2="183.1" y2="207.2"/>
	<line class="st0" x1="267.6" y1="84.1" x2="303.3" y2="109.9"/>
	<line class="st0" x1="204.9" y1="172" x2="183.1" y2="207.2"/>
	<line class="st0" x1="267.6" y1="84.1" x2="302" y2="96.9"/>
	<line class="st0" x1="140.2" y1="240.1" x2="184.2" y2="211.6"/>
	<line class="st0" x1="293.7" y1="97.2" x2="302" y2="96.9"/>
	<line class="st0" x1="140.2" y1="240.1" x2="210.2" y2="229.1"/>
	<line class="st0" x1="320.2" y1="86.5" x2="318.7" y2="93"/>
	<line class="st0" x1="184.2" y1="211.6" x2="183.1" y2="207.2"/>
	<line class="st0" x1="320.2" y1="86.5" x2="314.9" y2="99.1"/>
	<line class="st0" x1="210.2" y1="229.1" x2="183.1" y2="207.2"/>
	<line class="st0" x1="267.6" y1="84.1" x2="320.2" y2="86.5"/>
	<line class="st0" x1="179" y1="206.7" x2="183.1" y2="207.2"/>
	<line class="st0" x1="320.2" y1="86.5" x2="317.8" y2="80.7"/>
	<line class="st0" x1="163.5" y1="190.6" x2="183.1" y2="207.2"/>
	<line class="st0" x1="110.6" y1="81.1" x2="95" y2="43.3"/>
	<line class="st0" x1="110.2" y1="56.2" x2="95" y2="43.3"/>
	<line class="st0" x1="320.2" y1="86.5" x2="310.8" y2="92.7"/>
	<line class="st0" x1="71" y1="73.6" x2="95" y2="43.3"/>
	<line class="st0" x1="71" y1="73.6" x2="110.2" y2="56.2"/>
	<line class="st0" x1="317.8" y1="80.7" x2="310.8" y2="92.7"/>
	<line class="st0" x1="110.6" y1="81.1" x2="110.2" y2="56.2"/>
	<line class="st0" x1="267.6" y1="84.1" x2="310.8" y2="92.7"/>
	<line class="st0" x1="222.9" y1="285.7" x2="247.9" y2="312.5"/>
	<line class="st0" x1="71" y1="73.6" x2="110.6" y2="81.1"/>
	<line class="st0" x1="267.6" y1="84.1" x2="288" y2="54"/>
	<line class="st0" x1="303.3" y1="57.7" x2="288" y2="54"/>
	<line class="st0" x1="267.6" y1="84.1" x2="291.9" y2="48.2"/>
	<line class="st0" x1="318.7" y1="93" x2="310.8" y2="92.7"/>
	<line class="st0" x1="314.9" y1="99.1" x2="310.8" y2="92.7"/>
	<line class="st0" x1="267.6" y1="84.1" x2="314.9" y2="99.1"/>
	<line class="st0" x1="317.8" y1="80.7" x2="314.9" y2="99.1"/>
	<line class="st0" x1="318.7" y1="93" x2="314.9" y2="99.1"/>
	<line class="st0" x1="267.6" y1="84.1" x2="318.7" y2="93"/>
	<line class="st0" x1="317.8" y1="80.7" x2="318.7" y2="93"/>
	<line class="st0" x1="71" y1="73.6" x2="82.7" y2="25.4"/>
	<line class="st0" x1="76.8" y1="21.4" x2="82.7" y2="25.4"/>
	<line class="st0" x1="63.6" y1="18.5" x2="76.8" y2="21.4"/>
	<line class="st0" x1="63.6" y1="18.5" x2="82.7" y2="25.4"/>
	<line class="st0" x1="311.9" y1="84.7" x2="302.4" y2="84"/>
	<line class="st0" x1="267.6" y1="84.1" x2="302.4" y2="84"/>
	<line class="st0" x1="267.6" y1="84.1" x2="263.3" y2="105.4"/>
	<line class="st0" x1="140.2" y1="240.1" x2="126.5" y2="274"/>
	<line class="st0" x1="71" y1="73.6" x2="63.6" y2="18.5"/>
	<line class="st0" x1="267.6" y1="84.1" x2="311.9" y2="84.7"/>
	<line class="st0" x1="71" y1="73.6" x2="76.8" y2="21.4"/>
	<line class="st0" x1="281.9" y1="107.8" x2="278.4" y2="115.3"/>
	<line class="st0" x1="293.7" y1="97.2" x2="290.7" y2="107.9"/>
	<line class="st0" x1="267.6" y1="84.1" x2="290.7" y2="107.9"/>
	<line class="st0" x1="267.6" y1="84.1" x2="281.9" y2="107.8"/>
	<line class="st0" x1="290.7" y1="107.9" x2="281.9" y2="107.8"/>
	<line class="st0" x1="267.6" y1="84.1" x2="290" y2="84.7"/>
	<line class="st0" x1="285.9" y1="241.2" x2="317" y2="226.9"/>
	<line class="st0" x1="71" y1="73.6" x2="73.7" y2="41.8"/>
	<line class="st0" x1="267.6" y1="84.1" x2="293.7" y2="97.2"/>
	<line class="st0" x1="335.4" y1="246.8" x2="333.2" y2="238.3"/>
	<line class="st0" x1="330.2" y1="231.5" x2="333.2" y2="238.3"/>
	<line class="st0" x1="285.9" y1="241.2" x2="330.2" y2="231.5"/>
	<line class="st0" x1="330.2" y1="231.5" x2="325" y2="243.9"/>
	<line class="st0" x1="335.4" y1="246.8" x2="330.2" y2="231.5"/>
	<line class="st0" x1="311.8" y1="62.9" x2="319.1" y2="64.9"/>
	<line class="st0" x1="319.1" y1="64.9" x2="315.1" y2="71"/>
	<line class="st0" x1="311.8" y1="62.9" x2="315.1" y2="71"/>
	<line class="st0" x1="319.1" y1="64.9" x2="311.8" y2="55.6"/>
	<line class="st0" x1="315.1" y1="71" x2="311.8" y2="55.6"/>
	<line class="st0" x1="267.6" y1="84.1" x2="311.8" y2="62.9"/>
	<line class="st0" x1="267.6" y1="84.1" x2="319.1" y2="64.9"/>
	<line class="st0" x1="267.6" y1="84.1" x2="315.1" y2="71"/>
	<line class="st0" x1="267.6" y1="84.1" x2="311.8" y2="55.6"/>
	<line class="st0" x1="311.9" y1="84.7" x2="311.8" y2="62.9"/>
	<line class="st0" x1="311.9" y1="84.7" x2="319.1" y2="64.9"/>
	<line class="st0" x1="311.9" y1="84.7" x2="315.1" y2="71"/>
	<line class="st0" x1="311.9" y1="84.7" x2="311.8" y2="55.6"/>
	<line class="st0" x1="311.8" y1="62.9" x2="311.8" y2="55.6"/>
	<line class="st0" x1="267.6" y1="84.1" x2="321.5" y2="71.7"/>
	<line class="st0" x1="106" y1="102" x2="117.8" y2="106.1"/>
	<line class="st0" x1="311.9" y1="84.7" x2="317.3" y2="59"/>
	<line class="st0" x1="100.4" y1="107.5" x2="117.8" y2="106.1"/>
	<line class="st0" x1="267.6" y1="84.1" x2="317.3" y2="59"/>
	<line class="st0" x1="117.8" y1="106.1" x2="117.4" y2="94"/>
	<line class="st0" x1="317.3" y1="59" x2="315.1" y2="71"/>
	<line class="st0" x1="106" y1="107.4" x2="117.8" y2="106.1"/>
	<line class="st0" x1="317.3" y1="59" x2="311.8" y2="55.6"/>
	<line class="st0" x1="110.6" y1="81.1" x2="117.8" y2="106.1"/>
	<line class="st0" x1="319.1" y1="64.9" x2="321.5" y2="71.7"/>
	<line class="st0" x1="315.1" y1="71" x2="321.5" y2="71.7"/>
	<line class="st0" x1="121.1" y1="101.9" x2="117.8" y2="106.1"/>
	<line class="st0" x1="317.3" y1="59" x2="321.5" y2="71.7"/>
	<line class="st0" x1="121.5" y1="96.9" x2="117.8" y2="106.1"/>
	<line class="st0" x1="311.8" y1="62.9" x2="321.5" y2="71.7"/>
	<line class="st0" x1="311.8" y1="55.6" x2="321.5" y2="71.7"/>
	<line class="st0" x1="311.9" y1="84.7" x2="321.5" y2="71.7"/>
	<line class="st0" x1="112" y1="93.8" x2="117.4" y2="94"/>
	<line class="st0" x1="71" y1="73.6" x2="117.4" y2="94"/>
	<line class="st0" x1="150.5" y1="96.3" x2="117.4" y2="94"/>
	<line class="st0" x1="314.6" y1="279.2" x2="320.6" y2="275.2"/>
	<line class="st0" x1="324.7" y1="269.4" x2="320.6" y2="275.2"/>
	<line class="st0" x1="285.9" y1="241.2" x2="320.6" y2="275.2"/>
	<line class="st0" x1="285.9" y1="241.2" x2="324.7" y2="269.4"/>
	<line class="st0" x1="140.2" y1="240.1" x2="174.6" y2="248.4"/>
	<line class="st0" x1="314.6" y1="279.2" x2="324.7" y2="269.4"/>
	<line class="st0" x1="285.9" y1="241.2" x2="314.6" y2="279.2"/>
	<line class="st0" x1="285.9" y1="241.2" x2="212.4" y2="254.8"/>
	<line class="st0" x1="317.3" y1="59" x2="311.8" y2="62.9"/>
	<line class="st0" x1="317.3" y1="59" x2="319.1" y2="64.9"/>
	<line class="st0" x1="332.5" y1="256" x2="329.2" y2="263.1"/>
	<line class="st0" x1="332.5" y1="256" x2="328.5" y2="249.1"/>
	<line class="st0" x1="21.7" y1="101" x2="28.3" y2="106.9"/>
	<line class="st0" x1="71" y1="73.6" x2="21.7" y2="101"/>
	<line class="st0" x1="28.3" y1="106.9" x2="41.3" y2="109.2"/>
	<line class="st0" x1="71" y1="73.6" x2="28.3" y2="106.9"/>
	<line class="st0" x1="285.9" y1="241.2" x2="328.5" y2="249.1"/>
	<line class="st0" x1="329.2" y1="263.1" x2="328.5" y2="249.1"/>
	<line class="st0" x1="285.9" y1="241.2" x2="332.5" y2="256"/>
	<line class="st0" x1="285.9" y1="241.2" x2="329.2" y2="263.1"/>
	<line class="st0" x1="267.6" y1="84.1" x2="266.9" y2="26.2"/>
	<line class="st0" x1="266.9" y1="26.2" x2="285.4" y2="27.4"/>
	<line class="st0" x1="266.9" y1="26.2" x2="265.2" y2="38.8"/>
	<line class="st0" x1="120.6" y1="138.8" x2="108.8" y2="112"/>
	<line class="st0" x1="266.9" y1="26.2" x2="281.2" y2="38.8"/>
	<line class="st0" x1="101.3" y1="101.8" x2="108.8" y2="112"/>
	<line class="st0" x1="266.9" y1="26.2" x2="287.3" y2="36.6"/>
	<line class="st0" x1="103.2" y1="112.1" x2="108.8" y2="112"/>
	<line class="st0" x1="266.9" y1="26.2" x2="261" y2="31"/>
	<line class="st0" x1="111" y1="98.9" x2="108.8" y2="112"/>
	<line class="st0" x1="114" y1="110" x2="108.8" y2="112"/>
	<line class="st0" x1="116.2" y1="99.8" x2="108.8" y2="112"/>
	<line class="st0" x1="106" y1="107.4" x2="114" y2="110"/>
	<line class="st0" x1="106" y1="102" x2="114" y2="110"/>
	<line class="st0" x1="100.4" y1="107.5" x2="114" y2="110"/>
	<line class="st0" x1="121.1" y1="101.9" x2="114" y2="110"/>
	<line class="st0" x1="267.6" y1="84.1" x2="317.8" y2="80.7"/>
	<line class="st0" x1="266.9" y1="26.2" x2="280.2" y2="32.3"/>
	<line class="st0" x1="266.9" y1="26.2" x2="265.9" y2="32.4"/>
	<line class="st0" x1="266.9" y1="26.2" x2="288.9" y2="31.6"/>
	<line class="st0" x1="110.6" y1="81.1" x2="108.8" y2="112"/>
	<line class="st0" x1="150.5" y1="96.3" x2="108.8" y2="112"/>
	<line class="st0" x1="121.1" y1="101.9" x2="108.8" y2="112"/>
	<line class="st0" x1="121.5" y1="96.9" x2="108.8" y2="112"/>
	<line class="st0" x1="100.4" y1="107.5" x2="108.8" y2="112"/>
	<line class="st0" x1="111.5" y1="105" x2="108.8" y2="112"/>
	<line class="st0" x1="117.4" y1="94" x2="108.8" y2="112"/>
	<line class="st0" x1="117.8" y1="106.1" x2="108.8" y2="112"/>
	<line class="st0" x1="71" y1="73.6" x2="108.8" y2="112"/>
	<line class="st0" x1="112" y1="93.8" x2="108.8" y2="112"/>
	<line class="st0" x1="115.6" y1="136.6" x2="111.5" y2="105"/>
	<line class="st0" x1="115.6" y1="136.6" x2="101.3" y2="101.8"/>
	<line class="st0" x1="115.6" y1="136.6" x2="120.6" y2="138.8"/>
	<line class="st0" x1="115.6" y1="136.6" x2="111" y2="98.9"/>
	<line class="st0" x1="106" y1="102" x2="108.8" y2="112"/>
	<line class="st0" x1="106" y1="107.4" x2="108.8" y2="112"/>
	<line class="st0" x1="115.6" y1="136.6" x2="116.2" y2="99.8"/>
	<line class="st0" x1="115.6" y1="136.6" x2="103.2" y2="112.1"/>
	<line class="st0" x1="115.6" y1="136.6" x2="108.8" y2="112"/>
	<line class="st0" x1="115.6" y1="136.6" x2="114" y2="110"/>
	<line class="st0" x1="115.6" y1="136.6" x2="100.4" y2="107.5"/>
	<line class="st0" x1="115.6" y1="136.6" x2="121.1" y2="101.9"/>
	<line class="st0" x1="115.6" y1="136.6" x2="106" y2="102"/>
	<line class="st0" x1="115.6" y1="136.6" x2="112" y2="93.8"/>
	<line class="st0" x1="115.6" y1="136.6" x2="150.5" y2="96.3"/>
	<line class="st0" x1="115.6" y1="136.6" x2="110.6" y2="81.1"/>
	<line class="st0" x1="115.6" y1="136.6" x2="121.5" y2="96.9"/>
	<line class="st0" x1="115.6" y1="136.6" x2="117.4" y2="94"/>
	<line class="st0" x1="115.6" y1="136.6" x2="117.8" y2="106.1"/>
	<line class="st0" x1="71" y1="73.6" x2="115.6" y2="136.6"/>
	<line class="st0" x1="105.9" y1="96.6" x2="111.5" y2="105"/>
	<line class="st0" x1="105.9" y1="96.6" x2="101.3" y2="101.8"/>
	<line class="st0" x1="105.9" y1="96.6" x2="111" y2="98.9"/>
	<line class="st0" x1="105.9" y1="96.6" x2="120.6" y2="138.8"/>
	<line class="st0" x1="105.9" y1="96.6" x2="116.2" y2="99.8"/>
	<line class="st0" x1="105.9" y1="96.6" x2="103.2" y2="112.1"/>
	<line class="st0" x1="105.9" y1="96.6" x2="108.8" y2="112"/>
	<line class="st0" x1="105.9" y1="96.6" x2="114" y2="110"/>
	<line class="st0" x1="115.6" y1="136.6" x2="106" y2="107.4"/>
	<line class="st0" x1="115.6" y1="136.6" x2="105.9" y2="96.6"/>
	<line class="st0" x1="222.9" y1="285.7" x2="269.6" y2="281.9"/>
	<line class="st0" x1="140.2" y1="240.1" x2="140.8" y2="258.7"/>
	<line class="st0" x1="222.9" y1="285.7" x2="260.4" y2="301.1"/>
	<line class="st0" x1="260.4" y1="301.1" x2="269.6" y2="281.9"/>
	<line class="st0" x1="285.9" y1="241.2" x2="325" y2="243.9"/>
	<line class="st0" x1="335.4" y1="246.8" x2="325" y2="243.9"/>
	<line class="st0" x1="325" y1="243.9" x2="333.2" y2="238.3"/>
	<line class="st0" x1="285.9" y1="241.2" x2="333.2" y2="238.3"/>
	<line class="st0" x1="140.2" y1="240.1" x2="118.1" y2="274.5"/>
	<line class="st0" x1="140.2" y1="240.1" x2="115.6" y2="136.6"/>
	<line class="st0" x1="122.6" y1="187.6" x2="115.6" y2="136.6"/>
	<line class="st0" x1="140.2" y1="240.1" x2="122.6" y2="187.6"/>
	<line class="st0" x1="140.2" y1="240.1" x2="145.8" y2="275.1"/>
	<line class="st0" x1="138.7" y1="289.9" x2="145.8" y2="275.1"/>
	<line class="st0" x1="266.9" y1="26.2" x2="272.7" y2="26.9"/>
	<line class="st0" x1="140.2" y1="240.1" x2="124.6" y2="264.1"/>
	<line class="st0" x1="266.9" y1="26.2" x2="272" y2="34.3"/>
	<line class="st0" x1="140.2" y1="240.1" x2="138.7" y2="289.9"/>
	<line class="st0" x1="84" y1="240.1" x2="100.7" y2="229.4"/>
	<line class="st0" x1="37.1" y1="80.4" x2="71" y2="73.6"/>
	<line class="st0" x1="281.2" y1="38.8" x2="278.5" y2="25.6"/>
	<line class="st0" x1="267.6" y1="84.1" x2="278.5" y2="25.6"/>
	<line class="st0" x1="285.4" y1="27.4" x2="278.5" y2="25.6"/>
	<line class="st0" x1="288.9" y1="31.6" x2="278.5" y2="25.6"/>
	<line class="st0" x1="265.9" y1="32.4" x2="278.5" y2="25.6"/>
	<line class="st0" x1="280.2" y1="32.3" x2="278.5" y2="25.6"/>
	<line class="st0" x1="266.9" y1="26.2" x2="278.5" y2="25.6"/>
	<line class="st0" x1="266.9" y1="26.2" x2="274.2" y2="40.1"/>
	<line class="st0" x1="71" y1="73.6" x2="37" y2="64.2"/>
	<line class="st0" x1="71" y1="73.6" x2="60.5" y2="24.8"/>
	<line class="st0" x1="140.2" y1="240.1" x2="101.2" y2="262.6"/>
	<line class="st0" x1="222.9" y1="285.7" x2="236.6" y2="322.3"/>
	<line class="st0" x1="267.6" y1="84.1" x2="291" y2="62.9"/>
	<line class="st0" x1="267.6" y1="84.1" x2="253" y2="61.5"/>
	<line class="st0" x1="140.2" y1="240.1" x2="117.4" y2="212.5"/>
	<line class="st0" x1="101.3" y1="217.7" x2="108" y2="220.6"/>
	<line class="st0" x1="71" y1="73.6" x2="69" y2="31.1"/>
	<line class="st0" x1="140.2" y1="240.1" x2="101.3" y2="217.7"/>
	<line class="st0" x1="60.5" y1="24.8" x2="69" y2="31.1"/>
	<line class="st0" x1="109.6" y1="211.9" x2="117.4" y2="212.5"/>
	<line class="st0" x1="71" y1="73.6" x2="57" y2="31.9"/>
	<line class="st0" x1="101.3" y1="217.7" x2="117.4" y2="212.5"/>
	<line class="st0" x1="60.5" y1="24.8" x2="57" y2="31.9"/>
	<line class="st0" x1="120.6" y1="138.8" x2="114" y2="110"/>
	<line class="st0" x1="140.2" y1="240.1" x2="128.9" y2="284.2"/>
	<line class="st0" x1="101.3" y1="101.8" x2="114" y2="110"/>
	<line class="st0" x1="140.2" y1="240.1" x2="119.6" y2="255"/>
	<line class="st0" x1="71" y1="73.6" x2="63.3" y2="48.1"/>
	<line class="st0" x1="101.3" y1="217.7" x2="109.6" y2="211.9"/>
	<line class="st0" x1="117.8" y1="106.1" x2="114" y2="110"/>
	<line class="st0" x1="71" y1="73.6" x2="114" y2="110"/>
	<line class="st0" x1="111.5" y1="105" x2="114" y2="110"/>
	<line class="st0" x1="71" y1="73.6" x2="48.4" y2="62.2"/>
	<line class="st0" x1="117.4" y1="94" x2="114" y2="110"/>
	<line class="st0" x1="110.6" y1="81.1" x2="114" y2="110"/>
	<line class="st0" x1="121.5" y1="96.9" x2="114" y2="110"/>
	<line class="st0" x1="112" y1="93.8" x2="114" y2="110"/>
	<line class="st0" x1="150.5" y1="96.3" x2="114" y2="110"/>
	<line class="st0" x1="120.6" y1="138.8" x2="132.2" y2="187.7"/>
	<line class="st0" x1="267.6" y1="84.1" x2="277.7" y2="53.3"/>
	<line class="st0" x1="140.2" y1="240.1" x2="132.2" y2="187.7"/>
	<line class="st0" x1="222.9" y1="285.7" x2="244.5" y2="328.1"/>
	<line class="st0" x1="140.2" y1="240.1" x2="135.4" y2="281.1"/>
	<line class="st0" x1="140.2" y1="240.1" x2="123.1" y2="222.8"/>
	<line class="st0" x1="140.2" y1="240.1" x2="133.4" y2="213.4"/>
	<line class="st0" x1="120.6" y1="138.8" x2="163.5" y2="190.6"/>
	<line class="st0" x1="267.6" y1="84.1" x2="273" y2="62.5"/>
	<line class="st0" x1="163.5" y1="190.6" x2="136.8" y2="186.6"/>
	<line class="st0" x1="267.6" y1="84.1" x2="303.3" y2="57.7"/>
	<line class="st0" x1="132.2" y1="187.7" x2="136.8" y2="186.6"/>
	<line class="st0" x1="222.9" y1="285.7" x2="254.5" y2="315.5"/>
	<line class="st0" x1="163.5" y1="190.6" x2="132.2" y2="187.7"/>
	<line class="st0" x1="244.5" y1="328.1" x2="254.5" y2="315.5"/>
	<line class="st0" x1="222.9" y1="285.7" x2="237.2" y2="257.6"/>
	<line class="st0" x1="22" y1="75.8" x2="15.4" y2="73.8"/>
	<line class="st0" x1="22" y1="75.8" x2="14.6" y2="67.4"/>
	<line class="st0" x1="138.7" y1="289.9" x2="128.9" y2="284.2"/>
	<line class="st0" x1="22" y1="75.8" x2="17.4" y2="81.3"/>
	<line class="st0" x1="210.2" y1="229.1" x2="237.2" y2="257.6"/>
	<line class="st0" x1="22" y1="75.8" x2="20.7" y2="67.3"/>
	<line class="st0" x1="140.2" y1="240.1" x2="130.8" y2="290.2"/>
	<line class="st0" x1="130.8" y1="290.2" x2="135.4" y2="281.1"/>
	<line class="st0" x1="108" y1="220.6" x2="117.4" y2="212.5"/>
	<line class="st0" x1="110.6" y1="81.1" x2="116.2" y2="99.8"/>
	<line class="st0" x1="109.6" y1="211.9" x2="108" y2="220.6"/>
	<line class="st0" x1="121.5" y1="96.9" x2="116.2" y2="99.8"/>
	<line class="st0" x1="121.1" y1="101.9" x2="116.2" y2="99.8"/>
	<line class="st0" x1="100.4" y1="107.5" x2="116.2" y2="99.8"/>
	<line class="st0" x1="71" y1="73.6" x2="22" y2="75.8"/>
	<line class="st0" x1="261" y1="31" x2="274.2" y2="40.1"/>
	<line class="st0" x1="22" y1="75.8" x2="16.5" y2="60.6"/>
	<line class="st0" x1="265.2" y1="38.8" x2="274.2" y2="40.1"/>
	<line class="st0" x1="140.2" y1="240.1" x2="108" y2="220.6"/>
	<line class="st0" x1="281.2" y1="38.8" x2="274.2" y2="40.1"/>
	<line class="st0" x1="140.2" y1="240.1" x2="109.6" y2="211.9"/>
	<line class="st0" x1="150.5" y1="96.3" x2="116.2" y2="99.8"/>
	<line class="st0" x1="267.6" y1="84.1" x2="274.2" y2="40.1"/>
	<line class="st0" x1="111" y1="98.9" x2="114" y2="110"/>
	<line class="st0" x1="280.2" y1="32.3" x2="272.7" y2="26.9"/>
	<line class="st0" x1="272.7" y1="26.9" x2="274.2" y2="40.1"/>
	<line class="st0" x1="272" y1="34.3" x2="274.2" y2="40.1"/>
	<line class="st0" x1="285.9" y1="241.2" x2="294.4" y2="281.8"/>
	<line class="st0" x1="287.3" y1="36.6" x2="274.2" y2="40.1"/>
	<line class="st0" x1="106" y1="102" x2="116.2" y2="99.8"/>
	<line class="st0" x1="106" y1="107.4" x2="116.2" y2="99.8"/>
	<line class="st0" x1="116.2" y1="99.8" x2="114" y2="110"/>
	<line class="st0" x1="288.9" y1="31.6" x2="272.7" y2="26.9"/>
	<line class="st0" x1="103.2" y1="112.1" x2="114" y2="110"/>
	<line class="st0" x1="265.9" y1="32.4" x2="272.7" y2="26.9"/>
	<line class="st0" x1="222.9" y1="285.7" x2="267.5" y2="277.3"/>
	<line class="st0" x1="237.2" y1="257.6" x2="231.7" y2="261.2"/>
	<line class="st0" x1="285.9" y1="241.2" x2="267.5" y2="277.3"/>
	<line class="st0" x1="210.2" y1="229.1" x2="231.7" y2="261.2"/>
	<line class="st0" x1="267.5" y1="277.3" x2="289.3" y2="278.6"/>
	<line class="st0" x1="222.9" y1="285.7" x2="231.7" y2="261.2"/>
	<line class="st0" x1="285.9" y1="241.2" x2="289.3" y2="278.6"/>
	<line class="st0" x1="285.9" y1="241.2" x2="210.2" y2="229.1"/>
	<line class="st0" x1="289.3" y1="278.6" x2="294.4" y2="281.8"/>
	<line class="st0" x1="222.9" y1="285.7" x2="285.9" y2="241.2"/>
	<line class="st0" x1="269.6" y1="281.9" x2="289.3" y2="278.6"/>
	<line class="st0" x1="222.9" y1="285.7" x2="253.4" y2="322.2"/>
	<line class="st0" x1="269.6" y1="281.9" x2="294.4" y2="281.8"/>
	<line class="st0" x1="222.9" y1="285.7" x2="246" y2="322.1"/>
	<line class="st0" x1="267.5" y1="277.3" x2="294.4" y2="281.8"/>
	<line class="st0" x1="253.4" y1="322.2" x2="246" y2="322.1"/>
	<line class="st0" x1="112.3" y1="50.3" x2="110.6" y2="81.1"/>
	<line class="st0" x1="17.4" y1="81.3" x2="14.6" y2="67.4"/>
	<line class="st0" x1="71" y1="73.6" x2="112.3" y2="50.3"/>
	<line class="st0" x1="20.7" y1="67.3" x2="14.6" y2="67.4"/>
	<line class="st0" x1="71" y1="73.6" x2="17.4" y2="81.3"/>
	<line class="st0" x1="285.9" y1="241.2" x2="269.6" y2="281.9"/>
	<line class="st0" x1="111" y1="98.9" x2="116.2" y2="99.8"/>
	<line class="st0" x1="71" y1="73.6" x2="15.4" y2="73.8"/>
	<line class="st0" x1="120.6" y1="138.8" x2="116.2" y2="99.8"/>
	<line class="st0" x1="16.5" y1="60.6" x2="15.4" y2="73.8"/>
	<line class="st0" x1="106" y1="107.4" x2="103.2" y2="112.1"/>
	<line class="st0" x1="20.7" y1="67.3" x2="15.4" y2="73.8"/>
	<line class="st0" x1="103.2" y1="112.1" x2="116.2" y2="99.8"/>
	<line class="st0" x1="17.4" y1="81.3" x2="15.4" y2="73.8"/>
	<line class="st0" x1="265.2" y1="38.8" x2="278.5" y2="25.6"/>
	<line class="st0" x1="14.6" y1="67.4" x2="15.4" y2="73.8"/>
	<line class="st0" x1="71" y1="73.6" x2="14.6" y2="67.4"/>
	<line class="st0" x1="287.3" y1="36.6" x2="278.5" y2="25.6"/>
	<line class="st0" x1="16.5" y1="60.6" x2="14.6" y2="67.4"/>
	<line class="st0" x1="261" y1="31" x2="278.5" y2="25.6"/>
	<line class="st0" x1="269.6" y1="281.9" x2="267.5" y2="277.3"/>
	<line class="st0" x1="272.7" y1="26.9" x2="278.5" y2="25.6"/>
	<line class="st0" x1="71" y1="73.6" x2="83.2" y2="35.3"/>
	<line class="st0" x1="272" y1="34.3" x2="278.5" y2="25.6"/>
	<line class="st0" x1="71" y1="73.6" x2="116.2" y2="99.8"/>
	<line class="st0" x1="280.2" y1="32.3" x2="274.2" y2="40.1"/>
	<line class="st0" x1="112" y1="93.8" x2="116.2" y2="99.8"/>
	<line class="st0" x1="274.2" y1="40.1" x2="278.5" y2="25.6"/>
	<line class="st0" x1="117.4" y1="94" x2="116.2" y2="99.8"/>
	<line class="st0" x1="288.9" y1="31.6" x2="274.2" y2="40.1"/>
	<line class="st0" x1="117.8" y1="106.1" x2="116.2" y2="99.8"/>
	<line class="st0" x1="265.9" y1="32.4" x2="274.2" y2="40.1"/>
	<line class="st0" x1="101.3" y1="101.8" x2="116.2" y2="99.8"/>
	<line class="st0" x1="111.5" y1="105" x2="116.2" y2="99.8"/>
	<line class="st0" x1="285.4" y1="27.4" x2="274.2" y2="40.1"/>
	<line class="st0" x1="34.7" y1="104.7" x2="27.4" y2="97.6"/>
	<line class="st0" x1="163.6" y1="287.3" x2="158.1" y2="291.4"/>
	<line class="st0" x1="267.6" y1="84.1" x2="291.3" y2="71.8"/>
	<line class="st0" x1="158.6" y1="282.3" x2="163.6" y2="287.3"/>
	<line class="st0" x1="150.5" y1="96.3" x2="208.9" y2="87.3"/>
	<line class="st0" x1="153.1" y1="296.1" x2="158.1" y2="291.4"/>
	<line class="st0" x1="267.6" y1="84.1" x2="208.9" y2="87.3"/>
	<line class="st0" x1="148.6" y1="291.9" x2="158.1" y2="291.4"/>
	<line class="st0" x1="158.6" y1="282.3" x2="158.1" y2="291.4"/>
	<line class="st0" x1="144.2" y1="295.8" x2="158.1" y2="291.4"/>
	<line class="st0" x1="163.6" y1="287.3" x2="166.2" y2="281.4"/>
	<line class="st0" x1="158.1" y1="291.4" x2="166.2" y2="281.4"/>
	<line class="st0" x1="190.6" y1="291.3" x2="185.5" y2="269.5"/>
	<line class="st0" x1="140.2" y1="240.1" x2="190.6" y2="291.3"/>
	<line class="st0" x1="212.4" y1="254.8" x2="190.6" y2="291.3"/>
	<line class="st0" x1="21.7" y1="101" x2="27.4" y2="97.6"/>
	<line class="st0" x1="71" y1="73.6" x2="27.4" y2="97.6"/>
	<line class="st0" x1="144.2" y1="295.8" x2="163.6" y2="287.3"/>
	<line class="st0" x1="28.3" y1="106.9" x2="27.4" y2="97.6"/>
	<line class="st0" x1="153.1" y1="296.1" x2="163.6" y2="287.3"/>
	<line class="st0" x1="150.5" y1="96.3" x2="103.2" y2="112.1"/>
	<line class="st0" x1="112" y1="93.8" x2="103.2" y2="112.1"/>
	<line class="st0" x1="121.5" y1="96.9" x2="103.2" y2="112.1"/>
	<line class="st0" x1="110.6" y1="81.1" x2="103.2" y2="112.1"/>
	<line class="st0" x1="100.4" y1="107.5" x2="103.2" y2="112.1"/>
	<line class="st0" x1="121.1" y1="101.9" x2="103.2" y2="112.1"/>
	<line class="st0" x1="106" y1="102" x2="103.2" y2="112.1"/>
	<line class="st0" x1="117.4" y1="94" x2="103.2" y2="112.1"/>
	<line class="st0" x1="71" y1="73.6" x2="103.2" y2="112.1"/>
	<line class="st0" x1="117.8" y1="106.1" x2="103.2" y2="112.1"/>
	<line class="st0" x1="120.6" y1="138.8" x2="136.8" y2="186.6"/>
	<line class="st0" x1="144.2" y1="295.8" x2="153.1" y2="296.1"/>
	<line class="st0" x1="158.6" y1="282.3" x2="144.2" y2="295.8"/>
	<line class="st0" x1="140.2" y1="240.1" x2="120.6" y2="138.8"/>
	<line class="st0" x1="121.3" y1="285.8" x2="122" y2="291.7"/>
	<line class="st0" x1="140.2" y1="240.1" x2="136.8" y2="186.6"/>
	<line class="st0" x1="121.3" y1="285.8" x2="115" y2="283.2"/>
	<line class="st0" x1="158.6" y1="282.3" x2="148.6" y2="291.9"/>
	<line class="st0" x1="144.2" y1="295.8" x2="148.6" y2="291.9"/>
	<line class="st0" x1="153.1" y1="296.1" x2="148.6" y2="291.9"/>
	<line class="st0" x1="158.6" y1="282.3" x2="153.1" y2="296.1"/>
	<line class="st0" x1="286.5" y1="163.9" x2="296.8" y2="203.6"/>
	<line class="st0" x1="303.7" y1="202" x2="296.8" y2="203.6"/>
	<line class="st0" x1="286.5" y1="163.9" x2="303.7" y2="202"/>
	<line class="st0" x1="285.9" y1="241.2" x2="303.7" y2="202"/>
	<line class="st0" x1="121.3" y1="285.8" x2="114.9" y2="290.2"/>
	<line class="st0" x1="285.9" y1="241.2" x2="315" y2="253.2"/>
	<line class="st0" x1="285.9" y1="241.2" x2="296.8" y2="203.6"/>
	<line class="st0" x1="285.9" y1="241.2" x2="286.5" y2="163.9"/>
	<line class="st0" x1="106" y1="107.4" x2="111" y2="98.9"/>
	<line class="st0" x1="106" y1="102" x2="111" y2="98.9"/>
	<line class="st0" x1="100.4" y1="107.5" x2="111" y2="98.9"/>
	<line class="st0" x1="121.1" y1="101.9" x2="111" y2="98.9"/>
	<line class="st0" x1="111.5" y1="105" x2="103.2" y2="112.1"/>
	<line class="st0" x1="101.3" y1="101.8" x2="103.2" y2="112.1"/>
	<line class="st0" x1="120.6" y1="138.8" x2="103.2" y2="112.1"/>
	<line class="st0" x1="111" y1="98.9" x2="103.2" y2="112.1"/>
	<line class="st0" x1="148.6" y1="291.9" x2="163.6" y2="287.3"/>
	<line class="st0" x1="121.5" y1="96.9" x2="111" y2="98.9"/>
	<line class="st0" x1="110.6" y1="81.1" x2="111" y2="98.9"/>
	<line class="st0" x1="140.2" y1="240.1" x2="212.4" y2="254.8"/>
	<line class="st0" x1="122" y1="291.7" x2="114.9" y2="290.2"/>
	<line class="st0" x1="140.2" y1="240.1" x2="185.5" y2="269.5"/>
	<line class="st0" x1="115" y1="283.2" x2="114.9" y2="290.2"/>
	<line class="st0" x1="140.2" y1="240.1" x2="115" y2="283.2"/>
	<line class="st0" x1="140.2" y1="240.1" x2="114.9" y2="290.2"/>
	<line class="st0" x1="229.4" y1="331.5" x2="236.4" y2="330.7"/>
	<line class="st0" x1="82.4" y1="245.7" x2="91.6" y2="232.8"/>
	<line class="st0" x1="222.9" y1="285.7" x2="229.4" y2="331.5"/>
	<line class="st0" x1="82.4" y1="245.7" x2="94.2" y2="238.8"/>
	<line class="st0" x1="140.2" y1="240.1" x2="113.1" y2="230.1"/>
	<line class="st0" x1="122" y1="291.7" x2="115" y2="283.2"/>
	<line class="st0" x1="140.2" y1="240.1" x2="142.1" y2="280"/>
	<line class="st0" x1="82.4" y1="245.7" x2="91.8" y2="226.4"/>
	<line class="st0" x1="28.3" y1="106.9" x2="24.7" y2="86.2"/>
	<line class="st0" x1="28.3" y1="106.9" x2="28.1" y2="90.1"/>
	<line class="st0" x1="260.4" y1="301.1" x2="267.5" y2="277.3"/>
	<line class="st0" x1="222.9" y1="285.7" x2="236.4" y2="330.7"/>
	<line class="st0" x1="150.5" y1="96.3" x2="111" y2="98.9"/>
	<line class="st0" x1="117.8" y1="106.1" x2="111" y2="98.9"/>
	<line class="st0" x1="117.4" y1="94" x2="111" y2="98.9"/>
	<line class="st0" x1="112" y1="93.8" x2="111" y2="98.9"/>
	<line class="st0" x1="71" y1="73.6" x2="111" y2="98.9"/>
	<line class="st0" x1="120.6" y1="138.8" x2="111" y2="98.9"/>
	<line class="st0" x1="106" y1="107.4" x2="120.6" y2="138.8"/>
	<line class="st0" x1="111.5" y1="105" x2="111" y2="98.9"/>
	<line class="st0" x1="101.3" y1="101.8" x2="111" y2="98.9"/>
	<line class="st0" x1="106" y1="102" x2="120.6" y2="138.8"/>
	<line class="st0" x1="140.2" y1="240.1" x2="122" y2="291.7"/>
	<line class="st0" x1="140.2" y1="240.1" x2="121.3" y2="285.8"/>
	<line class="st0" x1="91.6" y1="232.8" x2="94.2" y2="238.8"/>
	<line class="st0" x1="140.2" y1="240.1" x2="91.6" y2="232.8"/>
	<line class="st0" x1="190.6" y1="291.3" x2="188.8" y2="265.3"/>
	<line class="st0" x1="84" y1="240.1" x2="91.6" y2="232.8"/>
	<line class="st0" x1="91.8" y1="226.4" x2="91.6" y2="232.8"/>
	<line class="st0" x1="222.9" y1="285.7" x2="212.4" y2="254.8"/>
	<line class="st0" x1="140.2" y1="240.1" x2="91.8" y2="226.4"/>
	<line class="st0" x1="222.9" y1="285.7" x2="190.6" y2="291.3"/>
	<line class="st0" x1="84" y1="240.1" x2="91.8" y2="226.4"/>
	<line class="st0" x1="222.9" y1="285.7" x2="185.5" y2="269.5"/>
	<line class="st0" x1="140.2" y1="240.1" x2="100.7" y2="229.4"/>
	<line class="st0" x1="140.2" y1="240.1" x2="222.9" y2="285.7"/>
	<line class="st0" x1="212.4" y1="254.8" x2="188.8" y2="265.3"/>
	<line class="st0" x1="222.9" y1="285.7" x2="188.8" y2="265.3"/>
	<line class="st0" x1="185.5" y1="269.5" x2="188.8" y2="265.3"/>
	<line class="st0" x1="140.2" y1="240.1" x2="188.8" y2="265.3"/>
	<line class="st0" x1="212.4" y1="254.8" x2="185.5" y2="269.5"/>
	<line class="st0" x1="121.1" y1="101.9" x2="120.6" y2="138.8"/>
	<line class="st0" x1="100.4" y1="107.5" x2="120.6" y2="138.8"/>
	<line class="st0" x1="121.5" y1="96.9" x2="120.6" y2="138.8"/>
	<line class="st0" x1="110.6" y1="81.1" x2="120.6" y2="138.8"/>
	<line class="st0" x1="150.5" y1="96.3" x2="120.6" y2="138.8"/>
	<line class="st0" x1="112" y1="93.8" x2="120.6" y2="138.8"/>
	<line class="st0" x1="71" y1="73.6" x2="120.6" y2="138.8"/>
	<line class="st0" x1="117.8" y1="106.1" x2="120.6" y2="138.8"/>
	<line class="st0" x1="117.4" y1="94" x2="120.6" y2="138.8"/>
	<line class="st0" x1="111.5" y1="105" x2="120.6" y2="138.8"/>
	<line class="st0" x1="140.2" y1="240.1" x2="94.2" y2="238.8"/>
	<line class="st0" x1="91.8" y1="226.4" x2="94.2" y2="238.8"/>
	<line class="st0" x1="84" y1="240.1" x2="94.2" y2="238.8"/>
	<line class="st0" x1="311.9" y1="84.7" x2="297.1" y2="122"/>
	<line class="st0" x1="71" y1="73.6" x2="54.4" y2="45.5"/>
	<line class="st0" x1="267.6" y1="84.1" x2="299" y2="50"/>
	<line class="st0" x1="267.6" y1="84.1" x2="297.1" y2="122"/>
	<line class="st0" x1="76.8" y1="21.4" x2="69.7" y2="22.7"/>
	<line class="st0" x1="63.6" y1="18.5" x2="69.7" y2="22.7"/>
	<line class="st0" x1="267.6" y1="84.1" x2="244.2" y2="78.7"/>
	<line class="st0" x1="71" y1="73.6" x2="69.7" y2="22.7"/>
	<line class="st0" x1="140.2" y1="240.1" x2="167.8" y2="268"/>
	<line class="st0" x1="167.8" y1="268" x2="171.3" y2="259"/>
	<line class="st0" x1="50.4" y1="94.4" x2="53.2" y2="104.6"/>
	<line class="st0" x1="71" y1="73.6" x2="53.2" y2="104.6"/>
	<line class="st0" x1="267.6" y1="84.1" x2="242.9" y2="56.4"/>
	<line class="st0" x1="265.9" y1="32.4" x2="288.9" y2="31.6"/>
	<line class="st0" x1="267.6" y1="84.1" x2="248" y2="49.4"/>
	<line class="st0" x1="280.2" y1="32.3" x2="265.9" y2="32.4"/>
	<line class="st0" x1="28.1" y1="90.1" x2="24.7" y2="86.2"/>
	<line class="st0" x1="71" y1="73.6" x2="28.1" y2="90.1"/>
	<line class="st0" x1="27.4" y1="97.6" x2="28.1" y2="90.1"/>
	<line class="st0" x1="71" y1="73.6" x2="50.4" y2="94.4"/>
	<line class="st0" x1="288.9" y1="31.6" x2="285.4" y2="27.4"/>
	<line class="st0" x1="265.9" y1="32.4" x2="285.4" y2="27.4"/>
	<line class="st0" x1="280.2" y1="32.3" x2="285.4" y2="27.4"/>
	<line class="st0" x1="267.6" y1="84.1" x2="285.4" y2="27.4"/>
	<line class="st0" x1="267.6" y1="84.1" x2="288.9" y2="31.6"/>
	<line class="st0" x1="267.6" y1="84.1" x2="265.9" y2="32.4"/>
	<line class="st0" x1="267.6" y1="84.1" x2="280.2" y2="32.3"/>
	<line class="st0" x1="267.6" y1="84.1" x2="281.2" y2="38.8"/>
	<line class="st0" x1="280.2" y1="32.3" x2="288.9" y2="31.6"/>
	<line class="st0" x1="27.4" y1="97.6" x2="24.7" y2="86.2"/>
	<line class="st0" x1="24.7" y1="86.2" x2="19.4" y2="90.9"/>
	<line class="st0" x1="71" y1="73.6" x2="24.7" y2="86.2"/>
	<line class="st0" x1="27.4" y1="97.6" x2="19.4" y2="90.9"/>
	<line class="st0" x1="28.1" y1="90.1" x2="19.4" y2="90.9"/>
	<line class="st0" x1="285.4" y1="27.4" x2="281.2" y2="38.8"/>
	<line class="st0" x1="21.7" y1="101" x2="19.4" y2="90.9"/>
	<line class="st0" x1="71" y1="73.6" x2="19.4" y2="90.9"/>
	<line class="st0" x1="21.7" y1="101" x2="28.1" y2="90.1"/>
	<line class="st0" x1="21.7" y1="101" x2="24.7" y2="86.2"/>
	<line class="st0" x1="28.3" y1="106.9" x2="19.4" y2="90.9"/>
	<line class="st0" x1="267.6" y1="84.1" x2="286.5" y2="163.9"/>
	<line class="st0" x1="311.9" y1="84.7" x2="309.1" y2="105.5"/>
	<line class="st0" x1="267.6" y1="84.1" x2="309.1" y2="105.5"/>
	<line class="st0" x1="267.6" y1="84.1" x2="255.6" y2="49.7"/>
	<line class="st0" x1="140.2" y1="240.1" x2="171.3" y2="259"/>
	<line class="st0" x1="140.2" y1="240.1" x2="179" y2="206.7"/>
	<line class="st0" x1="140.2" y1="240.1" x2="204.9" y2="172"/>
	<line class="st0" x1="297.1" y1="122" x2="286.5" y2="163.9"/>
	<line class="st0" x1="219.1" y1="318.7" x2="213.6" y2="322.2"/>
	<line class="st0" x1="222.9" y1="285.7" x2="206.2" y2="317.3"/>
	<line class="st0" x1="222.9" y1="285.7" x2="214.1" y2="313.5"/>
	<line class="st0" x1="285.9" y1="241.2" x2="303" y2="274.7"/>
	<line class="st0" x1="285.9" y1="241.2" x2="307.8" y2="263.5"/>
	<line class="st0" x1="206.2" y1="317.3" x2="214.1" y2="313.5"/>
	<line class="st0" x1="71" y1="73.6" x2="77.2" y2="30.8"/>
	<line class="st0" x1="222.9" y1="285.7" x2="219.1" y2="318.7"/>
	<line class="st0" x1="69.7" y1="22.7" x2="77.2" y2="30.8"/>
	<line class="st0" x1="190.6" y1="291.3" x2="206.2" y2="317.3"/>
	<line class="st0" x1="190.6" y1="291.3" x2="214.1" y2="313.5"/>
	<line class="st0" x1="71" y1="73.6" x2="43.4" y2="53.8"/>
	<line class="st0" x1="280.2" y1="32.3" x2="287.3" y2="36.6"/>
	<line class="st0" x1="265.9" y1="32.4" x2="287.3" y2="36.6"/>
	<line class="st0" x1="288.9" y1="31.6" x2="287.3" y2="36.6"/>
	<line class="st0" x1="285.4" y1="27.4" x2="287.3" y2="36.6"/>
	<line class="st0" x1="316.4" y1="240.2" x2="285.9" y2="241.2"/>
	<line class="st0" x1="281.2" y1="38.8" x2="272" y2="34.3"/>
	<line class="st0" x1="71" y1="73.6" x2="16.5" y2="60.6"/>
	<line class="st0" x1="265.2" y1="38.8" x2="272" y2="34.3"/>
	<line class="st0" x1="71" y1="73.6" x2="23.3" y2="55.9"/>
	<line class="st0" x1="261" y1="31" x2="272" y2="34.3"/>
	<line class="st0" x1="222.9" y1="285.7" x2="210.2" y2="229.1"/>
	<line class="st0" x1="287.3" y1="36.6" x2="272" y2="34.3"/>
	<line class="st0" x1="20.7" y1="67.3" x2="17.4" y2="81.3"/>
	<line class="st0" x1="16.5" y1="60.6" x2="17.4" y2="81.3"/>
	<line class="st0" x1="16.5" y1="60.6" x2="20.7" y2="67.3"/>
	<line class="st0" x1="285.4" y1="27.4" x2="272" y2="34.3"/>
	<line class="st0" x1="71" y1="73.6" x2="20.7" y2="67.3"/>
	<line class="st0" x1="267.6" y1="84.1" x2="272" y2="34.3"/>
	<line class="st0" x1="267.6" y1="84.1" x2="265.6" y2="56.6"/>
	<line class="st0" x1="285.9" y1="241.2" x2="321.9" y2="232.9"/>
	<line class="st0" x1="288.9" y1="31.6" x2="272" y2="34.3"/>
	<line class="st0" x1="280.2" y1="32.3" x2="272" y2="34.3"/>
	<line class="st0" x1="265.9" y1="32.4" x2="272" y2="34.3"/>
	<line class="st0" x1="287.3" y1="36.6" x2="272.7" y2="26.9"/>
	<line class="st0" x1="272" y1="34.3" x2="272.7" y2="26.9"/>
	<line class="st0" x1="265.2" y1="38.8" x2="272.7" y2="26.9"/>
	<line class="st0" x1="261" y1="31" x2="272.7" y2="26.9"/>
	<line class="st0" x1="267.6" y1="84.1" x2="272.7" y2="26.9"/>
	<line class="st0" x1="281.2" y1="38.8" x2="272.7" y2="26.9"/>
	<line class="st0" x1="285.4" y1="27.4" x2="272.7" y2="26.9"/>
	<line class="st0" x1="265.9" y1="32.4" x2="281.2" y2="38.8"/>
	<line class="st0" x1="288.9" y1="31.6" x2="281.2" y2="38.8"/>
	<line class="st0" x1="265.2" y1="38.8" x2="261" y2="31"/>
	<line class="st0" x1="280.2" y1="32.3" x2="265.2" y2="38.8"/>
	<line class="st0" x1="265.9" y1="32.4" x2="265.2" y2="38.8"/>
	<line class="st0" x1="288.9" y1="31.6" x2="265.2" y2="38.8"/>
	<line class="st0" x1="285.4" y1="27.4" x2="265.2" y2="38.8"/>
	<line class="st0" x1="267.6" y1="84.1" x2="265.2" y2="38.8"/>
	<line class="st0" x1="281.2" y1="38.8" x2="265.2" y2="38.8"/>
	<line class="st0" x1="280.2" y1="32.3" x2="281.2" y2="38.8"/>
	<line class="st0" x1="281.2" y1="38.8" x2="261" y2="31"/>
	<line class="st0" x1="285.4" y1="27.4" x2="261" y2="31"/>
	<line class="st0" x1="267.6" y1="84.1" x2="261" y2="31"/>
	<line class="st0" x1="281.2" y1="38.8" x2="287.3" y2="36.6"/>
	<line class="st0" x1="265.2" y1="38.8" x2="287.3" y2="36.6"/>
	<line class="st0" x1="267.6" y1="84.1" x2="287.3" y2="36.6"/>
	<line class="st0" x1="265.9" y1="32.4" x2="261" y2="31"/>
	<line class="st0" x1="288.9" y1="31.6" x2="261" y2="31"/>
	<line class="st0" x1="261" y1="31" x2="287.3" y2="36.6"/>
	<line class="st0" x1="280.2" y1="32.3" x2="261" y2="31"/>
	<line class="st0" x1="140.2" y1="240.1" x2="84.8" y2="253.6"/>
	<line class="st0" x1="88.9" y1="248.7" x2="84.8" y2="253.6"/>
	<line class="st0" x1="85.5" y1="260" x2="82.4" y2="245.7"/>
	<line class="st0" x1="85.5" y1="260" x2="84.8" y2="253.6"/>
	<line class="st0" x1="89.7" y1="264" x2="84.8" y2="253.6"/>
	<line class="st0" x1="91.6" y1="256.7" x2="84.8" y2="253.6"/>
	<line class="st0" x1="84" y1="240.1" x2="84.8" y2="253.6"/>
	<line class="st0" x1="91.6" y1="256.7" x2="82.4" y2="245.7"/>
	<line class="st0" x1="88.9" y1="248.7" x2="82.4" y2="245.7"/>
	<line class="st0" x1="140.2" y1="240.1" x2="82.4" y2="245.7"/>
	<line class="st0" x1="82.4" y1="245.7" x2="84.8" y2="253.6"/>
	<line class="st0" x1="140.2" y1="240.1" x2="160.5" y2="260.8"/>
	<line class="st0" x1="88.9" y1="248.7" x2="100.7" y2="244.8"/>
	<line class="st0" x1="140.2" y1="240.1" x2="100.7" y2="244.8"/>
	<line class="st0" x1="140.2" y1="240.1" x2="106.7" y2="262"/>
	<line class="st0" x1="140.2" y1="240.1" x2="107.6" y2="270.4"/>
	<line class="st0" x1="106.7" y1="262" x2="107.6" y2="270.4"/>
	<line class="st0" x1="140.2" y1="240.1" x2="85.5" y2="260"/>
	<line class="st0" x1="88.9" y1="248.7" x2="85.5" y2="260"/>
	<line class="st0" x1="85.5" y1="260" x2="91.6" y2="256.7"/>
	<line class="st0" x1="85.5" y1="260" x2="89.7" y2="264"/>
	<line class="st0" x1="85.5" y1="260" x2="84" y2="240.1"/>
	<line class="st0" x1="140.2" y1="240.1" x2="88.9" y2="248.7"/>
	<line class="st0" x1="140.2" y1="240.1" x2="108.2" y2="282.6"/>
	<line class="st0" x1="140.2" y1="240.1" x2="103.9" y2="285.3"/>
	<line class="st0" x1="108.2" y1="282.6" x2="97.5" y2="278.4"/>
	<line class="st0" x1="103.9" y1="285.3" x2="108.2" y2="282.6"/>
	<line class="st0" x1="103.9" y1="285.3" x2="97.5" y2="278.4"/>
	<line class="st0" x1="140.2" y1="240.1" x2="97.5" y2="278.4"/>
	<line class="st0" x1="108.2" y1="282.6" x2="103.7" y2="277.2"/>
	<line class="st0" x1="97.5" y1="278.4" x2="103.7" y2="277.2"/>
	<line class="st0" x1="88.9" y1="248.7" x2="101" y2="253.4"/>
	<line class="st0" x1="140.2" y1="240.1" x2="101" y2="253.4"/>
	<line class="st0" x1="140.2" y1="240.1" x2="103.7" y2="277.2"/>
	<line class="st0" x1="140.2" y1="240.1" x2="178.2" y2="235.6"/>
	<line class="st0" x1="140.2" y1="240.1" x2="169" y2="229.7"/>
	<line class="st0" x1="140.2" y1="240.1" x2="160.7" y2="234.9"/>
	<line class="st0" x1="160.7" y1="234.9" x2="169.3" y2="220.6"/>
	<line class="st0" x1="169" y1="229.7" x2="169.3" y2="220.6"/>
	<line class="st0" x1="140.2" y1="240.1" x2="169.3" y2="220.6"/>
	<line class="st0" x1="177" y1="227.6" x2="169.3" y2="220.6"/>
	<line class="st0" x1="160.7" y1="234.9" x2="178.2" y2="235.6"/>
	<line class="st0" x1="169" y1="229.7" x2="178.2" y2="235.6"/>
	<line class="st0" x1="178.2" y1="235.6" x2="169.3" y2="220.6"/>
	<line class="st0" x1="177" y1="227.6" x2="178.2" y2="235.6"/>
	<line class="st0" x1="169.3" y1="220.6" x2="161.8" y2="217.8"/>
	<line class="st0" x1="178.2" y1="235.6" x2="161.8" y2="217.8"/>
	<line class="st0" x1="158.2" y1="224.3" x2="161.8" y2="217.8"/>
	<line class="st0" x1="140.2" y1="240.1" x2="161.8" y2="217.8"/>
	<line class="st0" x1="177" y1="227.6" x2="158.2" y2="224.3"/>
	<line class="st0" x1="160.7" y1="234.9" x2="158.2" y2="224.3"/>
	<line class="st0" x1="169" y1="229.7" x2="158.2" y2="224.3"/>
	<line class="st0" x1="178.2" y1="235.6" x2="158.2" y2="224.3"/>
	<line class="st0" x1="169.3" y1="220.6" x2="158.2" y2="224.3"/>
	<line class="st0" x1="140.2" y1="240.1" x2="158.2" y2="224.3"/>
	<line class="st0" x1="140.2" y1="240.1" x2="177" y2="227.6"/>
	<line class="st0" x1="170.4" y1="238.6" x2="169.3" y2="220.6"/>
	<line class="st0" x1="170.4" y1="238.6" x2="178.2" y2="235.6"/>
	<line class="st0" x1="170.4" y1="238.6" x2="169" y2="229.7"/>
	<line class="st0" x1="170.4" y1="238.6" x2="160.7" y2="234.9"/>
	<line class="st0" x1="170.4" y1="238.6" x2="177" y2="227.6"/>
	<line class="st0" x1="160.7" y1="234.9" x2="161.8" y2="217.8"/>
	<line class="st0" x1="169" y1="229.7" x2="161.8" y2="217.8"/>
	<line class="st0" x1="170.4" y1="238.6" x2="161.8" y2="217.8"/>
	<line class="st0" x1="177" y1="227.6" x2="161.8" y2="217.8"/>
	<line class="st0" x1="140.2" y1="240.1" x2="170.4" y2="238.6"/>
	<line class="st0" x1="170.4" y1="238.6" x2="158.2" y2="224.3"/>
	<line class="st0" x1="84" y1="240.1" x2="89.7" y2="264"/>
	<line class="st0" x1="91.6" y1="256.7" x2="89.7" y2="264"/>
	<line class="st0" x1="89.7" y1="264" x2="82.4" y2="245.7"/>
	<line class="st0" x1="84" y1="240.1" x2="82.4" y2="245.7"/>
	<line class="st0" x1="88.9" y1="248.7" x2="89.7" y2="264"/>
	<line class="st0" x1="140.2" y1="240.1" x2="89.7" y2="264"/>
	<line class="st0" x1="88.9" y1="248.7" x2="84" y2="240.1"/>
	<line class="st0" x1="91.6" y1="256.7" x2="84" y2="240.1"/>
	<line class="st0" x1="140.2" y1="240.1" x2="91.6" y2="256.7"/>
	<line class="st0" x1="88.9" y1="248.7" x2="91.6" y2="256.7"/>
	<line class="st0" x1="140.2" y1="240.1" x2="84" y2="240.1"/>
	<line class="st0" x1="121.5" y1="96.9" x2="111.5" y2="105"/>
	<line class="st0" x1="95" y1="43.3" x2="97.5" y2="57.3"/>
	<line class="st0" x1="121.1" y1="101.9" x2="111.5" y2="105"/>
	<line class="st0" x1="110.2" y1="56.2" x2="97.5" y2="57.3"/>
	<line class="st0" x1="100.4" y1="107.5" x2="111.5" y2="105"/>
	<line class="st0" x1="106" y1="102" x2="111.5" y2="105"/>
	<line class="st0" x1="110.6" y1="81.1" x2="106.2" y2="39.8"/>
	<line class="st0" x1="106.2" y1="39.8" x2="97.5" y2="57.3"/>
	<line class="st0" x1="150.5" y1="96.3" x2="111.5" y2="105"/>
	<line class="st0" x1="99.5" y1="47.6" x2="97.5" y2="57.3"/>
	<line class="st0" x1="110.6" y1="81.1" x2="111.5" y2="105"/>
	<line class="st0" x1="105.8" y1="46.7" x2="97.5" y2="57.3"/>
	<line class="st0" x1="95" y1="43.3" x2="106.2" y2="39.8"/>
	<line class="st0" x1="105.8" y1="46.7" x2="106.2" y2="39.8"/>
	<line class="st0" x1="71" y1="73.6" x2="106.2" y2="39.8"/>
	<line class="st0" x1="110.2" y1="56.2" x2="106.2" y2="39.8"/>
	<line class="st0" x1="111.5" y1="105" x2="101.3" y2="101.8"/>
	<line class="st0" x1="106" y1="107.4" x2="111.5" y2="105"/>
	<line class="st0" x1="117.8" y1="106.1" x2="101.3" y2="101.8"/>
	<line class="st0" x1="117.4" y1="94" x2="101.3" y2="101.8"/>
	<line class="st0" x1="121.1" y1="101.9" x2="101.3" y2="101.8"/>
	<line class="st0" x1="100.4" y1="107.5" x2="101.3" y2="101.8"/>
	<line class="st0" x1="110.6" y1="81.1" x2="101.3" y2="101.8"/>
	<line class="st0" x1="110.6" y1="81.1" x2="111.5" y2="44"/>
	<line class="st0" x1="121.5" y1="96.9" x2="101.3" y2="101.8"/>
	<line class="st0" x1="112" y1="93.8" x2="101.3" y2="101.8"/>
	<line class="st0" x1="110.2" y1="56.2" x2="111.5" y2="44"/>
	<line class="st0" x1="150.5" y1="96.3" x2="101.3" y2="101.8"/>
	<line class="st0" x1="71" y1="73.6" x2="111.5" y2="44"/>
	<line class="st0" x1="105.8" y1="46.7" x2="111.5" y2="44"/>
	<line class="st0" x1="71" y1="73.6" x2="101.3" y2="101.8"/>
	<line class="st0" x1="95" y1="43.3" x2="111.5" y2="44"/>
	<line class="st0" x1="99.5" y1="47.6" x2="111.5" y2="44"/>
	<line class="st0" x1="106.2" y1="39.8" x2="111.5" y2="44"/>
	<line class="st0" x1="97.5" y1="57.3" x2="111.5" y2="44"/>
	<line class="st0" x1="110.6" y1="81.1" x2="97.5" y2="57.3"/>
	<line class="st0" x1="71" y1="73.6" x2="97.5" y2="57.3"/>
	<line class="st0" x1="101.3" y1="101.8" x2="120.6" y2="138.8"/>
	<line class="st0" x1="106" y1="107.4" x2="101.3" y2="101.8"/>
	<line class="st0" x1="106" y1="102" x2="101.3" y2="101.8"/>
	<line class="st0" x1="148.6" y1="291.9" x2="166.2" y2="281.4"/>
	<line class="st0" x1="153.1" y1="296.1" x2="166.2" y2="281.4"/>
	<line class="st0" x1="144.2" y1="295.8" x2="166.2" y2="281.4"/>
	<line class="st0" x1="158.6" y1="282.3" x2="166.2" y2="281.4"/>
	<line class="st0" x1="166.2" y1="281.4" x2="152" y2="286.4"/>
	<line class="st0" x1="158.1" y1="291.4" x2="152" y2="286.4"/>
	<line class="st0" x1="163.6" y1="287.3" x2="152" y2="286.4"/>
	<line class="st0" x1="148.6" y1="291.9" x2="152" y2="286.4"/>
	<line class="st0" x1="158.6" y1="282.3" x2="152" y2="286.4"/>
	<line class="st0" x1="153.1" y1="296.1" x2="152" y2="286.4"/>
	<line class="st0" x1="144.2" y1="295.8" x2="152" y2="286.4"/>
	<line class="st0" x1="140.2" y1="240.1" x2="152" y2="286.4"/>
	<line class="st0" x1="140.2" y1="240.1" x2="166.2" y2="281.4"/>
	<line class="st0" x1="140.2" y1="240.1" x2="158.1" y2="291.4"/>
	<line class="st0" x1="140.2" y1="240.1" x2="163.6" y2="287.3"/>
	<line class="st0" x1="140.2" y1="240.1" x2="148.6" y2="291.9"/>
	<line class="st0" x1="140.2" y1="240.1" x2="153.1" y2="296.1"/>
	<line class="st0" x1="140.2" y1="240.1" x2="144.2" y2="295.8"/>
	<line class="st0" x1="140.2" y1="240.1" x2="158.6" y2="282.3"/>
	<line class="st0" x1="177" y1="227.6" x2="160.7" y2="234.9"/>
	<line class="st0" x1="95" y1="43.3" x2="99.5" y2="47.6"/>
	<line class="st0" x1="110.6" y1="81.1" x2="117.4" y2="94"/>
	<line class="st0" x1="110.2" y1="56.2" x2="99.5" y2="47.6"/>
	<line class="st0" x1="110.6" y1="81.1" x2="105.8" y2="46.7"/>
	<line class="st0" x1="105.8" y1="46.7" x2="99.5" y2="47.6"/>
	<line class="st0" x1="100.4" y1="107.5" x2="117.4" y2="94"/>
	<line class="st0" x1="99.5" y1="47.6" x2="106.2" y2="39.8"/>
	<line class="st0" x1="106" y1="102" x2="117.4" y2="94"/>
	<line class="st0" x1="121.5" y1="96.9" x2="117.4" y2="94"/>
	<line class="st0" x1="71" y1="73.6" x2="99.5" y2="47.6"/>
	<line class="st0" x1="121.1" y1="101.9" x2="117.4" y2="94"/>
	<line class="st0" x1="110.6" y1="81.1" x2="99.5" y2="47.6"/>
	<line class="st0" x1="71" y1="73.6" x2="111.5" y2="105"/>
	<line class="st0" x1="117.8" y1="106.1" x2="111.5" y2="105"/>
	<line class="st0" x1="117.4" y1="94" x2="111.5" y2="105"/>
	<line class="st0" x1="106" y1="107.4" x2="117.4" y2="94"/>
	<line class="st0" x1="71" y1="73.6" x2="105.8" y2="46.7"/>
	<line class="st0" x1="110.2" y1="56.2" x2="105.8" y2="46.7"/>
	<line class="st0" x1="95" y1="43.3" x2="105.8" y2="46.7"/>
	<line class="st0" x1="112" y1="93.8" x2="111.5" y2="105"/>
	<line class="st0" x1="177" y1="227.6" x2="169" y2="229.7"/>
	<line class="st0" x1="160.7" y1="234.9" x2="169" y2="229.7"/>
	<line class="st0" x1="110.6" y1="81.1" x2="103.9" y2="55.5"/>
	<line class="st0" x1="71" y1="73.6" x2="103.9" y2="55.5"/>
	<line class="st0" x1="99.5" y1="47.6" x2="103.9" y2="55.5"/>
	<line class="st0" x1="105.8" y1="46.7" x2="103.9" y2="55.5"/>
	<line class="st0" x1="95" y1="43.3" x2="103.9" y2="55.5"/>
	<line class="st0" x1="110.2" y1="56.2" x2="103.9" y2="55.5"/>
	<line class="st0" x1="100.4" y1="39.1" x2="103.9" y2="55.5"/>
	<line class="st0" x1="111.5" y1="44" x2="103.9" y2="55.5"/>
	<line class="st0" x1="97.5" y1="57.3" x2="103.9" y2="55.5"/>
	<line class="st0" x1="106.2" y1="39.8" x2="103.9" y2="55.5"/>
	<line class="st0" x1="112.3" y1="50.3" x2="110.2" y2="56.2"/>
	<line class="st0" x1="112.3" y1="50.3" x2="103.9" y2="55.5"/>
	<line class="st0" x1="112.3" y1="50.3" x2="105.8" y2="46.7"/>
	<line class="st0" x1="112.3" y1="50.3" x2="95" y2="43.3"/>
	<line class="st0" x1="112.3" y1="50.3" x2="106.2" y2="39.8"/>
	<line class="st0" x1="112.3" y1="50.3" x2="99.5" y2="47.6"/>
	<line class="st0" x1="112.3" y1="50.3" x2="111.5" y2="44"/>
	<line class="st0" x1="112.3" y1="50.3" x2="97.5" y2="57.3"/>
	<line class="st0" x1="112.3" y1="50.3" x2="93.4" y2="51.6"/>
	<line class="st0" x1="112.3" y1="50.3" x2="100.4" y2="39.1"/>
	<line class="st0" x1="71" y1="73.6" x2="100.4" y2="39.1"/>
	<line class="st0" x1="110.2" y1="56.2" x2="100.4" y2="39.1"/>
	<line class="st0" x1="100.4" y1="39.1" x2="93.4" y2="51.6"/>
	<line class="st0" x1="110.6" y1="81.1" x2="100.4" y2="39.1"/>
	<line class="st0" x1="111.5" y1="44" x2="100.4" y2="39.1"/>
	<line class="st0" x1="97.5" y1="57.3" x2="100.4" y2="39.1"/>
	<line class="st0" x1="106.2" y1="39.8" x2="100.4" y2="39.1"/>
	<line class="st0" x1="99.5" y1="47.6" x2="100.4" y2="39.1"/>
	<line class="st0" x1="105.8" y1="46.7" x2="100.4" y2="39.1"/>
	<line class="st0" x1="95" y1="43.3" x2="100.4" y2="39.1"/>
	<line class="st0" x1="93.4" y1="51.6" x2="103.9" y2="55.5"/>
	<line class="st0" x1="110.6" y1="81.1" x2="93.4" y2="51.6"/>
	<line class="st0" x1="71" y1="73.6" x2="93.4" y2="51.6"/>
	<line class="st0" x1="97.5" y1="57.3" x2="93.4" y2="51.6"/>
	<line class="st0" x1="190.6" y1="291.3" x2="210.6" y2="326.5"/>
	<line class="st0" x1="106.2" y1="39.8" x2="93.4" y2="51.6"/>
	<line class="st0" x1="190.6" y1="291.3" x2="213.6" y2="322.2"/>
	<line class="st0" x1="222.9" y1="285.7" x2="203.8" y2="325"/>
	<line class="st0" x1="111.5" y1="44" x2="93.4" y2="51.6"/>
	<line class="st0" x1="190.6" y1="291.3" x2="203.8" y2="325"/>
	<line class="st0" x1="95" y1="43.3" x2="93.4" y2="51.6"/>
	<line class="st0" x1="219.1" y1="318.7" x2="210.6" y2="326.5"/>
	<line class="st0" x1="110.2" y1="56.2" x2="93.4" y2="51.6"/>
	<line class="st0" x1="99.5" y1="47.6" x2="93.4" y2="51.6"/>
	<line class="st0" x1="190.6" y1="291.3" x2="219.1" y2="318.7"/>
	<line class="st0" x1="105.8" y1="46.7" x2="93.4" y2="51.6"/>
	<line class="st0" x1="219.1" y1="318.7" x2="203.8" y2="325"/>
	<path d="M158.1,289.4c1.1,0,1.9,0.9,1.9,1.9c0,1.1-0.9,1.9-1.9,1.9c-1.1,0-1.9-0.9-1.9-1.9C156.1,290.3,157,289.4,158.1,289.4
		L158.1,289.4z"/>
	<path d="M166.2,279.5c1.1,0,1.9,0.9,1.9,1.9c0,1.1-0.9,1.9-1.9,1.9c-1.1,0-1.9-0.9-1.9-1.9C164.2,280.4,165.1,279.5,166.2,279.5
		L166.2,279.5z"/>
	<path d="M148.6,289.9c1.1,0,1.9,0.9,1.9,1.9c0,1.1-0.9,1.9-1.9,1.9c-1.1,0-1.9-0.9-1.9-1.9C146.7,290.8,147.5,289.9,148.6,289.9
		L148.6,289.9z"/>
	<path d="M320.2,84.5c1.1,0,1.9,0.9,1.9,1.9c0,1.1-0.9,1.9-1.9,1.9c-1.1,0-1.9-0.9-1.9-1.9C318.2,85.4,319.1,84.5,320.2,84.5
		L320.2,84.5z"/>
	<path d="M163.6,285.4c1.1,0,1.9,0.9,1.9,1.9c0,1.1-0.9,1.9-1.9,1.9c-1.1,0-1.9-0.9-1.9-1.9C161.6,286.2,162.5,285.4,163.6,285.4
		L163.6,285.4z"/>
	<path d="M303.3,107.9c1.1,0,1.9,0.9,1.9,1.9c0,1.1-0.9,1.9-1.9,1.9c-1.1,0-1.9-0.9-1.9-1.9C301.4,108.8,302.3,107.9,303.3,107.9
		L303.3,107.9z"/>
	<path d="M122,289.8c1.1,0,1.9,0.9,1.9,1.9c0,1.1-0.9,1.9-1.9,1.9c-1.1,0-1.9-0.9-1.9-1.9C120.1,290.7,121,289.8,122,289.8
		L122,289.8z"/>
	<path d="M204.9,170.1c1.1,0,1.9,0.9,1.9,1.9c0,1.1-0.9,1.9-1.9,1.9c-1.1,0-1.9-0.9-1.9-1.9C203,170.9,203.8,170.1,204.9,170.1
		L204.9,170.1z"/>
	<path d="M302,94.9c1.1,0,1.9,0.9,1.9,1.9c0,1.1-0.9,1.9-1.9,1.9c-1.1,0-1.9-0.9-1.9-1.9C300.1,95.8,301,94.9,302,94.9L302,94.9z"/>
	<path d="M152,284.4c1.1,0,1.9,0.9,1.9,1.9c0,1.1-0.9,1.9-1.9,1.9c-1.1,0-1.9-0.9-1.9-1.9C150.1,285.3,150.9,284.4,152,284.4
		L152,284.4z"/>
	<path d="M278.4,113.3c1.1,0,1.9,0.9,1.9,1.9c0,1.1-0.9,1.9-1.9,1.9c-1.1,0-1.9-0.9-1.9-1.9C276.5,114.2,277.3,113.3,278.4,113.3
		L278.4,113.3z"/>
	<path d="M121.3,283.8c1.1,0,1.9,0.9,1.9,1.9s-0.9,1.9-1.9,1.9c-1.1,0-1.9-0.9-1.9-1.9S120.3,283.8,121.3,283.8L121.3,283.8z"/>
	<path d="M281.9,105.8c1.1,0,1.9,0.9,1.9,1.9c0,1.1-0.9,1.9-1.9,1.9c-1.1,0-1.9-0.9-1.9-1.9C280,106.7,280.8,105.8,281.9,105.8
		L281.9,105.8z"/>
	<path d="M293.7,95.3c1.1,0,1.9,0.9,1.9,1.9c0,1.1-0.9,1.9-1.9,1.9s-1.9-0.9-1.9-1.9C291.8,96.2,292.7,95.3,293.7,95.3L293.7,95.3z"
		/>
	<path d="M290.7,105.9c1.1,0,1.9,0.9,1.9,1.9c0,1.1-0.9,1.9-1.9,1.9c-1.1,0-1.9-0.9-1.9-1.9C288.7,106.8,289.6,105.9,290.7,105.9
		L290.7,105.9z"/>
	<path d="M317,225c1.1,0,1.9,0.9,1.9,1.9c0,1.1-0.9,1.9-1.9,1.9c-1.1,0-1.9-0.9-1.9-1.9C315.1,225.8,315.9,225,317,225L317,225z"/>
	<path d="M73.7,39.8c1.1,0,1.9,0.9,1.9,1.9c0,1.1-0.9,1.9-1.9,1.9c-1.1,0-1.9-0.9-1.9-1.9C71.8,40.7,72.6,39.8,73.7,39.8L73.7,39.8z
		"/>
	<path d="M91.6,230.8c1.1,0,1.9,0.9,1.9,1.9c0,1.1-0.9,1.9-1.9,1.9c-1.1,0-1.9-0.9-1.9-1.9C89.7,231.7,90.5,230.8,91.6,230.8
		L91.6,230.8z"/>
	<path d="M91.8,224.5c1.1,0,1.9,0.9,1.9,1.9c0,1.1-0.9,1.9-1.9,1.9c-1.1,0-1.9-0.9-1.9-1.9C89.9,225.4,90.8,224.5,91.8,224.5
		L91.8,224.5z"/>
	<path d="M114.9,288.3c1.1,0,1.9,0.9,1.9,1.9c0,1.1-0.9,1.9-1.9,1.9s-1.9-0.9-1.9-1.9C113,289.1,113.8,288.3,114.9,288.3
		L114.9,288.3z"/>
	<path d="M115,281.3c1.1,0,1.9,0.9,1.9,1.9c0,1.1-0.9,1.9-1.9,1.9c-1.1,0-1.9-0.9-1.9-1.9C113.1,282.1,113.9,281.3,115,281.3
		L115,281.3z"/>
	<path d="M34.7,102.8c1.1,0,1.9,0.9,1.9,1.9c0,1.1-0.9,1.9-1.9,1.9c-1.1,0-1.9-0.9-1.9-1.9C32.8,103.7,33.7,102.8,34.7,102.8
		L34.7,102.8z"/>
	<path d="M332.5,254.1c1.1,0,1.9,0.9,1.9,1.9c0,1.1-0.9,1.9-1.9,1.9c-1.1,0-1.9-0.9-1.9-1.9C330.5,255,331.4,254.1,332.5,254.1
		L332.5,254.1z"/>
	<path d="M329.2,261.1c1.1,0,1.9,0.9,1.9,1.9c0,1.1-0.9,1.9-1.9,1.9c-1.1,0-1.9-0.9-1.9-1.9C327.2,262,328.1,261.1,329.2,261.1
		L329.2,261.1z"/>
	<path d="M328.5,247.2c1.1,0,1.9,0.9,1.9,1.9c0,1.1-0.9,1.9-1.9,1.9c-1.1,0-1.9-0.9-1.9-1.9C326.5,248.1,327.4,247.2,328.5,247.2
		L328.5,247.2z"/>
	<path d="M41.3,107.2c1.1,0,1.9,0.9,1.9,1.9c0,1.1-0.9,1.9-1.9,1.9c-1.1,0-1.9-0.9-1.9-1.9C39.3,108.1,40.2,107.2,41.3,107.2
		L41.3,107.2z"/>
	<path d="M35.1,92c1.1,0,1.9,0.9,1.9,1.9c0,1.1-0.9,1.9-1.9,1.9S33.1,95,33.1,94C33.1,92.9,34,92,35.1,92L35.1,92z"/>
	<path d="M170.4,236.7c1.1,0,1.9,0.9,1.9,1.9c0,1.1-0.9,1.9-1.9,1.9c-1.1,0-1.9-0.9-1.9-1.9C168.4,237.5,169.3,236.7,170.4,236.7
		L170.4,236.7z"/>
	<path d="M177,225.7c1.1,0,1.9,0.9,1.9,1.9c0,1.1-0.9,1.9-1.9,1.9c-1.1,0-1.9-0.9-1.9-1.9C175.1,226.5,176,225.7,177,225.7
		L177,225.7z"/>
	<path d="M281.2,36.9c1.1,0,1.9,0.9,1.9,1.9c0,1.1-0.9,1.9-1.9,1.9c-1.1,0-1.9-0.9-1.9-1.9C279.3,37.8,280.1,36.9,281.2,36.9
		L281.2,36.9z"/>
	<path d="M160.7,232.9c1.1,0,1.9,0.9,1.9,1.9c0,1.1-0.9,1.9-1.9,1.9c-1.1,0-1.9-0.9-1.9-1.9C158.7,233.8,159.6,232.9,160.7,232.9
		L160.7,232.9z"/>
	<path d="M169,227.8c1.1,0,1.9,0.9,1.9,1.9c0,1.1-0.9,1.9-1.9,1.9c-1.1,0-1.9-0.9-1.9-1.9C167,228.6,167.9,227.8,169,227.8
		L169,227.8z"/>
	<path d="M174.6,246.5c1.1,0,1.9,0.9,1.9,1.9c0,1.1-0.9,1.9-1.9,1.9c-1.1,0-1.9-0.9-1.9-1.9C172.6,247.4,173.5,246.5,174.6,246.5
		L174.6,246.5z"/>
	<path d="M178.2,233.6c1.1,0,1.9,0.9,1.9,1.9c0,1.1-0.9,1.9-1.9,1.9c-1.1,0-1.9-0.9-1.9-1.9C176.3,234.5,177.1,233.6,178.2,233.6
		L178.2,233.6z"/>
	<path d="M265.9,30.5c1.1,0,1.9,0.9,1.9,1.9s-0.9,1.9-1.9,1.9c-1.1,0-1.9-0.9-1.9-1.9S264.8,30.5,265.9,30.5L265.9,30.5z"/>
	<path d="M314.6,277.3c1.1,0,1.9,0.9,1.9,1.9c0,1.1-0.9,1.9-1.9,1.9s-1.9-0.9-1.9-1.9C312.6,278.1,313.5,277.3,314.6,277.3
		L314.6,277.3z"/>
	<path d="M169.3,218.6c1.1,0,1.9,0.9,1.9,1.9c0,1.1-0.9,1.9-1.9,1.9c-1.1,0-1.9-0.9-1.9-1.9C167.4,219.5,168.3,218.6,169.3,218.6
		L169.3,218.6z"/>
	<path d="M280.2,30.3c1.1,0,1.9,0.9,1.9,1.9c0,1.1-0.9,1.9-1.9,1.9c-1.1,0-1.9-0.9-1.9-1.9C278.2,31.2,279.1,30.3,280.2,30.3
		L280.2,30.3z"/>
	<path d="M324.7,267.4c1.1,0,1.9,0.9,1.9,1.9c0,1.1-0.9,1.9-1.9,1.9s-1.9-0.9-1.9-1.9C322.8,268.3,323.7,267.4,324.7,267.4
		L324.7,267.4z"/>
	<path d="M158.2,222.4c1.1,0,1.9,0.9,1.9,1.9c0,1.1-0.9,1.9-1.9,1.9c-1.1,0-1.9-0.9-1.9-1.9C156.3,223.3,157.1,222.4,158.2,222.4
		L158.2,222.4z"/>
	<path d="M285.4,25.4c1.1,0,1.9,0.9,1.9,1.9c0,1.1-0.9,1.9-1.9,1.9c-1.1,0-1.9-0.9-1.9-1.9C283.5,26.3,284.3,25.4,285.4,25.4
		L285.4,25.4z"/>
	<path d="M320.6,273.3c1.1,0,1.9,0.9,1.9,1.9c0,1.1-0.9,1.9-1.9,1.9s-1.9-0.9-1.9-1.9C318.7,274.2,319.6,273.3,320.6,273.3
		L320.6,273.3z"/>
	<path d="M161.8,215.8c1.1,0,1.9,0.9,1.9,1.9c0,1.1-0.9,1.9-1.9,1.9c-1.1,0-1.9-0.9-1.9-1.9C159.9,216.7,160.8,215.8,161.8,215.8
		L161.8,215.8z"/>
	<path d="M288.9,29.6c1.1,0,1.9,0.9,1.9,1.9c0,1.1-0.9,1.9-1.9,1.9c-1.1,0-1.9-0.9-1.9-1.9C287,30.5,287.9,29.6,288.9,29.6
		L288.9,29.6z"/>
	<path d="M110.9,237.7c1.1,0,1.9,0.9,1.9,1.9c0,1.1-0.9,1.9-1.9,1.9c-1.1,0-1.9-0.9-1.9-1.9C109,238.6,109.9,237.7,110.9,237.7
		L110.9,237.7z"/>
	<path d="M318.7,91.1c1.1,0,1.9,0.9,1.9,1.9c0,1.1-0.9,1.9-1.9,1.9c-1.1,0-1.9-0.9-1.9-1.9C316.7,91.9,317.6,91.1,318.7,91.1
		L318.7,91.1z"/>
	<path d="M136.2,267.3c1.1,0,1.9,0.9,1.9,1.9c0,1.1-0.9,1.9-1.9,1.9c-1.1,0-1.9-0.9-1.9-1.9C134.3,268.2,135.1,267.3,136.2,267.3
		L136.2,267.3z"/>
	<path d="M314.9,97.2c1.1,0,1.9,0.9,1.9,1.9c0,1.1-0.9,1.9-1.9,1.9c-1.1,0-1.9-0.9-1.9-1.9C313,98,313.8,97.2,314.9,97.2L314.9,97.2
		z"/>
	<path d="M310.8,90.7c1.1,0,1.9,0.9,1.9,1.9c0,1.1-0.9,1.9-1.9,1.9c-1.1,0-1.9-0.9-1.9-1.9C308.9,91.6,309.7,90.7,310.8,90.7
		L310.8,90.7z"/>
	<path d="M140.2,238.2c1.1,0,1.9,0.9,1.9,1.9c0,1.1-0.9,1.9-1.9,1.9c-1.1,0-1.9-0.9-1.9-1.9C138.2,239.1,139.1,238.2,140.2,238.2
		L140.2,238.2z"/>
	<path d="M266.9,24.3c1.1,0,1.9,0.9,1.9,1.9c0,1.1-0.9,1.9-1.9,1.9c-1.1,0-1.9-0.9-1.9-1.9C265,25.1,265.9,24.3,266.9,24.3
		L266.9,24.3z"/>
	<path d="M158.6,280.3c1.1,0,1.9,0.9,1.9,1.9c0,1.1-0.9,1.9-1.9,1.9c-1.1,0-1.9-0.9-1.9-1.9C156.6,281.2,157.5,280.3,158.6,280.3
		L158.6,280.3z"/>
	<path d="M108.2,280.7c1.1,0,1.9,0.9,1.9,1.9c0,1.1-0.9,1.9-1.9,1.9s-1.9-0.9-1.9-1.9C106.3,281.5,107.2,280.7,108.2,280.7
		L108.2,280.7z"/>
	<path d="M103.9,283.4c1.1,0,1.9,0.9,1.9,1.9s-0.9,1.9-1.9,1.9c-1.1,0-1.9-0.9-1.9-1.9S102.8,283.4,103.9,283.4L103.9,283.4z"/>
	<path d="M153.1,294.1c1.1,0,1.9,0.9,1.9,1.9c0,1.1-0.9,1.9-1.9,1.9c-1.1,0-1.9-0.9-1.9-1.9C151.1,295,152,294.1,153.1,294.1
		L153.1,294.1z"/>
	<path d="M96.6,270.1c1.1,0,1.9,0.9,1.9,1.9c0,1.1-0.9,1.9-1.9,1.9c-1.1,0-1.9-0.9-1.9-1.9C94.7,271,95.6,270.1,96.6,270.1
		L96.6,270.1z"/>
	<path d="M317.8,78.8c1.1,0,1.9,0.9,1.9,1.9c0,1.1-0.9,1.9-1.9,1.9c-1.1,0-1.9-0.9-1.9-1.9C315.9,79.7,316.8,78.8,317.8,78.8
		L317.8,78.8z"/>
	<path d="M144.2,293.9c1.1,0,1.9,0.9,1.9,1.9c0,1.1-0.9,1.9-1.9,1.9c-1.1,0-1.9-0.9-1.9-1.9C142.2,294.8,143.1,293.9,144.2,293.9
		L144.2,293.9z"/>
	<path d="M109.6,247.3c1.1,0,1.9,0.9,1.9,1.9c0,1.1-0.9,1.9-1.9,1.9c-1.1,0-1.9-0.9-1.9-1.9C107.7,248.2,108.6,247.3,109.6,247.3
		L109.6,247.3z"/>
	<path d="M103.7,275.3c1.1,0,1.9,0.9,1.9,1.9c0,1.1-0.9,1.9-1.9,1.9c-1.1,0-1.9-0.9-1.9-1.9C101.7,276.2,102.6,275.3,103.7,275.3
		L103.7,275.3z"/>
	<path d="M97.5,276.5c1.1,0,1.9,0.9,1.9,1.9c0,1.1-0.9,1.9-1.9,1.9c-1.1,0-1.9-0.9-1.9-1.9C95.5,277.3,96.4,276.5,97.5,276.5
		L97.5,276.5z"/>
	<path d="M317.3,57c1.1,0,1.9,0.9,1.9,1.9s-0.9,1.9-1.9,1.9c-1.1,0-1.9-0.9-1.9-1.9S316.2,57,317.3,57L317.3,57z"/>
	<path d="M311.8,61c1.1,0,1.9,0.9,1.9,1.9c0,1.1-0.9,1.9-1.9,1.9c-1.1,0-1.9-0.9-1.9-1.9C309.8,61.9,310.7,61,311.8,61L311.8,61z"/>
	<path d="M212.4,252.8c1.1,0,1.9,0.9,1.9,1.9s-0.9,1.9-1.9,1.9c-1.1,0-1.9-0.9-1.9-1.9S211.3,252.8,212.4,252.8L212.4,252.8z"/>
	<path d="M311.8,53.6c1.1,0,1.9,0.9,1.9,1.9c0,1.1-0.9,1.9-1.9,1.9c-1.1,0-1.9-0.9-1.9-1.9C309.8,54.5,310.7,53.6,311.8,53.6
		L311.8,53.6z"/>
	<path d="M321.5,69.8c1.1,0,1.9,0.9,1.9,1.9c0,1.1-0.9,1.9-1.9,1.9c-1.1,0-1.9-0.9-1.9-1.9C319.5,70.6,320.4,69.8,321.5,69.8
		L321.5,69.8z"/>
	<path d="M89.7,262.1c1.1,0,1.9,0.9,1.9,1.9c0,1.1-0.9,1.9-1.9,1.9c-1.1,0-1.9-0.9-1.9-1.9C87.8,262.9,88.7,262.1,89.7,262.1
		L89.7,262.1z"/>
	<path d="M319.1,63c1.1,0,1.9,0.9,1.9,1.9c0,1.1-0.9,1.9-1.9,1.9c-1.1,0-1.9-0.9-1.9-1.9C317.2,63.9,318.1,63,319.1,63L319.1,63z"/>
	<path d="M315.1,69.1c1.1,0,1.9,0.9,1.9,1.9c0,1.1-0.9,1.9-1.9,1.9c-1.1,0-1.9-0.9-1.9-1.9C313.2,69.9,314.1,69.1,315.1,69.1
		L315.1,69.1z"/>
	<path d="M54.4,43.6c1.1,0,1.9,0.9,1.9,1.9c0,1.1-0.9,1.9-1.9,1.9c-1.1,0-1.9-0.9-1.9-1.9C52.5,44.4,53.3,43.6,54.4,43.6L54.4,43.6z
		"/>
	<path d="M91.6,254.8c1.1,0,1.9,0.9,1.9,1.9c0,1.1-0.9,1.9-1.9,1.9c-1.1,0-1.9-0.9-1.9-1.9C89.7,255.7,90.5,254.8,91.6,254.8
		L91.6,254.8z"/>
	<path d="M333.2,236.3c1.1,0,1.9,0.9,1.9,1.9c0,1.1-0.9,1.9-1.9,1.9c-1.1,0-1.9-0.9-1.9-1.9C331.2,237.2,332.1,236.3,333.2,236.3
		L333.2,236.3z"/>
	<path d="M244.2,76.8c1.1,0,1.9,0.9,1.9,1.9c0,1.1-0.9,1.9-1.9,1.9c-1.1,0-1.9-0.9-1.9-1.9C242.3,77.7,243.2,76.8,244.2,76.8
		L244.2,76.8z"/>
	<path d="M84,238.2c1.1,0,1.9,0.9,1.9,1.9c0,1.1-0.9,1.9-1.9,1.9c-1.1,0-1.9-0.9-1.9-1.9C82.1,239.1,82.9,238.2,84,238.2L84,238.2z"
		/>
	<path d="M69.7,20.7c1.1,0,1.9,0.9,1.9,1.9c0,1.1-0.9,1.9-1.9,1.9c-1.1,0-1.9-0.9-1.9-1.9C67.8,21.6,68.7,20.7,69.7,20.7L69.7,20.7z
		"/>
	<path d="M107.6,268.5c1.1,0,1.9,0.9,1.9,1.9c0,1.1-0.9,1.9-1.9,1.9c-1.1,0-1.9-0.9-1.9-1.9C105.7,269.4,106.6,268.5,107.6,268.5
		L107.6,268.5z"/>
	<path d="M330.2,229.5c1.1,0,1.9,0.9,1.9,1.9c0,1.1-0.9,1.9-1.9,1.9c-1.1,0-1.9-0.9-1.9-1.9C328.3,230.4,329.2,229.5,330.2,229.5
		L330.2,229.5z"/>
	<path d="M278.5,23.7c1.1,0,1.9,0.9,1.9,1.9c0,1.1-0.9,1.9-1.9,1.9s-1.9-0.9-1.9-1.9C276.6,24.5,277.4,23.7,278.5,23.7L278.5,23.7z"
		/>
	<path d="M85.5,258.1c1.1,0,1.9,0.9,1.9,1.9s-0.9,1.9-1.9,1.9s-1.9-0.9-1.9-1.9S84.5,258.1,85.5,258.1L85.5,258.1z"/>
	<path d="M325,241.9c1.1,0,1.9,0.9,1.9,1.9c0,1.1-0.9,1.9-1.9,1.9c-1.1,0-1.9-0.9-1.9-1.9C323,242.8,323.9,241.9,325,241.9
		L325,241.9z"/>
	<path d="M100.7,242.9c1.1,0,1.9,0.9,1.9,1.9c0,1.1-0.9,1.9-1.9,1.9c-1.1,0-1.9-0.9-1.9-1.9C98.8,243.7,99.7,242.9,100.7,242.9
		L100.7,242.9z"/>
	<path d="M106.7,260.1c1.1,0,1.9,0.9,1.9,1.9c0,1.1-0.9,1.9-1.9,1.9c-1.1,0-1.9-0.9-1.9-1.9C104.8,260.9,105.6,260.1,106.7,260.1
		L106.7,260.1z"/>
	<path d="M101,251.4c1.1,0,1.9,0.9,1.9,1.9c0,1.1-0.9,1.9-1.9,1.9c-1.1,0-1.9-0.9-1.9-1.9C99,252.3,99.9,251.4,101,251.4L101,251.4z
		"/>
	<path d="M160.5,258.9c1.1,0,1.9,0.9,1.9,1.9c0,1.1-0.9,1.9-1.9,1.9c-1.1,0-1.9-0.9-1.9-1.9C158.6,259.8,159.5,258.9,160.5,258.9
		L160.5,258.9z"/>
	<path d="M265.2,36.9c1.1,0,1.9,0.9,1.9,1.9c0,1.1-0.9,1.9-1.9,1.9c-1.1,0-1.9-0.9-1.9-1.9C263.2,37.8,264.1,36.9,265.2,36.9
		L265.2,36.9z"/>
	<path d="M84.8,251.6c1.1,0,1.9,0.9,1.9,1.9c0,1.1-0.9,1.9-1.9,1.9c-1.1,0-1.9-0.9-1.9-1.9C82.9,252.5,83.8,251.6,84.8,251.6
		L84.8,251.6z"/>
	<path d="M261,29.1c1.1,0,1.9,0.9,1.9,1.9c0,1.1-0.9,1.9-1.9,1.9c-1.1,0-1.9-0.9-1.9-1.9C259,29.9,259.9,29.1,261,29.1L261,29.1z"/>
	<path d="M82.4,243.8c1.1,0,1.9,0.9,1.9,1.9c0,1.1-0.9,1.9-1.9,1.9c-1.1,0-1.9-0.9-1.9-1.9C80.4,244.7,81.3,243.8,82.4,243.8
		L82.4,243.8z"/>
	<path d="M272.7,25c1.1,0,1.9,0.9,1.9,1.9c0,1.1-0.9,1.9-1.9,1.9c-1.1,0-1.9-0.9-1.9-1.9C270.7,25.8,271.6,25,272.7,25L272.7,25z"/>
	<path d="M274.2,38.2c1.1,0,1.9,0.9,1.9,1.9c0,1.1-0.9,1.9-1.9,1.9c-1.1,0-1.9-0.9-1.9-1.9C272.2,39,273.1,38.2,274.2,38.2
		L274.2,38.2z"/>
	<path d="M287.3,34.7c1.1,0,1.9,0.9,1.9,1.9c0,1.1-0.9,1.9-1.9,1.9c-1.1,0-1.9-0.9-1.9-1.9C285.4,35.5,286.2,34.7,287.3,34.7
		L287.3,34.7z"/>
	<path d="M272,32.3c1.1,0,1.9,0.9,1.9,1.9c0,1.1-0.9,1.9-1.9,1.9c-1.1,0-1.9-0.9-1.9-1.9C270,33.2,270.9,32.3,272,32.3L272,32.3z"/>
	<path d="M260.4,299.2c1.1,0,1.9,0.9,1.9,1.9c0,1.1-0.9,1.9-1.9,1.9c-1.1,0-1.9-0.9-1.9-1.9C258.4,300,259.3,299.2,260.4,299.2
		L260.4,299.2z"/>
	<path d="M269.6,280c1.1,0,1.9,0.9,1.9,1.9c0,1.1-0.9,1.9-1.9,1.9s-1.9-0.9-1.9-1.9C267.7,280.8,268.5,280,269.6,280L269.6,280z"/>
	<path d="M140.8,256.8c1.1,0,1.9,0.9,1.9,1.9s-0.9,1.9-1.9,1.9c-1.1,0-1.9-0.9-1.9-1.9S139.7,256.8,140.8,256.8L140.8,256.8z"/>
	<path d="M83.2,33.4c1.1,0,1.9,0.9,1.9,1.9c0,1.1-0.9,1.9-1.9,1.9s-1.9-0.9-1.9-1.9C81.2,34.2,82.1,33.4,83.2,33.4L83.2,33.4z"/>
	<path d="M267.5,275.4c1.1,0,1.9,0.9,1.9,1.9c0,1.1-0.9,1.9-1.9,1.9c-1.1,0-1.9-0.9-1.9-1.9C265.6,276.3,266.4,275.4,267.5,275.4
		L267.5,275.4z"/>
	<path d="M289.3,276.7c1.1,0,1.9,0.9,1.9,1.9c0,1.1-0.9,1.9-1.9,1.9s-1.9-0.9-1.9-1.9C287.3,277.6,288.2,276.7,289.3,276.7
		L289.3,276.7z"/>
	<path d="M294.4,279.9c1.1,0,1.9,0.9,1.9,1.9c0,1.1-0.9,1.9-1.9,1.9c-1.1,0-1.9-0.9-1.9-1.9C292.5,280.7,293.4,279.9,294.4,279.9
		L294.4,279.9z"/>
	<path d="M130.8,288.3c1.1,0,1.9,0.9,1.9,1.9c0,1.1-0.9,1.9-1.9,1.9c-1.1,0-1.9-0.9-1.9-1.9C128.9,289.1,129.7,288.3,130.8,288.3
		L130.8,288.3z"/>
	<path d="M135.4,279.1c1.1,0,1.9,0.9,1.9,1.9c0,1.1-0.9,1.9-1.9,1.9c-1.1,0-1.9-0.9-1.9-1.9C133.4,280,134.3,279.1,135.4,279.1
		L135.4,279.1z"/>
	<path d="M163.5,188.7c1.1,0,1.9,0.9,1.9,1.9c0,1.1-0.9,1.9-1.9,1.9c-1.1,0-1.9-0.9-1.9-1.9C161.5,189.6,162.4,188.7,163.5,188.7
		L163.5,188.7z"/>
	<path d="M123.1,220.9c1.1,0,1.9,0.9,1.9,1.9s-0.9,1.9-1.9,1.9s-1.9-0.9-1.9-1.9S122,220.9,123.1,220.9L123.1,220.9z"/>
	<path d="M179,204.7c1.1,0,1.9,0.9,1.9,1.9c0,1.1-0.9,1.9-1.9,1.9c-1.1,0-1.9-0.9-1.9-1.9C177.1,205.6,178,204.7,179,204.7
		L179,204.7z"/>
	<path d="M184.2,209.6c1.1,0,1.9,0.9,1.9,1.9c0,1.1-0.9,1.9-1.9,1.9s-1.9-0.9-1.9-1.9C182.2,210.5,183.1,209.6,184.2,209.6
		L184.2,209.6z"/>
	<path d="M297.1,120.1c1.1,0,1.9,0.9,1.9,1.9c0,1.1-0.9,1.9-1.9,1.9c-1.1,0-1.9-0.9-1.9-1.9C295.2,121,296.1,120.1,297.1,120.1
		L297.1,120.1z"/>
	<path d="M88.9,246.7c1.1,0,1.9,0.9,1.9,1.9c0,1.1-0.9,1.9-1.9,1.9c-1.1,0-1.9-0.9-1.9-1.9C87,247.6,87.9,246.7,88.9,246.7
		L88.9,246.7z"/>
	<path d="M299,48c1.1,0,1.9,0.9,1.9,1.9c0,1.1-0.9,1.9-1.9,1.9c-1.1,0-1.9-0.9-1.9-1.9C297.1,48.9,297.9,48,299,48L299,48z"/>
	<path d="M43.4,51.9c1.1,0,1.9,0.9,1.9,1.9c0,1.1-0.9,1.9-1.9,1.9s-1.9-0.9-1.9-1.9C41.5,52.7,42.3,51.9,43.4,51.9L43.4,51.9z"/>
	<path d="M77.2,28.8c1.1,0,1.9,0.9,1.9,1.9c0,1.1-0.9,1.9-1.9,1.9c-1.1,0-1.9-0.9-1.9-1.9C75.3,29.7,76.1,28.8,77.2,28.8L77.2,28.8z
		"/>
	<path d="M255.6,47.8c1.1,0,1.9,0.9,1.9,1.9c0,1.1-0.9,1.9-1.9,1.9c-1.1,0-1.9-0.9-1.9-1.9C253.6,48.6,254.5,47.8,255.6,47.8
		L255.6,47.8z"/>
	<path d="M309.1,103.6c1.1,0,1.9,0.9,1.9,1.9c0,1.1-0.9,1.9-1.9,1.9c-1.1,0-1.9-0.9-1.9-1.9C307.1,104.5,308,103.6,309.1,103.6
		L309.1,103.6z"/>
	<path d="M286.5,162c1.1,0,1.9,0.9,1.9,1.9s-0.9,1.9-1.9,1.9c-1.1,0-1.9-0.9-1.9-1.9S285.4,162,286.5,162L286.5,162z"/>
	<path d="M42.6,43.8c1.1,0,1.9,0.9,1.9,1.9c0,1.1-0.9,1.9-1.9,1.9c-1.1,0-1.9-0.9-1.9-1.9C40.6,44.7,41.5,43.8,42.6,43.8L42.6,43.8z
		"/>
	<path d="M60.5,22.8c1.1,0,1.9,0.9,1.9,1.9c0,1.1-0.9,1.9-1.9,1.9c-1.1,0-1.9-0.9-1.9-1.9C58.5,23.7,59.4,22.8,60.5,22.8L60.5,22.8z
		"/>
	<path d="M48.4,37.6c1.1,0,1.9,0.9,1.9,1.9c0,1.1-0.9,1.9-1.9,1.9s-1.9-0.9-1.9-1.9C46.5,38.5,47.4,37.6,48.4,37.6L48.4,37.6z"/>
	<path d="M37,62.3c1.1,0,1.9,0.9,1.9,1.9c0,1.1-0.9,1.9-1.9,1.9S35,65.3,35,64.2C35,63.2,35.9,62.3,37,62.3L37,62.3z"/>
	<path d="M28.5,61.4c1.1,0,1.9,0.9,1.9,1.9c0,1.1-0.9,1.9-1.9,1.9c-1.1,0-1.9-0.9-1.9-1.9C26.6,62.2,27.5,61.4,28.5,61.4L28.5,61.4z
		"/>
	<path d="M253,59.6c1.1,0,1.9,0.9,1.9,1.9c0,1.1-0.9,1.9-1.9,1.9c-1.1,0-1.9-0.9-1.9-1.9C251.1,60.5,251.9,59.6,253,59.6L253,59.6z"
		/>
	<path d="M45,76.9c1.1,0,1.9,0.9,1.9,1.9c0,1.1-0.9,1.9-1.9,1.9c-1.1,0-1.9-0.9-1.9-1.9C43.1,77.8,44,76.9,45,76.9L45,76.9z"/>
	<path d="M30.6,48c1.1,0,1.9,0.9,1.9,1.9c0,1.1-0.9,1.9-1.9,1.9c-1.1,0-1.9-0.9-1.9-1.9C28.7,48.9,29.6,48,30.6,48L30.6,48z"/>
	<path d="M32.2,70.4c1.1,0,1.9,0.9,1.9,1.9c0,1.1-0.9,1.9-1.9,1.9c-1.1,0-1.9-0.9-1.9-1.9C30.2,71.2,31.1,70.4,32.2,70.4L32.2,70.4z
		"/>
	<path d="M305.8,69.3c1.1,0,1.9,0.9,1.9,1.9c0,1.1-0.9,1.9-1.9,1.9c-1.1,0-1.9-0.9-1.9-1.9C303.8,70.2,304.7,69.3,305.8,69.3
		L305.8,69.3z"/>
	<path d="M32.7,54c1.1,0,1.9,0.9,1.9,1.9c0,1.1-0.9,1.9-1.9,1.9c-1.1,0-1.9-0.9-1.9-1.9C30.8,54.8,31.7,54,32.7,54L32.7,54z"/>
	<path d="M53.9,20.5c1.1,0,1.9,0.9,1.9,1.9c0,1.1-0.9,1.9-1.9,1.9S52,23.5,52,22.4C52,21.4,52.9,20.5,53.9,20.5L53.9,20.5z"/>
	<path d="M47.8,22.3c1.1,0,1.9,0.9,1.9,1.9c0,1.1-0.9,1.9-1.9,1.9c-1.1,0-1.9-0.9-1.9-1.9C45.9,23.1,46.8,22.3,47.8,22.3L47.8,22.3z
		"/>
	<path d="M69,29.2c1.1,0,1.9,0.9,1.9,1.9c0,1.1-0.9,1.9-1.9,1.9c-1.1,0-1.9-0.9-1.9-1.9C67.1,30,68,29.2,69,29.2L69,29.2z"/>
	<path d="M57,30c1.1,0,1.9,0.9,1.9,1.9c0,1.1-0.9,1.9-1.9,1.9c-1.1,0-1.9-0.9-1.9-1.9C55,30.9,55.9,30,57,30L57,30z"/>
	<path d="M101.2,260.7c1.1,0,1.9,0.9,1.9,1.9c0,1.1-0.9,1.9-1.9,1.9c-1.1,0-1.9-0.9-1.9-1.9C99.3,261.5,100.1,260.7,101.2,260.7
		L101.2,260.7z"/>
	<path d="M236.6,320.3c1.1,0,1.9,0.9,1.9,1.9c0,1.1-0.9,1.9-1.9,1.9c-1.1,0-1.9-0.9-1.9-1.9C234.7,321.2,235.5,320.3,236.6,320.3
		L236.6,320.3z"/>
	<path d="M244.5,326.2c1.1,0,1.9,0.9,1.9,1.9c0,1.1-0.9,1.9-1.9,1.9c-1.1,0-1.9-0.9-1.9-1.9C242.5,327.1,243.4,326.2,244.5,326.2
		L244.5,326.2z"/>
	<path d="M254.5,313.6c1.1,0,1.9,0.9,1.9,1.9c0,1.1-0.9,1.9-1.9,1.9s-1.9-0.9-1.9-1.9C252.6,314.4,253.5,313.6,254.5,313.6
		L254.5,313.6z"/>
	<path d="M133.4,211.5c1.1,0,1.9,0.9,1.9,1.9c0,1.1-0.9,1.9-1.9,1.9c-1.1,0-1.9-0.9-1.9-1.9C131.5,212.4,132.3,211.5,133.4,211.5
		L133.4,211.5z"/>
	<path d="M277.7,51.4c1.1,0,1.9,0.9,1.9,1.9c0,1.1-0.9,1.9-1.9,1.9c-1.1,0-1.9-0.9-1.9-1.9C275.8,52.3,276.6,51.4,277.7,51.4
		L277.7,51.4z"/>
	<path d="M17.4,79.4c1.1,0,1.9,0.9,1.9,1.9c0,1.1-0.9,1.9-1.9,1.9c-1.1,0-1.9-0.9-1.9-1.9C15.5,80.2,16.3,79.4,17.4,79.4L17.4,79.4z
		"/>
	<path d="M106,105.5c1.1,0,1.9,0.9,1.9,1.9c0,1.1-0.9,1.9-1.9,1.9s-1.9-0.9-1.9-1.9C104.1,106.3,104.9,105.5,106,105.5L106,105.5z"
		/>
	<path d="M20.7,65.3c1.1,0,1.9,0.9,1.9,1.9c0,1.1-0.9,1.9-1.9,1.9s-1.9-0.9-1.9-1.9C18.8,66.2,19.6,65.3,20.7,65.3L20.7,65.3z"/>
	<path d="M106,100.1c1.1,0,1.9,0.9,1.9,1.9c0,1.1-0.9,1.9-1.9,1.9s-1.9-0.9-1.9-1.9C104.1,101,104.9,100.1,106,100.1L106,100.1z"/>
	<path d="M15.4,71.9c1.1,0,1.9,0.9,1.9,1.9s-0.9,1.9-1.9,1.9c-1.1,0-1.9-0.9-1.9-1.9S14.4,71.9,15.4,71.9L15.4,71.9z"/>
	<path d="M100.4,105.6c1.1,0,1.9,0.9,1.9,1.9c0,1.1-0.9,1.9-1.9,1.9c-1.1,0-1.9-0.9-1.9-1.9C98.5,106.5,99.3,105.6,100.4,105.6
		L100.4,105.6z"/>
	<path d="M14.6,65.4c1.1,0,1.9,0.9,1.9,1.9c0,1.1-0.9,1.9-1.9,1.9c-1.1,0-1.9-0.9-1.9-1.9C12.7,66.3,13.5,65.4,14.6,65.4L14.6,65.4z
		"/>
	<path d="M121.1,100c1.1,0,1.9,0.9,1.9,1.9c0,1.1-0.9,1.9-1.9,1.9c-1.1,0-1.9-0.9-1.9-1.9C119.2,100.8,120,100,121.1,100L121.1,100z
		"/>
	<path d="M63.8,35c1.1,0,1.9,0.9,1.9,1.9c0,1.1-0.9,1.9-1.9,1.9c-1.1,0-1.9-0.9-1.9-1.9C61.8,35.9,62.7,35,63.8,35L63.8,35z"/>
	<path d="M317.1,263.2c1.1,0,1.9,0.9,1.9,1.9c0,1.1-0.9,1.9-1.9,1.9c-1.1,0-1.9-0.9-1.9-1.9C315.2,264.1,316.1,263.2,317.1,263.2
		L317.1,263.2z"/>
	<path d="M50,29.4c1.1,0,1.9,0.9,1.9,1.9c0,1.1-0.9,1.9-1.9,1.9S48,32.4,48,31.3C48,30.3,48.9,29.4,50,29.4L50,29.4z"/>
	<path d="M105.9,94.7c1.1,0,1.9,0.9,1.9,1.9c0,1.1-0.9,1.9-1.9,1.9c-1.1,0-1.9-0.9-1.9-1.9C104,95.6,104.8,94.7,105.9,94.7
		L105.9,94.7z"/>
	<path d="M121.5,94.9c1.1,0,1.9,0.9,1.9,1.9c0,1.1-0.9,1.9-1.9,1.9c-1.1,0-1.9-0.9-1.9-1.9C119.5,95.8,120.4,94.9,121.5,94.9
		L121.5,94.9z"/>
	<path d="M316.4,238.3c1.1,0,1.9,0.9,1.9,1.9c0,1.1-0.9,1.9-1.9,1.9c-1.1,0-1.9-0.9-1.9-1.9C314.5,239.2,315.4,238.3,316.4,238.3
		L316.4,238.3z"/>
	<path d="M285.9,239.2c1.1,0,1.9,0.9,1.9,1.9c0,1.1-0.9,1.9-1.9,1.9c-1.1,0-1.9-0.9-1.9-1.9C283.9,240.1,284.8,239.2,285.9,239.2
		L285.9,239.2z"/>
	<path d="M41.8,27.1c1.1,0,1.9,0.9,1.9,1.9c0,1.1-0.9,1.9-1.9,1.9s-1.9-0.9-1.9-1.9C39.8,27.9,40.7,27.1,41.8,27.1L41.8,27.1z"/>
	<path d="M210.2,227.2c1.1,0,1.9,0.9,1.9,1.9s-0.9,1.9-1.9,1.9c-1.1,0-1.9-0.9-1.9-1.9S209.1,227.2,210.2,227.2L210.2,227.2z"/>
	<path d="M23.3,54c1.1,0,1.9,0.9,1.9,1.9c0,1.1-0.9,1.9-1.9,1.9c-1.1,0-1.9-0.9-1.9-1.9C21.3,54.8,22.2,54,23.3,54L23.3,54z"/>
	<path d="M265.6,54.7c1.1,0,1.9,0.9,1.9,1.9c0,1.1-0.9,1.9-1.9,1.9c-1.1,0-1.9-0.9-1.9-1.9C263.7,55.5,264.6,54.7,265.6,54.7
		L265.6,54.7z"/>
	<path d="M321.9,230.9c1.1,0,1.9,0.9,1.9,1.9c0,1.1-0.9,1.9-1.9,1.9c-1.1,0-1.9-0.9-1.9-1.9C320,231.8,320.9,230.9,321.9,230.9
		L321.9,230.9z"/>
	<path d="M291,61c1.1,0,1.9,0.9,1.9,1.9c0,1.1-0.9,1.9-1.9,1.9c-1.1,0-1.9-0.9-1.9-1.9C289.1,61.9,290,61,291,61L291,61z"/>
	<path d="M111.5,103c1.1,0,1.9,0.9,1.9,1.9c0,1.1-0.9,1.9-1.9,1.9c-1.1,0-1.9-0.9-1.9-1.9C109.6,103.9,110.4,103,111.5,103
		L111.5,103z"/>
	<path d="M101.3,99.9c1.1,0,1.9,0.9,1.9,1.9c0,1.1-0.9,1.9-1.9,1.9c-1.1,0-1.9-0.9-1.9-1.9C99.4,100.7,100.3,99.9,101.3,99.9
		L101.3,99.9z"/>
	<path d="M117.8,104.2c1.1,0,1.9,0.9,1.9,1.9c0,1.1-0.9,1.9-1.9,1.9c-1.1,0-1.9-0.9-1.9-1.9C115.9,105.1,116.8,104.2,117.8,104.2
		L117.8,104.2z"/>
	<path d="M267.6,82.2c1.1,0,1.9,0.9,1.9,1.9c0,1.1-0.9,1.9-1.9,1.9c-1.1,0-1.9-0.9-1.9-1.9C265.7,83.1,266.6,82.2,267.6,82.2
		L267.6,82.2z"/>
	<path d="M117.4,92c1.1,0,1.9,0.9,1.9,1.9c0,1.1-0.9,1.9-1.9,1.9c-1.1,0-1.9-0.9-1.9-1.9C115.4,92.9,116.3,92,117.4,92L117.4,92z"/>
	<path d="M63.3,46.1c1.1,0,1.9,0.9,1.9,1.9c0,1.1-0.9,1.9-1.9,1.9c-1.1,0-1.9-0.9-1.9-1.9C61.4,47,62.2,46.1,63.3,46.1L63.3,46.1z"
		/>
	<path d="M103.2,110.2c1.1,0,1.9,0.9,1.9,1.9c0,1.1-0.9,1.9-1.9,1.9c-1.1,0-1.9-0.9-1.9-1.9C101.3,111,102.1,110.2,103.2,110.2
		L103.2,110.2z"/>
	<path d="M119.6,253.1c1.1,0,1.9,0.9,1.9,1.9c0,1.1-0.9,1.9-1.9,1.9c-1.1,0-1.9-0.9-1.9-1.9C117.6,253.9,118.5,253.1,119.6,253.1
		L119.6,253.1z"/>
	<path d="M116.2,97.9c1.1,0,1.9,0.9,1.9,1.9c0,1.1-0.9,1.9-1.9,1.9c-1.1,0-1.9-0.9-1.9-1.9C114.3,98.7,115.1,97.9,116.2,97.9
		L116.2,97.9z"/>
	<path d="M128.9,282.3c1.1,0,1.9,0.9,1.9,1.9c0,1.1-0.9,1.9-1.9,1.9c-1.1,0-1.9-0.9-1.9-1.9C127,283.2,127.9,282.3,128.9,282.3
		L128.9,282.3z"/>
	<path d="M120.6,136.8c1.1,0,1.9,0.9,1.9,1.9c0,1.1-0.9,1.9-1.9,1.9c-1.1,0-1.9-0.9-1.9-1.9C118.7,137.7,119.6,136.8,120.6,136.8
		L120.6,136.8z"/>
	<path d="M48.4,60.3c1.1,0,1.9,0.9,1.9,1.9c0,1.1-0.9,1.9-1.9,1.9s-1.9-0.9-1.9-1.9C46.5,61.2,47.4,60.3,48.4,60.3L48.4,60.3z"/>
	<path d="M111,96.9c1.1,0,1.9,0.9,1.9,1.9s-0.9,1.9-1.9,1.9s-1.9-0.9-1.9-1.9S110,96.9,111,96.9L111,96.9z"/>
	<path d="M22,73.9c1.1,0,1.9,0.9,1.9,1.9c0,1.1-0.9,1.9-1.9,1.9c-1.1,0-1.9-0.9-1.9-1.9C20,74.7,20.9,73.9,22,73.9L22,73.9z"/>
	<path d="M16.5,58.7c1.1,0,1.9,0.9,1.9,1.9c0,1.1-0.9,1.9-1.9,1.9c-1.1,0-1.9-0.9-1.9-1.9C14.5,59.5,15.4,58.7,16.5,58.7L16.5,58.7z
		"/>
	<path d="M108,218.6c1.1,0,1.9,0.9,1.9,1.9c0,1.1-0.9,1.9-1.9,1.9c-1.1,0-1.9-0.9-1.9-1.9C106.1,219.5,106.9,218.6,108,218.6
		L108,218.6z"/>
	<path d="M117.4,210.6c1.1,0,1.9,0.9,1.9,1.9c0,1.1-0.9,1.9-1.9,1.9c-1.1,0-1.9-0.9-1.9-1.9C115.4,211.4,116.3,210.6,117.4,210.6
		L117.4,210.6z"/>
	<path d="M101.3,215.7c1.1,0,1.9,0.9,1.9,1.9c0,1.1-0.9,1.9-1.9,1.9c-1.1,0-1.9-0.9-1.9-1.9C99.4,216.6,100.3,215.7,101.3,215.7
		L101.3,215.7z"/>
	<path d="M112,91.9c1.1,0,1.9,0.9,1.9,1.9c0,1.1-0.9,1.9-1.9,1.9c-1.1,0-1.9-0.9-1.9-1.9C110,92.8,110.9,91.9,112,91.9L112,91.9z"/>
	<path d="M109.6,210c1.1,0,1.9,0.9,1.9,1.9c0,1.1-0.9,1.9-1.9,1.9c-1.1,0-1.9-0.9-1.9-1.9C107.7,210.9,108.6,210,109.6,210
		L109.6,210z"/>
	<path d="M150.5,94.4c1.1,0,1.9,0.9,1.9,1.9c0,1.1-0.9,1.9-1.9,1.9c-1.1,0-1.9-0.9-1.9-1.9C148.5,95.2,149.4,94.4,150.5,94.4
		L150.5,94.4z"/>
	<path d="M138.7,287.9c1.1,0,1.9,0.9,1.9,1.9c0,1.1-0.9,1.9-1.9,1.9c-1.1,0-1.9-0.9-1.9-1.9C136.7,288.8,137.6,287.9,138.7,287.9
		L138.7,287.9z"/>
	<path d="M311.9,82.8c1.1,0,1.9,0.9,1.9,1.9c0,1.1-0.9,1.9-1.9,1.9c-1.1,0-1.9-0.9-1.9-1.9C309.9,83.6,310.8,82.8,311.9,82.8
		L311.9,82.8z"/>
	<path d="M124.6,262.2c1.1,0,1.9,0.9,1.9,1.9c0,1.1-0.9,1.9-1.9,1.9c-1.1,0-1.9-0.9-1.9-1.9C122.7,263,123.5,262.2,124.6,262.2
		L124.6,262.2z"/>
	<path d="M263.3,103.5c1.1,0,1.9,0.9,1.9,1.9c0,1.1-0.9,1.9-1.9,1.9c-1.1,0-1.9-0.9-1.9-1.9C261.4,104.4,262.2,103.5,263.3,103.5
		L263.3,103.5z"/>
	<path d="M126.5,272c1.1,0,1.9,0.9,1.9,1.9c0,1.1-0.9,1.9-1.9,1.9c-1.1,0-1.9-0.9-1.9-1.9C124.5,272.9,125.4,272,126.5,272
		L126.5,272z"/>
	<path d="M302.4,82.1c1.1,0,1.9,0.9,1.9,1.9c0,1.1-0.9,1.9-1.9,1.9c-1.1,0-1.9-0.9-1.9-1.9C300.4,82.9,301.3,82.1,302.4,82.1
		L302.4,82.1z"/>
	<path d="M100.7,227.4c1.1,0,1.9,0.9,1.9,1.9c0,1.1-0.9,1.9-1.9,1.9c-1.1,0-1.9-0.9-1.9-1.9C98.8,228.3,99.7,227.4,100.7,227.4
		L100.7,227.4z"/>
	<path d="M76.8,19.5c1.1,0,1.9,0.9,1.9,1.9s-0.9,1.9-1.9,1.9c-1.1,0-1.9-0.9-1.9-1.9S75.7,19.5,76.8,19.5L76.8,19.5z"/>
	<path d="M94.2,236.9c1.1,0,1.9,0.9,1.9,1.9s-0.9,1.9-1.9,1.9c-1.1,0-1.9-0.9-1.9-1.9S93.1,236.9,94.2,236.9L94.2,236.9z"/>
	<path d="M82.7,23.4c1.1,0,1.9,0.9,1.9,1.9c0,1.1-0.9,1.9-1.9,1.9c-1.1,0-1.9-0.9-1.9-1.9C80.8,24.3,81.6,23.4,82.7,23.4L82.7,23.4z
		"/>
	<path d="M71,71.7c1.1,0,1.9,0.9,1.9,1.9c0,1.1-0.9,1.9-1.9,1.9s-1.9-0.9-1.9-1.9C69.1,72.5,69.9,71.7,71,71.7L71,71.7z"/>
	<path d="M290,82.8c1.1,0,1.9,0.9,1.9,1.9c0,1.1-0.9,1.9-1.9,1.9c-1.1,0-1.9-0.9-1.9-1.9C288,83.6,288.9,82.8,290,82.8L290,82.8z"/>
	<path d="M37.1,78.4c1.1,0,1.9,0.9,1.9,1.9c0,1.1-0.9,1.9-1.9,1.9c-1.1,0-1.9-0.9-1.9-1.9C35.1,79.3,36,78.4,37.1,78.4L37.1,78.4z"
		/>
	<path d="M222.9,283.7c1.1,0,1.9,0.9,1.9,1.9c0,1.1-0.9,1.9-1.9,1.9c-1.1,0-1.9-0.9-1.9-1.9C221,284.6,221.9,283.7,222.9,283.7
		L222.9,283.7z"/>
	<path d="M122.6,185.6c1.1,0,1.9,0.9,1.9,1.9c0,1.1-0.9,1.9-1.9,1.9c-1.1,0-1.9-0.9-1.9-1.9C120.7,186.5,121.6,185.6,122.6,185.6
		L122.6,185.6z"/>
	<path d="M115.6,134.6c1.1,0,1.9,0.9,1.9,1.9c0,1.1-0.9,1.9-1.9,1.9c-1.1,0-1.9-0.9-1.9-1.9C113.7,135.5,114.5,134.6,115.6,134.6
		L115.6,134.6z"/>
	<path d="M118.1,272.6c1.1,0,1.9,0.9,1.9,1.9c0,1.1-0.9,1.9-1.9,1.9c-1.1,0-1.9-0.9-1.9-1.9C116.1,273.5,117,272.6,118.1,272.6
		L118.1,272.6z"/>
	<path d="M114,108c1.1,0,1.9,0.9,1.9,1.9c0,1.1-0.9,1.9-1.9,1.9c-1.1,0-1.9-0.9-1.9-1.9C112,108.9,112.9,108,114,108L114,108z"/>
	<path d="M63.6,16.5c1.1,0,1.9,0.9,1.9,1.9c0,1.1-0.9,1.9-1.9,1.9c-1.1,0-1.9-0.9-1.9-1.9C61.7,17.4,62.6,16.5,63.6,16.5L63.6,16.5z
		"/>
	<path d="M108.8,110c1.1,0,1.9,0.9,1.9,1.9c0,1.1-0.9,1.9-1.9,1.9c-1.1,0-1.9-0.9-1.9-1.9C106.9,110.9,107.7,110,108.8,110
		L108.8,110z"/>
	<path d="M145.8,273.2c1.1,0,1.9,0.9,1.9,1.9c0,1.1-0.9,1.9-1.9,1.9c-1.1,0-1.9-0.9-1.9-1.9C143.9,274,144.7,273.2,145.8,273.2
		L145.8,273.2z"/>
	<path d="M22.6,46.7c1.1,0,1.9,0.9,1.9,1.9c0,1.1-0.9,1.9-1.9,1.9c-1.1,0-1.9-0.9-1.9-1.9C20.6,47.6,21.5,46.7,22.6,46.7L22.6,46.7z
		"/>
	<path d="M300.3,70.8c1.1,0,1.9,0.9,1.9,1.9c0,1.1-0.9,1.9-1.9,1.9c-1.1,0-1.9-0.9-1.9-1.9C298.3,71.7,299.2,70.8,300.3,70.8
		L300.3,70.8z"/>
	<path d="M291.9,46.3c1.1,0,1.9,0.9,1.9,1.9c0,1.1-0.9,1.9-1.9,1.9c-1.1,0-1.9-0.9-1.9-1.9C289.9,47.1,290.8,46.3,291.9,46.3
		L291.9,46.3z"/>
	<path d="M288,52.1c1.1,0,1.9,0.9,1.9,1.9c0,1.1-0.9,1.9-1.9,1.9c-1.1,0-1.9-0.9-1.9-1.9C286.1,53,286.9,52.1,288,52.1L288,52.1z"/>
	<path d="M247.9,310.5c1.1,0,1.9,0.9,1.9,1.9c0,1.1-0.9,1.9-1.9,1.9c-1.1,0-1.9-0.9-1.9-1.9C245.9,311.4,246.8,310.5,247.9,310.5
		L247.9,310.5z"/>
	<path d="M103.9,53.5c1.1,0,1.9,0.9,1.9,1.9s-0.9,1.9-1.9,1.9c-1.1,0-1.9-0.9-1.9-1.9S102.8,53.5,103.9,53.5L103.9,53.5z"/>
	<path d="M93.4,49.6c1.1,0,1.9,0.9,1.9,1.9c0,1.1-0.9,1.9-1.9,1.9c-1.1,0-1.9-0.9-1.9-1.9C91.4,50.5,92.3,49.6,93.4,49.6L93.4,49.6z
		"/>
	<path d="M100.4,37.1c1.1,0,1.9,0.9,1.9,1.9s-0.9,1.9-1.9,1.9c-1.1,0-1.9-0.9-1.9-1.9S99.3,37.1,100.4,37.1L100.4,37.1z"/>
	<path d="M111.5,42c1.1,0,1.9,0.9,1.9,1.9c0,1.1-0.9,1.9-1.9,1.9c-1.1,0-1.9-0.9-1.9-1.9C109.6,42.9,110.4,42,111.5,42L111.5,42z"/>
	<path d="M99.5,45.7c1.1,0,1.9,0.9,1.9,1.9c0,1.1-0.9,1.9-1.9,1.9c-1.1,0-1.9-0.9-1.9-1.9C97.5,46.5,98.4,45.7,99.5,45.7L99.5,45.7z
		"/>
	<path d="M97.5,55.4c1.1,0,1.9,0.9,1.9,1.9c0,1.1-0.9,1.9-1.9,1.9c-1.1,0-1.9-0.9-1.9-1.9C95.5,56.3,96.4,55.4,97.5,55.4L97.5,55.4z
		"/>
	<path d="M106.2,37.8c1.1,0,1.9,0.9,1.9,1.9c0,1.1-0.9,1.9-1.9,1.9c-1.1,0-1.9-0.9-1.9-1.9C104.3,38.7,105.2,37.8,106.2,37.8
		L106.2,37.8z"/>
	<path d="M105.8,44.7c1.1,0,1.9,0.9,1.9,1.9c0,1.1-0.9,1.9-1.9,1.9s-1.9-0.9-1.9-1.9C103.8,45.6,104.7,44.7,105.8,44.7L105.8,44.7z"
		/>
	<path d="M95,41.3c1.1,0,1.9,0.9,1.9,1.9c0,1.1-0.9,1.9-1.9,1.9c-1.1,0-1.9-0.9-1.9-1.9C93.1,42.2,93.9,41.3,95,41.3L95,41.3z"/>
	<path d="M110.2,54.2c1.1,0,1.9,0.9,1.9,1.9c0,1.1-0.9,1.9-1.9,1.9c-1.1,0-1.9-0.9-1.9-1.9C108.3,55.1,109.2,54.2,110.2,54.2
		L110.2,54.2z"/>
	<path d="M110.6,79.1c1.1,0,1.9,0.9,1.9,1.9c0,1.1-0.9,1.9-1.9,1.9c-1.1,0-1.9-0.9-1.9-1.9C108.6,80,109.5,79.1,110.6,79.1
		L110.6,79.1z"/>
	<path d="M112.3,48.4c1.1,0,1.9,0.9,1.9,1.9c0,1.1-0.9,1.9-1.9,1.9s-1.9-0.9-1.9-1.9C110.4,49.2,111.3,48.4,112.3,48.4L112.3,48.4z"
		/>
	<path d="M246,320.1c1.1,0,1.9,0.9,1.9,1.9c0,1.1-0.9,1.9-1.9,1.9c-1.1,0-1.9-0.9-1.9-1.9C244,321,244.9,320.1,246,320.1L246,320.1z
		"/>
	<path d="M253.4,320.2c1.1,0,1.9,0.9,1.9,1.9c0,1.1-0.9,1.9-1.9,1.9c-1.1,0-1.9-0.9-1.9-1.9C251.4,321.1,252.3,320.2,253.4,320.2
		L253.4,320.2z"/>
	<path d="M231.7,259.3c1.1,0,1.9,0.9,1.9,1.9c0,1.1-0.9,1.9-1.9,1.9c-1.1,0-1.9-0.9-1.9-1.9C229.8,260.1,230.6,259.3,231.7,259.3
		L231.7,259.3z"/>
	<path d="M237.2,255.6c1.1,0,1.9,0.9,1.9,1.9c0,1.1-0.9,1.9-1.9,1.9c-1.1,0-1.9-0.9-1.9-1.9C235.3,256.5,236.1,255.6,237.2,255.6
		L237.2,255.6z"/>
	<path d="M273,60.5c1.1,0,1.9,0.9,1.9,1.9c0,1.1-0.9,1.9-1.9,1.9c-1.1,0-1.9-0.9-1.9-1.9C271.1,61.4,271.9,60.5,273,60.5L273,60.5z"
		/>
	<path d="M303.3,55.7c1.1,0,1.9,0.9,1.9,1.9c0,1.1-0.9,1.9-1.9,1.9c-1.1,0-1.9-0.9-1.9-1.9C301.4,56.6,302.3,55.7,303.3,55.7
		L303.3,55.7z"/>
	<path d="M188.8,263.4c1.1,0,1.9,0.9,1.9,1.9c0,1.1-0.9,1.9-1.9,1.9c-1.1,0-1.9-0.9-1.9-1.9C186.8,264.2,187.7,263.4,188.8,263.4
		L188.8,263.4z"/>
	<path d="M142.1,278.1c1.1,0,1.9,0.9,1.9,1.9s-0.9,1.9-1.9,1.9c-1.1,0-1.9-0.9-1.9-1.9S141,278.1,142.1,278.1L142.1,278.1z"/>
	<path d="M335.4,244.9c1.1,0,1.9,0.9,1.9,1.9c0,1.1-0.9,1.9-1.9,1.9c-1.1,0-1.9-0.9-1.9-1.9C333.5,245.7,334.3,244.9,335.4,244.9
		L335.4,244.9z"/>
	<path d="M311.3,270.3c1.1,0,1.9,0.9,1.9,1.9c0,1.1-0.9,1.9-1.9,1.9c-1.1,0-1.9-0.9-1.9-1.9C309.3,271.1,310.2,270.3,311.3,270.3
		L311.3,270.3z"/>
	<path d="M40.7,98.6c1.1,0,1.9,0.9,1.9,1.9c0,1.1-0.9,1.9-1.9,1.9c-1.1,0-1.9-0.9-1.9-1.9C38.8,99.4,39.6,98.6,40.7,98.6L40.7,98.6z
		"/>
	<path d="M323.9,255c1.1,0,1.9,0.9,1.9,1.9c0,1.1-0.9,1.9-1.9,1.9c-1.1,0-1.9-0.9-1.9-1.9C322,255.9,322.9,255,323.9,255L323.9,255z
		"/>
	<path d="M114.6,264.9c1.1,0,1.9,0.9,1.9,1.9c0,1.1-0.9,1.9-1.9,1.9c-1.1,0-1.9-0.9-1.9-1.9C112.6,265.7,113.5,264.9,114.6,264.9
		L114.6,264.9z"/>
	<path d="M183.1,205.3c1.1,0,1.9,0.9,1.9,1.9s-0.9,1.9-1.9,1.9c-1.1,0-1.9-0.9-1.9-1.9S182.1,205.3,183.1,205.3L183.1,205.3z"/>
	<path d="M296.7,111.2c1.1,0,1.9,0.9,1.9,1.9c0,1.1-0.9,1.9-1.9,1.9s-1.9-0.9-1.9-1.9C294.7,112.1,295.6,111.2,296.7,111.2
		L296.7,111.2z"/>
	<path d="M296.9,54.6c1.1,0,1.9,0.9,1.9,1.9c0,1.1-0.9,1.9-1.9,1.9c-1.1,0-1.9-0.9-1.9-1.9C294.9,55.4,295.8,54.6,296.9,54.6
		L296.9,54.6z"/>
	<path d="M21.7,99c1.1,0,1.9,0.9,1.9,1.9c0,1.1-0.9,1.9-1.9,1.9c-1.1,0-1.9-0.9-1.9-1.9C19.8,99.9,20.7,99,21.7,99L21.7,99z"/>
	<path d="M28.3,105c1.1,0,1.9,0.9,1.9,1.9c0,1.1-0.9,1.9-1.9,1.9c-1.1,0-1.9-0.9-1.9-1.9C26.4,105.9,27.2,105,28.3,105L28.3,105z"/>
	<path d="M28.1,88.2c1.1,0,1.9,0.9,1.9,1.9c0,1.1-0.9,1.9-1.9,1.9c-1.1,0-1.9-0.9-1.9-1.9C26.1,89,27,88.2,28.1,88.2L28.1,88.2z"/>
	<path d="M236.4,328.8c1.1,0,1.9,0.9,1.9,1.9c0,1.1-0.9,1.9-1.9,1.9c-1.1,0-1.9-0.9-1.9-1.9C234.4,329.6,235.3,328.8,236.4,328.8
		L236.4,328.8z"/>
	<path d="M229.4,329.6c1.1,0,1.9,0.9,1.9,1.9c0,1.1-0.9,1.9-1.9,1.9c-1.1,0-1.9-0.9-1.9-1.9C227.4,330.5,228.3,329.6,229.4,329.6
		L229.4,329.6z"/>
	<path d="M113.1,228.1c1.1,0,1.9,0.9,1.9,1.9c0,1.1-0.9,1.9-1.9,1.9c-1.1,0-1.9-0.9-1.9-1.9C111.2,229,112.1,228.1,113.1,228.1
		L113.1,228.1z"/>
	<path d="M53.2,102.7c1.1,0,1.9,0.9,1.9,1.9c0,1.1-0.9,1.9-1.9,1.9c-1.1,0-1.9-0.9-1.9-1.9C51.3,103.5,52.2,102.7,53.2,102.7
		L53.2,102.7z"/>
	<path d="M50.4,92.5c1.1,0,1.9,0.9,1.9,1.9c0,1.1-0.9,1.9-1.9,1.9c-1.1,0-1.9-0.9-1.9-1.9C48.5,93.4,49.3,92.5,50.4,92.5L50.4,92.5z
		"/>
	<path d="M19.4,89c1.1,0,1.9,0.9,1.9,1.9c0,1.1-0.9,1.9-1.9,1.9c-1.1,0-1.9-0.9-1.9-1.9C17.5,89.8,18.3,89,19.4,89L19.4,89z"/>
	<path d="M24.7,84.3c1.1,0,1.9,0.9,1.9,1.9c0,1.1-0.9,1.9-1.9,1.9c-1.1,0-1.9-0.9-1.9-1.9C22.7,85.2,23.6,84.3,24.7,84.3L24.7,84.3z
		"/>
	<path d="M132.2,185.8c1.1,0,1.9,0.9,1.9,1.9s-0.9,1.9-1.9,1.9c-1.1,0-1.9-0.9-1.9-1.9S131.2,185.8,132.2,185.8L132.2,185.8z"/>
	<path d="M185.5,267.6c1.1,0,1.9,0.9,1.9,1.9c0,1.1-0.9,1.9-1.9,1.9c-1.1,0-1.9-0.9-1.9-1.9C183.5,268.4,184.4,267.6,185.5,267.6
		L185.5,267.6z"/>
	<path d="M315,251.3c1.1,0,1.9,0.9,1.9,1.9c0,1.1-0.9,1.9-1.9,1.9c-1.1,0-1.9-0.9-1.9-1.9C313.1,252.2,314,251.3,315,251.3
		L315,251.3z"/>
	<path d="M136.8,184.7c1.1,0,1.9,0.9,1.9,1.9c0,1.1-0.9,1.9-1.9,1.9c-1.1,0-1.9-0.9-1.9-1.9C134.8,185.6,135.7,184.7,136.8,184.7
		L136.8,184.7z"/>
	<path d="M296.8,201.7c1.1,0,1.9,0.9,1.9,1.9c0,1.1-0.9,1.9-1.9,1.9s-1.9-0.9-1.9-1.9C294.8,202.5,295.7,201.7,296.8,201.7
		L296.8,201.7z"/>
	<path d="M303.7,200c1.1,0,1.9,0.9,1.9,1.9s-0.9,1.9-1.9,1.9c-1.1,0-1.9-0.9-1.9-1.9S302.6,200,303.7,200L303.7,200z"/>
	<path d="M291.3,69.9c1.1,0,1.9,0.9,1.9,1.9c0,1.1-0.9,1.9-1.9,1.9c-1.1,0-1.9-0.9-1.9-1.9C289.3,70.8,290.2,69.9,291.3,69.9
		L291.3,69.9z"/>
	<path d="M208.9,85.3c1.1,0,1.9,0.9,1.9,1.9c0,1.1-0.9,1.9-1.9,1.9c-1.1,0-1.9-0.9-1.9-1.9C206.9,86.2,207.8,85.3,208.9,85.3
		L208.9,85.3z"/>
	<path d="M190.6,289.3c1.1,0,1.9,0.9,1.9,1.9c0,1.1-0.9,1.9-1.9,1.9c-1.1,0-1.9-0.9-1.9-1.9C188.7,290.2,189.6,289.3,190.6,289.3
		L190.6,289.3z"/>
	<path d="M27.4,95.6c1.1,0,1.9,0.9,1.9,1.9c0,1.1-0.9,1.9-1.9,1.9s-1.9-0.9-1.9-1.9C25.4,96.5,26.3,95.6,27.4,95.6L27.4,95.6z"/>
	<path d="M153.2,269.3c1.1,0,1.9,0.9,1.9,1.9c0,1.1-0.9,1.9-1.9,1.9c-1.1,0-1.9-0.9-1.9-1.9C151.2,270.2,152.1,269.3,153.2,269.3
		L153.2,269.3z"/>
	<path d="M36.7,37.1c1.1,0,1.9,0.9,1.9,1.9S37.8,41,36.7,41c-1.1,0-1.9-0.9-1.9-1.9S35.7,37.1,36.7,37.1L36.7,37.1z"/>
	<path d="M210.6,324.6c1.1,0,1.9,0.9,1.9,1.9c0,1.1-0.9,1.9-1.9,1.9c-1.1,0-1.9-0.9-1.9-1.9C208.7,325.4,209.6,324.6,210.6,324.6
		L210.6,324.6z"/>
	<path d="M203.8,323c1.1,0,1.9,0.9,1.9,1.9c0,1.1-0.9,1.9-1.9,1.9c-1.1,0-1.9-0.9-1.9-1.9C201.9,323.9,202.8,323,203.8,323
		L203.8,323z"/>
	<path d="M25.1,40.5c1.1,0,1.9,0.9,1.9,1.9c0,1.1-0.9,1.9-1.9,1.9c-1.1,0-1.9-0.9-1.9-1.9C23.2,41.4,24.1,40.5,25.1,40.5L25.1,40.5z
		"/>
	<path d="M31,40.4c1.1,0,1.9,0.9,1.9,1.9c0,1.1-0.9,1.9-1.9,1.9c-1.1,0-1.9-0.9-1.9-1.9C29.1,41.3,29.9,40.4,31,40.4L31,40.4z"/>
	<path d="M242.1,64.5c1.1,0,1.9,0.9,1.9,1.9c0,1.1-0.9,1.9-1.9,1.9s-1.9-0.9-1.9-1.9C240.2,65.4,241,64.5,242.1,64.5L242.1,64.5z"/>
	<path d="M278.5,161.1c1.1,0,1.9,0.9,1.9,1.9c0,1.1-0.9,1.9-1.9,1.9s-1.9-0.9-1.9-1.9C276.6,161.9,277.4,161.1,278.5,161.1
		L278.5,161.1z"/>
	<path d="M29.5,32c1.1,0,1.9,0.9,1.9,1.9c0,1.1-0.9,1.9-1.9,1.9c-1.1,0-1.9-0.9-1.9-1.9C27.5,32.8,28.4,32,29.5,32L29.5,32z"/>
	<path d="M40.6,32.7c1.1,0,1.9,0.9,1.9,1.9c0,1.1-0.9,1.9-1.9,1.9c-1.1,0-1.9-0.9-1.9-1.9C38.6,33.5,39.5,32.7,40.6,32.7L40.6,32.7z
		"/>
	<path d="M242.9,54.4c1.1,0,1.9,0.9,1.9,1.9c0,1.1-0.9,1.9-1.9,1.9c-1.1,0-1.9-0.9-1.9-1.9C241,55.3,241.9,54.4,242.9,54.4
		L242.9,54.4z"/>
	<path d="M248,47.4c1.1,0,1.9,0.9,1.9,1.9c0,1.1-0.9,1.9-1.9,1.9c-1.1,0-1.9-0.9-1.9-1.9C246,48.3,246.9,47.4,248,47.4L248,47.4z"/>
	<path d="M167.8,266c1.1,0,1.9,0.9,1.9,1.9c0,1.1-0.9,1.9-1.9,1.9c-1.1,0-1.9-0.9-1.9-1.9C165.9,266.9,166.7,266,167.8,266
		L167.8,266z"/>
	<path d="M219.1,316.7c1.1,0,1.9,0.9,1.9,1.9c0,1.1-0.9,1.9-1.9,1.9c-1.1,0-1.9-0.9-1.9-1.9C217.1,317.6,218,316.7,219.1,316.7
		L219.1,316.7z"/>
	<path d="M214.1,311.6c1.1,0,1.9,0.9,1.9,1.9c0,1.1-0.9,1.9-1.9,1.9c-1.1,0-1.9-0.9-1.9-1.9C212.2,312.4,213.1,311.6,214.1,311.6
		L214.1,311.6z"/>
	<path d="M213.6,320.2c1.1,0,1.9,0.9,1.9,1.9c0,1.1-0.9,1.9-1.9,1.9c-1.1,0-1.9-0.9-1.9-1.9C211.6,321.1,212.5,320.2,213.6,320.2
		L213.6,320.2z"/>
	<path d="M303,272.7c1.1,0,1.9,0.9,1.9,1.9c0,1.1-0.9,1.9-1.9,1.9c-1.1,0-1.9-0.9-1.9-1.9C301,273.6,301.9,272.7,303,272.7
		L303,272.7z"/>
	<path d="M171.3,257c1.1,0,1.9,0.9,1.9,1.9c0,1.1-0.9,1.9-1.9,1.9c-1.1,0-1.9-0.9-1.9-1.9C169.4,257.9,170.2,257,171.3,257
		L171.3,257z"/>
	<path d="M206.2,315.3c1.1,0,1.9,0.9,1.9,1.9c0,1.1-0.9,1.9-1.9,1.9c-1.1,0-1.9-0.9-1.9-1.9C204.2,316.2,205.1,315.3,206.2,315.3
		L206.2,315.3z"/>
	<path d="M307.8,261.6c1.1,0,1.9,0.9,1.9,1.9c0,1.1-0.9,1.9-1.9,1.9c-1.1,0-1.9-0.9-1.9-1.9C305.8,262.5,306.7,261.6,307.8,261.6
		L307.8,261.6z"/>
</g>
</svg>
