<?xml version="1.0" encoding="utf-8"?>
<!-- Generator: Adobe Illustrator 21.1.0, SVG Export Plug-In . SVG Version: 6.00 Build 0)  -->
<svg version="1.1" id="Layer_1" xmlns="http://www.w3.org/2000/svg" xmlns:xlink="http://www.w3.org/1999/xlink" x="0px" y="0px"
	 viewBox="0 0 350 350" style="enable-background:new 0 0 350 350;" xml:space="preserve">
<style type="text/css">
	.st0{fill:none;stroke:#231F20;stroke-width:0.75;stroke-linecap:square;stroke-miterlimit:10;}
</style>
<g>
	<line class="st0" x1="152.2" y1="161.2" x2="113.7" y2="174.9"/>
	<line class="st0" x1="141.1" y1="141.9" x2="193.6" y2="159.1"/>
	<line class="st0" x1="219.2" y1="184" x2="256.2" y2="199.1"/>
	<line class="st0" x1="179.2" y1="114" x2="179.1" y2="83.3"/>
	<line class="st0" x1="219.2" y1="184" x2="258.2" y2="190.6"/>
	<line class="st0" x1="169.2" y1="114.8" x2="157.3" y2="150.3"/>
	<line class="st0" x1="121.4" y1="224.4" x2="101" y2="256.6"/>
	<line class="st0" x1="152.2" y1="161.2" x2="164.1" y2="121.5"/>
	<line class="st0" x1="108.2" y1="146.8" x2="69.2" y2="137.2"/>
	<line class="st0" x1="136.4" y1="179.8" x2="146.1" y2="139.7"/>
	<line class="st0" x1="50.2" y1="258.1" x2="78.5" y2="235"/>
	<line class="st0" x1="136.4" y1="179.8" x2="108.9" y2="150.9"/>
	<line class="st0" x1="163.5" y1="173.9" x2="124.7" y2="173.7"/>
	<line class="st0" x1="126.9" y1="139.3" x2="169.4" y2="139.4"/>
	<line class="st0" x1="228.9" y1="140" x2="205.6" y2="117.2"/>
	<line class="st0" x1="155.2" y1="276.1" x2="159.4" y2="237.8"/>
	<line class="st0" x1="228.9" y1="140" x2="266.5" y2="128.9"/>
	<line class="st0" x1="83.9" y1="179" x2="124.7" y2="173.7"/>
	<line class="st0" x1="174.5" y1="114.4" x2="169.4" y2="139.4"/>
	<line class="st0" x1="95.2" y1="83.3" x2="125.1" y2="109.8"/>
	<line class="st0" x1="171.3" y1="131.1" x2="182.8" y2="94.7"/>
	<line class="st0" x1="226.3" y1="106.7" x2="197.6" y2="91"/>
	<line class="st0" x1="111.1" y1="66.1" x2="89.7" y2="35.5"/>
	<line class="st0" x1="204.6" y1="160.1" x2="158" y2="161.6"/>
	<line class="st0" x1="129.3" y1="205" x2="153.4" y2="249.2"/>
	<line class="st0" x1="155.3" y1="137.3" x2="125.3" y2="124.2"/>
	<line class="st0" x1="184.1" y1="124.1" x2="180.4" y2="144.8"/>
	<line class="st0" x1="186.9" y1="117" x2="193.6" y2="159.1"/>
	<line class="st0" x1="105.8" y1="82" x2="75.7" y2="59.2"/>
	<line class="st0" x1="204.6" y1="160.1" x2="218.8" y2="144.8"/>
	<line class="st0" x1="131.4" y1="123.8" x2="104.7" y2="164.6"/>
	<line class="st0" x1="144" y1="286.4" x2="153.4" y2="249.2"/>
	<line class="st0" x1="210.7" y1="177.8" x2="201.3" y2="150.2"/>
	<line class="st0" x1="184.3" y1="209.3" x2="185.2" y2="247.2"/>
	<line class="st0" x1="108.7" y1="113.5" x2="143.3" y2="95.1"/>
	<line class="st0" x1="132.4" y1="149.3" x2="104.7" y2="164.6"/>
	<line class="st0" x1="132.4" y1="149.3" x2="125.1" y2="109.8"/>
	<line class="st0" x1="188.7" y1="189.3" x2="215.9" y2="205.3"/>
	<line class="st0" x1="83.9" y1="200.9" x2="113.7" y2="174.9"/>
	<line class="st0" x1="171.3" y1="131.1" x2="193.6" y2="159.1"/>
	<line class="st0" x1="184.3" y1="209.3" x2="206.9" y2="240.1"/>
	<line class="st0" x1="63.5" y1="158.7" x2="104.7" y2="164.6"/>
	<line class="st0" x1="173.1" y1="106.4" x2="138.5" y2="103.6"/>
	<line class="st0" x1="179.2" y1="114" x2="197.6" y2="91"/>
	<line class="st0" x1="171.3" y1="131.1" x2="178.6" y2="158.6"/>
	<line class="st0" x1="141.9" y1="58.7" x2="157.6" y2="97.1"/>
	<line class="st0" x1="219.2" y1="184" x2="174.8" y2="154.6"/>
	<line class="st0" x1="119.7" y1="212.9" x2="104.7" y2="164.6"/>
	<line class="st0" x1="97" y1="200.3" x2="124.7" y2="173.7"/>
	<line class="st0" x1="204.6" y1="160.1" x2="243.2" y2="159.4"/>
	<line class="st0" x1="85.8" y1="186.6" x2="124.7" y2="173.7"/>
	<line class="st0" x1="257.2" y1="136.1" x2="265.4" y2="145.8"/>
	<line class="st0" x1="136.4" y1="179.8" x2="124.7" y2="173.7"/>
	<line class="st0" x1="191.5" y1="223.1" x2="153.4" y2="249.2"/>
	<line class="st0" x1="172.9" y1="152.2" x2="218.8" y2="144.8"/>
	<line class="st0" x1="151.3" y1="148.4" x2="194.7" y2="168.6"/>
	<line class="st0" x1="216.8" y1="189.7" x2="194.7" y2="168.6"/>
	<line class="st0" x1="228.9" y1="140" x2="188.1" y2="164.7"/>
	<line class="st0" x1="171.3" y1="131.1" x2="164.1" y2="121.5"/>
	<line class="st0" x1="276.5" y1="127.7" x2="312.8" y2="125"/>
	<line class="st0" x1="141.1" y1="141.9" x2="95.5" y2="122.8"/>
	<line class="st0" x1="141.1" y1="141.9" x2="105.1" y2="135.6"/>
	<line class="st0" x1="169.2" y1="114.8" x2="148.9" y2="143.6"/>
	<line class="st0" x1="171.3" y1="131.1" x2="191.4" y2="144.1"/>
	<line class="st0" x1="196.5" y1="262.7" x2="171.7" y2="223"/>
	<line class="st0" x1="152.2" y1="161.2" x2="135" y2="190.8"/>
	<line class="st0" x1="105.8" y1="82" x2="125.1" y2="109.8"/>
	<line class="st0" x1="184.1" y1="124.1" x2="193.6" y2="159.1"/>
	<line class="st0" x1="208.8" y1="54.9" x2="198.2" y2="75"/>
	<line class="st0" x1="131.4" y1="123.8" x2="158" y2="161.6"/>
	<line class="st0" x1="196.5" y1="262.7" x2="197" y2="299.4"/>
	<line class="st0" x1="126.9" y1="139.3" x2="90.7" y2="120.5"/>
	<line class="st0" x1="196.4" y1="118.3" x2="218.8" y2="144.8"/>
	<line class="st0" x1="184.3" y1="209.3" x2="193.6" y2="159.1"/>
	<line class="st0" x1="163.5" y1="183.1" x2="193.1" y2="152.9"/>
	<line class="st0" x1="163.5" y1="183.1" x2="149.1" y2="203.2"/>
	<line class="st0" x1="159.5" y1="178.2" x2="157.3" y2="150.3"/>
	<line class="st0" x1="174.5" y1="114.4" x2="187.9" y2="75.9"/>
	<line class="st0" x1="171.3" y1="131.1" x2="124.7" y2="173.7"/>
	<line class="st0" x1="225.3" y1="148.4" x2="199.5" y2="131"/>
	<line class="st0" x1="188.7" y1="189.3" x2="218.8" y2="144.8"/>
	<line class="st0" x1="167" y1="186.3" x2="188.1" y2="164.7"/>
	<line class="st0" x1="188.7" y1="189.3" x2="193.6" y2="159.1"/>
	<line class="st0" x1="141" y1="248.3" x2="126.3" y2="283.3"/>
	<line class="st0" x1="129.3" y1="205" x2="157.3" y2="150.3"/>
	<line class="st0" x1="204.6" y1="160.1" x2="201.3" y2="150.2"/>
	<line class="st0" x1="179.2" y1="114" x2="193.6" y2="159.1"/>
	<line class="st0" x1="204.6" y1="160.1" x2="185.7" y2="150"/>
	<line class="st0" x1="186.9" y1="117" x2="157.6" y2="97.1"/>
	<line class="st0" x1="172.9" y1="152.2" x2="124.7" y2="173.7"/>
	<line class="st0" x1="171.3" y1="131.1" x2="125.1" y2="109.8"/>
	<line class="st0" x1="213.1" y1="125.6" x2="180.4" y2="144.8"/>
	<line class="st0" x1="132.4" y1="149.3" x2="158" y2="161.6"/>
	<line class="st0" x1="99.6" y1="188.5" x2="124.7" y2="173.7"/>
	<line class="st0" x1="184.3" y1="209.3" x2="192.7" y2="246.3"/>
	<line class="st0" x1="210.7" y1="177.8" x2="185.5" y2="169.5"/>
	<line class="st0" x1="108.7" y1="113.5" x2="108.9" y2="150.9"/>
	<line class="st0" x1="131.4" y1="123.8" x2="101.5" y2="98.2"/>
	<line class="st0" x1="127.4" y1="49.3" x2="143.3" y2="95.1"/>
	<line class="st0" x1="219.2" y1="184" x2="258.4" y2="195.6"/>
	<line class="st0" x1="74.4" y1="185.2" x2="124.7" y2="173.7"/>
	<line class="st0" x1="204.6" y1="160.1" x2="243.6" y2="152.5"/>
	<line class="st0" x1="179.2" y1="114" x2="138.2" y2="115.2"/>
	<line class="st0" x1="152.2" y1="161.2" x2="194.7" y2="168.6"/>
	<line class="st0" x1="171.3" y1="131.1" x2="218.8" y2="144.8"/>
	<line class="st0" x1="219.2" y1="184" x2="171.7" y2="223"/>
	<line class="st0" x1="141.9" y1="58.7" x2="133.5" y2="23.2"/>
	<line class="st0" x1="173.1" y1="106.4" x2="206.9" y2="113.6"/>
	<line class="st0" x1="188.7" y1="189.3" x2="202" y2="224"/>
	<line class="st0" x1="173.1" y1="106.4" x2="144.3" y2="72.9"/>
	<line class="st0" x1="224.2" y1="195.1" x2="194.7" y2="168.6"/>
	<line class="st0" x1="159.3" y1="105.8" x2="169.4" y2="139.4"/>
	<line class="st0" x1="163.5" y1="173.9" x2="146.2" y2="211.1"/>
	<line class="st0" x1="136.4" y1="179.8" x2="108.8" y2="206.4"/>
	<line class="st0" x1="126.9" y1="139.3" x2="113.7" y2="174.9"/>
	<line class="st0" x1="228.9" y1="140" x2="191.4" y2="144.1"/>
	<line class="st0" x1="108.2" y1="146.8" x2="68.4" y2="143.4"/>
	<line class="st0" x1="108.2" y1="146.8" x2="125.1" y2="109.8"/>
	<line class="st0" x1="145.8" y1="273.8" x2="159.4" y2="237.8"/>
	<line class="st0" x1="152.2" y1="161.2" x2="117" y2="167.5"/>
	<line class="st0" x1="136.4" y1="179.8" x2="149.1" y2="203.2"/>
	<line class="st0" x1="105.8" y1="82" x2="138.2" y2="115.2"/>
	<line class="st0" x1="210.7" y1="177.8" x2="188.1" y2="164.7"/>
	<line class="st0" x1="184.1" y1="124.1" x2="191.4" y2="170.5"/>
	<line class="st0" x1="204.6" y1="160.1" x2="194.7" y2="168.6"/>
	<line class="st0" x1="131.4" y1="123.8" x2="157.6" y2="97.1"/>
	<line class="st0" x1="184.1" y1="124.1" x2="157.6" y2="97.1"/>
	<line class="st0" x1="144.2" y1="119.5" x2="157.3" y2="150.3"/>
	<line class="st0" x1="111.1" y1="66.1" x2="144.3" y2="72.9"/>
	<line class="st0" x1="226.3" y1="106.7" x2="200.5" y2="141.4"/>
	<line class="st0" x1="225.3" y1="148.4" x2="193.6" y2="159.1"/>
	<line class="st0" x1="155.3" y1="137.3" x2="124.7" y2="173.7"/>
	<line class="st0" x1="174.5" y1="114.4" x2="143.3" y2="95.1"/>
	<line class="st0" x1="204.6" y1="160.1" x2="169.4" y2="139.4"/>
	<line class="st0" x1="188.7" y1="189.3" x2="157.3" y2="150.3"/>
	<line class="st0" x1="188.7" y1="189.3" x2="158" y2="161.6"/>
	<line class="st0" x1="141" y1="248.3" x2="171.7" y2="223"/>
	<line class="st0" x1="171.3" y1="131.1" x2="169.4" y2="139.4"/>
	<line class="st0" x1="225.3" y1="148.4" x2="265.4" y2="145.8"/>
	<line class="st0" x1="184.3" y1="209.3" x2="158" y2="161.6"/>
	<line class="st0" x1="159.5" y1="178.2" x2="180.4" y2="144.8"/>
	<line class="st0" x1="163.5" y1="183.1" x2="162" y2="220.6"/>
	<line class="st0" x1="126.9" y1="139.3" x2="112.6" y2="123.6"/>
	<line class="st0" x1="196.4" y1="118.3" x2="164.1" y2="121.5"/>
	<line class="st0" x1="163.5" y1="183.1" x2="185.5" y2="169.5"/>
	<line class="st0" x1="210.7" y1="177.8" x2="185.7" y2="150"/>
	<line class="st0" x1="217.5" y1="56.6" x2="197.6" y2="91"/>
	<line class="st0" x1="204.6" y1="160.1" x2="199.5" y2="131"/>
	<line class="st0" x1="127.4" y1="49.3" x2="115.2" y2="14.3"/>
	<line class="st0" x1="119.7" y1="212.9" x2="146.2" y2="211.1"/>
	<line class="st0" x1="179.2" y1="114" x2="157.6" y2="97.1"/>
	<line class="st0" x1="186.9" y1="117" x2="197.6" y2="91"/>
	<line class="st0" x1="167" y1="186.3" x2="193.1" y2="152.9"/>
	<line class="st0" x1="68.4" y1="269.6" x2="94.5" y2="244.6"/>
	<line class="st0" x1="219.2" y1="184" x2="188.1" y2="164.7"/>
	<line class="st0" x1="204.6" y1="160.1" x2="206.9" y2="113.6"/>
	<line class="st0" x1="228.9" y1="140" x2="193.1" y2="152.9"/>
	<line class="st0" x1="171.3" y1="131.1" x2="197.6" y2="91"/>
	<line class="st0" x1="276.5" y1="127.7" x2="308.2" y2="110"/>
	<line class="st0" x1="151.3" y1="148.4" x2="157.6" y2="97.1"/>
	<line class="st0" x1="191.5" y1="223.1" x2="211.5" y2="256.9"/>
	<line class="st0" x1="136.4" y1="179.8" x2="158" y2="161.6"/>
	<line class="st0" x1="172.9" y1="152.2" x2="201.3" y2="150.2"/>
	<line class="st0" x1="90.4" y1="194.4" x2="124.7" y2="173.7"/>
	<line class="st0" x1="159.1" y1="82.2" x2="164.1" y2="121.5"/>
	<line class="st0" x1="154.4" y1="286.6" x2="153.4" y2="249.2"/>
	<line class="st0" x1="86.9" y1="173.7" x2="124.7" y2="173.7"/>
	<line class="st0" x1="108.2" y1="146.8" x2="71.7" y2="130.4"/>
	<line class="st0" x1="82.4" y1="207.6" x2="113.7" y2="174.9"/>
	<line class="st0" x1="152.2" y1="161.2" x2="191.4" y2="144.1"/>
	<line class="st0" x1="169.2" y1="114.8" x2="205.6" y2="117.2"/>
	<line class="st0" x1="152.2" y1="161.2" x2="144.8" y2="192.5"/>
	<line class="st0" x1="171.3" y1="131.1" x2="133.9" y2="102.9"/>
	<line class="st0" x1="196.5" y1="262.7" x2="204.7" y2="298.4"/>
	<line class="st0" x1="161.8" y1="58" x2="157.6" y2="97.1"/>
	<line class="st0" x1="141.1" y1="141.9" x2="107.2" y2="128"/>
	<line class="st0" x1="216.8" y1="189.7" x2="185.5" y2="169.5"/>
	<line class="st0" x1="223.9" y1="133.3" x2="193.1" y2="152.9"/>
	<line class="st0" x1="184.1" y1="124.1" x2="174.8" y2="154.6"/>
	<line class="st0" x1="227.5" y1="172" x2="193.6" y2="159.1"/>
	<line class="st0" x1="204.6" y1="160.1" x2="178.6" y2="158.6"/>
	<line class="st0" x1="155.3" y1="137.3" x2="125.1" y2="109.8"/>
	<line class="st0" x1="210.7" y1="177.8" x2="193.6" y2="159.1"/>
	<line class="st0" x1="105.8" y1="82" x2="133.9" y2="102.9"/>
	<line class="st0" x1="184.3" y1="209.3" x2="143.2" y2="181.9"/>
	<line class="st0" x1="131.4" y1="123.8" x2="146.1" y2="139.7"/>
	<line class="st0" x1="184.1" y1="124.1" x2="214.6" y2="97.8"/>
	<line class="st0" x1="87.7" y1="163.8" x2="124.7" y2="173.7"/>
	<line class="st0" x1="131.4" y1="123.8" x2="157.3" y2="150.3"/>
	<line class="st0" x1="196.4" y1="118.3" x2="197.6" y2="91"/>
	<line class="st0" x1="228.9" y1="140" x2="251.2" y2="166.2"/>
	<line class="st0" x1="163.5" y1="183.1" x2="124.7" y2="173.7"/>
	<line class="st0" x1="163.5" y1="173.9" x2="200.5" y2="141.4"/>
	<line class="st0" x1="224.2" y1="195.1" x2="219.4" y2="213.5"/>
	<line class="st0" x1="126.9" y1="139.3" x2="158" y2="161.6"/>
	<line class="st0" x1="137.1" y1="211.6" x2="124.7" y2="173.7"/>
	<line class="st0" x1="174.5" y1="114.4" x2="188.1" y2="164.7"/>
	<line class="st0" x1="204.6" y1="160.1" x2="188.1" y2="164.7"/>
	<line class="st0" x1="225.3" y1="148.4" x2="220.2" y2="117.1"/>
	<line class="st0" x1="226.3" y1="106.7" x2="254.2" y2="79.9"/>
	<line class="st0" x1="226.3" y1="106.7" x2="206.9" y2="113.6"/>
	<line class="st0" x1="179.2" y1="114" x2="146.1" y2="139.7"/>
	<line class="st0" x1="74.4" y1="185.2" x2="37.2" y2="193.8"/>
	<line class="st0" x1="152.2" y1="161.2" x2="124.7" y2="173.7"/>
	<line class="st0" x1="219.2" y1="184" x2="259.1" y2="184.8"/>
	<line class="st0" x1="219.7" y1="303.1" x2="230.1" y2="335.7"/>
	<line class="st0" x1="136.4" y1="179.8" x2="185.5" y2="169.5"/>
	<line class="st0" x1="136.4" y1="179.8" x2="112.8" y2="212.9"/>
	<line class="st0" x1="121.4" y1="224.4" x2="124.7" y2="173.7"/>
	<line class="st0" x1="108.2" y1="146.8" x2="158" y2="161.6"/>
	<line class="st0" x1="233.1" y1="179.2" x2="194.7" y2="168.6"/>
	<line class="st0" x1="152.2" y1="161.2" x2="178.6" y2="158.6"/>
	<line class="st0" x1="99.6" y1="188.5" x2="117" y2="167.5"/>
	<line class="st0" x1="184.3" y1="209.3" x2="203.1" y2="260.4"/>
	<line class="st0" x1="91.8" y1="189.2" x2="124.7" y2="173.7"/>
	<line class="st0" x1="132.4" y1="149.3" x2="174.8" y2="154.6"/>
	<line class="st0" x1="172.9" y1="152.2" x2="188.1" y2="164.7"/>
	<line class="st0" x1="171.3" y1="131.1" x2="158" y2="161.6"/>
	<line class="st0" x1="141.1" y1="141.9" x2="143.3" y2="95.1"/>
	<line class="st0" x1="152.9" y1="58.5" x2="157.6" y2="97.1"/>
	<line class="st0" x1="173.1" y1="106.4" x2="185.7" y2="150"/>
	<line class="st0" x1="171.3" y1="131.1" x2="201.3" y2="150.2"/>
	<line class="st0" x1="219.2" y1="184" x2="210.1" y2="139.4"/>
	<line class="st0" x1="169.2" y1="114.8" x2="179.1" y2="83.3"/>
	<line class="st0" x1="82.4" y1="207.6" x2="78.5" y2="235"/>
	<line class="st0" x1="152.2" y1="161.2" x2="138.2" y2="115.2"/>
	<line class="st0" x1="75.2" y1="274.9" x2="94.5" y2="244.6"/>
	<line class="st0" x1="159.5" y1="178.2" x2="124.7" y2="173.7"/>
	<line class="st0" x1="163.5" y1="183.1" x2="169.4" y2="139.4"/>
	<line class="st0" x1="163.5" y1="183.1" x2="149.6" y2="219"/>
	<line class="st0" x1="126.9" y1="139.3" x2="174.8" y2="154.6"/>
	<line class="st0" x1="159.5" y1="178.2" x2="146.2" y2="211.1"/>
	<line class="st0" x1="196.4" y1="118.3" x2="169.4" y2="139.4"/>
	<line class="st0" x1="191.5" y1="223.1" x2="218.2" y2="251.7"/>
	<line class="st0" x1="151.3" y1="148.4" x2="180.4" y2="144.8"/>
	<line class="st0" x1="276.5" y1="127.7" x2="311.2" y2="117.2"/>
	<line class="st0" x1="151.3" y1="148.4" x2="124.7" y2="173.7"/>
	<line class="st0" x1="228.9" y1="140" x2="220.2" y2="117.1"/>
	<line class="st0" x1="171.3" y1="131.1" x2="148.9" y2="143.6"/>
	<line class="st0" x1="223.9" y1="133.3" x2="199.5" y2="131"/>
	<line class="st0" x1="216.8" y1="189.7" x2="244.2" y2="218.5"/>
	<line class="st0" x1="141.1" y1="141.9" x2="112.6" y2="123.6"/>
	<line class="st0" x1="171.3" y1="131.1" x2="173.7" y2="93.2"/>
	<line class="st0" x1="196.5" y1="262.7" x2="204.5" y2="213.6"/>
	<line class="st0" x1="119.7" y1="212.9" x2="78.5" y2="235"/>
	<line class="st0" x1="204.6" y1="160.1" x2="200.5" y2="141.4"/>
	<line class="st0" x1="210.7" y1="177.8" x2="215.9" y2="205.3"/>
	<line class="st0" x1="158.7" y1="48.6" x2="156.6" y2="89.3"/>
	<line class="st0" x1="172.9" y1="152.2" x2="164.1" y2="121.5"/>
	<line class="st0" x1="233.8" y1="84.1" x2="206.9" y2="113.6"/>
	<line class="st0" x1="172.9" y1="152.2" x2="193.1" y2="152.9"/>
	<line class="st0" x1="225.3" y1="148.4" x2="243.2" y2="159.4"/>
	<line class="st0" x1="171.3" y1="131.1" x2="143.3" y2="95.1"/>
	<line class="st0" x1="163.5" y1="183.1" x2="155.8" y2="220.7"/>
	<line class="st0" x1="141" y1="248.3" x2="146.2" y2="211.1"/>
	<line class="st0" x1="126.9" y1="139.3" x2="88.7" y2="128.8"/>
	<line class="st0" x1="188.7" y1="189.3" x2="159.4" y2="237.8"/>
	<line class="st0" x1="188.7" y1="189.3" x2="210.9" y2="220.5"/>
	<line class="st0" x1="204.6" y1="160.1" x2="185.5" y2="169.5"/>
	<line class="st0" x1="219.2" y1="184" x2="193.6" y2="159.1"/>
	<line class="st0" x1="167" y1="186.3" x2="149.1" y2="203.2"/>
	<line class="st0" x1="179.2" y1="114" x2="193.1" y2="152.9"/>
	<line class="st0" x1="60.1" y1="107" x2="95.5" y2="122.8"/>
	<line class="st0" x1="137.1" y1="211.6" x2="171.7" y2="223"/>
	<line class="st0" x1="126.9" y1="139.3" x2="124.7" y2="173.7"/>
	<line class="st0" x1="228.9" y1="140" x2="263.3" y2="120.5"/>
	<line class="st0" x1="124.8" y1="64.2" x2="143.3" y2="95.1"/>
	<line class="st0" x1="228.9" y1="140" x2="210.1" y2="139.4"/>
	<line class="st0" x1="108.2" y1="146.8" x2="143.2" y2="181.9"/>
	<line class="st0" x1="121.4" y1="224.4" x2="159.4" y2="237.8"/>
	<line class="st0" x1="152.2" y1="161.2" x2="179.4" y2="175.1"/>
	<line class="st0" x1="136.4" y1="179.8" x2="128.5" y2="222.7"/>
	<line class="st0" x1="136.4" y1="179.8" x2="148.9" y2="143.6"/>
	<line class="st0" x1="152.2" y1="161.2" x2="188.1" y2="164.7"/>
	<line class="st0" x1="219.2" y1="184" x2="253.1" y2="205.2"/>
	<line class="st0" x1="219.7" y1="303.1" x2="203.1" y2="260.4"/>
	<line class="st0" x1="141.1" y1="141.9" x2="188.1" y2="164.7"/>
	<line class="st0" x1="169.2" y1="114.8" x2="157.6" y2="97.1"/>
	<line class="st0" x1="179.2" y1="114" x2="198.2" y2="75"/>
	<line class="st0" x1="173.1" y1="106.4" x2="199.5" y2="131"/>
	<line class="st0" x1="171.3" y1="131.1" x2="206.9" y2="113.6"/>
	<line class="st0" x1="219.2" y1="184" x2="251.2" y2="166.2"/>
	<line class="st0" x1="183.2" y1="134.3" x2="158" y2="161.6"/>
	<line class="st0" x1="171.3" y1="131.1" x2="194.7" y2="168.6"/>
	<line class="st0" x1="216.8" y1="189.7" x2="188.1" y2="164.7"/>
	<line class="st0" x1="141.9" y1="58.7" x2="143.3" y2="95.1"/>
	<line class="st0" x1="132.4" y1="149.3" x2="124.7" y2="173.7"/>
	<line class="st0" x1="132.4" y1="149.3" x2="117" y2="167.5"/>
	<line class="st0" x1="171.3" y1="131.1" x2="188.1" y2="164.7"/>
	<line class="st0" x1="188.7" y1="189.3" x2="219.4" y2="213.5"/>
	<line class="st0" x1="184.3" y1="209.3" x2="191.4" y2="170.5"/>
	<line class="st0" x1="90.2" y1="180.9" x2="124.7" y2="173.7"/>
	<line class="st0" x1="131.4" y1="123.8" x2="156.6" y2="89.3"/>
	<line class="st0" x1="131.4" y1="123.8" x2="108.6" y2="93.3"/>
	<line class="st0" x1="196.4" y1="118.3" x2="220.4" y2="86.2"/>
	<line class="st0" x1="184.3" y1="209.3" x2="199.6" y2="243.3"/>
	<line class="st0" x1="210.7" y1="177.8" x2="194.7" y2="168.6"/>
	<line class="st0" x1="155.3" y1="137.3" x2="210.1" y2="139.4"/>
	<line class="st0" x1="129.3" y1="205" x2="94.5" y2="244.6"/>
	<line class="st0" x1="105.8" y1="82" x2="81.9" y2="52.7"/>
	<line class="st0" x1="204.6" y1="160.1" x2="179.4" y2="175.1"/>
	<line class="st0" x1="184.1" y1="124.1" x2="156.6" y2="89.3"/>
	<line class="st0" x1="186.9" y1="117" x2="169.4" y2="139.4"/>
	<line class="st0" x1="226.3" y1="106.7" x2="210.1" y2="139.4"/>
	<line class="st0" x1="174.5" y1="114.4" x2="157.3" y2="150.3"/>
	<line class="st0" x1="225.3" y1="148.4" x2="185.5" y2="169.5"/>
	<line class="st0" x1="204.6" y1="160.1" x2="193.6" y2="159.1"/>
	<line class="st0" x1="183.2" y1="134.3" x2="205.6" y2="117.2"/>
	<line class="st0" x1="151.3" y1="148.4" x2="113.7" y2="174.9"/>
	<line class="st0" x1="171.3" y1="131.1" x2="185.5" y2="169.5"/>
	<line class="st0" x1="216.8" y1="189.7" x2="193.6" y2="159.1"/>
	<line class="st0" x1="276.5" y1="127.7" x2="218.8" y2="144.8"/>
	<line class="st0" x1="172.9" y1="152.2" x2="199.5" y2="131"/>
	<line class="st0" x1="257.2" y1="136.1" x2="218.8" y2="144.8"/>
	<line class="st0" x1="84.6" y1="169" x2="124.7" y2="173.7"/>
	<line class="st0" x1="172.9" y1="152.2" x2="179.4" y2="175.1"/>
	<line class="st0" x1="191.5" y1="223.1" x2="188.1" y2="164.7"/>
	<line class="st0" x1="119.7" y1="212.9" x2="171.7" y2="223"/>
	<line class="st0" x1="210.7" y1="177.8" x2="241.1" y2="199.7"/>
	<line class="st0" x1="204.6" y1="160.1" x2="204.5" y2="213.6"/>
	<line class="st0" x1="179.2" y1="114" x2="220.2" y2="117.1"/>
	<line class="st0" x1="141" y1="248.3" x2="128.5" y2="222.7"/>
	<line class="st0" x1="179.2" y1="114" x2="143.3" y2="95.1"/>
	<line class="st0" x1="219.2" y1="184" x2="194.7" y2="168.6"/>
	<line class="st0" x1="167" y1="186.3" x2="178" y2="220.3"/>
	<line class="st0" x1="204.6" y1="160.1" x2="210.1" y2="139.4"/>
	<line class="st0" x1="174.5" y1="114.4" x2="180" y2="73.7"/>
	<line class="st0" x1="188.7" y1="189.3" x2="174.8" y2="154.6"/>
	<line class="st0" x1="126.9" y1="139.3" x2="94.9" y2="114.7"/>
	<line class="st0" x1="167" y1="186.3" x2="124.7" y2="173.7"/>
	<line class="st0" x1="225.3" y1="148.4" x2="210.1" y2="139.4"/>
	<line class="st0" x1="159.5" y1="178.2" x2="157.9" y2="211.1"/>
	<line class="st0" x1="126.9" y1="139.3" x2="138.5" y2="103.6"/>
	<line class="st0" x1="196.4" y1="118.3" x2="174.8" y2="154.6"/>
	<line class="st0" x1="188.7" y1="189.3" x2="188.1" y2="164.7"/>
	<line class="st0" x1="163.5" y1="183.1" x2="185.7" y2="150"/>
	<line class="st0" x1="163.5" y1="183.1" x2="158" y2="161.6"/>
	<line class="st0" x1="152.2" y1="161.2" x2="126.9" y2="185.1"/>
	<line class="st0" x1="230.3" y1="165.7" x2="193.6" y2="159.1"/>
	<line class="st0" x1="159.5" y1="178.2" x2="193.6" y2="159.1"/>
	<line class="st0" x1="230.8" y1="158.6" x2="193.6" y2="159.1"/>
	<line class="st0" x1="208.8" y1="54.9" x2="197.6" y2="91"/>
	<line class="st0" x1="141.1" y1="141.9" x2="125.3" y2="124.2"/>
	<line class="st0" x1="171.3" y1="131.1" x2="190.3" y2="98.3"/>
	<line class="st0" x1="196.5" y1="262.7" x2="212.5" y2="294.7"/>
	<line class="st0" x1="111.1" y1="66.1" x2="125.1" y2="109.8"/>
	<line class="st0" x1="171.3" y1="131.1" x2="199.5" y2="131"/>
	<line class="st0" x1="244.5" y1="119.9" x2="210.1" y2="139.4"/>
	<line class="st0" x1="216.8" y1="189.7" x2="249.3" y2="213.5"/>
	<path d="M178,218.4c1.1,0,1.9,0.9,1.9,1.9c0,1.1-0.9,1.9-1.9,1.9s-1.9-0.9-1.9-1.9C176.1,219.3,176.9,218.4,178,218.4L178,218.4z"
		/>
	<path d="M203.1,258.4c1.1,0,1.9,0.9,1.9,1.9c0,1.1-0.9,1.9-1.9,1.9c-1.1,0-1.9-0.9-1.9-1.9C201.2,259.3,202.1,258.4,203.1,258.4
		L203.1,258.4z"/>
	<path d="M83.9,177c1.1,0,1.9,0.9,1.9,1.9c0,1.1-0.9,1.9-1.9,1.9c-1.1,0-1.9-0.9-1.9-1.9C82,177.9,82.9,177,83.9,177L83.9,177z"/>
	<path d="M311.2,115.2c1.1,0,1.9,0.9,1.9,1.9c0,1.1-0.9,1.9-1.9,1.9c-1.1,0-1.9-0.9-1.9-1.9C309.3,116.1,310.1,115.2,311.2,115.2
		L311.2,115.2z"/>
	<path d="M60.1,105c1.1,0,1.9,0.9,1.9,1.9c0,1.1-0.9,1.9-1.9,1.9c-1.1,0-1.9-0.9-1.9-1.9C58.2,105.9,59.1,105,60.1,105L60.1,105z"/>
	<path d="M143.2,180c1.1,0,1.9,0.9,1.9,1.9c0,1.1-0.9,1.9-1.9,1.9c-1.1,0-1.9-0.9-1.9-1.9C141.2,180.9,142.1,180,143.2,180
		L143.2,180z"/>
	<path d="M138.2,113.3c1.1,0,1.9,0.9,1.9,1.9c0,1.1-0.9,1.9-1.9,1.9c-1.1,0-1.9-0.9-1.9-1.9C136.2,114.2,137.1,113.3,138.2,113.3
		L138.2,113.3z"/>
	<path d="M202,222.1c1.1,0,1.9,0.9,1.9,1.9c0,1.1-0.9,1.9-1.9,1.9c-1.1,0-1.9-0.9-1.9-1.9C200.1,223,200.9,222.1,202,222.1
		L202,222.1z"/>
	<path d="M90.7,118.5c1.1,0,1.9,0.9,1.9,1.9c0,1.1-0.9,1.9-1.9,1.9c-1.1,0-1.9-0.9-1.9-1.9C88.7,119.4,89.6,118.5,90.7,118.5
		L90.7,118.5z"/>
	<path d="M173.1,104.4c1.1,0,1.9,0.9,1.9,1.9c0,1.1-0.9,1.9-1.9,1.9c-1.1,0-1.9-0.9-1.9-1.9C171.2,105.3,172,104.4,173.1,104.4
		L173.1,104.4z"/>
	<path d="M167,184.4c1.1,0,1.9,0.9,1.9,1.9c0,1.1-0.9,1.9-1.9,1.9c-1.1,0-1.9-0.9-1.9-1.9C165,185.3,165.9,184.4,167,184.4
		L167,184.4z"/>
	<path d="M162,218.6c1.1,0,1.9,0.9,1.9,1.9c0,1.1-0.9,1.9-1.9,1.9c-1.1,0-1.9-0.9-1.9-1.9C160,219.5,160.9,218.6,162,218.6
		L162,218.6z"/>
	<path d="M164.1,119.5c1.1,0,1.9,0.9,1.9,1.9c0,1.1-0.9,1.9-1.9,1.9c-1.1,0-1.9-0.9-1.9-1.9C162.2,120.4,163.1,119.5,164.1,119.5
		L164.1,119.5z"/>
	<path d="M117,165.6c1.1,0,1.9,0.9,1.9,1.9c0,1.1-0.9,1.9-1.9,1.9c-1.1,0-1.9-0.9-1.9-1.9C115.1,166.5,116,165.6,117,165.6
		L117,165.6z"/>
	<path d="M180.4,142.8c1.1,0,1.9,0.9,1.9,1.9c0,1.1-0.9,1.9-1.9,1.9c-1.1,0-1.9-0.9-1.9-1.9C178.4,143.7,179.3,142.8,180.4,142.8
		L180.4,142.8z"/>
	<path d="M188.7,187.4c1.1,0,1.9,0.9,1.9,1.9c0,1.1-0.9,1.9-1.9,1.9c-1.1,0-1.9-0.9-1.9-1.9C186.8,188.2,187.7,187.4,188.7,187.4
		L188.7,187.4z"/>
	<path d="M159.5,176.2c1.1,0,1.9,0.9,1.9,1.9c0,1.1-0.9,1.9-1.9,1.9c-1.1,0-1.9-0.9-1.9-1.9C157.6,177.1,158.5,176.2,159.5,176.2
		L159.5,176.2z"/>
	<path d="M86.9,171.7c1.1,0,1.9,0.9,1.9,1.9c0,1.1-0.9,1.9-1.9,1.9c-1.1,0-1.9-0.9-1.9-1.9C85,172.6,85.8,171.7,86.9,171.7
		L86.9,171.7z"/>
	<path d="M198.2,73.1c1.1,0,1.9,0.9,1.9,1.9c0,1.1-0.9,1.9-1.9,1.9c-1.1,0-1.9-0.9-1.9-1.9C196.3,73.9,197.2,73.1,198.2,73.1
		L198.2,73.1z"/>
	<path d="M82.4,205.6c1.1,0,1.9,0.9,1.9,1.9c0,1.1-0.9,1.9-1.9,1.9s-1.9-0.9-1.9-1.9C80.5,206.5,81.3,205.6,82.4,205.6L82.4,205.6z"
		/>
	<path d="M153.4,247.2c1.1,0,1.9,0.9,1.9,1.9c0,1.1-0.9,1.9-1.9,1.9c-1.1,0-1.9-0.9-1.9-1.9C151.5,248.1,152.3,247.2,153.4,247.2
		L153.4,247.2z"/>
	<path d="M108.6,91.4c1.1,0,1.9,0.9,1.9,1.9c0,1.1-0.9,1.9-1.9,1.9c-1.1,0-1.9-0.9-1.9-1.9C106.6,92.2,107.5,91.4,108.6,91.4
		L108.6,91.4z"/>
	<path d="M163.5,181.1c1.1,0,1.9,0.9,1.9,1.9c0,1.1-0.9,1.9-1.9,1.9c-1.1,0-1.9-0.9-1.9-1.9C161.6,182,162.4,181.1,163.5,181.1
		L163.5,181.1z"/>
	<path d="M217.5,54.7c1.1,0,1.9,0.9,1.9,1.9c0,1.1-0.9,1.9-1.9,1.9c-1.1,0-1.9-0.9-1.9-1.9C215.6,55.6,216.5,54.7,217.5,54.7
		L217.5,54.7z"/>
	<path d="M108.2,144.9c1.1,0,1.9,0.9,1.9,1.9c0,1.1-0.9,1.9-1.9,1.9c-1.1,0-1.9-0.9-1.9-1.9C106.2,145.7,107.1,144.9,108.2,144.9
		L108.2,144.9z"/>
	<path d="M155.2,274.2c1.1,0,1.9,0.9,1.9,1.9c0,1.1-0.9,1.9-1.9,1.9c-1.1,0-1.9-0.9-1.9-1.9C153.3,275,154.2,274.2,155.2,274.2
		L155.2,274.2z"/>
	<path d="M243.2,157.4c1.1,0,1.9,0.9,1.9,1.9c0,1.1-0.9,1.9-1.9,1.9c-1.1,0-1.9-0.9-1.9-1.9C241.2,158.3,242.1,157.4,243.2,157.4
		L243.2,157.4z"/>
	<path d="M157.6,95.1c1.1,0,1.9,0.9,1.9,1.9c0,1.1-0.9,1.9-1.9,1.9c-1.1,0-1.9-0.9-1.9-1.9C155.6,96,156.5,95.1,157.6,95.1
		L157.6,95.1z"/>
	<path d="M111.1,64.2c1.1,0,1.9,0.9,1.9,1.9c0,1.1-0.9,1.9-1.9,1.9c-1.1,0-1.9-0.9-1.9-1.9C109.2,65.1,110,64.2,111.1,64.2
		L111.1,64.2z"/>
	<path d="M78.5,233c1.1,0,1.9,0.9,1.9,1.9c0,1.1-0.9,1.9-1.9,1.9c-1.1,0-1.9-0.9-1.9-1.9C76.6,233.9,77.5,233,78.5,233L78.5,233z"/>
	<path d="M219.2,182c1.1,0,1.9,0.9,1.9,1.9c0,1.1-0.9,1.9-1.9,1.9c-1.1,0-1.9-0.9-1.9-1.9C217.2,182.9,218.1,182,219.2,182
		L219.2,182z"/>
	<path d="M244.2,216.6c1.1,0,1.9,0.9,1.9,1.9c0,1.1-0.9,1.9-1.9,1.9c-1.1,0-1.9-0.9-1.9-1.9C242.3,217.4,243.1,216.6,244.2,216.6
		L244.2,216.6z"/>
	<path d="M71.7,128.4c1.1,0,1.9,0.9,1.9,1.9c0,1.1-0.9,1.9-1.9,1.9c-1.1,0-1.9-0.9-1.9-1.9C69.7,129.3,70.6,128.4,71.7,128.4
		L71.7,128.4z"/>
	<path d="M213.1,123.6c1.1,0,1.9,0.9,1.9,1.9c0,1.1-0.9,1.9-1.9,1.9c-1.1,0-1.9-0.9-1.9-1.9C211.2,124.5,212.1,123.6,213.1,123.6
		L213.1,123.6z"/>
	<path d="M228.9,138c1.1,0,1.9,0.9,1.9,1.9s-0.9,1.9-1.9,1.9c-1.1,0-1.9-0.9-1.9-1.9S227.8,138,228.9,138L228.9,138z"/>
	<path d="M180,71.7c1.1,0,1.9,0.9,1.9,1.9c0,1.1-0.9,1.9-1.9,1.9c-1.1,0-1.9-0.9-1.9-1.9C178,72.6,178.9,71.7,180,71.7L180,71.7z"/>
	<path d="M124.8,62.2c1.1,0,1.9,0.9,1.9,1.9c0,1.1-0.9,1.9-1.9,1.9s-1.9-0.9-1.9-1.9C122.9,63.1,123.7,62.2,124.8,62.2L124.8,62.2z"
		/>
	<path d="M218.8,142.8c1.1,0,1.9,0.9,1.9,1.9c0,1.1-0.9,1.9-1.9,1.9c-1.1,0-1.9-0.9-1.9-1.9C216.8,143.7,217.7,142.8,218.8,142.8
		L218.8,142.8z"/>
	<path d="M85.8,184.7c1.1,0,1.9,0.9,1.9,1.9c0,1.1-0.9,1.9-1.9,1.9c-1.1,0-1.9-0.9-1.9-1.9C83.8,185.6,84.7,184.7,85.8,184.7
		L85.8,184.7z"/>
	<path d="M206.9,111.7c1.1,0,1.9,0.9,1.9,1.9c0,1.1-0.9,1.9-1.9,1.9c-1.1,0-1.9-0.9-1.9-1.9C205,112.5,205.8,111.7,206.9,111.7
		L206.9,111.7z"/>
	<path d="M95.2,81.3c1.1,0,1.9,0.9,1.9,1.9c0,1.1-0.9,1.9-1.9,1.9c-1.1,0-1.9-0.9-1.9-1.9C93.2,82.2,94.1,81.3,95.2,81.3L95.2,81.3z
		"/>
	<path d="M179.1,81.3c1.1,0,1.9,0.9,1.9,1.9c0,1.1-0.9,1.9-1.9,1.9c-1.1,0-1.9-0.9-1.9-1.9C177.2,82.2,178.1,81.3,179.1,81.3
		L179.1,81.3z"/>
	<path d="M196.4,116.4c1.1,0,1.9,0.9,1.9,1.9c0,1.1-0.9,1.9-1.9,1.9c-1.1,0-1.9-0.9-1.9-1.9C194.5,117.2,195.3,116.4,196.4,116.4
		L196.4,116.4z"/>
	<path d="M159.3,103.8c1.1,0,1.9,0.9,1.9,1.9c0,1.1-0.9,1.9-1.9,1.9c-1.1,0-1.9-0.9-1.9-1.9C157.4,104.7,158.3,103.8,159.3,103.8
		L159.3,103.8z"/>
	<path d="M227.5,170.1c1.1,0,1.9,0.9,1.9,1.9s-0.9,1.9-1.9,1.9c-1.1,0-1.9-0.9-1.9-1.9S226.5,170.1,227.5,170.1L227.5,170.1z"/>
	<path d="M105.1,133.6c1.1,0,1.9,0.9,1.9,1.9c0,1.1-0.9,1.9-1.9,1.9c-1.1,0-1.9-0.9-1.9-1.9C103.1,134.5,104,133.6,105.1,133.6
		L105.1,133.6z"/>
	<path d="M258.2,188.7c1.1,0,1.9,0.9,1.9,1.9c0,1.1-0.9,1.9-1.9,1.9c-1.1,0-1.9-0.9-1.9-1.9C256.3,189.6,257.1,188.7,258.2,188.7
		L258.2,188.7z"/>
	<path d="M112.8,211c1.1,0,1.9,0.9,1.9,1.9c0,1.1-0.9,1.9-1.9,1.9c-1.1,0-1.9-0.9-1.9-1.9C110.9,211.8,111.8,211,112.8,211
		L112.8,211z"/>
	<path d="M220.4,84.3c1.1,0,1.9,0.9,1.9,1.9c0,1.1-0.9,1.9-1.9,1.9c-1.1,0-1.9-0.9-1.9-1.9C218.5,85.2,219.3,84.3,220.4,84.3
		L220.4,84.3z"/>
	<path d="M192.7,244.4c1.1,0,1.9,0.9,1.9,1.9c0,1.1-0.9,1.9-1.9,1.9c-1.1,0-1.9-0.9-1.9-1.9C190.8,245.2,191.6,244.4,192.7,244.4
		L192.7,244.4z"/>
	<path d="M210.7,175.8c1.1,0,1.9,0.9,1.9,1.9c0,1.1-0.9,1.9-1.9,1.9c-1.1,0-1.9-0.9-1.9-1.9C208.8,176.7,209.6,175.8,210.7,175.8
		L210.7,175.8z"/>
	<path d="M230.8,156.6c1.1,0,1.9,0.9,1.9,1.9c0,1.1-0.9,1.9-1.9,1.9c-1.1,0-1.9-0.9-1.9-1.9C228.9,157.5,229.7,156.6,230.8,156.6
		L230.8,156.6z"/>
	<path d="M188.1,162.7c1.1,0,1.9,0.9,1.9,1.9c0,1.1-0.9,1.9-1.9,1.9c-1.1,0-1.9-0.9-1.9-1.9C186.2,163.6,187.1,162.7,188.1,162.7
		L188.1,162.7z"/>
	<path d="M124.7,171.7c1.1,0,1.9,0.9,1.9,1.9c0,1.1-0.9,1.9-1.9,1.9c-1.1,0-1.9-0.9-1.9-1.9C122.8,172.6,123.6,171.7,124.7,171.7
		L124.7,171.7z"/>
	<path d="M259.1,182.9c1.1,0,1.9,0.9,1.9,1.9c0,1.1-0.9,1.9-1.9,1.9c-1.1,0-1.9-0.9-1.9-1.9C257.2,183.7,258,182.9,259.1,182.9
		L259.1,182.9z"/>
	<path d="M185.7,148c1.1,0,1.9,0.9,1.9,1.9c0,1.1-0.9,1.9-1.9,1.9c-1.1,0-1.9-0.9-1.9-1.9C183.7,148.9,184.6,148,185.7,148
		L185.7,148z"/>
	<path d="M233.8,82.2c1.1,0,1.9,0.9,1.9,1.9c0,1.1-0.9,1.9-1.9,1.9c-1.1,0-1.9-0.9-1.9-1.9C231.8,83,232.7,82.2,233.8,82.2
		L233.8,82.2z"/>
	<path d="M144.8,190.5c1.1,0,1.9,0.9,1.9,1.9c0,1.1-0.9,1.9-1.9,1.9c-1.1,0-1.9-0.9-1.9-1.9C142.9,191.4,143.7,190.5,144.8,190.5
		L144.8,190.5z"/>
	<path d="M141.9,56.7c1.1,0,1.9,0.9,1.9,1.9c0,1.1-0.9,1.9-1.9,1.9c-1.1,0-1.9-0.9-1.9-1.9C139.9,57.6,140.8,56.7,141.9,56.7
		L141.9,56.7z"/>
	<path d="M83.9,199c1.1,0,1.9,0.9,1.9,1.9c0,1.1-0.9,1.9-1.9,1.9c-1.1,0-1.9-0.9-1.9-1.9C82,199.9,82.9,199,83.9,199L83.9,199z"/>
	<path d="M138.5,101.7c1.1,0,1.9,0.9,1.9,1.9c0,1.1-0.9,1.9-1.9,1.9c-1.1,0-1.9-0.9-1.9-1.9C136.5,102.5,137.4,101.7,138.5,101.7
		L138.5,101.7z"/>
	<path d="M266.5,127c1.1,0,1.9,0.9,1.9,1.9c0,1.1-0.9,1.9-1.9,1.9c-1.1,0-1.9-0.9-1.9-1.9C264.5,127.9,265.4,127,266.5,127
		L266.5,127z"/>
	<path d="M133.9,101c1.1,0,1.9,0.9,1.9,1.9c0,1.1-0.9,1.9-1.9,1.9c-1.1,0-1.9-0.9-1.9-1.9C132,101.8,132.8,101,133.9,101L133.9,101z
		"/>
	<path d="M94.9,112.8c1.1,0,1.9,0.9,1.9,1.9c0,1.1-0.9,1.9-1.9,1.9c-1.1,0-1.9-0.9-1.9-1.9C92.9,113.7,93.8,112.8,94.9,112.8
		L94.9,112.8z"/>
	<path d="M191.4,168.6c1.1,0,1.9,0.9,1.9,1.9c0,1.1-0.9,1.9-1.9,1.9c-1.1,0-1.9-0.9-1.9-1.9C189.5,169.4,190.3,168.6,191.4,168.6
		L191.4,168.6z"/>
	<path d="M226.3,104.7c1.1,0,1.9,0.9,1.9,1.9c0,1.1-0.9,1.9-1.9,1.9c-1.1,0-1.9-0.9-1.9-1.9C224.4,105.6,225.3,104.7,226.3,104.7
		L226.3,104.7z"/>
	<path d="M84.6,167c1.1,0,1.9,0.9,1.9,1.9s-0.9,1.9-1.9,1.9c-1.1,0-1.9-0.9-1.9-1.9S83.5,167,84.6,167L84.6,167z"/>
	<path d="M249.3,211.6c1.1,0,1.9,0.9,1.9,1.9c0,1.1-0.9,1.9-1.9,1.9c-1.1,0-1.9-0.9-1.9-1.9C247.4,212.4,248.2,211.6,249.3,211.6
		L249.3,211.6z"/>
	<path d="M75.7,57.2c1.1,0,1.9,0.9,1.9,1.9c0,1.1-0.9,1.9-1.9,1.9s-1.9-0.9-1.9-1.9C73.7,58.1,74.6,57.2,75.7,57.2L75.7,57.2z"/>
	<path d="M90.4,192.5c1.1,0,1.9,0.9,1.9,1.9c0,1.1-0.9,1.9-1.9,1.9s-1.9-0.9-1.9-1.9C88.4,193.3,89.3,192.5,90.4,192.5L90.4,192.5z"
		/>
	<path d="M68.4,141.5c1.1,0,1.9,0.9,1.9,1.9c0,1.1-0.9,1.9-1.9,1.9c-1.1,0-1.9-0.9-1.9-1.9C66.5,142.4,67.3,141.5,68.4,141.5
		L68.4,141.5z"/>
	<path d="M263.3,118.5c1.1,0,1.9,0.9,1.9,1.9c0,1.1-0.9,1.9-1.9,1.9c-1.1,0-1.9-0.9-1.9-1.9C261.4,119.4,262.2,118.5,263.3,118.5
		L263.3,118.5z"/>
	<path d="M178.6,156.6c1.1,0,1.9,0.9,1.9,1.9c0,1.1-0.9,1.9-1.9,1.9c-1.1,0-1.9-0.9-1.9-1.9C176.7,157.5,177.6,156.6,178.6,156.6
		L178.6,156.6z"/>
	<path d="M158,159.7c1.1,0,1.9,0.9,1.9,1.9c0,1.1-0.9,1.9-1.9,1.9c-1.1,0-1.9-0.9-1.9-1.9C156.1,160.5,156.9,159.7,158,159.7
		L158,159.7z"/>
	<path d="M63.5,156.7c1.1,0,1.9,0.9,1.9,1.9c0,1.1-0.9,1.9-1.9,1.9s-1.9-0.9-1.9-1.9C61.6,157.6,62.4,156.7,63.5,156.7L63.5,156.7z"
		/>
	<path d="M141.1,140c1.1,0,1.9,0.9,1.9,1.9c0,1.1-0.9,1.9-1.9,1.9c-1.1,0-1.9-0.9-1.9-1.9C139.2,140.8,140.1,140,141.1,140
		L141.1,140z"/>
	<path d="M204.5,211.7c1.1,0,1.9,0.9,1.9,1.9c0,1.1-0.9,1.9-1.9,1.9c-1.1,0-1.9-0.9-1.9-1.9C202.5,212.5,203.4,211.7,204.5,211.7
		L204.5,211.7z"/>
	<path d="M149.1,201.2c1.1,0,1.9,0.9,1.9,1.9c0,1.1-0.9,1.9-1.9,1.9c-1.1,0-1.9-0.9-1.9-1.9C147.2,202.1,148,201.2,149.1,201.2
		L149.1,201.2z"/>
	<path d="M179.2,112.1c1.1,0,1.9,0.9,1.9,1.9c0,1.1-0.9,1.9-1.9,1.9c-1.1,0-1.9-0.9-1.9-1.9C177.3,113,178.2,112.1,179.2,112.1
		L179.2,112.1z"/>
	<path d="M210.9,218.5c1.1,0,1.9,0.9,1.9,1.9c0,1.1-0.9,1.9-1.9,1.9c-1.1,0-1.9-0.9-1.9-1.9C209,219.4,209.8,218.5,210.9,218.5
		L210.9,218.5z"/>
	<path d="M182.8,92.8c1.1,0,1.9,0.9,1.9,1.9c0,1.1-0.9,1.9-1.9,1.9c-1.1,0-1.9-0.9-1.9-1.9C180.9,93.6,181.7,92.8,182.8,92.8
		L182.8,92.8z"/>
	<path d="M161.8,56c1.1,0,1.9,0.9,1.9,1.9c0,1.1-0.9,1.9-1.9,1.9c-1.1,0-1.9-0.9-1.9-1.9C159.8,56.9,160.7,56,161.8,56L161.8,56z"/>
	<path d="M197.6,89.1c1.1,0,1.9,0.9,1.9,1.9c0,1.1-0.9,1.9-1.9,1.9c-1.1,0-1.9-0.9-1.9-1.9C195.7,90,196.6,89.1,197.6,89.1
		L197.6,89.1z"/>
	<path d="M144,284.5c1.1,0,1.9,0.9,1.9,1.9c0,1.1-0.9,1.9-1.9,1.9c-1.1,0-1.9-0.9-1.9-1.9C142.1,285.4,142.9,284.5,144,284.5
		L144,284.5z"/>
	<path d="M156.6,87.4c1.1,0,1.9,0.9,1.9,1.9c0,1.1-0.9,1.9-1.9,1.9c-1.1,0-1.9-0.9-1.9-1.9C154.6,88.2,155.5,87.4,156.6,87.4
		L156.6,87.4z"/>
	<path d="M215.9,203.4c1.1,0,1.9,0.9,1.9,1.9c0,1.1-0.9,1.9-1.9,1.9c-1.1,0-1.9-0.9-1.9-1.9C214,204.3,214.8,203.4,215.9,203.4
		L215.9,203.4z"/>
	<path d="M105.8,80c1.1,0,1.9,0.9,1.9,1.9c0,1.1-0.9,1.9-1.9,1.9c-1.1,0-1.9-0.9-1.9-1.9C103.9,80.9,104.7,80,105.8,80L105.8,80z"/>
	<path d="M193.6,157.1c1.1,0,1.9,0.9,1.9,1.9c0,1.1-0.9,1.9-1.9,1.9c-1.1,0-1.9-0.9-1.9-1.9C191.7,158,192.6,157.1,193.6,157.1
		L193.6,157.1z"/>
	<path d="M169.4,137.4c1.1,0,1.9,0.9,1.9,1.9c0,1.1-0.9,1.9-1.9,1.9c-1.1,0-1.9-0.9-1.9-1.9C167.5,138.3,168.4,137.4,169.4,137.4
		L169.4,137.4z"/>
	<path d="M212.5,292.8c1.1,0,1.9,0.9,1.9,1.9c0,1.1-0.9,1.9-1.9,1.9c-1.1,0-1.9-0.9-1.9-1.9C210.6,293.6,211.5,292.8,212.5,292.8
		L212.5,292.8z"/>
	<path d="M191.5,221.2c1.1,0,1.9,0.9,1.9,1.9c0,1.1-0.9,1.9-1.9,1.9c-1.1,0-1.9-0.9-1.9-1.9C189.6,222,190.4,221.2,191.5,221.2
		L191.5,221.2z"/>
	<path d="M197,297.5c1.1,0,1.9,0.9,1.9,1.9c0,1.1-0.9,1.9-1.9,1.9c-1.1,0-1.9-0.9-1.9-1.9C195.1,298.3,195.9,297.5,197,297.5
		L197,297.5z"/>
	<path d="M95.5,120.9c1.1,0,1.9,0.9,1.9,1.9c0,1.1-0.9,1.9-1.9,1.9c-1.1,0-1.9-0.9-1.9-1.9C93.5,121.7,94.4,120.9,95.5,120.9
		L95.5,120.9z"/>
	<path d="M74.4,183.3c1.1,0,1.9,0.9,1.9,1.9c0,1.1-0.9,1.9-1.9,1.9s-1.9-0.9-1.9-1.9C72.5,184.1,73.4,183.3,74.4,183.3L74.4,183.3z"
		/>
	<path d="M251.2,164.3c1.1,0,1.9,0.9,1.9,1.9c0,1.1-0.9,1.9-1.9,1.9c-1.1,0-1.9-0.9-1.9-1.9C249.3,165.1,250.2,164.3,251.2,164.3
		L251.2,164.3z"/>
	<path d="M108.7,111.6c1.1,0,1.9,0.9,1.9,1.9c0,1.1-0.9,1.9-1.9,1.9c-1.1,0-1.9-0.9-1.9-1.9C106.7,112.4,107.6,111.6,108.7,111.6
		L108.7,111.6z"/>
	<path d="M187.9,74c1.1,0,1.9,0.9,1.9,1.9c0,1.1-0.9,1.9-1.9,1.9c-1.1,0-1.9-0.9-1.9-1.9C186,74.9,186.8,74,187.9,74L187.9,74z"/>
	<path d="M91.8,187.3c1.1,0,1.9,0.9,1.9,1.9c0,1.1-0.9,1.9-1.9,1.9c-1.1,0-1.9-0.9-1.9-1.9C89.9,188.1,90.7,187.3,91.8,187.3
		L91.8,187.3z"/>
	<path d="M152.9,56.5c1.1,0,1.9,0.9,1.9,1.9s-0.9,1.9-1.9,1.9c-1.1,0-1.9-0.9-1.9-1.9S151.8,56.5,152.9,56.5L152.9,56.5z"/>
	<path d="M75.2,272.9c1.1,0,1.9,0.9,1.9,1.9c0,1.1-0.9,1.9-1.9,1.9c-1.1,0-1.9-0.9-1.9-1.9C73.2,273.8,74.1,272.9,75.2,272.9
		L75.2,272.9z"/>
	<path d="M191.4,142.1c1.1,0,1.9,0.9,1.9,1.9c0,1.1-0.9,1.9-1.9,1.9c-1.1,0-1.9-0.9-1.9-1.9C189.5,143,190.3,142.1,191.4,142.1
		L191.4,142.1z"/>
	<path d="M199.5,129c1.1,0,1.9,0.9,1.9,1.9c0,1.1-0.9,1.9-1.9,1.9c-1.1,0-1.9-0.9-1.9-1.9C197.5,129.9,198.4,129,199.5,129
		L199.5,129z"/>
	<path d="M312.8,123c1.1,0,1.9,0.9,1.9,1.9c0,1.1-0.9,1.9-1.9,1.9c-1.1,0-1.9-0.9-1.9-1.9C310.9,123.9,311.8,123,312.8,123
		L312.8,123z"/>
	<path d="M224.2,193.2c1.1,0,1.9,0.9,1.9,1.9c0,1.1-0.9,1.9-1.9,1.9c-1.1,0-1.9-0.9-1.9-1.9C222.2,194,223.1,193.2,224.2,193.2
		L224.2,193.2z"/>
	<path d="M199.6,241.4c1.1,0,1.9,0.9,1.9,1.9c0,1.1-0.9,1.9-1.9,1.9c-1.1,0-1.9-0.9-1.9-1.9C197.6,242.3,198.5,241.4,199.6,241.4
		L199.6,241.4z"/>
	<path d="M206.9,238.1c1.1,0,1.9,0.9,1.9,1.9c0,1.1-0.9,1.9-1.9,1.9c-1.1,0-1.9-0.9-1.9-1.9C205,239,205.8,238.1,206.9,238.1
		L206.9,238.1z"/>
	<path d="M225.3,146.5c1.1,0,1.9,0.9,1.9,1.9c0,1.1-0.9,1.9-1.9,1.9c-1.1,0-1.9-0.9-1.9-1.9C223.4,147.4,224.2,146.5,225.3,146.5
		L225.3,146.5z"/>
	<path d="M233.1,177.2c1.1,0,1.9,0.9,1.9,1.9c0,1.1-0.9,1.9-1.9,1.9c-1.1,0-1.9-0.9-1.9-1.9C231.1,178.1,232,177.2,233.1,177.2
		L233.1,177.2z"/>
	<path d="M89.7,33.5c1.1,0,1.9,0.9,1.9,1.9c0,1.1-0.9,1.9-1.9,1.9c-1.1,0-1.9-0.9-1.9-1.9C87.7,34.4,88.6,33.5,89.7,33.5L89.7,33.5z
		"/>
	<path d="M126.9,183.2c1.1,0,1.9,0.9,1.9,1.9c0,1.1-0.9,1.9-1.9,1.9c-1.1,0-1.9-0.9-1.9-1.9C125,184,125.9,183.2,126.9,183.2
		L126.9,183.2z"/>
	<path d="M133.5,21.3c1.1,0,1.9,0.9,1.9,1.9s-0.9,1.9-1.9,1.9c-1.1,0-1.9-0.9-1.9-1.9S132.4,21.3,133.5,21.3L133.5,21.3z"/>
	<path d="M204.6,158.1c1.1,0,1.9,0.9,1.9,1.9c0,1.1-0.9,1.9-1.9,1.9c-1.1,0-1.9-0.9-1.9-1.9C202.6,159,203.5,158.1,204.6,158.1
		L204.6,158.1z"/>
	<path d="M171.7,221.1c1.1,0,1.9,0.9,1.9,1.9c0,1.1-0.9,1.9-1.9,1.9c-1.1,0-1.9-0.9-1.9-1.9C169.7,221.9,170.6,221.1,171.7,221.1
		L171.7,221.1z"/>
	<path d="M220.2,115.1c1.1,0,1.9,0.9,1.9,1.9c0,1.1-0.9,1.9-1.9,1.9c-1.1,0-1.9-0.9-1.9-1.9C218.3,116,219.1,115.1,220.2,115.1
		L220.2,115.1z"/>
	<path d="M148.9,141.7c1.1,0,1.9,0.9,1.9,1.9c0,1.1-0.9,1.9-1.9,1.9c-1.1,0-1.9-0.9-1.9-1.9C147,142.6,147.8,141.7,148.9,141.7
		L148.9,141.7z"/>
	<path d="M190.3,96.4c1.1,0,1.9,0.9,1.9,1.9c0,1.1-0.9,1.9-1.9,1.9c-1.1,0-1.9-0.9-1.9-1.9C188.3,97.2,189.2,96.4,190.3,96.4
		L190.3,96.4z"/>
	<path d="M37.2,191.9c1.1,0,1.9,0.9,1.9,1.9c0,1.1-0.9,1.9-1.9,1.9c-1.1,0-1.9-0.9-1.9-1.9C35.2,192.7,36.1,191.9,37.2,191.9
		L37.2,191.9z"/>
	<path d="M183.2,132.4c1.1,0,1.9,0.9,1.9,1.9c0,1.1-0.9,1.9-1.9,1.9c-1.1,0-1.9-0.9-1.9-1.9C181.3,133.3,182.1,132.4,183.2,132.4
		L183.2,132.4z"/>
	<path d="M149.6,217.1c1.1,0,1.9,0.9,1.9,1.9c0,1.1-0.9,1.9-1.9,1.9c-1.1,0-1.9-0.9-1.9-1.9C147.7,217.9,148.5,217.1,149.6,217.1
		L149.6,217.1z"/>
	<path d="M68.4,267.6c1.1,0,1.9,0.9,1.9,1.9c0,1.1-0.9,1.9-1.9,1.9c-1.1,0-1.9-0.9-1.9-1.9C66.5,268.5,67.3,267.6,68.4,267.6
		L68.4,267.6z"/>
	<path d="M90.2,179c1.1,0,1.9,0.9,1.9,1.9c0,1.1-0.9,1.9-1.9,1.9c-1.1,0-1.9-0.9-1.9-1.9C88.2,179.9,89.1,179,90.2,179L90.2,179z"/>
	<path d="M129.3,203.1c1.1,0,1.9,0.9,1.9,1.9c0,1.1-0.9,1.9-1.9,1.9c-1.1,0-1.9-0.9-1.9-1.9C127.4,204,128.2,203.1,129.3,203.1
		L129.3,203.1z"/>
	<path d="M211.5,255c1.1,0,1.9,0.9,1.9,1.9c0,1.1-0.9,1.9-1.9,1.9c-1.1,0-1.9-0.9-1.9-1.9C209.6,255.8,210.4,255,211.5,255
		L211.5,255z"/>
	<path d="M141,246.4c1.1,0,1.9,0.9,1.9,1.9c0,1.1-0.9,1.9-1.9,1.9c-1.1,0-1.9-0.9-1.9-1.9C139.1,247.3,140,246.4,141,246.4
		L141,246.4z"/>
	<path d="M256.2,197.2c1.1,0,1.9,0.9,1.9,1.9c0,1.1-0.9,1.9-1.9,1.9c-1.1,0-1.9-0.9-1.9-1.9C254.3,198,255.2,197.2,256.2,197.2
		L256.2,197.2z"/>
	<path d="M121.4,222.5c1.1,0,1.9,0.9,1.9,1.9c0,1.1-0.9,1.9-1.9,1.9s-1.9-0.9-1.9-1.9C119.5,223.4,120.4,222.5,121.4,222.5
		L121.4,222.5z"/>
	<path d="M265.4,143.8c1.1,0,1.9,0.9,1.9,1.9c0,1.1-0.9,1.9-1.9,1.9c-1.1,0-1.9-0.9-1.9-1.9C263.5,144.7,264.4,143.8,265.4,143.8
		L265.4,143.8z"/>
	<path d="M254.2,78c1.1,0,1.9,0.9,1.9,1.9c0,1.1-0.9,1.9-1.9,1.9c-1.1,0-1.9-0.9-1.9-1.9C252.3,78.8,253.1,78,254.2,78L254.2,78z"/>
	<path d="M186.9,115c1.1,0,1.9,0.9,1.9,1.9c0,1.1-0.9,1.9-1.9,1.9c-1.1,0-1.9-0.9-1.9-1.9C185,115.9,185.8,115,186.9,115L186.9,115z
		"/>
	<path d="M204.7,296.4c1.1,0,1.9,0.9,1.9,1.9c0,1.1-0.9,1.9-1.9,1.9c-1.1,0-1.9-0.9-1.9-1.9C202.7,297.3,203.6,296.4,204.7,296.4
		L204.7,296.4z"/>
	<path d="M107.2,126.1c1.1,0,1.9,0.9,1.9,1.9c0,1.1-0.9,1.9-1.9,1.9s-1.9-0.9-1.9-1.9C105.3,126.9,106.2,126.1,107.2,126.1
		L107.2,126.1z"/>
	<path d="M253.1,203.3c1.1,0,1.9,0.9,1.9,1.9c0,1.1-0.9,1.9-1.9,1.9c-1.1,0-1.9-0.9-1.9-1.9C251.1,204.2,252,203.3,253.1,203.3
		L253.1,203.3z"/>
	<path d="M172.9,150.3c1.1,0,1.9,0.9,1.9,1.9c0,1.1-0.9,1.9-1.9,1.9c-1.1,0-1.9-0.9-1.9-1.9C171,151.2,171.8,150.3,172.9,150.3
		L172.9,150.3z"/>
	<path d="M137.1,209.6c1.1,0,1.9,0.9,1.9,1.9c0,1.1-0.9,1.9-1.9,1.9c-1.1,0-1.9-0.9-1.9-1.9C135.1,210.5,136,209.6,137.1,209.6
		L137.1,209.6z"/>
	<path d="M194.7,166.6c1.1,0,1.9,0.9,1.9,1.9c0,1.1-0.9,1.9-1.9,1.9c-1.1,0-1.9-0.9-1.9-1.9C192.7,167.5,193.6,166.6,194.7,166.6
		L194.7,166.6z"/>
	<path d="M136.4,177.9c1.1,0,1.9,0.9,1.9,1.9c0,1.1-0.9,1.9-1.9,1.9c-1.1,0-1.9-0.9-1.9-1.9C134.5,178.7,135.4,177.9,136.4,177.9
		L136.4,177.9z"/>
	<path d="M193.1,151c1.1,0,1.9,0.9,1.9,1.9c0,1.1-0.9,1.9-1.9,1.9c-1.1,0-1.9-0.9-1.9-1.9C191.2,151.9,192.1,151,193.1,151
		L193.1,151z"/>
	<path d="M157.9,209.1c1.1,0,1.9,0.9,1.9,1.9c0,1.1-0.9,1.9-1.9,1.9c-1.1,0-1.9-0.9-1.9-1.9C156,210,156.8,209.1,157.9,209.1
		L157.9,209.1z"/>
	<path d="M152.2,159.3c1.1,0,1.9,0.9,1.9,1.9c0,1.1-0.9,1.9-1.9,1.9c-1.1,0-1.9-0.9-1.9-1.9C150.2,160.1,151.1,159.3,152.2,159.3
		L152.2,159.3z"/>
	<path d="M200.5,139.5c1.1,0,1.9,0.9,1.9,1.9c0,1.1-0.9,1.9-1.9,1.9c-1.1,0-1.9-0.9-1.9-1.9C198.5,140.3,199.4,139.5,200.5,139.5
		L200.5,139.5z"/>
	<path d="M214.6,95.8c1.1,0,1.9,0.9,1.9,1.9s-0.9,1.9-1.9,1.9s-1.9-0.9-1.9-1.9S213.5,95.8,214.6,95.8L214.6,95.8z"/>
	<path d="M155.3,135.4c1.1,0,1.9,0.9,1.9,1.9c0,1.1-0.9,1.9-1.9,1.9c-1.1,0-1.9-0.9-1.9-1.9C153.4,136.2,154.3,135.4,155.3,135.4
		L155.3,135.4z"/>
	<path d="M131.4,121.9c1.1,0,1.9,0.9,1.9,1.9s-0.9,1.9-1.9,1.9c-1.1,0-1.9-0.9-1.9-1.9S130.4,121.9,131.4,121.9L131.4,121.9z"/>
	<path d="M101,254.7c1.1,0,1.9,0.9,1.9,1.9c0,1.1-0.9,1.9-1.9,1.9c-1.1,0-1.9-0.9-1.9-1.9C99.1,255.5,99.9,254.7,101,254.7
		L101,254.7z"/>
	<path d="M157.3,148.3c1.1,0,1.9,0.9,1.9,1.9c0,1.1-0.9,1.9-1.9,1.9c-1.1,0-1.9-0.9-1.9-1.9C155.3,149.2,156.2,148.3,157.3,148.3
		L157.3,148.3z"/>
	<path d="M132.4,147.3c1.1,0,1.9,0.9,1.9,1.9c0,1.1-0.9,1.9-1.9,1.9c-1.1,0-1.9-0.9-1.9-1.9C130.4,148.2,131.3,147.3,132.4,147.3
		L132.4,147.3z"/>
	<path d="M69.2,135.3c1.1,0,1.9,0.9,1.9,1.9c0,1.1-0.9,1.9-1.9,1.9s-1.9-0.9-1.9-1.9C67.3,136.1,68.2,135.3,69.2,135.3L69.2,135.3z"
		/>
	<path d="M104.7,162.6c1.1,0,1.9,0.9,1.9,1.9c0,1.1-0.9,1.9-1.9,1.9c-1.1,0-1.9-0.9-1.9-1.9C102.7,163.5,103.6,162.6,104.7,162.6
		L104.7,162.6z"/>
	<path d="M216.8,187.8c1.1,0,1.9,0.9,1.9,1.9c0,1.1-0.9,1.9-1.9,1.9s-1.9-0.9-1.9-1.9C214.9,188.6,215.8,187.8,216.8,187.8
		L216.8,187.8z"/>
	<path d="M154.4,284.7c1.1,0,1.9,0.9,1.9,1.9c0,1.1-0.9,1.9-1.9,1.9c-1.1,0-1.9-0.9-1.9-1.9C152.5,285.6,153.3,284.7,154.4,284.7
		L154.4,284.7z"/>
	<path d="M135,188.9c1.1,0,1.9,0.9,1.9,1.9c0,1.1-0.9,1.9-1.9,1.9c-1.1,0-1.9-0.9-1.9-1.9C133.1,189.8,133.9,188.9,135,188.9
		L135,188.9z"/>
	<path d="M125.3,122.3c1.1,0,1.9,0.9,1.9,1.9c0,1.1-0.9,1.9-1.9,1.9c-1.1,0-1.9-0.9-1.9-1.9C123.4,123.2,124.2,122.3,125.3,122.3
		L125.3,122.3z"/>
	<path d="M113.7,173c1.1,0,1.9,0.9,1.9,1.9c0,1.1-0.9,1.9-1.9,1.9s-1.9-0.9-1.9-1.9C111.7,173.8,112.6,173,113.7,173L113.7,173z"/>
	<path d="M143.3,93.2c1.1,0,1.9,0.9,1.9,1.9c0,1.1-0.9,1.9-1.9,1.9c-1.1,0-1.9-0.9-1.9-1.9C141.3,94.1,142.2,93.2,143.3,93.2
		L143.3,93.2z"/>
	<path d="M88.7,126.9c1.1,0,1.9,0.9,1.9,1.9c0,1.1-0.9,1.9-1.9,1.9c-1.1,0-1.9-0.9-1.9-1.9C86.8,127.8,87.7,126.9,88.7,126.9
		L88.7,126.9z"/>
	<path d="M257.2,134.1c1.1,0,1.9,0.9,1.9,1.9c0,1.1-0.9,1.9-1.9,1.9c-1.1,0-1.9-0.9-1.9-1.9C255.2,135,256.1,134.1,257.2,134.1
		L257.2,134.1z"/>
	<path d="M144.3,70.9c1.1,0,1.9,0.9,1.9,1.9c0,1.1-0.9,1.9-1.9,1.9c-1.1,0-1.9-0.9-1.9-1.9C142.4,71.8,143.2,70.9,144.3,70.9
		L144.3,70.9z"/>
	<path d="M146.1,137.7c1.1,0,1.9,0.9,1.9,1.9c0,1.1-0.9,1.9-1.9,1.9c-1.1,0-1.9-0.9-1.9-1.9C144.2,138.6,145.1,137.7,146.1,137.7
		L146.1,137.7z"/>
	<path d="M101.5,96.3c1.1,0,1.9,0.9,1.9,1.9c0,1.1-0.9,1.9-1.9,1.9s-1.9-0.9-1.9-1.9C99.6,97.1,100.4,96.3,101.5,96.3L101.5,96.3z"
		/>
	<path d="M241.1,197.8c1.1,0,1.9,0.9,1.9,1.9c0,1.1-0.9,1.9-1.9,1.9c-1.1,0-1.9-0.9-1.9-1.9C239.2,198.6,240.1,197.8,241.1,197.8
		L241.1,197.8z"/>
	<path d="M145.8,271.8c1.1,0,1.9,0.9,1.9,1.9c0,1.1-0.9,1.9-1.9,1.9c-1.1,0-1.9-0.9-1.9-1.9C143.9,272.7,144.8,271.8,145.8,271.8
		L145.8,271.8z"/>
	<path d="M126.9,137.3c1.1,0,1.9,0.9,1.9,1.9c0,1.1-0.9,1.9-1.9,1.9c-1.1,0-1.9-0.9-1.9-1.9C125,138.2,125.9,137.3,126.9,137.3
		L126.9,137.3z"/>
	<path d="M50.2,256.2c1.1,0,1.9,0.9,1.9,1.9c0,1.1-0.9,1.9-1.9,1.9c-1.1,0-1.9-0.9-1.9-1.9C48.3,257.1,49.2,256.2,50.2,256.2
		L50.2,256.2z"/>
	<path d="M308.2,108.1c1.1,0,1.9,0.9,1.9,1.9c0,1.1-0.9,1.9-1.9,1.9c-1.1,0-1.9-0.9-1.9-1.9C306.3,109,307.2,108.1,308.2,108.1
		L308.2,108.1z"/>
	<path d="M179.4,173.2c1.1,0,1.9,0.9,1.9,1.9c0,1.1-0.9,1.9-1.9,1.9c-1.1,0-1.9-0.9-1.9-1.9C177.5,174,178.4,173.2,179.4,173.2
		L179.4,173.2z"/>
	<path d="M159.4,235.9c1.1,0,1.9,0.9,1.9,1.9c0,1.1-0.9,1.9-1.9,1.9c-1.1,0-1.9-0.9-1.9-1.9C157.5,236.7,158.4,235.9,159.4,235.9
		L159.4,235.9z"/>
	<path d="M218.2,249.8c1.1,0,1.9,0.9,1.9,1.9c0,1.1-0.9,1.9-1.9,1.9c-1.1,0-1.9-0.9-1.9-1.9C216.2,250.6,217.1,249.8,218.2,249.8
		L218.2,249.8z"/>
	<path d="M276.5,125.8c1.1,0,1.9,0.9,1.9,1.9c0,1.1-0.9,1.9-1.9,1.9c-1.1,0-1.9-0.9-1.9-1.9C274.5,126.6,275.4,125.8,276.5,125.8
		L276.5,125.8z"/>
	<path d="M126.3,281.3c1.1,0,1.9,0.9,1.9,1.9c0,1.1-0.9,1.9-1.9,1.9c-1.1,0-1.9-0.9-1.9-1.9C124.4,282.2,125.3,281.3,126.3,281.3
		L126.3,281.3z"/>
	<path d="M230.1,333.7c1.1,0,1.9,0.9,1.9,1.9c0,1.1-0.9,1.9-1.9,1.9c-1.1,0-1.9-0.9-1.9-1.9C228.2,334.6,229,333.7,230.1,333.7
		L230.1,333.7z"/>
	<path d="M125.1,107.9c1.1,0,1.9,0.9,1.9,1.9c0,1.1-0.9,1.9-1.9,1.9c-1.1,0-1.9-0.9-1.9-1.9C123.2,108.8,124,107.9,125.1,107.9
		L125.1,107.9z"/>
	<path d="M87.7,161.8c1.1,0,1.9,0.9,1.9,1.9c0,1.1-0.9,1.9-1.9,1.9c-1.1,0-1.9-0.9-1.9-1.9C85.8,162.7,86.7,161.8,87.7,161.8
		L87.7,161.8z"/>
	<path d="M108.9,149c1.1,0,1.9,0.9,1.9,1.9c0,1.1-0.9,1.9-1.9,1.9c-1.1,0-1.9-0.9-1.9-1.9C106.9,149.8,107.8,149,108.9,149
		L108.9,149z"/>
	<path d="M108.8,204.4c1.1,0,1.9,0.9,1.9,1.9c0,1.1-0.9,1.9-1.9,1.9c-1.1,0-1.9-0.9-1.9-1.9C106.8,205.3,107.7,204.4,108.8,204.4
		L108.8,204.4z"/>
	<path d="M208.8,52.9c1.1,0,1.9,0.9,1.9,1.9c0,1.1-0.9,1.9-1.9,1.9c-1.1,0-1.9-0.9-1.9-1.9C206.8,53.8,207.7,52.9,208.8,52.9
		L208.8,52.9z"/>
	<path d="M210.1,137.4c1.1,0,1.9,0.9,1.9,1.9c0,1.1-0.9,1.9-1.9,1.9c-1.1,0-1.9-0.9-1.9-1.9C208.1,138.3,209,137.4,210.1,137.4
		L210.1,137.4z"/>
	<path d="M205.6,115.2c1.1,0,1.9,0.9,1.9,1.9c0,1.1-0.9,1.9-1.9,1.9c-1.1,0-1.9-0.9-1.9-1.9C203.7,116.1,204.5,115.2,205.6,115.2
		L205.6,115.2z"/>
	<path d="M173.7,91.2c1.1,0,1.9,0.9,1.9,1.9c0,1.1-0.9,1.9-1.9,1.9c-1.1,0-1.9-0.9-1.9-1.9C171.8,92.1,172.7,91.2,173.7,91.2
		L173.7,91.2z"/>
	<path d="M112.6,121.7c1.1,0,1.9,0.9,1.9,1.9c0,1.1-0.9,1.9-1.9,1.9c-1.1,0-1.9-0.9-1.9-1.9C110.7,122.6,111.6,121.7,112.6,121.7
		L112.6,121.7z"/>
	<path d="M127.4,47.3c1.1,0,1.9,0.9,1.9,1.9c0,1.1-0.9,1.9-1.9,1.9c-1.1,0-1.9-0.9-1.9-1.9C125.4,48.2,126.3,47.3,127.4,47.3
		L127.4,47.3z"/>
	<path d="M163.5,171.9c1.1,0,1.9,0.9,1.9,1.9c0,1.1-0.9,1.9-1.9,1.9c-1.1,0-1.9-0.9-1.9-1.9C161.6,172.8,162.4,171.9,163.5,171.9
		L163.5,171.9z"/>
	<path d="M174.5,112.5c1.1,0,1.9,0.9,1.9,1.9s-0.9,1.9-1.9,1.9c-1.1,0-1.9-0.9-1.9-1.9S173.5,112.5,174.5,112.5L174.5,112.5z"/>
	<path d="M174.8,152.6c1.1,0,1.9,0.9,1.9,1.9c0,1.1-0.9,1.9-1.9,1.9c-1.1,0-1.9-0.9-1.9-1.9C172.9,153.5,173.8,152.6,174.8,152.6
		L174.8,152.6z"/>
	<path d="M230.3,163.8c1.1,0,1.9,0.9,1.9,1.9c0,1.1-0.9,1.9-1.9,1.9c-1.1,0-1.9-0.9-1.9-1.9C228.4,164.6,229.2,163.8,230.3,163.8
		L230.3,163.8z"/>
	<path d="M184.1,122.2c1.1,0,1.9,0.9,1.9,1.9c0,1.1-0.9,1.9-1.9,1.9c-1.1,0-1.9-0.9-1.9-1.9C182.2,123.1,183.1,122.2,184.1,122.2
		L184.1,122.2z"/>
	<path d="M119.7,211c1.1,0,1.9,0.9,1.9,1.9c0,1.1-0.9,1.9-1.9,1.9c-1.1,0-1.9-0.9-1.9-1.9C117.8,211.8,118.6,211,119.7,211
		L119.7,211z"/>
	<path d="M158.7,46.6c1.1,0,1.9,0.9,1.9,1.9s-0.9,1.9-1.9,1.9c-1.1,0-1.9-0.9-1.9-1.9S157.6,46.6,158.7,46.6L158.7,46.6z"/>
	<path d="M151.3,146.5c1.1,0,1.9,0.9,1.9,1.9c0,1.1-0.9,1.9-1.9,1.9c-1.1,0-1.9-0.9-1.9-1.9C149.3,147.4,150.2,146.5,151.3,146.5
		L151.3,146.5z"/>
	<path d="M146.2,209.1c1.1,0,1.9,0.9,1.9,1.9c0,1.1-0.9,1.9-1.9,1.9c-1.1,0-1.9-0.9-1.9-1.9C144.3,210,145.2,209.1,146.2,209.1
		L146.2,209.1z"/>
	<path d="M184.3,207.4c1.1,0,1.9,0.9,1.9,1.9c0,1.1-0.9,1.9-1.9,1.9c-1.1,0-1.9-0.9-1.9-1.9C182.4,208.2,183.3,207.4,184.3,207.4
		L184.3,207.4z"/>
	<path d="M159.1,80.2c1.1,0,1.9,0.9,1.9,1.9c0,1.1-0.9,1.9-1.9,1.9c-1.1,0-1.9-0.9-1.9-1.9C157.2,81.1,158,80.2,159.1,80.2
		L159.1,80.2z"/>
	<path d="M258.4,193.7c1.1,0,1.9,0.9,1.9,1.9c0,1.1-0.9,1.9-1.9,1.9c-1.1,0-1.9-0.9-1.9-1.9C256.5,194.6,257.3,193.7,258.4,193.7
		L258.4,193.7z"/>
	<path d="M115.2,12.4c1.1,0,1.9,0.9,1.9,1.9c0,1.1-0.9,1.9-1.9,1.9c-1.1,0-1.9-0.9-1.9-1.9C113.3,13.3,114.1,12.4,115.2,12.4
		L115.2,12.4z"/>
	<path d="M97,198.4c1.1,0,1.9,0.9,1.9,1.9c0,1.1-0.9,1.9-1.9,1.9c-1.1,0-1.9-0.9-1.9-1.9C95.1,199.3,95.9,198.4,97,198.4L97,198.4z"
		/>
	<path d="M94.5,242.6c1.1,0,1.9,0.9,1.9,1.9c0,1.1-0.9,1.9-1.9,1.9c-1.1,0-1.9-0.9-1.9-1.9C92.5,243.5,93.4,242.6,94.5,242.6
		L94.5,242.6z"/>
	<path d="M185.2,245.3c1.1,0,1.9,0.9,1.9,1.9c0,1.1-0.9,1.9-1.9,1.9c-1.1,0-1.9-0.9-1.9-1.9C183.2,246.1,184.1,245.3,185.2,245.3
		L185.2,245.3z"/>
	<path d="M155.8,218.7c1.1,0,1.9,0.9,1.9,1.9c0,1.1-0.9,1.9-1.9,1.9c-1.1,0-1.9-0.9-1.9-1.9C153.9,219.6,154.8,218.7,155.8,218.7
		L155.8,218.7z"/>
	<path d="M219.7,301.1c1.1,0,1.9,0.9,1.9,1.9c0,1.1-0.9,1.9-1.9,1.9c-1.1,0-1.9-0.9-1.9-1.9C217.7,302,218.6,301.1,219.7,301.1
		L219.7,301.1z"/>
	<path d="M223.9,131.4c1.1,0,1.9,0.9,1.9,1.9c0,1.1-0.9,1.9-1.9,1.9c-1.1,0-1.9-0.9-1.9-1.9C221.9,132.3,222.8,131.4,223.9,131.4
		L223.9,131.4z"/>
	<path d="M128.5,220.8c1.1,0,1.9,0.9,1.9,1.9c0,1.1-0.9,1.9-1.9,1.9c-1.1,0-1.9-0.9-1.9-1.9C126.5,221.6,127.4,220.8,128.5,220.8
		L128.5,220.8z"/>
	<path d="M144.2,117.6c1.1,0,1.9,0.9,1.9,1.9c0,1.1-0.9,1.9-1.9,1.9c-1.1,0-1.9-0.9-1.9-1.9C142.3,118.5,143.1,117.6,144.2,117.6
		L144.2,117.6z"/>
	<path d="M169.2,112.9c1.1,0,1.9,0.9,1.9,1.9c0,1.1-0.9,1.9-1.9,1.9c-1.1,0-1.9-0.9-1.9-1.9C167.3,113.8,168.2,112.9,169.2,112.9
		L169.2,112.9z"/>
	<path d="M244.5,118c1.1,0,1.9,0.9,1.9,1.9c0,1.1-0.9,1.9-1.9,1.9c-1.1,0-1.9-0.9-1.9-1.9C242.6,118.9,243.4,118,244.5,118
		L244.5,118z"/>
	<path d="M243.6,150.6c1.1,0,1.9,0.9,1.9,1.9c0,1.1-0.9,1.9-1.9,1.9c-1.1,0-1.9-0.9-1.9-1.9C241.6,151.5,242.5,150.6,243.6,150.6
		L243.6,150.6z"/>
	<path d="M219.4,211.6c1.1,0,1.9,0.9,1.9,1.9c0,1.1-0.9,1.9-1.9,1.9c-1.1,0-1.9-0.9-1.9-1.9C217.4,212.4,218.3,211.6,219.4,211.6
		L219.4,211.6z"/>
	<path d="M171.3,129.1c1.1,0,1.9,0.9,1.9,1.9c0,1.1-0.9,1.9-1.9,1.9c-1.1,0-1.9-0.9-1.9-1.9C169.3,130,170.2,129.1,171.3,129.1
		L171.3,129.1z"/>
	<path d="M196.5,260.8c1.1,0,1.9,0.9,1.9,1.9c0,1.1-0.9,1.9-1.9,1.9c-1.1,0-1.9-0.9-1.9-1.9C194.6,261.7,195.4,260.8,196.5,260.8
		L196.5,260.8z"/>
	<path d="M81.9,50.8c1.1,0,1.9,0.9,1.9,1.9c0,1.1-0.9,1.9-1.9,1.9c-1.1,0-1.9-0.9-1.9-1.9C80,51.7,80.8,50.8,81.9,50.8L81.9,50.8z"
		/>
	<path d="M99.6,186.5c1.1,0,1.9,0.9,1.9,1.9c0,1.1-0.9,1.9-1.9,1.9c-1.1,0-1.9-0.9-1.9-1.9C97.6,187.4,98.5,186.5,99.6,186.5
		L99.6,186.5z"/>
	<path d="M185.5,167.5c1.1,0,1.9,0.9,1.9,1.9c0,1.1-0.9,1.9-1.9,1.9c-1.1,0-1.9-0.9-1.9-1.9C183.5,168.4,184.4,167.5,185.5,167.5
		L185.5,167.5z"/>
	<path d="M201.3,148.2c1.1,0,1.9,0.9,1.9,1.9c0,1.1-0.9,1.9-1.9,1.9c-1.1,0-1.9-0.9-1.9-1.9C199.4,149.1,200.2,148.2,201.3,148.2
		L201.3,148.2z"/>
</g>
</svg>
