<?xml version="1.0" encoding="utf-8"?>
<!-- Generator: Adobe Illustrator 21.1.0, SVG Export Plug-In . SVG Version: 6.00 Build 0)  -->
<svg version="1.1" id="Layer_1" xmlns="http://www.w3.org/2000/svg" xmlns:xlink="http://www.w3.org/1999/xlink" x="0px" y="0px"
	 viewBox="0 0 350 350" style="enable-background:new 0 0 350 350;" xml:space="preserve">
<style type="text/css">
	.st0{fill:none;stroke:#231F20;stroke-width:1.5;stroke-linecap:square;stroke-miterlimit:10;}
</style>
<g>
	<line class="st0" x1="230.5" y1="172.2" x2="188.9" y2="226.1"/>
	<line class="st0" x1="230.5" y1="172.2" x2="180.6" y2="279.3"/>
	<line class="st0" x1="318.2" y1="122.8" x2="268.8" y2="70.7"/>
	<line class="st0" x1="230.5" y1="172.2" x2="237.2" y2="255.5"/>
	<line class="st0" x1="133.4" y1="210" x2="188.9" y2="226.1"/>
	<line class="st0" x1="188.9" y1="226.1" x2="237.2" y2="255.5"/>
	<line class="st0" x1="180.6" y1="279.3" x2="237.2" y2="255.5"/>
	<line class="st0" x1="180.6" y1="279.3" x2="133.4" y2="210"/>
	<line class="st0" x1="180.6" y1="279.3" x2="188.9" y2="226.1"/>
	<line class="st0" x1="133.4" y1="210" x2="237.2" y2="255.5"/>
	<line class="st0" x1="230.5" y1="172.2" x2="318.2" y2="122.8"/>
	<line class="st0" x1="230.5" y1="172.2" x2="133.4" y2="210"/>
	<line class="st0" x1="230.5" y1="172.2" x2="268.8" y2="70.7"/>
	<line class="st0" x1="133.4" y1="210" x2="31.8" y2="191.7"/>
	<path d="M188.9,222.2c2.1,0,3.9,1.7,3.9,3.9c0,2.1-1.7,3.9-3.9,3.9c-2.1,0-3.9-1.7-3.9-3.9C185,223.9,186.7,222.2,188.9,222.2
		L188.9,222.2z"/>
	<path d="M268.8,66.8c2.1,0,3.9,1.7,3.9,3.9c0,2.1-1.7,3.9-3.9,3.9c-2.1,0-3.9-1.7-3.9-3.9C264.9,68.5,266.7,66.8,268.8,66.8
		L268.8,66.8z"/>
	<path d="M237.2,251.6c2.1,0,3.9,1.7,3.9,3.9c0,2.1-1.7,3.9-3.9,3.9c-2.1,0-3.9-1.7-3.9-3.9C233.3,253.3,235,251.6,237.2,251.6
		L237.2,251.6z"/>
	<path d="M133.4,206.1c2.1,0,3.9,1.7,3.9,3.9s-1.7,3.9-3.9,3.9c-2.1,0-3.9-1.7-3.9-3.9S131.2,206.1,133.4,206.1L133.4,206.1z"/>
	<path d="M318.2,119c2.1,0,3.9,1.7,3.9,3.9c0,2.1-1.7,3.9-3.9,3.9s-3.9-1.7-3.9-3.9C314.3,120.7,316.1,119,318.2,119L318.2,119z"/>
	<path d="M180.6,275.5c2.1,0,3.9,1.7,3.9,3.9s-1.7,3.9-3.9,3.9c-2.1,0-3.9-1.7-3.9-3.9S178.4,275.5,180.6,275.5L180.6,275.5z"/>
	<path d="M31.8,187.8c2.1,0,3.9,1.7,3.9,3.9c0,2.1-1.7,3.9-3.9,3.9s-3.9-1.7-3.9-3.9C27.9,189.5,29.7,187.8,31.8,187.8L31.8,187.8z"
		/>
	<path d="M230.5,168.3c2.1,0,3.9,1.7,3.9,3.9c0,2.1-1.7,3.9-3.9,3.9c-2.1,0-3.9-1.7-3.9-3.9C226.6,170.1,228.4,168.3,230.5,168.3
		L230.5,168.3z"/>
</g>
</svg>
