<?xml version="1.0" encoding="utf-8"?>
<!-- Generator: Adobe Illustrator 21.1.0, SVG Export Plug-In . SVG Version: 6.00 Build 0)  -->
<svg version="1.1" id="Layer_1" xmlns="http://www.w3.org/2000/svg" xmlns:xlink="http://www.w3.org/1999/xlink" x="0px" y="0px"
	 viewBox="0 0 350 350" style="enable-background:new 0 0 350 350;" xml:space="preserve">
<style type="text/css">
	.st0{fill:none;stroke:#231F20;stroke-width:0.75;stroke-linecap:square;stroke-miterlimit:10;}
</style>
<g id="_x30_">
	<line class="st0" x1="270.6" y1="136.4" x2="295.3" y2="132.4"/>
	<line class="st0" x1="39.3" y1="211" x2="48.6" y2="212.5"/>
	<line class="st0" x1="315.2" y1="261.3" x2="330.3" y2="279.9"/>
	<line class="st0" x1="178.6" y1="129.1" x2="164.9" y2="121.3"/>
	<line class="st0" x1="247.8" y1="201.3" x2="256.4" y2="197.4"/>
	<line class="st0" x1="164.9" y1="121.3" x2="173.8" y2="120.7"/>
	<line class="st0" x1="140.8" y1="141.5" x2="124.8" y2="158.1"/>
	<line class="st0" x1="242.7" y1="245.1" x2="236.3" y2="237.7"/>
	<line class="st0" x1="293.6" y1="78.7" x2="302.3" y2="78.5"/>
	<line class="st0" x1="133.6" y1="86.6" x2="138.1" y2="93.1"/>
	<line class="st0" x1="242.4" y1="216.9" x2="225.3" y2="237.8"/>
	<line class="st0" x1="242.7" y1="245.1" x2="231.3" y2="245.8"/>
	<line class="st0" x1="225.3" y1="237.8" x2="231.3" y2="245.8"/>
	<line class="st0" x1="173.4" y1="161.6" x2="168.7" y2="185.9"/>
	<line class="st0" x1="269.9" y1="211" x2="286.2" y2="228.4"/>
	<line class="st0" x1="278.8" y1="236.3" x2="296.3" y2="237.6"/>
	<line class="st0" x1="270.6" y1="136.4" x2="279.9" y2="115.3"/>
	<line class="st0" x1="270.6" y1="136.4" x2="271.9" y2="111.6"/>
	<line class="st0" x1="61.4" y1="196.9" x2="67.8" y2="220.6"/>
	<line class="st0" x1="286.2" y1="228.4" x2="296.3" y2="237.6"/>
	<line class="st0" x1="247.8" y1="201.3" x2="243.8" y2="176.5"/>
	<line class="st0" x1="284.7" y1="98.3" x2="293.6" y2="78.7"/>
	<line class="st0" x1="161.5" y1="142.1" x2="178.6" y2="129.1"/>
	<line class="st0" x1="39.3" y1="211" x2="54.3" y2="222"/>
	<line class="st0" x1="236.3" y1="237.7" x2="231.3" y2="245.8"/>
	<line class="st0" x1="140.8" y1="141.5" x2="134.6" y2="165"/>
	<line class="st0" x1="284.7" y1="98.3" x2="293.7" y2="70.1"/>
	<line class="st0" x1="38.8" y1="120.7" x2="57" y2="135.3"/>
	<line class="st0" x1="269.9" y1="211" x2="293.5" y2="203.9"/>
	<line class="st0" x1="161.5" y1="142.1" x2="179.7" y2="150.1"/>
	<line class="st0" x1="38.8" y1="120.7" x2="51.5" y2="139.2"/>
	<line class="st0" x1="51.5" y1="139.2" x2="34.8" y2="128.3"/>
	<line class="st0" x1="144.1" y1="114.5" x2="144" y2="83.6"/>
	<line class="st0" x1="284.7" y1="98.3" x2="282.9" y2="72.7"/>
	<line class="st0" x1="78.6" y1="156.5" x2="59.6" y2="152.5"/>
	<line class="st0" x1="163" y1="138.2" x2="178.6" y2="129.1"/>
	<line class="st0" x1="163" y1="138.2" x2="124.3" y2="140.3"/>
	<line class="st0" x1="78.6" y1="156.5" x2="57" y2="135.3"/>
	<line class="st0" x1="144.1" y1="114.5" x2="151" y2="88.4"/>
	<line class="st0" x1="124.3" y1="140.3" x2="144.1" y2="114.5"/>
	<line class="st0" x1="270.6" y1="136.4" x2="288.2" y2="116.6"/>
	<line class="st0" x1="279.9" y1="115.3" x2="284.7" y2="98.3"/>
	<line class="st0" x1="288.2" y1="116.6" x2="284.7" y2="98.3"/>
	<line class="st0" x1="61.4" y1="196.9" x2="78.6" y2="156.5"/>
	<line class="st0" x1="21.6" y1="162.7" x2="19.7" y2="151.2"/>
	<line class="st0" x1="57" y1="135.3" x2="46.6" y2="117.7"/>
	<line class="st0" x1="270.6" y1="136.4" x2="294.9" y2="142.7"/>
	<line class="st0" x1="269.9" y1="211" x2="256.4" y2="197.4"/>
	<line class="st0" x1="242.4" y1="216.9" x2="256.4" y2="197.4"/>
	<line class="st0" x1="284.7" y1="98.3" x2="302.3" y2="78.5"/>
	<line class="st0" x1="144" y1="83.6" x2="138.1" y2="93.1"/>
	<line class="st0" x1="163" y1="138.2" x2="173.8" y2="120.7"/>
	<line class="st0" x1="161.5" y1="142.1" x2="140.8" y2="141.5"/>
	<line class="st0" x1="243.8" y1="176.5" x2="242.4" y2="216.9"/>
	<line class="st0" x1="161.5" y1="142.1" x2="124.3" y2="140.3"/>
	<line class="st0" x1="151" y1="88.4" x2="138.1" y2="93.1"/>
	<line class="st0" x1="243.8" y1="176.5" x2="270.6" y2="136.4"/>
	<line class="st0" x1="78.6" y1="156.5" x2="46.2" y2="154.3"/>
	<line class="st0" x1="296.3" y1="237.6" x2="315.2" y2="261.3"/>
	<line class="st0" x1="51.5" y1="139.2" x2="57" y2="135.3"/>
	<line class="st0" x1="198.1" y1="157.6" x2="173.4" y2="161.6"/>
	<line class="st0" x1="198.1" y1="157.6" x2="243.8" y2="176.5"/>
	<line class="st0" x1="198.1" y1="157.6" x2="221" y2="166.9"/>
	<line class="st0" x1="78.6" y1="156.5" x2="99.7" y2="148.4"/>
	<line class="st0" x1="124.3" y1="140.3" x2="99.7" y2="148.4"/>
	<line class="st0" x1="44.4" y1="221.2" x2="54.3" y2="222"/>
	<line class="st0" x1="61.4" y1="196.9" x2="54.3" y2="222"/>
	<line class="st0" x1="173.4" y1="161.6" x2="163" y2="138.2"/>
	<line class="st0" x1="198.1" y1="157.6" x2="179.7" y2="150.1"/>
	<line class="st0" x1="179.7" y1="150.1" x2="163" y2="138.2"/>
	<line class="st0" x1="48.6" y1="212.5" x2="44.4" y2="221.2"/>
	<line class="st0" x1="38.8" y1="120.7" x2="46.6" y2="117.7"/>
	<line class="st0" x1="242.7" y1="245.1" x2="242.4" y2="216.9"/>
	<line class="st0" x1="242.4" y1="216.9" x2="236.3" y2="237.7"/>
	<line class="st0" x1="293.7" y1="70.1" x2="282.9" y2="72.7"/>
	<line class="st0" x1="140.8" y1="141.5" x2="124.3" y2="140.3"/>
	<line class="st0" x1="293.6" y1="78.7" x2="282.9" y2="72.7"/>
	<line class="st0" x1="247.8" y1="201.3" x2="269.9" y2="211"/>
	<line class="st0" x1="247.8" y1="201.3" x2="242.4" y2="216.9"/>
	<line class="st0" x1="269.9" y1="211" x2="295.1" y2="215"/>
	<line class="st0" x1="51.5" y1="139.2" x2="46.6" y2="117.7"/>
	<line class="st0" x1="46.6" y1="117.7" x2="34.8" y2="128.3"/>
	<line class="st0" x1="173.4" y1="161.6" x2="161.5" y2="142.1"/>
	<line class="st0" x1="293.5" y1="203.9" x2="295.1" y2="215"/>
	<line class="st0" x1="256.4" y1="197.4" x2="276.9" y2="189.2"/>
	<line class="st0" x1="38.8" y1="120.7" x2="34.8" y2="128.3"/>
	<line class="st0" x1="242.7" y1="245.1" x2="225.3" y2="237.8"/>
	<line class="st0" x1="242.4" y1="216.9" x2="231.3" y2="245.8"/>
	<line class="st0" x1="59.6" y1="152.5" x2="51.5" y2="139.2"/>
	<line class="st0" x1="144.1" y1="114.5" x2="133.6" y2="86.6"/>
	<line class="st0" x1="124.8" y1="158.1" x2="134.6" y2="165"/>
	<line class="st0" x1="293.6" y1="78.7" x2="293.7" y2="70.1"/>
	<line class="st0" x1="178.6" y1="129.1" x2="173.8" y2="120.7"/>
	<line class="st0" x1="161.5" y1="142.1" x2="164.9" y2="121.3"/>
	<line class="st0" x1="39.3" y1="211" x2="61.4" y2="196.9"/>
	<line class="st0" x1="39.3" y1="211" x2="44.4" y2="221.2"/>
	<line class="st0" x1="161.5" y1="142.1" x2="173.8" y2="120.7"/>
	<line class="st0" x1="270.6" y1="136.4" x2="284.7" y2="98.3"/>
	<line class="st0" x1="284.7" y1="98.3" x2="271.9" y2="111.6"/>
	<line class="st0" x1="269.9" y1="211" x2="296.3" y2="237.6"/>
	<line class="st0" x1="269.9" y1="211" x2="278.8" y2="236.3"/>
	<line class="st0" x1="243.8" y1="176.5" x2="221" y2="166.9"/>
	<line class="st0" x1="21.6" y1="162.7" x2="46.2" y2="154.3"/>
	<line class="st0" x1="57" y1="135.3" x2="34.8" y2="128.3"/>
	<line class="st0" x1="288.2" y1="116.6" x2="271.9" y2="111.6"/>
	<line class="st0" x1="296.3" y1="237.6" x2="318.4" y2="248.3"/>
	<line class="st0" x1="51.5" y1="139.2" x2="46.2" y2="154.3"/>
	<line class="st0" x1="46.2" y1="154.3" x2="57" y2="135.3"/>
	<line class="st0" x1="161.5" y1="142.1" x2="144.1" y2="114.5"/>
	<line class="st0" x1="144.1" y1="114.5" x2="138.1" y2="93.1"/>
	<line class="st0" x1="243.8" y1="176.5" x2="258.9" y2="156.1"/>
	<line class="st0" x1="270.6" y1="136.4" x2="258.9" y2="156.1"/>
	<line class="st0" x1="61.4" y1="196.9" x2="48.6" y2="212.5"/>
	<line class="st0" x1="315.2" y1="261.3" x2="318.4" y2="248.3"/>
	<line class="st0" x1="163" y1="138.2" x2="140.8" y2="141.5"/>
	<line class="st0" x1="293.7" y1="70.1" x2="302.3" y2="78.5"/>
	<line class="st0" x1="282.9" y1="72.7" x2="302.3" y2="78.5"/>
	<line class="st0" x1="140.8" y1="141.5" x2="144.1" y2="114.5"/>
	<line class="st0" x1="198.1" y1="157.6" x2="163" y2="138.2"/>
	<line class="st0" x1="198.1" y1="157.6" x2="161.5" y2="142.1"/>
	<line class="st0" x1="173.4" y1="161.6" x2="179.7" y2="150.1"/>
	<line class="st0" x1="61.4" y1="196.9" x2="44.4" y2="221.2"/>
	<line class="st0" x1="124.3" y1="140.3" x2="78.6" y2="156.5"/>
	<line class="st0" x1="48.6" y1="212.5" x2="54.3" y2="222"/>
	<line class="st0" x1="161.5" y1="142.1" x2="163" y2="138.2"/>
	<line class="st0" x1="46.2" y1="154.3" x2="19.7" y2="151.2"/>
	<line class="st0" x1="279.9" y1="115.3" x2="288.2" y2="116.6"/>
	<line class="st0" x1="78.6" y1="156.5" x2="51.5" y2="139.2"/>
	<line class="st0" x1="151" y1="88.4" x2="133.6" y2="86.6"/>
	<line class="st0" x1="236.3" y1="237.7" x2="225.3" y2="237.8"/>
	<line class="st0" x1="163" y1="138.2" x2="144.1" y2="114.5"/>
	<line class="st0" x1="144" y1="83.6" x2="133.6" y2="86.6"/>
	<line class="st0" x1="269.9" y1="211" x2="243.8" y2="176.5"/>
	<line class="st0" x1="59.6" y1="152.5" x2="57" y2="135.3"/>
	<line class="st0" x1="163" y1="138.2" x2="164.9" y2="121.3"/>
	<line class="st0" x1="59.6" y1="152.5" x2="46.2" y2="154.3"/>
	<line class="st0" x1="269.9" y1="211" x2="242.4" y2="216.9"/>
	<line class="st0" x1="151" y1="88.4" x2="144" y2="83.6"/>
	<line class="st0" x1="278.8" y1="236.3" x2="286.2" y2="228.4"/>
	<line class="st0" x1="243.8" y1="176.5" x2="256.4" y2="197.4"/>
	<line class="st0" x1="124.3" y1="140.3" x2="109" y2="122.2"/>
	<line class="st0" x1="279.9" y1="115.3" x2="271.9" y2="111.6"/>
	<line class="st0" x1="295.3" y1="132.4" x2="294.9" y2="142.7"/>
	<path d="M163,136.3c1.1,0,1.9,0.9,1.9,1.9c0,1.1-0.9,1.9-1.9,1.9c-1.1,0-1.9-0.9-1.9-1.9C161.1,137.2,162,136.3,163,136.3
		L163,136.3z"/>
	<path d="M34.8,126.4c1.1,0,1.9,0.9,1.9,1.9c0,1.1-0.9,1.9-1.9,1.9c-1.1,0-1.9-0.9-1.9-1.9C32.8,127.3,33.7,126.4,34.8,126.4
		L34.8,126.4z"/>
	<path d="M296.3,235.7c1.1,0,1.9,0.9,1.9,1.9c0,1.1-0.9,1.9-1.9,1.9c-1.1,0-1.9-0.9-1.9-1.9C294.3,236.6,295.2,235.7,296.3,235.7
		L296.3,235.7z"/>
	<path d="M109,120.2c1.1,0,1.9,0.9,1.9,1.9c0,1.1-0.9,1.9-1.9,1.9c-1.1,0-1.9-0.9-1.9-1.9C107.1,121.1,108,120.2,109,120.2
		L109,120.2z"/>
	<path d="M294.9,140.7c1.1,0,1.9,0.9,1.9,1.9c0,1.1-0.9,1.9-1.9,1.9c-1.1,0-1.9-0.9-1.9-1.9C292.9,141.6,293.8,140.7,294.9,140.7
		L294.9,140.7z"/>
	<path d="M295.1,213c1.1,0,1.9,0.9,1.9,1.9c0,1.1-0.9,1.9-1.9,1.9c-1.1,0-1.9-0.9-1.9-1.9C293.1,213.9,294,213,295.1,213L295.1,213z
		"/>
	<path d="M151,86.5c1.1,0,1.9,0.9,1.9,1.9c0,1.1-0.9,1.9-1.9,1.9c-1.1,0-1.9-0.9-1.9-1.9C149,87.4,149.9,86.5,151,86.5L151,86.5z"/>
	<path d="M221,165c1.1,0,1.9,0.9,1.9,1.9c0,1.1-0.9,1.9-1.9,1.9c-1.1,0-1.9-0.9-1.9-1.9C219.1,165.8,220,165,221,165L221,165z"/>
	<path d="M286.2,226.4c1.1,0,1.9,0.9,1.9,1.9c0,1.1-0.9,1.9-1.9,1.9c-1.1,0-1.9-0.9-1.9-1.9C284.3,227.3,285.2,226.4,286.2,226.4
		L286.2,226.4z"/>
	<path d="M61.4,194.9c1.1,0,1.9,0.9,1.9,1.9c0,1.1-0.9,1.9-1.9,1.9c-1.1,0-1.9-0.9-1.9-1.9C59.5,195.8,60.3,194.9,61.4,194.9
		L61.4,194.9z"/>
	<path d="M57,133.4c1.1,0,1.9,0.9,1.9,1.9c0,1.1-0.9,1.9-1.9,1.9c-1.1,0-1.9-0.9-1.9-1.9C55,134.3,55.9,133.4,57,133.4L57,133.4z"/>
	<path d="M138.1,91.1c1.1,0,1.9,0.9,1.9,1.9c0,1.1-0.9,1.9-1.9,1.9c-1.1,0-1.9-0.9-1.9-1.9C136.2,92,137.1,91.1,138.1,91.1
		L138.1,91.1z"/>
	<path d="M258.9,154.2c1.1,0,1.9,0.9,1.9,1.9c0,1.1-0.9,1.9-1.9,1.9s-1.9-0.9-1.9-1.9C256.9,155.1,257.8,154.2,258.9,154.2
		L258.9,154.2z"/>
	<path d="M282.9,70.8c1.1,0,1.9,0.9,1.9,1.9c0,1.1-0.9,1.9-1.9,1.9c-1.1,0-1.9-0.9-1.9-1.9C281,71.6,281.8,70.8,282.9,70.8
		L282.9,70.8z"/>
	<path d="M124.8,156.1c1.1,0,1.9,0.9,1.9,1.9c0,1.1-0.9,1.9-1.9,1.9c-1.1,0-1.9-0.9-1.9-1.9C122.8,157,123.7,156.1,124.8,156.1
		L124.8,156.1z"/>
	<path d="M144,81.7c1.1,0,1.9,0.9,1.9,1.9c0,1.1-0.9,1.9-1.9,1.9c-1.1,0-1.9-0.9-1.9-1.9C142,82.5,142.9,81.7,144,81.7L144,81.7z"/>
	<path d="M134.6,163c1.1,0,1.9,0.9,1.9,1.9c0,1.1-0.9,1.9-1.9,1.9s-1.9-0.9-1.9-1.9C132.6,163.9,133.5,163,134.6,163L134.6,163z"/>
	<path d="M271.9,109.7c1.1,0,1.9,0.9,1.9,1.9c0,1.1-0.9,1.9-1.9,1.9c-1.1,0-1.9-0.9-1.9-1.9C270,110.6,270.8,109.7,271.9,109.7
		L271.9,109.7z"/>
	<path d="M278.8,234.4c1.1,0,1.9,0.9,1.9,1.9c0,1.1-0.9,1.9-1.9,1.9c-1.1,0-1.9-0.9-1.9-1.9C276.9,235.3,277.7,234.4,278.8,234.4
		L278.8,234.4z"/>
	<path d="M293.7,68.2c1.1,0,1.9,0.9,1.9,1.9c0,1.1-0.9,1.9-1.9,1.9c-1.1,0-1.9-0.9-1.9-1.9C291.7,69.1,292.6,68.2,293.7,68.2
		L293.7,68.2z"/>
	<path d="M99.7,146.4c1.1,0,1.9,0.9,1.9,1.9c0,1.1-0.9,1.9-1.9,1.9c-1.1,0-1.9-0.9-1.9-1.9C97.7,147.3,98.6,146.4,99.7,146.4
		L99.7,146.4z"/>
	<path d="M39.3,209.1c1.1,0,1.9,0.9,1.9,1.9c0,1.1-0.9,1.9-1.9,1.9c-1.1,0-1.9-0.9-1.9-1.9C37.4,209.9,38.2,209.1,39.3,209.1
		L39.3,209.1z"/>
	<path d="M19.7,149.2c1.1,0,1.9,0.9,1.9,1.9c0,1.1-0.9,1.9-1.9,1.9c-1.1,0-1.9-0.9-1.9-1.9C17.7,150.1,18.6,149.2,19.7,149.2
		L19.7,149.2z"/>
	<path d="M46.6,115.7c1.1,0,1.9,0.9,1.9,1.9c0,1.1-0.9,1.9-1.9,1.9c-1.1,0-1.9-0.9-1.9-1.9C44.7,116.6,45.6,115.7,46.6,115.7
		L46.6,115.7z"/>
	<path d="M78.6,154.5c1.1,0,1.9,0.9,1.9,1.9c0,1.1-0.9,1.9-1.9,1.9c-1.1,0-1.9-0.9-1.9-1.9C76.7,155.4,77.6,154.5,78.6,154.5
		L78.6,154.5z"/>
	<path d="M242.7,243.1c1.1,0,1.9,0.9,1.9,1.9c0,1.1-0.9,1.9-1.9,1.9c-1.1,0-1.9-0.9-1.9-1.9C240.7,244,241.6,243.1,242.7,243.1
		L242.7,243.1z"/>
	<path d="M293.6,76.8c1.1,0,1.9,0.9,1.9,1.9c0,1.1-0.9,1.9-1.9,1.9c-1.1,0-1.9-0.9-1.9-1.9C291.6,77.7,292.5,76.8,293.6,76.8
		L293.6,76.8z"/>
	<path d="M247.8,199.4c1.1,0,1.9,0.9,1.9,1.9c0,1.1-0.9,1.9-1.9,1.9c-1.1,0-1.9-0.9-1.9-1.9C245.8,200.2,246.7,199.4,247.8,199.4
		L247.8,199.4z"/>
	<path d="M133.6,84.7c1.1,0,1.9,0.9,1.9,1.9c0,1.1-0.9,1.9-1.9,1.9c-1.1,0-1.9-0.9-1.9-1.9C131.7,85.5,132.5,84.7,133.6,84.7
		L133.6,84.7z"/>
	<path d="M302.3,76.6c1.1,0,1.9,0.9,1.9,1.9c0,1.1-0.9,1.9-1.9,1.9s-1.9-0.9-1.9-1.9C300.4,77.5,301.2,76.6,302.3,76.6L302.3,76.6z"
		/>
	<path d="M293.5,201.9c1.1,0,1.9,0.9,1.9,1.9c0,1.1-0.9,1.9-1.9,1.9s-1.9-0.9-1.9-1.9C291.5,202.8,292.4,201.9,293.5,201.9
		L293.5,201.9z"/>
	<path d="M318.4,246.4c1.1,0,1.9,0.9,1.9,1.9c0,1.1-0.9,1.9-1.9,1.9c-1.1,0-1.9-0.9-1.9-1.9C316.4,247.2,317.3,246.4,318.4,246.4
		L318.4,246.4z"/>
	<path d="M198.1,155.7c1.1,0,1.9,0.9,1.9,1.9c0,1.1-0.9,1.9-1.9,1.9c-1.1,0-1.9-0.9-1.9-1.9C196.1,156.6,197,155.7,198.1,155.7
		L198.1,155.7z"/>
	<path d="M288.2,114.6c1.1,0,1.9,0.9,1.9,1.9s-0.9,1.9-1.9,1.9c-1.1,0-1.9-0.9-1.9-1.9S287.1,114.6,288.2,114.6L288.2,114.6z"/>
	<path d="M168.7,183.9c1.1,0,1.9,0.9,1.9,1.9c0,1.1-0.9,1.9-1.9,1.9c-1.1,0-1.9-0.9-1.9-1.9C166.8,184.8,167.7,183.9,168.7,183.9
		L168.7,183.9z"/>
	<path d="M173.8,118.7c1.1,0,1.9,0.9,1.9,1.9c0,1.1-0.9,1.9-1.9,1.9c-1.1,0-1.9-0.9-1.9-1.9C171.9,119.6,172.7,118.7,173.8,118.7
		L173.8,118.7z"/>
	<path d="M279.9,113.3c1.1,0,1.9,0.9,1.9,1.9c0,1.1-0.9,1.9-1.9,1.9c-1.1,0-1.9-0.9-1.9-1.9C277.9,114.2,278.8,113.3,279.9,113.3
		L279.9,113.3z"/>
	<path d="M48.6,210.6c1.1,0,1.9,0.9,1.9,1.9c0,1.1-0.9,1.9-1.9,1.9c-1.1,0-1.9-0.9-1.9-1.9C46.6,211.4,47.5,210.6,48.6,210.6
		L48.6,210.6z"/>
	<path d="M21.6,160.8c1.1,0,1.9,0.9,1.9,1.9c0,1.1-0.9,1.9-1.9,1.9c-1.1,0-1.9-0.9-1.9-1.9C19.7,161.6,20.6,160.8,21.6,160.8
		L21.6,160.8z"/>
	<path d="M173.4,159.7c1.1,0,1.9,0.9,1.9,1.9c0,1.1-0.9,1.9-1.9,1.9c-1.1,0-1.9-0.9-1.9-1.9C171.4,160.6,172.3,159.7,173.4,159.7
		L173.4,159.7z"/>
	<path d="M179.7,148.2c1.1,0,1.9,0.9,1.9,1.9c0,1.1-0.9,1.9-1.9,1.9c-1.1,0-1.9-0.9-1.9-1.9C177.8,149,178.7,148.2,179.7,148.2
		L179.7,148.2z"/>
	<path d="M295.3,130.5c1.1,0,1.9,0.9,1.9,1.9c0,1.1-0.9,1.9-1.9,1.9c-1.1,0-1.9-0.9-1.9-1.9C293.3,131.4,294.2,130.5,295.3,130.5
		L295.3,130.5z"/>
	<path d="M330.3,277.9c1.1,0,1.9,0.9,1.9,1.9c0,1.1-0.9,1.9-1.9,1.9c-1.1,0-1.9-0.9-1.9-1.9C328.4,278.8,329.2,277.9,330.3,277.9
		L330.3,277.9z"/>
	<path d="M315.2,259.4c1.1,0,1.9,0.9,1.9,1.9c0,1.1-0.9,1.9-1.9,1.9c-1.1,0-1.9-0.9-1.9-1.9C313.3,260.3,314.2,259.4,315.2,259.4
		L315.2,259.4z"/>
	<path d="M140.8,139.5c1.1,0,1.9,0.9,1.9,1.9c0,1.1-0.9,1.9-1.9,1.9c-1.1,0-1.9-0.9-1.9-1.9C138.9,140.4,139.8,139.5,140.8,139.5
		L140.8,139.5z"/>
	<path d="M51.5,137.3c1.1,0,1.9,0.9,1.9,1.9c0,1.1-0.9,1.9-1.9,1.9c-1.1,0-1.9-0.9-1.9-1.9C49.5,138.1,50.4,137.3,51.5,137.3
		L51.5,137.3z"/>
	<path d="M242.4,215c1.1,0,1.9,0.9,1.9,1.9c0,1.1-0.9,1.9-1.9,1.9c-1.1,0-1.9-0.9-1.9-1.9C240.4,215.9,241.3,215,242.4,215
		L242.4,215z"/>
	<path d="M124.3,138.4c1.1,0,1.9,0.9,1.9,1.9c0,1.1-0.9,1.9-1.9,1.9c-1.1,0-1.9-0.9-1.9-1.9C122.4,139.2,123.3,138.4,124.3,138.4
		L124.3,138.4z"/>
	<path d="M236.3,235.8c1.1,0,1.9,0.9,1.9,1.9c0,1.1-0.9,1.9-1.9,1.9c-1.1,0-1.9-0.9-1.9-1.9C234.4,236.7,235.3,235.8,236.3,235.8
		L236.3,235.8z"/>
	<path d="M270.6,134.5c1.1,0,1.9,0.9,1.9,1.9c0,1.1-0.9,1.9-1.9,1.9c-1.1,0-1.9-0.9-1.9-1.9C268.7,135.3,269.5,134.5,270.6,134.5
		L270.6,134.5z"/>
	<path d="M276.9,187.3c1.1,0,1.9,0.9,1.9,1.9c0,1.1-0.9,1.9-1.9,1.9c-1.1,0-1.9-0.9-1.9-1.9C274.9,188.2,275.8,187.3,276.9,187.3
		L276.9,187.3z"/>
	<path d="M269.9,209.1c1.1,0,1.9,0.9,1.9,1.9c0,1.1-0.9,1.9-1.9,1.9c-1.1,0-1.9-0.9-1.9-1.9C267.9,209.9,268.8,209.1,269.9,209.1
		L269.9,209.1z"/>
	<path d="M161.5,140.2c1.1,0,1.9,0.9,1.9,1.9c0,1.1-0.9,1.9-1.9,1.9c-1.1,0-1.9-0.9-1.9-1.9C159.6,141.1,160.5,140.2,161.5,140.2
		L161.5,140.2z"/>
	<path d="M178.6,127.1c1.1,0,1.9,0.9,1.9,1.9c0,1.1-0.9,1.9-1.9,1.9c-1.1,0-1.9-0.9-1.9-1.9C176.6,128,177.5,127.1,178.6,127.1
		L178.6,127.1z"/>
	<path d="M231.3,243.9c1.1,0,1.9,0.9,1.9,1.9c0,1.1-0.9,1.9-1.9,1.9c-1.1,0-1.9-0.9-1.9-1.9C229.3,244.7,230.2,243.9,231.3,243.9
		L231.3,243.9z"/>
	<path d="M54.3,220.1c1.1,0,1.9,0.9,1.9,1.9c0,1.1-0.9,1.9-1.9,1.9c-1.1,0-1.9-0.9-1.9-1.9C52.3,220.9,53.2,220.1,54.3,220.1
		L54.3,220.1z"/>
	<path d="M44.4,219.3c1.1,0,1.9,0.9,1.9,1.9c0,1.1-0.9,1.9-1.9,1.9c-1.1,0-1.9-0.9-1.9-1.9C42.4,220.2,43.3,219.3,44.4,219.3
		L44.4,219.3z"/>
	<path d="M243.8,174.6c1.1,0,1.9,0.9,1.9,1.9c0,1.1-0.9,1.9-1.9,1.9c-1.1,0-1.9-0.9-1.9-1.9C241.8,175.4,242.7,174.6,243.8,174.6
		L243.8,174.6z"/>
	<path d="M284.7,96.3c1.1,0,1.9,0.9,1.9,1.9c0,1.1-0.9,1.9-1.9,1.9c-1.1,0-1.9-0.9-1.9-1.9C282.8,97.2,283.7,96.3,284.7,96.3
		L284.7,96.3z"/>
	<path d="M164.9,119.4c1.1,0,1.9,0.9,1.9,1.9c0,1.1-0.9,1.9-1.9,1.9c-1.1,0-1.9-0.9-1.9-1.9C162.9,120.3,163.8,119.4,164.9,119.4
		L164.9,119.4z"/>
	<path d="M225.3,235.9c1.1,0,1.9,0.9,1.9,1.9c0,1.1-0.9,1.9-1.9,1.9c-1.1,0-1.9-0.9-1.9-1.9C223.4,236.8,224.3,235.9,225.3,235.9
		L225.3,235.9z"/>
	<path d="M38.8,118.7c1.1,0,1.9,0.9,1.9,1.9c0,1.1-0.9,1.9-1.9,1.9c-1.1,0-1.9-0.9-1.9-1.9C36.8,119.6,37.7,118.7,38.8,118.7
		L38.8,118.7z"/>
	<path d="M144.1,112.6c1.1,0,1.9,0.9,1.9,1.9c0,1.1-0.9,1.9-1.9,1.9c-1.1,0-1.9-0.9-1.9-1.9C142.1,113.5,143,112.6,144.1,112.6
		L144.1,112.6z"/>
	<path d="M59.6,150.5c1.1,0,1.9,0.9,1.9,1.9s-0.9,1.9-1.9,1.9c-1.1,0-1.9-0.9-1.9-1.9S58.5,150.5,59.6,150.5L59.6,150.5z"/>
	<path d="M67.8,218.7c1.1,0,1.9,0.9,1.9,1.9c0,1.1-0.9,1.9-1.9,1.9c-1.1,0-1.9-0.9-1.9-1.9C65.8,219.5,66.7,218.7,67.8,218.7
		L67.8,218.7z"/>
	<path d="M256.4,195.5c1.1,0,1.9,0.9,1.9,1.9c0,1.1-0.9,1.9-1.9,1.9c-1.1,0-1.9-0.9-1.9-1.9C254.4,196.3,255.3,195.5,256.4,195.5
		L256.4,195.5z"/>
	<path d="M46.2,152.4c1.1,0,1.9,0.9,1.9,1.9c0,1.1-0.9,1.9-1.9,1.9c-1.1,0-1.9-0.9-1.9-1.9C44.3,153.2,45.1,152.4,46.2,152.4
		L46.2,152.4z"/>
</g>
</svg>
