<?xml version="1.0" encoding="utf-8"?>
<!-- Generator: Adobe Illustrator 21.1.0, SVG Export Plug-In . SVG Version: 6.00 Build 0)  -->
<svg version="1.1" id="Layer_1" xmlns="http://www.w3.org/2000/svg" xmlns:xlink="http://www.w3.org/1999/xlink" x="0px" y="0px"
	 viewBox="0 0 350 350" style="enable-background:new 0 0 350 350;" xml:space="preserve">
<style type="text/css">
	.st0{fill:none;stroke:#231F20;stroke-width:0.75;stroke-miterlimit:10;}
</style>
<g>
	<line class="st0" x1="141.5" y1="252.1" x2="174.1" y2="273.7"/>
	<line class="st0" x1="141.5" y1="252.1" x2="90.4" y2="223.3"/>
	<line class="st0" x1="141.5" y1="252.1" x2="166.4" y2="256.2"/>
	<line class="st0" x1="141.5" y1="252.1" x2="99" y2="242.4"/>
	<line class="st0" x1="141.5" y1="252.1" x2="175.7" y2="153.3"/>
	<line class="st0" x1="141.5" y1="252.1" x2="167.4" y2="172"/>
	<line class="st0" x1="141.5" y1="252.1" x2="177.2" y2="236.7"/>
	<line class="st0" x1="141.5" y1="252.1" x2="99.3" y2="299.9"/>
	<line class="st0" x1="141.5" y1="252.1" x2="150.1" y2="272.3"/>
	<line class="st0" x1="141.5" y1="252.1" x2="176.7" y2="292.8"/>
	<line class="st0" x1="141.5" y1="252.1" x2="80.4" y2="306.1"/>
	<line class="st0" x1="141.5" y1="252.1" x2="119.1" y2="248.5"/>
	<line class="st0" x1="141.5" y1="252.1" x2="197" y2="294.1"/>
	<line class="st0" x1="77.8" y1="170.9" x2="184.6" y2="130.7"/>
	<line class="st0" x1="77.8" y1="170.9" x2="70.9" y2="209.7"/>
	<line class="st0" x1="77.8" y1="170.9" x2="134.2" y2="229.2"/>
	<line class="st0" x1="77.8" y1="170.9" x2="167.4" y2="172"/>
	<line class="st0" x1="77.8" y1="170.9" x2="13.2" y2="187.8"/>
	<line class="st0" x1="77.8" y1="170.9" x2="15.4" y2="147.7"/>
	<line class="st0" x1="77.8" y1="170.9" x2="51.9" y2="200.3"/>
	<line class="st0" x1="77.8" y1="170.9" x2="15.4" y2="167.6"/>
	<line class="st0" x1="192.7" y1="101.4" x2="184.6" y2="130.7"/>
	<line class="st0" x1="192.7" y1="101.4" x2="223.9" y2="43.5"/>
	<line class="st0" x1="192.7" y1="101.4" x2="171.3" y2="53.8"/>
	<line class="st0" x1="192.7" y1="101.4" x2="197.5" y2="145.5"/>
	<line class="st0" x1="192.7" y1="101.4" x2="175.7" y2="153.3"/>
	<line class="st0" x1="192.7" y1="101.4" x2="167.4" y2="172"/>
	<line class="st0" x1="192.7" y1="101.4" x2="203.1" y2="119.2"/>
	<line class="st0" x1="192.7" y1="101.4" x2="184.8" y2="35.8"/>
	<line class="st0" x1="192.7" y1="101.4" x2="226.2" y2="119.6"/>
	<line class="st0" x1="192.7" y1="101.4" x2="215.1" y2="61.4"/>
	<line class="st0" x1="192.7" y1="101.4" x2="187.2" y2="187.7"/>
	<line class="st0" x1="192.7" y1="101.4" x2="148.4" y2="55.2"/>
	<line class="st0" x1="217.1" y1="226.2" x2="184.6" y2="130.7"/>
	<line class="st0" x1="217.1" y1="226.2" x2="290.7" y2="216.3"/>
	<line class="st0" x1="217.1" y1="226.2" x2="253" y2="235.3"/>
	<line class="st0" x1="217.1" y1="226.2" x2="201.8" y2="206.4"/>
	<line class="st0" x1="217.1" y1="226.2" x2="134.2" y2="229.2"/>
	<line class="st0" x1="217.1" y1="226.2" x2="261.4" y2="213.3"/>
	<line class="st0" x1="217.1" y1="226.2" x2="283.9" y2="265.9"/>
	<line class="st0" x1="217.1" y1="226.2" x2="161.4" y2="217.2"/>
	<line class="st0" x1="217.1" y1="226.2" x2="150.1" y2="272.3"/>
	<line class="st0" x1="217.1" y1="226.2" x2="227.7" y2="180"/>
	<line class="st0" x1="298" y1="190.8" x2="290.7" y2="216.3"/>
	<line class="st0" x1="298" y1="190.8" x2="261.6" y2="127"/>
	<line class="st0" x1="298" y1="190.8" x2="305.6" y2="229.2"/>
	<line class="st0" x1="298" y1="190.8" x2="261.4" y2="213.3"/>
	<line class="st0" x1="298" y1="190.8" x2="221.9" y2="204.1"/>
	<line class="st0" x1="239.8" y1="277.1" x2="273" y2="304.4"/>
	<line class="st0" x1="239.8" y1="277.1" x2="166.4" y2="256.2"/>
	<line class="st0" x1="239.8" y1="277.1" x2="274.4" y2="229.1"/>
	<line class="st0" x1="111.3" y1="106" x2="85.3" y2="60.6"/>
	<line class="st0" x1="111.3" y1="106" x2="81.3" y2="190.2"/>
	<line class="st0" x1="111.3" y1="106" x2="190.2" y2="167.8"/>
	<line class="st0" x1="111.3" y1="106" x2="105.2" y2="49.9"/>
	<line class="st0" x1="111.3" y1="106" x2="66.6" y2="54.7"/>
	<line class="st0" x1="111.3" y1="106" x2="125.6" y2="43.5"/>
	<line class="st0" x1="207.9" y1="249" x2="253" y2="235.3"/>
	<line class="st0" x1="207.9" y1="249" x2="136" y2="288.8"/>
	<line class="st0" x1="207.9" y1="249" x2="166.4" y2="256.2"/>
	<line class="st0" x1="207.9" y1="249" x2="190.2" y2="167.8"/>
	<line class="st0" x1="207.9" y1="249" x2="221.9" y2="204.1"/>
	<line class="st0" x1="207.9" y1="249" x2="198.7" y2="273.1"/>
	<line class="st0" x1="207.9" y1="249" x2="143.3" y2="171.7"/>
	<line class="st0" x1="207.9" y1="249" x2="252.7" y2="314.8"/>
	<line class="st0" x1="207.9" y1="249" x2="234.1" y2="323.6"/>
	<line class="st0" x1="207.9" y1="249" x2="209.2" y2="184.7"/>
	<line class="st0" x1="286.3" y1="288.5" x2="268.4" y2="251"/>
	<line class="st0" x1="198.2" y1="230.4" x2="166.4" y2="256.2"/>
	<line class="st0" x1="198.2" y1="230.4" x2="250.9" y2="155.3"/>
	<line class="st0" x1="198.2" y1="230.4" x2="154.7" y2="236.6"/>
	<line class="st0" x1="107.2" y1="187.5" x2="174.1" y2="273.7"/>
	<line class="st0" x1="107.2" y1="187.5" x2="166.4" y2="256.2"/>
	<line class="st0" x1="107.2" y1="187.5" x2="124.5" y2="153.1"/>
	<line class="st0" x1="107.2" y1="187.5" x2="190.2" y2="167.8"/>
	<line class="st0" x1="107.2" y1="187.5" x2="44" y2="129.1"/>
	<line class="st0" x1="107.2" y1="187.5" x2="197.5" y2="145.5"/>
	<line class="st0" x1="107.2" y1="187.5" x2="36.2" y2="215.6"/>
	<line class="st0" x1="107.2" y1="187.5" x2="51.9" y2="200.3"/>
	<line class="st0" x1="107.2" y1="187.5" x2="70" y2="124.4"/>
	<line class="st0" x1="107.2" y1="187.5" x2="36.9" y2="171.6"/>
	<line class="st0" x1="241.5" y1="201.5" x2="305.6" y2="229.2"/>
	<line class="st0" x1="241.5" y1="201.5" x2="264.8" y2="273.4"/>
	<line class="st0" x1="241.5" y1="201.5" x2="167.4" y2="172"/>
	<line class="st0" x1="241.5" y1="201.5" x2="177.2" y2="236.7"/>
	<line class="st0" x1="241.5" y1="201.5" x2="161.4" y2="217.2"/>
	<line class="st0" x1="241.5" y1="201.5" x2="226.2" y2="119.6"/>
	<line class="st0" x1="241.5" y1="201.5" x2="227.7" y2="180"/>
	<line class="st0" x1="241.5" y1="201.5" x2="187.2" y2="187.7"/>
	<line class="st0" x1="241.5" y1="201.5" x2="311.9" y2="207.1"/>
	<line class="st0" x1="322.9" y1="240.9" x2="274.4" y2="229.1"/>
	<line class="st0" x1="218.3" y1="307.9" x2="166.4" y2="256.2"/>
	<line class="st0" x1="151.9" y1="120.7" x2="261.6" y2="127"/>
	<line class="st0" x1="151.9" y1="120.7" x2="124.5" y2="153.1"/>
	<line class="st0" x1="151.9" y1="120.7" x2="134.2" y2="229.2"/>
	<line class="st0" x1="151.9" y1="120.7" x2="167.4" y2="172"/>
	<line class="st0" x1="151.9" y1="120.7" x2="159.8" y2="73.6"/>
	<line class="st0" x1="151.9" y1="120.7" x2="93.4" y2="90.8"/>
	<line class="st0" x1="32.6" y1="192.3" x2="81.3" y2="190.2"/>
	<line class="st0" x1="130.5" y1="194" x2="184.6" y2="130.7"/>
	<line class="st0" x1="130.5" y1="194" x2="90.4" y2="223.3"/>
	<line class="st0" x1="130.5" y1="194" x2="166.4" y2="256.2"/>
	<line class="st0" x1="130.5" y1="194" x2="124.5" y2="153.1"/>
	<line class="st0" x1="130.5" y1="194" x2="81.3" y2="190.2"/>
	<line class="st0" x1="130.5" y1="194" x2="73.2" y2="236.2"/>
	<line class="st0" x1="130.5" y1="194" x2="201.8" y2="206.4"/>
	<line class="st0" x1="130.5" y1="194" x2="190.2" y2="167.8"/>
	<line class="st0" x1="130.5" y1="194" x2="114" y2="131.2"/>
	<line class="st0" x1="130.5" y1="194" x2="98.6" y2="169.2"/>
	<line class="st0" x1="130.5" y1="194" x2="134.2" y2="229.2"/>
	<line class="st0" x1="130.5" y1="194" x2="99" y2="242.4"/>
	<line class="st0" x1="130.5" y1="194" x2="175.7" y2="153.3"/>
	<line class="st0" x1="130.5" y1="194" x2="167.4" y2="172"/>
	<line class="st0" x1="130.5" y1="194" x2="221.9" y2="204.1"/>
	<line class="st0" x1="130.5" y1="194" x2="177.2" y2="236.7"/>
	<line class="st0" x1="130.5" y1="194" x2="103.7" y2="150.4"/>
	<line class="st0" x1="130.5" y1="194" x2="143.3" y2="171.7"/>
	<line class="st0" x1="130.5" y1="194" x2="94.4" y2="204.3"/>
	<line class="st0" x1="130.5" y1="194" x2="83" y2="255.3"/>
	<line class="st0" x1="130.5" y1="194" x2="58.4" y2="182.1"/>
	<line class="st0" x1="130.5" y1="194" x2="56.7" y2="224.3"/>
	<line class="st0" x1="170.9" y1="197.9" x2="201.8" y2="206.4"/>
	<line class="st0" x1="170.9" y1="197.9" x2="94.4" y2="204.3"/>
	<line class="st0" x1="170.9" y1="197.9" x2="154.7" y2="236.6"/>
	<line class="st0" x1="170.9" y1="197.9" x2="246.5" y2="177.5"/>
	<line class="st0" x1="170.9" y1="197.9" x2="187.2" y2="187.7"/>
	<line class="st0" x1="36" y1="149" x2="81.3" y2="190.2"/>
	<line class="st0" x1="36" y1="149" x2="28.3" y2="109.4"/>
	<line class="st0" x1="36" y1="149" x2="21.2" y2="128"/>
	<line class="st0" x1="123" y1="173.3" x2="184.6" y2="130.7"/>
	<line class="st0" x1="123" y1="173.3" x2="124.5" y2="153.1"/>
	<line class="st0" x1="123" y1="173.3" x2="190.2" y2="167.8"/>
	<line class="st0" x1="123" y1="173.3" x2="114" y2="131.2"/>
	<line class="st0" x1="123" y1="173.3" x2="98.6" y2="169.2"/>
	<line class="st0" x1="123" y1="173.3" x2="99" y2="242.4"/>
	<line class="st0" x1="123" y1="173.3" x2="152.6" y2="189.7"/>
	<line class="st0" x1="123" y1="173.3" x2="175.7" y2="153.3"/>
	<line class="st0" x1="123" y1="173.3" x2="167.4" y2="172"/>
	<line class="st0" x1="123" y1="173.3" x2="103.7" y2="150.4"/>
	<line class="st0" x1="123" y1="173.3" x2="91.1" y2="133.4"/>
	<line class="st0" x1="123" y1="173.3" x2="143.3" y2="171.7"/>
	<line class="st0" x1="123" y1="173.3" x2="55.8" y2="161.2"/>
	<line class="st0" x1="123" y1="173.3" x2="94.4" y2="204.3"/>
	<line class="st0" x1="123" y1="173.3" x2="154.7" y2="236.6"/>
	<line class="st0" x1="123" y1="173.3" x2="187.2" y2="187.7"/>
	<line class="st0" x1="123" y1="173.3" x2="92.7" y2="113.3"/>
	<line class="st0" x1="123" y1="173.3" x2="119.1" y2="248.5"/>
	<line class="st0" x1="310.8" y1="89.7" x2="261.6" y2="127"/>
	<line class="st0" x1="310.8" y1="89.7" x2="276.7" y2="76.2"/>
	<line class="st0" x1="310.8" y1="89.7" x2="323.5" y2="109.7"/>
	<line class="st0" x1="113.9" y1="227" x2="166.4" y2="256.2"/>
	<line class="st0" x1="113.9" y1="227" x2="81.3" y2="190.2"/>
	<line class="st0" x1="113.9" y1="227" x2="70.9" y2="209.7"/>
	<line class="st0" x1="113.9" y1="227" x2="187.2" y2="187.7"/>
	<line class="st0" x1="269.5" y1="145.1" x2="184.6" y2="130.7"/>
	<line class="st0" x1="269.5" y1="145.1" x2="289.1" y2="155.5"/>
	<line class="st0" x1="269.5" y1="145.1" x2="261.4" y2="213.3"/>
	<line class="st0" x1="269.5" y1="145.1" x2="197.5" y2="145.5"/>
	<line class="st0" x1="269.5" y1="145.1" x2="255.1" y2="81.8"/>
	<line class="st0" x1="269.5" y1="145.1" x2="309.9" y2="167.2"/>
	<line class="st0" x1="269.5" y1="145.1" x2="331.2" y2="154.1"/>
	<line class="st0" x1="210.8" y1="162.4" x2="184.6" y2="130.7"/>
	<line class="st0" x1="210.8" y1="162.4" x2="124.5" y2="153.1"/>
	<line class="st0" x1="210.8" y1="162.4" x2="201.8" y2="206.4"/>
	<line class="st0" x1="210.8" y1="162.4" x2="261.4" y2="213.3"/>
	<line class="st0" x1="70.3" y1="270.9" x2="81.3" y2="190.2"/>
	<line class="st0" x1="70.3" y1="270.9" x2="35" y2="258.7"/>
	<line class="st0" x1="70.3" y1="270.9" x2="150.1" y2="272.3"/>
	<line class="st0" x1="70.3" y1="270.9" x2="83" y2="255.3"/>
	<line class="st0" x1="70.3" y1="270.9" x2="63.3" y2="292.5"/>
	<line class="st0" x1="285.6" y1="175.8" x2="261.6" y2="127"/>
	<line class="st0" x1="285.6" y1="175.8" x2="253" y2="235.3"/>
	<line class="st0" x1="285.6" y1="175.8" x2="190.2" y2="167.8"/>
	<line class="st0" x1="285.6" y1="175.8" x2="262" y2="190.8"/>
	<line class="st0" x1="285.6" y1="175.8" x2="261.4" y2="213.3"/>
	<line class="st0" x1="285.6" y1="175.8" x2="310.4" y2="147.4"/>
	<line class="st0" x1="285.6" y1="175.8" x2="331.2" y2="154.1"/>
	<line class="st0" x1="285.6" y1="175.8" x2="334.8" y2="198"/>
	<line class="st0" x1="283.1" y1="54.5" x2="276.7" y2="76.2"/>
	<line class="st0" x1="130.1" y1="119.5" x2="184.6" y2="130.7"/>
	<line class="st0" x1="130.1" y1="119.5" x2="98.6" y2="169.2"/>
	<line class="st0" x1="130.1" y1="119.5" x2="174.3" y2="92.1"/>
	<line class="st0" x1="130.1" y1="119.5" x2="175.7" y2="153.3"/>
	<line class="st0" x1="130.1" y1="119.5" x2="167.4" y2="172"/>
	<line class="st0" x1="130.1" y1="119.5" x2="91.1" y2="133.4"/>
	<line class="st0" x1="130.1" y1="119.5" x2="143.3" y2="171.7"/>
	<line class="st0" x1="130.1" y1="119.5" x2="75.5" y2="79"/>
	<line class="st0" x1="194.2" y1="57.8" x2="184.6" y2="130.7"/>
	<line class="st0" x1="194.2" y1="57.8" x2="190.2" y2="167.8"/>
	<line class="st0" x1="194.2" y1="57.8" x2="196.6" y2="15"/>
	<line class="st0" x1="194.2" y1="57.8" x2="204.8" y2="36.5"/>
	<line class="st0" x1="194.2" y1="57.8" x2="152.7" y2="14.2"/>
	<line class="st0" x1="194.2" y1="57.8" x2="255.1" y2="81.8"/>
	<line class="st0" x1="194.2" y1="57.8" x2="125.6" y2="43.5"/>
	<line class="st0" x1="194.2" y1="57.8" x2="218.6" y2="19.7"/>
	<line class="st0" x1="194.2" y1="57.8" x2="175.2" y2="13.9"/>
	<line class="st0" x1="102" y1="266.4" x2="136" y2="288.8"/>
	<line class="st0" x1="102" y1="266.4" x2="134.2" y2="229.2"/>
	<line class="st0" x1="182.7" y1="215.1" x2="166.4" y2="256.2"/>
	<line class="st0" x1="182.7" y1="215.1" x2="81.3" y2="190.2"/>
	<line class="st0" x1="182.7" y1="215.1" x2="190.2" y2="167.8"/>
	<line class="st0" x1="182.7" y1="215.1" x2="262" y2="190.8"/>
	<line class="st0" x1="182.7" y1="215.1" x2="197.5" y2="145.5"/>
	<line class="st0" x1="182.7" y1="215.1" x2="176.7" y2="292.8"/>
	<line class="st0" x1="217.7" y1="138.7" x2="184.6" y2="130.7"/>
	<line class="st0" x1="217.7" y1="138.7" x2="261.6" y2="127"/>
	<line class="st0" x1="217.7" y1="138.7" x2="274.4" y2="229.1"/>
	<line class="st0" x1="217.7" y1="138.7" x2="190.2" y2="167.8"/>
	<line class="st0" x1="217.7" y1="138.7" x2="114" y2="131.2"/>
	<line class="st0" x1="217.7" y1="138.7" x2="174.3" y2="92.1"/>
	<line class="st0" x1="217.7" y1="138.7" x2="197.5" y2="145.5"/>
	<line class="st0" x1="217.7" y1="138.7" x2="167.4" y2="172"/>
	<line class="st0" x1="217.7" y1="138.7" x2="215.9" y2="100.6"/>
	<line class="st0" x1="217.7" y1="138.7" x2="288.2" y2="133.2"/>
	<line class="st0" x1="217.7" y1="138.7" x2="279.7" y2="114.6"/>
	<line class="st0" x1="146.1" y1="334.3" x2="174.1" y2="273.7"/>
	<line class="st0" x1="319" y1="185" x2="262" y2="190.8"/>
	<line class="st0" x1="60.3" y1="142" x2="44" y2="129.1"/>
	<line class="st0" x1="60.3" y1="142" x2="103.7" y2="150.4"/>
	<line class="st0" x1="60.3" y1="142" x2="91.1" y2="133.4"/>
	<line class="st0" x1="60.3" y1="142" x2="94.4" y2="204.3"/>
	<line class="st0" x1="60.3" y1="142" x2="21.2" y2="128"/>
	<line class="st0" x1="221.5" y1="264.7" x2="134.2" y2="229.2"/>
	<line class="st0" x1="221.5" y1="264.7" x2="261.4" y2="213.3"/>
	<line class="st0" x1="221.5" y1="264.7" x2="257.6" y2="291.9"/>
	<line class="st0" x1="267.4" y1="168.6" x2="268.4" y2="251"/>
	<line class="st0" x1="267.4" y1="168.6" x2="262" y2="190.8"/>
	<line class="st0" x1="267.4" y1="168.6" x2="203.1" y2="119.2"/>
	<line class="st0" x1="267.4" y1="168.6" x2="250.9" y2="155.3"/>
	<line class="st0" x1="168.9" y1="336.1" x2="166.4" y2="256.2"/>
	<line class="st0" x1="199.5" y1="315.6" x2="166.4" y2="256.2"/>
	<line class="st0" x1="117.4" y1="85.2" x2="114" y2="131.2"/>
	<line class="st0" x1="117.4" y1="85.2" x2="140.3" y2="78.6"/>
	<line class="st0" x1="224.1" y1="81.4" x2="276.7" y2="76.2"/>
	<line class="st0" x1="224.1" y1="81.4" x2="167.4" y2="172"/>
	<line class="st0" x1="224.1" y1="81.4" x2="244.5" y2="46.5"/>
	<line class="st0" x1="224.1" y1="81.4" x2="261.9" y2="60.4"/>
	<line class="st0" x1="116.9" y1="207.7" x2="90.4" y2="223.3"/>
	<line class="st0" x1="116.9" y1="207.7" x2="166.4" y2="256.2"/>
	<line class="st0" x1="116.9" y1="207.7" x2="114" y2="131.2"/>
	<line class="st0" x1="116.9" y1="207.7" x2="98.6" y2="169.2"/>
	<line class="st0" x1="116.9" y1="207.7" x2="167.4" y2="172"/>
	<line class="st0" x1="116.9" y1="207.7" x2="161.4" y2="217.2"/>
	<line class="st0" x1="116.9" y1="207.7" x2="103.7" y2="150.4"/>
	<line class="st0" x1="116.9" y1="207.7" x2="119.1" y2="248.5"/>
	<line class="st0" x1="236.8" y1="222.2" x2="174.1" y2="273.7"/>
	<line class="st0" x1="236.8" y1="222.2" x2="166.4" y2="256.2"/>
	<line class="st0" x1="236.8" y1="222.2" x2="289.1" y2="155.5"/>
	<line class="st0" x1="236.8" y1="222.2" x2="261.4" y2="213.3"/>
	<line class="st0" x1="236.8" y1="222.2" x2="175.7" y2="153.3"/>
	<line class="st0" x1="154.9" y1="98.6" x2="184.6" y2="130.7"/>
	<line class="st0" x1="154.9" y1="98.6" x2="175.7" y2="153.3"/>
	<line class="st0" x1="154.9" y1="98.6" x2="167.4" y2="172"/>
	<line class="st0" x1="154.9" y1="98.6" x2="143.3" y2="171.7"/>
	<line class="st0" x1="154.9" y1="98.6" x2="163.8" y2="33.9"/>
	<line class="st0" x1="154.9" y1="98.6" x2="143.4" y2="34.3"/>
	<line class="st0" x1="51.6" y1="109.5" x2="114" y2="131.2"/>
	<line class="st0" x1="51.6" y1="109.5" x2="51.2" y2="69.7"/>
	<line class="st0" x1="51.6" y1="109.5" x2="56.8" y2="89"/>
	<line class="st0" x1="51.6" y1="109.5" x2="36.1" y2="89.8"/>
	<line class="st0" x1="125.9" y1="63.8" x2="203.1" y2="119.2"/>
	<line class="st0" x1="125.9" y1="63.8" x2="107.3" y2="28"/>
	<line class="st0" x1="125.9" y1="63.8" x2="128" y2="19.5"/>
	<line class="st0" x1="125.9" y1="63.8" x2="92.7" y2="113.3"/>
	<line class="st0" x1="125.9" y1="63.8" x2="86.2" y2="38.4"/>
	<line class="st0" x1="247.5" y1="258.1" x2="201.8" y2="206.4"/>
	<line class="st0" x1="247.5" y1="258.1" x2="283.9" y2="265.9"/>
	<line class="st0" x1="138" y1="139.8" x2="90.4" y2="223.3"/>
	<line class="st0" x1="138" y1="139.8" x2="124.5" y2="153.1"/>
	<line class="st0" x1="138" y1="139.8" x2="201.8" y2="206.4"/>
	<line class="st0" x1="138" y1="139.8" x2="114" y2="131.2"/>
	<line class="st0" x1="138" y1="139.8" x2="197.5" y2="145.5"/>
	<line class="st0" x1="138" y1="139.8" x2="103" y2="71.7"/>
	<line class="st0" x1="142.7" y1="210.1" x2="166.4" y2="256.2"/>
	<line class="st0" x1="142.7" y1="210.1" x2="124.5" y2="153.1"/>
	<line class="st0" x1="142.7" y1="210.1" x2="190.2" y2="167.8"/>
	<line class="st0" x1="142.7" y1="210.1" x2="161.4" y2="217.2"/>
	<line class="st0" x1="142.7" y1="210.1" x2="198.7" y2="273.1"/>
	<line class="st0" x1="142.7" y1="210.1" x2="91.1" y2="133.4"/>
	<line class="st0" x1="142.7" y1="210.1" x2="143.3" y2="171.7"/>
	<line class="st0" x1="142.7" y1="210.1" x2="113.1" y2="283.7"/>
	<line class="st0" x1="142.7" y1="210.1" x2="173" y2="114.3"/>
	<line class="st0" x1="142.7" y1="210.1" x2="126.7" y2="268.3"/>
	<line class="st0" x1="230.8" y1="157" x2="184.6" y2="130.7"/>
	<line class="st0" x1="230.8" y1="157" x2="261.6" y2="127"/>
	<line class="st0" x1="230.8" y1="157" x2="166.4" y2="256.2"/>
	<line class="st0" x1="230.8" y1="157" x2="289.1" y2="155.5"/>
	<line class="st0" x1="230.8" y1="157" x2="250.9" y2="155.3"/>
	<line class="st0" x1="230.8" y1="157" x2="265.2" y2="100.2"/>
	<line class="st0" x1="163.2" y1="136.7" x2="184.6" y2="130.7"/>
	<line class="st0" x1="163.2" y1="136.7" x2="152.6" y2="189.7"/>
	<line class="st0" x1="163.2" y1="136.7" x2="140.3" y2="78.6"/>
	<line class="st0" x1="163.2" y1="136.7" x2="103.7" y2="150.4"/>
	<line class="st0" x1="163.2" y1="136.7" x2="143.3" y2="171.7"/>
	<line class="st0" x1="163.2" y1="136.7" x2="227.7" y2="180"/>
	<line class="st0" x1="163.2" y1="136.7" x2="187.2" y2="187.7"/>
	<line class="st0" x1="188.5" y1="255.7" x2="166.4" y2="256.2"/>
	<line class="st0" x1="188.5" y1="255.7" x2="167.4" y2="172"/>
	<line class="st0" x1="188.5" y1="255.7" x2="161.4" y2="217.2"/>
	<line class="st0" x1="188.5" y1="255.7" x2="198.7" y2="273.1"/>
	<line class="st0" x1="188.5" y1="255.7" x2="213.9" y2="331.7"/>
	<line class="st0" x1="246.5" y1="113.4" x2="203.1" y2="119.2"/>
	<line class="st0" x1="246.5" y1="113.4" x2="239.1" y2="66.7"/>
	<line class="st0" x1="246.5" y1="113.4" x2="250.9" y2="155.3"/>
	<line class="st0" x1="246.5" y1="113.4" x2="209.2" y2="184.7"/>
	<line class="st0" x1="310.1" y1="127.8" x2="289.1" y2="155.5"/>
	<line class="st0" x1="190.5" y1="335.1" x2="166.4" y2="256.2"/>
	<line class="st0" x1="190.5" y1="335.1" x2="176.7" y2="292.8"/>
	<line class="st0" x1="58.5" y1="253" x2="134.2" y2="229.2"/>
	<line class="st0" x1="58.5" y1="253" x2="22.7" y2="234.5"/>
	<line class="st0" x1="119.8" y1="306" x2="166.4" y2="256.2"/>
	<line class="st0" x1="119.8" y1="306" x2="101.9" y2="321.1"/>
	<line class="st0" x1="241.3" y1="135.7" x2="175.7" y2="153.3"/>
	<line class="st0" x1="241.3" y1="135.7" x2="288.2" y2="133.2"/>
	<line class="st0" x1="73.9" y1="103.3" x2="124.5" y2="153.1"/>
	<line class="st0" x1="303.1" y1="274.3" x2="274.4" y2="229.1"/>
	<line class="st0" x1="287.8" y1="93" x2="261.6" y2="127"/>
	<line class="st0" x1="289.6" y1="244.3" x2="201.8" y2="206.4"/>
	<line class="st0" x1="301.5" y1="109.3" x2="323.5" y2="109.7"/>
	<line class="st0" x1="179.2" y1="314.5" x2="166.4" y2="256.2"/>
	<line class="st0" x1="48.9" y1="275.3" x2="90.4" y2="223.3"/>
	<line class="st0" x1="298.7" y1="71.5" x2="276.7" y2="76.2"/>
	<line class="st0" x1="217.7" y1="286" x2="166.4" y2="256.2"/>
	<line class="st0" x1="237.1" y1="298.7" x2="174.1" y2="273.7"/>
	<line class="st0" x1="237.1" y1="298.7" x2="268.4" y2="251"/>
	<line class="st0" x1="309.1" y1="255.3" x2="261.4" y2="213.3"/>
	<line class="st0" x1="80.2" y1="151.1" x2="161.4" y2="217.2"/>
	<line class="st0" x1="80.2" y1="151.1" x2="103.7" y2="150.4"/>
	<line class="st0" x1="202.2" y1="81.2" x2="184.6" y2="130.7"/>
	<line class="st0" x1="139.5" y1="311.7" x2="166.4" y2="256.2"/>
	<line class="st0" x1="152.8" y1="155.4" x2="166.4" y2="256.2"/>
	<line class="st0" x1="152.8" y1="155.4" x2="203.1" y2="119.2"/>
	<line class="st0" x1="240.2" y1="26.1" x2="263.9" y2="38.5"/>
	<line class="st0" x1="240.2" y1="26.1" x2="218.6" y2="19.7"/>
	<line class="st0" x1="134.2" y1="99.2" x2="175.7" y2="153.3"/>
	<line class="st0" x1="124.5" y1="327.9" x2="166.4" y2="256.2"/>
	<line class="st0" x1="328.7" y1="219.6" x2="261.4" y2="213.3"/>
	<line class="st0" x1="331.4" y1="132.8" x2="323.5" y2="109.7"/>
	<line class="st0" x1="336.8" y1="173.4" x2="331.2" y2="154.1"/>
	<line class="st0" x1="42.4" y1="239.1" x2="94.4" y2="204.3"/>
	<line class="st0" x1="16" y1="210.7" x2="13.2" y2="187.8"/>
	<line class="st0" x1="86.8" y1="282.7" x2="134.2" y2="229.2"/>
	<line class="st0" x1="279" y1="199.5" x2="305.6" y2="229.2"/>
	<line class="st0" x1="279" y1="199.5" x2="190.2" y2="167.8"/>
	<line class="st0" x1="156.3" y1="294.4" x2="166.4" y2="256.2"/>
	<line class="st0" x1="159.3" y1="316.3" x2="166.4" y2="256.2"/>
	<line class="st0" x1="238.8" y1="95.2" x2="184.6" y2="130.7"/>
	<line class="st0" x1="182.2" y1="73.7" x2="184.6" y2="130.7"/>
	<line class="st0" x1="231" y1="244.8" x2="187.2" y2="187.7"/>
	<path d="M143.4,252.1c0-1.1-0.9-1.9-1.9-1.9c-1.1,0-1.9,0.9-1.9,1.9c0,1.1,0.9,1.9,1.9,1.9C142.5,254.1,143.4,253.2,143.4,252.1"/>
	<path d="M176,273.7c0-1.1-0.9-1.9-1.9-1.9c-1.1,0-1.9,0.9-1.9,1.9c0,1.1,0.9,1.9,1.9,1.9C175.1,275.6,176,274.8,176,273.7"/>
	<path d="M79.8,170.9c0-1.1-0.9-1.9-1.9-1.9c-1.1,0-1.9,0.9-1.9,1.9c0,1.1,0.9,1.9,1.9,1.9C78.9,172.8,79.8,171.9,79.8,170.9"/>
	<path d="M186.6,130.7c0-1.1-0.9-1.9-1.9-1.9c-1.1,0-1.9,0.9-1.9,1.9c0,1.1,0.9,1.9,1.9,1.9C185.7,132.7,186.6,131.8,186.6,130.7"/>
	<path d="M194.6,101.4c0-1.1-0.9-1.9-1.9-1.9c-1.1,0-1.9,0.9-1.9,1.9s0.9,1.9,1.9,1.9C193.7,103.4,194.6,102.5,194.6,101.4"/>
	<path d="M225.9,43.5c0-1.1-0.9-1.9-1.9-1.9c-1.1,0-1.9,0.9-1.9,1.9c0,1.1,0.9,1.9,1.9,1.9C225,45.4,225.9,44.6,225.9,43.5"/>
	<path d="M219.1,226.2c0-1.1-0.9-1.9-1.9-1.9c-1.1,0-1.9,0.9-1.9,1.9c0,1.1,0.9,1.9,1.9,1.9C218.2,228.1,219.1,227.2,219.1,226.2"/>
	<path d="M292.6,216.3c0-1.1-0.9-1.9-1.9-1.9c-1.1,0-1.9,0.9-1.9,1.9c0,1.1,0.9,1.9,1.9,1.9C291.8,218.3,292.6,217.4,292.6,216.3"/>
	<path d="M173.2,53.8c0-1.1-0.9-1.9-1.9-1.9c-1.1,0-1.9,0.9-1.9,1.9c0,1.1,0.9,1.9,1.9,1.9C172.4,55.7,173.2,54.8,173.2,53.8"/>
	<path d="M299.9,190.8c0-1.1-0.9-1.9-1.9-1.9c-1.1,0-1.9,0.9-1.9,1.9c0,1.1,0.9,1.9,1.9,1.9C299.1,192.7,299.9,191.9,299.9,190.8"/>
	<path d="M263.6,127c0-1.1-0.9-1.9-1.9-1.9c-1.1,0-1.9,0.9-1.9,1.9c0,1.1,0.9,1.9,1.9,1.9C262.7,128.9,263.6,128,263.6,127"/>
	<path d="M241.7,277.1c0-1.1-0.9-1.9-1.9-1.9c-1.1,0-1.9,0.9-1.9,1.9c0,1.1,0.9,1.9,1.9,1.9C240.8,279,241.7,278.2,241.7,277.1"/>
	<path d="M274.9,304.4c0-1.1-0.9-1.9-1.9-1.9c-1.1,0-1.9,0.9-1.9,1.9c0,1.1,0.9,1.9,1.9,1.9C274,306.3,274.9,305.5,274.9,304.4"/>
	<path d="M92.4,223.3c0-1.1-0.9-1.9-1.9-1.9c-1.1,0-1.9,0.9-1.9,1.9c0,1.1,0.9,1.9,1.9,1.9C91.5,225.3,92.4,224.4,92.4,223.3"/>
	<path d="M113.3,106c0-1.1-0.9-1.9-1.9-1.9c-1.1,0-1.9,0.9-1.9,1.9c0,1.1,0.9,1.9,1.9,1.9C112.4,107.9,113.3,107.1,113.3,106"/>
	<path d="M87.2,60.6c0-1.1-0.9-1.9-1.9-1.9c-1.1,0-1.9,0.9-1.9,1.9c0,1.1,0.9,1.9,1.9,1.9C86.4,62.5,87.2,61.6,87.2,60.6"/>
	<path d="M209.8,249c0-1.1-0.9-1.9-1.9-1.9c-1.1,0-1.9,0.9-1.9,1.9c0,1.1,0.9,1.9,1.9,1.9C208.9,250.9,209.8,250.1,209.8,249"/>
	<path d="M255,235.3c0-1.1-0.9-1.9-1.9-1.9c-1.1,0-1.9,0.9-1.9,1.9c0,1.1,0.9,1.9,1.9,1.9C254.1,237.3,255,236.4,255,235.3"/>
	<path d="M288.2,288.5c0-1.1-0.9-1.9-1.9-1.9c-1.1,0-1.9,0.9-1.9,1.9c0,1.1,0.9,1.9,1.9,1.9C287.4,290.4,288.2,289.6,288.2,288.5"/>
	<path d="M270.3,251c0-1.1-0.9-1.9-1.9-1.9c-1.1,0-1.9,0.9-1.9,1.9c0,1.1,0.9,1.9,1.9,1.9C269.4,253,270.3,252.1,270.3,251"/>
	<path d="M137.9,288.8c0-1.1-0.9-1.9-1.9-1.9c-1.1,0-1.9,0.9-1.9,1.9c0,1.1,0.9,1.9,1.9,1.9C137,290.8,137.9,289.9,137.9,288.8"/>
	<path d="M200.1,230.4c0-1.1-0.9-1.9-1.9-1.9c-1.1,0-1.9,0.9-1.9,1.9c0,1.1,0.9,1.9,1.9,1.9C199.3,232.4,200.1,231.5,200.1,230.4"/>
	<path d="M168.4,256.2c0-1.1-0.9-1.9-1.9-1.9c-1.1,0-1.9,0.9-1.9,1.9c0,1.1,0.9,1.9,1.9,1.9C167.5,258.1,168.4,257.3,168.4,256.2"/>
	<path d="M109.2,187.5c0-1.1-0.9-1.9-1.9-1.9c-1.1,0-1.9,0.9-1.9,1.9c0,1.1,0.9,1.9,1.9,1.9C108.3,189.5,109.2,188.6,109.2,187.5"/>
	<path d="M126.5,153.1c0-1.1-0.9-1.9-1.9-1.9c-1.1,0-1.9,0.9-1.9,1.9c0,1.1,0.9,1.9,1.9,1.9C125.6,155.1,126.5,154.2,126.5,153.1"/>
	<path d="M243.5,201.5c0-1.1-0.9-1.9-1.9-1.9s-1.9,0.9-1.9,1.9c0,1.1,0.9,1.9,1.9,1.9S243.5,202.5,243.5,201.5"/>
	<path d="M307.6,229.2c0-1.1-0.9-1.9-1.9-1.9c-1.1,0-1.9,0.9-1.9,1.9c0,1.1,0.9,1.9,1.9,1.9C306.7,231.2,307.6,230.3,307.6,229.2"/>
	<path d="M324.9,240.9c0-1.1-0.9-1.9-1.9-1.9c-1.1,0-1.9,0.9-1.9,1.9c0,1.1,0.9,1.9,1.9,1.9C324,242.8,324.9,241.9,324.9,240.9"/>
	<path d="M276.3,229.1c0-1.1-0.9-1.9-1.9-1.9c-1.1,0-1.9,0.9-1.9,1.9c0,1.1,0.9,1.9,1.9,1.9C275.5,231,276.3,230.2,276.3,229.1"/>
	<path d="M266.7,273.4c0-1.1-0.9-1.9-1.9-1.9c-1.1,0-1.9,0.9-1.9,1.9c0,1.1,0.9,1.9,1.9,1.9C265.9,275.3,266.7,274.5,266.7,273.4"/>
	<path d="M220.2,307.9c0-1.1-0.9-1.9-1.9-1.9c-1.1,0-1.9,0.9-1.9,1.9c0,1.1,0.9,1.9,1.9,1.9C219.4,309.8,220.2,308.9,220.2,307.9"/>
	<path d="M153.8,120.7c0-1.1-0.9-1.9-1.9-1.9c-1.1,0-1.9,0.9-1.9,1.9c0,1.1,0.9,1.9,1.9,1.9C152.9,122.7,153.8,121.8,153.8,120.7"/>
	<path d="M34.5,192.3c0-1.1-0.9-1.9-1.9-1.9c-1.1,0-1.9,0.9-1.9,1.9c0,1.1,0.9,1.9,1.9,1.9C33.6,194.3,34.5,193.4,34.5,192.3"/>
	<path d="M83.2,190.2c0-1.1-0.9-1.9-1.9-1.9c-1.1,0-1.9,0.9-1.9,1.9c0,1.1,0.9,1.9,1.9,1.9C82.3,192.2,83.2,191.3,83.2,190.2"/>
	<path d="M132.5,194c0-1.1-0.9-1.9-1.9-1.9c-1.1,0-1.9,0.9-1.9,1.9c0,1.1,0.9,1.9,1.9,1.9C131.6,195.9,132.5,195,132.5,194"/>
	<path d="M75.2,236.2c0-1.1-0.9-1.9-1.9-1.9c-1.1,0-1.9,0.9-1.9,1.9c0,1.1,0.9,1.9,1.9,1.9C74.3,238.2,75.2,237.3,75.2,236.2"/>
	<path d="M172.9,197.9c0-1.1-0.9-1.9-1.9-1.9c-1.1,0-1.9,0.9-1.9,1.9c0,1.1,0.9,1.9,1.9,1.9C172,199.9,172.9,199,172.9,197.9"/>
	<path d="M203.7,206.4c0-1.1-0.9-1.9-1.9-1.9c-1.1,0-1.9,0.9-1.9,1.9c0,1.1,0.9,1.9,1.9,1.9C202.9,208.4,203.7,207.5,203.7,206.4"/>
	<path d="M37.9,149c0-1.1-0.9-1.9-1.9-1.9c-1.1,0-1.9,0.9-1.9,1.9c0,1.1,0.9,1.9,1.9,1.9C37.1,151,37.9,150.1,37.9,149"/>
	<path d="M30.2,109.4c0-1.1-0.9-1.9-1.9-1.9c-1.1,0-1.9,0.9-1.9,1.9c0,1.1,0.9,1.9,1.9,1.9C29.3,111.4,30.2,110.5,30.2,109.4"/>
	<path d="M124.9,173.3c0-1.1-0.9-1.9-1.9-1.9c-1.1,0-1.9,0.9-1.9,1.9s0.9,1.9,1.9,1.9C124.1,175.3,124.9,174.4,124.9,173.3"/>
	<path d="M192.1,167.8c0-1.1-0.9-1.9-1.9-1.9c-1.1,0-1.9,0.9-1.9,1.9c0,1.1,0.9,1.9,1.9,1.9C191.3,169.8,192.1,168.9,192.1,167.8"/>
	<path d="M312.7,89.7c0-1.1-0.9-1.9-1.9-1.9c-1.1,0-1.9,0.9-1.9,1.9c0,1.1,0.9,1.9,1.9,1.9C311.9,91.6,312.7,90.7,312.7,89.7"/>
	<path d="M278.7,76.2c0-1.1-0.9-1.9-1.9-1.9c-1.1,0-1.9,0.9-1.9,1.9c0,1.1,0.9,1.9,1.9,1.9C277.8,78.1,278.7,77.3,278.7,76.2"/>
	<path d="M115.8,227c0-1.1-0.9-1.9-1.9-1.9c-1.1,0-1.9,0.9-1.9,1.9c0,1.1,0.9,1.9,1.9,1.9C114.9,228.9,115.8,228,115.8,227"/>
	<path d="M72.8,209.7c0-1.1-0.9-1.9-1.9-1.9c-1.1,0-1.9,0.9-1.9,1.9c0,1.1,0.9,1.9,1.9,1.9C72,211.6,72.8,210.7,72.8,209.7"/>
	<path d="M271.4,145.1c0-1.1-0.9-1.9-1.9-1.9c-1.1,0-1.9,0.9-1.9,1.9c0,1.1,0.9,1.9,1.9,1.9C270.5,147.1,271.4,146.2,271.4,145.1"/>
	<path d="M291,155.5c0-1.1-0.9-1.9-1.9-1.9c-1.1,0-1.9,0.9-1.9,1.9c0,1.1,0.9,1.9,1.9,1.9C290.1,157.4,291,156.6,291,155.5"/>
	<path d="M212.7,162.4c0-1.1-0.9-1.9-1.9-1.9c-1.1,0-1.9,0.9-1.9,1.9c0,1.1,0.9,1.9,1.9,1.9C211.8,164.3,212.7,163.5,212.7,162.4"/>
	<path d="M72.3,270.9c0-1.1-0.9-1.9-1.9-1.9c-1.1,0-1.9,0.9-1.9,1.9c0,1.1,0.9,1.9,1.9,1.9C71.4,272.9,72.3,272,72.3,270.9"/>
	<path d="M37,258.7c0-1.1-0.9-1.9-1.9-1.9c-1.1,0-1.9,0.9-1.9,1.9c0,1.1,0.9,1.9,1.9,1.9C36.1,260.6,37,259.8,37,258.7"/>
	<path d="M116,131.2c0-1.1-0.9-1.9-1.9-1.9c-1.1,0-1.9,0.9-1.9,1.9c0,1.1,0.9,1.9,1.9,1.9C115.1,133.1,116,132.3,116,131.2"/>
	<path d="M287.6,175.8c0-1.1-0.9-1.9-1.9-1.9c-1.1,0-1.9,0.9-1.9,1.9c0,1.1,0.9,1.9,1.9,1.9C286.7,177.7,287.6,176.9,287.6,175.8"/>
	<path d="M263.9,190.8c0-1.1-0.9-1.9-1.9-1.9c-1.1,0-1.9,0.9-1.9,1.9c0,1.1,0.9,1.9,1.9,1.9C263,192.8,263.9,191.9,263.9,190.8"/>
	<path d="M285,54.5c0-1.1-0.9-1.9-1.9-1.9c-1.1,0-1.9,0.9-1.9,1.9c0,1.1,0.9,1.9,1.9,1.9C284.2,56.5,285,55.6,285,54.5"/>
	<path d="M132,119.5c0-1.1-0.9-1.9-1.9-1.9c-1.1,0-1.9,0.9-1.9,1.9c0,1.1,0.9,1.9,1.9,1.9C131.2,121.4,132,120.6,132,119.5"/>
	<path d="M100.5,169.2c0-1.1-0.9-1.9-1.9-1.9s-1.9,0.9-1.9,1.9c0,1.1,0.9,1.9,1.9,1.9S100.5,170.2,100.5,169.2"/>
	<path d="M196.1,57.8c0-1.1-0.9-1.9-1.9-1.9c-1.1,0-1.9,0.9-1.9,1.9c0,1.1,0.9,1.9,1.9,1.9C195.3,59.8,196.1,58.9,196.1,57.8"/>
	<path d="M198.5,15c0-1.1-0.9-1.9-1.9-1.9c-1.1,0-1.9,0.9-1.9,1.9c0,1.1,0.9,1.9,1.9,1.9C197.7,17,198.5,16.1,198.5,15"/>
	<path d="M103.9,266.4c0-1.1-0.9-1.9-1.9-1.9c-1.1,0-1.9,0.9-1.9,1.9c0,1.1,0.9,1.9,1.9,1.9C103.1,268.3,103.9,267.5,103.9,266.4"/>
	<path d="M136.1,229.2c0-1.1-0.9-1.9-1.9-1.9c-1.1,0-1.9,0.9-1.9,1.9c0,1.1,0.9,1.9,1.9,1.9C135.3,231.2,136.1,230.3,136.1,229.2"/>
	<path d="M184.7,215.1c0-1.1-0.9-1.9-1.9-1.9c-1.1,0-1.9,0.9-1.9,1.9c0,1.1,0.9,1.9,1.9,1.9C183.8,217.1,184.7,216.2,184.7,215.1"/>
	<path d="M219.7,138.7c0-1.1-0.9-1.9-1.9-1.9c-1.1,0-1.9,0.9-1.9,1.9s0.9,1.9,1.9,1.9C218.8,140.6,219.7,139.7,219.7,138.7"/>
	<path d="M176.2,92.1c0-1.1-0.9-1.9-1.9-1.9c-1.1,0-1.9,0.9-1.9,1.9c0,1.1,0.9,1.9,1.9,1.9C175.4,94.1,176.2,93.2,176.2,92.1"/>
	<path d="M148.1,334.3c0-1.1-0.9-1.9-1.9-1.9c-1.1,0-1.9,0.9-1.9,1.9c0,1.1,0.9,1.9,1.9,1.9C147.2,336.3,148.1,335.4,148.1,334.3"/>
	<path d="M206.7,36.5c0-1.1-0.9-1.9-1.9-1.9c-1.1,0-1.9,0.9-1.9,1.9c0,1.1,0.9,1.9,1.9,1.9C205.8,38.5,206.7,37.6,206.7,36.5"/>
	<path d="M320.9,185c0-1.1-0.9-1.9-1.9-1.9s-1.9,0.9-1.9,1.9c0,1.1,0.9,1.9,1.9,1.9S320.9,186.1,320.9,185"/>
	<path d="M62.2,142c0-1.1-0.9-1.9-1.9-1.9c-1.1,0-1.9,0.9-1.9,1.9s0.9,1.9,1.9,1.9C61.4,143.9,62.2,143.1,62.2,142"/>
	<path d="M46,129.1c0-1.1-0.9-1.9-1.9-1.9c-1.1,0-1.9,0.9-1.9,1.9c0,1.1,0.9,1.9,1.9,1.9C45.1,131,46,130.1,46,129.1"/>
	<path d="M100.9,242.4c0-1.1-0.9-1.9-1.9-1.9c-1.1,0-1.9,0.9-1.9,1.9c0,1.1,0.9,1.9,1.9,1.9C100.1,244.4,100.9,243.5,100.9,242.4"/>
	<path d="M223.4,264.7c0-1.1-0.9-1.9-1.9-1.9c-1.1,0-1.9,0.9-1.9,1.9c0,1.1,0.9,1.9,1.9,1.9C222.6,266.6,223.4,265.8,223.4,264.7"/>
	<path d="M263.3,213.3c0-1.1-0.9-1.9-1.9-1.9c-1.1,0-1.9,0.9-1.9,1.9c0,1.1,0.9,1.9,1.9,1.9C262.5,215.2,263.3,214.4,263.3,213.3"/>
	<path d="M199.5,145.5c0-1.1-0.9-1.9-1.9-1.9c-1.1,0-1.9,0.9-1.9,1.9c0,1.1,0.9,1.9,1.9,1.9C198.6,147.4,199.5,146.5,199.5,145.5"/>
	<path d="M269.4,168.6c0-1.1-0.9-1.9-1.9-1.9c-1.1,0-1.9,0.9-1.9,1.9c0,1.1,0.9,1.9,1.9,1.9C268.5,170.5,269.4,169.6,269.4,168.6"/>
	<path d="M170.8,336.1c0-1.1-0.9-1.9-1.9-1.9c-1.1,0-1.9,0.9-1.9,1.9c0,1.1,0.9,1.9,1.9,1.9C170,338,170.8,337.1,170.8,336.1"/>
	<path d="M154.5,189.7c0-1.1-0.9-1.9-1.9-1.9c-1.1,0-1.9,0.9-1.9,1.9c0,1.1,0.9,1.9,1.9,1.9C153.7,191.6,154.5,190.8,154.5,189.7"/>
	<path d="M201.4,315.6c0-1.1-0.9-1.9-1.9-1.9c-1.1,0-1.9,0.9-1.9,1.9c0,1.1,0.9,1.9,1.9,1.9C200.6,317.5,201.4,316.7,201.4,315.6"/>
	<path d="M119.4,85.2c0-1.1-0.9-1.9-1.9-1.9c-1.1,0-1.9,0.9-1.9,1.9c0,1.1,0.9,1.9,1.9,1.9C118.5,87.1,119.4,86.3,119.4,85.2"/>
	<path d="M142.2,78.6c0-1.1-0.9-1.9-1.9-1.9c-1.1,0-1.9,0.9-1.9,1.9c0,1.1,0.9,1.9,1.9,1.9C141.3,80.5,142.2,79.6,142.2,78.6"/>
	<path d="M226,81.4c0-1.1-0.9-1.9-1.9-1.9c-1.1,0-1.9,0.9-1.9,1.9c0,1.1,0.9,1.9,1.9,1.9C225.2,83.3,226,82.5,226,81.4"/>
	<path d="M118.9,207.7c0-1.1-0.9-1.9-1.9-1.9c-1.1,0-1.9,0.9-1.9,1.9c0,1.1,0.9,1.9,1.9,1.9C118,209.6,118.9,208.8,118.9,207.7"/>
	<path d="M238.7,222.2c0-1.1-0.9-1.9-1.9-1.9c-1.1,0-1.9,0.9-1.9,1.9c0,1.1,0.9,1.9,1.9,1.9C237.8,224.1,238.7,223.3,238.7,222.2"/>
	<path d="M177.6,153.3c0-1.1-0.9-1.9-1.9-1.9c-1.1,0-1.9,0.9-1.9,1.9c0,1.1,0.9,1.9,1.9,1.9C176.8,155.2,177.6,154.3,177.6,153.3"/>
	<path d="M156.8,98.6c0-1.1-0.9-1.9-1.9-1.9s-1.9,0.9-1.9,1.9c0,1.1,0.9,1.9,1.9,1.9S156.8,99.7,156.8,98.6"/>
	<path d="M169.3,172c0-1.1-0.9-1.9-1.9-1.9c-1.1,0-1.9,0.9-1.9,1.9c0,1.1,0.9,1.9,1.9,1.9C168.4,174,169.3,173.1,169.3,172"/>
	<path d="M53.5,109.5c0-1.1-0.9-1.9-1.9-1.9c-1.1,0-1.9,0.9-1.9,1.9c0,1.1,0.9,1.9,1.9,1.9C52.6,111.4,53.5,110.6,53.5,109.5"/>
	<path d="M53.1,69.7c0-1.1-0.9-1.9-1.9-1.9c-1.1,0-1.9,0.9-1.9,1.9c0,1.1,0.9,1.9,1.9,1.9C52.2,71.6,53.1,70.7,53.1,69.7"/>
	<path d="M15.1,187.8c0-1.1-0.9-1.9-1.9-1.9c-1.1,0-1.9,0.9-1.9,1.9c0,1.1,0.9,1.9,1.9,1.9C14.2,189.8,15.1,188.9,15.1,187.8"/>
	<path d="M17.3,147.7c0-1.1-0.9-1.9-1.9-1.9c-1.1,0-1.9,0.9-1.9,1.9c0,1.1,0.9,1.9,1.9,1.9C16.5,149.6,17.3,148.8,17.3,147.7"/>
	<path d="M223.9,204.1c0-1.1-0.9-1.9-1.9-1.9c-1.1,0-1.9,0.9-1.9,1.9c0,1.1,0.9,1.9,1.9,1.9C223,206,223.9,205.1,223.9,204.1"/>
	<path d="M179.2,236.7c0-1.1-0.9-1.9-1.9-1.9c-1.1,0-1.9,0.9-1.9,1.9c0,1.1,0.9,1.9,1.9,1.9C178.3,238.6,179.2,237.8,179.2,236.7"/>
	<path d="M127.9,63.8c0-1.1-0.9-1.9-1.9-1.9c-1.1,0-1.9,0.9-1.9,1.9c0,1.1,0.9,1.9,1.9,1.9C127,65.7,127.9,64.8,127.9,63.8"/>
	<path d="M205,119.2c0-1.1-0.9-1.9-1.9-1.9c-1.1,0-1.9,0.9-1.9,1.9c0,1.1,0.9,1.9,1.9,1.9C204.2,121.2,205,120.3,205,119.2"/>
	<path d="M101.2,299.9c0-1.1-0.9-1.9-1.9-1.9c-1.1,0-1.9,0.9-1.9,1.9c0,1.1,0.9,1.9,1.9,1.9C100.4,301.8,101.2,301,101.2,299.9"/>
	<path d="M249.4,258.1c0-1.1-0.9-1.9-1.9-1.9c-1.1,0-1.9,0.9-1.9,1.9c0,1.1,0.9,1.9,1.9,1.9C248.5,260,249.4,259.1,249.4,258.1"/>
	<path d="M285.8,265.9c0-1.1-0.9-1.9-1.9-1.9c-1.1,0-1.9,0.9-1.9,1.9c0,1.1,0.9,1.9,1.9,1.9C285,267.9,285.8,267,285.8,265.9"/>
	<path d="M109.3,28c0-1.1-0.9-1.9-1.9-1.9c-1.1,0-1.9,0.9-1.9,1.9c0,1.1,0.9,1.9,1.9,1.9C108.4,29.9,109.3,29.1,109.3,28"/>
	<path d="M38.2,215.6c0-1.1-0.9-1.9-1.9-1.9c-1.1,0-1.9,0.9-1.9,1.9c0,1.1,0.9,1.9,1.9,1.9C37.3,217.6,38.2,216.7,38.2,215.6"/>
	<path d="M140,139.8c0-1.1-0.9-1.9-1.9-1.9c-1.1,0-1.9,0.9-1.9,1.9c0,1.1,0.9,1.9,1.9,1.9C139.1,141.7,140,140.8,140,139.8"/>
	<path d="M144.7,210.1c0-1.1-0.9-1.9-1.9-1.9c-1.1,0-1.9,0.9-1.9,1.9c0,1.1,0.9,1.9,1.9,1.9C143.8,212,144.7,211.2,144.7,210.1"/>
	<path d="M163.3,217.2c0-1.1-0.9-1.9-1.9-1.9c-1.1,0-1.9,0.9-1.9,1.9c0,1.1,0.9,1.9,1.9,1.9C162.4,219.2,163.3,218.3,163.3,217.2"/>
	<path d="M200.7,273.1c0-1.1-0.9-1.9-1.9-1.9c-1.1,0-1.9,0.9-1.9,1.9c0,1.1,0.9,1.9,1.9,1.9C199.8,275,200.7,274.1,200.7,273.1"/>
	<path d="M232.7,157c0-1.1-0.9-1.9-1.9-1.9s-1.9,0.9-1.9,1.9c0,1.1,0.9,1.9,1.9,1.9S232.7,158.1,232.7,157"/>
	<path d="M161.8,73.6c0-1.1-0.9-1.9-1.9-1.9c-1.1,0-1.9,0.9-1.9,1.9c0,1.1,0.9,1.9,1.9,1.9C160.9,75.5,161.8,74.6,161.8,73.6"/>
	<path d="M165.1,136.7c0-1.1-0.9-1.9-1.9-1.9c-1.1,0-1.9,0.9-1.9,1.9s0.9,1.9,1.9,1.9C164.2,138.6,165.1,137.7,165.1,136.7"/>
	<path d="M105.6,150.4c0-1.1-0.9-1.9-1.9-1.9c-1.1,0-1.9,0.9-1.9,1.9s0.9,1.9,1.9,1.9C104.8,152.3,105.6,151.4,105.6,150.4"/>
	<path d="M190.5,255.7c0-1.1-0.9-1.9-1.9-1.9c-1.1,0-1.9,0.9-1.9,1.9c0,1.1,0.9,1.9,1.9,1.9C189.6,257.7,190.5,256.8,190.5,255.7"/>
	<path d="M248.5,113.4c0-1.1-0.9-1.9-1.9-1.9c-1.1,0-1.9,0.9-1.9,1.9s0.9,1.9,1.9,1.9C247.6,115.4,248.5,114.5,248.5,113.4"/>
	<path d="M241,66.7c0-1.1-0.9-1.9-1.9-1.9c-1.1,0-1.9,0.9-1.9,1.9c0,1.1,0.9,1.9,1.9,1.9C240.2,68.6,241,67.7,241,66.7"/>
	<path d="M93.1,133.4c0-1.1-0.9-1.9-1.9-1.9c-1.1,0-1.9,0.9-1.9,1.9c0,1.1,0.9,1.9,1.9,1.9C92.2,135.4,93.1,134.5,93.1,133.4"/>
	<path d="M312.1,127.8c0-1.1-0.9-1.9-1.9-1.9c-1.1,0-1.9,0.9-1.9,1.9c0,1.1,0.9,1.9,1.9,1.9C311.2,129.8,312.1,128.9,312.1,127.8"/>
	<path d="M192.5,335.1c0-1.1-0.9-1.9-1.9-1.9c-1.1,0-1.9,0.9-1.9,1.9c0,1.1,0.9,1.9,1.9,1.9C191.6,337.1,192.5,336.2,192.5,335.1"/>
	<path d="M154.7,14.2c0-1.1-0.9-1.9-1.9-1.9c-1.1,0-1.9,0.9-1.9,1.9c0,1.1,0.9,1.9,1.9,1.9C153.8,16.1,154.7,15.2,154.7,14.2"/>
	<path d="M145.2,171.7c0-1.1-0.9-1.9-1.9-1.9c-1.1,0-1.9,0.9-1.9,1.9c0,1.1,0.9,1.9,1.9,1.9C144.4,173.7,145.2,172.8,145.2,171.7"/>
	<path d="M312.4,147.4c0-1.1-0.9-1.9-1.9-1.9c-1.1,0-1.9,0.9-1.9,1.9c0,1.1,0.9,1.9,1.9,1.9C311.5,149.4,312.4,148.5,312.4,147.4"/>
	<path d="M60.4,253c0-1.1-0.9-1.9-1.9-1.9c-1.1,0-1.9,0.9-1.9,1.9c0,1.1,0.9,1.9,1.9,1.9C59.5,255,60.4,254.1,60.4,253"/>
	<path d="M186.8,35.8c0-1.1-0.9-1.9-1.9-1.9c-1.1,0-1.9,0.9-1.9,1.9c0,1.1,0.9,1.9,1.9,1.9C185.9,37.7,186.8,36.9,186.8,35.8"/>
	<path d="M121.7,306c0-1.1-0.9-1.9-1.9-1.9s-1.9,0.9-1.9,1.9c0,1.1,0.9,1.9,1.9,1.9S121.7,307,121.7,306"/>
	<path d="M57.7,161.2c0-1.1-0.9-1.9-1.9-1.9c-1.1,0-1.9,0.9-1.9,1.9c0,1.1,0.9,1.9,1.9,1.9C56.8,163.2,57.7,162.3,57.7,161.2"/>
	<path d="M152.1,272.3c0-1.1-0.9-1.9-1.9-1.9c-1.1,0-1.9,0.9-1.9,1.9c0,1.1,0.9,1.9,1.9,1.9C151.2,274.3,152.1,273.4,152.1,272.3"/>
	<path d="M259.5,291.9c0-1.1-0.9-1.9-1.9-1.9c-1.1,0-1.9,0.9-1.9,1.9c0,1.1,0.9,1.9,1.9,1.9C258.7,293.9,259.5,293,259.5,291.9"/>
	<path d="M96.3,204.3c0-1.1-0.9-1.9-1.9-1.9c-1.1,0-1.9,0.9-1.9,1.9c0,1.1,0.9,1.9,1.9,1.9C95.5,206.3,96.3,205.4,96.3,204.3"/>
	<path d="M217.8,100.6c0-1.1-0.9-1.9-1.9-1.9c-1.1,0-1.9,0.9-1.9,1.9c0,1.1,0.9,1.9,1.9,1.9C217,102.6,217.8,101.7,217.8,100.6"/>
	<path d="M23.1,128c0-1.1-0.9-1.9-1.9-1.9c-1.1,0-1.9,0.9-1.9,1.9c0,1.1,0.9,1.9,1.9,1.9C22.2,129.9,23.1,129,23.1,128"/>
	<path d="M243.3,135.7c0-1.1-0.9-1.9-1.9-1.9c-1.1,0-1.9,0.9-1.9,1.9c0,1.1,0.9,1.9,1.9,1.9C242.4,137.6,243.3,136.7,243.3,135.7"/>
	<path d="M75.8,103.3c0-1.1-0.9-1.9-1.9-1.9c-1.1,0-1.9,0.9-1.9,1.9c0,1.1,0.9,1.9,1.9,1.9C75,105.2,75.8,104.4,75.8,103.3"/>
	<path d="M252.8,155.3c0-1.1-0.9-1.9-1.9-1.9c-1.1,0-1.9,0.9-1.9,1.9c0,1.1,0.9,1.9,1.9,1.9C252,157.2,252.8,156.3,252.8,155.3"/>
	<path d="M254.6,314.8c0-1.1-0.9-1.9-1.9-1.9c-1.1,0-1.9,0.9-1.9,1.9c0,1.1,0.9,1.9,1.9,1.9C253.8,316.8,254.6,315.9,254.6,314.8"/>
	<path d="M107.1,49.9c0-1.1-0.9-1.9-1.9-1.9c-1.1,0-1.9,0.9-1.9,1.9c0,1.1,0.9,1.9,1.9,1.9C106.3,51.8,107.1,50.9,107.1,49.9"/>
	<path d="M305,274.3c0-1.1-0.9-1.9-1.9-1.9c-1.1,0-1.9,0.9-1.9,1.9c0,1.1,0.9,1.9,1.9,1.9C304.2,276.2,305,275.4,305,274.3"/>
	<path d="M178.6,292.8c0-1.1-0.9-1.9-1.9-1.9c-1.1,0-1.9,0.9-1.9,1.9c0,1.1,0.9,1.9,1.9,1.9C177.7,294.8,178.6,293.9,178.6,292.8"/>
	<path d="M257,81.8c0-1.1-0.9-1.9-1.9-1.9c-1.1,0-1.9,0.9-1.9,1.9c0,1.1,0.9,1.9,1.9,1.9C256.1,83.8,257,82.9,257,81.8"/>
	<path d="M289.8,93c0-1.1-0.9-1.9-1.9-1.9c-1.1,0-1.9,0.9-1.9,1.9c0,1.1,0.9,1.9,1.9,1.9C288.9,94.9,289.8,94,289.8,93"/>
	<path d="M156.6,236.6c0-1.1-0.9-1.9-1.9-1.9c-1.1,0-1.9,0.9-1.9,1.9c0,1.1,0.9,1.9,1.9,1.9C155.7,238.6,156.6,237.7,156.6,236.6"/>
	<path d="M115,283.7c0-1.1-0.9-1.9-1.9-1.9c-1.1,0-1.9,0.9-1.9,1.9c0,1.1,0.9,1.9,1.9,1.9C114.2,285.6,115,284.8,115,283.7"/>
	<path d="M53.8,200.3c0-1.1-0.9-1.9-1.9-1.9c-1.1,0-1.9,0.9-1.9,1.9c0,1.1,0.9,1.9,1.9,1.9C53,202.3,53.8,201.4,53.8,200.3"/>
	<path d="M291.5,244.3c0-1.1-0.9-1.9-1.9-1.9c-1.1,0-1.9,0.9-1.9,1.9c0,1.1,0.9,1.9,1.9,1.9C290.7,246.2,291.5,245.4,291.5,244.3"/>
	<path d="M24.7,234.5c0-1.1-0.9-1.9-1.9-1.9c-1.1,0-1.9,0.9-1.9,1.9c0,1.1,0.9,1.9,1.9,1.9C23.8,236.5,24.7,235.6,24.7,234.5"/>
	<path d="M303.4,109.3c0-1.1-0.9-1.9-1.9-1.9c-1.1,0-1.9,0.9-1.9,1.9c0,1.1,0.9,1.9,1.9,1.9C302.6,111.2,303.4,110.4,303.4,109.3"/>
	<path d="M325.4,109.7c0-1.1-0.9-1.9-1.9-1.9c-1.1,0-1.9,0.9-1.9,1.9c0,1.1,0.9,1.9,1.9,1.9C324.5,111.6,325.4,110.8,325.4,109.7"/>
	<path d="M58.8,89c0-1.1-0.9-1.9-1.9-1.9c-1.1,0-1.9,0.9-1.9,1.9c0,1.1,0.9,1.9,1.9,1.9C57.9,90.9,58.8,90.1,58.8,89"/>
	<path d="M246.4,46.5c0-1.1-0.9-1.9-1.9-1.9c-1.1,0-1.9,0.9-1.9,1.9c0,1.1,0.9,1.9,1.9,1.9C245.5,48.4,246.4,47.6,246.4,46.5"/>
	<path d="M181.1,314.5c0-1.1-0.9-1.9-1.9-1.9c-1.1,0-1.9,0.9-1.9,1.9c0,1.1,0.9,1.9,1.9,1.9C180.3,316.4,181.1,315.6,181.1,314.5"/>
	<path d="M50.9,275.3c0-1.1-0.9-1.9-1.9-1.9c-1.1,0-1.9,0.9-1.9,1.9c0,1.1,0.9,1.9,1.9,1.9C50,277.2,50.9,276.3,50.9,275.3"/>
	<path d="M300.6,71.5c0-1.1-0.9-1.9-1.9-1.9c-1.1,0-1.9,0.9-1.9,1.9s0.9,1.9,1.9,1.9C299.8,73.4,300.6,72.6,300.6,71.5"/>
	<path d="M219.6,286c0-1.1-0.9-1.9-1.9-1.9c-1.1,0-1.9,0.9-1.9,1.9c0,1.1,0.9,1.9,1.9,1.9C218.8,287.9,219.6,287,219.6,286"/>
	<path d="M68.6,54.7c0-1.1-0.9-1.9-1.9-1.9c-1.1,0-1.9,0.9-1.9,1.9c0,1.1,0.9,1.9,1.9,1.9C67.7,56.6,68.6,55.8,68.6,54.7"/>
	<path d="M239,298.7c0-1.1-0.9-1.9-1.9-1.9c-1.1,0-1.9,0.9-1.9,1.9c0,1.1,0.9,1.9,1.9,1.9C238.1,300.6,239,299.7,239,298.7"/>
	<path d="M82.3,306.1c0-1.1-0.9-1.9-1.9-1.9c-1.1,0-1.9,0.9-1.9,1.9c0,1.1,0.9,1.9,1.9,1.9C81.5,308.1,82.3,307.2,82.3,306.1"/>
	<path d="M85,255.3c0-1.1-0.9-1.9-1.9-1.9c-1.1,0-1.9,0.9-1.9,1.9c0,1.1,0.9,1.9,1.9,1.9C84.1,257.3,85,256.4,85,255.3"/>
	<path d="M130,19.5c0-1.1-0.9-1.9-1.9-1.9c-1.1,0-1.9,0.9-1.9,1.9c0,1.1,0.9,1.9,1.9,1.9C129.1,21.4,130,20.5,130,19.5"/>
	<path d="M311.1,255.3c0-1.1-0.9-1.9-1.9-1.9c-1.1,0-1.9,0.9-1.9,1.9c0,1.1,0.9,1.9,1.9,1.9C310.2,257.2,311.1,256.4,311.1,255.3"/>
	<path d="M17.4,167.6c0-1.1-0.9-1.9-1.9-1.9c-1.1,0-1.9,0.9-1.9,1.9c0,1.1,0.9,1.9,1.9,1.9C16.5,169.5,17.4,168.6,17.4,167.6"/>
	<path d="M82.2,151.1c0-1.1-0.9-1.9-1.9-1.9c-1.1,0-1.9,0.9-1.9,1.9c0,1.1,0.9,1.9,1.9,1.9C81.3,153,82.2,152.2,82.2,151.1"/>
	<path d="M204.2,81.2c0-1.1-0.9-1.9-1.9-1.9c-1.1,0-1.9,0.9-1.9,1.9s0.9,1.9,1.9,1.9C203.3,83.1,204.2,82.3,204.2,81.2"/>
	<path d="M127.5,43.5c0-1.1-0.9-1.9-1.9-1.9c-1.1,0-1.9,0.9-1.9,1.9c0,1.1,0.9,1.9,1.9,1.9C126.7,45.4,127.5,44.6,127.5,43.5"/>
	<path d="M311.8,167.2c0-1.1-0.9-1.9-1.9-1.9c-1.1,0-1.9,0.9-1.9,1.9s0.9,1.9,1.9,1.9C311,169.1,311.8,168.3,311.8,167.2"/>
	<path d="M141.5,311.7c0-1.1-0.9-1.9-1.9-1.9c-1.1,0-1.9,0.9-1.9,1.9c0,1.1,0.9,1.9,1.9,1.9C140.6,313.6,141.5,312.7,141.5,311.7"/>
	<path d="M228.1,119.6c0-1.1-0.9-1.9-1.9-1.9c-1.1,0-1.9,0.9-1.9,1.9c0,1.1,0.9,1.9,1.9,1.9C227.2,121.5,228.1,120.6,228.1,119.6"/>
	<path d="M290.1,133.2c0-1.1-0.9-1.9-1.9-1.9c-1.1,0-1.9,0.9-1.9,1.9c0,1.1,0.9,1.9,1.9,1.9C289.2,135.2,290.1,134.3,290.1,133.2"/>
	<path d="M154.7,155.4c0-1.1-0.9-1.9-1.9-1.9c-1.1,0-1.9,0.9-1.9,1.9c0,1.1,0.9,1.9,1.9,1.9C153.9,157.3,154.7,156.4,154.7,155.4"/>
	<path d="M229.6,180c0-1.1-0.9-1.9-1.9-1.9c-1.1,0-1.9,0.9-1.9,1.9c0,1.1,0.9,1.9,1.9,1.9C228.8,181.9,229.6,181,229.6,180"/>
	<path d="M248.4,177.5c0-1.1-0.9-1.9-1.9-1.9c-1.1,0-1.9,0.9-1.9,1.9c0,1.1,0.9,1.9,1.9,1.9C247.6,179.4,248.4,178.6,248.4,177.5"/>
	<path d="M103.8,321.1c0-1.1-0.9-1.9-1.9-1.9c-1.1,0-1.9,0.9-1.9,1.9c0,1.1,0.9,1.9,1.9,1.9C102.9,323,103.8,322.2,103.8,321.1"/>
	<path d="M217,61.4c0-1.1-0.9-1.9-1.9-1.9c-1.1,0-1.9,0.9-1.9,1.9c0,1.1,0.9,1.9,1.9,1.9C216.2,63.4,217,62.5,217,61.4"/>
	<path d="M242.1,26.1c0-1.1-0.9-1.9-1.9-1.9c-1.1,0-1.9,0.9-1.9,1.9c0,1.1,0.9,1.9,1.9,1.9C241.2,28.1,242.1,27.2,242.1,26.1"/>
	<path d="M265.9,38.5c0-1.1-0.9-1.9-1.9-1.9c-1.1,0-1.9,0.9-1.9,1.9c0,1.1,0.9,1.9,1.9,1.9C265,40.5,265.9,39.6,265.9,38.5"/>
	<path d="M236,323.6c0-1.1-0.9-1.9-1.9-1.9c-1.1,0-1.9,0.9-1.9,1.9c0,1.1,0.9,1.9,1.9,1.9C235.2,325.6,236,324.7,236,323.6"/>
	<path d="M136.1,99.2c0-1.1-0.9-1.9-1.9-1.9c-1.1,0-1.9,0.9-1.9,1.9s0.9,1.9,1.9,1.9C135.3,101.2,136.1,100.3,136.1,99.2"/>
	<path d="M220.6,19.7c0-1.1-0.9-1.9-1.9-1.9c-1.1,0-1.9,0.9-1.9,1.9c0,1.1,0.9,1.9,1.9,1.9C219.7,21.6,220.6,20.8,220.6,19.7"/>
	<path d="M126.4,327.9c0-1.1-0.9-1.9-1.9-1.9c-1.1,0-1.9,0.9-1.9,1.9c0,1.1,0.9,1.9,1.9,1.9C125.5,329.9,126.4,329,126.4,327.9"/>
	<path d="M330.7,219.6c0-1.1-0.9-1.9-1.9-1.9c-1.1,0-1.9,0.9-1.9,1.9c0,1.1,0.9,1.9,1.9,1.9C329.8,221.6,330.7,220.7,330.7,219.6"/>
	<path d="M189.2,187.7c0-1.1-0.9-1.9-1.9-1.9c-1.1,0-1.9,0.9-1.9,1.9c0,1.1,0.9,1.9,1.9,1.9C188.3,189.7,189.2,188.8,189.2,187.7"/>
	<path d="M333.3,132.8c0-1.1-0.9-1.9-1.9-1.9c-1.1,0-1.9,0.9-1.9,1.9c0,1.1,0.9,1.9,1.9,1.9C332.5,134.7,333.3,133.8,333.3,132.8"/>
	<path d="M174.9,114.3c0-1.1-0.9-1.9-1.9-1.9c-1.1,0-1.9,0.9-1.9,1.9s0.9,1.9,1.9,1.9C174,116.2,174.9,115.4,174.9,114.3"/>
	<path d="M263.8,60.4c0-1.1-0.9-1.9-1.9-1.9c-1.1,0-1.9,0.9-1.9,1.9c0,1.1,0.9,1.9,1.9,1.9C263,62.4,263.8,61.5,263.8,60.4"/>
	<path d="M38,89.8c0-1.1-0.9-1.9-1.9-1.9c-1.1,0-1.9,0.9-1.9,1.9c0,1.1,0.9,1.9,1.9,1.9C37.1,91.7,38,90.8,38,89.8"/>
	<path d="M165.7,33.9c0-1.1-0.9-1.9-1.9-1.9c-1.1,0-1.9,0.9-1.9,1.9c0,1.1,0.9,1.9,1.9,1.9C164.8,35.8,165.7,35,165.7,33.9"/>
	<path d="M60.3,182.1c0-1.1-0.9-1.9-1.9-1.9c-1.1,0-1.9,0.9-1.9,1.9c0,1.1,0.9,1.9,1.9,1.9C59.5,184,60.3,183.2,60.3,182.1"/>
	<path d="M94.7,113.3c0-1.1-0.9-1.9-1.9-1.9c-1.1,0-1.9,0.9-1.9,1.9c0,1.1,0.9,1.9,1.9,1.9C93.8,115.2,94.7,114.4,94.7,113.3"/>
	<path d="M338.8,173.4c0-1.1-0.9-1.9-1.9-1.9c-1.1,0-1.9,0.9-1.9,1.9c0,1.1,0.9,1.9,1.9,1.9C337.9,175.3,338.8,174.5,338.8,173.4"/>
	<path d="M333.1,154.1c0-1.1-0.9-1.9-1.9-1.9s-1.9,0.9-1.9,1.9c0,1.1,0.9,1.9,1.9,1.9S333.1,155.1,333.1,154.1"/>
	<path d="M44.3,239.1c0-1.1-0.9-1.9-1.9-1.9c-1.1,0-1.9,0.9-1.9,1.9c0,1.1,0.9,1.9,1.9,1.9C43.5,241.1,44.3,240.2,44.3,239.1"/>
	<path d="M128.6,268.3c0-1.1-0.9-1.9-1.9-1.9c-1.1,0-1.9,0.9-1.9,1.9c0,1.1,0.9,1.9,1.9,1.9C127.8,270.2,128.6,269.3,128.6,268.3"/>
	<path d="M71.9,124.4c0-1.1-0.9-1.9-1.9-1.9c-1.1,0-1.9,0.9-1.9,1.9s0.9,1.9,1.9,1.9C71,126.4,71.9,125.5,71.9,124.4"/>
	<path d="M281.6,114.6c0-1.1-0.9-1.9-1.9-1.9c-1.1,0-1.9,0.9-1.9,1.9c0,1.1,0.9,1.9,1.9,1.9C280.8,116.5,281.6,115.7,281.6,114.6"/>
	<path d="M17.9,210.7c0-1.1-0.9-1.9-1.9-1.9c-1.1,0-1.9,0.9-1.9,1.9c0,1.1,0.9,1.9,1.9,1.9C17,212.6,17.9,211.8,17.9,210.7"/>
	<path d="M313.9,207.1c0-1.1-0.9-1.9-1.9-1.9c-1.1,0-1.9,0.9-1.9,1.9c0,1.1,0.9,1.9,1.9,1.9C313,209.1,313.9,208.2,313.9,207.1"/>
	<path d="M88.7,282.7c0-1.1-0.9-1.9-1.9-1.9c-1.1,0-1.9,0.9-1.9,1.9c0,1.1,0.9,1.9,1.9,1.9C87.9,284.6,88.7,283.8,88.7,282.7"/>
	<path d="M121,248.5c0-1.1-0.9-1.9-1.9-1.9c-1.1,0-1.9,0.9-1.9,1.9c0,1.1,0.9,1.9,1.9,1.9C120.2,250.4,121,249.6,121,248.5"/>
	<path d="M211.1,184.7c0-1.1-0.9-1.9-1.9-1.9c-1.1,0-1.9,0.9-1.9,1.9c0,1.1,0.9,1.9,1.9,1.9C210.2,186.7,211.1,185.8,211.1,184.7"/>
	<path d="M150.4,55.2c0-1.1-0.9-1.9-1.9-1.9c-1.1,0-1.9,0.9-1.9,1.9c0,1.1,0.9,1.9,1.9,1.9C149.5,57.1,150.4,56.3,150.4,55.2"/>
	<path d="M280.9,199.5c0-1.1-0.9-1.9-1.9-1.9c-1.1,0-1.9,0.9-1.9,1.9c0,1.1,0.9,1.9,1.9,1.9C280.1,201.5,280.9,200.6,280.9,199.5"/>
	<path d="M158.2,294.4c0-1.1-0.9-1.9-1.9-1.9c-1.1,0-1.9,0.9-1.9,1.9c0,1.1,0.9,1.9,1.9,1.9C157.4,296.3,158.2,295.5,158.2,294.4"/>
	<path d="M336.8,198c0-1.1-0.9-1.9-1.9-1.9c-1.1,0-1.9,0.9-1.9,1.9c0,1.1,0.9,1.9,1.9,1.9C335.9,200,336.8,199.1,336.8,198"/>
	<path d="M104.9,71.7c0-1.1-0.9-1.9-1.9-1.9c-1.1,0-1.9,0.9-1.9,1.9c0,1.1,0.9,1.9,1.9,1.9C104.1,73.6,104.9,72.8,104.9,71.7"/>
	<path d="M177.2,13.9c0-1.1-0.9-1.9-1.9-1.9c-1.1,0-1.9,0.9-1.9,1.9c0,1.1,0.9,1.9,1.9,1.9C176.3,15.9,177.2,15,177.2,13.9"/>
	<path d="M65.3,292.5c0-1.1-0.9-1.9-1.9-1.9c-1.1,0-1.9,0.9-1.9,1.9c0,1.1,0.9,1.9,1.9,1.9C64.4,294.5,65.3,293.6,65.3,292.5"/>
	<path d="M161.3,316.3c0-1.1-0.9-1.9-1.9-1.9c-1.1,0-1.9,0.9-1.9,1.9c0,1.1,0.9,1.9,1.9,1.9C160.4,318.2,161.3,317.4,161.3,316.3"/>
	<path d="M77.4,79c0-1.1-0.9-1.9-1.9-1.9c-1.1,0-1.9,0.9-1.9,1.9c0,1.1,0.9,1.9,1.9,1.9C76.6,81,77.4,80.1,77.4,79"/>
	<path d="M215.9,331.7c0-1.1-0.9-1.9-1.9-1.9c-1.1,0-1.9,0.9-1.9,1.9c0,1.1,0.9,1.9,1.9,1.9C215,333.6,215.9,332.8,215.9,331.7"/>
	<path d="M95.4,90.8c0-1.1-0.9-1.9-1.9-1.9c-1.1,0-1.9,0.9-1.9,1.9c0,1.1,0.9,1.9,1.9,1.9C94.5,92.8,95.4,91.9,95.4,90.8"/>
	<path d="M38.8,171.6c0-1.1-0.9-1.9-1.9-1.9c-1.1,0-1.9,0.9-1.9,1.9c0,1.1,0.9,1.9,1.9,1.9C37.9,173.6,38.8,172.7,38.8,171.6"/>
	<path d="M267.1,100.2c0-1.1-0.9-1.9-1.9-1.9c-1.1,0-1.9,0.9-1.9,1.9c0,1.1,0.9,1.9,1.9,1.9C266.3,102.1,267.1,101.2,267.1,100.2"/>
	<path d="M198.9,294.1c0-1.1-0.9-1.9-1.9-1.9c-1.1,0-1.9,0.9-1.9,1.9c0,1.1,0.9,1.9,1.9,1.9C198,296.1,198.9,295.2,198.9,294.1"/>
	<path d="M240.8,95.2c0-1.1-0.9-1.9-1.9-1.9c-1.1,0-1.9,0.9-1.9,1.9c0,1.1,0.9,1.9,1.9,1.9C239.9,97.1,240.8,96.2,240.8,95.2"/>
	<path d="M184.2,73.7c0-1.1-0.9-1.9-1.9-1.9c-1.1,0-1.9,0.9-1.9,1.9c0,1.1,0.9,1.9,1.9,1.9C183.3,75.6,184.2,74.8,184.2,73.7"/>
	<path d="M58.6,224.3c0-1.1-0.9-1.9-1.9-1.9c-1.1,0-1.9,0.9-1.9,1.9c0,1.1,0.9,1.9,1.9,1.9C57.8,226.2,58.6,225.3,58.6,224.3"/>
	<path d="M88.1,38.4c0-1.1-0.9-1.9-1.9-1.9c-1.1,0-1.9,0.9-1.9,1.9c0,1.1,0.9,1.9,1.9,1.9C87.2,40.4,88.1,39.5,88.1,38.4"/>
	<path d="M233,244.8c0-1.1-0.9-1.9-1.9-1.9c-1.1,0-1.9,0.9-1.9,1.9c0,1.1,0.9,1.9,1.9,1.9C232.1,246.8,233,245.9,233,244.8"/>
	<path d="M145.3,34.3c0-1.1-0.9-1.9-1.9-1.9c-1.1,0-1.9,0.9-1.9,1.9c0,1.1,0.9,1.9,1.9,1.9C144.5,36.2,145.3,35.3,145.3,34.3"/>
</g>
</svg>
