<?xml version="1.0" encoding="utf-8"?>
<!-- Generator: Adobe Illustrator 21.1.0, SVG Export Plug-In . SVG Version: 6.00 Build 0)  -->
<svg version="1.1" id="Layer_1" xmlns="http://www.w3.org/2000/svg" xmlns:xlink="http://www.w3.org/1999/xlink" x="0px" y="0px"
	 viewBox="0 0 350 350" style="enable-background:new 0 0 350 350;" xml:space="preserve">
<style type="text/css">
	.st0{fill:none;stroke:#231F20;stroke-width:0.75;stroke-miterlimit:10;}
</style>
<g>
	<line class="st0" x1="88" y1="208.4" x2="180.8" y2="194.7"/>
	<line class="st0" x1="88" y1="208.4" x2="52.9" y2="187.6"/>
	<line class="st0" x1="88" y1="208.4" x2="53.2" y2="245.4"/>
	<line class="st0" x1="133.4" y1="207.7" x2="180.8" y2="194.7"/>
	<line class="st0" x1="133.4" y1="207.7" x2="130.4" y2="231.3"/>
	<line class="st0" x1="136.1" y1="271.8" x2="180.8" y2="194.7"/>
	<line class="st0" x1="136.1" y1="271.8" x2="125.9" y2="299"/>
	<line class="st0" x1="136.1" y1="271.8" x2="130.4" y2="231.3"/>
	<line class="st0" x1="33.3" y1="149.2" x2="14.5" y2="159.7"/>
	<line class="st0" x1="33.3" y1="149.2" x2="42.5" y2="127"/>
	<line class="st0" x1="33.3" y1="149.2" x2="18.8" y2="132.3"/>
	<line class="st0" x1="261.9" y1="131.2" x2="260.3" y2="153.9"/>
	<line class="st0" x1="261.9" y1="131.2" x2="202" y2="183.4"/>
	<line class="st0" x1="115.2" y1="123.3" x2="180.8" y2="194.7"/>
	<line class="st0" x1="115.2" y1="123.3" x2="78.1" y2="105.9"/>
	<line class="st0" x1="115.2" y1="123.3" x2="112.9" y2="80.2"/>
	<line class="st0" x1="115.2" y1="123.3" x2="90.5" y2="124.8"/>
	<line class="st0" x1="199.3" y1="334" x2="224.9" y2="328.3"/>
	<line class="st0" x1="199.3" y1="334" x2="207.8" y2="312.6"/>
	<line class="st0" x1="199.3" y1="334" x2="172.1" y2="335.8"/>
	<line class="st0" x1="196.2" y1="210.6" x2="180.8" y2="194.7"/>
	<line class="st0" x1="196.2" y1="210.6" x2="130.4" y2="231.3"/>
	<line class="st0" x1="148.3" y1="139.4" x2="180.8" y2="194.7"/>
	<line class="st0" x1="148.3" y1="139.4" x2="162.2" y2="119.7"/>
	<line class="st0" x1="63.7" y1="86.7" x2="78" y2="67.7"/>
	<line class="st0" x1="63.7" y1="86.7" x2="39.9" y2="86.8"/>
	<line class="st0" x1="136.4" y1="162.2" x2="180.8" y2="194.7"/>
	<line class="st0" x1="136.4" y1="162.2" x2="79" y2="147.7"/>
	<line class="st0" x1="136.4" y1="162.2" x2="202" y2="183.4"/>
	<line class="st0" x1="136.4" y1="162.2" x2="101.4" y2="145.2"/>
	<line class="st0" x1="230.4" y1="244.8" x2="180.8" y2="194.7"/>
	<line class="st0" x1="230.4" y1="244.8" x2="224.7" y2="268.5"/>
	<line class="st0" x1="241.8" y1="196.6" x2="180.8" y2="194.7"/>
	<line class="st0" x1="241.8" y1="196.6" x2="260.3" y2="153.9"/>
	<line class="st0" x1="217.2" y1="204.1" x2="180.8" y2="194.7"/>
	<line class="st0" x1="217.2" y1="204.1" x2="192.3" y2="235.5"/>
	<line class="st0" x1="234.8" y1="219.3" x2="180.8" y2="194.7"/>
	<line class="st0" x1="234.8" y1="219.3" x2="224.7" y2="268.5"/>
	<line class="st0" x1="234.8" y1="219.3" x2="202" y2="183.4"/>
	<line class="st0" x1="234.8" y1="219.3" x2="277.2" y2="229.2"/>
	<line class="st0" x1="145.2" y1="248.3" x2="180.8" y2="194.7"/>
	<line class="st0" x1="145.2" y1="248.3" x2="130.4" y2="231.3"/>
	<line class="st0" x1="92" y1="168.1" x2="180.8" y2="194.7"/>
	<line class="st0" x1="92" y1="168.1" x2="52.9" y2="187.6"/>
	<line class="st0" x1="55.2" y1="148.4" x2="79" y2="147.7"/>
	<line class="st0" x1="55.2" y1="148.4" x2="52.9" y2="187.6"/>
	<line class="st0" x1="55.2" y1="148.4" x2="66.4" y2="127"/>
	<line class="st0" x1="290.8" y1="96.2" x2="248.3" y2="87.8"/>
	<line class="st0" x1="290.8" y1="96.2" x2="248.5" y2="113.3"/>
	<line class="st0" x1="290.8" y1="96.2" x2="315.4" y2="95.1"/>
	<line class="st0" x1="173.4" y1="281.6" x2="180.8" y2="194.7"/>
	<line class="st0" x1="173.4" y1="281.6" x2="130.4" y2="231.3"/>
	<line class="st0" x1="173.4" y1="281.6" x2="190.3" y2="297"/>
	<line class="st0" x1="173.4" y1="281.6" x2="207.8" y2="312.6"/>
	<line class="st0" x1="309.1" y1="204.2" x2="292.3" y2="186.1"/>
	<line class="st0" x1="309.1" y1="204.2" x2="329.5" y2="214.7"/>
	<line class="st0" x1="309.1" y1="204.2" x2="322.3" y2="235.6"/>
	<line class="st0" x1="159.5" y1="159.7" x2="180.8" y2="194.7"/>
	<line class="st0" x1="159.5" y1="159.7" x2="130.4" y2="231.3"/>
	<line class="st0" x1="159.5" y1="159.7" x2="177.5" y2="98"/>
	<line class="st0" x1="150" y1="288.1" x2="130.4" y2="231.3"/>
	<line class="st0" x1="150" y1="288.1" x2="190.3" y2="297"/>
	<line class="st0" x1="150" y1="288.1" x2="198.2" y2="275.8"/>
	<line class="st0" x1="182" y1="318" x2="125.9" y2="299"/>
	<line class="st0" x1="182" y1="318" x2="190.3" y2="297"/>
	<line class="st0" x1="169" y1="241.6" x2="180.8" y2="194.7"/>
	<line class="st0" x1="169" y1="241.6" x2="130.4" y2="231.3"/>
	<line class="st0" x1="169" y1="241.6" x2="184.1" y2="259.1"/>
	<line class="st0" x1="223" y1="50" x2="248.3" y2="87.8"/>
	<line class="st0" x1="152.1" y1="224.9" x2="180.8" y2="194.7"/>
	<line class="st0" x1="152.1" y1="224.9" x2="130.4" y2="231.3"/>
	<line class="st0" x1="174.8" y1="218.6" x2="180.8" y2="194.7"/>
	<line class="st0" x1="174.8" y1="218.6" x2="130.4" y2="231.3"/>
	<line class="st0" x1="137.8" y1="119" x2="180.8" y2="194.7"/>
	<line class="st0" x1="137.8" y1="119" x2="141.2" y2="81.1"/>
	<line class="st0" x1="247.5" y1="261.8" x2="180.8" y2="194.7"/>
	<line class="st0" x1="247.5" y1="261.8" x2="248.8" y2="316.7"/>
	<line class="st0" x1="247.5" y1="261.8" x2="279.8" y2="267.4"/>
	<line class="st0" x1="160.1" y1="264.4" x2="180.8" y2="194.7"/>
	<line class="st0" x1="160.1" y1="264.4" x2="130.4" y2="231.3"/>
	<line class="st0" x1="160.1" y1="264.4" x2="190.3" y2="297"/>
	<line class="st0" x1="223.8" y1="181.9" x2="180.8" y2="194.7"/>
	<line class="st0" x1="223.8" y1="181.9" x2="130.4" y2="231.3"/>
	<line class="st0" x1="223.8" y1="181.9" x2="248.5" y2="113.3"/>
	<line class="st0" x1="223.8" y1="181.9" x2="275.2" y2="169.8"/>
	<line class="st0" x1="88.9" y1="229" x2="180.8" y2="194.7"/>
	<line class="st0" x1="88.9" y1="229" x2="53.2" y2="245.4"/>
	<line class="st0" x1="302.1" y1="224.7" x2="292.3" y2="186.1"/>
	<line class="st0" x1="89.9" y1="86.1" x2="78.1" y2="105.9"/>
	<line class="st0" x1="89.9" y1="86.1" x2="78" y2="67.7"/>
	<line class="st0" x1="89.9" y1="86.1" x2="53.1" y2="106.6"/>
	<line class="st0" x1="78.1" y1="249" x2="130.4" y2="231.3"/>
	<line class="st0" x1="78.1" y1="249" x2="53.2" y2="245.4"/>
	<line class="st0" x1="78.1" y1="249" x2="65.3" y2="291.5"/>
	<line class="st0" x1="78.1" y1="249" x2="67.6" y2="267.2"/>
	<line class="st0" x1="125" y1="142.9" x2="180.8" y2="194.7"/>
	<line class="st0" x1="125" y1="142.9" x2="103.9" y2="104.1"/>
	<line class="st0" x1="190.2" y1="78.9" x2="248.3" y2="87.8"/>
	<line class="st0" x1="190.2" y1="78.9" x2="177.5" y2="98"/>
	<line class="st0" x1="190.2" y1="78.9" x2="165.4" y2="77.6"/>
	<line class="st0" x1="64.6" y1="206.2" x2="130.4" y2="231.3"/>
	<line class="st0" x1="64.6" y1="206.2" x2="64.6" y2="167.7"/>
	<line class="st0" x1="164.4" y1="305.6" x2="130.4" y2="231.3"/>
	<line class="st0" x1="164.4" y1="305.6" x2="224.7" y2="268.5"/>
	<line class="st0" x1="164.4" y1="305.6" x2="106.8" y2="318.9"/>
	<line class="st0" x1="164.4" y1="305.6" x2="172.1" y2="335.8"/>
	<line class="st0" x1="283.8" y1="57.6" x2="248.3" y2="87.8"/>
	<line class="st0" x1="283.8" y1="57.6" x2="266.1" y2="41.3"/>
	<line class="st0" x1="283.8" y1="57.6" x2="259.8" y2="65.2"/>
	<line class="st0" x1="275.4" y1="79.7" x2="248.3" y2="87.8"/>
	<line class="st0" x1="215.2" y1="288.9" x2="180.8" y2="194.7"/>
	<line class="st0" x1="215.2" y1="288.9" x2="190.3" y2="297"/>
	<line class="st0" x1="283" y1="207.9" x2="180.8" y2="194.7"/>
	<line class="st0" x1="283" y1="207.9" x2="292.3" y2="186.1"/>
	<line class="st0" x1="283" y1="207.9" x2="312.2" y2="255.5"/>
	<line class="st0" x1="283" y1="207.9" x2="293.1" y2="246.1"/>
	<line class="st0" x1="235.6" y1="70" x2="248.3" y2="87.8"/>
	<line class="st0" x1="251.1" y1="235.7" x2="180.8" y2="194.7"/>
	<line class="st0" x1="251.1" y1="235.7" x2="279.8" y2="267.4"/>
	<line class="st0" x1="156.8" y1="202.6" x2="180.8" y2="194.7"/>
	<line class="st0" x1="156.8" y1="202.6" x2="130.4" y2="231.3"/>
	<line class="st0" x1="112" y1="215" x2="180.8" y2="194.7"/>
	<line class="st0" x1="112" y1="215" x2="130.4" y2="231.3"/>
	<line class="st0" x1="240.7" y1="285.3" x2="180.8" y2="194.7"/>
	<line class="st0" x1="240.7" y1="285.3" x2="207.8" y2="312.6"/>
	<line class="st0" x1="240.7" y1="285.3" x2="248.8" y2="316.7"/>
	<line class="st0" x1="150.2" y1="332.2" x2="106.8" y2="318.9"/>
	<line class="st0" x1="300.3" y1="274.9" x2="284.3" y2="292.4"/>
	<line class="st0" x1="300.3" y1="274.9" x2="312.2" y2="255.5"/>
	<line class="st0" x1="300.3" y1="274.9" x2="265.3" y2="304.2"/>
	<line class="st0" x1="138.2" y1="39.1" x2="160.7" y2="36.3"/>
	<line class="st0" x1="138.2" y1="39.1" x2="151.8" y2="58.5"/>
	<line class="st0" x1="138.2" y1="39.1" x2="121.1" y2="22.6"/>
	<line class="st0" x1="31.8" y1="195.4" x2="14.5" y2="159.7"/>
	<line class="st0" x1="31.8" y1="195.4" x2="14" y2="183.6"/>
	<line class="st0" x1="31.8" y1="195.4" x2="17.3" y2="211.8"/>
	<line class="st0" x1="126.7" y1="98.5" x2="103.9" y2="104.1"/>
	<line class="st0" x1="126.7" y1="98.5" x2="141.2" y2="81.1"/>
	<line class="st0" x1="205.5" y1="122.4" x2="180.8" y2="194.7"/>
	<line class="st0" x1="205.5" y1="122.4" x2="202" y2="183.4"/>
	<line class="st0" x1="205.5" y1="122.4" x2="226.8" y2="96.2"/>
	<line class="st0" x1="97.3" y1="261.8" x2="130.4" y2="231.3"/>
	<line class="st0" x1="97.3" y1="261.8" x2="102.5" y2="297.7"/>
	<line class="st0" x1="213.5" y1="228.8" x2="180.8" y2="194.7"/>
	<line class="st0" x1="213.5" y1="228.8" x2="190.3" y2="297"/>
	<line class="st0" x1="213.5" y1="228.8" x2="202" y2="183.4"/>
	<line class="st0" x1="165.4" y1="180.3" x2="180.8" y2="194.7"/>
	<line class="st0" x1="165.4" y1="180.3" x2="130.4" y2="231.3"/>
	<line class="st0" x1="266.3" y1="191.8" x2="180.8" y2="194.7"/>
	<line class="st0" x1="266.3" y1="191.8" x2="292.3" y2="186.1"/>
	<line class="st0" x1="77" y1="46.6" x2="78" y2="67.7"/>
	<line class="st0" x1="77" y1="46.6" x2="96.8" y2="34"/>
	<line class="st0" x1="77" y1="46.6" x2="55.4" y2="65.1"/>
	<line class="st0" x1="300.3" y1="74.9" x2="248.3" y2="87.8"/>
	<line class="st0" x1="300.3" y1="74.9" x2="315.4" y2="95.1"/>
	<line class="st0" x1="113.8" y1="166.2" x2="180.8" y2="194.7"/>
	<line class="st0" x1="113.8" y1="166.2" x2="64.6" y2="167.7"/>
	<line class="st0" x1="244.9" y1="47.5" x2="266.1" y2="41.3"/>
	<line class="st0" x1="244.9" y1="47.5" x2="205.2" y2="36.9"/>
	<line class="st0" x1="244.9" y1="47.5" x2="240.3" y2="27.4"/>
	<line class="st0" x1="208.3" y1="162.2" x2="180.8" y2="194.7"/>
	<line class="st0" x1="208.3" y1="162.2" x2="202" y2="183.4"/>
	<line class="st0" x1="226.9" y1="118.5" x2="180.8" y2="194.7"/>
	<line class="st0" x1="226.9" y1="118.5" x2="248.3" y2="87.8"/>
	<line class="st0" x1="226.9" y1="118.5" x2="248.5" y2="113.3"/>
	<line class="st0" x1="184.7" y1="119.5" x2="180.8" y2="194.7"/>
	<line class="st0" x1="184.7" y1="119.5" x2="202.9" y2="98.9"/>
	<line class="st0" x1="153.5" y1="100.3" x2="180.8" y2="194.7"/>
	<line class="st0" x1="153.5" y1="100.3" x2="177.5" y2="98"/>
	<line class="st0" x1="207.8" y1="253" x2="180.8" y2="194.7"/>
	<line class="st0" x1="207.8" y1="253" x2="198.2" y2="275.8"/>
	<line class="st0" x1="305.7" y1="137.2" x2="295.6" y2="161.5"/>
	<line class="st0" x1="305.7" y1="137.2" x2="304.4" y2="115"/>
	<line class="st0" x1="305.7" y1="137.2" x2="275.2" y2="169.8"/>
	<line class="st0" x1="64.5" y1="227.8" x2="130.4" y2="231.3"/>
	<line class="st0" x1="64.5" y1="227.8" x2="52.9" y2="187.6"/>
	<line class="st0" x1="28.2" y1="108.9" x2="14.5" y2="159.7"/>
	<line class="st0" x1="122" y1="254.6" x2="180.8" y2="194.7"/>
	<line class="st0" x1="122" y1="254.6" x2="130.4" y2="231.3"/>
	<line class="st0" x1="122" y1="254.6" x2="113.8" y2="278.4"/>
	<line class="st0" x1="101.2" y1="191.7" x2="180.8" y2="194.7"/>
	<line class="st0" x1="101.2" y1="191.7" x2="130.4" y2="231.3"/>
	<line class="st0" x1="101.2" y1="191.7" x2="28.7" y2="232"/>
	<line class="st0" x1="176.5" y1="57.2" x2="205.2" y2="36.9"/>
	<line class="st0" x1="176.5" y1="57.2" x2="151.8" y2="58.5"/>
	<line class="st0" x1="86.6" y1="281" x2="130.4" y2="231.3"/>
	<line class="st0" x1="86.6" y1="281" x2="65.3" y2="291.5"/>
	<line class="st0" x1="334" y1="192.2" x2="332.3" y2="142.4"/>
	<line class="st0" x1="334" y1="192.2" x2="336" y2="168.6"/>
	<line class="st0" x1="121.6" y1="188.2" x2="180.8" y2="194.7"/>
	<line class="st0" x1="121.6" y1="188.2" x2="130.4" y2="231.3"/>
	<line class="st0" x1="314.1" y1="181.5" x2="292.3" y2="186.1"/>
	<line class="st0" x1="142.7" y1="311" x2="130.4" y2="231.3"/>
	<line class="st0" x1="142.7" y1="311" x2="106.8" y2="318.9"/>
	<line class="st0" x1="218.7" y1="20.3" x2="205.2" y2="36.9"/>
	<line class="st0" x1="218.7" y1="20.3" x2="194.1" y2="14.8"/>
	<line class="st0" x1="126.8" y1="327.8" x2="106.8" y2="318.9"/>
	<line class="st0" x1="218.4" y1="141.6" x2="180.8" y2="194.7"/>
	<line class="st0" x1="218.4" y1="141.6" x2="248.3" y2="87.8"/>
	<line class="st0" x1="218.4" y1="141.6" x2="202" y2="183.4"/>
	<line class="st0" x1="233.3" y1="161.2" x2="180.8" y2="194.7"/>
	<line class="st0" x1="233.3" y1="161.2" x2="202" y2="183.4"/>
	<line class="st0" x1="115.5" y1="45" x2="96.8" y2="34"/>
	<line class="st0" x1="115.5" y1="45" x2="151.8" y2="58.5"/>
	<line class="st0" x1="115.5" y1="45" x2="99.7" y2="60.7"/>
	<line class="st0" x1="281.9" y1="119.4" x2="248.5" y2="113.3"/>
	<line class="st0" x1="281.9" y1="119.4" x2="283" y2="142.5"/>
	<line class="st0" x1="33.8" y1="253.4" x2="53.2" y2="245.4"/>
	<line class="st0" x1="214.5" y1="77" x2="248.3" y2="87.8"/>
	<line class="st0" x1="214.5" y1="77" x2="226.8" y2="96.2"/>
	<line class="st0" x1="267.1" y1="101.4" x2="248.3" y2="87.8"/>
	<line class="st0" x1="267.1" y1="101.4" x2="248.5" y2="113.3"/>
	<line class="st0" x1="250.3" y1="175.3" x2="180.8" y2="194.7"/>
	<line class="st0" x1="250.3" y1="175.3" x2="292.3" y2="186.1"/>
	<line class="st0" x1="231.3" y1="305.6" x2="190.3" y2="297"/>
	<line class="st0" x1="78.1" y1="185.9" x2="130.4" y2="231.3"/>
	<line class="st0" x1="78.1" y1="185.9" x2="101.4" y2="145.2"/>
	<line class="st0" x1="258.9" y1="213.8" x2="202" y2="183.4"/>
	<line class="st0" x1="258.9" y1="213.8" x2="277.2" y2="229.2"/>
	<line class="st0" x1="258.9" y1="213.8" x2="267.8" y2="250.4"/>
	<line class="st0" x1="325.5" y1="120.5" x2="292.3" y2="186.1"/>
	<line class="st0" x1="325.5" y1="120.5" x2="315.4" y2="95.1"/>
	<line class="st0" x1="47.9" y1="273.8" x2="53.2" y2="245.4"/>
	<line class="st0" x1="47.9" y1="273.8" x2="106.8" y2="318.9"/>
	<line class="st0" x1="106.5" y1="239.7" x2="130.4" y2="231.3"/>
	<line class="st0" x1="172.7" y1="141.6" x2="180.8" y2="194.7"/>
	<line class="st0" x1="145.7" y1="16.6" x2="160.7" y2="36.3"/>
	<line class="st0" x1="145.7" y1="16.6" x2="169.6" y2="14.2"/>
	<line class="st0" x1="128.1" y1="62.9" x2="151.8" y2="58.5"/>
	<line class="st0" x1="128.1" y1="62.9" x2="121.1" y2="22.6"/>
	<line class="st0" x1="43" y1="216.4" x2="17.3" y2="211.8"/>
	<line class="st0" x1="43" y1="216.4" x2="28.7" y2="232"/>
	<line class="st0" x1="200.4" y1="58.8" x2="248.3" y2="87.8"/>
	<line class="st0" x1="142.7" y1="183.6" x2="180.8" y2="194.7"/>
	<line class="st0" x1="142.7" y1="183.6" x2="130.4" y2="231.3"/>
	<line class="st0" x1="316.7" y1="157.8" x2="292.3" y2="186.1"/>
	<line class="st0" x1="316.7" y1="157.8" x2="336" y2="168.6"/>
	<line class="st0" x1="240.7" y1="139.3" x2="180.8" y2="194.7"/>
	<line class="st0" x1="240.7" y1="139.3" x2="248.5" y2="113.3"/>
	<line class="st0" x1="193.9" y1="144" x2="180.8" y2="194.7"/>
	<line class="st0" x1="37.2" y1="171.3" x2="52.9" y2="187.6"/>
	<line class="st0" x1="182.9" y1="35.4" x2="160.7" y2="36.3"/>
	<line class="st0" x1="182.9" y1="35.4" x2="194.1" y2="14.8"/>
	<line class="st0" x1="82.9" y1="307.6" x2="65.3" y2="291.5"/>
	<line class="st0" x1="184.3" y1="166.3" x2="180.8" y2="194.7"/>
	<line class="st0" x1="262.4" y1="281.5" x2="312.2" y2="255.5"/>
	<path d="M89.9,208.4c0-1.1-0.9-1.9-1.9-1.9c-1.1,0-1.9,0.9-1.9,1.9c0,1.1,0.9,1.9,1.9,1.9C89,210.3,89.9,209.5,89.9,208.4"/>
	<path d="M182.7,194.7c0-1.1-0.9-1.9-1.9-1.9c-1.1,0-1.9,0.9-1.9,1.9c0,1.1,0.9,1.9,1.9,1.9C181.8,196.6,182.7,195.8,182.7,194.7"/>
	<path d="M135.4,207.7c0-1.1-0.9-1.9-1.9-1.9c-1.1,0-1.9,0.9-1.9,1.9c0,1.1,0.9,1.9,1.9,1.9C134.5,209.7,135.4,208.8,135.4,207.7"/>
	<path d="M138.1,271.8c0-1.1-0.9-1.9-1.9-1.9c-1.1,0-1.9,0.9-1.9,1.9c0,1.1,0.9,1.9,1.9,1.9C137.2,273.8,138.1,272.9,138.1,271.8"/>
	<path d="M127.8,299c0-1.1-0.9-1.9-1.9-1.9c-1.1,0-1.9,0.9-1.9,1.9c0,1.1,0.9,1.9,1.9,1.9C127,301,127.8,300.1,127.8,299"/>
	<path d="M35.3,149.2c0-1.1-0.9-1.9-1.9-1.9c-1.1,0-1.9,0.9-1.9,1.9c0,1.1,0.9,1.9,1.9,1.9C34.4,151.1,35.3,150.3,35.3,149.2"/>
	<path d="M16.4,159.7c0-1.1-0.9-1.9-1.9-1.9c-1.1,0-1.9,0.9-1.9,1.9c0,1.1,0.9,1.9,1.9,1.9C15.5,161.6,16.4,160.7,16.4,159.7"/>
	<path d="M263.8,131.2c0-1.1-0.9-1.9-1.9-1.9c-1.1,0-1.9,0.9-1.9,1.9c0,1.1,0.9,1.9,1.9,1.9C262.9,133.1,263.8,132.2,263.8,131.2"/>
	<path d="M262.2,153.9c0-1.1-0.9-1.9-1.9-1.9c-1.1,0-1.9,0.9-1.9,1.9c0,1.1,0.9,1.9,1.9,1.9C261.3,155.8,262.2,154.9,262.2,153.9"/>
	<path d="M117.2,123.3c0-1.1-0.9-1.9-1.9-1.9c-1.1,0-1.9,0.9-1.9,1.9c0,1.1,0.9,1.9,1.9,1.9C116.3,125.3,117.2,124.4,117.2,123.3"/>
	<path d="M80,105.9c0-1.1-0.9-1.9-1.9-1.9c-1.1,0-1.9,0.9-1.9,1.9c0,1.1,0.9,1.9,1.9,1.9C79.1,107.8,80,106.9,80,105.9"/>
	<path d="M201.2,334c0-1.1-0.9-1.9-1.9-1.9c-1.1,0-1.9,0.9-1.9,1.9c0,1.1,0.9,1.9,1.9,1.9C200.4,336,201.2,335.1,201.2,334"/>
	<path d="M226.8,328.3c0-1.1-0.9-1.9-1.9-1.9c-1.1,0-1.9,0.9-1.9,1.9c0,1.1,0.9,1.9,1.9,1.9C225.9,330.2,226.8,329.4,226.8,328.3"/>
	<path d="M198.2,210.6c0-1.1-0.9-1.9-1.9-1.9c-1.1,0-1.9,0.9-1.9,1.9c0,1.1,0.9,1.9,1.9,1.9C197.3,212.6,198.2,211.7,198.2,210.6"/>
	<path d="M150.2,139.4c0-1.1-0.9-1.9-1.9-1.9c-1.1,0-1.9,0.9-1.9,1.9c0,1.1,0.9,1.9,1.9,1.9C149.3,141.3,150.2,140.5,150.2,139.4"/>
	<path d="M164.1,119.7c0-1.1-0.9-1.9-1.9-1.9c-1.1,0-1.9,0.9-1.9,1.9c0,1.1,0.9,1.9,1.9,1.9C163.3,121.7,164.1,120.8,164.1,119.7"/>
	<path d="M65.6,86.7c0-1.1-0.9-1.9-1.9-1.9c-1.1,0-1.9,0.9-1.9,1.9c0,1.1,0.9,1.9,1.9,1.9C64.7,88.6,65.6,87.7,65.6,86.7"/>
	<path d="M79.9,67.7c0-1.1-0.9-1.9-1.9-1.9c-1.1,0-1.9,0.9-1.9,1.9c0,1.1,0.9,1.9,1.9,1.9C79,69.7,79.9,68.8,79.9,67.7"/>
	<path d="M138.3,162.2c0-1.1-0.9-1.9-1.9-1.9c-1.1,0-1.9,0.9-1.9,1.9c0,1.1,0.9,1.9,1.9,1.9C137.4,164.2,138.3,163.3,138.3,162.2"/>
	<path d="M80.9,147.7c0-1.1-0.9-1.9-1.9-1.9c-1.1,0-1.9,0.9-1.9,1.9c0,1.1,0.9,1.9,1.9,1.9C80.1,149.6,80.9,148.8,80.9,147.7"/>
	<path d="M232.3,244.8c0-1.1-0.9-1.9-1.9-1.9c-1.1,0-1.9,0.9-1.9,1.9c0,1.1,0.9,1.9,1.9,1.9C231.4,246.7,232.3,245.9,232.3,244.8"/>
	<path d="M243.7,196.6c0-1.1-0.9-1.9-1.9-1.9s-1.9,0.9-1.9,1.9c0,1.1,0.9,1.9,1.9,1.9S243.7,197.7,243.7,196.6"/>
	<path d="M219.2,204.1c0-1.1-0.9-1.9-1.9-1.9c-1.1,0-1.9,0.9-1.9,1.9c0,1.1,0.9,1.9,1.9,1.9C218.3,206.1,219.2,205.2,219.2,204.1"/>
	<path d="M194.2,235.5c0-1.1-0.9-1.9-1.9-1.9c-1.1,0-1.9,0.9-1.9,1.9c0,1.1,0.9,1.9,1.9,1.9C193.3,237.4,194.2,236.6,194.2,235.5"/>
	<path d="M236.8,219.3c0-1.1-0.9-1.9-1.9-1.9c-1.1,0-1.9,0.9-1.9,1.9c0,1.1,0.9,1.9,1.9,1.9C235.9,221.2,236.8,220.3,236.8,219.3"/>
	<path d="M147.2,248.3c0-1.1-0.9-1.9-1.9-1.9c-1.1,0-1.9,0.9-1.9,1.9c0,1.1,0.9,1.9,1.9,1.9C146.3,250.2,147.2,249.4,147.2,248.3"/>
	<path d="M132.4,231.3c0-1.1-0.9-1.9-1.9-1.9c-1.1,0-1.9,0.9-1.9,1.9c0,1.1,0.9,1.9,1.9,1.9C131.5,233.2,132.4,232.4,132.4,231.3"/>
	<path d="M94,168.1c0-1.1-0.9-1.9-1.9-1.9c-1.1,0-1.9,0.9-1.9,1.9c0,1.1,0.9,1.9,1.9,1.9C93.1,170,94,169.1,94,168.1"/>
	<path d="M54.9,187.6c0-1.1-0.9-1.9-1.9-1.9c-1.1,0-1.9,0.9-1.9,1.9c0,1.1,0.9,1.9,1.9,1.9C54,189.6,54.9,188.7,54.9,187.6"/>
	<path d="M57.2,148.4c0-1.1-0.9-1.9-1.9-1.9c-1.1,0-1.9,0.9-1.9,1.9c0,1.1,0.9,1.9,1.9,1.9C56.3,150.4,57.2,149.5,57.2,148.4"/>
	<path d="M292.7,96.2c0-1.1-0.9-1.9-1.9-1.9c-1.1,0-1.9,0.9-1.9,1.9c0,1.1,0.9,1.9,1.9,1.9C291.8,98.1,292.7,97.2,292.7,96.2"/>
	<path d="M250.3,87.8c0-1.1-0.9-1.9-1.9-1.9c-1.1,0-1.9,0.9-1.9,1.9c0,1.1,0.9,1.9,1.9,1.9C249.4,89.7,250.3,88.9,250.3,87.8"/>
	<path d="M175.4,281.6c0-1.1-0.9-1.9-1.9-1.9c-1.1,0-1.9,0.9-1.9,1.9c0,1.1,0.9,1.9,1.9,1.9C174.5,283.5,175.4,282.7,175.4,281.6"/>
	<path d="M311,204.2c0-1.1-0.9-1.9-1.9-1.9c-1.1,0-1.9,0.9-1.9,1.9c0,1.1,0.9,1.9,1.9,1.9C310.2,206.2,311,205.3,311,204.2"/>
	<path d="M294.2,186.1c0-1.1-0.9-1.9-1.9-1.9c-1.1,0-1.9,0.9-1.9,1.9c0,1.1,0.9,1.9,1.9,1.9C293.3,188.1,294.2,187.2,294.2,186.1"/>
	<path d="M161.4,159.7c0-1.1-0.9-1.9-1.9-1.9c-1.1,0-1.9,0.9-1.9,1.9c0,1.1,0.9,1.9,1.9,1.9C160.5,161.7,161.4,160.8,161.4,159.7"/>
	<path d="M179.4,98c0-1.1-0.9-1.9-1.9-1.9c-1.1,0-1.9,0.9-1.9,1.9c0,1.1,0.9,1.9,1.9,1.9C178.5,99.9,179.4,99.1,179.4,98"/>
	<path d="M151.9,288.1c0-1.1-0.9-1.9-1.9-1.9c-1.1,0-1.9,0.9-1.9,1.9c0,1.1,0.9,1.9,1.9,1.9C151,290.1,151.9,289.2,151.9,288.1"/>
	<path d="M192.3,297c0-1.1-0.9-1.9-1.9-1.9c-1.1,0-1.9,0.9-1.9,1.9c0,1.1,0.9,1.9,1.9,1.9C191.4,298.9,192.3,298.1,192.3,297"/>
	<path d="M184,318c0-1.1-0.9-1.9-1.9-1.9c-1.1,0-1.9,0.9-1.9,1.9c0,1.1,0.9,1.9,1.9,1.9C183.1,319.9,184,319.1,184,318"/>
	<path d="M170.9,241.6c0-1.1-0.9-1.9-1.9-1.9c-1.1,0-1.9,0.9-1.9,1.9c0,1.1,0.9,1.9,1.9,1.9C170.1,243.6,170.9,242.7,170.9,241.6"/>
	<path d="M225,50c0-1.1-0.9-1.9-1.9-1.9c-1.1,0-1.9,0.9-1.9,1.9c0,1.1,0.9,1.9,1.9,1.9C224.1,52,225,51.1,225,50"/>
	<path d="M154,224.9c0-1.1-0.9-1.9-1.9-1.9c-1.1,0-1.9,0.9-1.9,1.9c0,1.1,0.9,1.9,1.9,1.9C153.2,226.8,154,225.9,154,224.9"/>
	<path d="M176.8,218.6c0-1.1-0.9-1.9-1.9-1.9c-1.1,0-1.9,0.9-1.9,1.9c0,1.1,0.9,1.9,1.9,1.9C175.9,220.6,176.8,219.7,176.8,218.6"/>
	<path d="M139.8,119c0-1.1-0.9-1.9-1.9-1.9c-1.1,0-1.9,0.9-1.9,1.9c0,1.1,0.9,1.9,1.9,1.9C138.9,120.9,139.8,120.1,139.8,119"/>
	<path d="M249.5,261.8c0-1.1-0.9-1.9-1.9-1.9c-1.1,0-1.9,0.9-1.9,1.9c0,1.1,0.9,1.9,1.9,1.9C248.6,263.7,249.5,262.9,249.5,261.8"/>
	<path d="M162,264.4c0-1.1-0.9-1.9-1.9-1.9c-1.1,0-1.9,0.9-1.9,1.9c0,1.1,0.9,1.9,1.9,1.9C161.1,266.4,162,265.5,162,264.4"/>
	<path d="M225.7,181.9c0-1.1-0.9-1.9-1.9-1.9c-1.1,0-1.9,0.9-1.9,1.9c0,1.1,0.9,1.9,1.9,1.9C224.8,183.9,225.7,183,225.7,181.9"/>
	<path d="M90.9,229c0-1.1-0.9-1.9-1.9-1.9c-1.1,0-1.9,0.9-1.9,1.9c0,1.1,0.9,1.9,1.9,1.9C90,230.9,90.9,230.1,90.9,229"/>
	<path d="M55.1,245.4c0-1.1-0.9-1.9-1.9-1.9c-1.1,0-1.9,0.9-1.9,1.9c0,1.1,0.9,1.9,1.9,1.9C54.2,247.4,55.1,246.5,55.1,245.4"/>
	<path d="M304,224.7c0-1.1-0.9-1.9-1.9-1.9c-1.1,0-1.9,0.9-1.9,1.9c0,1.1,0.9,1.9,1.9,1.9C303.2,226.6,304,225.7,304,224.7"/>
	<path d="M91.9,86.1c0-1.1-0.9-1.9-1.9-1.9c-1.1,0-1.9,0.9-1.9,1.9c0,1.1,0.9,1.9,1.9,1.9C91,88,91.9,87.2,91.9,86.1"/>
	<path d="M80.1,249c0-1.1-0.9-1.9-1.9-1.9c-1.1,0-1.9,0.9-1.9,1.9c0,1.1,0.9,1.9,1.9,1.9C79.2,251,80.1,250.1,80.1,249"/>
	<path d="M126.9,142.9c0-1.1-0.9-1.9-1.9-1.9c-1.1,0-1.9,0.9-1.9,1.9c0,1.1,0.9,1.9,1.9,1.9C126,144.8,126.9,143.9,126.9,142.9"/>
	<path d="M192.1,78.9c0-1.1-0.9-1.9-1.9-1.9c-1.1,0-1.9,0.9-1.9,1.9c0,1.1,0.9,1.9,1.9,1.9C191.3,80.8,192.1,80,192.1,78.9"/>
	<path d="M66.5,206.2c0-1.1-0.9-1.9-1.9-1.9c-1.1,0-1.9,0.9-1.9,1.9c0,1.1,0.9,1.9,1.9,1.9C65.7,208.1,66.5,207.3,66.5,206.2"/>
	<path d="M66.5,167.7c0-1.1-0.9-1.9-1.9-1.9c-1.1,0-1.9,0.9-1.9,1.9c0,1.1,0.9,1.9,1.9,1.9C65.6,169.6,66.5,168.8,66.5,167.7"/>
	<path d="M166.4,305.6c0-1.1-0.9-1.9-1.9-1.9c-1.1,0-1.9,0.9-1.9,1.9c0,1.1,0.9,1.9,1.9,1.9C165.5,307.5,166.4,306.7,166.4,305.6"/>
	<path d="M226.6,268.5c0-1.1-0.9-1.9-1.9-1.9c-1.1,0-1.9,0.9-1.9,1.9c0,1.1,0.9,1.9,1.9,1.9C225.7,270.4,226.6,269.6,226.6,268.5"/>
	<path d="M285.8,57.6c0-1.1-0.9-1.9-1.9-1.9c-1.1,0-1.9,0.9-1.9,1.9c0,1.1,0.9,1.9,1.9,1.9C284.9,59.5,285.8,58.7,285.8,57.6"/>
	<path d="M268.1,41.3c0-1.1-0.9-1.9-1.9-1.9c-1.1,0-1.9,0.9-1.9,1.9c0,1.1,0.9,1.9,1.9,1.9C267.2,43.2,268.1,42.4,268.1,41.3"/>
	<path d="M277.3,79.7c0-1.1-0.9-1.9-1.9-1.9c-1.1,0-1.9,0.9-1.9,1.9c0,1.1,0.9,1.9,1.9,1.9C276.5,81.7,277.3,80.8,277.3,79.7"/>
	<path d="M217.1,288.9c0-1.1-0.9-1.9-1.9-1.9c-1.1,0-1.9,0.9-1.9,1.9c0,1.1,0.9,1.9,1.9,1.9C216.2,290.8,217.1,290,217.1,288.9"/>
	<path d="M285,207.9c0-1.1-0.9-1.9-1.9-1.9c-1.1,0-1.9,0.9-1.9,1.9c0,1.1,0.9,1.9,1.9,1.9C284.1,209.8,285,209,285,207.9"/>
	<path d="M237.5,70c0-1.1-0.9-1.9-1.9-1.9c-1.1,0-1.9,0.9-1.9,1.9c0,1.1,0.9,1.9,1.9,1.9C236.7,72,237.5,71.1,237.5,70"/>
	<path d="M253,235.7c0-1.1-0.9-1.9-1.9-1.9c-1.1,0-1.9,0.9-1.9,1.9c0,1.1,0.9,1.9,1.9,1.9C252.2,237.6,253,236.8,253,235.7"/>
	<path d="M158.7,202.6c0-1.1-0.9-1.9-1.9-1.9c-1.1,0-1.9,0.9-1.9,1.9c0,1.1,0.9,1.9,1.9,1.9C157.8,204.6,158.7,203.7,158.7,202.6"/>
	<path d="M114,215c0-1.1-0.9-1.9-1.9-1.9c-1.1,0-1.9,0.9-1.9,1.9c0,1.1,0.9,1.9,1.9,1.9C113.1,216.9,114,216.1,114,215"/>
	<path d="M242.6,285.3c0-1.1-0.9-1.9-1.9-1.9c-1.1,0-1.9,0.9-1.9,1.9c0,1.1,0.9,1.9,1.9,1.9C241.7,287.3,242.6,286.4,242.6,285.3"/>
	<path d="M209.7,312.6c0-1.1-0.9-1.9-1.9-1.9c-1.1,0-1.9,0.9-1.9,1.9c0,1.1,0.9,1.9,1.9,1.9C208.8,314.5,209.7,313.7,209.7,312.6"/>
	<path d="M152.1,332.2c0-1.1-0.9-1.9-1.9-1.9c-1.1,0-1.9,0.9-1.9,1.9c0,1.1,0.9,1.9,1.9,1.9C151.3,334.1,152.1,333.2,152.1,332.2"/>
	<path d="M108.8,318.9c0-1.1-0.9-1.9-1.9-1.9c-1.1,0-1.9,0.9-1.9,1.9c0,1.1,0.9,1.9,1.9,1.9C107.9,320.9,108.8,320,108.8,318.9"/>
	<path d="M302.3,274.9c0-1.1-0.9-1.9-1.9-1.9c-1.1,0-1.9,0.9-1.9,1.9c0,1.1,0.9,1.9,1.9,1.9C301.4,276.8,302.3,275.9,302.3,274.9"/>
	<path d="M286.2,292.4c0-1.1-0.9-1.9-1.9-1.9c-1.1,0-1.9,0.9-1.9,1.9c0,1.1,0.9,1.9,1.9,1.9C285.3,294.3,286.2,293.4,286.2,292.4"/>
	<path d="M140.1,39.1c0-1.1-0.9-1.9-1.9-1.9c-1.1,0-1.9,0.9-1.9,1.9c0,1.1,0.9,1.9,1.9,1.9C139.3,41,140.1,40.2,140.1,39.1"/>
	<path d="M162.6,36.3c0-1.1-0.9-1.9-1.9-1.9c-1.1,0-1.9,0.9-1.9,1.9c0,1.1,0.9,1.9,1.9,1.9C161.7,38.3,162.6,37.4,162.6,36.3"/>
	<path d="M33.8,195.4c0-1.1-0.9-1.9-1.9-1.9c-1.1,0-1.9,0.9-1.9,1.9c0,1.1,0.9,1.9,1.9,1.9C32.9,197.4,33.8,196.5,33.8,195.4"/>
	<path d="M15.9,183.6c0-1.1-0.9-1.9-1.9-1.9c-1.1,0-1.9,0.9-1.9,1.9c0,1.1,0.9,1.9,1.9,1.9C15,185.6,15.9,184.7,15.9,183.6"/>
	<path d="M128.7,98.5c0-1.1-0.9-1.9-1.9-1.9c-1.1,0-1.9,0.9-1.9,1.9c0,1.1,0.9,1.9,1.9,1.9C127.8,100.4,128.7,99.6,128.7,98.5"/>
	<path d="M105.9,104.1c0-1.1-0.9-1.9-1.9-1.9c-1.1,0-1.9,0.9-1.9,1.9c0,1.1,0.9,1.9,1.9,1.9C105,106,105.9,105.1,105.9,104.1"/>
	<path d="M207.5,122.4c0-1.1-0.9-1.9-1.9-1.9c-1.1,0-1.9,0.9-1.9,1.9c0,1.1,0.9,1.9,1.9,1.9C206.6,124.3,207.5,123.4,207.5,122.4"/>
	<path d="M99.3,261.8c0-1.1-0.9-1.9-1.9-1.9c-1.1,0-1.9,0.9-1.9,1.9c0,1.1,0.9,1.9,1.9,1.9C98.4,263.7,99.3,262.8,99.3,261.8"/>
	<path d="M104.5,297.7c0-1.1-0.9-1.9-1.9-1.9c-1.1,0-1.9,0.9-1.9,1.9c0,1.1,0.9,1.9,1.9,1.9C103.6,299.7,104.5,298.8,104.5,297.7"/>
	<path d="M215.4,228.8c0-1.1-0.9-1.9-1.9-1.9c-1.1,0-1.9,0.9-1.9,1.9c0,1.1,0.9,1.9,1.9,1.9C214.5,230.7,215.4,229.8,215.4,228.8"/>
	<path d="M203.9,183.4c0-1.1-0.9-1.9-1.9-1.9c-1.1,0-1.9,0.9-1.9,1.9c0,1.1,0.9,1.9,1.9,1.9C203.1,185.4,203.9,184.5,203.9,183.4"/>
	<path d="M68.3,127c0-1.1-0.9-1.9-1.9-1.9s-1.9,0.9-1.9,1.9c0,1.1,0.9,1.9,1.9,1.9S68.3,128.1,68.3,127"/>
	<path d="M167.4,180.3c0-1.1-0.9-1.9-1.9-1.9c-1.1,0-1.9,0.9-1.9,1.9c0,1.1,0.9,1.9,1.9,1.9C166.5,182.2,167.4,181.4,167.4,180.3"/>
	<path d="M268.2,191.8c0-1.1-0.9-1.9-1.9-1.9c-1.1,0-1.9,0.9-1.9,1.9c0,1.1,0.9,1.9,1.9,1.9C267.4,193.7,268.2,192.8,268.2,191.8"/>
	<path d="M79,46.6c0-1.1-0.9-1.9-1.9-1.9c-1.1,0-1.9,0.9-1.9,1.9c0,1.1,0.9,1.9,1.9,1.9C78.1,48.5,79,47.7,79,46.6"/>
	<path d="M98.7,34c0-1.1-0.9-1.9-1.9-1.9c-1.1,0-1.9,0.9-1.9,1.9c0,1.1,0.9,1.9,1.9,1.9C97.9,35.9,98.7,35,98.7,34"/>
	<path d="M302.2,74.9c0-1.1-0.9-1.9-1.9-1.9c-1.1,0-1.9,0.9-1.9,1.9c0,1.1,0.9,1.9,1.9,1.9C301.4,76.8,302.2,76,302.2,74.9"/>
	<path d="M115.8,166.2c0-1.1-0.9-1.9-1.9-1.9c-1.1,0-1.9,0.9-1.9,1.9c0,1.1,0.9,1.9,1.9,1.9C114.9,168.1,115.8,167.2,115.8,166.2"/>
	<path d="M200.2,275.8c0-1.1-0.9-1.9-1.9-1.9c-1.1,0-1.9,0.9-1.9,1.9c0,1.1,0.9,1.9,1.9,1.9C199.3,277.7,200.2,276.8,200.2,275.8"/>
	<path d="M246.8,47.5c0-1.1-0.9-1.9-1.9-1.9c-1.1,0-1.9,0.9-1.9,1.9c0,1.1,0.9,1.9,1.9,1.9C246,49.5,246.8,48.6,246.8,47.5"/>
	<path d="M331.4,214.7c0-1.1-0.9-1.9-1.9-1.9c-1.1,0-1.9,0.9-1.9,1.9c0,1.1,0.9,1.9,1.9,1.9C330.6,216.6,331.4,215.8,331.4,214.7"/>
	<path d="M250.4,113.3c0-1.1-0.9-1.9-1.9-1.9c-1.1,0-1.9,0.9-1.9,1.9c0,1.1,0.9,1.9,1.9,1.9C249.5,115.2,250.4,114.4,250.4,113.3"/>
	<path d="M210.3,162.2c0-1.1-0.9-1.9-1.9-1.9c-1.1,0-1.9,0.9-1.9,1.9c0,1.1,0.9,1.9,1.9,1.9C209.4,164.2,210.3,163.3,210.3,162.2"/>
	<path d="M228.9,118.5c0-1.1-0.9-1.9-1.9-1.9c-1.1,0-1.9,0.9-1.9,1.9c0,1.1,0.9,1.9,1.9,1.9C228,120.4,228.9,119.5,228.9,118.5"/>
	<path d="M186.6,119.5c0-1.1-0.9-1.9-1.9-1.9c-1.1,0-1.9,0.9-1.9,1.9c0,1.1,0.9,1.9,1.9,1.9C185.8,121.4,186.6,120.6,186.6,119.5"/>
	<path d="M204.8,98.9c0-1.1-0.9-1.9-1.9-1.9c-1.1,0-1.9,0.9-1.9,1.9c0,1.1,0.9,1.9,1.9,1.9C203.9,100.8,204.8,100,204.8,98.9"/>
	<path d="M155.4,100.3c0-1.1-0.9-1.9-1.9-1.9c-1.1,0-1.9,0.9-1.9,1.9c0,1.1,0.9,1.9,1.9,1.9C154.6,102.2,155.4,101.4,155.4,100.3"/>
	<path d="M209.8,253c0-1.1-0.9-1.9-1.9-1.9c-1.1,0-1.9,0.9-1.9,1.9c0,1.1,0.9,1.9,1.9,1.9C208.9,254.9,209.8,254,209.8,253"/>
	<path d="M307.6,137.2c0-1.1-0.9-1.9-1.9-1.9c-1.1,0-1.9,0.9-1.9,1.9c0,1.1,0.9,1.9,1.9,1.9C306.7,139.1,307.6,138.3,307.6,137.2"/>
	<path d="M297.5,161.5c0-1.1-0.9-1.9-1.9-1.9c-1.1,0-1.9,0.9-1.9,1.9c0,1.1,0.9,1.9,1.9,1.9C296.7,163.5,297.5,162.6,297.5,161.5"/>
	<path d="M66.5,227.8c0-1.1-0.9-1.9-1.9-1.9c-1.1,0-1.9,0.9-1.9,1.9c0,1.1,0.9,1.9,1.9,1.9C65.6,229.7,66.5,228.8,66.5,227.8"/>
	<path d="M30.1,108.9c0-1.1-0.9-1.9-1.9-1.9c-1.1,0-1.9,0.9-1.9,1.9c0,1.1,0.9,1.9,1.9,1.9C29.2,110.8,30.1,109.9,30.1,108.9"/>
	<path d="M123.9,254.6c0-1.1-0.9-1.9-1.9-1.9c-1.1,0-1.9,0.9-1.9,1.9c0,1.1,0.9,1.9,1.9,1.9C123.1,256.6,123.9,255.7,123.9,254.6"/>
	<path d="M115.8,278.4c0-1.1-0.9-1.9-1.9-1.9c-1.1,0-1.9,0.9-1.9,1.9c0,1.1,0.9,1.9,1.9,1.9C114.9,280.4,115.8,279.5,115.8,278.4"/>
	<path d="M103.1,191.7c0-1.1-0.9-1.9-1.9-1.9c-1.1,0-1.9,0.9-1.9,1.9c0,1.1,0.9,1.9,1.9,1.9C102.2,193.6,103.1,192.8,103.1,191.7"/>
	<path d="M178.4,57.2c0-1.1-0.9-1.9-1.9-1.9s-1.9,0.9-1.9,1.9c0,1.1,0.9,1.9,1.9,1.9S178.4,58.3,178.4,57.2"/>
	<path d="M207.2,36.9c0-1.1-0.9-1.9-1.9-1.9c-1.1,0-1.9,0.9-1.9,1.9c0,1.1,0.9,1.9,1.9,1.9C206.3,38.8,207.2,37.9,207.2,36.9"/>
	<path d="M88.5,281c0-1.1-0.9-1.9-1.9-1.9c-1.1,0-1.9,0.9-1.9,1.9c0,1.1,0.9,1.9,1.9,1.9C87.7,283,88.5,282.1,88.5,281"/>
	<path d="M335.9,192.2c0-1.1-0.9-1.9-1.9-1.9c-1.1,0-1.9,0.9-1.9,1.9c0,1.1,0.9,1.9,1.9,1.9C335,194.2,335.9,193.3,335.9,192.2"/>
	<path d="M334.3,142.4c0-1.1-0.9-1.9-1.9-1.9c-1.1,0-1.9,0.9-1.9,1.9c0,1.1,0.9,1.9,1.9,1.9C333.4,144.4,334.3,143.5,334.3,142.4"/>
	<path d="M123.5,188.2c0-1.1-0.9-1.9-1.9-1.9c-1.1,0-1.9,0.9-1.9,1.9c0,1.1,0.9,1.9,1.9,1.9C122.7,190.1,123.5,189.2,123.5,188.2"/>
	<path d="M103.3,145.2c0-1.1-0.9-1.9-1.9-1.9c-1.1,0-1.9,0.9-1.9,1.9c0,1.1,0.9,1.9,1.9,1.9C102.4,147.1,103.3,146.3,103.3,145.2"/>
	<path d="M316,181.5c0-1.1-0.9-1.9-1.9-1.9c-1.1,0-1.9,0.9-1.9,1.9c0,1.1,0.9,1.9,1.9,1.9C315.2,183.4,316,182.5,316,181.5"/>
	<path d="M144.7,311c0-1.1-0.9-1.9-1.9-1.9c-1.1,0-1.9,0.9-1.9,1.9c0,1.1,0.9,1.9,1.9,1.9C143.8,312.9,144.7,312.1,144.7,311"/>
	<path d="M220.7,20.3c0-1.1-0.9-1.9-1.9-1.9c-1.1,0-1.9,0.9-1.9,1.9c0,1.1,0.9,1.9,1.9,1.9C219.8,22.3,220.7,21.4,220.7,20.3"/>
	<path d="M196.1,14.8c0-1.1-0.9-1.9-1.9-1.9c-1.1,0-1.9,0.9-1.9,1.9c0,1.1,0.9,1.9,1.9,1.9C195.2,16.8,196.1,15.9,196.1,14.8"/>
	<path d="M128.7,327.8c0-1.1-0.9-1.9-1.9-1.9c-1.1,0-1.9,0.9-1.9,1.9c0,1.1,0.9,1.9,1.9,1.9C127.9,329.7,128.7,328.9,128.7,327.8"/>
	<path d="M220.3,141.6c0-1.1-0.9-1.9-1.9-1.9c-1.1,0-1.9,0.9-1.9,1.9c0,1.1,0.9,1.9,1.9,1.9C219.4,143.5,220.3,142.7,220.3,141.6"/>
	<path d="M314.1,255.5c0-1.1-0.9-1.9-1.9-1.9c-1.1,0-1.9,0.9-1.9,1.9c0,1.1,0.9,1.9,1.9,1.9C313.2,257.5,314.1,256.6,314.1,255.5"/>
	<path d="M153.8,58.5c0-1.1-0.9-1.9-1.9-1.9c-1.1,0-1.9,0.9-1.9,1.9c0,1.1,0.9,1.9,1.9,1.9C152.9,60.5,153.8,59.6,153.8,58.5"/>
	<path d="M324.2,235.6c0-1.1-0.9-1.9-1.9-1.9c-1.1,0-1.9,0.9-1.9,1.9c0,1.1,0.9,1.9,1.9,1.9C323.4,237.6,324.2,236.7,324.2,235.6"/>
	<path d="M235.2,161.2c0-1.1-0.9-1.9-1.9-1.9c-1.1,0-1.9,0.9-1.9,1.9c0,1.1,0.9,1.9,1.9,1.9C234.3,163.1,235.2,162.3,235.2,161.2"/>
	<path d="M317.3,95.1c0-1.1-0.9-1.9-1.9-1.9c-1.1,0-1.9,0.9-1.9,1.9c0,1.1,0.9,1.9,1.9,1.9C316.5,97.1,317.3,96.2,317.3,95.1"/>
	<path d="M57.3,65.1c0-1.1-0.9-1.9-1.9-1.9c-1.1,0-1.9,0.9-1.9,1.9c0,1.1,0.9,1.9,1.9,1.9C56.5,67,57.3,66.2,57.3,65.1"/>
	<path d="M117.4,45c0-1.1-0.9-1.9-1.9-1.9s-1.9,0.9-1.9,1.9c0,1.1,0.9,1.9,1.9,1.9S117.4,46.1,117.4,45"/>
	<path d="M143.2,81.1c0-1.1-0.9-1.9-1.9-1.9c-1.1,0-1.9,0.9-1.9,1.9c0,1.1,0.9,1.9,1.9,1.9C142.3,83,143.2,82.1,143.2,81.1"/>
	<path d="M261.8,65.2c0-1.1-0.9-1.9-1.9-1.9c-1.1,0-1.9,0.9-1.9,1.9c0,1.1,0.9,1.9,1.9,1.9C260.9,67.2,261.8,66.3,261.8,65.2"/>
	<path d="M174.1,335.8c0-1.1-0.9-1.9-1.9-1.9c-1.1,0-1.9,0.9-1.9,1.9c0,1.1,0.9,1.9,1.9,1.9C173.2,337.8,174.1,336.9,174.1,335.8"/>
	<path d="M279.1,229.2c0-1.1-0.9-1.9-1.9-1.9c-1.1,0-1.9,0.9-1.9,1.9c0,1.1,0.9,1.9,1.9,1.9C278.3,231.2,279.1,230.3,279.1,229.2"/>
	<path d="M283.8,119.4c0-1.1-0.9-1.9-1.9-1.9c-1.1,0-1.9,0.9-1.9,1.9c0,1.1,0.9,1.9,1.9,1.9C283,121.3,283.8,120.5,283.8,119.4"/>
	<path d="M285,142.5c0-1.1-0.9-1.9-1.9-1.9c-1.1,0-1.9,0.9-1.9,1.9c0,1.1,0.9,1.9,1.9,1.9C284.1,144.4,285,143.5,285,142.5"/>
	<path d="M35.8,253.4c0-1.1-0.9-1.9-1.9-1.9c-1.1,0-1.9,0.9-1.9,1.9c0,1.1,0.9,1.9,1.9,1.9C34.9,255.4,35.8,254.5,35.8,253.4"/>
	<path d="M216.5,77c0-1.1-0.9-1.9-1.9-1.9c-1.1,0-1.9,0.9-1.9,1.9c0,1.1,0.9,1.9,1.9,1.9C215.6,79,216.5,78.1,216.5,77"/>
	<path d="M269,101.4c0-1.1-0.9-1.9-1.9-1.9c-1.1,0-1.9,0.9-1.9,1.9c0,1.1,0.9,1.9,1.9,1.9C268.1,103.4,269,102.5,269,101.4"/>
	<path d="M252.3,175.3c0-1.1-0.9-1.9-1.9-1.9c-1.1,0-1.9,0.9-1.9,1.9c0,1.1,0.9,1.9,1.9,1.9C251.4,177.3,252.3,176.4,252.3,175.3"/>
	<path d="M233.2,305.6c0-1.1-0.9-1.9-1.9-1.9c-1.1,0-1.9,0.9-1.9,1.9c0,1.1,0.9,1.9,1.9,1.9C232.4,307.6,233.2,306.7,233.2,305.6"/>
	<path d="M80,185.9c0-1.1-0.9-1.9-1.9-1.9c-1.1,0-1.9,0.9-1.9,1.9c0,1.1,0.9,1.9,1.9,1.9C79.2,187.8,80,186.9,80,185.9"/>
	<path d="M267.2,304.2c0-1.1-0.9-1.9-1.9-1.9c-1.1,0-1.9,0.9-1.9,1.9c0,1.1,0.9,1.9,1.9,1.9C266.4,306.1,267.2,305.3,267.2,304.2"/>
	<path d="M186,259.1c0-1.1-0.9-1.9-1.9-1.9c-1.1,0-1.9,0.9-1.9,1.9c0,1.1,0.9,1.9,1.9,1.9C185.2,261,186,260.1,186,259.1"/>
	<path d="M306.4,115c0-1.1-0.9-1.9-1.9-1.9c-1.1,0-1.9,0.9-1.9,1.9c0,1.1,0.9,1.9,1.9,1.9C305.5,116.9,306.4,116.1,306.4,115"/>
	<path d="M114.9,80.2c0-1.1-0.9-1.9-1.9-1.9c-1.1,0-1.9,0.9-1.9,1.9c0,1.1,0.9,1.9,1.9,1.9C114,82.2,114.9,81.3,114.9,80.2"/>
	<path d="M260.9,213.8c0-1.1-0.9-1.9-1.9-1.9c-1.1,0-1.9,0.9-1.9,1.9c0,1.1,0.9,1.9,1.9,1.9C260,215.8,260.9,214.9,260.9,213.8"/>
	<path d="M269.7,250.4c0-1.1-0.9-1.9-1.9-1.9c-1.1,0-1.9,0.9-1.9,1.9c0,1.1,0.9,1.9,1.9,1.9C268.8,252.3,269.7,251.5,269.7,250.4"/>
	<path d="M327.5,120.5c0-1.1-0.9-1.9-1.9-1.9c-1.1,0-1.9,0.9-1.9,1.9c0,1.1,0.9,1.9,1.9,1.9C326.6,122.5,327.5,121.6,327.5,120.5"/>
	<path d="M338,168.6c0-1.1-0.9-1.9-1.9-1.9c-1.1,0-1.9,0.9-1.9,1.9c0,1.1,0.9,1.9,1.9,1.9C337.1,170.5,338,169.6,338,168.6"/>
	<path d="M67.3,291.5c0-1.1-0.9-1.9-1.9-1.9c-1.1,0-1.9,0.9-1.9,1.9c0,1.1,0.9,1.9,1.9,1.9C66.4,293.4,67.3,292.5,67.3,291.5"/>
	<path d="M277.2,169.8c0-1.1-0.9-1.9-1.9-1.9c-1.1,0-1.9,0.9-1.9,1.9c0,1.1,0.9,1.9,1.9,1.9C276.3,171.8,277.2,170.9,277.2,169.8"/>
	<path d="M44.4,127c0-1.1-0.9-1.9-1.9-1.9c-1.1,0-1.9,0.9-1.9,1.9c0,1.1,0.9,1.9,1.9,1.9C43.5,128.9,44.4,128.1,44.4,127"/>
	<path d="M49.9,273.8c0-1.1-0.9-1.9-1.9-1.9c-1.1,0-1.9,0.9-1.9,1.9c0,1.1,0.9,1.9,1.9,1.9C49,275.7,49.9,274.9,49.9,273.8"/>
	<path d="M108.4,239.7c0-1.1-0.9-1.9-1.9-1.9c-1.1,0-1.9,0.9-1.9,1.9c0,1.1,0.9,1.9,1.9,1.9C107.5,241.6,108.4,240.7,108.4,239.7"/>
	<path d="M174.6,141.6c0-1.1-0.9-1.9-1.9-1.9c-1.1,0-1.9,0.9-1.9,1.9c0,1.1,0.9,1.9,1.9,1.9C173.7,143.6,174.6,142.7,174.6,141.6"/>
	<path d="M147.6,16.6c0-1.1-0.9-1.9-1.9-1.9c-1.1,0-1.9,0.9-1.9,1.9c0,1.1,0.9,1.9,1.9,1.9C146.8,18.6,147.6,17.7,147.6,16.6"/>
	<path d="M295,246.1c0-1.1-0.9-1.9-1.9-1.9c-1.1,0-1.9,0.9-1.9,1.9c0,1.1,0.9,1.9,1.9,1.9C294.1,248,295,247.2,295,246.1"/>
	<path d="M130.1,62.9c0-1.1-0.9-1.9-1.9-1.9c-1.1,0-1.9,0.9-1.9,1.9c0,1.1,0.9,1.9,1.9,1.9C129.2,64.8,130.1,63.9,130.1,62.9"/>
	<path d="M123.1,22.6c0-1.1-0.9-1.9-1.9-1.9c-1.1,0-1.9,0.9-1.9,1.9c0,1.1,0.9,1.9,1.9,1.9C122.2,24.6,123.1,23.7,123.1,22.6"/>
	<path d="M228.7,96.2c0-1.1-0.9-1.9-1.9-1.9c-1.1,0-1.9,0.9-1.9,1.9c0,1.1,0.9,1.9,1.9,1.9C227.8,98.2,228.7,97.3,228.7,96.2"/>
	<path d="M45,216.4c0-1.1-0.9-1.9-1.9-1.9s-1.9,0.9-1.9,1.9c0,1.1,0.9,1.9,1.9,1.9S45,217.5,45,216.4"/>
	<path d="M19.3,211.8c0-1.1-0.9-1.9-1.9-1.9c-1.1,0-1.9,0.9-1.9,1.9c0,1.1,0.9,1.9,1.9,1.9C18.4,213.7,19.3,212.8,19.3,211.8"/>
	<path d="M202.4,58.8c0-1.1-0.9-1.9-1.9-1.9c-1.1,0-1.9,0.9-1.9,1.9c0,1.1,0.9,1.9,1.9,1.9C201.5,60.8,202.4,59.9,202.4,58.8"/>
	<path d="M167.4,77.6c0-1.1-0.9-1.9-1.9-1.9c-1.1,0-1.9,0.9-1.9,1.9c0,1.1,0.9,1.9,1.9,1.9C166.5,79.6,167.4,78.7,167.4,77.6"/>
	<path d="M144.7,183.6c0-1.1-0.9-1.9-1.9-1.9c-1.1,0-1.9,0.9-1.9,1.9c0,1.1,0.9,1.9,1.9,1.9C143.8,185.6,144.7,184.7,144.7,183.6"/>
	<path d="M318.6,157.8c0-1.1-0.9-1.9-1.9-1.9c-1.1,0-1.9,0.9-1.9,1.9c0,1.1,0.9,1.9,1.9,1.9C317.8,159.7,318.6,158.8,318.6,157.8"/>
	<path d="M101.7,60.7c0-1.1-0.9-1.9-1.9-1.9c-1.1,0-1.9,0.9-1.9,1.9c0,1.1,0.9,1.9,1.9,1.9C100.8,62.7,101.7,61.8,101.7,60.7"/>
	<path d="M242.6,139.3c0-1.1-0.9-1.9-1.9-1.9c-1.1,0-1.9,0.9-1.9,1.9c0,1.1,0.9,1.9,1.9,1.9C241.7,141.2,242.6,140.3,242.6,139.3"/>
	<path d="M250.7,316.7c0-1.1-0.9-1.9-1.9-1.9c-1.1,0-1.9,0.9-1.9,1.9c0,1.1,0.9,1.9,1.9,1.9C249.8,318.7,250.7,317.8,250.7,316.7"/>
	<path d="M41.8,86.8c0-1.1-0.9-1.9-1.9-1.9c-1.1,0-1.9,0.9-1.9,1.9c0,1.1,0.9,1.9,1.9,1.9C41,88.7,41.8,87.8,41.8,86.8"/>
	<path d="M92.4,124.8c0-1.1-0.9-1.9-1.9-1.9c-1.1,0-1.9,0.9-1.9,1.9c0,1.1,0.9,1.9,1.9,1.9C91.5,126.7,92.4,125.8,92.4,124.8"/>
	<path d="M20.7,132.3c0-1.1-0.9-1.9-1.9-1.9c-1.1,0-1.9,0.9-1.9,1.9c0,1.1,0.9,1.9,1.9,1.9C19.8,134.2,20.7,133.3,20.7,132.3"/>
	<path d="M242.3,27.4c0-1.1-0.9-1.9-1.9-1.9c-1.1,0-1.9,0.9-1.9,1.9c0,1.1,0.9,1.9,1.9,1.9C241.4,29.4,242.3,28.5,242.3,27.4"/>
	<path d="M195.9,144c0-1.1-0.9-1.9-1.9-1.9c-1.1,0-1.9,0.9-1.9,1.9c0,1.1,0.9,1.9,1.9,1.9C195,145.9,195.9,145.1,195.9,144"/>
	<path d="M39.1,171.3c0-1.1-0.9-1.9-1.9-1.9c-1.1,0-1.9,0.9-1.9,1.9c0,1.1,0.9,1.9,1.9,1.9C38.2,173.2,39.1,172.3,39.1,171.3"/>
	<path d="M30.7,232c0-1.1-0.9-1.9-1.9-1.9c-1.1,0-1.9,0.9-1.9,1.9c0,1.1,0.9,1.9,1.9,1.9C29.8,233.9,30.7,233,30.7,232"/>
	<path d="M184.8,35.4c0-1.1-0.9-1.9-1.9-1.9c-1.1,0-1.9,0.9-1.9,1.9c0,1.1,0.9,1.9,1.9,1.9C183.9,37.3,184.8,36.5,184.8,35.4"/>
	<path d="M84.8,307.6c0-1.1-0.9-1.9-1.9-1.9c-1.1,0-1.9,0.9-1.9,1.9c0,1.1,0.9,1.9,1.9,1.9C84,309.5,84.8,308.6,84.8,307.6"/>
	<path d="M69.5,267.2c0-1.1-0.9-1.9-1.9-1.9c-1.1,0-1.9,0.9-1.9,1.9c0,1.1,0.9,1.9,1.9,1.9C68.6,269.1,69.5,268.2,69.5,267.2"/>
	<path d="M186.2,166.3c0-1.1-0.9-1.9-1.9-1.9c-1.1,0-1.9,0.9-1.9,1.9c0,1.1,0.9,1.9,1.9,1.9C185.4,168.2,186.2,167.4,186.2,166.3"/>
	<path d="M55,106.6c0-1.1-0.9-1.9-1.9-1.9c-1.1,0-1.9,0.9-1.9,1.9c0,1.1,0.9,1.9,1.9,1.9C54.2,108.5,55,107.6,55,106.6"/>
	<path d="M281.7,267.4c0-1.1-0.9-1.9-1.9-1.9c-1.1,0-1.9,0.9-1.9,1.9c0,1.1,0.9,1.9,1.9,1.9C280.9,269.4,281.7,268.5,281.7,267.4"/>
	<path d="M171.6,14.2c0-1.1-0.9-1.9-1.9-1.9c-1.1,0-1.9,0.9-1.9,1.9c0,1.1,0.9,1.9,1.9,1.9C170.7,16.1,171.6,15.3,171.6,14.2"/>
	<path d="M264.3,281.5c0-1.1-0.9-1.9-1.9-1.9c-1.1,0-1.9,0.9-1.9,1.9s0.9,1.9,1.9,1.9C263.5,283.4,264.3,282.5,264.3,281.5"/>
</g>
</svg>
