<?xml version="1.0" encoding="utf-8"?>
<!-- Generator: Adobe Illustrator 21.1.0, SVG Export Plug-In . SVG Version: 6.00 Build 0)  -->
<svg version="1.1" id="Layer_1" xmlns="http://www.w3.org/2000/svg" xmlns:xlink="http://www.w3.org/1999/xlink" x="0px" y="0px"
	 viewBox="0 0 350 350" style="enable-background:new 0 0 350 350;" xml:space="preserve">
<style type="text/css">
	.st0{fill:none;stroke:#231F20;stroke-width:0.75;stroke-miterlimit:10;}
</style>
<g>
	<line class="st0" x1="24.5" y1="227.8" x2="313.5" y2="261.1"/>
	<line class="st0" x1="24.5" y1="227.8" x2="275.1" y2="183.8"/>
	<line class="st0" x1="75.7" y1="177.3" x2="24.5" y2="227.8"/>
	<line class="st0" x1="75.7" y1="177.3" x2="51.6" y2="284.2"/>
	<line class="st0" x1="75.7" y1="177.3" x2="212.7" y2="81.1"/>
	<line class="st0" x1="75.7" y1="177.3" x2="138.8" y2="192.8"/>
	<line class="st0" x1="75.7" y1="177.3" x2="217.9" y2="337.8"/>
	<line class="st0" x1="75.7" y1="177.3" x2="272" y2="306.6"/>
	<line class="st0" x1="75.7" y1="177.3" x2="203.9" y2="279.6"/>
	<line class="st0" x1="75.7" y1="177.3" x2="313.5" y2="261.1"/>
	<line class="st0" x1="75.7" y1="177.3" x2="16.1" y2="166.2"/>
	<line class="st0" x1="75.7" y1="177.3" x2="193.9" y2="216.1"/>
	<line class="st0" x1="75.7" y1="177.3" x2="326.4" y2="141.7"/>
	<line class="st0" x1="75.7" y1="177.3" x2="275.1" y2="183.8"/>
	<line class="st0" x1="75.7" y1="177.3" x2="263.7" y2="115.2"/>
	<line class="st0" x1="51.6" y1="284.2" x2="24.5" y2="227.8"/>
	<line class="st0" x1="51.6" y1="284.2" x2="272" y2="306.6"/>
	<line class="st0" x1="51.6" y1="284.2" x2="313.5" y2="261.1"/>
	<line class="st0" x1="51.6" y1="284.2" x2="193.9" y2="216.1"/>
	<line class="st0" x1="51.6" y1="284.2" x2="326.4" y2="141.7"/>
	<line class="st0" x1="51.6" y1="284.2" x2="275.1" y2="183.8"/>
	<line class="st0" x1="92.7" y1="238.7" x2="24.5" y2="227.8"/>
	<line class="st0" x1="92.7" y1="238.7" x2="75.7" y2="177.3"/>
	<line class="st0" x1="92.7" y1="238.7" x2="51.6" y2="284.2"/>
	<line class="st0" x1="92.7" y1="238.7" x2="156.4" y2="337.7"/>
	<line class="st0" x1="92.7" y1="238.7" x2="212.7" y2="81.1"/>
	<line class="st0" x1="92.7" y1="238.7" x2="138.8" y2="192.8"/>
	<line class="st0" x1="92.7" y1="238.7" x2="36.4" y2="110.2"/>
	<line class="st0" x1="92.7" y1="238.7" x2="217.9" y2="337.8"/>
	<line class="st0" x1="92.7" y1="238.7" x2="144.1" y2="269"/>
	<line class="st0" x1="92.7" y1="238.7" x2="272" y2="306.6"/>
	<line class="st0" x1="92.7" y1="238.7" x2="203.9" y2="279.6"/>
	<line class="st0" x1="92.7" y1="238.7" x2="254.1" y2="240.5"/>
	<line class="st0" x1="92.7" y1="238.7" x2="313.5" y2="261.1"/>
	<line class="st0" x1="92.7" y1="238.7" x2="16.1" y2="166.2"/>
	<line class="st0" x1="92.7" y1="238.7" x2="333.9" y2="203.6"/>
	<line class="st0" x1="92.7" y1="238.7" x2="167.1" y2="134.1"/>
	<line class="st0" x1="92.7" y1="238.7" x2="193.9" y2="216.1"/>
	<line class="st0" x1="92.7" y1="238.7" x2="326.4" y2="141.7"/>
	<line class="st0" x1="92.7" y1="238.7" x2="275.1" y2="183.8"/>
	<line class="st0" x1="92.7" y1="238.7" x2="263.7" y2="115.2"/>
	<line class="st0" x1="76" y1="69.4" x2="24.5" y2="227.8"/>
	<line class="st0" x1="76" y1="69.4" x2="75.7" y2="177.3"/>
	<line class="st0" x1="76" y1="69.4" x2="51.6" y2="284.2"/>
	<line class="st0" x1="76" y1="69.4" x2="92.7" y2="238.7"/>
	<line class="st0" x1="76" y1="69.4" x2="156.4" y2="337.7"/>
	<line class="st0" x1="76" y1="69.4" x2="212.7" y2="81.1"/>
	<line class="st0" x1="76" y1="69.4" x2="138.8" y2="192.8"/>
	<line class="st0" x1="76" y1="69.4" x2="36.4" y2="110.2"/>
	<line class="st0" x1="76" y1="69.4" x2="217.9" y2="337.8"/>
	<line class="st0" x1="76" y1="69.4" x2="144.1" y2="269"/>
	<line class="st0" x1="76" y1="69.4" x2="309.8" y2="74.3"/>
	<line class="st0" x1="76" y1="69.4" x2="272" y2="306.6"/>
	<line class="st0" x1="76" y1="69.4" x2="203.9" y2="279.6"/>
	<line class="st0" x1="76" y1="69.4" x2="254.1" y2="240.5"/>
	<line class="st0" x1="76" y1="69.4" x2="313.5" y2="261.1"/>
	<line class="st0" x1="76" y1="69.4" x2="16.1" y2="166.2"/>
	<line class="st0" x1="76" y1="69.4" x2="333.9" y2="203.6"/>
	<line class="st0" x1="76" y1="69.4" x2="167.1" y2="134.1"/>
	<line class="st0" x1="76" y1="69.4" x2="193.9" y2="216.1"/>
	<line class="st0" x1="76" y1="69.4" x2="326.4" y2="141.7"/>
	<line class="st0" x1="76" y1="69.4" x2="275.1" y2="183.8"/>
	<line class="st0" x1="76" y1="69.4" x2="263.7" y2="115.2"/>
	<line class="st0" x1="100.2" y1="319.8" x2="24.5" y2="227.8"/>
	<line class="st0" x1="100.2" y1="319.8" x2="75.7" y2="177.3"/>
	<line class="st0" x1="100.2" y1="319.8" x2="51.6" y2="284.2"/>
	<line class="st0" x1="100.2" y1="319.8" x2="92.7" y2="238.7"/>
	<line class="st0" x1="100.2" y1="319.8" x2="76" y2="69.4"/>
	<line class="st0" x1="100.2" y1="319.8" x2="156.4" y2="337.7"/>
	<line class="st0" x1="100.2" y1="319.8" x2="212.7" y2="81.1"/>
	<line class="st0" x1="100.2" y1="319.8" x2="138.8" y2="192.8"/>
	<line class="st0" x1="100.2" y1="319.8" x2="36.4" y2="110.2"/>
	<line class="st0" x1="100.2" y1="319.8" x2="217.9" y2="337.8"/>
	<line class="st0" x1="100.2" y1="319.8" x2="144.1" y2="269"/>
	<line class="st0" x1="100.2" y1="319.8" x2="272" y2="306.6"/>
	<line class="st0" x1="100.2" y1="319.8" x2="203.9" y2="279.6"/>
	<line class="st0" x1="100.2" y1="319.8" x2="254.1" y2="240.5"/>
	<line class="st0" x1="100.2" y1="319.8" x2="313.5" y2="261.1"/>
	<line class="st0" x1="100.2" y1="319.8" x2="150.5" y2="72.7"/>
	<line class="st0" x1="100.2" y1="319.8" x2="16.1" y2="166.2"/>
	<line class="st0" x1="100.2" y1="319.8" x2="333.9" y2="203.6"/>
	<line class="st0" x1="100.2" y1="319.8" x2="106.2" y2="124.6"/>
	<line class="st0" x1="100.2" y1="319.8" x2="167.1" y2="134.1"/>
	<line class="st0" x1="100.2" y1="319.8" x2="193.9" y2="216.1"/>
	<line class="st0" x1="100.2" y1="319.8" x2="326.4" y2="141.7"/>
	<line class="st0" x1="100.2" y1="319.8" x2="275.1" y2="183.8"/>
	<line class="st0" x1="100.2" y1="319.8" x2="263.7" y2="115.2"/>
	<line class="st0" x1="156.4" y1="337.7" x2="24.5" y2="227.8"/>
	<line class="st0" x1="156.4" y1="337.7" x2="75.7" y2="177.3"/>
	<line class="st0" x1="156.4" y1="337.7" x2="51.6" y2="284.2"/>
	<line class="st0" x1="156.4" y1="337.7" x2="212.7" y2="81.1"/>
	<line class="st0" x1="156.4" y1="337.7" x2="138.8" y2="192.8"/>
	<line class="st0" x1="156.4" y1="337.7" x2="36.4" y2="110.2"/>
	<line class="st0" x1="156.4" y1="337.7" x2="217.9" y2="337.8"/>
	<line class="st0" x1="156.4" y1="337.7" x2="144.1" y2="269"/>
	<line class="st0" x1="156.4" y1="337.7" x2="272" y2="306.6"/>
	<line class="st0" x1="156.4" y1="337.7" x2="203.9" y2="279.6"/>
	<line class="st0" x1="156.4" y1="337.7" x2="254.1" y2="240.5"/>
	<line class="st0" x1="156.4" y1="337.7" x2="313.5" y2="261.1"/>
	<line class="st0" x1="156.4" y1="337.7" x2="16.1" y2="166.2"/>
	<line class="st0" x1="156.4" y1="337.7" x2="193.9" y2="216.1"/>
	<line class="st0" x1="156.4" y1="337.7" x2="326.4" y2="141.7"/>
	<line class="st0" x1="156.4" y1="337.7" x2="275.1" y2="183.8"/>
	<line class="st0" x1="156.4" y1="337.7" x2="263.7" y2="115.2"/>
	<line class="st0" x1="212.7" y1="81.1" x2="24.5" y2="227.8"/>
	<line class="st0" x1="212.7" y1="81.1" x2="51.6" y2="284.2"/>
	<line class="st0" x1="212.7" y1="81.1" x2="309.8" y2="74.3"/>
	<line class="st0" x1="212.7" y1="81.1" x2="272" y2="306.6"/>
	<line class="st0" x1="212.7" y1="81.1" x2="313.5" y2="261.1"/>
	<line class="st0" x1="212.7" y1="81.1" x2="16.1" y2="166.2"/>
	<line class="st0" x1="212.7" y1="81.1" x2="193.9" y2="216.1"/>
	<line class="st0" x1="212.7" y1="81.1" x2="326.4" y2="141.7"/>
	<line class="st0" x1="212.7" y1="81.1" x2="275.1" y2="183.8"/>
	<line class="st0" x1="212.7" y1="81.1" x2="263.7" y2="115.2"/>
	<line class="st0" x1="138.8" y1="192.8" x2="24.5" y2="227.8"/>
	<line class="st0" x1="138.8" y1="192.8" x2="51.6" y2="284.2"/>
	<line class="st0" x1="138.8" y1="192.8" x2="212.7" y2="81.1"/>
	<line class="st0" x1="138.8" y1="192.8" x2="217.9" y2="337.8"/>
	<line class="st0" x1="138.8" y1="192.8" x2="272" y2="306.6"/>
	<line class="st0" x1="138.8" y1="192.8" x2="203.9" y2="279.6"/>
	<line class="st0" x1="138.8" y1="192.8" x2="313.5" y2="261.1"/>
	<line class="st0" x1="138.8" y1="192.8" x2="16.1" y2="166.2"/>
	<line class="st0" x1="138.8" y1="192.8" x2="193.9" y2="216.1"/>
	<line class="st0" x1="138.8" y1="192.8" x2="326.4" y2="141.7"/>
	<line class="st0" x1="138.8" y1="192.8" x2="275.1" y2="183.8"/>
	<line class="st0" x1="138.8" y1="192.8" x2="263.7" y2="115.2"/>
	<line class="st0" x1="36.4" y1="110.2" x2="24.5" y2="227.8"/>
	<line class="st0" x1="36.4" y1="110.2" x2="75.7" y2="177.3"/>
	<line class="st0" x1="36.4" y1="110.2" x2="51.6" y2="284.2"/>
	<line class="st0" x1="36.4" y1="110.2" x2="212.7" y2="81.1"/>
	<line class="st0" x1="36.4" y1="110.2" x2="138.8" y2="192.8"/>
	<line class="st0" x1="36.4" y1="110.2" x2="217.9" y2="337.8"/>
	<line class="st0" x1="36.4" y1="110.2" x2="309.8" y2="74.3"/>
	<line class="st0" x1="36.4" y1="110.2" x2="272" y2="306.6"/>
	<line class="st0" x1="36.4" y1="110.2" x2="203.9" y2="279.6"/>
	<line class="st0" x1="36.4" y1="110.2" x2="313.5" y2="261.1"/>
	<line class="st0" x1="36.4" y1="110.2" x2="16.1" y2="166.2"/>
	<line class="st0" x1="36.4" y1="110.2" x2="193.9" y2="216.1"/>
	<line class="st0" x1="36.4" y1="110.2" x2="326.4" y2="141.7"/>
	<line class="st0" x1="36.4" y1="110.2" x2="275.1" y2="183.8"/>
	<line class="st0" x1="36.4" y1="110.2" x2="263.7" y2="115.2"/>
	<line class="st0" x1="217.9" y1="337.8" x2="24.5" y2="227.8"/>
	<line class="st0" x1="217.9" y1="337.8" x2="51.6" y2="284.2"/>
	<line class="st0" x1="217.9" y1="337.8" x2="212.7" y2="81.1"/>
	<line class="st0" x1="217.9" y1="337.8" x2="272" y2="306.6"/>
	<line class="st0" x1="217.9" y1="337.8" x2="313.5" y2="261.1"/>
	<line class="st0" x1="217.9" y1="337.8" x2="16.1" y2="166.2"/>
	<line class="st0" x1="217.9" y1="337.8" x2="193.9" y2="216.1"/>
	<line class="st0" x1="217.9" y1="337.8" x2="326.4" y2="141.7"/>
	<line class="st0" x1="217.9" y1="337.8" x2="275.1" y2="183.8"/>
	<line class="st0" x1="217.9" y1="337.8" x2="263.7" y2="115.2"/>
	<line class="st0" x1="144.1" y1="269" x2="24.5" y2="227.8"/>
	<line class="st0" x1="144.1" y1="269" x2="75.7" y2="177.3"/>
	<line class="st0" x1="144.1" y1="269" x2="51.6" y2="284.2"/>
	<line class="st0" x1="144.1" y1="269" x2="212.7" y2="81.1"/>
	<line class="st0" x1="144.1" y1="269" x2="138.8" y2="192.8"/>
	<line class="st0" x1="144.1" y1="269" x2="36.4" y2="110.2"/>
	<line class="st0" x1="144.1" y1="269" x2="217.9" y2="337.8"/>
	<line class="st0" x1="144.1" y1="269" x2="272" y2="306.6"/>
	<line class="st0" x1="144.1" y1="269" x2="203.9" y2="279.6"/>
	<line class="st0" x1="144.1" y1="269" x2="254.1" y2="240.5"/>
	<line class="st0" x1="144.1" y1="269" x2="313.5" y2="261.1"/>
	<line class="st0" x1="144.1" y1="269" x2="16.1" y2="166.2"/>
	<line class="st0" x1="144.1" y1="269" x2="193.9" y2="216.1"/>
	<line class="st0" x1="144.1" y1="269" x2="326.4" y2="141.7"/>
	<line class="st0" x1="144.1" y1="269" x2="275.1" y2="183.8"/>
	<line class="st0" x1="144.1" y1="269" x2="263.7" y2="115.2"/>
	<line class="st0" x1="254.5" y1="30.3" x2="112.6" y2="18.9"/>
	<line class="st0" x1="272" y1="306.6" x2="24.5" y2="227.8"/>
	<line class="st0" x1="272" y1="306.6" x2="313.5" y2="261.1"/>
	<line class="st0" x1="272" y1="306.6" x2="193.9" y2="216.1"/>
	<line class="st0" x1="272" y1="306.6" x2="275.1" y2="183.8"/>
	<line class="st0" x1="203.9" y1="279.6" x2="24.5" y2="227.8"/>
	<line class="st0" x1="203.9" y1="279.6" x2="51.6" y2="284.2"/>
	<line class="st0" x1="203.9" y1="279.6" x2="212.7" y2="81.1"/>
	<line class="st0" x1="203.9" y1="279.6" x2="217.9" y2="337.8"/>
	<line class="st0" x1="203.9" y1="279.6" x2="272" y2="306.6"/>
	<line class="st0" x1="203.9" y1="279.6" x2="313.5" y2="261.1"/>
	<line class="st0" x1="203.9" y1="279.6" x2="16.1" y2="166.2"/>
	<line class="st0" x1="203.9" y1="279.6" x2="193.9" y2="216.1"/>
	<line class="st0" x1="203.9" y1="279.6" x2="326.4" y2="141.7"/>
	<line class="st0" x1="203.9" y1="279.6" x2="275.1" y2="183.8"/>
	<line class="st0" x1="203.9" y1="279.6" x2="263.7" y2="115.2"/>
	<line class="st0" x1="254.1" y1="240.5" x2="24.5" y2="227.8"/>
	<line class="st0" x1="254.1" y1="240.5" x2="75.7" y2="177.3"/>
	<line class="st0" x1="254.1" y1="240.5" x2="51.6" y2="284.2"/>
	<line class="st0" x1="254.1" y1="240.5" x2="212.7" y2="81.1"/>
	<line class="st0" x1="254.1" y1="240.5" x2="138.8" y2="192.8"/>
	<line class="st0" x1="254.1" y1="240.5" x2="36.4" y2="110.2"/>
	<line class="st0" x1="254.1" y1="240.5" x2="217.9" y2="337.8"/>
	<line class="st0" x1="254.1" y1="240.5" x2="272" y2="306.6"/>
	<line class="st0" x1="254.1" y1="240.5" x2="203.9" y2="279.6"/>
	<line class="st0" x1="254.1" y1="240.5" x2="313.5" y2="261.1"/>
	<line class="st0" x1="254.1" y1="240.5" x2="16.1" y2="166.2"/>
	<line class="st0" x1="254.1" y1="240.5" x2="193.9" y2="216.1"/>
	<line class="st0" x1="254.1" y1="240.5" x2="326.4" y2="141.7"/>
	<line class="st0" x1="254.1" y1="240.5" x2="275.1" y2="183.8"/>
	<line class="st0" x1="254.1" y1="240.5" x2="263.7" y2="115.2"/>
	<line class="st0" x1="150.5" y1="72.7" x2="24.5" y2="227.8"/>
	<line class="st0" x1="150.5" y1="72.7" x2="75.7" y2="177.3"/>
	<line class="st0" x1="150.5" y1="72.7" x2="51.6" y2="284.2"/>
	<line class="st0" x1="150.5" y1="72.7" x2="92.7" y2="238.7"/>
	<line class="st0" x1="150.5" y1="72.7" x2="76" y2="69.4"/>
	<line class="st0" x1="150.5" y1="72.7" x2="156.4" y2="337.7"/>
	<line class="st0" x1="150.5" y1="72.7" x2="212.7" y2="81.1"/>
	<line class="st0" x1="150.5" y1="72.7" x2="138.8" y2="192.8"/>
	<line class="st0" x1="150.5" y1="72.7" x2="36.4" y2="110.2"/>
	<line class="st0" x1="150.5" y1="72.7" x2="217.9" y2="337.8"/>
	<line class="st0" x1="150.5" y1="72.7" x2="144.1" y2="269"/>
	<line class="st0" x1="150.5" y1="72.7" x2="309.8" y2="74.3"/>
	<line class="st0" x1="150.5" y1="72.7" x2="272" y2="306.6"/>
	<line class="st0" x1="150.5" y1="72.7" x2="203.9" y2="279.6"/>
	<line class="st0" x1="150.5" y1="72.7" x2="254.1" y2="240.5"/>
	<line class="st0" x1="150.5" y1="72.7" x2="313.5" y2="261.1"/>
	<line class="st0" x1="150.5" y1="72.7" x2="16.1" y2="166.2"/>
	<line class="st0" x1="150.5" y1="72.7" x2="333.9" y2="203.6"/>
	<line class="st0" x1="150.5" y1="72.7" x2="167.1" y2="134.1"/>
	<line class="st0" x1="150.5" y1="72.7" x2="193.9" y2="216.1"/>
	<line class="st0" x1="150.5" y1="72.7" x2="326.4" y2="141.7"/>
	<line class="st0" x1="150.5" y1="72.7" x2="275.1" y2="183.8"/>
	<line class="st0" x1="150.5" y1="72.7" x2="263.7" y2="115.2"/>
	<line class="st0" x1="16.1" y1="166.2" x2="24.5" y2="227.8"/>
	<line class="st0" x1="16.1" y1="166.2" x2="51.6" y2="284.2"/>
	<line class="st0" x1="16.1" y1="166.2" x2="272" y2="306.6"/>
	<line class="st0" x1="16.1" y1="166.2" x2="313.5" y2="261.1"/>
	<line class="st0" x1="16.1" y1="166.2" x2="193.9" y2="216.1"/>
	<line class="st0" x1="16.1" y1="166.2" x2="186" y2="12.2"/>
	<line class="st0" x1="16.1" y1="166.2" x2="326.4" y2="141.7"/>
	<line class="st0" x1="16.1" y1="166.2" x2="275.1" y2="183.8"/>
	<line class="st0" x1="16.1" y1="166.2" x2="263.7" y2="115.2"/>
	<line class="st0" x1="333.9" y1="203.6" x2="24.5" y2="227.8"/>
	<line class="st0" x1="333.9" y1="203.6" x2="75.7" y2="177.3"/>
	<line class="st0" x1="333.9" y1="203.6" x2="51.6" y2="284.2"/>
	<line class="st0" x1="333.9" y1="203.6" x2="156.4" y2="337.7"/>
	<line class="st0" x1="333.9" y1="203.6" x2="212.7" y2="81.1"/>
	<line class="st0" x1="333.9" y1="203.6" x2="138.8" y2="192.8"/>
	<line class="st0" x1="333.9" y1="203.6" x2="36.4" y2="110.2"/>
	<line class="st0" x1="333.9" y1="203.6" x2="217.9" y2="337.8"/>
	<line class="st0" x1="333.9" y1="203.6" x2="144.1" y2="269"/>
	<line class="st0" x1="333.9" y1="203.6" x2="272" y2="306.6"/>
	<line class="st0" x1="333.9" y1="203.6" x2="203.9" y2="279.6"/>
	<line class="st0" x1="333.9" y1="203.6" x2="254.1" y2="240.5"/>
	<line class="st0" x1="333.9" y1="203.6" x2="313.5" y2="261.1"/>
	<line class="st0" x1="333.9" y1="203.6" x2="16.1" y2="166.2"/>
	<line class="st0" x1="333.9" y1="203.6" x2="167.1" y2="134.1"/>
	<line class="st0" x1="333.9" y1="203.6" x2="193.9" y2="216.1"/>
	<line class="st0" x1="333.9" y1="203.6" x2="326.4" y2="141.7"/>
	<line class="st0" x1="333.9" y1="203.6" x2="275.1" y2="183.8"/>
	<line class="st0" x1="333.9" y1="203.6" x2="263.7" y2="115.2"/>
	<line class="st0" x1="106.2" y1="124.6" x2="24.5" y2="227.8"/>
	<line class="st0" x1="106.2" y1="124.6" x2="75.7" y2="177.3"/>
	<line class="st0" x1="106.2" y1="124.6" x2="51.6" y2="284.2"/>
	<line class="st0" x1="106.2" y1="124.6" x2="92.7" y2="238.7"/>
	<line class="st0" x1="106.2" y1="124.6" x2="76" y2="69.4"/>
	<line class="st0" x1="106.2" y1="124.6" x2="156.4" y2="337.7"/>
	<line class="st0" x1="106.2" y1="124.6" x2="212.7" y2="81.1"/>
	<line class="st0" x1="106.2" y1="124.6" x2="138.8" y2="192.8"/>
	<line class="st0" x1="106.2" y1="124.6" x2="36.4" y2="110.2"/>
	<line class="st0" x1="106.2" y1="124.6" x2="217.9" y2="337.8"/>
	<line class="st0" x1="106.2" y1="124.6" x2="144.1" y2="269"/>
	<line class="st0" x1="106.2" y1="124.6" x2="309.8" y2="74.3"/>
	<line class="st0" x1="106.2" y1="124.6" x2="272" y2="306.6"/>
	<line class="st0" x1="106.2" y1="124.6" x2="203.9" y2="279.6"/>
	<line class="st0" x1="106.2" y1="124.6" x2="254.1" y2="240.5"/>
	<line class="st0" x1="106.2" y1="124.6" x2="313.5" y2="261.1"/>
	<line class="st0" x1="106.2" y1="124.6" x2="150.5" y2="72.7"/>
	<line class="st0" x1="106.2" y1="124.6" x2="16.1" y2="166.2"/>
	<line class="st0" x1="106.2" y1="124.6" x2="333.9" y2="203.6"/>
	<line class="st0" x1="106.2" y1="124.6" x2="167.1" y2="134.1"/>
	<line class="st0" x1="106.2" y1="124.6" x2="193.9" y2="216.1"/>
	<line class="st0" x1="106.2" y1="124.6" x2="326.4" y2="141.7"/>
	<line class="st0" x1="106.2" y1="124.6" x2="275.1" y2="183.8"/>
	<line class="st0" x1="106.2" y1="124.6" x2="263.7" y2="115.2"/>
	<line class="st0" x1="219.3" y1="158.4" x2="24.5" y2="227.8"/>
	<line class="st0" x1="219.3" y1="158.4" x2="75.7" y2="177.3"/>
	<line class="st0" x1="219.3" y1="158.4" x2="51.6" y2="284.2"/>
	<line class="st0" x1="219.3" y1="158.4" x2="92.7" y2="238.7"/>
	<line class="st0" x1="219.3" y1="158.4" x2="76" y2="69.4"/>
	<line class="st0" x1="219.3" y1="158.4" x2="100.2" y2="319.8"/>
	<line class="st0" x1="219.3" y1="158.4" x2="156.4" y2="337.7"/>
	<line class="st0" x1="219.3" y1="158.4" x2="212.7" y2="81.1"/>
	<line class="st0" x1="219.3" y1="158.4" x2="138.8" y2="192.8"/>
	<line class="st0" x1="219.3" y1="158.4" x2="36.4" y2="110.2"/>
	<line class="st0" x1="219.3" y1="158.4" x2="217.9" y2="337.8"/>
	<line class="st0" x1="219.3" y1="158.4" x2="144.1" y2="269"/>
	<line class="st0" x1="219.3" y1="158.4" x2="309.8" y2="74.3"/>
	<line class="st0" x1="219.3" y1="158.4" x2="254.5" y2="30.3"/>
	<line class="st0" x1="219.3" y1="158.4" x2="272" y2="306.6"/>
	<line class="st0" x1="219.3" y1="158.4" x2="203.9" y2="279.6"/>
	<line class="st0" x1="219.3" y1="158.4" x2="254.1" y2="240.5"/>
	<line class="st0" x1="219.3" y1="158.4" x2="313.5" y2="261.1"/>
	<line class="st0" x1="219.3" y1="158.4" x2="150.5" y2="72.7"/>
	<line class="st0" x1="219.3" y1="158.4" x2="16.1" y2="166.2"/>
	<line class="st0" x1="219.3" y1="158.4" x2="333.9" y2="203.6"/>
	<line class="st0" x1="219.3" y1="158.4" x2="106.2" y2="124.6"/>
	<line class="st0" x1="219.3" y1="158.4" x2="167.1" y2="134.1"/>
	<line class="st0" x1="219.3" y1="158.4" x2="193.9" y2="216.1"/>
	<line class="st0" x1="219.3" y1="158.4" x2="186" y2="12.2"/>
	<line class="st0" x1="219.3" y1="158.4" x2="326.4" y2="141.7"/>
	<line class="st0" x1="219.3" y1="158.4" x2="275.1" y2="183.8"/>
	<line class="st0" x1="219.3" y1="158.4" x2="263.7" y2="115.2"/>
	<line class="st0" x1="219.3" y1="158.4" x2="112.6" y2="18.9"/>
	<line class="st0" x1="167.1" y1="134.1" x2="24.5" y2="227.8"/>
	<line class="st0" x1="167.1" y1="134.1" x2="75.7" y2="177.3"/>
	<line class="st0" x1="167.1" y1="134.1" x2="51.6" y2="284.2"/>
	<line class="st0" x1="167.1" y1="134.1" x2="156.4" y2="337.7"/>
	<line class="st0" x1="167.1" y1="134.1" x2="212.7" y2="81.1"/>
	<line class="st0" x1="167.1" y1="134.1" x2="138.8" y2="192.8"/>
	<line class="st0" x1="167.1" y1="134.1" x2="36.4" y2="110.2"/>
	<line class="st0" x1="167.1" y1="134.1" x2="217.9" y2="337.8"/>
	<line class="st0" x1="167.1" y1="134.1" x2="144.1" y2="269"/>
	<line class="st0" x1="167.1" y1="134.1" x2="309.8" y2="74.3"/>
	<line class="st0" x1="167.1" y1="134.1" x2="272" y2="306.6"/>
	<line class="st0" x1="167.1" y1="134.1" x2="203.9" y2="279.6"/>
	<line class="st0" x1="167.1" y1="134.1" x2="254.1" y2="240.5"/>
	<line class="st0" x1="167.1" y1="134.1" x2="313.5" y2="261.1"/>
	<line class="st0" x1="167.1" y1="134.1" x2="16.1" y2="166.2"/>
	<line class="st0" x1="167.1" y1="134.1" x2="193.9" y2="216.1"/>
	<line class="st0" x1="167.1" y1="134.1" x2="326.4" y2="141.7"/>
	<line class="st0" x1="167.1" y1="134.1" x2="275.1" y2="183.8"/>
	<line class="st0" x1="167.1" y1="134.1" x2="263.7" y2="115.2"/>
	<line class="st0" x1="193.9" y1="216.1" x2="24.5" y2="227.8"/>
	<line class="st0" x1="193.9" y1="216.1" x2="313.5" y2="261.1"/>
	<line class="st0" x1="193.9" y1="216.1" x2="275.1" y2="183.8"/>
	<line class="st0" x1="326.4" y1="141.7" x2="24.5" y2="227.8"/>
	<line class="st0" x1="326.4" y1="141.7" x2="272" y2="306.6"/>
	<line class="st0" x1="326.4" y1="141.7" x2="313.5" y2="261.1"/>
	<line class="st0" x1="326.4" y1="141.7" x2="193.9" y2="216.1"/>
	<line class="st0" x1="326.4" y1="141.7" x2="275.1" y2="183.8"/>
	<line class="st0" x1="275.1" y1="183.8" x2="313.5" y2="261.1"/>
	<line class="st0" x1="263.7" y1="115.2" x2="24.5" y2="227.8"/>
	<line class="st0" x1="263.7" y1="115.2" x2="51.6" y2="284.2"/>
	<line class="st0" x1="263.7" y1="115.2" x2="272" y2="306.6"/>
	<line class="st0" x1="263.7" y1="115.2" x2="313.5" y2="261.1"/>
	<line class="st0" x1="263.7" y1="115.2" x2="193.9" y2="216.1"/>
	<line class="st0" x1="263.7" y1="115.2" x2="326.4" y2="141.7"/>
	<line class="st0" x1="263.7" y1="115.2" x2="275.1" y2="183.8"/>
	<path d="M26.4,227.8c0-1.1-0.9-1.9-1.9-1.9c-1.1,0-1.9,0.9-1.9,1.9s0.9,1.9,1.9,1.9C25.6,229.7,26.4,228.8,26.4,227.8"/>
	<path d="M77.6,177.3c0-1.1-0.9-1.9-1.9-1.9c-1.1,0-1.9,0.9-1.9,1.9c0,1.1,0.9,1.9,1.9,1.9C76.8,179.2,77.6,178.3,77.6,177.3"/>
	<path d="M53.6,284.2c0-1.1-0.9-1.9-1.9-1.9c-1.1,0-1.9,0.9-1.9,1.9c0,1.1,0.9,1.9,1.9,1.9C52.7,286.1,53.6,285.2,53.6,284.2"/>
	<path d="M94.6,238.7c0-1.1-0.9-1.9-1.9-1.9s-1.9,0.9-1.9,1.9c0,1.1,0.9,1.9,1.9,1.9S94.6,239.7,94.6,238.7"/>
	<path d="M77.9,69.4c0-1.1-0.9-1.9-1.9-1.9c-1.1,0-1.9,0.9-1.9,1.9c0,1.1,0.9,1.9,1.9,1.9C77.1,71.3,77.9,70.5,77.9,69.4"/>
	<path d="M102.1,319.8c0-1.1-0.9-1.9-1.9-1.9c-1.1,0-1.9,0.9-1.9,1.9c0,1.1,0.9,1.9,1.9,1.9C101.2,321.7,102.1,320.8,102.1,319.8"/>
	<path d="M158.3,337.7c0-1.1-0.9-1.9-1.9-1.9s-1.9,0.9-1.9,1.9s0.9,1.9,1.9,1.9S158.3,338.8,158.3,337.7"/>
	<path d="M214.7,81.1c0-1.1-0.9-1.9-1.9-1.9c-1.1,0-1.9,0.9-1.9,1.9c0,1.1,0.9,1.9,1.9,1.9C213.8,83,214.7,82.2,214.7,81.1"/>
	<path d="M140.7,192.8c0-1.1-0.9-1.9-1.9-1.9c-1.1,0-1.9,0.9-1.9,1.9c0,1.1,0.9,1.9,1.9,1.9C139.9,194.7,140.7,193.9,140.7,192.8"/>
	<path d="M38.3,110.2c0-1.1-0.9-1.9-1.9-1.9c-1.1,0-1.9,0.9-1.9,1.9c0,1.1,0.9,1.9,1.9,1.9C37.5,112.1,38.3,111.3,38.3,110.2"/>
	<path d="M219.8,337.8c0-1.1-0.9-1.9-1.9-1.9c-1.1,0-1.9,0.9-1.9,1.9c0,1.1,0.9,1.9,1.9,1.9C219,339.7,219.8,338.9,219.8,337.8"/>
	<path d="M146,269c0-1.1-0.9-1.9-1.9-1.9c-1.1,0-1.9,0.9-1.9,1.9c0,1.1,0.9,1.9,1.9,1.9C145.2,270.9,146,270,146,269"/>
	<path d="M311.7,74.3c0-1.1-0.9-1.9-1.9-1.9c-1.1,0-1.9,0.9-1.9,1.9c0,1.1,0.9,1.9,1.9,1.9C310.8,76.3,311.7,75.4,311.7,74.3"/>
	<path d="M256.5,30.3c0-1.1-0.9-1.9-1.9-1.9c-1.1,0-1.9,0.9-1.9,1.9c0,1.1,0.9,1.9,1.9,1.9C255.6,32.2,256.5,31.3,256.5,30.3"/>
	<path d="M273.9,306.6c0-1.1-0.9-1.9-1.9-1.9c-1.1,0-1.9,0.9-1.9,1.9c0,1.1,0.9,1.9,1.9,1.9C273,308.5,273.9,307.7,273.9,306.6"/>
	<path d="M205.8,279.6c0-1.1-0.9-1.9-1.9-1.9s-1.9,0.9-1.9,1.9s0.9,1.9,1.9,1.9S205.8,280.6,205.8,279.6"/>
	<path d="M256,240.5c0-1.1-0.9-1.9-1.9-1.9c-1.1,0-1.9,0.9-1.9,1.9c0,1.1,0.9,1.9,1.9,1.9C255.2,242.4,256,241.5,256,240.5"/>
	<path d="M315.4,261.1c0-1.1-0.9-1.9-1.9-1.9c-1.1,0-1.9,0.9-1.9,1.9s0.9,1.9,1.9,1.9C314.6,263.1,315.4,262.2,315.4,261.1"/>
	<path d="M152.5,72.7c0-1.1-0.9-1.9-1.9-1.9c-1.1,0-1.9,0.9-1.9,1.9c0,1.1,0.9,1.9,1.9,1.9C151.6,74.6,152.5,73.7,152.5,72.7"/>
	<path d="M18,166.2c0-1.1-0.9-1.9-1.9-1.9c-1.1,0-1.9,0.9-1.9,1.9c0,1.1,0.9,1.9,1.9,1.9C17.1,168.1,18,167.3,18,166.2"/>
	<path d="M335.9,203.6c0-1.1-0.9-1.9-1.9-1.9c-1.1,0-1.9,0.9-1.9,1.9c0,1.1,0.9,1.9,1.9,1.9C335,205.6,335.9,204.7,335.9,203.6"/>
	<path d="M108.1,124.6c0-1.1-0.9-1.9-1.9-1.9c-1.1,0-1.9,0.9-1.9,1.9c0,1.1,0.9,1.9,1.9,1.9C107.3,126.5,108.1,125.7,108.1,124.6"/>
	<path d="M221.2,158.4c0-1.1-0.9-1.9-1.9-1.9c-1.1,0-1.9,0.9-1.9,1.9c0,1.1,0.9,1.9,1.9,1.9C220.3,160.3,221.2,159.4,221.2,158.4"/>
	<path d="M169.1,134.1c0-1.1-0.9-1.9-1.9-1.9c-1.1,0-1.9,0.9-1.9,1.9c0,1.1,0.9,1.9,1.9,1.9C168.2,136,169.1,135.1,169.1,134.1"/>
	<path d="M195.8,216.1c0-1.1-0.9-1.9-1.9-1.9c-1.1,0-1.9,0.9-1.9,1.9c0,1.1,0.9,1.9,1.9,1.9C195,218.1,195.8,217.2,195.8,216.1"/>
	<path d="M187.9,12.2c0-1.1-0.9-1.9-1.9-1.9c-1.1,0-1.9,0.9-1.9,1.9c0,1.1,0.9,1.9,1.9,1.9C187,14.1,187.9,13.3,187.9,12.2"/>
	<path d="M328.4,141.7c0-1.1-0.9-1.9-1.9-1.9c-1.1,0-1.9,0.9-1.9,1.9c0,1.1,0.9,1.9,1.9,1.9C327.5,143.6,328.4,142.7,328.4,141.7"/>
	<path d="M277.1,183.8c0-1.1-0.9-1.9-1.9-1.9c-1.1,0-1.9,0.9-1.9,1.9s0.9,1.9,1.9,1.9C276.2,185.7,277.1,184.8,277.1,183.8"/>
	<path d="M265.7,115.2c0-1.1-0.9-1.9-1.9-1.9s-1.9,0.9-1.9,1.9s0.9,1.9,1.9,1.9S265.7,116.3,265.7,115.2"/>
	<path d="M114.5,18.9c0-1.1-0.9-1.9-1.9-1.9s-1.9,0.9-1.9,1.9c0,1.1,0.9,1.9,1.9,1.9S114.5,20,114.5,18.9"/>
</g>
</svg>
