<?xml version="1.0" encoding="utf-8"?>
<!-- Generator: Adobe Illustrator 21.1.0, SVG Export Plug-In . SVG Version: 6.00 Build 0)  -->
<svg version="1.1" id="Layer_1" xmlns="http://www.w3.org/2000/svg" xmlns:xlink="http://www.w3.org/1999/xlink" x="0px" y="0px"
	 viewBox="0 0 350 350" style="enable-background:new 0 0 350 350;" xml:space="preserve">
<style type="text/css">
	.st0{fill:none;stroke:#231F20;stroke-width:0.75;stroke-miterlimit:10;}
</style>
<g>
	<line class="st0" x1="42.7" y1="197" x2="19" y2="214.8"/>
	<line class="st0" x1="42.7" y1="197" x2="54.6" y2="211.9"/>
	<line class="st0" x1="19" y1="214.8" x2="54.6" y2="211.9"/>
	<line class="st0" x1="44.3" y1="232.2" x2="42.7" y2="197"/>
	<line class="st0" x1="44.3" y1="232.2" x2="19" y2="214.8"/>
	<line class="st0" x1="44.3" y1="232.2" x2="36.9" y2="214.8"/>
	<line class="st0" x1="44.3" y1="232.2" x2="54.6" y2="211.9"/>
	<line class="st0" x1="140.9" y1="56.9" x2="171" y2="64.2"/>
	<line class="st0" x1="140.9" y1="56.9" x2="153.7" y2="71.8"/>
	<line class="st0" x1="140.9" y1="56.9" x2="135.9" y2="76.1"/>
	<line class="st0" x1="140.9" y1="56.9" x2="124" y2="57.9"/>
	<line class="st0" x1="36.9" y1="214.8" x2="42.7" y2="197"/>
	<line class="st0" x1="36.9" y1="214.8" x2="19" y2="214.8"/>
	<line class="st0" x1="36.9" y1="214.8" x2="54.6" y2="211.9"/>
	<line class="st0" x1="141.9" y1="93.5" x2="168.4" y2="104.5"/>
	<line class="st0" x1="141.9" y1="93.5" x2="174.5" y2="81.9"/>
	<line class="st0" x1="141.9" y1="93.5" x2="158.7" y2="90.1"/>
	<line class="st0" x1="49.2" y1="140.2" x2="17.8" y2="165.6"/>
	<line class="st0" x1="49.2" y1="140.2" x2="32.8" y2="145.2"/>
	<line class="st0" x1="148.9" y1="156.8" x2="138.3" y2="185.7"/>
	<line class="st0" x1="148.9" y1="156.8" x2="117.5" y2="178.1"/>
	<line class="st0" x1="148.9" y1="156.8" x2="124.7" y2="196.2"/>
	<line class="st0" x1="148.9" y1="156.8" x2="106.9" y2="194.8"/>
	<line class="st0" x1="21.6" y1="129" x2="49.2" y2="140.2"/>
	<line class="st0" x1="21.6" y1="129" x2="17.8" y2="165.6"/>
	<line class="st0" x1="21.6" y1="129" x2="32.8" y2="145.2"/>
	<line class="st0" x1="297.2" y1="70.6" x2="277.7" y2="72.3"/>
	<line class="st0" x1="238.7" y1="107.3" x2="239.7" y2="87.6"/>
	<line class="st0" x1="238.7" y1="107.3" x2="271.4" y2="89.9"/>
	<line class="st0" x1="271.4" y1="89.9" x2="277.7" y2="72.3"/>
	<line class="st0" x1="271.4" y1="89.9" x2="297.2" y2="70.6"/>
	<line class="st0" x1="39.5" y1="124" x2="29.1" y2="109.7"/>
	<line class="st0" x1="37" y1="93.4" x2="39.5" y2="124"/>
	<line class="st0" x1="37" y1="93.4" x2="29.1" y2="109.7"/>
	<line class="st0" x1="32.8" y1="145.2" x2="17.8" y2="165.6"/>
	<line class="st0" x1="297.1" y1="106.2" x2="263.9" y2="115.4"/>
	<line class="st0" x1="210.4" y1="333.2" x2="230.2" y2="326.8"/>
	<line class="st0" x1="210.4" y1="333.2" x2="247.6" y2="318.4"/>
	<line class="st0" x1="230.2" y1="326.8" x2="247.6" y2="318.4"/>
	<line class="st0" x1="307.2" y1="119.9" x2="297.1" y2="106.2"/>
	<line class="st0" x1="307.2" y1="119.9" x2="282.3" y2="144.4"/>
	<line class="st0" x1="282.3" y1="144.4" x2="297.1" y2="106.2"/>
	<line class="st0" x1="143.4" y1="129" x2="122.3" y2="130.1"/>
	<line class="st0" x1="143.4" y1="129" x2="103.6" y2="125.2"/>
	<line class="st0" x1="143.4" y1="129" x2="136.5" y2="143.8"/>
	<line class="st0" x1="143.4" y1="129" x2="130.1" y2="113.5"/>
	<line class="st0" x1="143.4" y1="129" x2="120.5" y2="149.9"/>
	<line class="st0" x1="143.4" y1="129" x2="104.6" y2="142.1"/>
	<line class="st0" x1="143.4" y1="129" x2="112.8" y2="110.6"/>
	<line class="st0" x1="122.3" y1="130.1" x2="103.6" y2="125.2"/>
	<line class="st0" x1="122.3" y1="130.1" x2="136.5" y2="143.8"/>
	<line class="st0" x1="122.3" y1="130.1" x2="130.1" y2="113.5"/>
	<line class="st0" x1="122.3" y1="130.1" x2="120.5" y2="149.9"/>
	<line class="st0" x1="122.3" y1="130.1" x2="104.6" y2="142.1"/>
	<line class="st0" x1="122.3" y1="130.1" x2="112.8" y2="110.6"/>
	<line class="st0" x1="225.3" y1="57.1" x2="207.8" y2="19.5"/>
	<line class="st0" x1="225.3" y1="57.1" x2="208.2" y2="50.6"/>
	<line class="st0" x1="225.3" y1="57.1" x2="214" y2="34.9"/>
	<line class="st0" x1="225.3" y1="57.1" x2="245.5" y2="31.6"/>
	<line class="st0" x1="225.3" y1="57.1" x2="227.6" y2="22.9"/>
	<line class="st0" x1="225.3" y1="57.1" x2="230.9" y2="41.1"/>
	<line class="st0" x1="225.3" y1="57.1" x2="246.8" y2="49.6"/>
	<line class="st0" x1="103.6" y1="125.2" x2="136.5" y2="143.8"/>
	<line class="st0" x1="103.6" y1="125.2" x2="130.1" y2="113.5"/>
	<line class="st0" x1="103.6" y1="125.2" x2="120.5" y2="149.9"/>
	<line class="st0" x1="103.6" y1="125.2" x2="104.6" y2="142.1"/>
	<line class="st0" x1="103.6" y1="125.2" x2="112.8" y2="110.6"/>
	<line class="st0" x1="136.5" y1="143.8" x2="130.1" y2="113.5"/>
	<line class="st0" x1="136.5" y1="143.8" x2="120.5" y2="149.9"/>
	<line class="st0" x1="136.5" y1="143.8" x2="104.6" y2="142.1"/>
	<line class="st0" x1="136.5" y1="143.8" x2="112.8" y2="110.6"/>
	<line class="st0" x1="130.1" y1="113.5" x2="120.5" y2="149.9"/>
	<line class="st0" x1="130.1" y1="113.5" x2="104.6" y2="142.1"/>
	<line class="st0" x1="130.1" y1="113.5" x2="112.8" y2="110.6"/>
	<line class="st0" x1="191.7" y1="53.8" x2="225.3" y2="57.1"/>
	<line class="st0" x1="191.7" y1="53.8" x2="240.7" y2="65.8"/>
	<line class="st0" x1="191.7" y1="53.8" x2="208.6" y2="68.1"/>
	<line class="st0" x1="191.7" y1="53.8" x2="207.8" y2="19.5"/>
	<line class="st0" x1="191.7" y1="53.8" x2="208.2" y2="50.6"/>
	<line class="st0" x1="191.7" y1="53.8" x2="214" y2="34.9"/>
	<line class="st0" x1="191.7" y1="53.8" x2="245.5" y2="31.6"/>
	<line class="st0" x1="191.7" y1="53.8" x2="227.6" y2="22.9"/>
	<line class="st0" x1="191.7" y1="53.8" x2="230.9" y2="41.1"/>
	<line class="st0" x1="191.7" y1="53.8" x2="246.8" y2="49.6"/>
	<line class="st0" x1="150.7" y1="278" x2="153.7" y2="295.5"/>
	<line class="st0" x1="150.7" y1="278" x2="174.2" y2="290.5"/>
	<line class="st0" x1="120.5" y1="149.9" x2="104.6" y2="142.1"/>
	<line class="st0" x1="120.5" y1="149.9" x2="112.8" y2="110.6"/>
	<line class="st0" x1="195.4" y1="34.9" x2="225.3" y2="57.1"/>
	<line class="st0" x1="195.4" y1="34.9" x2="191.7" y2="53.8"/>
	<line class="st0" x1="195.4" y1="34.9" x2="240.7" y2="65.8"/>
	<line class="st0" x1="195.4" y1="34.9" x2="208.6" y2="68.1"/>
	<line class="st0" x1="195.4" y1="34.9" x2="207.8" y2="19.5"/>
	<line class="st0" x1="195.4" y1="34.9" x2="208.2" y2="50.6"/>
	<line class="st0" x1="195.4" y1="34.9" x2="214" y2="34.9"/>
	<line class="st0" x1="195.4" y1="34.9" x2="245.5" y2="31.6"/>
	<line class="st0" x1="195.4" y1="34.9" x2="227.6" y2="22.9"/>
	<line class="st0" x1="195.4" y1="34.9" x2="230.9" y2="41.1"/>
	<line class="st0" x1="195.4" y1="34.9" x2="246.8" y2="49.6"/>
	<line class="st0" x1="153.7" y1="295.5" x2="174.2" y2="290.5"/>
	<line class="st0" x1="104.6" y1="142.1" x2="112.8" y2="110.6"/>
	<line class="st0" x1="240.7" y1="65.8" x2="225.3" y2="57.1"/>
	<line class="st0" x1="240.7" y1="65.8" x2="207.8" y2="19.5"/>
	<line class="st0" x1="240.7" y1="65.8" x2="208.2" y2="50.6"/>
	<line class="st0" x1="240.7" y1="65.8" x2="214" y2="34.9"/>
	<line class="st0" x1="240.7" y1="65.8" x2="245.5" y2="31.6"/>
	<line class="st0" x1="240.7" y1="65.8" x2="227.6" y2="22.9"/>
	<line class="st0" x1="240.7" y1="65.8" x2="230.9" y2="41.1"/>
	<line class="st0" x1="240.7" y1="65.8" x2="246.8" y2="49.6"/>
	<line class="st0" x1="208.6" y1="68.1" x2="225.3" y2="57.1"/>
	<line class="st0" x1="208.6" y1="68.1" x2="240.7" y2="65.8"/>
	<line class="st0" x1="208.6" y1="68.1" x2="207.8" y2="19.5"/>
	<line class="st0" x1="208.6" y1="68.1" x2="208.2" y2="50.6"/>
	<line class="st0" x1="208.6" y1="68.1" x2="214" y2="34.9"/>
	<line class="st0" x1="208.6" y1="68.1" x2="245.5" y2="31.6"/>
	<line class="st0" x1="208.6" y1="68.1" x2="227.6" y2="22.9"/>
	<line class="st0" x1="208.6" y1="68.1" x2="230.9" y2="41.1"/>
	<line class="st0" x1="208.6" y1="68.1" x2="246.8" y2="49.6"/>
	<line class="st0" x1="83.5" y1="66.7" x2="49.7" y2="75.8"/>
	<line class="st0" x1="171" y1="64.2" x2="153.7" y2="71.8"/>
	<line class="st0" x1="171" y1="64.2" x2="135.9" y2="76.1"/>
	<line class="st0" x1="153.7" y1="71.8" x2="135.9" y2="76.1"/>
	<line class="st0" x1="88.1" y1="166.2" x2="42.7" y2="197"/>
	<line class="st0" x1="88.1" y1="166.2" x2="19" y2="214.8"/>
	<line class="st0" x1="88.1" y1="166.2" x2="44.3" y2="232.2"/>
	<line class="st0" x1="88.1" y1="166.2" x2="36.9" y2="214.8"/>
	<line class="st0" x1="88.1" y1="166.2" x2="49.2" y2="140.2"/>
	<line class="st0" x1="88.1" y1="166.2" x2="148.9" y2="156.8"/>
	<line class="st0" x1="88.1" y1="166.2" x2="54.6" y2="211.9"/>
	<line class="st0" x1="88.1" y1="166.2" x2="21.6" y2="129"/>
	<line class="st0" x1="88.1" y1="166.2" x2="39.5" y2="124"/>
	<line class="st0" x1="88.1" y1="166.2" x2="37" y2="93.4"/>
	<line class="st0" x1="88.1" y1="166.2" x2="17.8" y2="165.6"/>
	<line class="st0" x1="88.1" y1="166.2" x2="32.8" y2="145.2"/>
	<line class="st0" x1="88.1" y1="166.2" x2="143.4" y2="129"/>
	<line class="st0" x1="88.1" y1="166.2" x2="122.3" y2="130.1"/>
	<line class="st0" x1="88.1" y1="166.2" x2="103.6" y2="125.2"/>
	<line class="st0" x1="88.1" y1="166.2" x2="136.5" y2="143.8"/>
	<line class="st0" x1="88.1" y1="166.2" x2="130.7" y2="166"/>
	<line class="st0" x1="88.1" y1="166.2" x2="130.1" y2="113.5"/>
	<line class="st0" x1="88.1" y1="166.2" x2="120.5" y2="149.9"/>
	<line class="st0" x1="88.1" y1="166.2" x2="104.6" y2="142.1"/>
	<line class="st0" x1="88.1" y1="166.2" x2="112.8" y2="110.6"/>
	<line class="st0" x1="88.1" y1="166.2" x2="83.5" y2="66.7"/>
	<line class="st0" x1="88.1" y1="166.2" x2="15.7" y2="148.2"/>
	<line class="st0" x1="88.1" y1="166.2" x2="61.1" y2="228.5"/>
	<line class="st0" x1="88.1" y1="166.2" x2="53.4" y2="177.7"/>
	<line class="st0" x1="88.1" y1="166.2" x2="73.8" y2="180.6"/>
	<line class="st0" x1="88.1" y1="166.2" x2="26.1" y2="231.9"/>
	<line class="st0" x1="88.1" y1="166.2" x2="70.1" y2="163"/>
	<line class="st0" x1="88.1" y1="166.2" x2="22.7" y2="198.9"/>
	<line class="st0" x1="88.1" y1="166.2" x2="49.7" y2="75.8"/>
	<line class="st0" x1="88.1" y1="166.2" x2="95.9" y2="181.2"/>
	<line class="st0" x1="88.1" y1="166.2" x2="84.2" y2="195.7"/>
	<line class="st0" x1="88.1" y1="166.2" x2="126.1" y2="252.8"/>
	<line class="st0" x1="88.1" y1="166.2" x2="62.6" y2="125.5"/>
	<line class="st0" x1="88.1" y1="166.2" x2="86" y2="89.8"/>
	<line class="st0" x1="88.1" y1="166.2" x2="51.8" y2="111.4"/>
	<line class="st0" x1="88.1" y1="166.2" x2="71.9" y2="244.9"/>
	<line class="st0" x1="88.1" y1="166.2" x2="75.4" y2="114"/>
	<line class="st0" x1="88.1" y1="166.2" x2="122.3" y2="93.9"/>
	<line class="st0" x1="88.1" y1="166.2" x2="54.2" y2="249.4"/>
	<line class="st0" x1="88.1" y1="166.2" x2="106.4" y2="161.9"/>
	<line class="st0" x1="88.1" y1="166.2" x2="93.5" y2="212.1"/>
	<line class="st0" x1="88.1" y1="166.2" x2="70.6" y2="98.2"/>
	<line class="st0" x1="88.1" y1="166.2" x2="54.1" y2="94"/>
	<line class="st0" x1="88.1" y1="166.2" x2="77.8" y2="50.7"/>
	<line class="st0" x1="88.1" y1="166.2" x2="68.5" y2="143.2"/>
	<line class="st0" x1="88.1" y1="166.2" x2="84.5" y2="129.4"/>
	<line class="st0" x1="88.1" y1="166.2" x2="138.3" y2="185.7"/>
	<line class="st0" x1="88.1" y1="166.2" x2="62.8" y2="62"/>
	<line class="st0" x1="88.1" y1="166.2" x2="117.5" y2="178.1"/>
	<line class="st0" x1="88.1" y1="166.2" x2="124.7" y2="196.2"/>
	<line class="st0" x1="88.1" y1="166.2" x2="92.5" y2="108.7"/>
	<line class="st0" x1="88.1" y1="166.2" x2="13.8" y2="183.3"/>
	<line class="st0" x1="88.1" y1="166.2" x2="159.7" y2="142.1"/>
	<line class="st0" x1="88.1" y1="166.2" x2="124.9" y2="232.2"/>
	<line class="st0" x1="88.1" y1="166.2" x2="73.8" y2="211.4"/>
	<line class="st0" x1="88.1" y1="166.2" x2="86.5" y2="148"/>
	<line class="st0" x1="88.1" y1="166.2" x2="180.1" y2="195.2"/>
	<line class="st0" x1="88.1" y1="166.2" x2="142.6" y2="204.4"/>
	<line class="st0" x1="88.1" y1="166.2" x2="112.6" y2="212.6"/>
	<line class="st0" x1="88.1" y1="166.2" x2="104.9" y2="228.3"/>
	<line class="st0" x1="88.1" y1="166.2" x2="130.4" y2="216.8"/>
	<line class="st0" x1="88.1" y1="166.2" x2="53.3" y2="158.7"/>
	<line class="st0" x1="88.1" y1="166.2" x2="148.2" y2="111.5"/>
	<line class="st0" x1="88.1" y1="166.2" x2="81.9" y2="227.8"/>
	<line class="st0" x1="88.1" y1="166.2" x2="36.3" y2="163.5"/>
	<line class="st0" x1="88.1" y1="166.2" x2="29.1" y2="109.7"/>
	<line class="st0" x1="88.1" y1="166.2" x2="113.3" y2="271.6"/>
	<line class="st0" x1="88.1" y1="166.2" x2="150.6" y2="173.3"/>
	<line class="st0" x1="88.1" y1="166.2" x2="183.5" y2="178.9"/>
	<line class="st0" x1="88.1" y1="166.2" x2="98.7" y2="73.6"/>
	<line class="st0" x1="88.1" y1="166.2" x2="62.2" y2="194.3"/>
	<line class="st0" x1="88.1" y1="166.2" x2="91.6" y2="242.6"/>
	<line class="st0" x1="88.1" y1="166.2" x2="149.8" y2="223.1"/>
	<line class="st0" x1="88.1" y1="166.2" x2="104.3" y2="91.9"/>
	<line class="st0" x1="88.1" y1="166.2" x2="106.9" y2="194.8"/>
	<line class="st0" x1="88.1" y1="166.2" x2="142" y2="239.1"/>
	<line class="st0" x1="88.1" y1="166.2" x2="158.6" y2="189.8"/>
	<line class="st0" x1="88.1" y1="166.2" x2="110.3" y2="246.8"/>
	<line class="st0" x1="88.1" y1="166.2" x2="161.2" y2="207.8"/>
	<line class="st0" x1="88.1" y1="166.2" x2="96.6" y2="259.9"/>
	<line class="st0" x1="88.1" y1="166.2" x2="69.8" y2="79.3"/>
	<line class="st0" x1="88.1" y1="166.2" x2="34.4" y2="248.5"/>
	<line class="st0" x1="88.1" y1="166.2" x2="33.2" y2="182.1"/>
	<line class="st0" x1="224.2" y1="75.2" x2="225.3" y2="57.1"/>
	<line class="st0" x1="224.2" y1="75.2" x2="191.7" y2="53.8"/>
	<line class="st0" x1="224.2" y1="75.2" x2="195.4" y2="34.9"/>
	<line class="st0" x1="224.2" y1="75.2" x2="240.7" y2="65.8"/>
	<line class="st0" x1="224.2" y1="75.2" x2="208.6" y2="68.1"/>
	<line class="st0" x1="224.2" y1="75.2" x2="207.8" y2="19.5"/>
	<line class="st0" x1="224.2" y1="75.2" x2="208.2" y2="50.6"/>
	<line class="st0" x1="224.2" y1="75.2" x2="214" y2="34.9"/>
	<line class="st0" x1="224.2" y1="75.2" x2="245.5" y2="31.6"/>
	<line class="st0" x1="224.2" y1="75.2" x2="227.6" y2="22.9"/>
	<line class="st0" x1="224.2" y1="75.2" x2="230.9" y2="41.1"/>
	<line class="st0" x1="224.2" y1="75.2" x2="246.8" y2="49.6"/>
	<line class="st0" x1="61.1" y1="228.5" x2="42.7" y2="197"/>
	<line class="st0" x1="61.1" y1="228.5" x2="19" y2="214.8"/>
	<line class="st0" x1="61.1" y1="228.5" x2="44.3" y2="232.2"/>
	<line class="st0" x1="61.1" y1="228.5" x2="36.9" y2="214.8"/>
	<line class="st0" x1="61.1" y1="228.5" x2="54.6" y2="211.9"/>
	<line class="st0" x1="61.1" y1="228.5" x2="26.1" y2="231.9"/>
	<line class="st0" x1="61.1" y1="228.5" x2="22.7" y2="198.9"/>
	<line class="st0" x1="53.4" y1="177.7" x2="95.9" y2="181.2"/>
	<line class="st0" x1="53.4" y1="177.7" x2="84.2" y2="195.7"/>
	<line class="st0" x1="73.8" y1="180.6" x2="53.4" y2="177.7"/>
	<line class="st0" x1="73.8" y1="180.6" x2="95.9" y2="181.2"/>
	<line class="st0" x1="73.8" y1="180.6" x2="84.2" y2="195.7"/>
	<line class="st0" x1="26.1" y1="231.9" x2="42.7" y2="197"/>
	<line class="st0" x1="26.1" y1="231.9" x2="19" y2="214.8"/>
	<line class="st0" x1="26.1" y1="231.9" x2="44.3" y2="232.2"/>
	<line class="st0" x1="26.1" y1="231.9" x2="36.9" y2="214.8"/>
	<line class="st0" x1="26.1" y1="231.9" x2="54.6" y2="211.9"/>
	<line class="st0" x1="70.1" y1="163" x2="53.4" y2="177.7"/>
	<line class="st0" x1="70.1" y1="163" x2="73.8" y2="180.6"/>
	<line class="st0" x1="70.1" y1="163" x2="95.9" y2="181.2"/>
	<line class="st0" x1="70.1" y1="163" x2="84.2" y2="195.7"/>
	<line class="st0" x1="124" y1="57.9" x2="171" y2="64.2"/>
	<line class="st0" x1="124" y1="57.9" x2="153.7" y2="71.8"/>
	<line class="st0" x1="124" y1="57.9" x2="135.9" y2="76.1"/>
	<line class="st0" x1="22.7" y1="198.9" x2="42.7" y2="197"/>
	<line class="st0" x1="22.7" y1="198.9" x2="19" y2="214.8"/>
	<line class="st0" x1="22.7" y1="198.9" x2="44.3" y2="232.2"/>
	<line class="st0" x1="22.7" y1="198.9" x2="36.9" y2="214.8"/>
	<line class="st0" x1="22.7" y1="198.9" x2="54.6" y2="211.9"/>
	<line class="st0" x1="22.7" y1="198.9" x2="26.1" y2="231.9"/>
	<line class="st0" x1="84.2" y1="195.7" x2="95.9" y2="181.2"/>
	<line class="st0" x1="164.4" y1="14.2" x2="145.3" y2="18.1"/>
	<line class="st0" x1="164.4" y1="14.2" x2="139.8" y2="37.3"/>
	<line class="st0" x1="164.4" y1="14.2" x2="157.4" y2="32.2"/>
	<line class="st0" x1="164.4" y1="14.2" x2="174.3" y2="44.7"/>
	<line class="st0" x1="164.4" y1="14.2" x2="176.2" y2="27.2"/>
	<line class="st0" x1="145.3" y1="18.1" x2="139.8" y2="37.3"/>
	<line class="st0" x1="145.3" y1="18.1" x2="157.4" y2="32.2"/>
	<line class="st0" x1="145.3" y1="18.1" x2="174.3" y2="44.7"/>
	<line class="st0" x1="145.3" y1="18.1" x2="176.2" y2="27.2"/>
	<line class="st0" x1="126.1" y1="252.8" x2="91.6" y2="242.6"/>
	<line class="st0" x1="126.1" y1="252.8" x2="110.3" y2="246.8"/>
	<line class="st0" x1="126.1" y1="252.8" x2="96.6" y2="259.9"/>
	<line class="st0" x1="139.8" y1="37.3" x2="157.4" y2="32.2"/>
	<line class="st0" x1="62.6" y1="125.5" x2="70.6" y2="98.2"/>
	<line class="st0" x1="62.6" y1="125.5" x2="54.1" y2="94"/>
	<line class="st0" x1="174.3" y1="44.7" x2="139.8" y2="37.3"/>
	<line class="st0" x1="174.3" y1="44.7" x2="157.4" y2="32.2"/>
	<line class="st0" x1="174.3" y1="44.7" x2="176.2" y2="27.2"/>
	<line class="st0" x1="176.2" y1="27.2" x2="139.8" y2="37.3"/>
	<line class="st0" x1="176.2" y1="27.2" x2="157.4" y2="32.2"/>
	<line class="st0" x1="86" y1="89.8" x2="62.6" y2="125.5"/>
	<line class="st0" x1="86" y1="89.8" x2="51.8" y2="111.4"/>
	<line class="st0" x1="86" y1="89.8" x2="70.6" y2="98.2"/>
	<line class="st0" x1="86" y1="89.8" x2="54.1" y2="94"/>
	<line class="st0" x1="51.8" y1="111.4" x2="39.5" y2="124"/>
	<line class="st0" x1="51.8" y1="111.4" x2="37" y2="93.4"/>
	<line class="st0" x1="51.8" y1="111.4" x2="62.6" y2="125.5"/>
	<line class="st0" x1="51.8" y1="111.4" x2="70.6" y2="98.2"/>
	<line class="st0" x1="51.8" y1="111.4" x2="54.1" y2="94"/>
	<line class="st0" x1="51.8" y1="111.4" x2="36.3" y2="163.5"/>
	<line class="st0" x1="51.8" y1="111.4" x2="29.1" y2="109.7"/>
	<line class="st0" x1="211.2" y1="240.7" x2="189.1" y2="235.6"/>
	<line class="st0" x1="230.7" y1="307.2" x2="198" y2="319.2"/>
	<line class="st0" x1="230.7" y1="307.2" x2="215.3" y2="314.5"/>
	<line class="st0" x1="75.4" y1="114" x2="62.6" y2="125.5"/>
	<line class="st0" x1="75.4" y1="114" x2="86" y2="89.8"/>
	<line class="st0" x1="75.4" y1="114" x2="51.8" y2="111.4"/>
	<line class="st0" x1="75.4" y1="114" x2="70.6" y2="98.2"/>
	<line class="st0" x1="75.4" y1="114" x2="54.1" y2="94"/>
	<line class="st0" x1="215.3" y1="314.5" x2="198" y2="319.2"/>
	<line class="st0" x1="54.2" y1="249.4" x2="71.9" y2="244.9"/>
	<line class="st0" x1="208.2" y1="50.6" x2="207.8" y2="19.5"/>
	<line class="st0" x1="208.2" y1="50.6" x2="214" y2="34.9"/>
	<line class="st0" x1="208.2" y1="50.6" x2="245.5" y2="31.6"/>
	<line class="st0" x1="208.2" y1="50.6" x2="227.6" y2="22.9"/>
	<line class="st0" x1="208.2" y1="50.6" x2="230.9" y2="41.1"/>
	<line class="st0" x1="208.2" y1="50.6" x2="246.8" y2="49.6"/>
	<line class="st0" x1="214" y1="34.9" x2="207.8" y2="19.5"/>
	<line class="st0" x1="214" y1="34.9" x2="245.5" y2="31.6"/>
	<line class="st0" x1="214" y1="34.9" x2="227.6" y2="22.9"/>
	<line class="st0" x1="214" y1="34.9" x2="230.9" y2="41.1"/>
	<line class="st0" x1="214" y1="34.9" x2="246.8" y2="49.6"/>
	<line class="st0" x1="54.1" y1="94" x2="39.5" y2="124"/>
	<line class="st0" x1="54.1" y1="94" x2="37" y2="93.4"/>
	<line class="st0" x1="54.1" y1="94" x2="70.6" y2="98.2"/>
	<line class="st0" x1="54.1" y1="94" x2="29.1" y2="109.7"/>
	<line class="st0" x1="245.5" y1="31.6" x2="207.8" y2="19.5"/>
	<line class="st0" x1="245.5" y1="31.6" x2="227.6" y2="22.9"/>
	<line class="st0" x1="227.6" y1="22.9" x2="207.8" y2="19.5"/>
	<line class="st0" x1="230.9" y1="41.1" x2="207.8" y2="19.5"/>
	<line class="st0" x1="230.9" y1="41.1" x2="245.5" y2="31.6"/>
	<line class="st0" x1="230.9" y1="41.1" x2="227.6" y2="22.9"/>
	<line class="st0" x1="230.9" y1="41.1" x2="246.8" y2="49.6"/>
	<line class="st0" x1="246.8" y1="49.6" x2="207.8" y2="19.5"/>
	<line class="st0" x1="246.8" y1="49.6" x2="245.5" y2="31.6"/>
	<line class="st0" x1="246.8" y1="49.6" x2="227.6" y2="22.9"/>
	<line class="st0" x1="134.1" y1="310.9" x2="152.1" y2="316.1"/>
	<line class="st0" x1="134.1" y1="310.9" x2="166.6" y2="307.8"/>
	<line class="st0" x1="152.1" y1="316.1" x2="166.6" y2="307.8"/>
	<line class="st0" x1="152.1" y1="316.1" x2="188.1" y2="336"/>
	<line class="st0" x1="152.1" y1="316.1" x2="167.7" y2="334.8"/>
	<line class="st0" x1="166.6" y1="307.8" x2="188.1" y2="336"/>
	<line class="st0" x1="166.6" y1="307.8" x2="167.7" y2="334.8"/>
	<line class="st0" x1="188.1" y1="336" x2="167.7" y2="334.8"/>
	<line class="st0" x1="68.5" y1="143.2" x2="84.5" y2="129.4"/>
	<line class="st0" x1="84.5" y1="129.4" x2="69.8" y2="79.3"/>
	<line class="st0" x1="138.3" y1="185.7" x2="124.7" y2="196.2"/>
	<line class="st0" x1="138.3" y1="185.7" x2="106.9" y2="194.8"/>
	<line class="st0" x1="138.3" y1="185.7" x2="158.6" y2="189.8"/>
	<line class="st0" x1="138.3" y1="185.7" x2="161.2" y2="207.8"/>
	<line class="st0" x1="117.5" y1="178.1" x2="138.3" y2="185.7"/>
	<line class="st0" x1="117.5" y1="178.1" x2="124.7" y2="196.2"/>
	<line class="st0" x1="117.5" y1="178.1" x2="106.9" y2="194.8"/>
	<line class="st0" x1="124.7" y1="196.2" x2="106.9" y2="194.8"/>
	<line class="st0" x1="168.4" y1="104.5" x2="174.5" y2="81.9"/>
	<line class="st0" x1="168.4" y1="104.5" x2="168" y2="168.5"/>
	<line class="st0" x1="168.4" y1="104.5" x2="158.7" y2="90.1"/>
	<line class="st0" x1="92.5" y1="108.7" x2="62.6" y2="125.5"/>
	<line class="st0" x1="92.5" y1="108.7" x2="86" y2="89.8"/>
	<line class="st0" x1="92.5" y1="108.7" x2="51.8" y2="111.4"/>
	<line class="st0" x1="92.5" y1="108.7" x2="75.4" y2="114"/>
	<line class="st0" x1="92.5" y1="108.7" x2="122.3" y2="93.9"/>
	<line class="st0" x1="92.5" y1="108.7" x2="106.4" y2="161.9"/>
	<line class="st0" x1="92.5" y1="108.7" x2="70.6" y2="98.2"/>
	<line class="st0" x1="92.5" y1="108.7" x2="54.1" y2="94"/>
	<line class="st0" x1="174.5" y1="81.9" x2="158.7" y2="90.1"/>
	<line class="st0" x1="168" y1="168.5" x2="163.8" y2="236.9"/>
	<line class="st0" x1="168" y1="168.5" x2="173.5" y2="223.1"/>
	<line class="st0" x1="206.1" y1="268.4" x2="216.9" y2="282.4"/>
	<line class="st0" x1="286.7" y1="162.5" x2="332.5" y2="143.1"/>
	<line class="st0" x1="286.7" y1="162.5" x2="314.8" y2="140"/>
	<line class="st0" x1="286.7" y1="162.5" x2="287.6" y2="201.8"/>
	<line class="st0" x1="286.7" y1="162.5" x2="326.4" y2="124.9"/>
	<line class="st0" x1="311.7" y1="174.5" x2="335.8" y2="180.7"/>
	<line class="st0" x1="334.8" y1="202.3" x2="304.7" y2="194.9"/>
	<line class="st0" x1="267.7" y1="174.2" x2="277.8" y2="187.5"/>
	<line class="st0" x1="267.7" y1="174.2" x2="266.4" y2="157"/>
	<line class="st0" x1="267.7" y1="174.2" x2="233.5" y2="239.8"/>
	<line class="st0" x1="277.8" y1="187.5" x2="266.4" y2="157"/>
	<line class="st0" x1="277.8" y1="187.5" x2="233.5" y2="239.8"/>
	<line class="st0" x1="314.8" y1="140" x2="326.4" y2="124.9"/>
	<line class="st0" x1="96.9" y1="296" x2="56.1" y2="283.7"/>
	<line class="st0" x1="318.3" y1="210.9" x2="300.8" y2="215.4"/>
	<line class="st0" x1="318.3" y1="210.9" x2="329.5" y2="224.4"/>
	<line class="st0" x1="248.9" y1="187.6" x2="224.5" y2="205.4"/>
	<line class="st0" x1="248.9" y1="187.6" x2="225.2" y2="172.9"/>
	<line class="st0" x1="248.9" y1="187.6" x2="214.7" y2="189.3"/>
	<line class="st0" x1="248.9" y1="187.6" x2="206.7" y2="204.4"/>
	<line class="st0" x1="248.9" y1="187.6" x2="222" y2="156.2"/>
	<line class="st0" x1="248.9" y1="187.6" x2="241.7" y2="202.8"/>
	<line class="st0" x1="248.9" y1="187.6" x2="231.8" y2="188"/>
	<line class="st0" x1="248.9" y1="187.6" x2="193.9" y2="165.8"/>
	<line class="st0" x1="248.9" y1="187.6" x2="237.4" y2="159.6"/>
	<line class="st0" x1="248.9" y1="187.6" x2="207.8" y2="173.5"/>
	<line class="st0" x1="248.9" y1="187.6" x2="180.1" y2="195.2"/>
	<line class="st0" x1="248.9" y1="187.6" x2="219.5" y2="220.9"/>
	<line class="st0" x1="248.9" y1="187.6" x2="202.6" y2="220.2"/>
	<line class="st0" x1="248.9" y1="187.6" x2="206.7" y2="154.4"/>
	<line class="st0" x1="248.9" y1="187.6" x2="190" y2="208.9"/>
	<line class="st0" x1="248.9" y1="187.6" x2="245.6" y2="172.4"/>
	<line class="st0" x1="310.7" y1="230.5" x2="318.3" y2="210.9"/>
	<line class="st0" x1="310.7" y1="230.5" x2="300.8" y2="215.4"/>
	<line class="st0" x1="310.7" y1="230.5" x2="329.5" y2="224.4"/>
	<line class="st0" x1="224.5" y1="205.4" x2="225.2" y2="172.9"/>
	<line class="st0" x1="224.5" y1="205.4" x2="214.7" y2="189.3"/>
	<line class="st0" x1="224.5" y1="205.4" x2="206.7" y2="204.4"/>
	<line class="st0" x1="224.5" y1="205.4" x2="222" y2="156.2"/>
	<line class="st0" x1="224.5" y1="205.4" x2="241.7" y2="202.8"/>
	<line class="st0" x1="224.5" y1="205.4" x2="231.8" y2="188"/>
	<line class="st0" x1="224.5" y1="205.4" x2="193.9" y2="165.8"/>
	<line class="st0" x1="224.5" y1="205.4" x2="237.4" y2="159.6"/>
	<line class="st0" x1="224.5" y1="205.4" x2="207.8" y2="173.5"/>
	<line class="st0" x1="224.5" y1="205.4" x2="180.1" y2="195.2"/>
	<line class="st0" x1="224.5" y1="205.4" x2="219.5" y2="220.9"/>
	<line class="st0" x1="224.5" y1="205.4" x2="202.6" y2="220.2"/>
	<line class="st0" x1="224.5" y1="205.4" x2="206.7" y2="154.4"/>
	<line class="st0" x1="224.5" y1="205.4" x2="190" y2="208.9"/>
	<line class="st0" x1="224.5" y1="205.4" x2="245.6" y2="172.4"/>
	<line class="st0" x1="225.2" y1="172.9" x2="214.7" y2="189.3"/>
	<line class="st0" x1="225.2" y1="172.9" x2="206.7" y2="204.4"/>
	<line class="st0" x1="225.2" y1="172.9" x2="222" y2="156.2"/>
	<line class="st0" x1="225.2" y1="172.9" x2="241.7" y2="202.8"/>
	<line class="st0" x1="225.2" y1="172.9" x2="231.8" y2="188"/>
	<line class="st0" x1="225.2" y1="172.9" x2="193.9" y2="165.8"/>
	<line class="st0" x1="225.2" y1="172.9" x2="237.4" y2="159.6"/>
	<line class="st0" x1="225.2" y1="172.9" x2="207.8" y2="173.5"/>
	<line class="st0" x1="225.2" y1="172.9" x2="180.1" y2="195.2"/>
	<line class="st0" x1="225.2" y1="172.9" x2="219.5" y2="220.9"/>
	<line class="st0" x1="225.2" y1="172.9" x2="202.6" y2="220.2"/>
	<line class="st0" x1="225.2" y1="172.9" x2="206.7" y2="154.4"/>
	<line class="st0" x1="225.2" y1="172.9" x2="190" y2="208.9"/>
	<line class="st0" x1="225.2" y1="172.9" x2="245.6" y2="172.4"/>
	<line class="st0" x1="329.5" y1="224.4" x2="300.8" y2="215.4"/>
	<line class="st0" x1="214.7" y1="189.3" x2="206.7" y2="204.4"/>
	<line class="st0" x1="214.7" y1="189.3" x2="222" y2="156.2"/>
	<line class="st0" x1="214.7" y1="189.3" x2="241.7" y2="202.8"/>
	<line class="st0" x1="214.7" y1="189.3" x2="231.8" y2="188"/>
	<line class="st0" x1="214.7" y1="189.3" x2="193.9" y2="165.8"/>
	<line class="st0" x1="214.7" y1="189.3" x2="237.4" y2="159.6"/>
	<line class="st0" x1="214.7" y1="189.3" x2="207.8" y2="173.5"/>
	<line class="st0" x1="214.7" y1="189.3" x2="180.1" y2="195.2"/>
	<line class="st0" x1="214.7" y1="189.3" x2="219.5" y2="220.9"/>
	<line class="st0" x1="214.7" y1="189.3" x2="202.6" y2="220.2"/>
	<line class="st0" x1="214.7" y1="189.3" x2="206.7" y2="154.4"/>
	<line class="st0" x1="214.7" y1="189.3" x2="190" y2="208.9"/>
	<line class="st0" x1="214.7" y1="189.3" x2="245.6" y2="172.4"/>
	<line class="st0" x1="197.2" y1="189.3" x2="248.9" y2="187.6"/>
	<line class="st0" x1="197.2" y1="189.3" x2="224.5" y2="205.4"/>
	<line class="st0" x1="197.2" y1="189.3" x2="225.2" y2="172.9"/>
	<line class="st0" x1="197.2" y1="189.3" x2="214.7" y2="189.3"/>
	<line class="st0" x1="197.2" y1="189.3" x2="206.7" y2="204.4"/>
	<line class="st0" x1="197.2" y1="189.3" x2="222" y2="156.2"/>
	<line class="st0" x1="197.2" y1="189.3" x2="241.7" y2="202.8"/>
	<line class="st0" x1="197.2" y1="189.3" x2="231.8" y2="188"/>
	<line class="st0" x1="197.2" y1="189.3" x2="193.9" y2="165.8"/>
	<line class="st0" x1="197.2" y1="189.3" x2="237.4" y2="159.6"/>
	<line class="st0" x1="197.2" y1="189.3" x2="207.8" y2="173.5"/>
	<line class="st0" x1="197.2" y1="189.3" x2="180.1" y2="195.2"/>
	<line class="st0" x1="197.2" y1="189.3" x2="219.5" y2="220.9"/>
	<line class="st0" x1="197.2" y1="189.3" x2="202.6" y2="220.2"/>
	<line class="st0" x1="197.2" y1="189.3" x2="206.7" y2="154.4"/>
	<line class="st0" x1="197.2" y1="189.3" x2="190" y2="208.9"/>
	<line class="st0" x1="197.2" y1="189.3" x2="245.6" y2="172.4"/>
	<line class="st0" x1="206.7" y1="204.4" x2="222" y2="156.2"/>
	<line class="st0" x1="206.7" y1="204.4" x2="241.7" y2="202.8"/>
	<line class="st0" x1="206.7" y1="204.4" x2="231.8" y2="188"/>
	<line class="st0" x1="206.7" y1="204.4" x2="193.9" y2="165.8"/>
	<line class="st0" x1="206.7" y1="204.4" x2="237.4" y2="159.6"/>
	<line class="st0" x1="206.7" y1="204.4" x2="207.8" y2="173.5"/>
	<line class="st0" x1="206.7" y1="204.4" x2="180.1" y2="195.2"/>
	<line class="st0" x1="206.7" y1="204.4" x2="219.5" y2="220.9"/>
	<line class="st0" x1="206.7" y1="204.4" x2="202.6" y2="220.2"/>
	<line class="st0" x1="206.7" y1="204.4" x2="206.7" y2="154.4"/>
	<line class="st0" x1="206.7" y1="204.4" x2="190" y2="208.9"/>
	<line class="st0" x1="206.7" y1="204.4" x2="245.6" y2="172.4"/>
	<line class="st0" x1="161.7" y1="255.4" x2="183.9" y2="270.3"/>
	<line class="st0" x1="183.9" y1="270.3" x2="256.6" y2="219.9"/>
	<line class="st0" x1="183.9" y1="270.3" x2="210.4" y2="333.2"/>
	<line class="st0" x1="183.9" y1="270.3" x2="230.2" y2="326.8"/>
	<line class="st0" x1="183.9" y1="270.3" x2="247.6" y2="318.4"/>
	<line class="st0" x1="183.9" y1="270.3" x2="150.7" y2="278"/>
	<line class="st0" x1="183.9" y1="270.3" x2="153.7" y2="295.5"/>
	<line class="st0" x1="183.9" y1="270.3" x2="174.2" y2="290.5"/>
	<line class="st0" x1="183.9" y1="270.3" x2="126.1" y2="252.8"/>
	<line class="st0" x1="183.9" y1="270.3" x2="198" y2="319.2"/>
	<line class="st0" x1="183.9" y1="270.3" x2="230.7" y2="307.2"/>
	<line class="st0" x1="183.9" y1="270.3" x2="215.3" y2="314.5"/>
	<line class="st0" x1="183.9" y1="270.3" x2="152.1" y2="316.1"/>
	<line class="st0" x1="183.9" y1="270.3" x2="166.6" y2="307.8"/>
	<line class="st0" x1="183.9" y1="270.3" x2="188.1" y2="336"/>
	<line class="st0" x1="183.9" y1="270.3" x2="167.7" y2="334.8"/>
	<line class="st0" x1="183.9" y1="270.3" x2="168" y2="168.5"/>
	<line class="st0" x1="183.9" y1="270.3" x2="133.3" y2="272.3"/>
	<line class="st0" x1="183.9" y1="270.3" x2="124.9" y2="232.2"/>
	<line class="st0" x1="183.9" y1="270.3" x2="188.2" y2="303.4"/>
	<line class="st0" x1="183.9" y1="270.3" x2="207.7" y2="298.6"/>
	<line class="st0" x1="183.9" y1="270.3" x2="194.5" y2="285.3"/>
	<line class="st0" x1="183.9" y1="270.3" x2="167.5" y2="273.8"/>
	<line class="st0" x1="183.9" y1="270.3" x2="178.9" y2="251.5"/>
	<line class="st0" x1="183.9" y1="270.3" x2="163.8" y2="236.9"/>
	<line class="st0" x1="183.9" y1="270.3" x2="173.5" y2="223.1"/>
	<line class="st0" x1="183.9" y1="270.3" x2="176.5" y2="152.4"/>
	<line class="st0" x1="183.9" y1="270.3" x2="178.3" y2="320.8"/>
	<line class="st0" x1="183.9" y1="270.3" x2="145.1" y2="258.2"/>
	<line class="st0" x1="124.9" y1="232.2" x2="148.9" y2="156.8"/>
	<line class="st0" x1="124.9" y1="232.2" x2="138.3" y2="185.7"/>
	<line class="st0" x1="124.9" y1="232.2" x2="117.5" y2="178.1"/>
	<line class="st0" x1="124.9" y1="232.2" x2="124.7" y2="196.2"/>
	<line class="st0" x1="124.9" y1="232.2" x2="118.4" y2="287.1"/>
	<line class="st0" x1="124.9" y1="232.2" x2="97.6" y2="278.4"/>
	<line class="st0" x1="124.9" y1="232.2" x2="106.9" y2="194.8"/>
	<line class="st0" x1="321.4" y1="189.6" x2="319.7" y2="159.5"/>
	<line class="st0" x1="321.4" y1="189.6" x2="304.7" y2="194.9"/>
	<line class="st0" x1="321.4" y1="189.6" x2="334.8" y2="202.3"/>
	<line class="st0" x1="222" y1="156.2" x2="241.7" y2="202.8"/>
	<line class="st0" x1="222" y1="156.2" x2="237.4" y2="159.6"/>
	<line class="st0" x1="222" y1="156.2" x2="207.8" y2="173.5"/>
	<line class="st0" x1="222" y1="156.2" x2="180.1" y2="195.2"/>
	<line class="st0" x1="222" y1="156.2" x2="219.5" y2="220.9"/>
	<line class="st0" x1="222" y1="156.2" x2="190" y2="208.9"/>
	<line class="st0" x1="222" y1="156.2" x2="245.6" y2="172.4"/>
	<line class="st0" x1="241.7" y1="202.8" x2="237.4" y2="159.6"/>
	<line class="st0" x1="241.7" y1="202.8" x2="207.8" y2="173.5"/>
	<line class="st0" x1="241.7" y1="202.8" x2="180.1" y2="195.2"/>
	<line class="st0" x1="241.7" y1="202.8" x2="219.5" y2="220.9"/>
	<line class="st0" x1="241.7" y1="202.8" x2="190" y2="208.9"/>
	<line class="st0" x1="241.7" y1="202.8" x2="245.6" y2="172.4"/>
	<line class="st0" x1="231.8" y1="188" x2="222" y2="156.2"/>
	<line class="st0" x1="231.8" y1="188" x2="241.7" y2="202.8"/>
	<line class="st0" x1="231.8" y1="188" x2="193.9" y2="165.8"/>
	<line class="st0" x1="231.8" y1="188" x2="237.4" y2="159.6"/>
	<line class="st0" x1="231.8" y1="188" x2="207.8" y2="173.5"/>
	<line class="st0" x1="231.8" y1="188" x2="180.1" y2="195.2"/>
	<line class="st0" x1="231.8" y1="188" x2="219.5" y2="220.9"/>
	<line class="st0" x1="231.8" y1="188" x2="190" y2="208.9"/>
	<line class="st0" x1="231.8" y1="188" x2="245.6" y2="172.4"/>
	<line class="st0" x1="191.7" y1="73.2" x2="140.9" y2="56.9"/>
	<line class="st0" x1="191.7" y1="73.2" x2="141.9" y2="93.5"/>
	<line class="st0" x1="191.7" y1="73.2" x2="148.9" y2="156.8"/>
	<line class="st0" x1="191.7" y1="73.2" x2="239.7" y2="87.6"/>
	<line class="st0" x1="191.7" y1="73.2" x2="277.7" y2="72.3"/>
	<line class="st0" x1="191.7" y1="73.2" x2="297.2" y2="70.6"/>
	<line class="st0" x1="191.7" y1="73.2" x2="238.7" y2="107.3"/>
	<line class="st0" x1="191.7" y1="73.2" x2="271.4" y2="89.9"/>
	<line class="st0" x1="191.7" y1="73.2" x2="225.3" y2="57.1"/>
	<line class="st0" x1="191.7" y1="73.2" x2="191.7" y2="53.8"/>
	<line class="st0" x1="191.7" y1="73.2" x2="195.4" y2="34.9"/>
	<line class="st0" x1="191.7" y1="73.2" x2="240.7" y2="65.8"/>
	<line class="st0" x1="191.7" y1="73.2" x2="208.6" y2="68.1"/>
	<line class="st0" x1="191.7" y1="73.2" x2="171" y2="64.2"/>
	<line class="st0" x1="191.7" y1="73.2" x2="153.7" y2="71.8"/>
	<line class="st0" x1="191.7" y1="73.2" x2="135.9" y2="76.1"/>
	<line class="st0" x1="191.7" y1="73.2" x2="224.2" y2="75.2"/>
	<line class="st0" x1="191.7" y1="73.2" x2="124" y2="57.9"/>
	<line class="st0" x1="191.7" y1="73.2" x2="164.4" y2="14.2"/>
	<line class="st0" x1="191.7" y1="73.2" x2="145.3" y2="18.1"/>
	<line class="st0" x1="191.7" y1="73.2" x2="139.8" y2="37.3"/>
	<line class="st0" x1="191.7" y1="73.2" x2="157.4" y2="32.2"/>
	<line class="st0" x1="191.7" y1="73.2" x2="174.3" y2="44.7"/>
	<line class="st0" x1="191.7" y1="73.2" x2="176.2" y2="27.2"/>
	<line class="st0" x1="191.7" y1="73.2" x2="117.2" y2="73.8"/>
	<line class="st0" x1="191.7" y1="73.2" x2="207.8" y2="19.5"/>
	<line class="st0" x1="191.7" y1="73.2" x2="208.2" y2="50.6"/>
	<line class="st0" x1="191.7" y1="73.2" x2="214" y2="34.9"/>
	<line class="st0" x1="191.7" y1="73.2" x2="245.5" y2="31.6"/>
	<line class="st0" x1="191.7" y1="73.2" x2="227.6" y2="22.9"/>
	<line class="st0" x1="191.7" y1="73.2" x2="230.9" y2="41.1"/>
	<line class="st0" x1="191.7" y1="73.2" x2="246.8" y2="49.6"/>
	<line class="st0" x1="191.7" y1="73.2" x2="168.4" y2="104.5"/>
	<line class="st0" x1="191.7" y1="73.2" x2="265.6" y2="41.4"/>
	<line class="st0" x1="191.7" y1="73.2" x2="256.7" y2="77.5"/>
	<line class="st0" x1="191.7" y1="73.2" x2="174.5" y2="81.9"/>
	<line class="st0" x1="191.7" y1="73.2" x2="168" y2="168.5"/>
	<line class="st0" x1="191.7" y1="73.2" x2="255.1" y2="98"/>
	<line class="st0" x1="191.7" y1="73.2" x2="201.5" y2="123"/>
	<line class="st0" x1="191.7" y1="73.2" x2="282.3" y2="54.6"/>
	<line class="st0" x1="191.7" y1="73.2" x2="93.4" y2="40.1"/>
	<line class="st0" x1="191.7" y1="73.2" x2="290.4" y2="86.7"/>
	<line class="st0" x1="191.7" y1="73.2" x2="206.7" y2="154.4"/>
	<line class="st0" x1="191.7" y1="73.2" x2="157.2" y2="50.9"/>
	<line class="st0" x1="191.7" y1="73.2" x2="188.1" y2="14"/>
	<line class="st0" x1="191.7" y1="73.2" x2="126.9" y2="22.7"/>
	<line class="st0" x1="191.7" y1="73.2" x2="222.3" y2="95.9"/>
	<line class="st0" x1="191.7" y1="73.2" x2="186.9" y2="95.6"/>
	<line class="st0" x1="191.7" y1="73.2" x2="179" y2="132.1"/>
	<line class="st0" x1="191.7" y1="73.2" x2="222.5" y2="115.8"/>
	<line class="st0" x1="191.7" y1="73.2" x2="107.8" y2="29.4"/>
	<line class="st0" x1="191.7" y1="73.2" x2="185.3" y2="113.9"/>
	<line class="st0" x1="191.7" y1="73.2" x2="158.7" y2="90.1"/>
	<line class="st0" x1="191.7" y1="73.2" x2="104.2" y2="54.2"/>
	<line class="st0" x1="191.7" y1="73.2" x2="120.2" y2="41.1"/>
	<line class="st0" x1="191.7" y1="73.2" x2="205.3" y2="106.6"/>
	<line class="st0" x1="191.7" y1="73.2" x2="164.4" y2="122.3"/>
	<line class="st0" x1="191.7" y1="73.2" x2="176.5" y2="152.4"/>
	<line class="st0" x1="191.7" y1="73.2" x2="263.6" y2="60.1"/>
	<line class="st0" x1="191.7" y1="73.2" x2="204.4" y2="88.4"/>
	<line class="st0" x1="193.9" y1="165.8" x2="222" y2="156.2"/>
	<line class="st0" x1="193.9" y1="165.8" x2="241.7" y2="202.8"/>
	<line class="st0" x1="193.9" y1="165.8" x2="237.4" y2="159.6"/>
	<line class="st0" x1="193.9" y1="165.8" x2="207.8" y2="173.5"/>
	<line class="st0" x1="193.9" y1="165.8" x2="180.1" y2="195.2"/>
	<line class="st0" x1="193.9" y1="165.8" x2="219.5" y2="220.9"/>
	<line class="st0" x1="193.9" y1="165.8" x2="190" y2="208.9"/>
	<line class="st0" x1="193.9" y1="165.8" x2="245.6" y2="172.4"/>
	<line class="st0" x1="237.4" y1="159.6" x2="207.8" y2="173.5"/>
	<line class="st0" x1="237.4" y1="159.6" x2="190" y2="208.9"/>
	<line class="st0" x1="237.4" y1="159.6" x2="245.6" y2="172.4"/>
	<line class="st0" x1="207.8" y1="173.5" x2="190" y2="208.9"/>
	<line class="st0" x1="207.8" y1="173.5" x2="245.6" y2="172.4"/>
	<line class="st0" x1="180.1" y1="195.2" x2="138.3" y2="185.7"/>
	<line class="st0" x1="180.1" y1="195.2" x2="237.4" y2="159.6"/>
	<line class="st0" x1="180.1" y1="195.2" x2="207.8" y2="173.5"/>
	<line class="st0" x1="180.1" y1="195.2" x2="219.5" y2="220.9"/>
	<line class="st0" x1="180.1" y1="195.2" x2="190" y2="208.9"/>
	<line class="st0" x1="180.1" y1="195.2" x2="245.6" y2="172.4"/>
	<line class="st0" x1="180.1" y1="195.2" x2="158.6" y2="189.8"/>
	<line class="st0" x1="180.1" y1="195.2" x2="161.2" y2="207.8"/>
	<line class="st0" x1="219.5" y1="220.9" x2="237.4" y2="159.6"/>
	<line class="st0" x1="219.5" y1="220.9" x2="207.8" y2="173.5"/>
	<line class="st0" x1="219.5" y1="220.9" x2="190" y2="208.9"/>
	<line class="st0" x1="219.5" y1="220.9" x2="245.6" y2="172.4"/>
	<line class="st0" x1="321.6" y1="243.3" x2="318.3" y2="210.9"/>
	<line class="st0" x1="321.6" y1="243.3" x2="310.7" y2="230.5"/>
	<line class="st0" x1="321.6" y1="243.3" x2="300.8" y2="215.4"/>
	<line class="st0" x1="321.6" y1="243.3" x2="329.5" y2="224.4"/>
	<line class="st0" x1="321.6" y1="243.3" x2="312.4" y2="258.9"/>
	<line class="st0" x1="312.4" y1="258.9" x2="318.3" y2="210.9"/>
	<line class="st0" x1="312.4" y1="258.9" x2="310.7" y2="230.5"/>
	<line class="st0" x1="312.4" y1="258.9" x2="300.8" y2="215.4"/>
	<line class="st0" x1="312.4" y1="258.9" x2="329.5" y2="224.4"/>
	<line class="st0" x1="142.6" y1="204.4" x2="112.6" y2="212.6"/>
	<line class="st0" x1="104.9" y1="228.3" x2="142.6" y2="204.4"/>
	<line class="st0" x1="104.9" y1="228.3" x2="112.6" y2="212.6"/>
	<line class="st0" x1="104.9" y1="228.3" x2="130.4" y2="216.8"/>
	<line class="st0" x1="202.6" y1="220.2" x2="222" y2="156.2"/>
	<line class="st0" x1="202.6" y1="220.2" x2="241.7" y2="202.8"/>
	<line class="st0" x1="202.6" y1="220.2" x2="231.8" y2="188"/>
	<line class="st0" x1="202.6" y1="220.2" x2="193.9" y2="165.8"/>
	<line class="st0" x1="202.6" y1="220.2" x2="237.4" y2="159.6"/>
	<line class="st0" x1="202.6" y1="220.2" x2="207.8" y2="173.5"/>
	<line class="st0" x1="202.6" y1="220.2" x2="180.1" y2="195.2"/>
	<line class="st0" x1="202.6" y1="220.2" x2="219.5" y2="220.9"/>
	<line class="st0" x1="202.6" y1="220.2" x2="190" y2="208.9"/>
	<line class="st0" x1="202.6" y1="220.2" x2="245.6" y2="172.4"/>
	<line class="st0" x1="130.4" y1="216.8" x2="142.6" y2="204.4"/>
	<line class="st0" x1="130.4" y1="216.8" x2="112.6" y2="212.6"/>
	<line class="st0" x1="206.7" y1="154.4" x2="222" y2="156.2"/>
	<line class="st0" x1="206.7" y1="154.4" x2="241.7" y2="202.8"/>
	<line class="st0" x1="206.7" y1="154.4" x2="231.8" y2="188"/>
	<line class="st0" x1="206.7" y1="154.4" x2="193.9" y2="165.8"/>
	<line class="st0" x1="206.7" y1="154.4" x2="237.4" y2="159.6"/>
	<line class="st0" x1="206.7" y1="154.4" x2="207.8" y2="173.5"/>
	<line class="st0" x1="206.7" y1="154.4" x2="180.1" y2="195.2"/>
	<line class="st0" x1="206.7" y1="154.4" x2="219.5" y2="220.9"/>
	<line class="st0" x1="206.7" y1="154.4" x2="202.6" y2="220.2"/>
	<line class="st0" x1="206.7" y1="154.4" x2="190" y2="208.9"/>
	<line class="st0" x1="206.7" y1="154.4" x2="245.6" y2="172.4"/>
	<line class="st0" x1="206.7" y1="154.4" x2="205.3" y2="106.6"/>
	<line class="st0" x1="53.3" y1="158.7" x2="86.5" y2="148"/>
	<line class="st0" x1="53.3" y1="158.7" x2="62.2" y2="194.3"/>
	<line class="st0" x1="157.2" y1="50.9" x2="164.4" y2="14.2"/>
	<line class="st0" x1="157.2" y1="50.9" x2="145.3" y2="18.1"/>
	<line class="st0" x1="157.2" y1="50.9" x2="139.8" y2="37.3"/>
	<line class="st0" x1="157.2" y1="50.9" x2="157.4" y2="32.2"/>
	<line class="st0" x1="157.2" y1="50.9" x2="174.3" y2="44.7"/>
	<line class="st0" x1="157.2" y1="50.9" x2="176.2" y2="27.2"/>
	<line class="st0" x1="157.2" y1="50.9" x2="168.4" y2="104.5"/>
	<line class="st0" x1="157.2" y1="50.9" x2="174.5" y2="81.9"/>
	<line class="st0" x1="157.2" y1="50.9" x2="126.9" y2="22.7"/>
	<line class="st0" x1="246.3" y1="278.2" x2="211.2" y2="240.7"/>
	<line class="st0" x1="246.3" y1="278.2" x2="265.5" y2="288"/>
	<line class="st0" x1="264.3" y1="199.4" x2="320" y2="106.6"/>
	<line class="st0" x1="264.3" y1="199.4" x2="297.1" y2="106.2"/>
	<line class="st0" x1="264.3" y1="199.4" x2="307.2" y2="119.9"/>
	<line class="st0" x1="264.3" y1="199.4" x2="282.3" y2="144.4"/>
	<line class="st0" x1="264.3" y1="199.4" x2="293.9" y2="178.5"/>
	<line class="st0" x1="264.3" y1="199.4" x2="211.2" y2="240.7"/>
	<line class="st0" x1="264.3" y1="199.4" x2="309.7" y2="91.3"/>
	<line class="st0" x1="264.3" y1="199.4" x2="299.3" y2="279.7"/>
	<line class="st0" x1="264.3" y1="199.4" x2="189.1" y2="235.6"/>
	<line class="st0" x1="264.3" y1="199.4" x2="206.1" y2="268.4"/>
	<line class="st0" x1="264.3" y1="199.4" x2="286.7" y2="162.5"/>
	<line class="st0" x1="264.3" y1="199.4" x2="216.9" y2="282.4"/>
	<line class="st0" x1="264.3" y1="199.4" x2="319.7" y2="159.5"/>
	<line class="st0" x1="264.3" y1="199.4" x2="335.8" y2="180.7"/>
	<line class="st0" x1="264.3" y1="199.4" x2="236" y2="135.4"/>
	<line class="st0" x1="264.3" y1="199.4" x2="304.7" y2="194.9"/>
	<line class="st0" x1="264.3" y1="199.4" x2="311.7" y2="174.5"/>
	<line class="st0" x1="264.3" y1="199.4" x2="334.8" y2="202.3"/>
	<line class="st0" x1="264.3" y1="199.4" x2="267.7" y2="174.2"/>
	<line class="st0" x1="264.3" y1="199.4" x2="277.8" y2="187.5"/>
	<line class="st0" x1="264.3" y1="199.4" x2="332.5" y2="143.1"/>
	<line class="st0" x1="264.3" y1="199.4" x2="314.8" y2="140"/>
	<line class="st0" x1="264.3" y1="199.4" x2="318.3" y2="210.9"/>
	<line class="st0" x1="264.3" y1="199.4" x2="248.9" y2="187.6"/>
	<line class="st0" x1="264.3" y1="199.4" x2="310.7" y2="230.5"/>
	<line class="st0" x1="264.3" y1="199.4" x2="224.5" y2="205.4"/>
	<line class="st0" x1="264.3" y1="199.4" x2="300.8" y2="215.4"/>
	<line class="st0" x1="264.3" y1="199.4" x2="225.2" y2="172.9"/>
	<line class="st0" x1="264.3" y1="199.4" x2="329.5" y2="224.4"/>
	<line class="st0" x1="264.3" y1="199.4" x2="214.7" y2="189.3"/>
	<line class="st0" x1="264.3" y1="199.4" x2="287.6" y2="201.8"/>
	<line class="st0" x1="264.3" y1="199.4" x2="326.4" y2="124.9"/>
	<line class="st0" x1="264.3" y1="199.4" x2="197.2" y2="189.3"/>
	<line class="st0" x1="264.3" y1="199.4" x2="206.7" y2="204.4"/>
	<line class="st0" x1="264.3" y1="199.4" x2="266.4" y2="157"/>
	<line class="st0" x1="264.3" y1="199.4" x2="321.4" y2="189.6"/>
	<line class="st0" x1="264.3" y1="199.4" x2="222" y2="156.2"/>
	<line class="st0" x1="264.3" y1="199.4" x2="241.7" y2="202.8"/>
	<line class="st0" x1="264.3" y1="199.4" x2="231.8" y2="188"/>
	<line class="st0" x1="264.3" y1="199.4" x2="193.9" y2="165.8"/>
	<line class="st0" x1="264.3" y1="199.4" x2="301.9" y2="155.1"/>
	<line class="st0" x1="264.3" y1="199.4" x2="237.4" y2="159.6"/>
	<line class="st0" x1="264.3" y1="199.4" x2="207.8" y2="173.5"/>
	<line class="st0" x1="264.3" y1="199.4" x2="180.1" y2="195.2"/>
	<line class="st0" x1="264.3" y1="199.4" x2="284.1" y2="293"/>
	<line class="st0" x1="264.3" y1="199.4" x2="219.5" y2="220.9"/>
	<line class="st0" x1="264.3" y1="199.4" x2="321.6" y2="243.3"/>
	<line class="st0" x1="264.3" y1="199.4" x2="312.4" y2="258.9"/>
	<line class="st0" x1="264.3" y1="199.4" x2="202.6" y2="220.2"/>
	<line class="st0" x1="264.3" y1="199.4" x2="206.7" y2="154.4"/>
	<line class="st0" x1="264.3" y1="199.4" x2="246.3" y2="278.2"/>
	<line class="st0" x1="264.3" y1="199.4" x2="265.5" y2="288"/>
	<line class="st0" x1="264.3" y1="199.4" x2="183.5" y2="178.9"/>
	<line class="st0" x1="264.3" y1="199.4" x2="190" y2="208.9"/>
	<line class="st0" x1="264.3" y1="199.4" x2="233.5" y2="239.8"/>
	<line class="st0" x1="264.3" y1="199.4" x2="245.6" y2="172.4"/>
	<line class="st0" x1="264.3" y1="199.4" x2="229.9" y2="268.8"/>
	<line class="st0" x1="264.3" y1="199.4" x2="245.7" y2="256.6"/>
	<line class="st0" x1="264.3" y1="199.4" x2="297.1" y2="245"/>
	<line class="st0" x1="264.3" y1="199.4" x2="293.2" y2="262.7"/>
	<line class="st0" x1="264.3" y1="199.4" x2="270.3" y2="234.9"/>
	<line class="st0" x1="264.3" y1="199.4" x2="280.1" y2="251.1"/>
	<line class="st0" x1="264.3" y1="199.4" x2="263.5" y2="252.8"/>
	<line class="st0" x1="264.3" y1="199.4" x2="278.9" y2="272.3"/>
	<line class="st0" x1="264.3" y1="199.4" x2="262.1" y2="269.1"/>
	<line class="st0" x1="264.3" y1="199.4" x2="288.1" y2="230.5"/>
	<line class="st0" x1="264.3" y1="199.4" x2="275.9" y2="217.9"/>
	<line class="st0" x1="264.3" y1="199.4" x2="238.9" y2="220.2"/>
	<line class="st0" x1="264.3" y1="199.4" x2="252.1" y2="238.9"/>
	<line class="st0" x1="264.3" y1="199.4" x2="297.7" y2="134.6"/>
	<line class="st0" x1="264.3" y1="199.4" x2="279.8" y2="108.1"/>
	<line class="st0" x1="264.3" y1="199.4" x2="283" y2="124.8"/>
	<line class="st0" x1="264.3" y1="199.4" x2="266.5" y2="134.4"/>
	<line class="st0" x1="264.3" y1="199.4" x2="195.8" y2="140.2"/>
	<line class="st0" x1="264.3" y1="199.4" x2="218.6" y2="134.1"/>
	<line class="st0" x1="264.3" y1="199.4" x2="252.9" y2="144.6"/>
	<line class="st0" x1="264.3" y1="199.4" x2="248.7" y2="123.7"/>
	<line class="st0" x1="264.3" y1="199.4" x2="263.9" y2="115.4"/>
	<line class="st0" x1="264.3" y1="199.4" x2="267.8" y2="306.5"/>
	<line class="st0" x1="264.3" y1="199.4" x2="221.1" y2="255"/>
	<line class="st0" x1="264.3" y1="199.4" x2="198.5" y2="253.3"/>
	<line class="st0" x1="264.3" y1="199.4" x2="233.3" y2="289.4"/>
	<line class="st0" x1="264.3" y1="199.4" x2="250.8" y2="299.4"/>
	<line class="st0" x1="336.2" y1="162.6" x2="264.3" y2="199.4"/>
	<line class="st0" x1="113.3" y1="271.6" x2="126.1" y2="252.8"/>
	<line class="st0" x1="113.3" y1="271.6" x2="134.1" y2="310.9"/>
	<line class="st0" x1="113.3" y1="271.6" x2="152.1" y2="316.1"/>
	<line class="st0" x1="113.3" y1="271.6" x2="166.6" y2="307.8"/>
	<line class="st0" x1="113.3" y1="271.6" x2="132.2" y2="329.4"/>
	<line class="st0" x1="113.3" y1="271.6" x2="96.9" y2="296"/>
	<line class="st0" x1="113.3" y1="271.6" x2="56.1" y2="283.7"/>
	<line class="st0" x1="113.3" y1="271.6" x2="183.9" y2="270.3"/>
	<line class="st0" x1="113.3" y1="271.6" x2="124.9" y2="232.2"/>
	<line class="st0" x1="113.3" y1="271.6" x2="43.2" y2="267.1"/>
	<line class="st0" x1="113.3" y1="271.6" x2="149.3" y2="333.6"/>
	<line class="st0" x1="113.3" y1="271.6" x2="116.1" y2="323.8"/>
	<line class="st0" x1="113.3" y1="271.6" x2="118.4" y2="287.1"/>
	<line class="st0" x1="113.3" y1="271.6" x2="97.6" y2="278.4"/>
	<line class="st0" x1="113.3" y1="271.6" x2="91.6" y2="242.6"/>
	<line class="st0" x1="113.3" y1="271.6" x2="135" y2="293.4"/>
	<line class="st0" x1="113.3" y1="271.6" x2="99.6" y2="316.7"/>
	<line class="st0" x1="113.3" y1="271.6" x2="110.3" y2="246.8"/>
	<line class="st0" x1="113.3" y1="271.6" x2="96.6" y2="259.9"/>
	<line class="st0" x1="113.3" y1="271.6" x2="69.9" y2="295.3"/>
	<line class="st0" x1="113.3" y1="271.6" x2="79.5" y2="281.6"/>
	<line class="st0" x1="113.3" y1="271.6" x2="62.4" y2="267.5"/>
	<line class="st0" x1="113.3" y1="271.6" x2="114.6" y2="304.3"/>
	<line class="st0" x1="113.3" y1="271.6" x2="78.9" y2="263.3"/>
	<line class="st0" x1="113.3" y1="271.6" x2="83.5" y2="306.9"/>
	<line class="st0" x1="150.6" y1="173.3" x2="183.5" y2="178.9"/>
	<line class="st0" x1="183.5" y1="178.9" x2="248.9" y2="187.6"/>
	<line class="st0" x1="183.5" y1="178.9" x2="224.5" y2="205.4"/>
	<line class="st0" x1="183.5" y1="178.9" x2="225.2" y2="172.9"/>
	<line class="st0" x1="183.5" y1="178.9" x2="214.7" y2="189.3"/>
	<line class="st0" x1="183.5" y1="178.9" x2="197.2" y2="189.3"/>
	<line class="st0" x1="183.5" y1="178.9" x2="206.7" y2="204.4"/>
	<line class="st0" x1="183.5" y1="178.9" x2="222" y2="156.2"/>
	<line class="st0" x1="183.5" y1="178.9" x2="241.7" y2="202.8"/>
	<line class="st0" x1="183.5" y1="178.9" x2="231.8" y2="188"/>
	<line class="st0" x1="183.5" y1="178.9" x2="193.9" y2="165.8"/>
	<line class="st0" x1="183.5" y1="178.9" x2="237.4" y2="159.6"/>
	<line class="st0" x1="183.5" y1="178.9" x2="207.8" y2="173.5"/>
	<line class="st0" x1="183.5" y1="178.9" x2="180.1" y2="195.2"/>
	<line class="st0" x1="183.5" y1="178.9" x2="219.5" y2="220.9"/>
	<line class="st0" x1="183.5" y1="178.9" x2="202.6" y2="220.2"/>
	<line class="st0" x1="183.5" y1="178.9" x2="206.7" y2="154.4"/>
	<line class="st0" x1="183.5" y1="178.9" x2="190" y2="208.9"/>
	<line class="st0" x1="183.5" y1="178.9" x2="245.6" y2="172.4"/>
	<line class="st0" x1="183.5" y1="178.9" x2="238.9" y2="220.2"/>
	<line class="st0" x1="190" y1="208.9" x2="245.6" y2="172.4"/>
	<line class="st0" x1="233.5" y1="239.8" x2="211.2" y2="240.7"/>
	<line class="st0" x1="233.5" y1="239.8" x2="246.3" y2="278.2"/>
	<line class="st0" x1="233.5" y1="239.8" x2="265.5" y2="288"/>
	<line class="st0" x1="186.9" y1="95.6" x2="201.5" y2="123"/>
	<line class="st0" x1="297.1" y1="245" x2="245.7" y2="256.6"/>
	<line class="st0" x1="293.2" y1="262.7" x2="245.7" y2="256.6"/>
	<line class="st0" x1="293.2" y1="262.7" x2="297.1" y2="245"/>
	<line class="st0" x1="270.3" y1="234.9" x2="245.7" y2="256.6"/>
	<line class="st0" x1="270.3" y1="234.9" x2="297.1" y2="245"/>
	<line class="st0" x1="270.3" y1="234.9" x2="293.2" y2="262.7"/>
	<line class="st0" x1="280.1" y1="251.1" x2="245.7" y2="256.6"/>
	<line class="st0" x1="280.1" y1="251.1" x2="297.1" y2="245"/>
	<line class="st0" x1="280.1" y1="251.1" x2="293.2" y2="262.7"/>
	<line class="st0" x1="280.1" y1="251.1" x2="270.3" y2="234.9"/>
	<line class="st0" x1="280.1" y1="251.1" x2="263.5" y2="252.8"/>
	<line class="st0" x1="280.1" y1="251.1" x2="278.9" y2="272.3"/>
	<line class="st0" x1="263.5" y1="252.8" x2="245.7" y2="256.6"/>
	<line class="st0" x1="263.5" y1="252.8" x2="297.1" y2="245"/>
	<line class="st0" x1="263.5" y1="252.8" x2="293.2" y2="262.7"/>
	<line class="st0" x1="263.5" y1="252.8" x2="270.3" y2="234.9"/>
	<line class="st0" x1="278.9" y1="272.3" x2="245.7" y2="256.6"/>
	<line class="st0" x1="278.9" y1="272.3" x2="297.1" y2="245"/>
	<line class="st0" x1="278.9" y1="272.3" x2="293.2" y2="262.7"/>
	<line class="st0" x1="278.9" y1="272.3" x2="270.3" y2="234.9"/>
	<line class="st0" x1="278.9" y1="272.3" x2="263.5" y2="252.8"/>
	<line class="st0" x1="262.1" y1="269.1" x2="245.7" y2="256.6"/>
	<line class="st0" x1="262.1" y1="269.1" x2="297.1" y2="245"/>
	<line class="st0" x1="262.1" y1="269.1" x2="293.2" y2="262.7"/>
	<line class="st0" x1="262.1" y1="269.1" x2="270.3" y2="234.9"/>
	<line class="st0" x1="262.1" y1="269.1" x2="280.1" y2="251.1"/>
	<line class="st0" x1="262.1" y1="269.1" x2="263.5" y2="252.8"/>
	<line class="st0" x1="262.1" y1="269.1" x2="278.9" y2="272.3"/>
	<line class="st0" x1="288.1" y1="230.5" x2="245.7" y2="256.6"/>
	<line class="st0" x1="288.1" y1="230.5" x2="297.1" y2="245"/>
	<line class="st0" x1="288.1" y1="230.5" x2="293.2" y2="262.7"/>
	<line class="st0" x1="288.1" y1="230.5" x2="270.3" y2="234.9"/>
	<line class="st0" x1="288.1" y1="230.5" x2="280.1" y2="251.1"/>
	<line class="st0" x1="288.1" y1="230.5" x2="263.5" y2="252.8"/>
	<line class="st0" x1="288.1" y1="230.5" x2="278.9" y2="272.3"/>
	<line class="st0" x1="288.1" y1="230.5" x2="262.1" y2="269.1"/>
	<line class="st0" x1="275.9" y1="217.9" x2="245.7" y2="256.6"/>
	<line class="st0" x1="275.9" y1="217.9" x2="297.1" y2="245"/>
	<line class="st0" x1="275.9" y1="217.9" x2="293.2" y2="262.7"/>
	<line class="st0" x1="275.9" y1="217.9" x2="270.3" y2="234.9"/>
	<line class="st0" x1="275.9" y1="217.9" x2="280.1" y2="251.1"/>
	<line class="st0" x1="275.9" y1="217.9" x2="263.5" y2="252.8"/>
	<line class="st0" x1="275.9" y1="217.9" x2="278.9" y2="272.3"/>
	<line class="st0" x1="275.9" y1="217.9" x2="262.1" y2="269.1"/>
	<line class="st0" x1="275.9" y1="217.9" x2="288.1" y2="230.5"/>
	<line class="st0" x1="238.9" y1="220.2" x2="248.9" y2="187.6"/>
	<line class="st0" x1="238.9" y1="220.2" x2="224.5" y2="205.4"/>
	<line class="st0" x1="238.9" y1="220.2" x2="225.2" y2="172.9"/>
	<line class="st0" x1="238.9" y1="220.2" x2="214.7" y2="189.3"/>
	<line class="st0" x1="238.9" y1="220.2" x2="197.2" y2="189.3"/>
	<line class="st0" x1="238.9" y1="220.2" x2="206.7" y2="204.4"/>
	<line class="st0" x1="238.9" y1="220.2" x2="222" y2="156.2"/>
	<line class="st0" x1="238.9" y1="220.2" x2="241.7" y2="202.8"/>
	<line class="st0" x1="238.9" y1="220.2" x2="231.8" y2="188"/>
	<line class="st0" x1="238.9" y1="220.2" x2="193.9" y2="165.8"/>
	<line class="st0" x1="238.9" y1="220.2" x2="237.4" y2="159.6"/>
	<line class="st0" x1="238.9" y1="220.2" x2="207.8" y2="173.5"/>
	<line class="st0" x1="238.9" y1="220.2" x2="180.1" y2="195.2"/>
	<line class="st0" x1="238.9" y1="220.2" x2="219.5" y2="220.9"/>
	<line class="st0" x1="238.9" y1="220.2" x2="202.6" y2="220.2"/>
	<line class="st0" x1="238.9" y1="220.2" x2="206.7" y2="154.4"/>
	<line class="st0" x1="238.9" y1="220.2" x2="190" y2="208.9"/>
	<line class="st0" x1="238.9" y1="220.2" x2="245.6" y2="172.4"/>
	<line class="st0" x1="238.9" y1="220.2" x2="245.7" y2="256.6"/>
	<line class="st0" x1="238.9" y1="220.2" x2="297.1" y2="245"/>
	<line class="st0" x1="238.9" y1="220.2" x2="293.2" y2="262.7"/>
	<line class="st0" x1="238.9" y1="220.2" x2="270.3" y2="234.9"/>
	<line class="st0" x1="238.9" y1="220.2" x2="280.1" y2="251.1"/>
	<line class="st0" x1="238.9" y1="220.2" x2="263.5" y2="252.8"/>
	<line class="st0" x1="238.9" y1="220.2" x2="278.9" y2="272.3"/>
	<line class="st0" x1="238.9" y1="220.2" x2="262.1" y2="269.1"/>
	<line class="st0" x1="238.9" y1="220.2" x2="288.1" y2="230.5"/>
	<line class="st0" x1="238.9" y1="220.2" x2="275.9" y2="217.9"/>
	<line class="st0" x1="252.1" y1="238.9" x2="245.7" y2="256.6"/>
	<line class="st0" x1="252.1" y1="238.9" x2="297.1" y2="245"/>
	<line class="st0" x1="252.1" y1="238.9" x2="293.2" y2="262.7"/>
	<line class="st0" x1="252.1" y1="238.9" x2="270.3" y2="234.9"/>
	<line class="st0" x1="252.1" y1="238.9" x2="280.1" y2="251.1"/>
	<line class="st0" x1="252.1" y1="238.9" x2="263.5" y2="252.8"/>
	<line class="st0" x1="252.1" y1="238.9" x2="278.9" y2="272.3"/>
	<line class="st0" x1="252.1" y1="238.9" x2="262.1" y2="269.1"/>
	<line class="st0" x1="252.1" y1="238.9" x2="288.1" y2="230.5"/>
	<line class="st0" x1="252.1" y1="238.9" x2="275.9" y2="217.9"/>
	<line class="st0" x1="252.1" y1="238.9" x2="238.9" y2="220.2"/>
	<line class="st0" x1="116.1" y1="323.8" x2="149.3" y2="333.6"/>
	<line class="st0" x1="97.6" y1="278.4" x2="118.4" y2="287.1"/>
	<line class="st0" x1="185.3" y1="113.9" x2="186.9" y2="95.6"/>
	<line class="st0" x1="185.3" y1="113.9" x2="222.5" y2="115.8"/>
	<line class="st0" x1="207.7" y1="298.6" x2="198" y2="319.2"/>
	<line class="st0" x1="207.7" y1="298.6" x2="230.7" y2="307.2"/>
	<line class="st0" x1="207.7" y1="298.6" x2="215.3" y2="314.5"/>
	<line class="st0" x1="207.7" y1="298.6" x2="167.5" y2="273.8"/>
	<line class="st0" x1="297.7" y1="134.6" x2="297.1" y2="106.2"/>
	<line class="st0" x1="297.7" y1="134.6" x2="307.2" y2="119.9"/>
	<line class="st0" x1="297.7" y1="134.6" x2="282.3" y2="144.4"/>
	<line class="st0" x1="297.7" y1="134.6" x2="279.8" y2="108.1"/>
	<line class="st0" x1="297.7" y1="134.6" x2="283" y2="124.8"/>
	<line class="st0" x1="279.8" y1="108.1" x2="297.1" y2="106.2"/>
	<line class="st0" x1="279.8" y1="108.1" x2="307.2" y2="119.9"/>
	<line class="st0" x1="279.8" y1="108.1" x2="282.3" y2="144.4"/>
	<line class="st0" x1="279.8" y1="108.1" x2="283" y2="124.8"/>
	<line class="st0" x1="279.8" y1="108.1" x2="266.5" y2="134.4"/>
	<line class="st0" x1="279.8" y1="108.1" x2="252.9" y2="144.6"/>
	<line class="st0" x1="279.8" y1="108.1" x2="248.7" y2="123.7"/>
	<line class="st0" x1="279.8" y1="108.1" x2="263.9" y2="115.4"/>
	<line class="st0" x1="283" y1="124.8" x2="297.1" y2="106.2"/>
	<line class="st0" x1="283" y1="124.8" x2="307.2" y2="119.9"/>
	<line class="st0" x1="283" y1="124.8" x2="282.3" y2="144.4"/>
	<line class="st0" x1="283" y1="124.8" x2="266.5" y2="134.4"/>
	<line class="st0" x1="283" y1="124.8" x2="252.9" y2="144.6"/>
	<line class="st0" x1="283" y1="124.8" x2="248.7" y2="123.7"/>
	<line class="st0" x1="283" y1="124.8" x2="263.9" y2="115.4"/>
	<line class="st0" x1="266.5" y1="134.4" x2="252.9" y2="144.6"/>
	<line class="st0" x1="266.5" y1="134.4" x2="248.7" y2="123.7"/>
	<line class="st0" x1="99.6" y1="316.7" x2="135" y2="293.4"/>
	<line class="st0" x1="218.6" y1="134.1" x2="195.8" y2="140.2"/>
	<line class="st0" x1="248.7" y1="123.7" x2="252.9" y2="144.6"/>
	<line class="st0" x1="158.6" y1="189.8" x2="161.2" y2="207.8"/>
	<line class="st0" x1="110.3" y1="246.8" x2="91.6" y2="242.6"/>
	<line class="st0" x1="173.5" y1="223.1" x2="163.8" y2="236.9"/>
	<line class="st0" x1="96.6" y1="259.9" x2="91.6" y2="242.6"/>
	<line class="st0" x1="96.6" y1="259.9" x2="110.3" y2="246.8"/>
	<line class="st0" x1="96.6" y1="259.9" x2="69.9" y2="295.3"/>
	<line class="st0" x1="96.6" y1="259.9" x2="79.5" y2="281.6"/>
	<line class="st0" x1="96.6" y1="259.9" x2="62.4" y2="267.5"/>
	<line class="st0" x1="96.6" y1="259.9" x2="114.6" y2="304.3"/>
	<line class="st0" x1="96.6" y1="259.9" x2="78.9" y2="263.3"/>
	<line class="st0" x1="96.6" y1="259.9" x2="83.5" y2="306.9"/>
	<line class="st0" x1="263.9" y1="115.4" x2="266.5" y2="134.4"/>
	<line class="st0" x1="263.9" y1="115.4" x2="252.9" y2="144.6"/>
	<line class="st0" x1="263.9" y1="115.4" x2="248.7" y2="123.7"/>
	<line class="st0" x1="267.8" y1="306.5" x2="233.3" y2="289.4"/>
	<line class="st0" x1="267.8" y1="306.5" x2="250.8" y2="299.4"/>
	<line class="st0" x1="69.9" y1="295.3" x2="79.5" y2="281.6"/>
	<line class="st0" x1="221.1" y1="255" x2="229.9" y2="268.8"/>
	<line class="st0" x1="198.5" y1="253.3" x2="229.9" y2="268.8"/>
	<line class="st0" x1="198.5" y1="253.3" x2="221.1" y2="255"/>
	<line class="st0" x1="233.3" y1="289.4" x2="229.9" y2="268.8"/>
	<line class="st0" x1="233.3" y1="289.4" x2="221.1" y2="255"/>
	<line class="st0" x1="233.3" y1="289.4" x2="198.5" y2="253.3"/>
	<line class="st0" x1="250.8" y1="299.4" x2="233.3" y2="289.4"/>
	<line class="st0" x1="34.4" y1="248.5" x2="33.2" y2="182.1"/>
	<line class="st0" x1="62.4" y1="267.5" x2="69.9" y2="295.3"/>
	<line class="st0" x1="62.4" y1="267.5" x2="79.5" y2="281.6"/>
	<line class="st0" x1="62.4" y1="267.5" x2="78.9" y2="263.3"/>
	<line class="st0" x1="78.9" y1="263.3" x2="69.9" y2="295.3"/>
	<line class="st0" x1="78.9" y1="263.3" x2="79.5" y2="281.6"/>
	<line class="st0" x1="83.5" y1="306.9" x2="114.6" y2="304.3"/>
	<path d="M44.7,197c0-1.1-0.9-1.9-1.9-1.9c-1.1,0-1.9,0.9-1.9,1.9c0,1.1,0.9,1.9,1.9,1.9C43.8,198.9,44.7,198.1,44.7,197"/>
	<path d="M20.9,214.8c0-1.1-0.9-1.9-1.9-1.9c-1.1,0-1.9,0.9-1.9,1.9c0,1.1,0.9,1.9,1.9,1.9C20.1,216.8,20.9,215.9,20.9,214.8"/>
	<path d="M46.3,232.2c0-1.1-0.9-1.9-1.9-1.9c-1.1,0-1.9,0.9-1.9,1.9c0,1.1,0.9,1.9,1.9,1.9C45.4,234.1,46.3,233.3,46.3,232.2"/>
	<path d="M142.8,56.9c0-1.1-0.9-1.9-1.9-1.9c-1.1,0-1.9,0.9-1.9,1.9c0,1.1,0.9,1.9,1.9,1.9C142,58.8,142.8,57.9,142.8,56.9"/>
	<path d="M38.9,214.8c0-1.1-0.9-1.9-1.9-1.9c-1.1,0-1.9,0.9-1.9,1.9c0,1.1,0.9,1.9,1.9,1.9C38,216.8,38.9,215.9,38.9,214.8"/>
	<path d="M143.8,93.5c0-1.1-0.9-1.9-1.9-1.9c-1.1,0-1.9,0.9-1.9,1.9c0,1.1,0.9,1.9,1.9,1.9C143,95.4,143.8,94.6,143.8,93.5"/>
	<path d="M51.2,140.2c0-1.1-0.9-1.9-1.9-1.9c-1.1,0-1.9,0.9-1.9,1.9c0,1.1,0.9,1.9,1.9,1.9C50.3,142.1,51.2,141.3,51.2,140.2"/>
	<path d="M150.8,156.8c0-1.1-0.9-1.9-1.9-1.9c-1.1,0-1.9,0.9-1.9,1.9c0,1.1,0.9,1.9,1.9,1.9C150,158.8,150.8,157.9,150.8,156.8"/>
	<path d="M241.6,87.6c0-1.1-0.9-1.9-1.9-1.9c-1.1,0-1.9,0.9-1.9,1.9c0,1.1,0.9,1.9,1.9,1.9C240.8,89.5,241.6,88.6,241.6,87.6"/>
	<path d="M56.5,211.9c0-1.1-0.9-1.9-1.9-1.9c-1.1,0-1.9,0.9-1.9,1.9c0,1.1,0.9,1.9,1.9,1.9C55.6,213.8,56.5,212.9,56.5,211.9"/>
	<path d="M279.7,72.3c0-1.1-0.9-1.9-1.9-1.9c-1.1,0-1.9,0.9-1.9,1.9c0,1.1,0.9,1.9,1.9,1.9C278.8,74.2,279.7,73.4,279.7,72.3"/>
	<path d="M23.5,129c0-1.1-0.9-1.9-1.9-1.9c-1.1,0-1.9,0.9-1.9,1.9c0,1.1,0.9,1.9,1.9,1.9C22.7,131,23.5,130.1,23.5,129"/>
	<path d="M299.1,70.6c0-1.1-0.9-1.9-1.9-1.9c-1.1,0-1.9,0.9-1.9,1.9c0,1.1,0.9,1.9,1.9,1.9C298.2,72.5,299.1,71.6,299.1,70.6"/>
	<path d="M240.7,107.3c0-1.1-0.9-1.9-1.9-1.9c-1.1,0-1.9,0.9-1.9,1.9c0,1.1,0.9,1.9,1.9,1.9C239.8,109.3,240.7,108.4,240.7,107.3"/>
	<path d="M273.3,89.9c0-1.1-0.9-1.9-1.9-1.9c-1.1,0-1.9,0.9-1.9,1.9c0,1.1,0.9,1.9,1.9,1.9C272.5,91.8,273.3,91,273.3,89.9"/>
	<path d="M258.6,219.9c0-1.1-0.9-1.9-1.9-1.9c-1.1,0-1.9,0.9-1.9,1.9c0,1.1,0.9,1.9,1.9,1.9C257.7,221.8,258.6,221,258.6,219.9"/>
	<path d="M321.9,106.6c0-1.1-0.9-1.9-1.9-1.9c-1.1,0-1.9,0.9-1.9,1.9c0,1.1,0.9,1.9,1.9,1.9C321.1,108.6,321.9,107.7,321.9,106.6"/>
	<path d="M41.4,124c0-1.1-0.9-1.9-1.9-1.9c-1.1,0-1.9,0.9-1.9,1.9c0,1.1,0.9,1.9,1.9,1.9C40.6,125.9,41.4,125,41.4,124"/>
	<path d="M38.9,93.4c0-1.1-0.9-1.9-1.9-1.9c-1.1,0-1.9,0.9-1.9,1.9c0,1.1,0.9,1.9,1.9,1.9C38,95.4,38.9,94.5,38.9,93.4"/>
	<path d="M19.8,165.6c0-1.1-0.9-1.9-1.9-1.9c-1.1,0-1.9,0.9-1.9,1.9c0,1.1,0.9,1.9,1.9,1.9C18.9,167.5,19.8,166.7,19.8,165.6"/>
	<path d="M34.7,145.2c0-1.1-0.9-1.9-1.9-1.9c-1.1,0-1.9,0.9-1.9,1.9c0,1.1,0.9,1.9,1.9,1.9C33.9,147.2,34.7,146.3,34.7,145.2"/>
	<path d="M299,106.2c0-1.1-0.9-1.9-1.9-1.9c-1.1,0-1.9,0.9-1.9,1.9c0,1.1,0.9,1.9,1.9,1.9C298.2,108.2,299,107.3,299,106.2"/>
	<path d="M212.3,333.2c0-1.1-0.9-1.9-1.9-1.9c-1.1,0-1.9,0.9-1.9,1.9c0,1.1,0.9,1.9,1.9,1.9C211.5,335.1,212.3,334.2,212.3,333.2"/>
	<path d="M232.1,326.8c0-1.1-0.9-1.9-1.9-1.9c-1.1,0-1.9,0.9-1.9,1.9c0,1.1,0.9,1.9,1.9,1.9C231.2,328.7,232.1,327.8,232.1,326.8"/>
	<path d="M249.6,318.4c0-1.1-0.9-1.9-1.9-1.9c-1.1,0-1.9,0.9-1.9,1.9c0,1.1,0.9,1.9,1.9,1.9C248.7,320.3,249.6,319.5,249.6,318.4"/>
	<path d="M309.1,119.9c0-1.1-0.9-1.9-1.9-1.9c-1.1,0-1.9,0.9-1.9,1.9c0,1.1,0.9,1.9,1.9,1.9C308.2,121.8,309.1,121,309.1,119.9"/>
	<path d="M284.2,144.4c0-1.1-0.9-1.9-1.9-1.9c-1.1,0-1.9,0.9-1.9,1.9c0,1.1,0.9,1.9,1.9,1.9C283.4,146.4,284.2,145.5,284.2,144.4"/>
	<path d="M145.4,129c0-1.1-0.9-1.9-1.9-1.9c-1.1,0-1.9,0.9-1.9,1.9c0,1.1,0.9,1.9,1.9,1.9C144.5,130.9,145.4,130,145.4,129"/>
	<path d="M124.3,130.1c0-1.1-0.9-1.9-1.9-1.9c-1.1,0-1.9,0.9-1.9,1.9c0,1.1,0.9,1.9,1.9,1.9C123.4,132,124.3,131.2,124.3,130.1"/>
	<path d="M227.3,57.1c0-1.1-0.9-1.9-1.9-1.9c-1.1,0-1.9,0.9-1.9,1.9c0,1.1,0.9,1.9,1.9,1.9C226.4,59,227.3,58.1,227.3,57.1"/>
	<path d="M105.6,125.2c0-1.1-0.9-1.9-1.9-1.9c-1.1,0-1.9,0.9-1.9,1.9c0,1.1,0.9,1.9,1.9,1.9C104.7,127.1,105.6,126.3,105.6,125.2"/>
	<path d="M138.4,143.8c0-1.1-0.9-1.9-1.9-1.9c-1.1,0-1.9,0.9-1.9,1.9c0,1.1,0.9,1.9,1.9,1.9C137.5,145.8,138.4,144.9,138.4,143.8"/>
	<path d="M132.6,166c0-1.1-0.9-1.9-1.9-1.9s-1.9,0.9-1.9,1.9c0,1.1,0.9,1.9,1.9,1.9S132.6,167.1,132.6,166"/>
	<path d="M132,113.5c0-1.1-0.9-1.9-1.9-1.9c-1.1,0-1.9,0.9-1.9,1.9c0,1.1,0.9,1.9,1.9,1.9C131.1,115.4,132,114.5,132,113.5"/>
	<path d="M193.7,53.8c0-1.1-0.9-1.9-1.9-1.9c-1.1,0-1.9,0.9-1.9,1.9c0,1.1,0.9,1.9,1.9,1.9C192.8,55.7,193.7,54.9,193.7,53.8"/>
	<path d="M152.7,278c0-1.1-0.9-1.9-1.9-1.9s-1.9,0.9-1.9,1.9c0,1.1,0.9,1.9,1.9,1.9S152.7,279.1,152.7,278"/>
	<path d="M122.5,149.9c0-1.1-0.9-1.9-1.9-1.9c-1.1,0-1.9,0.9-1.9,1.9c0,1.1,0.9,1.9,1.9,1.9C121.6,151.9,122.5,151,122.5,149.9"/>
	<path d="M197.4,34.9c0-1.1-0.9-1.9-1.9-1.9c-1.1,0-1.9,0.9-1.9,1.9c0,1.1,0.9,1.9,1.9,1.9C196.5,36.8,197.4,36,197.4,34.9"/>
	<path d="M155.6,295.5c0-1.1-0.9-1.9-1.9-1.9c-1.1,0-1.9,0.9-1.9,1.9c0,1.1,0.9,1.9,1.9,1.9C154.7,297.4,155.6,296.5,155.6,295.5"/>
	<path d="M106.5,142.1c0-1.1-0.9-1.9-1.9-1.9c-1.1,0-1.9,0.9-1.9,1.9c0,1.1,0.9,1.9,1.9,1.9C105.6,144.1,106.5,143.2,106.5,142.1"/>
	<path d="M242.6,65.8c0-1.1-0.9-1.9-1.9-1.9c-1.1,0-1.9,0.9-1.9,1.9c0,1.1,0.9,1.9,1.9,1.9C241.8,67.8,242.6,66.9,242.6,65.8"/>
	<path d="M176.1,290.5c0-1.1-0.9-1.9-1.9-1.9c-1.1,0-1.9,0.9-1.9,1.9c0,1.1,0.9,1.9,1.9,1.9C175.3,292.5,176.1,291.6,176.1,290.5"/>
	<path d="M114.8,110.6c0-1.1-0.9-1.9-1.9-1.9c-1.1,0-1.9,0.9-1.9,1.9c0,1.1,0.9,1.9,1.9,1.9C113.9,112.5,114.8,111.7,114.8,110.6"/>
	<path d="M210.5,68.1c0-1.1-0.9-1.9-1.9-1.9c-1.1,0-1.9,0.9-1.9,1.9c0,1.1,0.9,1.9,1.9,1.9C209.7,70.1,210.5,69.2,210.5,68.1"/>
	<path d="M85.5,66.7c0-1.1-0.9-1.9-1.9-1.9c-1.1,0-1.9,0.9-1.9,1.9c0,1.1,0.9,1.9,1.9,1.9C84.6,68.7,85.5,67.8,85.5,66.7"/>
	<path d="M172.9,64.2c0-1.1-0.9-1.9-1.9-1.9c-1.1,0-1.9,0.9-1.9,1.9c0,1.1,0.9,1.9,1.9,1.9C172,66.1,172.9,65.2,172.9,64.2"/>
	<path d="M17.7,148.2c0-1.1-0.9-1.9-1.9-1.9c-1.1,0-1.9,0.9-1.9,1.9c0,1.1,0.9,1.9,1.9,1.9C16.8,150.2,17.7,149.3,17.7,148.2"/>
	<path d="M155.7,71.8c0-1.1-0.9-1.9-1.9-1.9c-1.1,0-1.9,0.9-1.9,1.9c0,1.1,0.9,1.9,1.9,1.9C154.8,73.8,155.7,72.9,155.7,71.8"/>
	<path d="M137.8,76.1c0-1.1-0.9-1.9-1.9-1.9c-1.1,0-1.9,0.9-1.9,1.9c0,1.1,0.9,1.9,1.9,1.9C136.9,78.1,137.8,77.2,137.8,76.1"/>
	<path d="M90.1,166.2c0-1.1-0.9-1.9-1.9-1.9c-1.1,0-1.9,0.9-1.9,1.9c0,1.1,0.9,1.9,1.9,1.9C89.2,168.2,90.1,167.3,90.1,166.2"/>
	<path d="M226.1,75.2c0-1.1-0.9-1.9-1.9-1.9c-1.1,0-1.9,0.9-1.9,1.9c0,1.1,0.9,1.9,1.9,1.9C225.2,77.1,226.1,76.2,226.1,75.2"/>
	<path d="M63.1,228.5c0-1.1-0.9-1.9-1.9-1.9c-1.1,0-1.9,0.9-1.9,1.9c0,1.1,0.9,1.9,1.9,1.9C62.2,230.4,63.1,229.5,63.1,228.5"/>
	<path d="M55.3,177.7c0-1.1-0.9-1.9-1.9-1.9c-1.1,0-1.9,0.9-1.9,1.9c0,1.1,0.9,1.9,1.9,1.9C54.4,179.7,55.3,178.8,55.3,177.7"/>
	<path d="M75.7,180.6c0-1.1-0.9-1.9-1.9-1.9c-1.1,0-1.9,0.9-1.9,1.9c0,1.1,0.9,1.9,1.9,1.9C74.8,182.6,75.7,181.7,75.7,180.6"/>
	<path d="M28,231.9c0-1.1-0.9-1.9-1.9-1.9s-1.9,0.9-1.9,1.9c0,1.1,0.9,1.9,1.9,1.9S28,233,28,231.9"/>
	<path d="M72.1,163c0-1.1-0.9-1.9-1.9-1.9c-1.1,0-1.9,0.9-1.9,1.9c0,1.1,0.9,1.9,1.9,1.9C71.2,164.9,72.1,164.1,72.1,163"/>
	<path d="M125.9,57.9c0-1.1-0.9-1.9-1.9-1.9c-1.1,0-1.9,0.9-1.9,1.9c0,1.1,0.9,1.9,1.9,1.9C125.1,59.8,125.9,58.9,125.9,57.9"/>
	<path d="M24.7,198.9c0-1.1-0.9-1.9-1.9-1.9c-1.1,0-1.9,0.9-1.9,1.9c0,1.1,0.9,1.9,1.9,1.9C23.8,200.8,24.7,200,24.7,198.9"/>
	<path d="M51.6,75.8c0-1.1-0.9-1.9-1.9-1.9c-1.1,0-1.9,0.9-1.9,1.9c0,1.1,0.9,1.9,1.9,1.9C50.8,77.8,51.6,76.9,51.6,75.8"/>
	<path d="M97.8,181.2c0-1.1-0.9-1.9-1.9-1.9c-1.1,0-1.9,0.9-1.9,1.9c0,1.1,0.9,1.9,1.9,1.9C97,183.1,97.8,182.2,97.8,181.2"/>
	<path d="M86.1,195.7c0-1.1-0.9-1.9-1.9-1.9c-1.1,0-1.9,0.9-1.9,1.9c0,1.1,0.9,1.9,1.9,1.9C85.2,197.6,86.1,196.8,86.1,195.7"/>
	<path d="M166.3,14.2c0-1.1-0.9-1.9-1.9-1.9c-1.1,0-1.9,0.9-1.9,1.9c0,1.1,0.9,1.9,1.9,1.9C165.5,16.2,166.3,15.3,166.3,14.2"/>
	<path d="M147.2,18.1c0-1.1-0.9-1.9-1.9-1.9c-1.1,0-1.9,0.9-1.9,1.9c0,1.1,0.9,1.9,1.9,1.9C146.4,20,147.2,19.1,147.2,18.1"/>
	<path d="M128,252.8c0-1.1-0.9-1.9-1.9-1.9c-1.1,0-1.9,0.9-1.9,1.9c0,1.1,0.9,1.9,1.9,1.9C127.2,254.7,128,253.9,128,252.8"/>
	<path d="M141.7,37.3c0-1.1-0.9-1.9-1.9-1.9c-1.1,0-1.9,0.9-1.9,1.9c0,1.1,0.9,1.9,1.9,1.9C140.9,39.3,141.7,38.4,141.7,37.3"/>
	<path d="M159.3,32.2c0-1.1-0.9-1.9-1.9-1.9c-1.1,0-1.9,0.9-1.9,1.9c0,1.1,0.9,1.9,1.9,1.9C158.4,34.2,159.3,33.3,159.3,32.2"/>
	<path d="M64.5,125.5c0-1.1-0.9-1.9-1.9-1.9c-1.1,0-1.9,0.9-1.9,1.9c0,1.1,0.9,1.9,1.9,1.9C63.7,127.4,64.5,126.5,64.5,125.5"/>
	<path d="M176.3,44.7c0-1.1-0.9-1.9-1.9-1.9c-1.1,0-1.9,0.9-1.9,1.9c0,1.1,0.9,1.9,1.9,1.9C175.4,46.6,176.3,45.7,176.3,44.7"/>
	<path d="M178.1,27.2c0-1.1-0.9-1.9-1.9-1.9c-1.1,0-1.9,0.9-1.9,1.9c0,1.1,0.9,1.9,1.9,1.9C177.3,29.1,178.1,28.2,178.1,27.2"/>
	<path d="M295.9,178.5c0-1.1-0.9-1.9-1.9-1.9c-1.1,0-1.9,0.9-1.9,1.9c0,1.1,0.9,1.9,1.9,1.9C295,180.4,295.9,179.6,295.9,178.5"/>
	<path d="M87.9,89.8c0-1.1-0.9-1.9-1.9-1.9c-1.1,0-1.9,0.9-1.9,1.9c0,1.1,0.9,1.9,1.9,1.9C87.1,91.8,87.9,90.9,87.9,89.8"/>
	<path d="M199.9,319.2c0-1.1-0.9-1.9-1.9-1.9c-1.1,0-1.9,0.9-1.9,1.9c0,1.1,0.9,1.9,1.9,1.9C199.1,321.2,199.9,320.3,199.9,319.2"/>
	<path d="M119.2,73.8c0-1.1-0.9-1.9-1.9-1.9c-1.1,0-1.9,0.9-1.9,1.9c0,1.1,0.9,1.9,1.9,1.9C118.3,75.8,119.2,74.9,119.2,73.8"/>
	<path d="M53.7,111.4c0-1.1-0.9-1.9-1.9-1.9c-1.1,0-1.9,0.9-1.9,1.9c0,1.1,0.9,1.9,1.9,1.9C52.9,113.4,53.7,112.5,53.7,111.4"/>
	<path d="M213.2,240.7c0-1.1-0.9-1.9-1.9-1.9c-1.1,0-1.9,0.9-1.9,1.9c0,1.1,0.9,1.9,1.9,1.9C212.3,242.6,213.2,241.8,213.2,240.7"/>
	<path d="M73.9,244.9c0-1.1-0.9-1.9-1.9-1.9c-1.1,0-1.9,0.9-1.9,1.9c0,1.1,0.9,1.9,1.9,1.9C73,246.8,73.9,245.9,73.9,244.9"/>
	<path d="M232.7,307.2c0-1.1-0.9-1.9-1.9-1.9c-1.1,0-1.9,0.9-1.9,1.9c0,1.1,0.9,1.9,1.9,1.9C231.8,309.1,232.7,308.3,232.7,307.2"/>
	<path d="M209.7,19.5c0-1.1-0.9-1.9-1.9-1.9c-1.1,0-1.9,0.9-1.9,1.9c0,1.1,0.9,1.9,1.9,1.9C208.9,21.4,209.7,20.6,209.7,19.5"/>
	<path d="M77.4,114c0-1.1-0.9-1.9-1.9-1.9c-1.1,0-1.9,0.9-1.9,1.9c0,1.1,0.9,1.9,1.9,1.9C76.5,115.9,77.4,115,77.4,114"/>
	<path d="M217.2,314.5c0-1.1-0.9-1.9-1.9-1.9c-1.1,0-1.9,0.9-1.9,1.9c0,1.1,0.9,1.9,1.9,1.9C216.3,316.4,217.2,315.5,217.2,314.5"/>
	<path d="M124.2,93.9c0-1.1-0.9-1.9-1.9-1.9c-1.1,0-1.9,0.9-1.9,1.9c0,1.1,0.9,1.9,1.9,1.9C123.3,95.8,124.2,94.9,124.2,93.9"/>
	<path d="M56.2,249.4c0-1.1-0.9-1.9-1.9-1.9c-1.1,0-1.9,0.9-1.9,1.9c0,1.1,0.9,1.9,1.9,1.9C55.3,251.3,56.2,250.4,56.2,249.4"/>
	<path d="M108.3,161.9c0-1.1-0.9-1.9-1.9-1.9c-1.1,0-1.9,0.9-1.9,1.9c0,1.1,0.9,1.9,1.9,1.9C107.4,163.8,108.3,162.9,108.3,161.9"/>
	<path d="M95.5,212.1c0-1.1-0.9-1.9-1.9-1.9c-1.1,0-1.9,0.9-1.9,1.9c0,1.1,0.9,1.9,1.9,1.9C94.6,214,95.5,213.2,95.5,212.1"/>
	<path d="M210.1,50.6c0-1.1-0.9-1.9-1.9-1.9c-1.1,0-1.9,0.9-1.9,1.9c0,1.1,0.9,1.9,1.9,1.9C209.2,52.5,210.1,51.7,210.1,50.6"/>
	<path d="M72.5,98.2c0-1.1-0.9-1.9-1.9-1.9c-1.1,0-1.9,0.9-1.9,1.9c0,1.1,0.9,1.9,1.9,1.9C71.6,100.2,72.5,99.3,72.5,98.2"/>
	<path d="M215.9,34.9c0-1.1-0.9-1.9-1.9-1.9c-1.1,0-1.9,0.9-1.9,1.9c0,1.1,0.9,1.9,1.9,1.9C215,36.8,215.9,35.9,215.9,34.9"/>
	<path d="M56.1,94c0-1.1-0.9-1.9-1.9-1.9c-1.1,0-1.9,0.9-1.9,1.9c0,1.1,0.9,1.9,1.9,1.9C55.2,96,56.1,95.1,56.1,94"/>
	<path d="M247.4,31.6c0-1.1-0.9-1.9-1.9-1.9c-1.1,0-1.9,0.9-1.9,1.9c0,1.1,0.9,1.9,1.9,1.9C246.6,33.6,247.4,32.7,247.4,31.6"/>
	<path d="M229.5,22.9c0-1.1-0.9-1.9-1.9-1.9c-1.1,0-1.9,0.9-1.9,1.9c0,1.1,0.9,1.9,1.9,1.9C228.7,24.9,229.5,24,229.5,22.9"/>
	<path d="M232.8,41.1c0-1.1-0.9-1.9-1.9-1.9c-1.1,0-1.9,0.9-1.9,1.9c0,1.1,0.9,1.9,1.9,1.9C231.9,43,232.8,42.1,232.8,41.1"/>
	<path d="M248.7,49.6c0-1.1-0.9-1.9-1.9-1.9c-1.1,0-1.9,0.9-1.9,1.9c0,1.1,0.9,1.9,1.9,1.9C247.9,51.6,248.7,50.7,248.7,49.6"/>
	<path d="M136.1,310.9c0-1.1-0.9-1.9-1.9-1.9c-1.1,0-1.9,0.9-1.9,1.9c0,1.1,0.9,1.9,1.9,1.9C135.2,312.8,136.1,312,136.1,310.9"/>
	<path d="M154,316.1c0-1.1-0.9-1.9-1.9-1.9c-1.1,0-1.9,0.9-1.9,1.9c0,1.1,0.9,1.9,1.9,1.9C153.2,318,154,317.1,154,316.1"/>
	<path d="M79.7,50.7c0-1.1-0.9-1.9-1.9-1.9c-1.1,0-1.9,0.9-1.9,1.9c0,1.1,0.9,1.9,1.9,1.9C78.8,52.6,79.7,51.8,79.7,50.7"/>
	<path d="M311.6,91.3c0-1.1-0.9-1.9-1.9-1.9c-1.1,0-1.9,0.9-1.9,1.9c0,1.1,0.9,1.9,1.9,1.9C310.8,93.2,311.6,92.3,311.6,91.3"/>
	<path d="M168.6,307.8c0-1.1-0.9-1.9-1.9-1.9c-1.1,0-1.9,0.9-1.9,1.9c0,1.1,0.9,1.9,1.9,1.9C167.7,309.8,168.6,308.9,168.6,307.8"/>
	<path d="M190,336c0-1.1-0.9-1.9-1.9-1.9c-1.1,0-1.9,0.9-1.9,1.9c0,1.1,0.9,1.9,1.9,1.9C189.1,338,190,337.1,190,336"/>
	<path d="M169.6,334.8c0-1.1-0.9-1.9-1.9-1.9c-1.1,0-1.9,0.9-1.9,1.9c0,1.1,0.9,1.9,1.9,1.9C168.8,336.8,169.6,335.9,169.6,334.8"/>
	<path d="M70.5,143.2c0-1.1-0.9-1.9-1.9-1.9c-1.1,0-1.9,0.9-1.9,1.9c0,1.1,0.9,1.9,1.9,1.9C69.6,145.2,70.5,144.3,70.5,143.2"/>
	<path d="M86.4,129.4c0-1.1-0.9-1.9-1.9-1.9c-1.1,0-1.9,0.9-1.9,1.9c0,1.1,0.9,1.9,1.9,1.9C85.6,131.4,86.4,130.5,86.4,129.4"/>
	<path d="M140.2,185.7c0-1.1-0.9-1.9-1.9-1.9c-1.1,0-1.9,0.9-1.9,1.9c0,1.1,0.9,1.9,1.9,1.9C139.4,187.6,140.2,186.7,140.2,185.7"/>
	<path d="M64.7,62c0-1.1-0.9-1.9-1.9-1.9s-1.9,0.9-1.9,1.9c0,1.1,0.9,1.9,1.9,1.9S64.7,63.1,64.7,62"/>
	<path d="M119.4,178.1c0-1.1-0.9-1.9-1.9-1.9c-1.1,0-1.9,0.9-1.9,1.9c0,1.1,0.9,1.9,1.9,1.9C118.5,180,119.4,179.2,119.4,178.1"/>
	<path d="M126.6,196.2c0-1.1-0.9-1.9-1.9-1.9c-1.1,0-1.9,0.9-1.9,1.9c0,1.1,0.9,1.9,1.9,1.9C125.7,198.2,126.6,197.3,126.6,196.2"/>
	<path d="M170.4,104.5c0-1.1-0.9-1.9-1.9-1.9c-1.1,0-1.9,0.9-1.9,1.9c0,1.1,0.9,1.9,1.9,1.9C169.5,106.4,170.4,105.5,170.4,104.5"/>
	<path d="M94.4,108.7c0-1.1-0.9-1.9-1.9-1.9c-1.1,0-1.9,0.9-1.9,1.9c0,1.1,0.9,1.9,1.9,1.9C93.6,110.6,94.4,109.8,94.4,108.7"/>
	<path d="M267.5,41.4c0-1.1-0.9-1.9-1.9-1.9c-1.1,0-1.9,0.9-1.9,1.9c0,1.1,0.9,1.9,1.9,1.9C266.6,43.3,267.5,42.5,267.5,41.4"/>
	<path d="M301.3,279.7c0-1.1-0.9-1.9-1.9-1.9c-1.1,0-1.9,0.9-1.9,1.9c0,1.1,0.9,1.9,1.9,1.9C300.4,281.7,301.3,280.8,301.3,279.7"/>
	<path d="M191,235.6c0-1.1-0.9-1.9-1.9-1.9c-1.1,0-1.9,0.9-1.9,1.9c0,1.1,0.9,1.9,1.9,1.9C190.1,237.5,191,236.7,191,235.6"/>
	<path d="M258.7,77.5c0-1.1-0.9-1.9-1.9-1.9c-1.1,0-1.9,0.9-1.9,1.9c0,1.1,0.9,1.9,1.9,1.9C257.8,79.5,258.7,78.6,258.7,77.5"/>
	<path d="M176.4,81.9c0-1.1-0.9-1.9-1.9-1.9c-1.1,0-1.9,0.9-1.9,1.9c0,1.1,0.9,1.9,1.9,1.9C175.5,83.9,176.4,83,176.4,81.9"/>
	<path d="M169.9,168.5c0-1.1-0.9-1.9-1.9-1.9c-1.1,0-1.9,0.9-1.9,1.9c0,1.1,0.9,1.9,1.9,1.9C169,170.5,169.9,169.6,169.9,168.5"/>
	<path d="M208,268.4c0-1.1-0.9-1.9-1.9-1.9c-1.1,0-1.9,0.9-1.9,1.9c0,1.1,0.9,1.9,1.9,1.9C207.1,270.3,208,269.5,208,268.4"/>
	<path d="M288.6,162.5c0-1.1-0.9-1.9-1.9-1.9c-1.1,0-1.9,0.9-1.9,1.9c0,1.1,0.9,1.9,1.9,1.9C287.7,164.4,288.6,163.6,288.6,162.5"/>
	<path d="M218.8,282.4c0-1.1-0.9-1.9-1.9-1.9c-1.1,0-1.9,0.9-1.9,1.9c0,1.1,0.9,1.9,1.9,1.9C218,284.3,218.8,283.5,218.8,282.4"/>
	<path d="M321.6,159.5c0-1.1-0.9-1.9-1.9-1.9c-1.1,0-1.9,0.9-1.9,1.9c0,1.1,0.9,1.9,1.9,1.9C320.8,161.4,321.6,160.5,321.6,159.5"/>
	<path d="M337.8,180.7c0-1.1-0.9-1.9-1.9-1.9c-1.1,0-1.9,0.9-1.9,1.9c0,1.1,0.9,1.9,1.9,1.9C336.9,182.6,337.8,181.8,337.8,180.7"/>
	<path d="M257,98c0-1.1-0.9-1.9-1.9-1.9c-1.1,0-1.9,0.9-1.9,1.9c0,1.1,0.9,1.9,1.9,1.9C256.2,99.9,257,99,257,98"/>
	<path d="M238,135.4c0-1.1-0.9-1.9-1.9-1.9c-1.1,0-1.9,0.9-1.9,1.9c0,1.1,0.9,1.9,1.9,1.9C237.1,137.3,238,136.4,238,135.4"/>
	<path d="M306.6,194.9c0-1.1-0.9-1.9-1.9-1.9c-1.1,0-1.9,0.9-1.9,1.9c0,1.1,0.9,1.9,1.9,1.9C305.7,196.9,306.6,196,306.6,194.9"/>
	<path d="M313.7,174.5c0-1.1-0.9-1.9-1.9-1.9c-1.1,0-1.9,0.9-1.9,1.9c0,1.1,0.9,1.9,1.9,1.9C312.8,176.4,313.7,175.5,313.7,174.5"/>
	<path d="M203.4,123c0-1.1-0.9-1.9-1.9-1.9c-1.1,0-1.9,0.9-1.9,1.9c0,1.1,0.9,1.9,1.9,1.9C202.6,125,203.4,124.1,203.4,123"/>
	<path d="M336.7,202.3c0-1.1-0.9-1.9-1.9-1.9c-1.1,0-1.9,0.9-1.9,1.9c0,1.1,0.9,1.9,1.9,1.9C335.8,204.2,336.7,203.3,336.7,202.3"/>
	<path d="M269.7,174.2c0-1.1-0.9-1.9-1.9-1.9c-1.1,0-1.9,0.9-1.9,1.9c0,1.1,0.9,1.9,1.9,1.9C268.8,176.1,269.7,175.2,269.7,174.2"/>
	<path d="M279.7,187.5c0-1.1-0.9-1.9-1.9-1.9c-1.1,0-1.9,0.9-1.9,1.9c0,1.1,0.9,1.9,1.9,1.9C278.9,189.5,279.7,188.6,279.7,187.5"/>
	<path d="M334.4,143.1c0-1.1-0.9-1.9-1.9-1.9c-1.1,0-1.9,0.9-1.9,1.9c0,1.1,0.9,1.9,1.9,1.9C333.6,145,334.4,144.2,334.4,143.1"/>
	<path d="M316.7,140c0-1.1-0.9-1.9-1.9-1.9c-1.1,0-1.9,0.9-1.9,1.9c0,1.1,0.9,1.9,1.9,1.9C315.8,142,316.7,141.1,316.7,140"/>
	<path d="M15.8,183.3c0-1.1-0.9-1.9-1.9-1.9s-1.9,0.9-1.9,1.9c0,1.1,0.9,1.9,1.9,1.9S15.8,184.4,15.8,183.3"/>
	<path d="M134.1,329.4c0-1.1-0.9-1.9-1.9-1.9c-1.1,0-1.9,0.9-1.9,1.9c0,1.1,0.9,1.9,1.9,1.9C133.3,331.4,134.1,330.5,134.1,329.4"/>
	<path d="M98.9,296c0-1.1-0.9-1.9-1.9-1.9c-1.1,0-1.9,0.9-1.9,1.9c0,1.1,0.9,1.9,1.9,1.9C98,297.9,98.9,297.1,98.9,296"/>
	<path d="M58,283.7c0-1.1-0.9-1.9-1.9-1.9c-1.1,0-1.9,0.9-1.9,1.9c0,1.1,0.9,1.9,1.9,1.9C57.1,285.7,58,284.8,58,283.7"/>
	<path d="M161.6,142.1c0-1.1-0.9-1.9-1.9-1.9c-1.1,0-1.9,0.9-1.9,1.9c0,1.1,0.9,1.9,1.9,1.9C160.8,144,161.6,143.1,161.6,142.1"/>
	<path d="M284.2,54.6c0-1.1-0.9-1.9-1.9-1.9c-1.1,0-1.9,0.9-1.9,1.9c0,1.1,0.9,1.9,1.9,1.9C283.4,56.6,284.2,55.7,284.2,54.6"/>
	<path d="M320.3,210.9c0-1.1-0.9-1.9-1.9-1.9c-1.1,0-1.9,0.9-1.9,1.9c0,1.1,0.9,1.9,1.9,1.9C319.4,212.8,320.3,211.9,320.3,210.9"/>
	<path d="M250.8,187.6c0-1.1-0.9-1.9-1.9-1.9c-1.1,0-1.9,0.9-1.9,1.9c0,1.1,0.9,1.9,1.9,1.9C250,189.6,250.8,188.7,250.8,187.6"/>
	<path d="M312.6,230.5c0-1.1-0.9-1.9-1.9-1.9c-1.1,0-1.9,0.9-1.9,1.9c0,1.1,0.9,1.9,1.9,1.9C311.8,232.4,312.6,231.6,312.6,230.5"/>
	<path d="M226.4,205.4c0-1.1-0.9-1.9-1.9-1.9c-1.1,0-1.9,0.9-1.9,1.9c0,1.1,0.9,1.9,1.9,1.9C225.6,207.4,226.4,206.5,226.4,205.4"/>
	<path d="M302.7,215.4c0-1.1-0.9-1.9-1.9-1.9c-1.1,0-1.9,0.9-1.9,1.9c0,1.1,0.9,1.9,1.9,1.9C301.9,217.4,302.7,216.5,302.7,215.4"/>
	<path d="M227.1,172.9c0-1.1-0.9-1.9-1.9-1.9c-1.1,0-1.9,0.9-1.9,1.9c0,1.1,0.9,1.9,1.9,1.9C226.2,174.9,227.1,174,227.1,172.9"/>
	<path d="M331.4,224.4c0-1.1-0.9-1.9-1.9-1.9c-1.1,0-1.9,0.9-1.9,1.9c0,1.1,0.9,1.9,1.9,1.9C330.5,226.3,331.4,225.5,331.4,224.4"/>
	<path d="M216.7,189.3c0-1.1-0.9-1.9-1.9-1.9c-1.1,0-1.9,0.9-1.9,1.9c0,1.1,0.9,1.9,1.9,1.9C215.8,191.2,216.7,190.4,216.7,189.3"/>
	<path d="M289.5,201.8c0-1.1-0.9-1.9-1.9-1.9c-1.1,0-1.9,0.9-1.9,1.9c0,1.1,0.9,1.9,1.9,1.9C288.6,203.8,289.5,202.9,289.5,201.8"/>
	<path d="M135.2,272.3c0-1.1-0.9-1.9-1.9-1.9c-1.1,0-1.9,0.9-1.9,1.9c0,1.1,0.9,1.9,1.9,1.9C134.4,274.3,135.2,273.4,135.2,272.3"/>
	<path d="M328.4,124.9c0-1.1-0.9-1.9-1.9-1.9c-1.1,0-1.9,0.9-1.9,1.9c0,1.1,0.9,1.9,1.9,1.9C327.5,126.8,328.4,125.9,328.4,124.9"/>
	<path d="M199.2,189.3c0-1.1-0.9-1.9-1.9-1.9c-1.1,0-1.9,0.9-1.9,1.9c0,1.1,0.9,1.9,1.9,1.9C198.3,191.2,199.2,190.3,199.2,189.3"/>
	<path d="M208.6,204.4c0-1.1-0.9-1.9-1.9-1.9c-1.1,0-1.9,0.9-1.9,1.9c0,1.1,0.9,1.9,1.9,1.9C207.8,206.3,208.6,205.5,208.6,204.4"/>
	<path d="M163.6,255.4c0-1.1-0.9-1.9-1.9-1.9c-1.1,0-1.9,0.9-1.9,1.9c0,1.1,0.9,1.9,1.9,1.9C162.8,257.3,163.6,256.5,163.6,255.4"/>
	<path d="M185.8,270.3c0-1.1-0.9-1.9-1.9-1.9c-1.1,0-1.9,0.9-1.9,1.9c0,1.1,0.9,1.9,1.9,1.9C185,272.3,185.8,271.4,185.8,270.3"/>
	<path d="M268.4,157c0-1.1-0.9-1.9-1.9-1.9c-1.1,0-1.9,0.9-1.9,1.9c0,1.1,0.9,1.9,1.9,1.9C267.5,158.9,268.4,158.1,268.4,157"/>
	<path d="M126.9,232.2c0-1.1-0.9-1.9-1.9-1.9c-1.1,0-1.9,0.9-1.9,1.9c0,1.1,0.9,1.9,1.9,1.9C126,234.2,126.9,233.3,126.9,232.2"/>
	<path d="M323.4,189.6c0-1.1-0.9-1.9-1.9-1.9c-1.1,0-1.9,0.9-1.9,1.9c0,1.1,0.9,1.9,1.9,1.9C322.5,191.5,323.4,190.6,323.4,189.6"/>
	<path d="M95.3,40.1c0-1.1-0.9-1.9-1.9-1.9c-1.1,0-1.9,0.9-1.9,1.9c0,1.1,0.9,1.9,1.9,1.9C94.5,42.1,95.3,41.2,95.3,40.1"/>
	<path d="M190.1,303.4c0-1.1-0.9-1.9-1.9-1.9c-1.1,0-1.9,0.9-1.9,1.9c0,1.1,0.9,1.9,1.9,1.9C189.2,305.4,190.1,304.5,190.1,303.4"/>
	<path d="M292.4,86.7c0-1.1-0.9-1.9-1.9-1.9c-1.1,0-1.9,0.9-1.9,1.9c0,1.1,0.9,1.9,1.9,1.9C291.5,88.7,292.4,87.8,292.4,86.7"/>
	<path d="M223.9,156.2c0-1.1-0.9-1.9-1.9-1.9c-1.1,0-1.9,0.9-1.9,1.9c0,1.1,0.9,1.9,1.9,1.9C223,158.2,223.9,157.3,223.9,156.2"/>
	<path d="M243.6,202.8c0-1.1-0.9-1.9-1.9-1.9c-1.1,0-1.9,0.9-1.9,1.9c0,1.1,0.9,1.9,1.9,1.9C242.8,204.7,243.6,203.9,243.6,202.8"/>
	<path d="M233.8,188c0-1.1-0.9-1.9-1.9-1.9c-1.1,0-1.9,0.9-1.9,1.9c0,1.1,0.9,1.9,1.9,1.9C232.9,189.9,233.8,189.1,233.8,188"/>
	<path d="M193.6,73.2c0-1.1-0.9-1.9-1.9-1.9c-1.1,0-1.9,0.9-1.9,1.9c0,1.1,0.9,1.9,1.9,1.9C192.7,75.1,193.6,74.3,193.6,73.2"/>
	<path d="M195.8,165.8c0-1.1-0.9-1.9-1.9-1.9c-1.1,0-1.9,0.9-1.9,1.9c0,1.1,0.9,1.9,1.9,1.9C194.9,167.8,195.8,166.9,195.8,165.8"/>
	<path d="M303.8,155.1c0-1.1-0.9-1.9-1.9-1.9c-1.1,0-1.9,0.9-1.9,1.9c0,1.1,0.9,1.9,1.9,1.9C303,157,303.8,156.1,303.8,155.1"/>
	<path d="M239.3,159.6c0-1.1-0.9-1.9-1.9-1.9c-1.1,0-1.9,0.9-1.9,1.9c0,1.1,0.9,1.9,1.9,1.9C238.5,161.5,239.3,160.6,239.3,159.6"/>
	<path d="M75.7,211.4c0-1.1-0.9-1.9-1.9-1.9c-1.1,0-1.9,0.9-1.9,1.9c0,1.1,0.9,1.9,1.9,1.9C74.8,213.3,75.7,212.5,75.7,211.4"/>
	<path d="M209.8,173.5c0-1.1-0.9-1.9-1.9-1.9c-1.1,0-1.9,0.9-1.9,1.9c0,1.1,0.9,1.9,1.9,1.9C208.9,175.4,209.8,174.6,209.8,173.5"/>
	<path d="M88.5,148c0-1.1-0.9-1.9-1.9-1.9c-1.1,0-1.9,0.9-1.9,1.9c0,1.1,0.9,1.9,1.9,1.9C87.6,150,88.5,149.1,88.5,148"/>
	<path d="M182,195.2c0-1.1-0.9-1.9-1.9-1.9c-1.1,0-1.9,0.9-1.9,1.9c0,1.1,0.9,1.9,1.9,1.9C181.2,197.2,182,196.3,182,195.2"/>
	<path d="M286,293c0-1.1-0.9-1.9-1.9-1.9c-1.1,0-1.9,0.9-1.9,1.9c0,1.1,0.9,1.9,1.9,1.9C285.1,295,286,294.1,286,293"/>
	<path d="M221.4,220.9c0-1.1-0.9-1.9-1.9-1.9c-1.1,0-1.9,0.9-1.9,1.9c0,1.1,0.9,1.9,1.9,1.9C220.6,222.8,221.4,222,221.4,220.9"/>
	<path d="M323.5,243.3c0-1.1-0.9-1.9-1.9-1.9c-1.1,0-1.9,0.9-1.9,1.9c0,1.1,0.9,1.9,1.9,1.9C322.6,245.2,323.5,244.4,323.5,243.3"/>
	<path d="M314.4,258.9c0-1.1-0.9-1.9-1.9-1.9c-1.1,0-1.9,0.9-1.9,1.9c0,1.1,0.9,1.9,1.9,1.9C313.5,260.8,314.4,260,314.4,258.9"/>
	<path d="M144.6,204.4c0-1.1-0.9-1.9-1.9-1.9c-1.1,0-1.9,0.9-1.9,1.9c0,1.1,0.9,1.9,1.9,1.9C143.7,206.3,144.6,205.5,144.6,204.4"/>
	<path d="M114.5,212.6c0-1.1-0.9-1.9-1.9-1.9c-1.1,0-1.9,0.9-1.9,1.9c0,1.1,0.9,1.9,1.9,1.9C113.6,214.5,114.5,213.6,114.5,212.6"/>
	<path d="M106.9,228.3c0-1.1-0.9-1.9-1.9-1.9c-1.1,0-1.9,0.9-1.9,1.9c0,1.1,0.9,1.9,1.9,1.9C106,230.3,106.9,229.4,106.9,228.3"/>
	<path d="M204.5,220.2c0-1.1-0.9-1.9-1.9-1.9c-1.1,0-1.9,0.9-1.9,1.9c0,1.1,0.9,1.9,1.9,1.9C203.7,222.2,204.5,221.3,204.5,220.2"/>
	<path d="M132.4,216.8c0-1.1-0.9-1.9-1.9-1.9c-1.1,0-1.9,0.9-1.9,1.9c0,1.1,0.9,1.9,1.9,1.9C131.5,218.7,132.4,217.9,132.4,216.8"/>
	<path d="M208.6,154.4c0-1.1-0.9-1.9-1.9-1.9c-1.1,0-1.9,0.9-1.9,1.9c0,1.1,0.9,1.9,1.9,1.9C207.7,156.3,208.6,155.5,208.6,154.4"/>
	<path d="M55.3,158.7c0-1.1-0.9-1.9-1.9-1.9c-1.1,0-1.9,0.9-1.9,1.9c0,1.1,0.9,1.9,1.9,1.9C54.4,160.6,55.3,159.7,55.3,158.7"/>
	<path d="M159.2,50.9c0-1.1-0.9-1.9-1.9-1.9c-1.1,0-1.9,0.9-1.9,1.9c0,1.1,0.9,1.9,1.9,1.9C158.3,52.8,159.2,52,159.2,50.9"/>
	<path d="M150.1,111.5c0-1.1-0.9-1.9-1.9-1.9c-1.1,0-1.9,0.9-1.9,1.9c0,1.1,0.9,1.9,1.9,1.9C149.3,113.5,150.1,112.6,150.1,111.5"/>
	<path d="M190.1,14c0-1.1-0.9-1.9-1.9-1.9c-1.1,0-1.9,0.9-1.9,1.9c0,1.1,0.9,1.9,1.9,1.9C189.2,15.9,190.1,15,190.1,14"/>
	<path d="M83.8,227.8c0-1.1-0.9-1.9-1.9-1.9c-1.1,0-1.9,0.9-1.9,1.9c0,1.1,0.9,1.9,1.9,1.9C82.9,229.7,83.8,228.8,83.8,227.8"/>
	<path d="M128.9,22.7c0-1.1-0.9-1.9-1.9-1.9c-1.1,0-1.9,0.9-1.9,1.9c0,1.1,0.9,1.9,1.9,1.9C128,24.7,128.9,23.8,128.9,22.7"/>
	<path d="M38.2,163.5c0-1.1-0.9-1.9-1.9-1.9c-1.1,0-1.9,0.9-1.9,1.9c0,1.1,0.9,1.9,1.9,1.9C37.3,165.4,38.2,164.6,38.2,163.5"/>
	<path d="M248.3,278.2c0-1.1-0.9-1.9-1.9-1.9c-1.1,0-1.9,0.9-1.9,1.9c0,1.1,0.9,1.9,1.9,1.9C247.4,280.1,248.3,279.2,248.3,278.2"/>
	<path d="M31,109.7c0-1.1-0.9-1.9-1.9-1.9c-1.1,0-1.9,0.9-1.9,1.9c0,1.1,0.9,1.9,1.9,1.9C30.1,111.6,31,110.7,31,109.7"/>
	<path d="M267.4,288c0-1.1-0.9-1.9-1.9-1.9c-1.1,0-1.9,0.9-1.9,1.9c0,1.1,0.9,1.9,1.9,1.9C266.6,290,267.4,289.1,267.4,288"/>
	<path d="M266.3,199.4c0-1.1-0.9-1.9-1.9-1.9c-1.1,0-1.9,0.9-1.9,1.9c0,1.1,0.9,1.9,1.9,1.9C265.4,201.4,266.3,200.5,266.3,199.4"/>
	<path d="M224.2,95.9c0-1.1-0.9-1.9-1.9-1.9c-1.1,0-1.9,0.9-1.9,1.9c0,1.1,0.9,1.9,1.9,1.9C223.3,97.8,224.2,96.9,224.2,95.9"/>
	<path d="M338.1,162.6c0-1.1-0.9-1.9-1.9-1.9c-1.1,0-1.9,0.9-1.9,1.9c0,1.1,0.9,1.9,1.9,1.9C337.2,164.6,338.1,163.7,338.1,162.6"/>
	<path d="M115.3,271.6c0-1.1-0.9-1.9-1.9-1.9c-1.1,0-1.9,0.9-1.9,1.9c0,1.1,0.9,1.9,1.9,1.9C114.4,273.5,115.3,272.6,115.3,271.6"/>
	<path d="M152.6,173.3c0-1.1-0.9-1.9-1.9-1.9c-1.1,0-1.9,0.9-1.9,1.9c0,1.1,0.9,1.9,1.9,1.9C151.7,175.2,152.6,174.3,152.6,173.3"/>
	<path d="M185.5,178.9c0-1.1-0.9-1.9-1.9-1.9c-1.1,0-1.9,0.9-1.9,1.9c0,1.1,0.9,1.9,1.9,1.9C184.6,180.8,185.5,179.9,185.5,178.9"/>
	<path d="M100.7,73.6c0-1.1-0.9-1.9-1.9-1.9c-1.1,0-1.9,0.9-1.9,1.9c0,1.1,0.9,1.9,1.9,1.9C99.8,75.6,100.7,74.7,100.7,73.6"/>
	<path d="M191.9,208.9c0-1.1-0.9-1.9-1.9-1.9c-1.1,0-1.9,0.9-1.9,1.9c0,1.1,0.9,1.9,1.9,1.9C191,210.8,191.9,209.9,191.9,208.9"/>
	<path d="M235.5,239.8c0-1.1-0.9-1.9-1.9-1.9c-1.1,0-1.9,0.9-1.9,1.9c0,1.1,0.9,1.9,1.9,1.9C234.6,241.8,235.5,240.9,235.5,239.8"/>
	<path d="M247.5,172.4c0-1.1-0.9-1.9-1.9-1.9s-1.9,0.9-1.9,1.9c0,1.1,0.9,1.9,1.9,1.9S247.5,173.4,247.5,172.4"/>
	<path d="M64.2,194.3c0-1.1-0.9-1.9-1.9-1.9s-1.9,0.9-1.9,1.9c0,1.1,0.9,1.9,1.9,1.9S64.2,195.4,64.2,194.3"/>
	<path d="M231.8,268.8c0-1.1-0.9-1.9-1.9-1.9c-1.1,0-1.9,0.9-1.9,1.9c0,1.1,0.9,1.9,1.9,1.9C230.9,270.8,231.8,269.9,231.8,268.8"/>
	<path d="M188.9,95.6c0-1.1-0.9-1.9-1.9-1.9s-1.9,0.9-1.9,1.9c0,1.1,0.9,1.9,1.9,1.9S188.9,96.7,188.9,95.6"/>
	<path d="M181,132.1c0-1.1-0.9-1.9-1.9-1.9c-1.1,0-1.9,0.9-1.9,1.9c0,1.1,0.9,1.9,1.9,1.9C180.1,134,181,133.2,181,132.1"/>
	<path d="M224.5,115.8c0-1.1-0.9-1.9-1.9-1.9c-1.1,0-1.9,0.9-1.9,1.9c0,1.1,0.9,1.9,1.9,1.9C223.6,117.7,224.5,116.8,224.5,115.8"/>
	<path d="M45.2,267.1c0-1.1-0.9-1.9-1.9-1.9c-1.1,0-1.9,0.9-1.9,1.9c0,1.1,0.9,1.9,1.9,1.9C44.3,269,45.2,268.1,45.2,267.1"/>
	<path d="M247.6,256.6c0-1.1-0.9-1.9-1.9-1.9c-1.1,0-1.9,0.9-1.9,1.9c0,1.1,0.9,1.9,1.9,1.9C246.7,258.5,247.6,257.7,247.6,256.6"/>
	<path d="M299.1,245c0-1.1-0.9-1.9-1.9-1.9c-1.1,0-1.9,0.9-1.9,1.9c0,1.1,0.9,1.9,1.9,1.9C298.2,247,299.1,246.1,299.1,245"/>
	<path d="M295.2,262.7c0-1.1-0.9-1.9-1.9-1.9c-1.1,0-1.9,0.9-1.9,1.9c0,1.1,0.9,1.9,1.9,1.9C294.3,264.6,295.2,263.8,295.2,262.7"/>
	<path d="M272.2,234.9c0-1.1-0.9-1.9-1.9-1.9c-1.1,0-1.9,0.9-1.9,1.9c0,1.1,0.9,1.9,1.9,1.9C271.3,236.8,272.2,236,272.2,234.9"/>
	<path d="M282.1,251.1c0-1.1-0.9-1.9-1.9-1.9c-1.1,0-1.9,0.9-1.9,1.9c0,1.1,0.9,1.9,1.9,1.9C281.2,253.1,282.1,252.2,282.1,251.1"/>
	<path d="M265.4,252.8c0-1.1-0.9-1.9-1.9-1.9c-1.1,0-1.9,0.9-1.9,1.9c0,1.1,0.9,1.9,1.9,1.9C264.6,254.7,265.4,253.8,265.4,252.8"/>
	<path d="M280.8,272.3c0-1.1-0.9-1.9-1.9-1.9c-1.1,0-1.9,0.9-1.9,1.9c0,1.1,0.9,1.9,1.9,1.9C280,274.2,280.8,273.4,280.8,272.3"/>
	<path d="M264.1,269.1c0-1.1-0.9-1.9-1.9-1.9c-1.1,0-1.9,0.9-1.9,1.9c0,1.1,0.9,1.9,1.9,1.9C263.2,271,264.1,270.2,264.1,269.1"/>
	<path d="M290,230.5c0-1.1-0.9-1.9-1.9-1.9c-1.1,0-1.9,0.9-1.9,1.9c0,1.1,0.9,1.9,1.9,1.9C289.2,232.5,290,231.6,290,230.5"/>
	<path d="M277.9,217.9c0-1.1-0.9-1.9-1.9-1.9c-1.1,0-1.9,0.9-1.9,1.9c0,1.1,0.9,1.9,1.9,1.9C277,219.8,277.9,219,277.9,217.9"/>
	<path d="M240.8,220.2c0-1.1-0.9-1.9-1.9-1.9c-1.1,0-1.9,0.9-1.9,1.9c0,1.1,0.9,1.9,1.9,1.9C239.9,222.1,240.8,221.2,240.8,220.2"/>
	<path d="M254.1,238.9c0-1.1-0.9-1.9-1.9-1.9c-1.1,0-1.9,0.9-1.9,1.9c0,1.1,0.9,1.9,1.9,1.9C253.2,240.8,254.1,240,254.1,238.9"/>
	<path d="M151.2,333.6c0-1.1-0.9-1.9-1.9-1.9c-1.1,0-1.9,0.9-1.9,1.9c0,1.1,0.9,1.9,1.9,1.9C150.3,335.6,151.2,334.7,151.2,333.6"/>
	<path d="M118,323.8c0-1.1-0.9-1.9-1.9-1.9c-1.1,0-1.9,0.9-1.9,1.9c0,1.1,0.9,1.9,1.9,1.9C117.2,325.7,118,324.8,118,323.8"/>
	<path d="M120.3,287.1c0-1.1-0.9-1.9-1.9-1.9c-1.1,0-1.9,0.9-1.9,1.9c0,1.1,0.9,1.9,1.9,1.9C119.5,289,120.3,288.1,120.3,287.1"/>
	<path d="M99.6,278.4c0-1.1-0.9-1.9-1.9-1.9c-1.1,0-1.9,0.9-1.9,1.9c0,1.1,0.9,1.9,1.9,1.9C98.7,280.3,99.6,279.5,99.6,278.4"/>
	<path d="M109.8,29.4c0-1.1-0.9-1.9-1.9-1.9c-1.1,0-1.9,0.9-1.9,1.9c0,1.1,0.9,1.9,1.9,1.9C108.9,31.3,109.8,30.5,109.8,29.4"/>
	<path d="M187.2,113.9c0-1.1-0.9-1.9-1.9-1.9c-1.1,0-1.9,0.9-1.9,1.9c0,1.1,0.9,1.9,1.9,1.9C186.3,115.8,187.2,115,187.2,113.9"/>
	<path d="M93.5,242.6c0-1.1-0.9-1.9-1.9-1.9c-1.1,0-1.9,0.9-1.9,1.9c0,1.1,0.9,1.9,1.9,1.9C92.6,244.5,93.5,243.6,93.5,242.6"/>
	<path d="M151.8,223.1c0-1.1-0.9-1.9-1.9-1.9c-1.1,0-1.9,0.9-1.9,1.9c0,1.1,0.9,1.9,1.9,1.9C150.9,225,151.8,224.1,151.8,223.1"/>
	<path d="M209.6,298.6c0-1.1-0.9-1.9-1.9-1.9c-1.1,0-1.9,0.9-1.9,1.9c0,1.1,0.9,1.9,1.9,1.9C208.7,300.5,209.6,299.6,209.6,298.6"/>
	<path d="M196.4,285.3c0-1.1-0.9-1.9-1.9-1.9c-1.1,0-1.9,0.9-1.9,1.9c0,1.1,0.9,1.9,1.9,1.9C195.5,287.2,196.4,286.4,196.4,285.3"/>
	<path d="M299.7,134.6c0-1.1-0.9-1.9-1.9-1.9c-1.1,0-1.9,0.9-1.9,1.9c0,1.1,0.9,1.9,1.9,1.9C298.8,136.6,299.7,135.7,299.7,134.6"/>
	<path d="M169.5,273.8c0-1.1-0.9-1.9-1.9-1.9c-1.1,0-1.9,0.9-1.9,1.9c0,1.1,0.9,1.9,1.9,1.9C168.6,275.8,169.5,274.9,169.5,273.8"/>
	<path d="M106.2,91.9c0-1.1-0.9-1.9-1.9-1.9c-1.1,0-1.9,0.9-1.9,1.9c0,1.1,0.9,1.9,1.9,1.9C105.4,93.8,106.2,92.9,106.2,91.9"/>
	<path d="M108.8,194.8c0-1.1-0.9-1.9-1.9-1.9c-1.1,0-1.9,0.9-1.9,1.9c0,1.1,0.9,1.9,1.9,1.9C108,196.7,108.8,195.9,108.8,194.8"/>
	<path d="M160.7,90.1c0-1.1-0.9-1.9-1.9-1.9s-1.9,0.9-1.9,1.9c0,1.1,0.9,1.9,1.9,1.9S160.7,91.1,160.7,90.1"/>
	<path d="M106.1,54.2c0-1.1-0.9-1.9-1.9-1.9c-1.1,0-1.9,0.9-1.9,1.9c0,1.1,0.9,1.9,1.9,1.9C105.2,56.2,106.1,55.3,106.1,54.2"/>
	<path d="M281.8,108.1c0-1.1-0.9-1.9-1.9-1.9c-1.1,0-1.9,0.9-1.9,1.9c0,1.1,0.9,1.9,1.9,1.9C280.9,110,281.8,109.2,281.8,108.1"/>
	<path d="M284.9,124.8c0-1.1-0.9-1.9-1.9-1.9c-1.1,0-1.9,0.9-1.9,1.9c0,1.1,0.9,1.9,1.9,1.9C284.1,126.7,284.9,125.9,284.9,124.8"/>
	<path d="M268.5,134.4c0-1.1-0.9-1.9-1.9-1.9c-1.1,0-1.9,0.9-1.9,1.9c0,1.1,0.9,1.9,1.9,1.9C267.6,136.4,268.5,135.5,268.5,134.4"/>
	<path d="M136.9,293.4c0-1.1-0.9-1.9-1.9-1.9c-1.1,0-1.9,0.9-1.9,1.9c0,1.1,0.9,1.9,1.9,1.9C136,295.4,136.9,294.5,136.9,293.4"/>
	<path d="M101.5,316.7c0-1.1-0.9-1.9-1.9-1.9c-1.1,0-1.9,0.9-1.9,1.9c0,1.1,0.9,1.9,1.9,1.9C100.7,318.6,101.5,317.8,101.5,316.7"/>
	<path d="M143.9,239.1c0-1.1-0.9-1.9-1.9-1.9c-1.1,0-1.9,0.9-1.9,1.9c0,1.1,0.9,1.9,1.9,1.9C143.1,241.1,143.9,240.2,143.9,239.1"/>
	<path d="M197.7,140.2c0-1.1-0.9-1.9-1.9-1.9c-1.1,0-1.9,0.9-1.9,1.9c0,1.1,0.9,1.9,1.9,1.9C196.9,142.1,197.7,141.2,197.7,140.2"/>
	<path d="M220.6,134.1c0-1.1-0.9-1.9-1.9-1.9c-1.1,0-1.9,0.9-1.9,1.9c0,1.1,0.9,1.9,1.9,1.9C219.7,136,220.6,135.1,220.6,134.1"/>
	<path d="M254.8,144.6c0-1.1-0.9-1.9-1.9-1.9c-1.1,0-1.9,0.9-1.9,1.9c0,1.1,0.9,1.9,1.9,1.9C253.9,146.5,254.8,145.6,254.8,144.6"/>
	<path d="M250.6,123.7c0-1.1-0.9-1.9-1.9-1.9c-1.1,0-1.9,0.9-1.9,1.9c0,1.1,0.9,1.9,1.9,1.9C249.7,125.6,250.6,124.8,250.6,123.7"/>
	<path d="M160.5,189.8c0-1.1-0.9-1.9-1.9-1.9c-1.1,0-1.9,0.9-1.9,1.9c0,1.1,0.9,1.9,1.9,1.9C159.6,191.8,160.5,190.9,160.5,189.8"/>
	<path d="M112.2,246.8c0-1.1-0.9-1.9-1.9-1.9c-1.1,0-1.9,0.9-1.9,1.9c0,1.1,0.9,1.9,1.9,1.9C111.4,248.7,112.2,247.8,112.2,246.8"/>
	<path d="M180.9,251.5c0-1.1-0.9-1.9-1.9-1.9c-1.1,0-1.9,0.9-1.9,1.9c0,1.1,0.9,1.9,1.9,1.9C180,253.5,180.9,252.6,180.9,251.5"/>
	<path d="M163.2,207.8c0-1.1-0.9-1.9-1.9-1.9c-1.1,0-1.9,0.9-1.9,1.9c0,1.1,0.9,1.9,1.9,1.9C162.3,209.7,163.2,208.9,163.2,207.8"/>
	<path d="M165.7,236.9c0-1.1-0.9-1.9-1.9-1.9c-1.1,0-1.9,0.9-1.9,1.9c0,1.1,0.9,1.9,1.9,1.9C164.8,238.9,165.7,238,165.7,236.9"/>
	<path d="M175.4,223.1c0-1.1-0.9-1.9-1.9-1.9c-1.1,0-1.9,0.9-1.9,1.9c0,1.1,0.9,1.9,1.9,1.9C174.6,225.1,175.4,224.2,175.4,223.1"/>
	<path d="M122.1,41.1c0-1.1-0.9-1.9-1.9-1.9c-1.1,0-1.9,0.9-1.9,1.9c0,1.1,0.9,1.9,1.9,1.9C121.3,43,122.1,42.2,122.1,41.1"/>
	<path d="M207.2,106.6c0-1.1-0.9-1.9-1.9-1.9c-1.1,0-1.9,0.9-1.9,1.9c0,1.1,0.9,1.9,1.9,1.9C206.4,108.5,207.2,107.7,207.2,106.6"/>
	<path d="M98.5,259.9c0-1.1-0.9-1.9-1.9-1.9c-1.1,0-1.9,0.9-1.9,1.9c0,1.1,0.9,1.9,1.9,1.9C97.6,261.8,98.5,260.9,98.5,259.9"/>
	<path d="M265.8,115.4c0-1.1-0.9-1.9-1.9-1.9c-1.1,0-1.9,0.9-1.9,1.9c0,1.1,0.9,1.9,1.9,1.9C265,117.3,265.8,116.4,265.8,115.4"/>
	<path d="M71.7,79.3c0-1.1-0.9-1.9-1.9-1.9c-1.1,0-1.9,0.9-1.9,1.9c0,1.1,0.9,1.9,1.9,1.9C70.9,81.3,71.7,80.4,71.7,79.3"/>
	<path d="M269.7,306.5c0-1.1-0.9-1.9-1.9-1.9c-1.1,0-1.9,0.9-1.9,1.9c0,1.1,0.9,1.9,1.9,1.9C268.9,308.4,269.7,307.5,269.7,306.5"/>
	<path d="M71.8,295.3c0-1.1-0.9-1.9-1.9-1.9c-1.1,0-1.9,0.9-1.9,1.9c0,1.1,0.9,1.9,1.9,1.9C70.9,297.3,71.8,296.4,71.8,295.3"/>
	<path d="M81.5,281.6c0-1.1-0.9-1.9-1.9-1.9c-1.1,0-1.9,0.9-1.9,1.9c0,1.1,0.9,1.9,1.9,1.9C80.6,283.6,81.5,282.7,81.5,281.6"/>
	<path d="M223.1,255c0-1.1-0.9-1.9-1.9-1.9c-1.1,0-1.9,0.9-1.9,1.9c0,1.1,0.9,1.9,1.9,1.9C222.2,256.9,223.1,256,223.1,255"/>
	<path d="M200.5,253.3c0-1.1-0.9-1.9-1.9-1.9c-1.1,0-1.9,0.9-1.9,1.9c0,1.1,0.9,1.9,1.9,1.9C199.6,255.2,200.5,254.4,200.5,253.3"/>
	<path d="M166.4,122.3c0-1.1-0.9-1.9-1.9-1.9c-1.1,0-1.9,0.9-1.9,1.9c0,1.1,0.9,1.9,1.9,1.9C165.5,124.2,166.4,123.4,166.4,122.3"/>
	<path d="M178.4,152.4c0-1.1-0.9-1.9-1.9-1.9c-1.1,0-1.9,0.9-1.9,1.9c0,1.1,0.9,1.9,1.9,1.9C177.6,154.3,178.4,153.5,178.4,152.4"/>
	<path d="M235.2,289.4c0-1.1-0.9-1.9-1.9-1.9c-1.1,0-1.9,0.9-1.9,1.9c0,1.1,0.9,1.9,1.9,1.9C234.4,291.4,235.2,290.5,235.2,289.4"/>
	<path d="M252.7,299.4c0-1.1-0.9-1.9-1.9-1.9c-1.1,0-1.9,0.9-1.9,1.9c0,1.1,0.9,1.9,1.9,1.9C251.8,301.4,252.7,300.5,252.7,299.4"/>
	<path d="M265.6,60.1c0-1.1-0.9-1.9-1.9-1.9c-1.1,0-1.9,0.9-1.9,1.9c0,1.1,0.9,1.9,1.9,1.9C264.7,62,265.6,61.2,265.6,60.1"/>
	<path d="M206.4,88.4c0-1.1-0.9-1.9-1.9-1.9c-1.1,0-1.9,0.9-1.9,1.9c0,1.1,0.9,1.9,1.9,1.9C205.5,90.3,206.4,89.4,206.4,88.4"/>
	<path d="M36.3,248.5c0-1.1-0.9-1.9-1.9-1.9c-1.1,0-1.9,0.9-1.9,1.9c0,1.1,0.9,1.9,1.9,1.9C35.4,250.5,36.3,249.6,36.3,248.5"/>
	<path d="M64.3,267.5c0-1.1-0.9-1.9-1.9-1.9c-1.1,0-1.9,0.9-1.9,1.9c0,1.1,0.9,1.9,1.9,1.9C63.4,269.4,64.3,268.5,64.3,267.5"/>
	<path d="M116.5,304.3c0-1.1-0.9-1.9-1.9-1.9c-1.1,0-1.9,0.9-1.9,1.9c0,1.1,0.9,1.9,1.9,1.9C115.7,306.3,116.5,305.4,116.5,304.3"/>
	<path d="M80.8,263.3c0-1.1-0.9-1.9-1.9-1.9c-1.1,0-1.9,0.9-1.9,1.9c0,1.1,0.9,1.9,1.9,1.9C80,265.2,80.8,264.4,80.8,263.3"/>
	<path d="M180.2,320.8c0-1.1-0.9-1.9-1.9-1.9c-1.1,0-1.9,0.9-1.9,1.9c0,1.1,0.9,1.9,1.9,1.9C179.4,322.7,180.2,321.8,180.2,320.8"/>
	<path d="M35.2,182.1c0-1.1-0.9-1.9-1.9-1.9c-1.1,0-1.9,0.9-1.9,1.9c0,1.1,0.9,1.9,1.9,1.9C34.3,184,35.2,183.1,35.2,182.1"/>
	<path d="M85.5,306.9c0-1.1-0.9-1.9-1.9-1.9c-1.1,0-1.9,0.9-1.9,1.9c0,1.1,0.9,1.9,1.9,1.9C84.6,308.8,85.5,308,85.5,306.9"/>
	<path d="M147.1,258.2c0-1.1-0.9-1.9-1.9-1.9c-1.1,0-1.9,0.9-1.9,1.9c0,1.1,0.9,1.9,1.9,1.9C146.2,260.1,147.1,259.3,147.1,258.2"/>
</g>
</svg>
