<?xml version="1.0" encoding="utf-8"?>
<!-- Generator: Adobe Illustrator 21.1.0, SVG Export Plug-In . SVG Version: 6.00 Build 0)  -->
<svg version="1.1" id="Layer_1" xmlns="http://www.w3.org/2000/svg" xmlns:xlink="http://www.w3.org/1999/xlink" x="0px" y="0px"
	 viewBox="0 0 350 350" style="enable-background:new 0 0 350 350;" xml:space="preserve">
<style type="text/css">
	.st0{fill:none;stroke:#231F20;stroke-width:0.75;stroke-miterlimit:10;}
</style>
<g>
	<line class="st0" x1="235.8" y1="307.4" x2="234.3" y2="324.7"/>
	<line class="st0" x1="96.7" y1="51.8" x2="120.4" y2="71.4"/>
	<line class="st0" x1="96.7" y1="51.8" x2="100" y2="71.1"/>
	<line class="st0" x1="96.7" y1="51.8" x2="111.8" y2="57.7"/>
	<line class="st0" x1="120.4" y1="71.4" x2="100" y2="71.1"/>
	<line class="st0" x1="120.4" y1="71.4" x2="111.8" y2="57.7"/>
	<line class="st0" x1="180" y1="29.2" x2="147.2" y2="32.9"/>
	<line class="st0" x1="180" y1="29.2" x2="176.1" y2="13.8"/>
	<line class="st0" x1="180" y1="29.2" x2="163.8" y2="32.4"/>
	<line class="st0" x1="180" y1="29.2" x2="159.9" y2="15.5"/>
	<line class="st0" x1="147.2" y1="32.9" x2="111.6" y2="26.7"/>
	<line class="st0" x1="147.2" y1="32.9" x2="176.1" y2="13.8"/>
	<line class="st0" x1="147.2" y1="32.9" x2="163.8" y2="32.4"/>
	<line class="st0" x1="147.2" y1="32.9" x2="130.1" y2="38.5"/>
	<line class="st0" x1="232.2" y1="142.1" x2="231" y2="112.1"/>
	<line class="st0" x1="232.2" y1="142.1" x2="243.5" y2="199.1"/>
	<line class="st0" x1="232.2" y1="142.1" x2="218.9" y2="123.9"/>
	<line class="st0" x1="232.2" y1="142.1" x2="237.9" y2="126.9"/>
	<line class="st0" x1="231" y1="112.1" x2="248.8" y2="109.7"/>
	<line class="st0" x1="243.1" y1="48.1" x2="245.1" y2="29.8"/>
	<line class="st0" x1="243.1" y1="48.1" x2="223.8" y2="54.5"/>
	<line class="st0" x1="243.1" y1="48.1" x2="207.3" y2="57.1"/>
	<line class="st0" x1="243.1" y1="48.1" x2="213.2" y2="39.1"/>
	<line class="st0" x1="243.1" y1="48.1" x2="266.4" y2="83"/>
	<line class="st0" x1="243.1" y1="48.1" x2="229.5" y2="38"/>
	<line class="st0" x1="243.1" y1="48.1" x2="256.9" y2="56.2"/>
	<line class="st0" x1="18" y1="208.7" x2="41.3" y2="224.9"/>
	<line class="st0" x1="18" y1="208.7" x2="23.2" y2="224.9"/>
	<line class="st0" x1="18" y1="208.7" x2="34.4" y2="210.4"/>
	<line class="st0" x1="18" y1="208.7" x2="37.3" y2="195.5"/>
	<line class="st0" x1="99.2" y1="163.8" x2="93.5" y2="140.3"/>
	<line class="st0" x1="99.2" y1="163.8" x2="117.7" y2="161.6"/>
	<line class="st0" x1="99.2" y1="163.8" x2="68.7" y2="183.5"/>
	<line class="st0" x1="99.2" y1="163.8" x2="136.3" y2="166.4"/>
	<line class="st0" x1="99.2" y1="163.8" x2="86.3" y2="154.8"/>
	<line class="st0" x1="99.2" y1="163.8" x2="125.1" y2="177.3"/>
	<line class="st0" x1="99.2" y1="163.8" x2="88.8" y2="180.3"/>
	<line class="st0" x1="292.9" y1="262.7" x2="267.9" y2="269.1"/>
	<line class="st0" x1="292.9" y1="262.7" x2="281.8" y2="276.7"/>
	<line class="st0" x1="267.7" y1="140.5" x2="270.1" y2="120.8"/>
	<line class="st0" x1="326.1" y1="222.9" x2="332.2" y2="209"/>
	<line class="st0" x1="326.1" y1="222.9" x2="312.9" y2="248.2"/>
	<line class="st0" x1="326.1" y1="222.9" x2="307.2" y2="230.2"/>
	<line class="st0" x1="326.1" y1="222.9" x2="335.7" y2="188.8"/>
	<line class="st0" x1="332.2" y1="209" x2="312.9" y2="248.2"/>
	<line class="st0" x1="332.2" y1="209" x2="307.2" y2="230.2"/>
	<line class="st0" x1="186.4" y1="320" x2="191" y2="303.5"/>
	<line class="st0" x1="186.4" y1="320" x2="198.3" y2="334"/>
	<line class="st0" x1="191" y1="303.5" x2="235.8" y2="307.4"/>
	<line class="st0" x1="191" y1="303.5" x2="162.6" y2="287.8"/>
	<line class="st0" x1="191" y1="303.5" x2="172.1" y2="306"/>
	<line class="st0" x1="251.8" y1="91.2" x2="264.6" y2="104.1"/>
	<line class="st0" x1="251.8" y1="91.2" x2="283.5" y2="109.3"/>
	<line class="st0" x1="251.8" y1="91.2" x2="218.4" y2="72.3"/>
	<line class="st0" x1="264.6" y1="104.1" x2="283.5" y2="109.3"/>
	<line class="st0" x1="157.4" y1="212.5" x2="180.3" y2="214.5"/>
	<line class="st0" x1="157.4" y1="212.5" x2="165.6" y2="185.6"/>
	<line class="st0" x1="180.3" y1="214.5" x2="165.6" y2="185.6"/>
	<line class="st0" x1="243.5" y1="199.1" x2="267.7" y2="140.5"/>
	<line class="st0" x1="243.5" y1="199.1" x2="180.3" y2="214.5"/>
	<line class="st0" x1="243.5" y1="199.1" x2="192.3" y2="202.8"/>
	<line class="st0" x1="243.5" y1="199.1" x2="304.1" y2="174"/>
	<line class="st0" x1="243.5" y1="199.1" x2="285" y2="147.1"/>
	<line class="st0" x1="243.5" y1="199.1" x2="251.7" y2="172.9"/>
	<line class="st0" x1="243.5" y1="199.1" x2="245.3" y2="250.8"/>
	<line class="st0" x1="243.5" y1="199.1" x2="195.2" y2="174"/>
	<line class="st0" x1="243.5" y1="199.1" x2="238.9" y2="184.2"/>
	<line class="st0" x1="243.5" y1="199.1" x2="215.3" y2="139.4"/>
	<line class="st0" x1="243.5" y1="199.1" x2="279.7" y2="211"/>
	<line class="st0" x1="243.5" y1="199.1" x2="258.7" y2="236.2"/>
	<line class="st0" x1="243.5" y1="199.1" x2="240.2" y2="158.1"/>
	<line class="st0" x1="243.5" y1="199.1" x2="212.9" y2="173.9"/>
	<line class="st0" x1="243.5" y1="199.1" x2="278.6" y2="254.7"/>
	<line class="st0" x1="243.5" y1="199.1" x2="296.6" y2="214.2"/>
	<line class="st0" x1="243.5" y1="199.1" x2="229.5" y2="253.8"/>
	<line class="st0" x1="243.5" y1="199.1" x2="188.2" y2="230.1"/>
	<line class="st0" x1="243.5" y1="199.1" x2="199.9" y2="218.4"/>
	<line class="st0" x1="243.5" y1="199.1" x2="218.2" y2="220.9"/>
	<line class="st0" x1="243.5" y1="199.1" x2="269.8" y2="175.8"/>
	<line class="st0" x1="243.5" y1="199.1" x2="251.8" y2="218.5"/>
	<line class="st0" x1="243.5" y1="199.1" x2="269.6" y2="223.3"/>
	<line class="st0" x1="243.5" y1="199.1" x2="210.8" y2="204.7"/>
	<line class="st0" x1="243.5" y1="199.1" x2="274.4" y2="194"/>
	<line class="st0" x1="243.5" y1="199.1" x2="257.9" y2="189"/>
	<line class="st0" x1="243.5" y1="199.1" x2="203.6" y2="189.2"/>
	<line class="st0" x1="243.5" y1="199.1" x2="257.5" y2="157.5"/>
	<line class="st0" x1="243.5" y1="199.1" x2="206.5" y2="234.4"/>
	<line class="st0" x1="243.5" y1="199.1" x2="287.2" y2="166.2"/>
	<line class="st0" x1="243.5" y1="199.1" x2="229.9" y2="171.1"/>
	<line class="st0" x1="243.5" y1="199.1" x2="276.3" y2="239.1"/>
	<line class="st0" x1="243.5" y1="199.1" x2="212.5" y2="249.6"/>
	<line class="st0" x1="243.5" y1="199.1" x2="250" y2="142.6"/>
	<line class="st0" x1="243.5" y1="199.1" x2="272.7" y2="158.6"/>
	<line class="st0" x1="243.5" y1="199.1" x2="221.7" y2="188.9"/>
	<line class="st0" x1="243.5" y1="199.1" x2="288.7" y2="228.9"/>
	<line class="st0" x1="243.5" y1="199.1" x2="235.6" y2="218.6"/>
	<line class="st0" x1="243.5" y1="199.1" x2="287" y2="182.3"/>
	<line class="st0" x1="243.5" y1="199.1" x2="221.6" y2="156.2"/>
	<line class="st0" x1="243.5" y1="199.1" x2="227.9" y2="204.4"/>
	<line class="st0" x1="243.5" y1="199.1" x2="241.8" y2="234.4"/>
	<line class="st0" x1="243.5" y1="199.1" x2="261.2" y2="253.4"/>
	<line class="st0" x1="243.5" y1="199.1" x2="225.3" y2="236.5"/>
	<line class="st0" x1="243.5" y1="199.1" x2="261.4" y2="206.1"/>
	<line class="st0" x1="83" y1="62.9" x2="79.5" y2="45.8"/>
	<line class="st0" x1="83" y1="62.9" x2="66.8" y2="56.9"/>
	<line class="st0" x1="83" y1="62.9" x2="68.2" y2="75.6"/>
	<line class="st0" x1="79.5" y1="45.8" x2="66.8" y2="56.9"/>
	<line class="st0" x1="79.5" y1="45.8" x2="68.2" y2="75.6"/>
	<line class="st0" x1="114.5" y1="41.9" x2="147.2" y2="32.9"/>
	<line class="st0" x1="114.5" y1="41.9" x2="111.6" y2="26.7"/>
	<line class="st0" x1="114.5" y1="41.9" x2="143.5" y2="17.7"/>
	<line class="st0" x1="114.5" y1="41.9" x2="130.1" y2="38.5"/>
	<line class="st0" x1="114.5" y1="41.9" x2="95.1" y2="35.1"/>
	<line class="st0" x1="111.6" y1="26.7" x2="130.1" y2="38.5"/>
	<line class="st0" x1="111.6" y1="26.7" x2="127.4" y2="21.5"/>
	<line class="st0" x1="304.1" y1="174" x2="318" y2="160.8"/>
	<line class="st0" x1="304.1" y1="174" x2="321" y2="196.3"/>
	<line class="st0" x1="304.1" y1="174" x2="335.3" y2="171.9"/>
	<line class="st0" x1="304.1" y1="174" x2="334.1" y2="155.7"/>
	<line class="st0" x1="304.1" y1="174" x2="320" y2="178.3"/>
	<line class="st0" x1="304.1" y1="174" x2="331.5" y2="140"/>
	<line class="st0" x1="304.1" y1="174" x2="335.7" y2="188.8"/>
	<line class="st0" x1="318" y1="160.8" x2="321" y2="196.3"/>
	<line class="st0" x1="318" y1="160.8" x2="335.3" y2="171.9"/>
	<line class="st0" x1="318" y1="160.8" x2="320" y2="178.3"/>
	<line class="st0" x1="223.8" y1="54.5" x2="234.1" y2="79.6"/>
	<line class="st0" x1="223.8" y1="54.5" x2="207.3" y2="57.1"/>
	<line class="st0" x1="194.5" y1="14.8" x2="211" y2="19.2"/>
	<line class="st0" x1="194.5" y1="14.8" x2="226.7" y2="22.1"/>
	<line class="st0" x1="194.5" y1="14.8" x2="198" y2="31.1"/>
	<line class="st0" x1="169.1" y1="129.7" x2="156" y2="169.2"/>
	<line class="st0" x1="169.1" y1="129.7" x2="166.3" y2="158.1"/>
	<line class="st0" x1="169.1" y1="129.7" x2="146.9" y2="153.3"/>
	<line class="st0" x1="169.1" y1="129.7" x2="157.8" y2="141.7"/>
	<line class="st0" x1="156" y1="169.2" x2="136.3" y2="166.4"/>
	<line class="st0" x1="156" y1="169.2" x2="145.4" y2="181.4"/>
	<line class="st0" x1="135.3" y1="316.1" x2="122.1" y2="305.4"/>
	<line class="st0" x1="135.3" y1="316.1" x2="107.1" y2="302.2"/>
	<line class="st0" x1="135.3" y1="316.1" x2="126.6" y2="286.9"/>
	<line class="st0" x1="135.3" y1="316.1" x2="122.5" y2="326.6"/>
	<line class="st0" x1="122.1" y1="305.4" x2="107.1" y2="302.2"/>
	<line class="st0" x1="122.1" y1="305.4" x2="144.6" y2="284.2"/>
	<line class="st0" x1="122.1" y1="305.4" x2="126.6" y2="286.9"/>
	<line class="st0" x1="23.2" y1="224.9" x2="41.3" y2="224.9"/>
	<line class="st0" x1="23.2" y1="224.9" x2="34.4" y2="210.4"/>
	<line class="st0" x1="23.2" y1="224.9" x2="37.3" y2="195.5"/>
	<line class="st0" x1="34.4" y1="210.4" x2="41.3" y2="224.9"/>
	<line class="st0" x1="34.4" y1="210.4" x2="37.3" y2="195.5"/>
	<line class="st0" x1="285" y1="147.1" x2="299.7" y2="137.9"/>
	<line class="st0" x1="285" y1="147.1" x2="311.9" y2="124.9"/>
	<line class="st0" x1="285" y1="147.1" x2="283.7" y2="129.8"/>
	<line class="st0" x1="285" y1="147.1" x2="297.1" y2="119.2"/>
	<line class="st0" x1="299.7" y1="137.9" x2="283.7" y2="129.8"/>
	<line class="st0" x1="299.7" y1="137.9" x2="297.1" y2="119.2"/>
	<line class="st0" x1="80.7" y1="108.3" x2="57.9" y2="92.4"/>
	<line class="st0" x1="34.5" y1="145.8" x2="36.8" y2="129.8"/>
	<line class="st0" x1="34.5" y1="145.8" x2="16.2" y2="159.2"/>
	<line class="st0" x1="34.5" y1="145.8" x2="45.8" y2="107"/>
	<line class="st0" x1="34.5" y1="145.8" x2="50.2" y2="122.5"/>
	<line class="st0" x1="34.5" y1="145.8" x2="32.5" y2="163.6"/>
	<line class="st0" x1="34.5" y1="145.8" x2="14.3" y2="175.3"/>
	<line class="st0" x1="132.9" y1="120.2" x2="108.8" y2="147.6"/>
	<line class="st0" x1="132.9" y1="120.2" x2="116.6" y2="117"/>
	<line class="st0" x1="132.9" y1="120.2" x2="152.1" y2="124.3"/>
	<line class="st0" x1="132.9" y1="120.2" x2="165.4" y2="111.5"/>
	<line class="st0" x1="132.9" y1="120.2" x2="145.8" y2="93.2"/>
	<line class="st0" x1="108.8" y1="147.6" x2="99.2" y2="163.8"/>
	<line class="st0" x1="108.8" y1="147.6" x2="93.5" y2="140.3"/>
	<line class="st0" x1="108.8" y1="147.6" x2="116.7" y2="191.7"/>
	<line class="st0" x1="108.8" y1="147.6" x2="86.3" y2="154.8"/>
	<line class="st0" x1="108.8" y1="147.6" x2="106.8" y2="177.3"/>
	<line class="st0" x1="196.6" y1="285.3" x2="219.9" y2="313"/>
	<line class="st0" x1="219.9" y1="313" x2="251.1" y2="316.8"/>
	<line class="st0" x1="219.9" y1="313" x2="203.6" y2="317.9"/>
	<line class="st0" x1="219.9" y1="313" x2="216.6" y2="330.4"/>
	<line class="st0" x1="166.7" y1="271.7" x2="150.7" y2="268.7"/>
	<line class="st0" x1="166.7" y1="271.7" x2="166" y2="254.9"/>
	<line class="st0" x1="268.4" y1="306.4" x2="267.7" y2="288.9"/>
	<line class="st0" x1="268.4" y1="306.4" x2="283.9" y2="294.3"/>
	<line class="st0" x1="268.4" y1="306.4" x2="253.3" y2="299.9"/>
	<line class="st0" x1="139.6" y1="75.8" x2="157.3" y2="79.9"/>
	<line class="st0" x1="139.6" y1="75.8" x2="169" y2="64.2"/>
	<line class="st0" x1="186.9" y1="132.9" x2="187.8" y2="157.7"/>
	<line class="st0" x1="186.9" y1="132.9" x2="199.2" y2="142.3"/>
	<line class="st0" x1="97.2" y1="242.6" x2="88.9" y2="256.3"/>
	<line class="st0" x1="97.2" y1="242.6" x2="108.4" y2="256.1"/>
	<line class="st0" x1="97.2" y1="242.6" x2="59.8" y2="226.1"/>
	<line class="st0" x1="97.2" y1="242.6" x2="74.9" y2="222"/>
	<line class="st0" x1="97.2" y1="242.6" x2="126.4" y2="253.2"/>
	<line class="st0" x1="106" y1="208.5" x2="99.2" y2="163.8"/>
	<line class="st0" x1="106" y1="208.5" x2="91.3" y2="227.4"/>
	<line class="st0" x1="106" y1="208.5" x2="122.1" y2="208.8"/>
	<line class="st0" x1="106" y1="208.5" x2="138.2" y2="210.6"/>
	<line class="st0" x1="106" y1="208.5" x2="116.7" y2="191.7"/>
	<line class="st0" x1="106" y1="208.5" x2="99.4" y2="194.2"/>
	<line class="st0" x1="106" y1="208.5" x2="88.8" y2="180.3"/>
	<line class="st0" x1="106" y1="208.5" x2="108.4" y2="224.9"/>
	<line class="st0" x1="91.3" y1="227.4" x2="97.2" y2="242.6"/>
	<line class="st0" x1="91.3" y1="227.4" x2="54.8" y2="256.7"/>
	<line class="st0" x1="91.3" y1="227.4" x2="108.4" y2="224.9"/>
	<line class="st0" x1="312.7" y1="212.7" x2="326.1" y2="222.9"/>
	<line class="st0" x1="312.7" y1="212.7" x2="332.2" y2="209"/>
	<line class="st0" x1="312.7" y1="212.7" x2="312.9" y2="248.2"/>
	<line class="st0" x1="312.7" y1="212.7" x2="307.2" y2="230.2"/>
	<line class="st0" x1="58.8" y1="168.3" x2="84.1" y2="124.3"/>
	<line class="st0" x1="58.8" y1="168.3" x2="37.3" y2="195.5"/>
	<line class="st0" x1="58.8" y1="168.3" x2="30.1" y2="180.8"/>
	<line class="st0" x1="58.8" y1="168.3" x2="54.5" y2="192.2"/>
	<line class="st0" x1="58.8" y1="168.3" x2="45.9" y2="177.5"/>
	<line class="st0" x1="84.1" y1="124.3" x2="84.7" y2="79.7"/>
	<line class="st0" x1="84.1" y1="124.3" x2="74.5" y2="93.2"/>
	<line class="st0" x1="82.2" y1="272.3" x2="77.4" y2="287.2"/>
	<line class="st0" x1="82.2" y1="272.3" x2="93" y2="291.2"/>
	<line class="st0" x1="82.2" y1="272.3" x2="77.8" y2="303.2"/>
	<line class="st0" x1="82.2" y1="272.3" x2="61.5" y2="290"/>
	<line class="st0" x1="77.4" y1="287.2" x2="77.8" y2="303.2"/>
	<line class="st0" x1="77.4" y1="287.2" x2="61.5" y2="290"/>
	<line class="st0" x1="76.8" y1="168.7" x2="99.2" y2="163.8"/>
	<line class="st0" x1="76.8" y1="168.7" x2="68.7" y2="183.5"/>
	<line class="st0" x1="234.1" y1="79.6" x2="205" y2="89.9"/>
	<line class="st0" x1="245.3" y1="250.8" x2="244.5" y2="266.8"/>
	<line class="st0" x1="312.9" y1="248.2" x2="296.1" y2="245.6"/>
	<line class="st0" x1="312.9" y1="248.2" x2="309.6" y2="264"/>
	<line class="st0" x1="304.7" y1="105" x2="311.9" y2="124.9"/>
	<line class="st0" x1="304.7" y1="105" x2="297.1" y2="119.2"/>
	<line class="st0" x1="304.7" y1="105" x2="327.3" y2="122.4"/>
	<line class="st0" x1="304.7" y1="105" x2="320.6" y2="106.3"/>
	<line class="st0" x1="311.9" y1="124.9" x2="299.7" y2="137.9"/>
	<line class="st0" x1="311.9" y1="124.9" x2="283.7" y2="129.8"/>
	<line class="st0" x1="311.9" y1="124.9" x2="297.1" y2="119.2"/>
	<line class="st0" x1="311.9" y1="124.9" x2="327.3" y2="122.4"/>
	<line class="st0" x1="311.9" y1="124.9" x2="320.6" y2="106.3"/>
	<line class="st0" x1="122.1" y1="208.8" x2="138.2" y2="210.6"/>
	<line class="st0" x1="122.1" y1="208.8" x2="99.4" y2="194.2"/>
	<line class="st0" x1="54.8" y1="256.7" x2="97.2" y2="242.6"/>
	<line class="st0" x1="54.8" y1="256.7" x2="37.8" y2="257.9"/>
	<line class="st0" x1="84.7" y1="79.7" x2="83" y2="62.9"/>
	<line class="st0" x1="84.7" y1="79.7" x2="79.5" y2="45.8"/>
	<line class="st0" x1="84.7" y1="79.7" x2="66.8" y2="56.9"/>
	<line class="st0" x1="84.7" y1="79.7" x2="68.2" y2="75.6"/>
	<line class="st0" x1="84.7" y1="79.7" x2="74.5" y2="93.2"/>
	<line class="st0" x1="207.3" y1="57.1" x2="175" y2="78.9"/>
	<line class="st0" x1="207.3" y1="57.1" x2="200.6" y2="72.3"/>
	<line class="st0" x1="175" y1="78.9" x2="139.6" y2="75.8"/>
	<line class="st0" x1="175" y1="78.9" x2="157.3" y2="79.9"/>
	<line class="st0" x1="175" y1="78.9" x2="200.6" y2="72.3"/>
	<line class="st0" x1="175" y1="78.9" x2="169" y2="64.2"/>
	<line class="st0" x1="100" y1="71.1" x2="125.5" y2="87"/>
	<line class="st0" x1="100" y1="71.1" x2="93.9" y2="94.2"/>
	<line class="st0" x1="100" y1="71.1" x2="111.8" y2="57.7"/>
	<line class="st0" x1="125.5" y1="87" x2="93.9" y2="94.2"/>
	<line class="st0" x1="143.5" y1="17.7" x2="180" y2="29.2"/>
	<line class="st0" x1="143.5" y1="17.7" x2="147.2" y2="32.9"/>
	<line class="st0" x1="143.5" y1="17.7" x2="111.6" y2="26.7"/>
	<line class="st0" x1="143.5" y1="17.7" x2="176.1" y2="13.8"/>
	<line class="st0" x1="143.5" y1="17.7" x2="163.8" y2="32.4"/>
	<line class="st0" x1="143.5" y1="17.7" x2="130.1" y2="38.5"/>
	<line class="st0" x1="143.5" y1="17.7" x2="159.9" y2="15.5"/>
	<line class="st0" x1="292.1" y1="198" x2="243.5" y2="199.1"/>
	<line class="st0" x1="292.1" y1="198" x2="301.6" y2="156.5"/>
	<line class="st0" x1="205" y1="158.4" x2="243.5" y2="199.1"/>
	<line class="st0" x1="205" y1="158.4" x2="186.9" y2="132.9"/>
	<line class="st0" x1="205" y1="158.4" x2="187.8" y2="157.7"/>
	<line class="st0" x1="205" y1="158.4" x2="195.2" y2="174"/>
	<line class="st0" x1="205" y1="158.4" x2="199.2" y2="142.3"/>
	<line class="st0" x1="299.1" y1="73.4" x2="260.6" y2="38.9"/>
	<line class="st0" x1="299.1" y1="73.4" x2="266.4" y2="83"/>
	<line class="st0" x1="299.1" y1="73.4" x2="270.6" y2="65.7"/>
	<line class="st0" x1="299.1" y1="73.4" x2="295.1" y2="90.7"/>
	<line class="st0" x1="299.1" y1="73.4" x2="312" y2="88.3"/>
	<line class="st0" x1="299.1" y1="73.4" x2="279.3" y2="94"/>
	<line class="st0" x1="299.1" y1="73.4" x2="288.1" y2="59.2"/>
	<line class="st0" x1="237.5" y1="64.2" x2="251.8" y2="91.2"/>
	<line class="st0" x1="237.5" y1="64.2" x2="223.8" y2="54.5"/>
	<line class="st0" x1="237.5" y1="64.2" x2="234.1" y2="79.6"/>
	<line class="st0" x1="237.5" y1="64.2" x2="236" y2="96.1"/>
	<line class="st0" x1="136.3" y1="166.4" x2="117.7" y2="161.6"/>
	<line class="st0" x1="136.3" y1="166.4" x2="145.4" y2="181.4"/>
	<line class="st0" x1="136.3" y1="166.4" x2="134.6" y2="194"/>
	<line class="st0" x1="136.3" y1="166.4" x2="125.1" y2="177.3"/>
	<line class="st0" x1="16.9" y1="193" x2="18" y2="208.7"/>
	<line class="st0" x1="16.9" y1="193" x2="23.2" y2="224.9"/>
	<line class="st0" x1="16.9" y1="193" x2="34.4" y2="210.4"/>
	<line class="st0" x1="16.9" y1="193" x2="37.3" y2="195.5"/>
	<line class="st0" x1="218.9" y1="123.9" x2="231" y2="112.1"/>
	<line class="st0" x1="218.9" y1="123.9" x2="237.9" y2="126.9"/>
	<line class="st0" x1="37.3" y1="195.5" x2="41.3" y2="224.9"/>
	<line class="st0" x1="37.3" y1="195.5" x2="30.1" y2="180.8"/>
	<line class="st0" x1="37.3" y1="195.5" x2="54.5" y2="192.2"/>
	<line class="st0" x1="37.3" y1="195.5" x2="45.9" y2="177.5"/>
	<line class="st0" x1="215.3" y1="139.4" x2="197.3" y2="106.3"/>
	<line class="st0" x1="215.3" y1="139.4" x2="254.8" y2="125.9"/>
	<line class="st0" x1="215.3" y1="139.4" x2="201.7" y2="122.6"/>
	<line class="st0" x1="129.1" y1="148.7" x2="99.2" y2="163.8"/>
	<line class="st0" x1="129.1" y1="148.7" x2="117.7" y2="161.6"/>
	<line class="st0" x1="129.1" y1="148.7" x2="136.3" y2="166.4"/>
	<line class="st0" x1="129.1" y1="148.7" x2="147.7" y2="109.2"/>
	<line class="st0" x1="129.1" y1="148.7" x2="139.5" y2="135.6"/>
	<line class="st0" x1="129.1" y1="148.7" x2="152.1" y2="124.3"/>
	<line class="st0" x1="129.1" y1="148.7" x2="125.1" y2="177.3"/>
	<line class="st0" x1="147.7" y1="109.2" x2="139.5" y2="135.6"/>
	<line class="st0" x1="147.7" y1="109.2" x2="152.1" y2="124.3"/>
	<line class="st0" x1="166.3" y1="158.1" x2="156" y2="169.2"/>
	<line class="st0" x1="166.3" y1="158.1" x2="146.9" y2="153.3"/>
	<line class="st0" x1="146.9" y1="153.3" x2="156" y2="169.2"/>
	<line class="st0" x1="93" y1="291.2" x2="77.4" y2="287.2"/>
	<line class="st0" x1="93" y1="291.2" x2="77.8" y2="303.2"/>
	<line class="st0" x1="93" y1="291.2" x2="61.5" y2="290"/>
	<line class="st0" x1="213.2" y1="39.1" x2="223.8" y2="54.5"/>
	<line class="st0" x1="213.2" y1="39.1" x2="207.3" y2="57.1"/>
	<line class="st0" x1="213.2" y1="39.1" x2="229.5" y2="38"/>
	<line class="st0" x1="321" y1="196.3" x2="320" y2="178.3"/>
	<line class="st0" x1="161.7" y1="49.8" x2="139.6" y2="75.8"/>
	<line class="st0" x1="161.7" y1="49.8" x2="157.3" y2="79.9"/>
	<line class="st0" x1="161.7" y1="49.8" x2="175" y2="78.9"/>
	<line class="st0" x1="161.7" y1="49.8" x2="194.4" y2="47.1"/>
	<line class="st0" x1="161.7" y1="49.8" x2="169" y2="64.2"/>
	<line class="st0" x1="283.7" y1="129.8" x2="297.1" y2="119.2"/>
	<line class="st0" x1="297.1" y1="119.2" x2="327.3" y2="122.4"/>
	<line class="st0" x1="297.1" y1="119.2" x2="320.6" y2="106.3"/>
	<line class="st0" x1="107.6" y1="84.9" x2="100" y2="71.1"/>
	<line class="st0" x1="107.6" y1="84.9" x2="125.5" y2="87"/>
	<line class="st0" x1="107.6" y1="84.9" x2="98.4" y2="110.9"/>
	<line class="st0" x1="107.6" y1="84.9" x2="93.9" y2="94.2"/>
	<line class="st0" x1="98.4" y1="110.9" x2="99.2" y2="163.8"/>
	<line class="st0" x1="98.4" y1="110.9" x2="100" y2="71.1"/>
	<line class="st0" x1="98.4" y1="110.9" x2="125.5" y2="87"/>
	<line class="st0" x1="98.4" y1="110.9" x2="93.9" y2="94.2"/>
	<line class="st0" x1="230.4" y1="275.7" x2="223.9" y2="294.2"/>
	<line class="st0" x1="230.4" y1="275.7" x2="212.5" y2="281.8"/>
	<line class="st0" x1="230.4" y1="275.7" x2="216.8" y2="266.2"/>
	<line class="st0" x1="223.9" y1="294.2" x2="219.9" y2="313"/>
	<line class="st0" x1="223.9" y1="294.2" x2="207.5" y2="300"/>
	<line class="st0" x1="266.4" y1="83" x2="270.6" y2="65.7"/>
	<line class="st0" x1="266.4" y1="83" x2="295.1" y2="90.7"/>
	<line class="st0" x1="266.4" y1="83" x2="279.3" y2="94"/>
	<line class="st0" x1="270.6" y1="65.7" x2="295.1" y2="90.7"/>
	<line class="st0" x1="270.6" y1="65.7" x2="279.3" y2="94"/>
	<line class="st0" x1="29.2" y1="112" x2="34.5" y2="145.8"/>
	<line class="st0" x1="29.2" y1="112" x2="36.8" y2="129.8"/>
	<line class="st0" x1="29.2" y1="112" x2="45.8" y2="107"/>
	<line class="st0" x1="29.2" y1="112" x2="20.9" y2="126.4"/>
	<line class="st0" x1="29.2" y1="112" x2="18" y2="143"/>
	<line class="st0" x1="29.2" y1="112" x2="50.2" y2="122.5"/>
	<line class="st0" x1="29.2" y1="112" x2="44.9" y2="82.5"/>
	<line class="st0" x1="29.2" y1="112" x2="34.6" y2="95.2"/>
	<line class="st0" x1="45.8" y1="107" x2="36.8" y2="129.8"/>
	<line class="st0" x1="166" y1="254.9" x2="216.8" y2="266.2"/>
	<line class="st0" x1="66.8" y1="126" x2="80.7" y2="108.3"/>
	<line class="st0" x1="66.8" y1="126" x2="57.9" y2="92.4"/>
	<line class="st0" x1="66.8" y1="126" x2="58.8" y2="168.3"/>
	<line class="st0" x1="66.8" y1="126" x2="84.1" y2="124.3"/>
	<line class="st0" x1="66.8" y1="126" x2="54.3" y2="139.6"/>
	<line class="st0" x1="66.8" y1="126" x2="50.2" y2="122.5"/>
	<line class="st0" x1="66.8" y1="126" x2="63.5" y2="109.2"/>
	<line class="st0" x1="54.3" y1="139.6" x2="63.5" y2="109.2"/>
	<line class="st0" x1="138.4" y1="299.6" x2="135.3" y2="316.1"/>
	<line class="st0" x1="138.4" y1="299.6" x2="122.1" y2="305.4"/>
	<line class="st0" x1="138.4" y1="299.6" x2="107.1" y2="302.2"/>
	<line class="st0" x1="138.4" y1="299.6" x2="155" y2="302.2"/>
	<line class="st0" x1="138.4" y1="299.6" x2="144.6" y2="284.2"/>
	<line class="st0" x1="138.4" y1="299.6" x2="126.6" y2="286.9"/>
	<line class="st0" x1="107.1" y1="302.2" x2="126.6" y2="286.9"/>
	<line class="st0" x1="107.1" y1="302.2" x2="117.2" y2="270.5"/>
	<line class="st0" x1="107.1" y1="302.2" x2="92.4" y2="311.7"/>
	<line class="st0" x1="68.2" y1="205.5" x2="52.7" y2="209.7"/>
	<line class="st0" x1="240.2" y1="158.1" x2="229.9" y2="171.1"/>
	<line class="st0" x1="80.8" y1="195.6" x2="99.2" y2="163.8"/>
	<line class="st0" x1="80.8" y1="195.6" x2="106" y2="208.5"/>
	<line class="st0" x1="80.8" y1="195.6" x2="68.2" y2="205.5"/>
	<line class="st0" x1="80.8" y1="195.6" x2="52.7" y2="209.7"/>
	<line class="st0" x1="80.8" y1="195.6" x2="88.8" y2="180.3"/>
	<line class="st0" x1="323.7" y1="238" x2="326.1" y2="222.9"/>
	<line class="st0" x1="323.7" y1="238" x2="332.2" y2="209"/>
	<line class="st0" x1="323.7" y1="238" x2="312.7" y2="212.7"/>
	<line class="st0" x1="323.7" y1="238" x2="307.2" y2="230.2"/>
	<line class="st0" x1="307.2" y1="230.2" x2="312.9" y2="248.2"/>
	<line class="st0" x1="186.4" y1="63.5" x2="207.3" y2="57.1"/>
	<line class="st0" x1="186.4" y1="63.5" x2="175" y2="78.9"/>
	<line class="st0" x1="186.4" y1="63.5" x2="189.3" y2="84.8"/>
	<line class="st0" x1="186.4" y1="63.5" x2="200.6" y2="72.3"/>
	<line class="st0" x1="186.4" y1="63.5" x2="150.8" y2="64.3"/>
	<line class="st0" x1="189.3" y1="84.8" x2="207.3" y2="57.1"/>
	<line class="st0" x1="189.3" y1="84.8" x2="175" y2="78.9"/>
	<line class="st0" x1="189.3" y1="84.8" x2="200.6" y2="72.3"/>
	<line class="st0" x1="189.3" y1="84.8" x2="164.8" y2="95"/>
	<line class="st0" x1="278.6" y1="254.7" x2="292.9" y2="262.7"/>
	<line class="st0" x1="278.6" y1="254.7" x2="267.9" y2="269.1"/>
	<line class="st0" x1="278.6" y1="254.7" x2="281.8" y2="276.7"/>
	<line class="st0" x1="278.6" y1="254.7" x2="297.6" y2="279.5"/>
	<line class="st0" x1="281.8" y1="276.7" x2="267.9" y2="269.1"/>
	<line class="st0" x1="62.3" y1="242.1" x2="82.2" y2="272.3"/>
	<line class="st0" x1="62.3" y1="242.1" x2="54.8" y2="256.7"/>
	<line class="st0" x1="62.3" y1="242.1" x2="37.8" y2="257.9"/>
	<line class="st0" x1="62.3" y1="242.1" x2="44.9" y2="241.2"/>
	<line class="st0" x1="62.3" y1="242.1" x2="71.6" y2="257.1"/>
	<line class="st0" x1="44.9" y1="241.2" x2="54.8" y2="256.7"/>
	<line class="st0" x1="44.9" y1="241.2" x2="37.8" y2="257.9"/>
	<line class="st0" x1="44.9" y1="241.2" x2="28.4" y2="241.5"/>
	<line class="st0" x1="116.7" y1="191.7" x2="99.2" y2="163.8"/>
	<line class="st0" x1="116.7" y1="191.7" x2="122.1" y2="208.8"/>
	<line class="st0" x1="116.7" y1="191.7" x2="138.2" y2="210.6"/>
	<line class="st0" x1="116.7" y1="191.7" x2="99.4" y2="194.2"/>
	<line class="st0" x1="116.7" y1="191.7" x2="106.8" y2="177.3"/>
	<line class="st0" x1="110.1" y1="286.1" x2="122.1" y2="305.4"/>
	<line class="st0" x1="110.1" y1="286.1" x2="107.1" y2="302.2"/>
	<line class="st0" x1="110.1" y1="286.1" x2="133.3" y2="269"/>
	<line class="st0" x1="110.1" y1="286.1" x2="126.6" y2="286.9"/>
	<line class="st0" x1="110.1" y1="286.1" x2="117.2" y2="270.5"/>
	<line class="st0" x1="110.1" y1="286.1" x2="99.6" y2="272.4"/>
	<line class="st0" x1="54.5" y1="192.2" x2="30.1" y2="180.8"/>
	<line class="st0" x1="54.5" y1="192.2" x2="45.9" y2="177.5"/>
	<line class="st0" x1="66.8" y1="56.9" x2="68.2" y2="75.6"/>
	<line class="st0" x1="335.3" y1="171.9" x2="321" y2="196.3"/>
	<line class="st0" x1="335.3" y1="171.9" x2="320" y2="178.3"/>
	<line class="st0" x1="157.8" y1="141.7" x2="156" y2="169.2"/>
	<line class="st0" x1="157.8" y1="141.7" x2="166.3" y2="158.1"/>
	<line class="st0" x1="157.8" y1="141.7" x2="146.9" y2="153.3"/>
	<line class="st0" x1="108.4" y1="256.1" x2="126.4" y2="253.2"/>
	<line class="st0" x1="282.3" y1="76.2" x2="243.1" y2="48.1"/>
	<line class="st0" x1="282.3" y1="76.2" x2="266.4" y2="83"/>
	<line class="st0" x1="282.3" y1="76.2" x2="256.9" y2="56.2"/>
	<line class="st0" x1="282.3" y1="76.2" x2="252.2" y2="73.2"/>
	<line class="st0" x1="59.8" y1="226.1" x2="88.9" y2="256.3"/>
	<line class="st0" x1="59.8" y1="226.1" x2="74.9" y2="222"/>
	<line class="st0" x1="203.6" y1="317.9" x2="216.6" y2="330.4"/>
	<line class="st0" x1="115.4" y1="239.4" x2="106" y2="208.5"/>
	<line class="st0" x1="115.4" y1="239.4" x2="126.5" y2="225.7"/>
	<line class="st0" x1="115.4" y1="239.4" x2="136.3" y2="239.8"/>
	<line class="st0" x1="115.4" y1="239.4" x2="89.3" y2="211"/>
	<line class="st0" x1="115.4" y1="239.4" x2="79.3" y2="239.9"/>
	<line class="st0" x1="126.5" y1="225.7" x2="106" y2="208.5"/>
	<line class="st0" x1="20.9" y1="126.4" x2="18" y2="143"/>
	<line class="st0" x1="50.2" y1="122.5" x2="36.8" y2="129.8"/>
	<line class="st0" x1="50.2" y1="122.5" x2="45.8" y2="107"/>
	<line class="st0" x1="50.2" y1="122.5" x2="54.3" y2="139.6"/>
	<line class="st0" x1="50.2" y1="122.5" x2="63.5" y2="109.2"/>
	<line class="st0" x1="139.5" y1="135.6" x2="152.1" y2="124.3"/>
	<line class="st0" x1="119.9" y1="134.3" x2="132.9" y2="120.2"/>
	<line class="st0" x1="119.9" y1="134.3" x2="108.8" y2="147.6"/>
	<line class="st0" x1="119.9" y1="134.3" x2="116.6" y2="117"/>
	<line class="st0" x1="119.9" y1="134.3" x2="103.4" y2="127.5"/>
	<line class="st0" x1="116.6" y1="117" x2="108.8" y2="147.6"/>
	<line class="st0" x1="116.6" y1="117" x2="112.9" y2="100.8"/>
	<line class="st0" x1="116.6" y1="117" x2="130.7" y2="102.7"/>
	<line class="st0" x1="67.2" y1="153.5" x2="99.2" y2="163.8"/>
	<line class="st0" x1="67.2" y1="153.5" x2="58.8" y2="168.3"/>
	<line class="st0" x1="67.2" y1="153.5" x2="84.1" y2="124.3"/>
	<line class="st0" x1="67.2" y1="153.5" x2="76.8" y2="168.7"/>
	<line class="st0" x1="67.2" y1="153.5" x2="68.7" y2="183.5"/>
	<line class="st0" x1="67.2" y1="153.5" x2="66.8" y2="126"/>
	<line class="st0" x1="99.4" y1="194.2" x2="138.2" y2="210.6"/>
	<line class="st0" x1="320.6" y1="106.3" x2="327.3" y2="122.4"/>
	<line class="st0" x1="152.1" y1="124.3" x2="165.4" y2="111.5"/>
	<line class="st0" x1="152.1" y1="124.3" x2="145.8" y2="93.2"/>
	<line class="st0" x1="220.5" y1="90.4" x2="234.1" y2="79.6"/>
	<line class="st0" x1="220.5" y1="90.4" x2="205" y2="89.9"/>
	<line class="st0" x1="220.5" y1="90.4" x2="248.8" y2="109.7"/>
	<line class="st0" x1="220.5" y1="90.4" x2="214.4" y2="106.3"/>
	<line class="st0" x1="214.4" y1="106.3" x2="234.1" y2="79.6"/>
	<line class="st0" x1="214.4" y1="106.3" x2="205" y2="89.9"/>
	<line class="st0" x1="77.8" y1="303.2" x2="61.5" y2="290"/>
	<line class="st0" x1="155" y1="302.2" x2="152.8" y2="318.1"/>
	<line class="st0" x1="152.8" y1="318.1" x2="172.1" y2="306"/>
	<line class="st0" x1="188.2" y1="230.1" x2="167.1" y2="225.9"/>
	<line class="st0" x1="188.2" y1="230.1" x2="194.5" y2="247.4"/>
	<line class="st0" x1="179.5" y1="336.2" x2="186.4" y2="320"/>
	<line class="st0" x1="179.5" y1="336.2" x2="198.3" y2="334"/>
	<line class="st0" x1="212.5" y1="281.8" x2="223.9" y2="294.2"/>
	<line class="st0" x1="295.1" y1="90.7" x2="279.3" y2="94"/>
	<line class="st0" x1="199.9" y1="218.4" x2="218.2" y2="220.9"/>
	<line class="st0" x1="253.9" y1="279" x2="267.7" y2="288.9"/>
	<line class="st0" x1="253.9" y1="279" x2="245.3" y2="250.8"/>
	<line class="st0" x1="253.9" y1="279" x2="244.5" y2="266.8"/>
	<line class="st0" x1="71.6" y1="257.1" x2="54.8" y2="256.7"/>
	<line class="st0" x1="71.6" y1="257.1" x2="37.8" y2="257.9"/>
	<line class="st0" x1="71.6" y1="257.1" x2="44.9" y2="241.2"/>
	<line class="st0" x1="86.3" y1="154.8" x2="93.5" y2="140.3"/>
	<line class="st0" x1="297.6" y1="279.5" x2="292.9" y2="262.7"/>
	<line class="st0" x1="297.6" y1="279.5" x2="267.9" y2="269.1"/>
	<line class="st0" x1="297.6" y1="279.5" x2="281.8" y2="276.7"/>
	<line class="st0" x1="159.9" y1="15.5" x2="147.2" y2="32.9"/>
	<line class="st0" x1="159.9" y1="15.5" x2="176.1" y2="13.8"/>
	<line class="st0" x1="159.9" y1="15.5" x2="163.8" y2="32.4"/>
	<line class="st0" x1="334.1" y1="155.7" x2="331.5" y2="140"/>
	<line class="st0" x1="334.1" y1="155.7" x2="335.7" y2="188.8"/>
	<line class="st0" x1="226.7" y1="22.1" x2="211" y2="19.2"/>
	<line class="st0" x1="44.9" y1="82.5" x2="34.6" y2="95.2"/>
	<line class="st0" x1="126.6" y1="286.9" x2="133.3" y2="269"/>
	<line class="st0" x1="126.6" y1="286.9" x2="144.6" y2="284.2"/>
	<line class="st0" x1="126.6" y1="286.9" x2="99.6" y2="272.4"/>
	<line class="st0" x1="216.8" y1="266.2" x2="245.3" y2="250.8"/>
	<line class="st0" x1="216.8" y1="266.2" x2="244.5" y2="266.8"/>
	<line class="st0" x1="216.8" y1="266.2" x2="223.9" y2="294.2"/>
	<line class="st0" x1="216.8" y1="266.2" x2="212.5" y2="281.8"/>
	<line class="st0" x1="216.8" y1="266.2" x2="253.9" y2="279"/>
	<line class="st0" x1="216.8" y1="266.2" x2="183" y2="258.2"/>
	<line class="st0" x1="153" y1="196.5" x2="157.4" y2="212.5"/>
	<line class="st0" x1="153" y1="196.5" x2="180.3" y2="214.5"/>
	<line class="st0" x1="153" y1="196.5" x2="136.3" y2="166.4"/>
	<line class="st0" x1="153" y1="196.5" x2="134.6" y2="194"/>
	<line class="st0" x1="153" y1="196.5" x2="165.6" y2="185.6"/>
	<line class="st0" x1="153" y1="196.5" x2="146.2" y2="225.7"/>
	<line class="st0" x1="153" y1="196.5" x2="176.4" y2="146.6"/>
	<line class="st0" x1="143.9" y1="49.2" x2="147.2" y2="32.9"/>
	<line class="st0" x1="143.9" y1="49.2" x2="161.7" y2="49.8"/>
	<line class="st0" x1="143.9" y1="49.2" x2="130.3" y2="58.1"/>
	<line class="st0" x1="236" y1="96.1" x2="251.8" y2="91.2"/>
	<line class="st0" x1="236" y1="96.1" x2="264.6" y2="104.1"/>
	<line class="st0" x1="236" y1="96.1" x2="234.1" y2="79.6"/>
	<line class="st0" x1="236" y1="96.1" x2="205" y2="89.9"/>
	<line class="st0" x1="236" y1="96.1" x2="220.5" y2="90.4"/>
	<line class="st0" x1="236" y1="96.1" x2="214.4" y2="106.3"/>
	<line class="st0" x1="236" y1="96.1" x2="218.4" y2="72.3"/>
	<line class="st0" x1="269.6" y1="223.3" x2="288.7" y2="228.9"/>
	<line class="st0" x1="296.1" y1="245.6" x2="309.6" y2="264"/>
	<line class="st0" x1="99.6" y1="272.4" x2="133.3" y2="269"/>
	<line class="st0" x1="103.4" y1="127.5" x2="132.9" y2="120.2"/>
	<line class="st0" x1="103.4" y1="127.5" x2="108.8" y2="147.6"/>
	<line class="st0" x1="103.4" y1="127.5" x2="116.6" y2="117"/>
	<line class="st0" x1="199.2" y1="142.3" x2="187.8" y2="157.7"/>
	<line class="st0" x1="45.9" y1="177.5" x2="30.1" y2="180.8"/>
	<line class="st0" x1="183.2" y1="116.8" x2="215.3" y2="139.4"/>
	<line class="st0" x1="183.2" y1="116.8" x2="197.3" y2="106.3"/>
	<line class="st0" x1="183.2" y1="116.8" x2="201.7" y2="122.6"/>
	<line class="st0" x1="125.1" y1="177.3" x2="117.7" y2="161.6"/>
	<line class="st0" x1="89.3" y1="211" x2="106" y2="208.5"/>
	<line class="st0" x1="89.3" y1="211" x2="126.5" y2="225.7"/>
	<line class="st0" x1="112.9" y1="100.8" x2="130.7" y2="102.7"/>
	<line class="st0" x1="156.7" y1="239.4" x2="188.2" y2="230.1"/>
	<line class="st0" x1="156.7" y1="239.4" x2="167.1" y2="225.9"/>
	<line class="st0" x1="171.3" y1="201.4" x2="192.3" y2="202.8"/>
	<line class="st0" x1="165.4" y1="111.5" x2="145.8" y2="93.2"/>
	<line class="st0" x1="32.5" y1="163.6" x2="16.2" y2="159.2"/>
	<line class="st0" x1="274.4" y1="194" x2="287" y2="182.3"/>
	<line class="st0" x1="229.5" y1="38" x2="223.8" y2="54.5"/>
	<line class="st0" x1="229.5" y1="38" x2="207.3" y2="57.1"/>
	<line class="st0" x1="158.7" y1="335.3" x2="135.3" y2="316.1"/>
	<line class="st0" x1="158.7" y1="335.3" x2="140.9" y2="332.3"/>
	<line class="st0" x1="256.9" y1="56.2" x2="245.1" y2="29.8"/>
	<line class="st0" x1="256.9" y1="56.2" x2="266.4" y2="83"/>
	<line class="st0" x1="169" y1="64.2" x2="157.3" y2="79.9"/>
	<line class="st0" x1="335.7" y1="188.8" x2="331.5" y2="140"/>
	<line class="st0" x1="184.8" y1="188.2" x2="243.5" y2="199.1"/>
	<line class="st0" x1="176.5" y1="172.4" x2="184.8" y2="188.2"/>
	<line class="st0" x1="198.3" y1="334" x2="219.9" y2="313"/>
	<line class="st0" x1="198.3" y1="334" x2="203.6" y2="317.9"/>
	<line class="st0" x1="198.3" y1="334" x2="216.6" y2="330.4"/>
	<line class="st0" x1="106.8" y1="177.3" x2="99.2" y2="163.8"/>
	<line class="st0" x1="240.2" y1="289.4" x2="268.4" y2="306.4"/>
	<line class="st0" x1="240.2" y1="289.4" x2="230.4" y2="275.7"/>
	<line class="st0" x1="240.2" y1="289.4" x2="223.9" y2="294.2"/>
	<line class="st0" x1="240.2" y1="289.4" x2="212.5" y2="281.8"/>
	<line class="st0" x1="240.2" y1="289.4" x2="216.8" y2="266.2"/>
	<line class="st0" x1="183.2" y1="274.3" x2="196.6" y2="285.3"/>
	<line class="st0" x1="183.2" y1="274.3" x2="146.7" y2="253.4"/>
	<line class="st0" x1="47.6" y1="274" x2="82.2" y2="272.3"/>
	<line class="st0" x1="74.9" y1="222" x2="88.9" y2="256.3"/>
	<line class="st0" x1="172.1" y1="306" x2="162.6" y2="287.8"/>
	<line class="st0" x1="172.1" y1="306" x2="179.2" y2="290.8"/>
	<line class="st0" x1="288.1" y1="59.2" x2="260.6" y2="38.9"/>
	<line class="st0" x1="288.1" y1="59.2" x2="274.4" y2="48.1"/>
	<line class="st0" x1="306.1" y1="191.6" x2="292.1" y2="198"/>
	<line class="st0" x1="306.1" y1="191.6" x2="301.6" y2="156.5"/>
	<line class="st0" x1="206.5" y1="234.4" x2="188.2" y2="230.1"/>
	<line class="st0" x1="250" y1="142.6" x2="240.2" y2="158.1"/>
	<line class="st0" x1="48.4" y1="155.7" x2="76.8" y2="168.7"/>
	<line class="st0" x1="48.4" y1="155.7" x2="75.1" y2="140"/>
	<line class="st0" x1="122.5" y1="326.6" x2="107.5" y2="320.1"/>
	<line class="st0" x1="175.7" y1="240.7" x2="199.9" y2="218.4"/>
	<line class="st0" x1="198" y1="31.1" x2="211" y2="19.2"/>
	<line class="st0" x1="198" y1="31.1" x2="194.4" y2="47.1"/>
	<line class="st0" x1="198" y1="31.1" x2="226.7" y2="22.1"/>
	<line class="st0" x1="198" y1="31.1" x2="178.6" y2="46.3"/>
	<line class="st0" x1="201.7" y1="122.6" x2="197.3" y2="106.3"/>
	<line class="st0" x1="201.7" y1="122.6" x2="181.2" y2="99.7"/>
	<line class="st0" x1="14.3" y1="175.3" x2="16.2" y2="159.2"/>
	<line class="st0" x1="14.3" y1="175.3" x2="32.5" y2="163.6"/>
	<line class="st0" x1="199.7" y1="265.6" x2="206.5" y2="234.4"/>
	<line class="st0" x1="54" y1="68.4" x2="79.5" y2="45.8"/>
	<line class="st0" x1="63.8" y1="272.9" x2="62.3" y2="242.1"/>
	<line class="st0" x1="169.5" y1="322.5" x2="179.5" y2="336.2"/>
	<line class="st0" x1="315.7" y1="142.9" x2="318" y2="160.8"/>
	<path d="M237.7,307.4c0-1.1-0.9-1.9-1.9-1.9c-1.1,0-1.9,0.9-1.9,1.9c0,1.1,0.9,1.9,1.9,1.9C236.9,309.4,237.7,308.5,237.7,307.4"/>
	<path d="M236.2,324.7c0-1.1-0.9-1.9-1.9-1.9c-1.1,0-1.9,0.9-1.9,1.9c0,1.1,0.9,1.9,1.9,1.9C235.4,326.6,236.2,325.7,236.2,324.7"/>
	<path d="M98.6,51.8c0-1.1-0.9-1.9-1.9-1.9c-1.1,0-1.9,0.9-1.9,1.9c0,1.1,0.9,1.9,1.9,1.9C97.7,53.7,98.6,52.8,98.6,51.8"/>
	<path d="M122.3,71.4c0-1.1-0.9-1.9-1.9-1.9c-1.1,0-1.9,0.9-1.9,1.9c0,1.1,0.9,1.9,1.9,1.9C121.4,73.4,122.3,72.5,122.3,71.4"/>
	<path d="M181.9,29.2c0-1.1-0.9-1.9-1.9-1.9c-1.1,0-1.9,0.9-1.9,1.9c0,1.1,0.9,1.9,1.9,1.9C181,31.2,181.9,30.3,181.9,29.2"/>
	<path d="M149.2,32.9c0-1.1-0.9-1.9-1.9-1.9c-1.1,0-1.9,0.9-1.9,1.9c0,1.1,0.9,1.9,1.9,1.9C148.3,34.9,149.2,34,149.2,32.9"/>
	<path d="M234.1,142.1c0-1.1-0.9-1.9-1.9-1.9c-1.1,0-1.9,0.9-1.9,1.9c0,1.1,0.9,1.9,1.9,1.9C233.3,144.1,234.1,143.2,234.1,142.1"/>
	<path d="M232.9,112.1c0-1.1-0.9-1.9-1.9-1.9c-1.1,0-1.9,0.9-1.9,1.9c0,1.1,0.9,1.9,1.9,1.9C232.1,114.1,232.9,113.2,232.9,112.1"/>
	<path d="M245,48.1c0-1.1-0.9-1.9-1.9-1.9c-1.1,0-1.9,0.9-1.9,1.9c0,1.1,0.9,1.9,1.9,1.9C244.1,50,245,49.2,245,48.1"/>
	<path d="M247.1,29.8c0-1.1-0.9-1.9-1.9-1.9c-1.1,0-1.9,0.9-1.9,1.9c0,1.1,0.9,1.9,1.9,1.9C246.2,31.7,247.1,30.8,247.1,29.8"/>
	<path d="M20,208.7c0-1.1-0.9-1.9-1.9-1.9c-1.1,0-1.9,0.9-1.9,1.9c0,1.1,0.9,1.9,1.9,1.9C19.1,210.6,20,209.8,20,208.7"/>
	<path d="M43.3,224.9c0-1.1-0.9-1.9-1.9-1.9c-1.1,0-1.9,0.9-1.9,1.9c0,1.1,0.9,1.9,1.9,1.9C42.4,226.9,43.3,226,43.3,224.9"/>
	<path d="M101.1,163.8c0-1.1-0.9-1.9-1.9-1.9c-1.1,0-1.9,0.9-1.9,1.9c0,1.1,0.9,1.9,1.9,1.9C100.2,165.7,101.1,164.8,101.1,163.8"/>
	<path d="M95.5,140.3c0-1.1-0.9-1.9-1.9-1.9c-1.1,0-1.9,0.9-1.9,1.9c0,1.1,0.9,1.9,1.9,1.9C94.6,142.3,95.5,141.4,95.5,140.3"/>
	<path d="M294.9,262.7c0-1.1-0.9-1.9-1.9-1.9c-1.1,0-1.9,0.9-1.9,1.9c0,1.1,0.9,1.9,1.9,1.9C294,264.7,294.9,263.8,294.9,262.7"/>
	<path d="M269.8,269.1c0-1.1-0.9-1.9-1.9-1.9c-1.1,0-1.9,0.9-1.9,1.9c0,1.1,0.9,1.9,1.9,1.9C268.9,271,269.8,270.2,269.8,269.1"/>
	<path d="M269.6,140.5c0-1.1-0.9-1.9-1.9-1.9c-1.1,0-1.9,0.9-1.9,1.9c0,1.1,0.9,1.9,1.9,1.9C268.7,142.4,269.6,141.5,269.6,140.5"/>
	<path d="M272,120.8c0-1.1-0.9-1.9-1.9-1.9c-1.1,0-1.9,0.9-1.9,1.9c0,1.1,0.9,1.9,1.9,1.9C271.1,122.7,272,121.8,272,120.8"/>
	<path d="M328,222.9c0-1.1-0.9-1.9-1.9-1.9c-1.1,0-1.9,0.9-1.9,1.9c0,1.1,0.9,1.9,1.9,1.9C327.1,224.9,328,224,328,222.9"/>
	<path d="M334.2,209c0-1.1-0.9-1.9-1.9-1.9c-1.1,0-1.9,0.9-1.9,1.9c0,1.1,0.9,1.9,1.9,1.9C333.3,210.9,334.2,210.1,334.2,209"/>
	<path d="M188.4,320c0-1.1-0.9-1.9-1.9-1.9c-1.1,0-1.9,0.9-1.9,1.9c0,1.1,0.9,1.9,1.9,1.9C187.5,322,188.4,321.1,188.4,320"/>
	<path d="M192.9,303.5c0-1.1-0.9-1.9-1.9-1.9c-1.1,0-1.9,0.9-1.9,1.9c0,1.1,0.9,1.9,1.9,1.9C192,305.5,192.9,304.6,192.9,303.5"/>
	<path d="M253.7,91.2c0-1.1-0.9-1.9-1.9-1.9c-1.1,0-1.9,0.9-1.9,1.9c0,1.1,0.9,1.9,1.9,1.9C252.8,93.2,253.7,92.3,253.7,91.2"/>
	<path d="M266.6,104.1c0-1.1-0.9-1.9-1.9-1.9c-1.1,0-1.9,0.9-1.9,1.9c0,1.1,0.9,1.9,1.9,1.9C265.7,106,266.6,105.2,266.6,104.1"/>
	<path d="M159.3,212.5c0-1.1-0.9-1.9-1.9-1.9c-1.1,0-1.9,0.9-1.9,1.9c0,1.1,0.9,1.9,1.9,1.9C158.4,214.4,159.3,213.6,159.3,212.5"/>
	<path d="M182.2,214.5c0-1.1-0.9-1.9-1.9-1.9c-1.1,0-1.9,0.9-1.9,1.9c0,1.1,0.9,1.9,1.9,1.9C181.4,216.4,182.2,215.6,182.2,214.5"/>
	<path d="M245.5,199.1c0-1.1-0.9-1.9-1.9-1.9c-1.1,0-1.9,0.9-1.9,1.9c0,1.1,0.9,1.9,1.9,1.9C244.6,201,245.5,200.1,245.5,199.1"/>
	<path d="M194.3,202.8c0-1.1-0.9-1.9-1.9-1.9c-1.1,0-1.9,0.9-1.9,1.9c0,1.1,0.9,1.9,1.9,1.9C193.4,204.8,194.3,203.9,194.3,202.8"/>
	<path d="M85,62.9c0-1.1-0.9-1.9-1.9-1.9c-1.1,0-1.9,0.9-1.9,1.9c0,1.1,0.9,1.9,1.9,1.9C84.1,64.8,85,64,85,62.9"/>
	<path d="M81.4,45.8c0-1.1-0.9-1.9-1.9-1.9c-1.1,0-1.9,0.9-1.9,1.9c0,1.1,0.9,1.9,1.9,1.9C80.6,47.7,81.4,46.9,81.4,45.8"/>
	<path d="M116.5,41.9c0-1.1-0.9-1.9-1.9-1.9c-1.1,0-1.9,0.9-1.9,1.9c0,1.1,0.9,1.9,1.9,1.9C115.6,43.9,116.5,43,116.5,41.9"/>
	<path d="M113.5,26.7c0-1.1-0.9-1.9-1.9-1.9c-1.1,0-1.9,0.9-1.9,1.9c0,1.1,0.9,1.9,1.9,1.9C112.6,28.7,113.5,27.8,113.5,26.7"/>
	<path d="M306.1,174c0-1.1-0.9-1.9-1.9-1.9c-1.1,0-1.9,0.9-1.9,1.9c0,1.1,0.9,1.9,1.9,1.9C305.2,175.9,306.1,175.1,306.1,174"/>
	<path d="M320,160.8c0-1.1-0.9-1.9-1.9-1.9c-1.1,0-1.9,0.9-1.9,1.9c0,1.1,0.9,1.9,1.9,1.9C319.1,162.7,320,161.8,320,160.8"/>
	<path d="M225.7,54.5c0-1.1-0.9-1.9-1.9-1.9c-1.1,0-1.9,0.9-1.9,1.9c0,1.1,0.9,1.9,1.9,1.9C224.9,56.5,225.7,55.6,225.7,54.5"/>
	<path d="M196.4,14.8c0-1.1-0.9-1.9-1.9-1.9c-1.1,0-1.9,0.9-1.9,1.9c0,1.1,0.9,1.9,1.9,1.9C195.5,16.8,196.4,15.9,196.4,14.8"/>
	<path d="M213,19.2c0-1.1-0.9-1.9-1.9-1.9c-1.1,0-1.9,0.9-1.9,1.9c0,1.1,0.9,1.9,1.9,1.9C212.1,21.1,213,20.3,213,19.2"/>
	<path d="M171.1,129.7c0-1.1-0.9-1.9-1.9-1.9c-1.1,0-1.9,0.9-1.9,1.9c0,1.1,0.9,1.9,1.9,1.9C170.2,131.6,171.1,130.8,171.1,129.7"/>
	<path d="M157.9,169.2c0-1.1-0.9-1.9-1.9-1.9c-1.1,0-1.9,0.9-1.9,1.9c0,1.1,0.9,1.9,1.9,1.9C157,171.1,157.9,170.2,157.9,169.2"/>
	<path d="M137.2,316.1c0-1.1-0.9-1.9-1.9-1.9c-1.1,0-1.9,0.9-1.9,1.9c0,1.1,0.9,1.9,1.9,1.9C136.3,318,137.2,317.1,137.2,316.1"/>
	<path d="M124,305.4c0-1.1-0.9-1.9-1.9-1.9c-1.1,0-1.9,0.9-1.9,1.9c0,1.1,0.9,1.9,1.9,1.9C123.2,307.4,124,306.5,124,305.4"/>
	<path d="M178,13.8c0-1.1-0.9-1.9-1.9-1.9c-1.1,0-1.9,0.9-1.9,1.9c0,1.1,0.9,1.9,1.9,1.9C177.1,15.7,178,14.8,178,13.8"/>
	<path d="M25.1,224.9c0-1.1-0.9-1.9-1.9-1.9c-1.1,0-1.9,0.9-1.9,1.9c0,1.1,0.9,1.9,1.9,1.9C24.2,226.8,25.1,225.9,25.1,224.9"/>
	<path d="M36.4,210.4c0-1.1-0.9-1.9-1.9-1.9c-1.1,0-1.9,0.9-1.9,1.9c0,1.1,0.9,1.9,1.9,1.9C35.5,212.3,36.4,211.4,36.4,210.4"/>
	<path d="M287,147.1c0-1.1-0.9-1.9-1.9-1.9c-1.1,0-1.9,0.9-1.9,1.9c0,1.1,0.9,1.9,1.9,1.9C286.1,149,287,148.2,287,147.1"/>
	<path d="M301.6,137.9c0-1.1-0.9-1.9-1.9-1.9c-1.1,0-1.9,0.9-1.9,1.9c0,1.1,0.9,1.9,1.9,1.9C300.8,139.9,301.6,139,301.6,137.9"/>
	<path d="M82.7,108.3c0-1.1-0.9-1.9-1.9-1.9c-1.1,0-1.9,0.9-1.9,1.9c0,1.1,0.9,1.9,1.9,1.9C81.8,110.2,82.7,109.4,82.7,108.3"/>
	<path d="M59.8,92.4c0-1.1-0.9-1.9-1.9-1.9c-1.1,0-1.9,0.9-1.9,1.9c0,1.1,0.9,1.9,1.9,1.9C58.9,94.3,59.8,93.5,59.8,92.4"/>
	<path d="M36.4,145.8c0-1.1-0.9-1.9-1.9-1.9c-1.1,0-1.9,0.9-1.9,1.9c0,1.1,0.9,1.9,1.9,1.9C35.6,147.8,36.4,146.9,36.4,145.8"/>
	<path d="M38.7,129.8c0-1.1-0.9-1.9-1.9-1.9c-1.1,0-1.9,0.9-1.9,1.9c0,1.1,0.9,1.9,1.9,1.9C37.9,131.8,38.7,130.9,38.7,129.8"/>
	<path d="M134.9,120.2c0-1.1-0.9-1.9-1.9-1.9c-1.1,0-1.9,0.9-1.9,1.9c0,1.1,0.9,1.9,1.9,1.9C134,122.1,134.9,121.2,134.9,120.2"/>
	<path d="M110.7,147.6c0-1.1-0.9-1.9-1.9-1.9c-1.1,0-1.9,0.9-1.9,1.9c0,1.1,0.9,1.9,1.9,1.9C109.8,149.6,110.7,148.7,110.7,147.6"/>
	<path d="M198.5,285.3c0-1.1-0.9-1.9-1.9-1.9c-1.1,0-1.9,0.9-1.9,1.9c0,1.1,0.9,1.9,1.9,1.9C197.7,287.3,198.5,286.4,198.5,285.3"/>
	<path d="M221.8,313c0-1.1-0.9-1.9-1.9-1.9c-1.1,0-1.9,0.9-1.9,1.9c0,1.1,0.9,1.9,1.9,1.9C220.9,315,221.8,314.1,221.8,313"/>
	<path d="M168.6,271.7c0-1.1-0.9-1.9-1.9-1.9c-1.1,0-1.9,0.9-1.9,1.9c0,1.1,0.9,1.9,1.9,1.9C167.7,273.6,168.6,272.8,168.6,271.7"/>
	<path d="M152.7,268.7c0-1.1-0.9-1.9-1.9-1.9c-1.1,0-1.9,0.9-1.9,1.9c0,1.1,0.9,1.9,1.9,1.9C151.8,270.6,152.7,269.8,152.7,268.7"/>
	<path d="M270.3,306.4c0-1.1-0.9-1.9-1.9-1.9c-1.1,0-1.9,0.9-1.9,1.9c0,1.1,0.9,1.9,1.9,1.9C269.4,308.3,270.3,307.4,270.3,306.4"/>
	<path d="M269.7,288.9c0-1.1-0.9-1.9-1.9-1.9c-1.1,0-1.9,0.9-1.9,1.9c0,1.1,0.9,1.9,1.9,1.9C268.8,290.8,269.7,289.9,269.7,288.9"/>
	<path d="M141.5,75.8c0-1.1-0.9-1.9-1.9-1.9c-1.1,0-1.9,0.9-1.9,1.9c0,1.1,0.9,1.9,1.9,1.9C140.6,77.7,141.5,76.9,141.5,75.8"/>
	<path d="M159.3,79.9c0-1.1-0.9-1.9-1.9-1.9c-1.1,0-1.9,0.9-1.9,1.9c0,1.1,0.9,1.9,1.9,1.9C158.4,81.9,159.3,81,159.3,79.9"/>
	<path d="M188.9,132.9c0-1.1-0.9-1.9-1.9-1.9c-1.1,0-1.9,0.9-1.9,1.9c0,1.1,0.9,1.9,1.9,1.9C188,134.9,188.9,134,188.9,132.9"/>
	<path d="M189.8,157.7c0-1.1-0.9-1.9-1.9-1.9c-1.1,0-1.9,0.9-1.9,1.9c0,1.1,0.9,1.9,1.9,1.9C188.9,159.6,189.8,158.8,189.8,157.7"/>
	<path d="M119.7,161.6c0-1.1-0.9-1.9-1.9-1.9c-1.1,0-1.9,0.9-1.9,1.9c0,1.1,0.9,1.9,1.9,1.9C118.8,163.5,119.7,162.6,119.7,161.6"/>
	<path d="M99.2,242.6c0-1.1-0.9-1.9-1.9-1.9c-1.1,0-1.9,0.9-1.9,1.9c0,1.1,0.9,1.9,1.9,1.9C98.3,244.6,99.2,243.7,99.2,242.6"/>
	<path d="M90.9,256.3c0-1.1-0.9-1.9-1.9-1.9c-1.1,0-1.9,0.9-1.9,1.9c0,1.1,0.9,1.9,1.9,1.9C90,258.2,90.9,257.3,90.9,256.3"/>
	<path d="M253.7,172.9c0-1.1-0.9-1.9-1.9-1.9c-1.1,0-1.9,0.9-1.9,1.9c0,1.1,0.9,1.9,1.9,1.9C252.8,174.9,253.7,174,253.7,172.9"/>
	<path d="M107.9,208.5c0-1.1-0.9-1.9-1.9-1.9c-1.1,0-1.9,0.9-1.9,1.9c0,1.1,0.9,1.9,1.9,1.9C107,210.5,107.9,209.6,107.9,208.5"/>
	<path d="M93.2,227.4c0-1.1-0.9-1.9-1.9-1.9c-1.1,0-1.9,0.9-1.9,1.9c0,1.1,0.9,1.9,1.9,1.9C92.3,229.4,93.2,228.5,93.2,227.4"/>
	<path d="M314.7,212.7c0-1.1-0.9-1.9-1.9-1.9c-1.1,0-1.9,0.9-1.9,1.9c0,1.1,0.9,1.9,1.9,1.9C313.8,214.6,314.7,213.8,314.7,212.7"/>
	<path d="M60.7,168.3c0-1.1-0.9-1.9-1.9-1.9c-1.1,0-1.9,0.9-1.9,1.9c0,1.1,0.9,1.9,1.9,1.9C59.9,170.2,60.7,169.4,60.7,168.3"/>
	<path d="M86,124.3c0-1.1-0.9-1.9-1.9-1.9c-1.1,0-1.9,0.9-1.9,1.9c0,1.1,0.9,1.9,1.9,1.9C85.2,126.3,86,125.4,86,124.3"/>
	<path d="M84.1,272.3c0-1.1-0.9-1.9-1.9-1.9c-1.1,0-1.9,0.9-1.9,1.9c0,1.1,0.9,1.9,1.9,1.9C83.3,274.3,84.1,273.4,84.1,272.3"/>
	<path d="M79.4,287.2c0-1.1-0.9-1.9-1.9-1.9c-1.1,0-1.9,0.9-1.9,1.9c0,1.1,0.9,1.9,1.9,1.9C78.5,289.2,79.4,288.3,79.4,287.2"/>
	<path d="M78.8,168.7c0-1.1-0.9-1.9-1.9-1.9c-1.1,0-1.9,0.9-1.9,1.9c0,1.1,0.9,1.9,1.9,1.9C77.9,170.7,78.8,169.8,78.8,168.7"/>
	<path d="M70.6,183.5c0-1.1-0.9-1.9-1.9-1.9c-1.1,0-1.9,0.9-1.9,1.9c0,1.1,0.9,1.9,1.9,1.9C69.8,185.5,70.6,184.6,70.6,183.5"/>
	<path d="M236,79.6c0-1.1-0.9-1.9-1.9-1.9c-1.1,0-1.9,0.9-1.9,1.9c0,1.1,0.9,1.9,1.9,1.9C235.2,81.6,236,80.7,236,79.6"/>
	<path d="M206.9,89.9c0-1.1-0.9-1.9-1.9-1.9c-1.1,0-1.9,0.9-1.9,1.9c0,1.1,0.9,1.9,1.9,1.9C206,91.8,206.9,90.9,206.9,89.9"/>
	<path d="M247.2,250.8c0-1.1-0.9-1.9-1.9-1.9c-1.1,0-1.9,0.9-1.9,1.9c0,1.1,0.9,1.9,1.9,1.9C246.3,252.7,247.2,251.8,247.2,250.8"/>
	<path d="M246.5,266.8c0-1.1-0.9-1.9-1.9-1.9c-1.1,0-1.9,0.9-1.9,1.9c0,1.1,0.9,1.9,1.9,1.9C245.6,268.8,246.5,267.9,246.5,266.8"/>
	<path d="M314.8,248.2c0-1.1-0.9-1.9-1.9-1.9c-1.1,0-1.9,0.9-1.9,1.9c0,1.1,0.9,1.9,1.9,1.9C314,250.1,314.8,249.3,314.8,248.2"/>
	<path d="M306.6,105c0-1.1-0.9-1.9-1.9-1.9c-1.1,0-1.9,0.9-1.9,1.9c0,1.1,0.9,1.9,1.9,1.9C305.8,106.9,306.6,106.1,306.6,105"/>
	<path d="M313.9,124.9c0-1.1-0.9-1.9-1.9-1.9c-1.1,0-1.9,0.9-1.9,1.9c0,1.1,0.9,1.9,1.9,1.9C313,126.8,313.9,125.9,313.9,124.9"/>
	<path d="M124.1,208.8c0-1.1-0.9-1.9-1.9-1.9c-1.1,0-1.9,0.9-1.9,1.9c0,1.1,0.9,1.9,1.9,1.9C123.2,210.8,124.1,209.9,124.1,208.8"/>
	<path d="M140.1,210.6c0-1.1-0.9-1.9-1.9-1.9c-1.1,0-1.9,0.9-1.9,1.9c0,1.1,0.9,1.9,1.9,1.9C139.2,212.5,140.1,211.7,140.1,210.6"/>
	<path d="M56.8,256.7c0-1.1-0.9-1.9-1.9-1.9c-1.1,0-1.9,0.9-1.9,1.9c0,1.1,0.9,1.9,1.9,1.9C55.9,258.7,56.8,257.8,56.8,256.7"/>
	<path d="M39.7,257.9c0-1.1-0.9-1.9-1.9-1.9c-1.1,0-1.9,0.9-1.9,1.9c0,1.1,0.9,1.9,1.9,1.9C38.8,259.8,39.7,258.9,39.7,257.9"/>
	<path d="M86.6,79.7c0-1.1-0.9-1.9-1.9-1.9c-1.1,0-1.9,0.9-1.9,1.9c0,1.1,0.9,1.9,1.9,1.9C85.8,81.6,86.6,80.7,86.6,79.7"/>
	<path d="M209.2,57.1c0-1.1-0.9-1.9-1.9-1.9c-1.1,0-1.9,0.9-1.9,1.9c0,1.1,0.9,1.9,1.9,1.9C208.3,59,209.2,58.2,209.2,57.1"/>
	<path d="M176.9,78.9c0-1.1-0.9-1.9-1.9-1.9c-1.1,0-1.9,0.9-1.9,1.9c0,1.1,0.9,1.9,1.9,1.9C176,80.8,176.9,80,176.9,78.9"/>
	<path d="M101.9,71.1c0-1.1-0.9-1.9-1.9-1.9c-1.1,0-1.9,0.9-1.9,1.9c0,1.1,0.9,1.9,1.9,1.9C101.1,73,101.9,72.1,101.9,71.1"/>
	<path d="M127.4,87c0-1.1-0.9-1.9-1.9-1.9c-1.1,0-1.9,0.9-1.9,1.9c0,1.1,0.9,1.9,1.9,1.9C126.6,88.9,127.4,88.1,127.4,87"/>
	<path d="M145.5,17.7c0-1.1-0.9-1.9-1.9-1.9c-1.1,0-1.9,0.9-1.9,1.9c0,1.1,0.9,1.9,1.9,1.9C144.6,19.6,145.5,18.8,145.5,17.7"/>
	<path d="M294.1,198c0-1.1-0.9-1.9-1.9-1.9c-1.1,0-1.9,0.9-1.9,1.9c0,1.1,0.9,1.9,1.9,1.9C293.2,199.9,294.1,199.1,294.1,198"/>
	<path d="M303.5,156.5c0-1.1-0.9-1.9-1.9-1.9c-1.1,0-1.9,0.9-1.9,1.9c0,1.1,0.9,1.9,1.9,1.9C302.6,158.4,303.5,157.6,303.5,156.5"/>
	<path d="M206.9,158.4c0-1.1-0.9-1.9-1.9-1.9c-1.1,0-1.9,0.9-1.9,1.9c0,1.1,0.9,1.9,1.9,1.9C206.1,160.3,206.9,159.4,206.9,158.4"/>
	<path d="M197.1,174c0-1.1-0.9-1.9-1.9-1.9c-1.1,0-1.9,0.9-1.9,1.9c0,1.1,0.9,1.9,1.9,1.9C196.2,175.9,197.1,175,197.1,174"/>
	<path d="M301.1,73.4c0-1.1-0.9-1.9-1.9-1.9c-1.1,0-1.9,0.9-1.9,1.9c0,1.1,0.9,1.9,1.9,1.9C300.2,75.3,301.1,74.5,301.1,73.4"/>
	<path d="M262.6,38.9c0-1.1-0.9-1.9-1.9-1.9c-1.1,0-1.9,0.9-1.9,1.9c0,1.1,0.9,1.9,1.9,1.9C261.7,40.9,262.6,40,262.6,38.9"/>
	<path d="M239.4,64.2c0-1.1-0.9-1.9-1.9-1.9c-1.1,0-1.9,0.9-1.9,1.9c0,1.1,0.9,1.9,1.9,1.9C238.6,66.1,239.4,65.3,239.4,64.2"/>
	<path d="M240.8,184.2c0-1.1-0.9-1.9-1.9-1.9c-1.1,0-1.9,0.9-1.9,1.9c0,1.1,0.9,1.9,1.9,1.9C239.9,186.1,240.8,185.2,240.8,184.2"/>
	<path d="M138.2,166.4c0-1.1-0.9-1.9-1.9-1.9c-1.1,0-1.9,0.9-1.9,1.9c0,1.1,0.9,1.9,1.9,1.9C137.4,168.3,138.2,167.5,138.2,166.4"/>
	<path d="M147.3,181.4c0-1.1-0.9-1.9-1.9-1.9c-1.1,0-1.9,0.9-1.9,1.9c0,1.1,0.9,1.9,1.9,1.9C146.5,183.3,147.3,182.4,147.3,181.4"/>
	<path d="M18.8,193c0-1.1-0.9-1.9-1.9-1.9c-1.1,0-1.9,0.9-1.9,1.9c0,1.1,0.9,1.9,1.9,1.9C17.9,195,18.8,194.1,18.8,193"/>
	<path d="M220.8,123.9c0-1.1-0.9-1.9-1.9-1.9c-1.1,0-1.9,0.9-1.9,1.9c0,1.1,0.9,1.9,1.9,1.9C219.9,125.8,220.8,125,220.8,123.9"/>
	<path d="M239.9,126.9c0-1.1-0.9-1.9-1.9-1.9c-1.1,0-1.9,0.9-1.9,1.9c0,1.1,0.9,1.9,1.9,1.9C239,128.8,239.9,127.9,239.9,126.9"/>
	<path d="M39.2,195.5c0-1.1-0.9-1.9-1.9-1.9c-1.1,0-1.9,0.9-1.9,1.9c0,1.1,0.9,1.9,1.9,1.9C38.3,197.4,39.2,196.5,39.2,195.5"/>
	<path d="M32,180.8c0-1.1-0.9-1.9-1.9-1.9c-1.1,0-1.9,0.9-1.9,1.9c0,1.1,0.9,1.9,1.9,1.9C31.2,182.7,32,181.8,32,180.8"/>
	<path d="M217.2,139.4c0-1.1-0.9-1.9-1.9-1.9c-1.1,0-1.9,0.9-1.9,1.9c0,1.1,0.9,1.9,1.9,1.9C216.3,141.3,217.2,140.5,217.2,139.4"/>
	<path d="M199.2,106.3c0-1.1-0.9-1.9-1.9-1.9c-1.1,0-1.9,0.9-1.9,1.9c0,1.1,0.9,1.9,1.9,1.9C198.4,108.2,199.2,107.4,199.2,106.3"/>
	<path d="M18.1,159.2c0-1.1-0.9-1.9-1.9-1.9c-1.1,0-1.9,0.9-1.9,1.9c0,1.1,0.9,1.9,1.9,1.9C17.3,161.1,18.1,160.3,18.1,159.2"/>
	<path d="M253,316.8c0-1.1-0.9-1.9-1.9-1.9c-1.1,0-1.9,0.9-1.9,1.9c0,1.1,0.9,1.9,1.9,1.9C252.2,318.8,253,317.9,253,316.8"/>
	<path d="M131.1,148.7c0-1.1-0.9-1.9-1.9-1.9c-1.1,0-1.9,0.9-1.9,1.9c0,1.1,0.9,1.9,1.9,1.9C130.2,150.7,131.1,149.8,131.1,148.7"/>
	<path d="M149.6,109.2c0-1.1-0.9-1.9-1.9-1.9c-1.1,0-1.9,0.9-1.9,1.9c0,1.1,0.9,1.9,1.9,1.9C148.8,111.1,149.6,110.2,149.6,109.2"/>
	<path d="M168.3,158.1c0-1.1-0.9-1.9-1.9-1.9s-1.9,0.9-1.9,1.9c0,1.1,0.9,1.9,1.9,1.9S168.3,159.2,168.3,158.1"/>
	<path d="M148.8,153.3c0-1.1-0.9-1.9-1.9-1.9c-1.1,0-1.9,0.9-1.9,1.9c0,1.1,0.9,1.9,1.9,1.9C148,155.2,148.8,154.3,148.8,153.3"/>
	<path d="M94.9,291.2c0-1.1-0.9-1.9-1.9-1.9c-1.1,0-1.9,0.9-1.9,1.9s0.9,1.9,1.9,1.9C94,293.1,94.9,292.2,94.9,291.2"/>
	<path d="M215.1,39.1c0-1.1-0.9-1.9-1.9-1.9c-1.1,0-1.9,0.9-1.9,1.9c0,1.1,0.9,1.9,1.9,1.9C214.2,41,215.1,40.1,215.1,39.1"/>
	<path d="M323,196.3c0-1.1-0.9-1.9-1.9-1.9c-1.1,0-1.9,0.9-1.9,1.9c0,1.1,0.9,1.9,1.9,1.9C322.1,198.2,323,197.4,323,196.3"/>
	<path d="M163.7,49.8c0-1.1-0.9-1.9-1.9-1.9c-1.1,0-1.9,0.9-1.9,1.9c0,1.1,0.9,1.9,1.9,1.9C162.8,51.8,163.7,50.9,163.7,49.8"/>
	<path d="M196.4,47.1c0-1.1-0.9-1.9-1.9-1.9s-1.9,0.9-1.9,1.9c0,1.1,0.9,1.9,1.9,1.9S196.4,48.1,196.4,47.1"/>
	<path d="M281.6,211c0-1.1-0.9-1.9-1.9-1.9c-1.1,0-1.9,0.9-1.9,1.9c0,1.1,0.9,1.9,1.9,1.9C280.7,213,281.6,212.1,281.6,211"/>
	<path d="M285.7,129.8c0-1.1-0.9-1.9-1.9-1.9c-1.1,0-1.9,0.9-1.9,1.9c0,1.1,0.9,1.9,1.9,1.9C284.8,131.7,285.7,130.8,285.7,129.8"/>
	<path d="M299.1,119.2c0-1.1-0.9-1.9-1.9-1.9c-1.1,0-1.9,0.9-1.9,1.9c0,1.1,0.9,1.9,1.9,1.9C298.2,121.2,299.1,120.3,299.1,119.2"/>
	<path d="M109.6,84.9c0-1.1-0.9-1.9-1.9-1.9c-1.1,0-1.9,0.9-1.9,1.9c0,1.1,0.9,1.9,1.9,1.9C108.7,86.9,109.6,86,109.6,84.9"/>
	<path d="M100.3,110.9c0-1.1-0.9-1.9-1.9-1.9c-1.1,0-1.9,0.9-1.9,1.9c0,1.1,0.9,1.9,1.9,1.9C99.4,112.8,100.3,112,100.3,110.9"/>
	<path d="M232.3,275.7c0-1.1-0.9-1.9-1.9-1.9c-1.1,0-1.9,0.9-1.9,1.9c0,1.1,0.9,1.9,1.9,1.9C231.4,277.7,232.3,276.8,232.3,275.7"/>
	<path d="M225.9,294.2c0-1.1-0.9-1.9-1.9-1.9c-1.1,0-1.9,0.9-1.9,1.9c0,1.1,0.9,1.9,1.9,1.9C225,296.1,225.9,295.2,225.9,294.2"/>
	<path d="M268.3,83c0-1.1-0.9-1.9-1.9-1.9c-1.1,0-1.9,0.9-1.9,1.9c0,1.1,0.9,1.9,1.9,1.9C267.5,85,268.3,84.1,268.3,83"/>
	<path d="M272.5,65.7c0-1.1-0.9-1.9-1.9-1.9c-1.1,0-1.9,0.9-1.9,1.9c0,1.1,0.9,1.9,1.9,1.9C271.7,67.7,272.5,66.8,272.5,65.7"/>
	<path d="M31.1,112c0-1.1-0.9-1.9-1.9-1.9c-1.1,0-1.9,0.9-1.9,1.9c0,1.1,0.9,1.9,1.9,1.9C30.3,114,31.1,113.1,31.1,112"/>
	<path d="M47.7,107c0-1.1-0.9-1.9-1.9-1.9c-1.1,0-1.9,0.9-1.9,1.9c0,1.1,0.9,1.9,1.9,1.9C46.9,108.9,47.7,108.1,47.7,107"/>
	<path d="M167.9,254.9c0-1.1-0.9-1.9-1.9-1.9c-1.1,0-1.9,0.9-1.9,1.9c0,1.1,0.9,1.9,1.9,1.9C167,256.9,167.9,256,167.9,254.9"/>
	<path d="M68.7,126c0-1.1-0.9-1.9-1.9-1.9c-1.1,0-1.9,0.9-1.9,1.9c0,1.1,0.9,1.9,1.9,1.9C67.8,127.9,68.7,127.1,68.7,126"/>
	<path d="M56.3,139.6c0-1.1-0.9-1.9-1.9-1.9c-1.1,0-1.9,0.9-1.9,1.9c0,1.1,0.9,1.9,1.9,1.9C55.4,141.5,56.3,140.7,56.3,139.6"/>
	<path d="M329.2,122.4c0-1.1-0.9-1.9-1.9-1.9c-1.1,0-1.9,0.9-1.9,1.9c0,1.1,0.9,1.9,1.9,1.9C328.4,124.3,329.2,123.5,329.2,122.4"/>
	<path d="M140.3,299.6c0-1.1-0.9-1.9-1.9-1.9c-1.1,0-1.9,0.9-1.9,1.9c0,1.1,0.9,1.9,1.9,1.9C139.5,301.5,140.3,300.7,140.3,299.6"/>
	<path d="M109.1,302.2c0-1.1-0.9-1.9-1.9-1.9c-1.1,0-1.9,0.9-1.9,1.9c0,1.1,0.9,1.9,1.9,1.9C108.2,304.2,109.1,303.3,109.1,302.2"/>
	<path d="M165.7,32.4c0-1.1-0.9-1.9-1.9-1.9c-1.1,0-1.9,0.9-1.9,1.9c0,1.1,0.9,1.9,1.9,1.9C164.8,34.4,165.7,33.5,165.7,32.4"/>
	<path d="M260.6,236.2c0-1.1-0.9-1.9-1.9-1.9c-1.1,0-1.9,0.9-1.9,1.9c0,1.1,0.9,1.9,1.9,1.9C259.7,238.2,260.6,237.3,260.6,236.2"/>
	<path d="M70.2,205.5c0-1.1-0.9-1.9-1.9-1.9c-1.1,0-1.9,0.9-1.9,1.9c0,1.1,0.9,1.9,1.9,1.9C69.3,207.4,70.2,206.6,70.2,205.5"/>
	<path d="M54.7,209.7c0-1.1-0.9-1.9-1.9-1.9c-1.1,0-1.9,0.9-1.9,1.9c0,1.1,0.9,1.9,1.9,1.9C53.8,211.6,54.7,210.8,54.7,209.7"/>
	<path d="M250.7,109.7c0-1.1-0.9-1.9-1.9-1.9c-1.1,0-1.9,0.9-1.9,1.9c0,1.1,0.9,1.9,1.9,1.9C249.8,111.6,250.7,110.8,250.7,109.7"/>
	<path d="M242.2,158.1c0-1.1-0.9-1.9-1.9-1.9c-1.1,0-1.9,0.9-1.9,1.9c0,1.1,0.9,1.9,1.9,1.9C241.3,160.1,242.2,159.2,242.2,158.1"/>
	<path d="M214.9,173.9c0-1.1-0.9-1.9-1.9-1.9c-1.1,0-1.9,0.9-1.9,1.9c0,1.1,0.9,1.9,1.9,1.9C214,175.8,214.9,174.9,214.9,173.9"/>
	<path d="M285.8,294.3c0-1.1-0.9-1.9-1.9-1.9c-1.1,0-1.9,0.9-1.9,1.9c0,1.1,0.9,1.9,1.9,1.9C284.9,296.3,285.8,295.4,285.8,294.3"/>
	<path d="M132.1,38.5c0-1.1-0.9-1.9-1.9-1.9c-1.1,0-1.9,0.9-1.9,1.9c0,1.1,0.9,1.9,1.9,1.9C131.2,40.4,132.1,39.5,132.1,38.5"/>
	<path d="M82.7,195.6c0-1.1-0.9-1.9-1.9-1.9c-1.1,0-1.9,0.9-1.9,1.9c0,1.1,0.9,1.9,1.9,1.9C81.9,197.6,82.7,196.7,82.7,195.6"/>
	<path d="M325.6,238c0-1.1-0.9-1.9-1.9-1.9c-1.1,0-1.9,0.9-1.9,1.9c0,1.1,0.9,1.9,1.9,1.9C324.8,239.9,325.6,239.1,325.6,238"/>
	<path d="M309.2,230.2c0-1.1-0.9-1.9-1.9-1.9c-1.1,0-1.9,0.9-1.9,1.9c0,1.1,0.9,1.9,1.9,1.9C308.3,232.1,309.2,231.2,309.2,230.2"/>
	<path d="M188.3,63.5c0-1.1-0.9-1.9-1.9-1.9c-1.1,0-1.9,0.9-1.9,1.9c0,1.1,0.9,1.9,1.9,1.9C187.4,65.5,188.3,64.6,188.3,63.5"/>
	<path d="M191.2,84.8c0-1.1-0.9-1.9-1.9-1.9c-1.1,0-1.9,0.9-1.9,1.9c0,1.1,0.9,1.9,1.9,1.9C190.3,86.7,191.2,85.8,191.2,84.8"/>
	<path d="M280.6,254.7c0-1.1-0.9-1.9-1.9-1.9c-1.1,0-1.9,0.9-1.9,1.9c0,1.1,0.9,1.9,1.9,1.9C279.7,256.6,280.6,255.7,280.6,254.7"/>
	<path d="M283.7,276.7c0-1.1-0.9-1.9-1.9-1.9c-1.1,0-1.9,0.9-1.9,1.9c0,1.1,0.9,1.9,1.9,1.9C282.8,278.6,283.7,277.7,283.7,276.7"/>
	<path d="M64.2,242.1c0-1.1-0.9-1.9-1.9-1.9c-1.1,0-1.9,0.9-1.9,1.9c0,1.1,0.9,1.9,1.9,1.9C63.4,244.1,64.2,243.2,64.2,242.1"/>
	<path d="M46.9,241.2c0-1.1-0.9-1.9-1.9-1.9c-1.1,0-1.9,0.9-1.9,1.9c0,1.1,0.9,1.9,1.9,1.9C46,243.2,46.9,242.3,46.9,241.2"/>
	<path d="M298.6,214.2c0-1.1-0.9-1.9-1.9-1.9c-1.1,0-1.9,0.9-1.9,1.9c0,1.1,0.9,1.9,1.9,1.9C297.7,216.1,298.6,215.3,298.6,214.2"/>
	<path d="M118.7,191.7c0-1.1-0.9-1.9-1.9-1.9c-1.1,0-1.9,0.9-1.9,1.9c0,1.1,0.9,1.9,1.9,1.9C117.8,193.6,118.7,192.8,118.7,191.7"/>
	<path d="M112.1,286.1c0-1.1-0.9-1.9-1.9-1.9c-1.1,0-1.9,0.9-1.9,1.9c0,1.1,0.9,1.9,1.9,1.9C111.2,288,112.1,287.1,112.1,286.1"/>
	<path d="M135.3,269c0-1.1-0.9-1.9-1.9-1.9c-1.1,0-1.9,0.9-1.9,1.9c0,1.1,0.9,1.9,1.9,1.9C134.4,270.9,135.3,270.1,135.3,269"/>
	<path d="M56.4,192.2c0-1.1-0.9-1.9-1.9-1.9c-1.1,0-1.9,0.9-1.9,1.9c0,1.1,0.9,1.9,1.9,1.9C55.6,194.1,56.4,193.3,56.4,192.2"/>
	<path d="M202.6,72.3c0-1.1-0.9-1.9-1.9-1.9c-1.1,0-1.9,0.9-1.9,1.9c0,1.1,0.9,1.9,1.9,1.9C201.7,74.2,202.6,73.3,202.6,72.3"/>
	<path d="M68.7,56.9c0-1.1-0.9-1.9-1.9-1.9c-1.1,0-1.9,0.9-1.9,1.9c0,1.1,0.9,1.9,1.9,1.9C67.9,58.8,68.7,57.9,68.7,56.9"/>
	<path d="M70.1,75.6c0-1.1-0.9-1.9-1.9-1.9c-1.1,0-1.9,0.9-1.9,1.9c0,1.1,0.9,1.9,1.9,1.9C69.2,77.5,70.1,76.7,70.1,75.6"/>
	<path d="M337.2,171.9c0-1.1-0.9-1.9-1.9-1.9c-1.1,0-1.9,0.9-1.9,1.9c0,1.1,0.9,1.9,1.9,1.9C336.4,173.8,337.2,173,337.2,171.9"/>
	<path d="M159.7,141.7c0-1.1-0.9-1.9-1.9-1.9c-1.1,0-1.9,0.9-1.9,1.9c0,1.1,0.9,1.9,1.9,1.9C158.8,143.6,159.7,142.8,159.7,141.7"/>
	<path d="M110.3,256.1c0-1.1-0.9-1.9-1.9-1.9c-1.1,0-1.9,0.9-1.9,1.9c0,1.1,0.9,1.9,1.9,1.9C109.4,258,110.3,257.2,110.3,256.1"/>
	<path d="M284.3,76.2c0-1.1-0.9-1.9-1.9-1.9c-1.1,0-1.9,0.9-1.9,1.9c0,1.1,0.9,1.9,1.9,1.9C283.4,78.1,284.3,77.3,284.3,76.2"/>
	<path d="M231.5,253.8c0-1.1-0.9-1.9-1.9-1.9c-1.1,0-1.9,0.9-1.9,1.9c0,1.1,0.9,1.9,1.9,1.9C230.6,255.7,231.5,254.9,231.5,253.8"/>
	<path d="M61.7,226.1c0-1.1-0.9-1.9-1.9-1.9c-1.1,0-1.9,0.9-1.9,1.9c0,1.1,0.9,1.9,1.9,1.9C60.9,228,61.7,227.2,61.7,226.1"/>
	<path d="M205.6,317.9c0-1.1-0.9-1.9-1.9-1.9c-1.1,0-1.9,0.9-1.9,1.9c0,1.1,0.9,1.9,1.9,1.9C204.7,319.8,205.6,318.9,205.6,317.9"/>
	<path d="M117.4,239.4c0-1.1-0.9-1.9-1.9-1.9c-1.1,0-1.9,0.9-1.9,1.9c0,1.1,0.9,1.9,1.9,1.9C116.5,241.3,117.4,240.5,117.4,239.4"/>
	<path d="M128.4,225.7c0-1.1-0.9-1.9-1.9-1.9c-1.1,0-1.9,0.9-1.9,1.9c0,1.1,0.9,1.9,1.9,1.9C127.5,227.7,128.4,226.8,128.4,225.7"/>
	<path d="M22.8,126.4c0-1.1-0.9-1.9-1.9-1.9c-1.1,0-1.9,0.9-1.9,1.9c0,1.1,0.9,1.9,1.9,1.9C21.9,128.3,22.8,127.4,22.8,126.4"/>
	<path d="M19.9,143c0-1.1-0.9-1.9-1.9-1.9c-1.1,0-1.9,0.9-1.9,1.9c0,1.1,0.9,1.9,1.9,1.9C19,144.9,19.9,144.1,19.9,143"/>
	<path d="M52.2,122.5c0-1.1-0.9-1.9-1.9-1.9c-1.1,0-1.9,0.9-1.9,1.9c0,1.1,0.9,1.9,1.9,1.9C51.3,124.5,52.2,123.6,52.2,122.5"/>
	<path d="M141.5,135.6c0-1.1-0.9-1.9-1.9-1.9c-1.1,0-1.9,0.9-1.9,1.9c0,1.1,0.9,1.9,1.9,1.9C140.6,137.6,141.5,136.7,141.5,135.6"/>
	<path d="M121.9,134.3c0-1.1-0.9-1.9-1.9-1.9c-1.1,0-1.9,0.9-1.9,1.9c0,1.1,0.9,1.9,1.9,1.9C121,136.2,121.9,135.3,121.9,134.3"/>
	<path d="M118.5,117c0-1.1-0.9-1.9-1.9-1.9c-1.1,0-1.9,0.9-1.9,1.9c0,1.1,0.9,1.9,1.9,1.9C117.7,119,118.5,118.1,118.5,117"/>
	<path d="M69.2,153.5c0-1.1-0.9-1.9-1.9-1.9c-1.1,0-1.9,0.9-1.9,1.9c0,1.1,0.9,1.9,1.9,1.9C68.3,155.4,69.2,154.5,69.2,153.5"/>
	<path d="M101.3,194.2c0-1.1-0.9-1.9-1.9-1.9c-1.1,0-1.9,0.9-1.9,1.9c0,1.1,0.9,1.9,1.9,1.9C100.4,196.1,101.3,195.2,101.3,194.2"/>
	<path d="M322.5,106.3c0-1.1-0.9-1.9-1.9-1.9c-1.1,0-1.9,0.9-1.9,1.9c0,1.1,0.9,1.9,1.9,1.9C321.6,108.2,322.5,107.3,322.5,106.3"/>
	<path d="M154,124.3c0-1.1-0.9-1.9-1.9-1.9c-1.1,0-1.9,0.9-1.9,1.9c0,1.1,0.9,1.9,1.9,1.9C153.1,126.2,154,125.3,154,124.3"/>
	<path d="M222.5,90.4c0-1.1-0.9-1.9-1.9-1.9c-1.1,0-1.9,0.9-1.9,1.9c0,1.1,0.9,1.9,1.9,1.9C221.6,92.4,222.5,91.5,222.5,90.4"/>
	<path d="M216.4,106.3c0-1.1-0.9-1.9-1.9-1.9c-1.1,0-1.9,0.9-1.9,1.9c0,1.1,0.9,1.9,1.9,1.9C215.5,108.2,216.4,107.3,216.4,106.3"/>
	<path d="M136.6,194c0-1.1-0.9-1.9-1.9-1.9c-1.1,0-1.9,0.9-1.9,1.9c0,1.1,0.9,1.9,1.9,1.9C135.7,196,136.6,195.1,136.6,194"/>
	<path d="M164.5,287.8c0-1.1-0.9-1.9-1.9-1.9c-1.1,0-1.9,0.9-1.9,1.9c0,1.1,0.9,1.9,1.9,1.9C163.7,289.7,164.5,288.8,164.5,287.8"/>
	<path d="M79.8,303.2c0-1.1-0.9-1.9-1.9-1.9c-1.1,0-1.9,0.9-1.9,1.9c0,1.1,0.9,1.9,1.9,1.9C78.9,305.1,79.8,304.2,79.8,303.2"/>
	<path d="M63.5,290c0-1.1-0.9-1.9-1.9-1.9c-1.1,0-1.9,0.9-1.9,1.9c0,1.1,0.9,1.9,1.9,1.9C62.6,291.9,63.5,291,63.5,290"/>
	<path d="M157,302.2c0-1.1-0.9-1.9-1.9-1.9c-1.1,0-1.9,0.9-1.9,1.9c0,1.1,0.9,1.9,1.9,1.9C156.1,304.1,157,303.2,157,302.2"/>
	<path d="M154.8,318.1c0-1.1-0.9-1.9-1.9-1.9c-1.1,0-1.9,0.9-1.9,1.9c0,1.1,0.9,1.9,1.9,1.9C153.9,320.1,154.8,319.2,154.8,318.1"/>
	<path d="M190.1,230.1c0-1.1-0.9-1.9-1.9-1.9c-1.1,0-1.9,0.9-1.9,1.9c0,1.1,0.9,1.9,1.9,1.9C189.3,232.1,190.1,231.2,190.1,230.1"/>
	<path d="M181.5,336.2c0-1.1-0.9-1.9-1.9-1.9c-1.1,0-1.9,0.9-1.9,1.9c0,1.1,0.9,1.9,1.9,1.9C180.6,338.2,181.5,337.3,181.5,336.2"/>
	<path d="M214.5,281.8c0-1.1-0.9-1.9-1.9-1.9c-1.1,0-1.9,0.9-1.9,1.9c0,1.1,0.9,1.9,1.9,1.9C213.6,283.8,214.5,282.9,214.5,281.8"/>
	<path d="M297.1,90.7c0-1.1-0.9-1.9-1.9-1.9c-1.1,0-1.9,0.9-1.9,1.9c0,1.1,0.9,1.9,1.9,1.9C296.2,92.6,297.1,91.7,297.1,90.7"/>
	<path d="M95.8,94.2c0-1.1-0.9-1.9-1.9-1.9c-1.1,0-1.9,0.9-1.9,1.9c0,1.1,0.9,1.9,1.9,1.9C95,96.2,95.8,95.3,95.8,94.2"/>
	<path d="M201.9,218.4c0-1.1-0.9-1.9-1.9-1.9c-1.1,0-1.9,0.9-1.9,1.9c0,1.1,0.9,1.9,1.9,1.9C201,220.4,201.9,219.5,201.9,218.4"/>
	<path d="M220.1,220.9c0-1.1-0.9-1.9-1.9-1.9c-1.1,0-1.9,0.9-1.9,1.9c0,1.1,0.9,1.9,1.9,1.9C219.3,222.9,220.1,222,220.1,220.9"/>
	<path d="M255.8,279c0-1.1-0.9-1.9-1.9-1.9c-1.1,0-1.9,0.9-1.9,1.9c0,1.1,0.9,1.9,1.9,1.9C254.9,281,255.8,280.1,255.8,279"/>
	<path d="M73.5,257.1c0-1.1-0.9-1.9-1.9-1.9c-1.1,0-1.9,0.9-1.9,1.9c0,1.1,0.9,1.9,1.9,1.9C72.7,259,73.5,258.1,73.5,257.1"/>
	<path d="M88.3,154.8c0-1.1-0.9-1.9-1.9-1.9c-1.1,0-1.9,0.9-1.9,1.9c0,1.1,0.9,1.9,1.9,1.9C87.4,156.8,88.3,155.9,88.3,154.8"/>
	<path d="M299.6,279.5c0-1.1-0.9-1.9-1.9-1.9c-1.1,0-1.9,0.9-1.9,1.9c0,1.1,0.9,1.9,1.9,1.9C298.7,281.4,299.6,280.6,299.6,279.5"/>
	<path d="M138.2,239.8c0-1.1-0.9-1.9-1.9-1.9c-1.1,0-1.9,0.9-1.9,1.9c0,1.1,0.9,1.9,1.9,1.9C137.4,241.8,138.2,240.9,138.2,239.8"/>
	<path d="M161.8,15.5c0-1.1-0.9-1.9-1.9-1.9c-1.1,0-1.9,0.9-1.9,1.9c0,1.1,0.9,1.9,1.9,1.9C161,17.4,161.8,16.6,161.8,15.5"/>
	<path d="M146.5,284.2c0-1.1-0.9-1.9-1.9-1.9c-1.1,0-1.9,0.9-1.9,1.9c0,1.1,0.9,1.9,1.9,1.9C145.7,286.1,146.5,285.2,146.5,284.2"/>
	<path d="M113.8,57.7c0-1.1-0.9-1.9-1.9-1.9c-1.1,0-1.9,0.9-1.9,1.9c0,1.1,0.9,1.9,1.9,1.9C112.9,59.6,113.8,58.8,113.8,57.7"/>
	<path d="M336,155.7c0-1.1-0.9-1.9-1.9-1.9c-1.1,0-1.9,0.9-1.9,1.9c0,1.1,0.9,1.9,1.9,1.9C335.2,157.7,336,156.8,336,155.7"/>
	<path d="M228.6,22.1c0-1.1-0.9-1.9-1.9-1.9c-1.1,0-1.9,0.9-1.9,1.9c0,1.1,0.9,1.9,1.9,1.9C227.8,24,228.6,23.1,228.6,22.1"/>
	<path d="M271.7,175.8c0-1.1-0.9-1.9-1.9-1.9c-1.1,0-1.9,0.9-1.9,1.9c0,1.1,0.9,1.9,1.9,1.9C270.9,177.8,271.7,176.9,271.7,175.8"/>
	<path d="M46.8,82.5c0-1.1-0.9-1.9-1.9-1.9c-1.1,0-1.9,0.9-1.9,1.9c0,1.1,0.9,1.9,1.9,1.9C46,84.4,46.8,83.6,46.8,82.5"/>
	<path d="M128.5,286.9c0-1.1-0.9-1.9-1.9-1.9c-1.1,0-1.9,0.9-1.9,1.9c0,1.1,0.9,1.9,1.9,1.9C127.7,288.9,128.5,288,128.5,286.9"/>
	<path d="M218.7,266.2c0-1.1-0.9-1.9-1.9-1.9c-1.1,0-1.9,0.9-1.9,1.9c0,1.1,0.9,1.9,1.9,1.9C217.8,268.1,218.7,267.3,218.7,266.2"/>
	<path d="M154.9,196.5c0-1.1-0.9-1.9-1.9-1.9c-1.1,0-1.9,0.9-1.9,1.9c0,1.1,0.9,1.9,1.9,1.9C154,198.4,154.9,197.6,154.9,196.5"/>
	<path d="M167.6,185.6c0-1.1-0.9-1.9-1.9-1.9c-1.1,0-1.9,0.9-1.9,1.9c0,1.1,0.9,1.9,1.9,1.9C166.7,187.5,167.6,186.6,167.6,185.6"/>
	<path d="M285.5,109.3c0-1.1-0.9-1.9-1.9-1.9c-1.1,0-1.9,0.9-1.9,1.9c0,1.1,0.9,1.9,1.9,1.9C284.6,111.2,285.5,110.3,285.5,109.3"/>
	<path d="M253.7,218.5c0-1.1-0.9-1.9-1.9-1.9c-1.1,0-1.9,0.9-1.9,1.9c0,1.1,0.9,1.9,1.9,1.9C252.9,220.5,253.7,219.6,253.7,218.5"/>
	<path d="M145.8,49.2c0-1.1-0.9-1.9-1.9-1.9c-1.1,0-1.9,0.9-1.9,1.9c0,1.1,0.9,1.9,1.9,1.9C145,51.1,145.8,50.2,145.8,49.2"/>
	<path d="M238,96.1c0-1.1-0.9-1.9-1.9-1.9c-1.1,0-1.9,0.9-1.9,1.9c0,1.1,0.9,1.9,1.9,1.9C237.1,98.1,238,97.2,238,96.1"/>
	<path d="M220.4,72.3c0-1.1-0.9-1.9-1.9-1.9c-1.1,0-1.9,0.9-1.9,1.9c0,1.1,0.9,1.9,1.9,1.9C219.5,74.3,220.4,73.4,220.4,72.3"/>
	<path d="M321.9,178.3c0-1.1-0.9-1.9-1.9-1.9c-1.1,0-1.9,0.9-1.9,1.9c0,1.1,0.9,1.9,1.9,1.9C321.1,180.3,321.9,179.4,321.9,178.3"/>
	<path d="M148.1,225.7c0-1.1-0.9-1.9-1.9-1.9c-1.1,0-1.9,0.9-1.9,1.9c0,1.1,0.9,1.9,1.9,1.9C147.3,227.6,148.1,226.8,148.1,225.7"/>
	<path d="M271.6,223.3c0-1.1-0.9-1.9-1.9-1.9c-1.1,0-1.9,0.9-1.9,1.9c0,1.1,0.9,1.9,1.9,1.9C270.7,225.2,271.6,224.3,271.6,223.3"/>
	<path d="M298.1,245.6c0-1.1-0.9-1.9-1.9-1.9c-1.1,0-1.9,0.9-1.9,1.9c0,1.1,0.9,1.9,1.9,1.9C297.2,247.5,298.1,246.7,298.1,245.6"/>
	<path d="M119.2,270.5c0-1.1-0.9-1.9-1.9-1.9c-1.1,0-1.9,0.9-1.9,1.9c0,1.1,0.9,1.9,1.9,1.9C118.3,272.4,119.2,271.6,119.2,270.5"/>
	<path d="M101.6,272.4c0-1.1-0.9-1.9-1.9-1.9c-1.1,0-1.9,0.9-1.9,1.9c0,1.1,0.9,1.9,1.9,1.9C100.7,274.4,101.6,273.5,101.6,272.4"/>
	<path d="M212.7,204.7c0-1.1-0.9-1.9-1.9-1.9c-1.1,0-1.9,0.9-1.9,1.9c0,1.1,0.9,1.9,1.9,1.9C211.9,206.7,212.7,205.8,212.7,204.7"/>
	<path d="M105.4,127.5c0-1.1-0.9-1.9-1.9-1.9c-1.1,0-1.9,0.9-1.9,1.9c0,1.1,0.9,1.9,1.9,1.9C104.5,129.5,105.4,128.6,105.4,127.5"/>
	<path d="M76.4,93.2c0-1.1-0.9-1.9-1.9-1.9c-1.1,0-1.9,0.9-1.9,1.9c0,1.1,0.9,1.9,1.9,1.9C75.6,95.1,76.4,94.2,76.4,93.2"/>
	<path d="M201.1,142.3c0-1.1-0.9-1.9-1.9-1.9c-1.1,0-1.9,0.9-1.9,1.9c0,1.1,0.9,1.9,1.9,1.9C200.3,144.2,201.1,143.3,201.1,142.3"/>
	<path d="M47.9,177.5c0-1.1-0.9-1.9-1.9-1.9c-1.1,0-1.9,0.9-1.9,1.9c0,1.1,0.9,1.9,1.9,1.9C47,179.4,47.9,178.5,47.9,177.5"/>
	<path d="M185.1,116.8c0-1.1-0.9-1.9-1.9-1.9c-1.1,0-1.9,0.9-1.9,1.9c0,1.1,0.9,1.9,1.9,1.9C184.2,118.7,185.1,117.8,185.1,116.8"/>
	<path d="M127,177.3c0-1.1-0.9-1.9-1.9-1.9s-1.9,0.9-1.9,1.9c0,1.1,0.9,1.9,1.9,1.9S127,178.4,127,177.3"/>
	<path d="M91.2,211c0-1.1-0.9-1.9-1.9-1.9c-1.1,0-1.9,0.9-1.9,1.9c0,1.1,0.9,1.9,1.9,1.9C90.3,212.9,91.2,212.1,91.2,211"/>
	<path d="M218.5,330.4c0-1.1-0.9-1.9-1.9-1.9c-1.1,0-1.9,0.9-1.9,1.9c0,1.1,0.9,1.9,1.9,1.9C217.6,332.4,218.5,331.5,218.5,330.4"/>
	<path d="M114.8,100.8c0-1.1-0.9-1.9-1.9-1.9c-1.1,0-1.9,0.9-1.9,1.9c0,1.1,0.9,1.9,1.9,1.9C114,102.8,114.8,101.9,114.8,100.8"/>
	<path d="M158.6,239.4c0-1.1-0.9-1.9-1.9-1.9c-1.1,0-1.9,0.9-1.9,1.9c0,1.1,0.9,1.9,1.9,1.9C157.8,241.4,158.6,240.5,158.6,239.4"/>
	<path d="M169,225.9c0-1.1-0.9-1.9-1.9-1.9c-1.1,0-1.9,0.9-1.9,1.9c0,1.1,0.9,1.9,1.9,1.9C168.1,227.9,169,227,169,225.9"/>
	<path d="M173.2,201.4c0-1.1-0.9-1.9-1.9-1.9c-1.1,0-1.9,0.9-1.9,1.9c0,1.1,0.9,1.9,1.9,1.9C172.4,203.3,173.2,202.5,173.2,201.4"/>
	<path d="M167.3,111.5c0-1.1-0.9-1.9-1.9-1.9c-1.1,0-1.9,0.9-1.9,1.9c0,1.1,0.9,1.9,1.9,1.9C166.4,113.5,167.3,112.6,167.3,111.5"/>
	<path d="M65.4,109.2c0-1.1-0.9-1.9-1.9-1.9c-1.1,0-1.9,0.9-1.9,1.9c0,1.1,0.9,1.9,1.9,1.9C64.6,111.1,65.4,110.3,65.4,109.2"/>
	<path d="M34.4,163.6c0-1.1-0.9-1.9-1.9-1.9c-1.1,0-1.9,0.9-1.9,1.9c0,1.1,0.9,1.9,1.9,1.9C33.6,165.5,34.4,164.6,34.4,163.6"/>
	<path d="M276.3,194c0-1.1-0.9-1.9-1.9-1.9c-1.1,0-1.9,0.9-1.9,1.9c0,1.1,0.9,1.9,1.9,1.9C275.5,195.9,276.3,195.1,276.3,194"/>
	<path d="M231.4,38c0-1.1-0.9-1.9-1.9-1.9c-1.1,0-1.9,0.9-1.9,1.9c0,1.1,0.9,1.9,1.9,1.9C230.5,40,231.4,39.1,231.4,38"/>
	<path d="M160.6,335.3c0-1.1-0.9-1.9-1.9-1.9c-1.1,0-1.9,0.9-1.9,1.9c0,1.1,0.9,1.9,1.9,1.9C159.8,337.2,160.6,336.3,160.6,335.3"/>
	<path d="M142.8,332.3c0-1.1-0.9-1.9-1.9-1.9c-1.1,0-1.9,0.9-1.9,1.9c0,1.1,0.9,1.9,1.9,1.9C141.9,334.2,142.8,333.4,142.8,332.3"/>
	<path d="M90.7,180.3c0-1.1-0.9-1.9-1.9-1.9c-1.1,0-1.9,0.9-1.9,1.9c0,1.1,0.9,1.9,1.9,1.9C89.9,182.2,90.7,181.3,90.7,180.3"/>
	<path d="M259.8,189.1c0-1.1-0.9-1.9-1.9-1.9c-1.1,0-1.9,0.9-1.9,1.9c0,1.1,0.9,1.9,1.9,1.9C258.9,191,259.8,190.1,259.8,189.1"/>
	<path d="M313.9,88.3c0-1.1-0.9-1.9-1.9-1.9c-1.1,0-1.9,0.9-1.9,1.9c0,1.1,0.9,1.9,1.9,1.9C313,90.3,313.9,89.4,313.9,88.3"/>
	<path d="M258.8,56.2c0-1.1-0.9-1.9-1.9-1.9c-1.1,0-1.9,0.9-1.9,1.9c0,1.1,0.9,1.9,1.9,1.9C258,58.1,258.8,57.3,258.8,56.2"/>
	<path d="M281.3,94c0-1.1-0.9-1.9-1.9-1.9c-1.1,0-1.9,0.9-1.9,1.9c0,1.1,0.9,1.9,1.9,1.9C280.4,95.9,281.3,95.1,281.3,94"/>
	<path d="M196.4,247.4c0-1.1-0.9-1.9-1.9-1.9c-1.1,0-1.9,0.9-1.9,1.9c0,1.1,0.9,1.9,1.9,1.9C195.6,249.3,196.4,248.5,196.4,247.4"/>
	<path d="M333.4,140c0-1.1-0.9-1.9-1.9-1.9c-1.1,0-1.9,0.9-1.9,1.9c0,1.1,0.9,1.9,1.9,1.9C332.5,142,333.4,141.1,333.4,140"/>
	<path d="M170.9,64.2c0-1.1-0.9-1.9-1.9-1.9c-1.1,0-1.9,0.9-1.9,1.9c0,1.1,0.9,1.9,1.9,1.9C170,66.1,170.9,65.2,170.9,64.2"/>
	<path d="M205.6,189.2c0-1.1-0.9-1.9-1.9-1.9c-1.1,0-1.9,0.9-1.9,1.9c0,1.1,0.9,1.9,1.9,1.9C204.7,191.1,205.6,190.3,205.6,189.2"/>
	<path d="M337.6,188.8c0-1.1-0.9-1.9-1.9-1.9c-1.1,0-1.9,0.9-1.9,1.9c0,1.1,0.9,1.9,1.9,1.9C336.8,190.8,337.6,189.9,337.6,188.8"/>
	<path d="M186.7,188.2c0-1.1-0.9-1.9-1.9-1.9c-1.1,0-1.9,0.9-1.9,1.9c0,1.1,0.9,1.9,1.9,1.9C185.9,190.1,186.7,189.2,186.7,188.2"/>
	<path d="M178.5,172.4c0-1.1-0.9-1.9-1.9-1.9c-1.1,0-1.9,0.9-1.9,1.9c0,1.1,0.9,1.9,1.9,1.9C177.6,174.4,178.5,173.5,178.5,172.4"/>
	<path d="M200.2,334c0-1.1-0.9-1.9-1.9-1.9c-1.1,0-1.9,0.9-1.9,1.9c0,1.1,0.9,1.9,1.9,1.9C199.4,335.9,200.2,335,200.2,334"/>
	<path d="M108.7,177.3c0-1.1-0.9-1.9-1.9-1.9c-1.1,0-1.9,0.9-1.9,1.9c0,1.1,0.9,1.9,1.9,1.9C107.9,179.2,108.7,178.3,108.7,177.3"/>
	<path d="M242.2,289.4c0-1.1-0.9-1.9-1.9-1.9c-1.1,0-1.9,0.9-1.9,1.9c0,1.1,0.9,1.9,1.9,1.9C241.3,291.3,242.2,290.4,242.2,289.4"/>
	<path d="M259.4,157.5c0-1.1-0.9-1.9-1.9-1.9c-1.1,0-1.9,0.9-1.9,1.9c0,1.1,0.9,1.9,1.9,1.9C258.6,159.5,259.4,158.6,259.4,157.5"/>
	<path d="M185.2,274.3c0-1.1-0.9-1.9-1.9-1.9c-1.1,0-1.9,0.9-1.9,1.9c0,1.1,0.9,1.9,1.9,1.9C184.3,276.3,185.2,275.4,185.2,274.3"/>
	<path d="M49.5,274c0-1.1-0.9-1.9-1.9-1.9c-1.1,0-1.9,0.9-1.9,1.9c0,1.1,0.9,1.9,1.9,1.9C48.7,276,49.5,275.1,49.5,274"/>
	<path d="M147.7,93.2c0-1.1-0.9-1.9-1.9-1.9c-1.1,0-1.9,0.9-1.9,1.9c0,1.1,0.9,1.9,1.9,1.9C146.8,95.1,147.7,94.2,147.7,93.2"/>
	<path d="M110.3,224.9c0-1.1-0.9-1.9-1.9-1.9c-1.1,0-1.9,0.9-1.9,1.9c0,1.1,0.9,1.9,1.9,1.9C109.5,226.8,110.3,225.9,110.3,224.9"/>
	<path d="M94.3,311.7c0-1.1-0.9-1.9-1.9-1.9s-1.9,0.9-1.9,1.9c0,1.1,0.9,1.9,1.9,1.9S94.3,312.8,94.3,311.7"/>
	<path d="M132.2,58.1c0-1.1-0.9-1.9-1.9-1.9c-1.1,0-1.9,0.9-1.9,1.9c0,1.1,0.9,1.9,1.9,1.9C131.4,60,132.2,59.2,132.2,58.1"/>
	<path d="M76.9,222c0-1.1-0.9-1.9-1.9-1.9c-1.1,0-1.9,0.9-1.9,1.9c0,1.1,0.9,1.9,1.9,1.9C76,223.9,76.9,223,76.9,222"/>
	<path d="M174.1,306c0-1.1-0.9-1.9-1.9-1.9c-1.1,0-1.9,0.9-1.9,1.9c0,1.1,0.9,1.9,1.9,1.9C173.2,307.9,174.1,307.1,174.1,306"/>
	<path d="M181.2,290.8c0-1.1-0.9-1.9-1.9-1.9c-1.1,0-1.9,0.9-1.9,1.9c0,1.1,0.9,1.9,1.9,1.9C180.3,292.7,181.2,291.8,181.2,290.8"/>
	<path d="M152.7,64.3c0-1.1-0.9-1.9-1.9-1.9c-1.1,0-1.9,0.9-1.9,1.9c0,1.1,0.9,1.9,1.9,1.9C151.9,66.2,152.7,65.3,152.7,64.3"/>
	<path d="M290.1,59.2c0-1.1-0.9-1.9-1.9-1.9c-1.1,0-1.9,0.9-1.9,1.9c0,1.1,0.9,1.9,1.9,1.9C289.2,61.1,290.1,60.2,290.1,59.2"/>
	<path d="M256.8,125.9c0-1.1-0.9-1.9-1.9-1.9c-1.1,0-1.9,0.9-1.9,1.9c0,1.1,0.9,1.9,1.9,1.9C255.9,127.8,256.8,127,256.8,125.9"/>
	<path d="M308.1,191.6c0-1.1-0.9-1.9-1.9-1.9c-1.1,0-1.9,0.9-1.9,1.9c0,1.1,0.9,1.9,1.9,1.9C307.2,193.6,308.1,192.7,308.1,191.6"/>
	<path d="M208.5,234.4c0-1.1-0.9-1.9-1.9-1.9c-1.1,0-1.9,0.9-1.9,1.9c0,1.1,0.9,1.9,1.9,1.9C207.6,236.3,208.5,235.4,208.5,234.4"/>
	<path d="M289.1,166.2c0-1.1-0.9-1.9-1.9-1.9c-1.1,0-1.9,0.9-1.9,1.9c0,1.1,0.9,1.9,1.9,1.9C288.2,168.1,289.1,167.3,289.1,166.2"/>
	<path d="M311.5,264c0-1.1-0.9-1.9-1.9-1.9c-1.1,0-1.9,0.9-1.9,1.9c0,1.1,0.9,1.9,1.9,1.9C310.6,266,311.5,265.1,311.5,264"/>
	<path d="M128.3,253.2c0-1.1-0.9-1.9-1.9-1.9c-1.1,0-1.9,0.9-1.9,1.9c0,1.1,0.9,1.9,1.9,1.9C127.4,255.1,128.3,254.3,128.3,253.2"/>
	<path d="M231.9,171.1c0-1.1-0.9-1.9-1.9-1.9c-1.1,0-1.9,0.9-1.9,1.9c0,1.1,0.9,1.9,1.9,1.9C231,173,231.9,172.1,231.9,171.1"/>
	<path d="M278.2,239.1c0-1.1-0.9-1.9-1.9-1.9c-1.1,0-1.9,0.9-1.9,1.9c0,1.1,0.9,1.9,1.9,1.9C277.4,241,278.2,240.2,278.2,239.1"/>
	<path d="M36.5,95.2c0-1.1-0.9-1.9-1.9-1.9c-1.1,0-1.9,0.9-1.9,1.9c0,1.1,0.9,1.9,1.9,1.9C35.7,97.1,36.5,96.3,36.5,95.2"/>
	<path d="M214.4,249.6c0-1.1-0.9-1.9-1.9-1.9c-1.1,0-1.9,0.9-1.9,1.9c0,1.1,0.9,1.9,1.9,1.9C213.6,251.5,214.4,250.6,214.4,249.6"/>
	<path d="M148.6,253.4c0-1.1-0.9-1.9-1.9-1.9c-1.1,0-1.9,0.9-1.9,1.9c0,1.1,0.9,1.9,1.9,1.9C147.7,255.3,148.6,254.5,148.6,253.4"/>
	<path d="M252,142.6c0-1.1-0.9-1.9-1.9-1.9c-1.1,0-1.9,0.9-1.9,1.9c0,1.1,0.9,1.9,1.9,1.9C251.1,144.6,252,143.7,252,142.6"/>
	<path d="M254.2,73.2c0-1.1-0.9-1.9-1.9-1.9c-1.1,0-1.9,0.9-1.9,1.9c0,1.1,0.9,1.9,1.9,1.9C253.3,75.2,254.2,74.3,254.2,73.2"/>
	<path d="M132.6,102.7c0-1.1-0.9-1.9-1.9-1.9c-1.1,0-1.9,0.9-1.9,1.9c0,1.1,0.9,1.9,1.9,1.9C131.8,104.6,132.6,103.7,132.6,102.7"/>
	<path d="M274.7,158.6c0-1.1-0.9-1.9-1.9-1.9c-1.1,0-1.9,0.9-1.9,1.9c0,1.1,0.9,1.9,1.9,1.9C273.8,160.6,274.7,159.7,274.7,158.6"/>
	<path d="M50.4,155.7c0-1.1-0.9-1.9-1.9-1.9c-1.1,0-1.9,0.9-1.9,1.9c0,1.1,0.9,1.9,1.9,1.9C49.5,157.7,50.4,156.8,50.4,155.7"/>
	<path d="M223.6,188.9c0-1.1-0.9-1.9-1.9-1.9c-1.1,0-1.9,0.9-1.9,1.9c0,1.1,0.9,1.9,1.9,1.9C222.7,190.8,223.6,189.9,223.6,188.9"/>
	<path d="M290.7,228.9c0-1.1-0.9-1.9-1.9-1.9c-1.1,0-1.9,0.9-1.9,1.9c0,1.1,0.9,1.9,1.9,1.9C289.8,230.8,290.7,229.9,290.7,228.9"/>
	<path d="M178.4,146.6c0-1.1-0.9-1.9-1.9-1.9c-1.1,0-1.9,0.9-1.9,1.9c0,1.1,0.9,1.9,1.9,1.9C177.5,148.5,178.4,147.6,178.4,146.6"/>
	<path d="M124.5,326.6c0-1.1-0.9-1.9-1.9-1.9c-1.1,0-1.9,0.9-1.9,1.9c0,1.1,0.9,1.9,1.9,1.9C123.6,328.6,124.5,327.7,124.5,326.6"/>
	<path d="M177.6,240.7c0-1.1-0.9-1.9-1.9-1.9c-1.1,0-1.9,0.9-1.9,1.9c0,1.1,0.9,1.9,1.9,1.9C176.7,242.7,177.6,241.8,177.6,240.7"/>
	<path d="M97.1,35.1c0-1.1-0.9-1.9-1.9-1.9c-1.1,0-1.9,0.9-1.9,1.9c0,1.1,0.9,1.9,1.9,1.9C96.2,37.1,97.1,36.2,97.1,35.1"/>
	<path d="M200,31.1c0-1.1-0.9-1.9-1.9-1.9c-1.1,0-1.9,0.9-1.9,1.9c0,1.1,0.9,1.9,1.9,1.9C199.1,33.1,200,32.2,200,31.1"/>
	<path d="M30.3,241.5c0-1.1-0.9-1.9-1.9-1.9c-1.1,0-1.9,0.9-1.9,1.9c0,1.1,0.9,1.9,1.9,1.9C29.5,243.4,30.3,242.6,30.3,241.5"/>
	<path d="M203.6,122.6c0-1.1-0.9-1.9-1.9-1.9c-1.1,0-1.9,0.9-1.9,1.9c0,1.1,0.9,1.9,1.9,1.9C202.8,124.5,203.6,123.6,203.6,122.6"/>
	<path d="M183.1,99.7c0-1.1-0.9-1.9-1.9-1.9c-1.1,0-1.9,0.9-1.9,1.9c0,1.1,0.9,1.9,1.9,1.9C182.2,101.7,183.1,100.8,183.1,99.7"/>
	<path d="M16.2,175.3c0-1.1-0.9-1.9-1.9-1.9s-1.9,0.9-1.9,1.9c0,1.1,0.9,1.9,1.9,1.9S16.2,176.4,16.2,175.3"/>
	<path d="M237.6,218.6c0-1.1-0.9-1.9-1.9-1.9c-1.1,0-1.9,0.9-1.9,1.9c0,1.1,0.9,1.9,1.9,1.9C236.7,220.6,237.6,219.7,237.6,218.6"/>
	<path d="M201.7,265.6c0-1.1-0.9-1.9-1.9-1.9c-1.1,0-1.9,0.9-1.9,1.9c0,1.1,0.9,1.9,1.9,1.9C200.8,267.5,201.7,266.6,201.7,265.6"/>
	<path d="M77,140c0-1.1-0.9-1.9-1.9-1.9c-1.1,0-1.9,0.9-1.9,1.9c0,1.1,0.9,1.9,1.9,1.9C76.1,141.9,77,141,77,140"/>
	<path d="M289,182.3c0-1.1-0.9-1.9-1.9-1.9c-1.1,0-1.9,0.9-1.9,1.9c0,1.1,0.9,1.9,1.9,1.9C288.1,184.2,289,183.3,289,182.3"/>
	<path d="M180.5,46.3c0-1.1-0.9-1.9-1.9-1.9c-1.1,0-1.9,0.9-1.9,1.9c0,1.1,0.9,1.9,1.9,1.9C179.6,48.2,180.5,47.4,180.5,46.3"/>
	<path d="M55.9,68.4c0-1.1-0.9-1.9-1.9-1.9c-1.1,0-1.9,0.9-1.9,1.9c0,1.1,0.9,1.9,1.9,1.9C55.1,70.3,55.9,69.5,55.9,68.4"/>
	<path d="M276.4,48.1c0-1.1-0.9-1.9-1.9-1.9c-1.1,0-1.9,0.9-1.9,1.9c0,1.1,0.9,1.9,1.9,1.9C275.5,50.1,276.4,49.2,276.4,48.1"/>
	<path d="M223.5,156.2c0-1.1-0.9-1.9-1.9-1.9c-1.1,0-1.9,0.9-1.9,1.9c0,1.1,0.9,1.9,1.9,1.9C222.6,158.1,223.5,157.3,223.5,156.2"/>
	<path d="M209.5,300c0-1.1-0.9-1.9-1.9-1.9c-1.1,0-1.9,0.9-1.9,1.9c0,1.1,0.9,1.9,1.9,1.9C208.6,301.9,209.5,301,209.5,300"/>
	<path d="M81.2,239.9c0-1.1-0.9-1.9-1.9-1.9c-1.1,0-1.9,0.9-1.9,1.9c0,1.1,0.9,1.9,1.9,1.9C80.3,241.9,81.2,241,81.2,239.9"/>
	<path d="M184.9,258.2c0-1.1-0.9-1.9-1.9-1.9c-1.1,0-1.9,0.9-1.9,1.9c0,1.1,0.9,1.9,1.9,1.9C184,260.1,184.9,259.2,184.9,258.2"/>
	<path d="M65.8,272.9c0-1.1-0.9-1.9-1.9-1.9c-1.1,0-1.9,0.9-1.9,1.9c0,1.1,0.9,1.9,1.9,1.9C64.9,274.8,65.8,274,65.8,272.9"/>
	<path d="M166.8,95c0-1.1-0.9-1.9-1.9-1.9c-1.1,0-1.9,0.9-1.9,1.9c0,1.1,0.9,1.9,1.9,1.9C165.9,97,166.8,96.1,166.8,95"/>
	<path d="M129.3,21.5c0-1.1-0.9-1.9-1.9-1.9c-1.1,0-1.9,0.9-1.9,1.9c0,1.1,0.9,1.9,1.9,1.9C128.4,23.4,129.3,22.5,129.3,21.5"/>
	<path d="M229.8,204.4c0-1.1-0.9-1.9-1.9-1.9c-1.1,0-1.9,0.9-1.9,1.9c0,1.1,0.9,1.9,1.9,1.9C229,206.4,229.8,205.5,229.8,204.4"/>
	<path d="M171.4,322.5c0-1.1-0.9-1.9-1.9-1.9c-1.1,0-1.9,0.9-1.9,1.9c0,1.1,0.9,1.9,1.9,1.9C170.5,324.4,171.4,323.6,171.4,322.5"/>
	<path d="M243.7,234.4c0-1.1-0.9-1.9-1.9-1.9c-1.1,0-1.9,0.9-1.9,1.9c0,1.1,0.9,1.9,1.9,1.9C242.8,236.3,243.7,235.5,243.7,234.4"/>
	<path d="M109.4,320.1c0-1.1-0.9-1.9-1.9-1.9c-1.1,0-1.9,0.9-1.9,1.9c0,1.1,0.9,1.9,1.9,1.9C108.6,322,109.4,321.1,109.4,320.1"/>
	<path d="M263.2,253.4c0-1.1-0.9-1.9-1.9-1.9c-1.1,0-1.9,0.9-1.9,1.9c0,1.1,0.9,1.9,1.9,1.9C262.3,255.3,263.2,254.5,263.2,253.4"/>
	<path d="M227.3,236.5c0-1.1-0.9-1.9-1.9-1.9c-1.1,0-1.9,0.9-1.9,1.9c0,1.1,0.9,1.9,1.9,1.9C226.4,238.5,227.3,237.6,227.3,236.5"/>
	<path d="M263.3,206.1c0-1.1-0.9-1.9-1.9-1.9c-1.1,0-1.9,0.9-1.9,1.9c0,1.1,0.9,1.9,1.9,1.9C262.5,208,263.3,207.2,263.3,206.1"/>
	<path d="M255.2,299.9c0-1.1-0.9-1.9-1.9-1.9c-1.1,0-1.9,0.9-1.9,1.9c0,1.1,0.9,1.9,1.9,1.9C254.4,301.8,255.2,301,255.2,299.9"/>
	<path d="M317.7,142.9c0-1.1-0.9-1.9-1.9-1.9c-1.1,0-1.9,0.9-1.9,1.9c0,1.1,0.9,1.9,1.9,1.9C316.8,144.9,317.7,144,317.7,142.9"/>
</g>
</svg>
