<?xml version="1.0" encoding="utf-8"?>
<!-- Generator: Adobe Illustrator 21.1.0, SVG Export Plug-In . SVG Version: 6.00 Build 0)  -->
<svg version="1.1" id="Layer_1" xmlns="http://www.w3.org/2000/svg" xmlns:xlink="http://www.w3.org/1999/xlink" x="0px" y="0px"
	 viewBox="0 0 350 350" style="enable-background:new 0 0 350 350;" xml:space="preserve">
<style type="text/css">
	.st0{fill:none;stroke:#231F20;stroke-width:1.5;stroke-miterlimit:10;}
</style>
<g>
	<line class="st0" x1="174.9" y1="183" x2="176.2" y2="23.8"/>
	<line class="st0" x1="174.9" y1="183" x2="243.7" y2="326.2"/>
	<line class="st0" x1="174.9" y1="183" x2="19.7" y2="217.4"/>
	<line class="st0" x1="174.9" y1="183" x2="105.4" y2="326.1"/>
	<line class="st0" x1="174.9" y1="183" x2="330.3" y2="218.8"/>
	<line class="st0" x1="174.9" y1="183" x2="300" y2="84.2"/>
	<line class="st0" x1="176.2" y1="23.8" x2="330.3" y2="218.8"/>
	<line class="st0" x1="243.7" y1="326.2" x2="176.2" y2="23.8"/>
	<line class="st0" x1="243.7" y1="326.2" x2="330.3" y2="218.8"/>
	<line class="st0" x1="243.7" y1="326.2" x2="300" y2="84.2"/>
	<line class="st0" x1="19.7" y1="217.4" x2="105.4" y2="326.1"/>
	<line class="st0" x1="300" y1="84.2" x2="176.2" y2="23.8"/>
	<line class="st0" x1="300" y1="84.2" x2="330.3" y2="218.8"/>
	<line class="st0" x1="300" y1="84.2" x2="51.2" y2="82.6"/>
	<path d="M178.8,183c0-2.1-1.7-3.9-3.9-3.9c-2.1,0-3.9,1.7-3.9,3.9c0,2.1,1.7,3.9,3.9,3.9C177,186.9,178.8,185.1,178.8,183"/>
	<path d="M180.1,23.8c0-2.1-1.7-3.9-3.9-3.9c-2.1,0-3.9,1.7-3.9,3.9c0,2.1,1.7,3.9,3.9,3.9C178.4,27.7,180.1,25.9,180.1,23.8"/>
	<path d="M247.6,326.2c0-2.1-1.7-3.9-3.9-3.9c-2.1,0-3.9,1.7-3.9,3.9c0,2.1,1.7,3.9,3.9,3.9C245.9,330.1,247.6,328.3,247.6,326.2"/>
	<path d="M23.5,217.4c0-2.1-1.7-3.9-3.9-3.9c-2.1,0-3.9,1.7-3.9,3.9c0,2.1,1.7,3.9,3.9,3.9C21.8,221.3,23.5,219.5,23.5,217.4"/>
	<path d="M109.2,326.1c0-2.1-1.7-3.9-3.9-3.9c-2.1,0-3.9,1.7-3.9,3.9c0,2.1,1.7,3.9,3.9,3.9C107.5,330,109.2,328.3,109.2,326.1"/>
	<path d="M334.2,218.8c0-2.1-1.7-3.9-3.9-3.9c-2.1,0-3.9,1.7-3.9,3.9c0,2.1,1.7,3.9,3.9,3.9C332.5,222.6,334.2,220.9,334.2,218.8"/>
	<path d="M303.9,84.2c0-2.1-1.7-3.9-3.9-3.9c-2.1,0-3.9,1.7-3.9,3.9c0,2.1,1.7,3.9,3.9,3.9C302.2,88.1,303.9,86.3,303.9,84.2"/>
	<path d="M55.1,82.6c0-2.1-1.7-3.9-3.9-3.9c-2.1,0-3.9,1.7-3.9,3.9c0,2.1,1.7,3.9,3.9,3.9C53.4,86.5,55.1,84.7,55.1,82.6"/>
</g>
</svg>
