<?xml version="1.0" encoding="utf-8"?>
<!-- Generator: Adobe Illustrator 21.1.0, SVG Export Plug-In . SVG Version: 6.00 Build 0)  -->
<svg version="1.1" id="Layer_1" xmlns="http://www.w3.org/2000/svg" xmlns:xlink="http://www.w3.org/1999/xlink" x="0px" y="0px"
	 viewBox="0 0 350 350" style="enable-background:new 0 0 350 350;" xml:space="preserve">
<style type="text/css">
	.st0{fill:none;stroke:#231F20;stroke-width:0.75;stroke-miterlimit:10;}
	.st1{fill:none;stroke:#999999;stroke-width:0.6888;stroke-miterlimit:10;}
	.st2{fill:#231F20;}
</style>
<g>
	<line class="st0" x1="217.5" y1="148" x2="142.2" y2="149.4"/>
	<line class="st0" x1="217.5" y1="148" x2="216.9" y2="106.3"/>
	<line class="st0" x1="217.5" y1="148" x2="181.7" y2="137"/>
	<line class="st0" x1="217.5" y1="148" x2="181.4" y2="92.8"/>
	<line class="st0" x1="217.5" y1="148" x2="215.6" y2="186.6"/>
	<line class="st0" x1="217.5" y1="148" x2="212.5" y2="62.5"/>
	<line class="st0" x1="103.9" y1="277.5" x2="88.3" y2="312.7"/>
	<line class="st0" x1="103.9" y1="277.5" x2="160.2" y2="335.7"/>
	<line class="st0" x1="280.9" y1="94" x2="316.7" y2="93.4"/>
	<line class="st0" x1="280.9" y1="94" x2="284.9" y2="54.8"/>
	<line class="st0" x1="280.9" y1="94" x2="248.4" y2="33"/>
	<line class="st0" x1="140.7" y1="290" x2="103.9" y2="277.5"/>
	<line class="st0" x1="334.6" y1="171.7" x2="234.9" y2="229.8"/>
	<line class="st0" x1="334.6" y1="171.7" x2="333.4" y2="208"/>
	<line class="st0" x1="334.6" y1="171.7" x2="331.5" y2="134.4"/>
	<line class="st0" x1="334.6" y1="171.7" x2="302" y2="275.5"/>
	<line class="st0" x1="334.6" y1="171.7" x2="293.2" y2="134.7"/>
	<line class="st0" x1="274" y1="303.9" x2="178" y2="298"/>
	<line class="st0" x1="274" y1="303.9" x2="200" y2="336.3"/>
	<line class="st0" x1="174.2" y1="51.5" x2="170.2" y2="13.7"/>
	<line class="st0" x1="252.8" y1="121.2" x2="247.2" y2="74.6"/>
	<line class="st0" x1="284.9" y1="54.8" x2="316.7" y2="93.4"/>
	<line class="st0" x1="284.9" y1="54.8" x2="248.4" y2="33"/>
	<line class="st0" x1="153.2" y1="215" x2="103.9" y2="277.5"/>
	<line class="st0" x1="153.2" y1="215" x2="140.7" y2="290"/>
	<line class="st0" x1="209.8" y1="20.8" x2="174.2" y2="51.5"/>
	<line class="st0" x1="209.8" y1="20.8" x2="170.2" y2="13.7"/>
	<line class="st0" x1="321.6" y1="243.7" x2="334.6" y2="171.7"/>
	<line class="st0" x1="321.6" y1="243.7" x2="333.4" y2="208"/>
	<line class="st0" x1="321.6" y1="243.7" x2="331.5" y2="134.4"/>
	<line class="st0" x1="321.6" y1="243.7" x2="302" y2="275.5"/>
	<line class="st0" x1="200" y1="336.3" x2="178" y2="298"/>
	<line class="st0" x1="234.9" y1="229.8" x2="274" y2="303.9"/>
	<line class="st0" x1="234.9" y1="229.8" x2="171" y2="255.5"/>
	<line class="st0" x1="234.9" y1="229.8" x2="215.9" y2="296.4"/>
	<line class="st0" x1="234.9" y1="229.8" x2="248.5" y2="275"/>
	<line class="st0" x1="234.9" y1="229.8" x2="273" y2="247.1"/>
	<line class="st0" x1="105.3" y1="220.6" x2="21.6" y2="216.8"/>
	<line class="st0" x1="105.3" y1="220.6" x2="15.4" y2="178.6"/>
	<line class="st0" x1="105.3" y1="220.6" x2="58" y2="285.1"/>
	<line class="st0" x1="105.3" y1="220.6" x2="34.8" y2="253.4"/>
	<line class="st0" x1="98" y1="33.4" x2="174.2" y2="51.5"/>
	<line class="st0" x1="98" y1="33.4" x2="209.8" y2="20.8"/>
	<line class="st0" x1="98" y1="33.4" x2="170.2" y2="13.7"/>
	<line class="st0" x1="92.1" y1="182.6" x2="21.6" y2="216.8"/>
	<line class="st0" x1="92.1" y1="182.6" x2="54.5" y2="177.7"/>
	<line class="st0" x1="92.1" y1="182.6" x2="130.6" y2="184.8"/>
	<line class="st0" x1="92.1" y1="182.6" x2="78.1" y2="248.8"/>
	<line class="st0" x1="248.4" y1="33" x2="316.7" y2="93.4"/>
	<line class="st0" x1="60.7" y1="215.1" x2="20.1" y2="138.8"/>
	<line class="st0" x1="192.5" y1="217.4" x2="217.5" y2="148"/>
	<line class="st0" x1="192.5" y1="217.4" x2="132.3" y2="248.8"/>
	<line class="st0" x1="192.5" y1="217.4" x2="255" y2="198.5"/>
	<line class="st0" x1="192.5" y1="217.4" x2="256.1" y2="160.7"/>
	<line class="st0" x1="192.5" y1="217.4" x2="176.3" y2="176.5"/>
	<line class="st0" x1="192.5" y1="217.4" x2="130.6" y2="184.8"/>
	<line class="st0" x1="71.6" y1="101.4" x2="60.6" y2="62.3"/>
	<line class="st0" x1="71.6" y1="101.4" x2="134.3" y2="27.7"/>
	<line class="st0" x1="100.8" y1="70" x2="60.6" y2="62.3"/>
	<line class="st0" x1="100.8" y1="70" x2="71.6" y2="101.4"/>
	<line class="st0" x1="100.8" y1="70" x2="134.3" y2="27.7"/>
	<line class="st0" x1="333.4" y1="208" x2="331.5" y2="134.4"/>
	<line class="st0" x1="333.4" y1="208" x2="302" y2="275.5"/>
	<line class="st0" x1="291.7" y1="213.9" x2="208.9" y2="257.3"/>
	<line class="st0" x1="291.7" y1="213.9" x2="273" y2="247.1"/>
	<line class="st0" x1="255" y1="198.5" x2="217.5" y2="148"/>
	<line class="st0" x1="255" y1="198.5" x2="295.1" y2="174.5"/>
	<line class="st0" x1="255" y1="198.5" x2="256.1" y2="160.7"/>
	<line class="st0" x1="255" y1="198.5" x2="176.3" y2="176.5"/>
	<line class="st0" x1="256.1" y1="160.7" x2="217.5" y2="148"/>
	<line class="st0" x1="33.7" y1="99.6" x2="99.7" y2="144.7"/>
	<line class="st0" x1="160.2" y1="335.7" x2="88.3" y2="312.7"/>
	<line class="st0" x1="160.2" y1="335.7" x2="123.8" y2="327.5"/>
	<line class="st0" x1="216.9" y1="106.3" x2="252.8" y2="121.2"/>
	<line class="st0" x1="216.9" y1="106.3" x2="247.2" y2="74.6"/>
	<line class="st0" x1="216.9" y1="106.3" x2="181.7" y2="137"/>
	<line class="st0" x1="216.9" y1="106.3" x2="212.5" y2="62.5"/>
	<line class="st0" x1="215.9" y1="296.4" x2="178" y2="298"/>
	<line class="st1" x1="215.9" y1="296.4" x2="274" y2="303.9"/>
	<line class="st0" x1="215.9" y1="296.4" x2="200" y2="336.3"/>
	<line class="st0" x1="215.9" y1="296.4" x2="273" y2="247.1"/>
	<line class="st0" x1="21.6" y1="216.8" x2="15.4" y2="178.6"/>
	<line class="st0" x1="21.6" y1="216.8" x2="58" y2="285.1"/>
	<line class="st0" x1="21.6" y1="216.8" x2="34.8" y2="253.4"/>
	<line class="st0" x1="21.6" y1="216.8" x2="78.1" y2="248.8"/>
	<line class="st0" x1="181.7" y1="137" x2="147.9" y2="110.6"/>
	<line class="st0" x1="181.7" y1="137" x2="171" y2="255.5"/>
	<line class="st0" x1="181.7" y1="137" x2="234.9" y2="229.8"/>
	<line class="st0" x1="181.7" y1="137" x2="212.5" y2="62.5"/>
	<line class="st0" x1="15.4" y1="178.6" x2="58" y2="285.1"/>
	<line class="st0" x1="15.4" y1="178.6" x2="34.8" y2="253.4"/>
	<line class="st0" x1="110.2" y1="108.6" x2="99.7" y2="144.7"/>
	<line class="st0" x1="110.2" y1="108.6" x2="140" y2="70.4"/>
	<line class="st0" x1="110.2" y1="108.6" x2="60.6" y2="62.3"/>
	<line class="st0" x1="110.2" y1="108.6" x2="71.6" y2="101.4"/>
	<line class="st0" x1="110.2" y1="108.6" x2="100.8" y2="70"/>
	<line class="st0" x1="110.2" y1="108.6" x2="33.7" y2="99.6"/>
	<line class="st0" x1="110.2" y1="108.6" x2="134.3" y2="27.7"/>
	<line class="st0" x1="54.5" y1="177.7" x2="103.9" y2="277.5"/>
	<line class="st0" x1="54.5" y1="177.7" x2="20.1" y2="138.8"/>
	<line class="st0" x1="54.5" y1="177.7" x2="140.7" y2="290"/>
	<line class="st0" x1="54.5" y1="177.7" x2="153.2" y2="215"/>
	<line class="st0" x1="54.5" y1="177.7" x2="60.7" y2="215.1"/>
	<line class="st0" x1="54.5" y1="177.7" x2="21.6" y2="216.8"/>
	<line class="st0" x1="54.5" y1="177.7" x2="130.6" y2="184.8"/>
	<line class="st0" x1="54.5" y1="177.7" x2="78.1" y2="248.8"/>
	<line class="st0" x1="176.3" y1="176.5" x2="217.5" y2="148"/>
	<line class="st0" x1="176.3" y1="176.5" x2="142.2" y2="149.4"/>
	<line class="st0" x1="176.3" y1="176.5" x2="256.1" y2="160.7"/>
	<line class="st0" x1="176.3" y1="176.5" x2="216.9" y2="106.3"/>
	<line class="st0" x1="176.3" y1="176.5" x2="181.7" y2="137"/>
	<line class="st0" x1="176.3" y1="176.5" x2="181.4" y2="92.8"/>
	<line class="st1" x1="176.3" y1="176.5" x2="215.6" y2="186.6"/>
	<line class="st0" x1="176.3" y1="176.5" x2="212.5" y2="62.5"/>
	<line class="st0" x1="181.4" y1="92.8" x2="142.2" y2="149.4"/>
	<line class="st0" x1="181.4" y1="92.8" x2="215.6" y2="186.6"/>
	<line class="st0" x1="302" y1="275.5" x2="331.5" y2="134.4"/>
	<line class="st0" x1="130.6" y1="184.8" x2="132.3" y2="248.8"/>
	<line class="st0" x1="130.6" y1="184.8" x2="140" y2="70.4"/>
	<line class="st0" x1="130.6" y1="184.8" x2="21.6" y2="216.8"/>
	<line class="st0" x1="130.6" y1="184.8" x2="110.2" y2="108.6"/>
	<line class="st0" x1="130.6" y1="184.8" x2="78.1" y2="248.8"/>
	<line class="st0" x1="134.3" y1="27.7" x2="174.2" y2="51.5"/>
	<line class="st0" x1="134.3" y1="27.7" x2="60.6" y2="62.3"/>
	<line class="st0" x1="134.3" y1="27.7" x2="209.8" y2="20.8"/>
	<line class="st0" x1="134.3" y1="27.7" x2="98" y2="33.4"/>
	<line class="st0" x1="134.3" y1="27.7" x2="170.2" y2="13.7"/>
	<line class="st0" x1="215.6" y1="186.6" x2="142.2" y2="149.4"/>
	<line class="st0" x1="34.8" y1="253.4" x2="58" y2="285.1"/>
	<line class="st0" x1="240.5" y1="325.8" x2="178" y2="298"/>
	<line class="st0" x1="240.5" y1="325.8" x2="274" y2="303.9"/>
	<line class="st0" x1="240.5" y1="325.8" x2="200" y2="336.3"/>
	<line class="st0" x1="240.5" y1="325.8" x2="215.9" y2="296.4"/>
	<line class="st0" x1="212.5" y1="62.5" x2="280.9" y2="94"/>
	<line class="st0" x1="212.5" y1="62.5" x2="316.7" y2="93.4"/>
	<line class="st0" x1="212.5" y1="62.5" x2="284.9" y2="54.8"/>
	<line class="st0" x1="212.5" y1="62.5" x2="248.4" y2="33"/>
	<line class="st0" x1="248.5" y1="275" x2="274" y2="303.9"/>
	<line class="st0" x1="248.5" y1="275" x2="215.9" y2="296.4"/>
	<line class="st0" x1="248.5" y1="275" x2="273" y2="247.1"/>
	<line class="st0" x1="78.1" y1="248.8" x2="59.4" y2="139.3"/>
	<line class="st0" x1="273" y1="247.1" x2="274" y2="303.9"/>
	<line class="st0" x1="273" y1="247.1" x2="208.9" y2="257.3"/>
	<path class="st2" d="M219.4,148c0-1.1-0.9-1.9-1.9-1.9c-1.1,0-1.9,0.9-1.9,1.9c0,1.1,0.9,1.9,1.9,1.9
		C218.6,149.9,219.4,149.1,219.4,148"/>
	<path class="st2" d="M180,298c0-1.1-0.9-1.9-1.9-1.9c-1.1,0-1.9,0.9-1.9,1.9c0,1.1,0.9,1.9,1.9,1.9C179.1,299.9,180,299.1,180,298"
		/>
	<path class="st2" d="M105.9,277.5c0-1.1-0.9-1.9-1.9-1.9c-1.1,0-1.9,0.9-1.9,1.9c0,1.1,0.9,1.9,1.9,1.9
		C105,279.4,105.9,278.5,105.9,277.5"/>
	<path class="st2" d="M149.9,110.6c0-1.1-0.9-1.9-1.9-1.9c-1.1,0-1.9,0.9-1.9,1.9c0,1.1,0.9,1.9,1.9,1.9
		C149,112.6,149.9,111.7,149.9,110.6"/>
	<path class="st2" d="M101.6,144.7c0-1.1-0.9-1.9-1.9-1.9c-1.1,0-1.9,0.9-1.9,1.9c0,1.1,0.9,1.9,1.9,1.9
		C100.7,146.7,101.6,145.8,101.6,144.7"/>
	<path class="st2" d="M22.1,138.8c0-1.1-0.9-1.9-1.9-1.9c-1.1,0-1.9,0.9-1.9,1.9s0.9,1.9,1.9,1.9C21.2,140.8,22.1,139.9,22.1,138.8"
		/>
	<path class="st2" d="M282.8,94c0-1.1-0.9-1.9-1.9-1.9c-1.1,0-1.9,0.9-1.9,1.9c0,1.1,0.9,1.9,1.9,1.9C282,96,282.8,95.1,282.8,94"/>
	<path class="st2" d="M134.2,248.8c0-1.1-0.9-1.9-1.9-1.9c-1.1,0-1.9,0.9-1.9,1.9c0,1.1,0.9,1.9,1.9,1.9
		C133.3,250.7,134.2,249.8,134.2,248.8"/>
	<path class="st2" d="M142.6,290c0-1.1-0.9-1.9-1.9-1.9s-1.9,0.9-1.9,1.9c0,1.1,0.9,1.9,1.9,1.9S142.6,291.1,142.6,290"/>
	<path class="st2" d="M336.6,171.7c0-1.1-0.9-1.9-1.9-1.9c-1.1,0-1.9,0.9-1.9,1.9c0,1.1,0.9,1.9,1.9,1.9
		C335.7,173.7,336.6,172.8,336.6,171.7"/>
	<path class="st2" d="M276,303.9c0-1.1-0.9-1.9-1.9-1.9c-1.1,0-1.9,0.9-1.9,1.9c0,1.1,0.9,1.9,1.9,1.9
		C275.1,305.8,276,305,276,303.9"/>
	<path class="st2" d="M318.6,93.4c0-1.1-0.9-1.9-1.9-1.9c-1.1,0-1.9,0.9-1.9,1.9c0,1.1,0.9,1.9,1.9,1.9
		C317.8,95.3,318.6,94.4,318.6,93.4"/>
	<path class="st2" d="M141.9,70.4c0-1.1-0.9-1.9-1.9-1.9c-1.1,0-1.9,0.9-1.9,1.9c0,1.1,0.9,1.9,1.9,1.9
		C141,72.3,141.9,71.4,141.9,70.4"/>
	<path class="st2" d="M176.2,51.5c0-1.1-0.9-1.9-1.9-1.9c-1.1,0-1.9,0.9-1.9,1.9c0,1.1,0.9,1.9,1.9,1.9
		C175.3,53.4,176.2,52.6,176.2,51.5"/>
	<path class="st2" d="M254.7,121.2c0-1.1-0.9-1.9-1.9-1.9s-1.9,0.9-1.9,1.9c0,1.1,0.9,1.9,1.9,1.9S254.7,122.3,254.7,121.2"/>
	<path class="st2" d="M286.9,54.8c0-1.1-0.9-1.9-1.9-1.9c-1.1,0-1.9,0.9-1.9,1.9c0,1.1,0.9,1.9,1.9,1.9
		C286,56.8,286.9,55.9,286.9,54.8"/>
	<path class="st2" d="M249.1,74.6c0-1.1-0.9-1.9-1.9-1.9c-1.1,0-1.9,0.9-1.9,1.9c0,1.1,0.9,1.9,1.9,1.9
		C248.3,76.5,249.1,75.6,249.1,74.6"/>
	<path class="st2" d="M62.5,62.3c0-1.1-0.9-1.9-1.9-1.9c-1.1,0-1.9,0.9-1.9,1.9c0,1.1,0.9,1.9,1.9,1.9
		C61.7,64.2,62.5,63.3,62.5,62.3"/>
	<path class="st2" d="M155.2,215c0-1.1-0.9-1.9-1.9-1.9c-1.1,0-1.9,0.9-1.9,1.9c0,1.1,0.9,1.9,1.9,1.9
		C154.3,216.9,155.2,216.1,155.2,215"/>
	<path class="st2" d="M211.7,20.8c0-1.1-0.9-1.9-1.9-1.9c-1.1,0-1.9,0.9-1.9,1.9c0,1.1,0.9,1.9,1.9,1.9
		C210.9,22.8,211.7,21.9,211.7,20.8"/>
	<path class="st2" d="M173,255.5c0-1.1-0.9-1.9-1.9-1.9c-1.1,0-1.9,0.9-1.9,1.9c0,1.1,0.9,1.9,1.9,1.9
		C172.1,257.5,173,256.6,173,255.5"/>
	<path class="st2" d="M323.6,243.7c0-1.1-0.9-1.9-1.9-1.9s-1.9,0.9-1.9,1.9c0,1.1,0.9,1.9,1.9,1.9S323.6,244.7,323.6,243.7"/>
	<path class="st2" d="M210.9,257.3c0-1.1-0.9-1.9-1.9-1.9c-1.1,0-1.9,0.9-1.9,1.9c0,1.1,0.9,1.9,1.9,1.9
		C210,259.3,210.9,258.4,210.9,257.3"/>
	<path class="st2" d="M201.9,336.3c0-1.1-0.9-1.9-1.9-1.9c-1.1,0-1.9,0.9-1.9,1.9s0.9,1.9,1.9,1.9
		C201,338.2,201.9,337.3,201.9,336.3"/>
	<path class="st2" d="M236.9,229.8c0-1.1-0.9-1.9-1.9-1.9c-1.1,0-1.9,0.9-1.9,1.9c0,1.1,0.9,1.9,1.9,1.9
		C236,231.8,236.9,230.9,236.9,229.8"/>
	<path class="st2" d="M107.3,220.6c0-1.1-0.9-1.9-1.9-1.9c-1.1,0-1.9,0.9-1.9,1.9c0,1.1,0.9,1.9,1.9,1.9
		C106.4,222.5,107.3,221.6,107.3,220.6"/>
	<path class="st2" d="M99.9,33.4c0-1.1-0.9-1.9-1.9-1.9c-1.1,0-1.9,0.9-1.9,1.9c0,1.1,0.9,1.9,1.9,1.9C99,35.4,99.9,34.5,99.9,33.4"
		/>
	<path class="st2" d="M94,182.6c0-1.1-0.9-1.9-1.9-1.9c-1.1,0-1.9,0.9-1.9,1.9c0,1.1,0.9,1.9,1.9,1.9C93.1,184.6,94,183.7,94,182.6"
		/>
	<path class="st2" d="M250.3,33c0-1.1-0.9-1.9-1.9-1.9c-1.1,0-1.9,0.9-1.9,1.9c0,1.1,0.9,1.9,1.9,1.9
		C249.4,34.9,250.3,34.1,250.3,33"/>
	<path class="st2" d="M172.1,13.7c0-1.1-0.9-1.9-1.9-1.9c-1.1,0-1.9,0.9-1.9,1.9c0,1.1,0.9,1.9,1.9,1.9
		C171.2,15.7,172.1,14.8,172.1,13.7"/>
	<path class="st2" d="M62.7,215.1c0-1.1-0.9-1.9-1.9-1.9c-1.1,0-1.9,0.9-1.9,1.9c0,1.1,0.9,1.9,1.9,1.9
		C61.8,217.1,62.7,216.2,62.7,215.1"/>
	<path class="st2" d="M90.2,312.7c0-1.1-0.9-1.9-1.9-1.9c-1.1,0-1.9,0.9-1.9,1.9c0,1.1,0.9,1.9,1.9,1.9
		C89.3,314.6,90.2,313.8,90.2,312.7"/>
	<path class="st2" d="M194.5,217.4c0-1.1-0.9-1.9-1.9-1.9c-1.1,0-1.9,0.9-1.9,1.9c0,1.1,0.9,1.9,1.9,1.9
		C193.6,219.3,194.5,218.5,194.5,217.4"/>
	<path class="st2" d="M73.5,101.4c0-1.1-0.9-1.9-1.9-1.9c-1.1,0-1.9,0.9-1.9,1.9c0,1.1,0.9,1.9,1.9,1.9
		C72.6,103.4,73.5,102.5,73.5,101.4"/>
	<path class="st2" d="M297,174.5c0-1.1-0.9-1.9-1.9-1.9c-1.1,0-1.9,0.9-1.9,1.9c0,1.1,0.9,1.9,1.9,1.9
		C296.1,176.4,297,175.5,297,174.5"/>
	<path class="st2" d="M144.1,149.4c0-1.1-0.9-1.9-1.9-1.9c-1.1,0-1.9,0.9-1.9,1.9c0,1.1,0.9,1.9,1.9,1.9
		C143.3,151.4,144.1,150.5,144.1,149.4"/>
	<path class="st2" d="M102.7,70c0-1.1-0.9-1.9-1.9-1.9c-1.1,0-1.9,0.9-1.9,1.9c0,1.1,0.9,1.9,1.9,1.9C101.9,72,102.7,71.1,102.7,70"
		/>
	<path class="st2" d="M335.3,208c0-1.1-0.9-1.9-1.9-1.9c-1.1,0-1.9,0.9-1.9,1.9c0,1.1,0.9,1.9,1.9,1.9
		C334.5,209.9,335.3,209,335.3,208"/>
	<path class="st2" d="M293.6,213.9c0-1.1-0.9-1.9-1.9-1.9c-1.1,0-1.9,0.9-1.9,1.9c0,1.1,0.9,1.9,1.9,1.9
		C292.7,215.9,293.6,215,293.6,213.9"/>
	<path class="st2" d="M256.9,198.5c0-1.1-0.9-1.9-1.9-1.9c-1.1,0-1.9,0.9-1.9,1.9c0,1.1,0.9,1.9,1.9,1.9
		C256,200.4,256.9,199.6,256.9,198.5"/>
	<path class="st2" d="M258,160.7c0-1.1-0.9-1.9-1.9-1.9c-1.1,0-1.9,0.9-1.9,1.9c0,1.1,0.9,1.9,1.9,1.9
		C257.2,162.6,258,161.7,258,160.7"/>
	<path class="st2" d="M35.6,99.6c0-1.1-0.9-1.9-1.9-1.9c-1.1,0-1.9,0.9-1.9,1.9c0,1.1,0.9,1.9,1.9,1.9
		C34.7,101.6,35.6,100.7,35.6,99.6"/>
	<path class="st2" d="M125.8,327.5c0-1.1-0.9-1.9-1.9-1.9c-1.1,0-1.9,0.9-1.9,1.9c0,1.1,0.9,1.9,1.9,1.9
		C124.9,329.4,125.8,328.6,125.8,327.5"/>
	<path class="st2" d="M162.1,335.7c0-1.1-0.9-1.9-1.9-1.9c-1.1,0-1.9,0.9-1.9,1.9c0,1.1,0.9,1.9,1.9,1.9
		C161.3,337.7,162.1,336.8,162.1,335.7"/>
	<path class="st2" d="M218.8,106.3c0-1.1-0.9-1.9-1.9-1.9c-1.1,0-1.9,0.9-1.9,1.9c0,1.1,0.9,1.9,1.9,1.9
		C217.9,108.3,218.8,107.4,218.8,106.3"/>
	<path class="st2" d="M217.8,296.4c0-1.1-0.9-1.9-1.9-1.9c-1.1,0-1.9,0.9-1.9,1.9c0,1.1,0.9,1.9,1.9,1.9
		C216.9,298.3,217.8,297.5,217.8,296.4"/>
	<path class="st2" d="M23.5,216.8c0-1.1-0.9-1.9-1.9-1.9c-1.1,0-1.9,0.9-1.9,1.9c0,1.1,0.9,1.9,1.9,1.9
		C22.6,218.8,23.5,217.9,23.5,216.8"/>
	<path class="st2" d="M183.6,137c0-1.1-0.9-1.9-1.9-1.9c-1.1,0-1.9,0.9-1.9,1.9c0,1.1,0.9,1.9,1.9,1.9
		C182.8,138.9,183.6,138.1,183.6,137"/>
	<path class="st2" d="M17.3,178.6c0-1.1-0.9-1.9-1.9-1.9c-1.1,0-1.9,0.9-1.9,1.9c0,1.1,0.9,1.9,1.9,1.9
		C16.4,180.5,17.3,179.6,17.3,178.6"/>
	<path class="st2" d="M112.1,108.6c0-1.1-0.9-1.9-1.9-1.9c-1.1,0-1.9,0.9-1.9,1.9c0,1.1,0.9,1.9,1.9,1.9
		C111.2,110.6,112.1,109.7,112.1,108.6"/>
	<path class="st2" d="M61.4,139.3c0-1.1-0.9-1.9-1.9-1.9c-1.1,0-1.9,0.9-1.9,1.9c0,1.1,0.9,1.9,1.9,1.9
		C60.5,141.2,61.4,140.4,61.4,139.3"/>
	<path class="st2" d="M56.4,177.7c0-1.1-0.9-1.9-1.9-1.9c-1.1,0-1.9,0.9-1.9,1.9c0,1.1,0.9,1.9,1.9,1.9
		C55.6,179.6,56.4,178.8,56.4,177.7"/>
	<path class="st2" d="M178.2,176.5c0-1.1-0.9-1.9-1.9-1.9c-1.1,0-1.9,0.9-1.9,1.9c0,1.1,0.9,1.9,1.9,1.9
		C177.4,178.4,178.2,177.6,178.2,176.5"/>
	<path class="st2" d="M183.4,92.8c0-1.1-0.9-1.9-1.9-1.9c-1.1,0-1.9,0.9-1.9,1.9c0,1.1,0.9,1.9,1.9,1.9
		C182.5,94.7,183.4,93.9,183.4,92.8"/>
	<path class="st2" d="M60,285.1c0-1.1-0.9-1.9-1.9-1.9s-1.9,0.9-1.9,1.9c0,1.1,0.9,1.9,1.9,1.9S60,286.2,60,285.1"/>
	<path class="st2" d="M333.4,134.4c0-1.1-0.9-1.9-1.9-1.9c-1.1,0-1.9,0.9-1.9,1.9c0,1.1,0.9,1.9,1.9,1.9
		C332.5,136.3,333.4,135.5,333.4,134.4"/>
	<path class="st2" d="M303.9,275.5c0-1.1-0.9-1.9-1.9-1.9s-1.9,0.9-1.9,1.9c0,1.1,0.9,1.9,1.9,1.9S303.9,276.5,303.9,275.5"/>
	<path class="st2" d="M132.5,184.8c0-1.1-0.9-1.9-1.9-1.9c-1.1,0-1.9,0.9-1.9,1.9c0,1.1,0.9,1.9,1.9,1.9
		C131.7,186.8,132.5,185.9,132.5,184.8"/>
	<path class="st2" d="M136.2,27.7c0-1.1-0.9-1.9-1.9-1.9c-1.1,0-1.9,0.9-1.9,1.9c0,1.1,0.9,1.9,1.9,1.9
		C135.4,29.6,136.2,28.8,136.2,27.7"/>
	<path class="st2" d="M217.5,186.6c0-1.1-0.9-1.9-1.9-1.9c-1.1,0-1.9,0.9-1.9,1.9c0,1.1,0.9,1.9,1.9,1.9
		C216.7,188.5,217.5,187.6,217.5,186.6"/>
	<path class="st2" d="M36.8,253.4c0-1.1-0.9-1.9-1.9-1.9c-1.1,0-1.9,0.9-1.9,1.9c0,1.1,0.9,1.9,1.9,1.9
		C35.9,255.4,36.8,254.5,36.8,253.4"/>
	<path class="st2" d="M242.5,325.8c0-1.1-0.9-1.9-1.9-1.9c-1.1,0-1.9,0.9-1.9,1.9c0,1.1,0.9,1.9,1.9,1.9
		C241.6,327.8,242.5,326.9,242.5,325.8"/>
	<path class="st2" d="M214.5,62.5c0-1.1-0.9-1.9-1.9-1.9c-1.1,0-1.9,0.9-1.9,1.9c0,1.1,0.9,1.9,1.9,1.9
		C213.6,64.5,214.5,63.6,214.5,62.5"/>
	<path class="st2" d="M250.5,275c0-1.1-0.9-1.9-1.9-1.9c-1.1,0-1.9,0.9-1.9,1.9c0,1.1,0.9,1.9,1.9,1.9
		C249.6,276.9,250.5,276,250.5,275"/>
	<path class="st2" d="M295.2,134.7c0-1.1-0.9-1.9-1.9-1.9c-1.1,0-1.9,0.9-1.9,1.9c0,1.1,0.9,1.9,1.9,1.9
		C294.3,136.6,295.2,135.7,295.2,134.7"/>
	<path class="st2" d="M80,248.8c0-1.1-0.9-1.9-1.9-1.9c-1.1,0-1.9,0.9-1.9,1.9c0,1.1,0.9,1.9,1.9,1.9C79.1,250.7,80,249.9,80,248.8"
		/>
	<path class="st2" d="M274.9,247.1c0-1.1-0.9-1.9-1.9-1.9s-1.9,0.9-1.9,1.9c0,1.1,0.9,1.9,1.9,1.9S274.9,248.2,274.9,247.1"/>
</g>
</svg>
