<?xml version="1.0" encoding="utf-8"?>
<!-- Generator: Adobe Illustrator 21.1.0, SVG Export Plug-In . SVG Version: 6.00 Build 0)  -->
<svg version="1.1" id="Layer_1" xmlns="http://www.w3.org/2000/svg" xmlns:xlink="http://www.w3.org/1999/xlink" x="0px" y="0px"
	 viewBox="0 0 350 350" style="enable-background:new 0 0 350 350;" xml:space="preserve">
<style type="text/css">
	.st0{fill:none;stroke:#231F20;stroke-width:0.75;stroke-miterlimit:10;}
</style>
<g>
	<line class="st0" x1="160.4" y1="141.3" x2="164.8" y2="144.1"/>
	<line class="st0" x1="107.6" y1="135.2" x2="111.6" y2="139.1"/>
	<line class="st0" x1="107.6" y1="135.2" x2="107.9" y2="130"/>
	<line class="st0" x1="107.6" y1="135.2" x2="113.4" y2="133.8"/>
	<line class="st0" x1="111.6" y1="139.1" x2="107.9" y2="130"/>
	<line class="st0" x1="111.6" y1="139.1" x2="113.4" y2="133.8"/>
	<line class="st0" x1="122.4" y1="69.5" x2="128" y2="70"/>
	<line class="st0" x1="122.4" y1="69.5" x2="119.8" y2="74"/>
	<line class="st0" x1="122.4" y1="69.5" x2="125" y2="74.4"/>
	<line class="st0" x1="122.4" y1="69.5" x2="128" y2="78.8"/>
	<line class="st0" x1="128" y1="70" x2="131.4" y2="63.3"/>
	<line class="st0" x1="128" y1="70" x2="119.8" y2="74"/>
	<line class="st0" x1="128" y1="70" x2="125" y2="74.4"/>
	<line class="st0" x1="128" y1="70" x2="133" y2="68.2"/>
	<line class="st0" x1="271.5" y1="202.3" x2="266.6" y2="201"/>
	<line class="st0" x1="271.5" y1="202.3" x2="285.8" y2="263.3"/>
	<line class="st0" x1="271.5" y1="202.3" x2="268.6" y2="206.9"/>
	<line class="st0" x1="271.5" y1="202.3" x2="263.1" y2="205.3"/>
	<line class="st0" x1="266.6" y1="201" x2="261.6" y2="199.4"/>
	<line class="st0" x1="239.9" y1="69.1" x2="245" y2="69.9"/>
	<line class="st0" x1="239.9" y1="69.1" x2="238.1" y2="88.8"/>
	<line class="st0" x1="239.9" y1="69.1" x2="202.3" y2="78.5"/>
	<line class="st0" x1="239.9" y1="69.1" x2="234.5" y2="85.5"/>
	<line class="st0" x1="239.9" y1="69.1" x2="258.7" y2="59.5"/>
	<line class="st0" x1="239.9" y1="69.1" x2="233.6" y2="90.6"/>
	<line class="st0" x1="239.9" y1="69.1" x2="243.6" y2="75.5"/>
	<line class="st0" x1="76" y1="247.2" x2="72.9" y2="253.9"/>
	<line class="st0" x1="76" y1="247.2" x2="67.7" y2="253.2"/>
	<line class="st0" x1="76" y1="247.2" x2="67.9" y2="245.1"/>
	<line class="st0" x1="76" y1="247.2" x2="77.7" y2="254.2"/>
	<line class="st0" x1="149" y1="197.1" x2="153.4" y2="188.3"/>
	<line class="st0" x1="149" y1="197.1" x2="163.6" y2="203.1"/>
	<line class="st0" x1="149" y1="197.1" x2="119.1" y2="205.3"/>
	<line class="st0" x1="149" y1="197.1" x2="152.7" y2="193.8"/>
	<line class="st0" x1="149" y1="197.1" x2="153.4" y2="199.5"/>
	<line class="st0" x1="149" y1="197.1" x2="166.8" y2="194.8"/>
	<line class="st0" x1="149" y1="197.1" x2="143.8" y2="222.2"/>
	<line class="st0" x1="268.8" y1="315.7" x2="263.8" y2="315.2"/>
	<line class="st0" x1="268.8" y1="315.7" x2="259.2" y2="316.5"/>
	<line class="st0" x1="279.7" y1="262.5" x2="276.4" y2="246.8"/>
	<line class="st0" x1="181.1" y1="329.9" x2="190.8" y2="329.7"/>
	<line class="st0" x1="181.1" y1="329.9" x2="180.4" y2="325.1"/>
	<line class="st0" x1="181.1" y1="329.9" x2="186.3" y2="331.8"/>
	<line class="st0" x1="181.1" y1="329.9" x2="222.4" y2="294.7"/>
	<line class="st0" x1="190.8" y1="329.7" x2="180.4" y2="325.1"/>
	<line class="st0" x1="190.8" y1="329.7" x2="186.3" y2="331.8"/>
	<line class="st0" x1="216.4" y1="156.5" x2="168.3" y2="140.4"/>
	<line class="st0" x1="216.4" y1="156.5" x2="221.3" y2="154.1"/>
	<line class="st0" x1="168.3" y1="140.4" x2="160.4" y2="141.3"/>
	<line class="st0" x1="168.3" y1="140.4" x2="156.9" y2="144.7"/>
	<line class="st0" x1="168.3" y1="140.4" x2="164" y2="137.5"/>
	<line class="st0" x1="242.2" y1="129.3" x2="247.2" y2="127.6"/>
	<line class="st0" x1="242.2" y1="129.3" x2="248" y2="122.2"/>
	<line class="st0" x1="242.2" y1="129.3" x2="236.7" y2="128.7"/>
	<line class="st0" x1="247.2" y1="127.6" x2="248" y2="122.2"/>
	<line class="st0" x1="227.3" y1="230.1" x2="222.3" y2="228.9"/>
	<line class="st0" x1="227.3" y1="230.1" x2="226.3" y2="224.9"/>
	<line class="st0" x1="222.3" y1="228.9" x2="226.3" y2="224.9"/>
	<line class="st0" x1="285.8" y1="263.3" x2="279.7" y2="262.5"/>
	<line class="st0" x1="285.8" y1="263.3" x2="222.3" y2="228.9"/>
	<line class="st0" x1="285.8" y1="263.3" x2="282.5" y2="249.7"/>
	<line class="st0" x1="285.8" y1="263.3" x2="232" y2="294.2"/>
	<line class="st0" x1="285.8" y1="263.3" x2="326.1" y2="210.4"/>
	<line class="st0" x1="285.8" y1="263.3" x2="296.5" y2="260.5"/>
	<line class="st0" x1="285.8" y1="263.3" x2="277.8" y2="165.6"/>
	<line class="st0" x1="285.8" y1="263.3" x2="309.3" y2="271.8"/>
	<line class="st0" x1="285.8" y1="263.3" x2="303" y2="257.9"/>
	<line class="st0" x1="285.8" y1="263.3" x2="317.8" y2="242.4"/>
	<line class="st0" x1="285.8" y1="263.3" x2="289.5" y2="266.6"/>
	<line class="st0" x1="285.8" y1="263.3" x2="275.8" y2="272.7"/>
	<line class="st0" x1="285.8" y1="263.3" x2="299.3" y2="254.4"/>
	<line class="st0" x1="285.8" y1="263.3" x2="294.1" y2="255.1"/>
	<line class="st0" x1="285.8" y1="263.3" x2="265.4" y2="320.2"/>
	<line class="st0" x1="285.8" y1="263.3" x2="292" y2="276.4"/>
	<line class="st0" x1="285.8" y1="263.3" x2="278.2" y2="277.6"/>
	<line class="st0" x1="285.8" y1="263.3" x2="292.7" y2="291.5"/>
	<line class="st0" x1="285.8" y1="263.3" x2="269.9" y2="265.3"/>
	<line class="st0" x1="285.8" y1="263.3" x2="284.5" y2="268.4"/>
	<line class="st0" x1="285.8" y1="263.3" x2="288.6" y2="271.7"/>
	<line class="st0" x1="285.8" y1="263.3" x2="285.4" y2="281.3"/>
	<line class="st0" x1="285.8" y1="263.3" x2="281.1" y2="254.6"/>
	<line class="st0" x1="285.8" y1="263.3" x2="292.5" y2="248.3"/>
	<line class="st0" x1="285.8" y1="263.3" x2="303.9" y2="268"/>
	<line class="st0" x1="285.8" y1="263.3" x2="298.5" y2="269.4"/>
	<line class="st0" x1="285.8" y1="263.3" x2="297.9" y2="249.2"/>
	<line class="st0" x1="285.8" y1="263.3" x2="291.3" y2="261.7"/>
	<line class="st0" x1="285.8" y1="263.3" x2="286.8" y2="287.3"/>
	<line class="st0" x1="285.8" y1="263.3" x2="293.4" y2="271.2"/>
	<line class="st0" x1="285.8" y1="263.3" x2="287.6" y2="247.6"/>
	<line class="st0" x1="285.8" y1="263.3" x2="287" y2="276.7"/>
	<line class="st0" x1="285.8" y1="263.3" x2="270.4" y2="271.2"/>
	<line class="st0" x1="285.8" y1="263.3" x2="279.1" y2="268.3"/>
	<line class="st0" x1="285.8" y1="263.3" x2="294.9" y2="265.4"/>
	<line class="st0" x1="285.8" y1="263.3" x2="288.7" y2="257.5"/>
	<line class="st0" x1="285.8" y1="263.3" x2="276.8" y2="257.6"/>
	<line class="st0" x1="285.8" y1="263.3" x2="276.3" y2="252"/>
	<line class="st0" x1="285.8" y1="263.3" x2="306.3" y2="263.5"/>
	<line class="st0" x1="285.8" y1="263.3" x2="301" y2="262.9"/>
	<line class="st0" x1="285.8" y1="263.3" x2="283.7" y2="258.8"/>
	<line class="st0" x1="285.8" y1="263.3" x2="274.7" y2="262.7"/>
	<line class="st0" x1="285.8" y1="263.3" x2="281.8" y2="273.2"/>
	<line class="st0" x1="285.8" y1="263.3" x2="274.2" y2="267.8"/>
	<line class="st0" x1="285.8" y1="263.3" x2="298.4" y2="277"/>
	<line class="st0" x1="67.8" y1="179.3" x2="72.8" y2="188.2"/>
	<line class="st0" x1="67.8" y1="179.3" x2="76.8" y2="183.3"/>
	<line class="st0" x1="67.8" y1="179.3" x2="71.8" y2="182.7"/>
	<line class="st0" x1="72.8" y1="188.2" x2="76.8" y2="183.3"/>
	<line class="st0" x1="72.8" y1="188.2" x2="71.8" y2="182.7"/>
	<line class="st0" x1="131.2" y1="73.8" x2="128" y2="70"/>
	<line class="st0" x1="131.2" y1="73.8" x2="131.4" y2="63.3"/>
	<line class="st0" x1="131.2" y1="73.8" x2="125.2" y2="60.2"/>
	<line class="st0" x1="131.2" y1="73.8" x2="133" y2="68.2"/>
	<line class="st0" x1="131.2" y1="73.8" x2="134" y2="78.4"/>
	<line class="st0" x1="131.4" y1="63.3" x2="133" y2="68.2"/>
	<line class="st0" x1="131.4" y1="63.3" x2="126.5" y2="65"/>
	<line class="st0" x1="232" y1="294.2" x2="236" y2="297.3"/>
	<line class="st0" x1="232" y1="294.2" x2="230.8" y2="289.4"/>
	<line class="st0" x1="232" y1="294.2" x2="227.3" y2="296.8"/>
	<line class="st0" x1="232" y1="294.2" x2="220.4" y2="299.6"/>
	<line class="st0" x1="232" y1="294.2" x2="226.5" y2="291.9"/>
	<line class="st0" x1="232" y1="294.2" x2="225.5" y2="301.6"/>
	<line class="st0" x1="232" y1="294.2" x2="222.4" y2="294.7"/>
	<line class="st0" x1="236" y1="297.3" x2="230.8" y2="289.4"/>
	<line class="st0" x1="236" y1="297.3" x2="227.3" y2="296.8"/>
	<line class="st0" x1="236" y1="297.3" x2="226.5" y2="291.9"/>
	<line class="st0" x1="238.1" y1="88.8" x2="237.1" y2="133.7"/>
	<line class="st0" x1="238.1" y1="88.8" x2="202.3" y2="78.5"/>
	<line class="st0" x1="187.3" y1="13.9" x2="190.1" y2="18.8"/>
	<line class="st0" x1="187.3" y1="13.9" x2="190.3" y2="23.8"/>
	<line class="st0" x1="187.3" y1="13.9" x2="184.5" y2="19.7"/>
	<line class="st0" x1="184.2" y1="162.9" x2="186.2" y2="168.8"/>
	<line class="st0" x1="184.2" y1="162.9" x2="181.6" y2="171.1"/>
	<line class="st0" x1="184.2" y1="162.9" x2="179.8" y2="165.6"/>
	<line class="st0" x1="184.2" y1="162.9" x2="176.3" y2="170.3"/>
	<line class="st0" x1="186.2" y1="168.8" x2="152.7" y2="193.8"/>
	<line class="st0" x1="186.2" y1="168.8" x2="177.7" y2="161"/>
	<line class="st0" x1="116.7" y1="286.6" x2="125.3" y2="292"/>
	<line class="st0" x1="116.7" y1="286.6" x2="127.7" y2="296.2"/>
	<line class="st0" x1="116.7" y1="286.6" x2="119.2" y2="282.3"/>
	<line class="st0" x1="116.7" y1="286.6" x2="125.9" y2="273.7"/>
	<line class="st0" x1="125.3" y1="292" x2="127.7" y2="296.2"/>
	<line class="st0" x1="125.3" y1="292" x2="122.9" y2="278.5"/>
	<line class="st0" x1="125.3" y1="292" x2="119.2" y2="282.3"/>
	<line class="st0" x1="67.7" y1="253.2" x2="72.9" y2="253.9"/>
	<line class="st0" x1="67.7" y1="253.2" x2="67.9" y2="245.1"/>
	<line class="st0" x1="67.7" y1="253.2" x2="77.7" y2="254.2"/>
	<line class="st0" x1="67.9" y1="245.1" x2="72.9" y2="253.9"/>
	<line class="st0" x1="67.9" y1="245.1" x2="77.7" y2="254.2"/>
	<line class="st0" x1="326.1" y1="210.4" x2="329.8" y2="201.4"/>
	<line class="st0" x1="326.1" y1="210.4" x2="324.9" y2="204.9"/>
	<line class="st0" x1="326.1" y1="210.4" x2="327.1" y2="197.1"/>
	<line class="st0" x1="326.1" y1="210.4" x2="321" y2="199.1"/>
	<line class="st0" x1="329.8" y1="201.4" x2="327.1" y2="197.1"/>
	<line class="st0" x1="329.8" y1="201.4" x2="321" y2="199.1"/>
	<line class="st0" x1="58.6" y1="211.1" x2="53.9" y2="209.5"/>
	<line class="st0" x1="21.2" y1="200.8" x2="27.8" y2="190.6"/>
	<line class="st0" x1="21.2" y1="200.8" x2="20" y2="205.8"/>
	<line class="st0" x1="21.2" y1="200.8" x2="33.1" y2="193.2"/>
	<line class="st0" x1="21.2" y1="200.8" x2="25" y2="184.8"/>
	<line class="st0" x1="21.2" y1="200.8" x2="23.5" y2="209.5"/>
	<line class="st0" x1="21.2" y1="200.8" x2="26" y2="204.7"/>
	<line class="st0" x1="135" y1="192.7" x2="141.7" y2="200.7"/>
	<line class="st0" x1="135" y1="192.7" x2="145.7" y2="190.8"/>
	<line class="st0" x1="135" y1="192.7" x2="157.9" y2="196.2"/>
	<line class="st0" x1="135" y1="192.7" x2="162.3" y2="198.2"/>
	<line class="st0" x1="135" y1="192.7" x2="132.6" y2="197.7"/>
	<line class="st0" x1="141.7" y1="200.7" x2="149" y2="197.1"/>
	<line class="st0" x1="141.7" y1="200.7" x2="153.4" y2="188.3"/>
	<line class="st0" x1="141.7" y1="200.7" x2="153.5" y2="224.9"/>
	<line class="st0" x1="141.7" y1="200.7" x2="153.4" y2="199.5"/>
	<line class="st0" x1="141.7" y1="200.7" x2="141.5" y2="205.5"/>
	<line class="st0" x1="213.5" y1="147.5" x2="219.1" y2="146.5"/>
	<line class="st0" x1="219.1" y1="146.5" x2="216.2" y2="142.5"/>
	<line class="st0" x1="219.1" y1="146.5" x2="216.7" y2="151.4"/>
	<line class="st0" x1="219.1" y1="146.5" x2="223.8" y2="149.4"/>
	<line class="st0" x1="283.2" y1="166.3" x2="286.6" y2="162.1"/>
	<line class="st0" x1="283.2" y1="166.3" x2="281.7" y2="174.9"/>
	<line class="st0" x1="298.9" y1="151.9" x2="280.9" y2="161.3"/>
	<line class="st0" x1="298.9" y1="151.9" x2="303.5" y2="149.4"/>
	<line class="st0" x1="298.9" y1="151.9" x2="295.9" y2="147.6"/>
	<line class="st0" x1="185.7" y1="69.4" x2="191.3" y2="63.4"/>
	<line class="st0" x1="185.7" y1="69.4" x2="190.9" y2="69"/>
	<line class="st0" x1="309.5" y1="276.6" x2="316" y2="277.7"/>
	<line class="st0" x1="309.5" y1="276.6" x2="311.8" y2="281.5"/>
	<line class="st0" x1="200.4" y1="250.7" x2="195.7" y2="252.6"/>
	<line class="st0" x1="200.4" y1="250.7" x2="200.1" y2="241.7"/>
	<line class="st0" x1="200.4" y1="250.7" x2="190.7" y2="250.2"/>
	<line class="st0" x1="200.4" y1="250.7" x2="193.4" y2="245.8"/>
	<line class="st0" x1="200.4" y1="250.7" x2="204.8" y2="253.5"/>
	<line class="st0" x1="147.6" y1="231.2" x2="149" y2="197.1"/>
	<line class="st0" x1="147.6" y1="231.2" x2="203.6" y2="245.3"/>
	<line class="st0" x1="147.6" y1="231.2" x2="159" y2="224.9"/>
	<line class="st0" x1="147.6" y1="231.2" x2="157.7" y2="231.1"/>
	<line class="st0" x1="147.6" y1="231.2" x2="153.5" y2="224.9"/>
	<line class="st0" x1="147.6" y1="231.2" x2="152.4" y2="230.2"/>
	<line class="st0" x1="147.6" y1="231.2" x2="143.8" y2="222.2"/>
	<line class="st0" x1="147.6" y1="231.2" x2="198.4" y2="246.3"/>
	<line class="st0" x1="203.6" y1="245.3" x2="200.4" y2="250.7"/>
	<line class="st0" x1="203.6" y1="245.3" x2="203.4" y2="225.3"/>
	<line class="st0" x1="203.6" y1="245.3" x2="198.4" y2="246.3"/>
	<line class="st0" x1="186.1" y1="326.5" x2="181.1" y2="329.9"/>
	<line class="st0" x1="186.1" y1="326.5" x2="190.8" y2="329.7"/>
	<line class="st0" x1="186.1" y1="326.5" x2="180.4" y2="325.1"/>
	<line class="st0" x1="186.1" y1="326.5" x2="186.3" y2="331.8"/>
	<line class="st0" x1="93.3" y1="238" x2="81.7" y2="185"/>
	<line class="st0" x1="93.3" y1="238" x2="77.7" y2="254.2"/>
	<line class="st0" x1="93.3" y1="238" x2="94.4" y2="231.3"/>
	<line class="st0" x1="93.3" y1="238" x2="89.9" y2="233.7"/>
	<line class="st0" x1="93.3" y1="238" x2="85" y2="235.3"/>
	<line class="st0" x1="81.7" y1="185" x2="73.3" y2="176.9"/>
	<line class="st0" x1="81.7" y1="185" x2="78.4" y2="178.2"/>
	<line class="st0" x1="238" y1="191.3" x2="233" y2="193.2"/>
	<line class="st0" x1="238" y1="191.3" x2="238.1" y2="201.7"/>
	<line class="st0" x1="238" y1="191.3" x2="240.5" y2="196.3"/>
	<line class="st0" x1="238" y1="191.3" x2="233.7" y2="198.4"/>
	<line class="st0" x1="233" y1="193.2" x2="240.5" y2="196.3"/>
	<line class="st0" x1="233" y1="193.2" x2="233.7" y2="198.4"/>
	<line class="st0" x1="115.2" y1="202.2" x2="149" y2="197.1"/>
	<line class="st0" x1="115.2" y1="202.2" x2="119.1" y2="205.3"/>
	<line class="st0" x1="237.1" y1="133.7" x2="242.7" y2="120.5"/>
	<line class="st0" x1="277.8" y1="165.6" x2="274" y2="162.6"/>
	<line class="st0" x1="180.4" y1="325.1" x2="178.9" y2="318.5"/>
	<line class="st0" x1="180.4" y1="325.1" x2="184.1" y2="320.8"/>
	<line class="st0" x1="319.9" y1="204" x2="324.9" y2="204.9"/>
	<line class="st0" x1="319.9" y1="204" x2="321" y2="199.1"/>
	<line class="st0" x1="319.9" y1="204" x2="320.6" y2="208.9"/>
	<line class="st0" x1="319.9" y1="204" x2="330" y2="206.9"/>
	<line class="st0" x1="324.9" y1="204.9" x2="329.8" y2="201.4"/>
	<line class="st0" x1="324.9" y1="204.9" x2="327.1" y2="197.1"/>
	<line class="st0" x1="324.9" y1="204.9" x2="321" y2="199.1"/>
	<line class="st0" x1="324.9" y1="204.9" x2="320.6" y2="208.9"/>
	<line class="st0" x1="324.9" y1="204.9" x2="330" y2="206.9"/>
	<line class="st0" x1="159" y1="224.9" x2="157.7" y2="231.1"/>
	<line class="st0" x1="159" y1="224.9" x2="152.4" y2="230.2"/>
	<line class="st0" x1="203.4" y1="225.3" x2="200.4" y2="250.7"/>
	<line class="st0" x1="203.4" y1="225.3" x2="198.8" y2="220.4"/>
	<line class="st0" x1="73.3" y1="176.9" x2="67.8" y2="179.3"/>
	<line class="st0" x1="73.3" y1="176.9" x2="72.8" y2="188.2"/>
	<line class="st0" x1="73.3" y1="176.9" x2="76.8" y2="183.3"/>
	<line class="st0" x1="73.3" y1="176.9" x2="71.8" y2="182.7"/>
	<line class="st0" x1="73.3" y1="176.9" x2="78.4" y2="178.2"/>
	<line class="st0" x1="202.3" y1="78.5" x2="181.4" y2="66.4"/>
	<line class="st0" x1="202.3" y1="78.5" x2="197.7" y2="80.6"/>
	<line class="st0" x1="181.4" y1="66.4" x2="185.7" y2="69.4"/>
	<line class="st0" x1="181.4" y1="66.4" x2="191.3" y2="63.4"/>
	<line class="st0" x1="181.4" y1="66.4" x2="197.7" y2="80.6"/>
	<line class="st0" x1="181.4" y1="66.4" x2="190.9" y2="69"/>
	<line class="st0" x1="107.9" y1="130" x2="115.1" y2="145.9"/>
	<line class="st0" x1="107.9" y1="130" x2="117.3" y2="150.6"/>
	<line class="st0" x1="107.9" y1="130" x2="113.4" y2="133.8"/>
	<line class="st0" x1="115.1" y1="145.9" x2="117.3" y2="150.6"/>
	<line class="st0" x1="125.2" y1="60.2" x2="122.4" y2="69.5"/>
	<line class="st0" x1="125.2" y1="60.2" x2="128" y2="70"/>
	<line class="st0" x1="125.2" y1="60.2" x2="131.4" y2="63.3"/>
	<line class="st0" x1="125.2" y1="60.2" x2="119.8" y2="74"/>
	<line class="st0" x1="125.2" y1="60.2" x2="125" y2="74.4"/>
	<line class="st0" x1="125.2" y1="60.2" x2="133" y2="68.2"/>
	<line class="st0" x1="125.2" y1="60.2" x2="128" y2="78.8"/>
	<line class="st0" x1="301.9" y1="288.2" x2="285.8" y2="263.3"/>
	<line class="st0" x1="301.9" y1="288.2" x2="298.8" y2="284"/>
	<line class="st0" x1="304.9" y1="275.2" x2="285.8" y2="263.3"/>
	<line class="st0" x1="304.9" y1="275.2" x2="309.5" y2="276.6"/>
	<line class="st0" x1="304.9" y1="275.2" x2="316" y2="277.7"/>
	<line class="st0" x1="304.9" y1="275.2" x2="309.3" y2="271.8"/>
	<line class="st0" x1="304.9" y1="275.2" x2="311.8" y2="281.5"/>
	<line class="st0" x1="267.9" y1="62.5" x2="273" y2="63.5"/>
	<line class="st0" x1="267.9" y1="62.5" x2="258.7" y2="59.5"/>
	<line class="st0" x1="267.9" y1="62.5" x2="268.4" y2="56.6"/>
	<line class="st0" x1="267.9" y1="62.5" x2="263.9" y2="59.6"/>
	<line class="st0" x1="267.9" y1="62.5" x2="266.5" y2="67.9"/>
	<line class="st0" x1="267.9" y1="62.5" x2="262" y2="65.1"/>
	<line class="st0" x1="267.9" y1="62.5" x2="276.5" y2="72.9"/>
	<line class="st0" x1="242.2" y1="134.7" x2="242.2" y2="129.3"/>
	<line class="st0" x1="242.2" y1="134.7" x2="238.1" y2="88.8"/>
	<line class="st0" x1="242.2" y1="134.7" x2="237.1" y2="133.7"/>
	<line class="st0" x1="242.2" y1="134.7" x2="232.7" y2="125.6"/>
	<line class="st0" x1="152.7" y1="193.8" x2="163.6" y2="203.1"/>
	<line class="st0" x1="152.7" y1="193.8" x2="177.7" y2="161"/>
	<line class="st0" x1="152.7" y1="193.8" x2="207.3" y2="228.1"/>
	<line class="st0" x1="152.7" y1="193.8" x2="166.8" y2="194.8"/>
	<line class="st0" x1="71.3" y1="249.1" x2="76" y2="247.2"/>
	<line class="st0" x1="71.3" y1="249.1" x2="67.7" y2="253.2"/>
	<line class="st0" x1="71.3" y1="249.1" x2="67.9" y2="245.1"/>
	<line class="st0" x1="71.3" y1="249.1" x2="77.7" y2="254.2"/>
	<line class="st0" x1="268.6" y1="206.9" x2="266.6" y2="201"/>
	<line class="st0" x1="268.6" y1="206.9" x2="263.1" y2="205.3"/>
	<line class="st0" x1="77.7" y1="254.2" x2="72.9" y2="253.9"/>
	<line class="st0" x1="77.7" y1="254.2" x2="94.4" y2="231.3"/>
	<line class="st0" x1="77.7" y1="254.2" x2="89.9" y2="233.7"/>
	<line class="st0" x1="77.7" y1="254.2" x2="85" y2="235.3"/>
	<line class="st0" x1="317.8" y1="242.4" x2="327" y2="245"/>
	<line class="st0" x1="317.8" y1="242.4" x2="318.7" y2="237.1"/>
	<line class="st0" x1="317.8" y1="242.4" x2="327.8" y2="239.9"/>
	<line class="st0" x1="158.7" y1="201.8" x2="149" y2="197.1"/>
	<line class="st0" x1="158.7" y1="201.8" x2="163.6" y2="203.1"/>
	<line class="st0" x1="158.7" y1="201.8" x2="152.7" y2="193.8"/>
	<line class="st0" x1="158.7" y1="201.8" x2="158.2" y2="191.2"/>
	<line class="st0" x1="158.7" y1="201.8" x2="154.6" y2="204.4"/>
	<line class="st0" x1="158.7" y1="201.8" x2="157.9" y2="196.2"/>
	<line class="st0" x1="158.7" y1="201.8" x2="166.8" y2="194.8"/>
	<line class="st0" x1="158.2" y1="191.2" x2="154.6" y2="204.4"/>
	<line class="st0" x1="158.2" y1="191.2" x2="157.9" y2="196.2"/>
	<line class="st0" x1="181.6" y1="171.1" x2="186.2" y2="168.8"/>
	<line class="st0" x1="181.6" y1="171.1" x2="179.8" y2="165.6"/>
	<line class="st0" x1="179.8" y1="165.6" x2="186.2" y2="168.8"/>
	<line class="st0" x1="238.1" y1="201.7" x2="233" y2="193.2"/>
	<line class="st0" x1="238.1" y1="201.7" x2="240.5" y2="196.3"/>
	<line class="st0" x1="238.1" y1="201.7" x2="233.7" y2="198.4"/>
	<line class="st0" x1="234.5" y1="85.5" x2="238.1" y2="88.8"/>
	<line class="st0" x1="234.5" y1="85.5" x2="202.3" y2="78.5"/>
	<line class="st0" x1="234.5" y1="85.5" x2="233.6" y2="90.6"/>
	<line class="st0" x1="230.8" y1="289.4" x2="226.5" y2="291.9"/>
	<line class="st0" x1="186.6" y1="64.5" x2="185.7" y2="69.4"/>
	<line class="st0" x1="186.6" y1="64.5" x2="191.3" y2="63.4"/>
	<line class="st0" x1="186.6" y1="64.5" x2="181.4" y2="66.4"/>
	<line class="st0" x1="186.6" y1="64.5" x2="184.5" y2="59.4"/>
	<line class="st0" x1="186.6" y1="64.5" x2="190.9" y2="69"/>
	<line class="st0" x1="327.1" y1="197.1" x2="321" y2="199.1"/>
	<line class="st0" x1="321" y1="199.1" x2="320.6" y2="208.9"/>
	<line class="st0" x1="321" y1="199.1" x2="330" y2="206.9"/>
	<line class="st0" x1="107.9" y1="146.8" x2="107.9" y2="130"/>
	<line class="st0" x1="107.9" y1="146.8" x2="115.1" y2="145.9"/>
	<line class="st0" x1="107.9" y1="146.8" x2="111.9" y2="150.2"/>
	<line class="st0" x1="107.9" y1="146.8" x2="117.3" y2="150.6"/>
	<line class="st0" x1="111.9" y1="150.2" x2="149" y2="197.1"/>
	<line class="st0" x1="111.9" y1="150.2" x2="107.9" y2="130"/>
	<line class="st0" x1="111.9" y1="150.2" x2="115.1" y2="145.9"/>
	<line class="st0" x1="111.9" y1="150.2" x2="117.3" y2="150.6"/>
	<line class="st0" x1="285.8" y1="177.6" x2="289.5" y2="174"/>
	<line class="st0" x1="285.8" y1="177.6" x2="289.3" y2="167.8"/>
	<line class="st0" x1="285.8" y1="177.6" x2="279.2" y2="179.9"/>
	<line class="st0" x1="289.5" y1="174" x2="219.1" y2="146.5"/>
	<line class="st0" x1="289.5" y1="174" x2="278.5" y2="170.6"/>
	<line class="st0" x1="258.7" y1="59.5" x2="268.4" y2="56.6"/>
	<line class="st0" x1="258.7" y1="59.5" x2="263.9" y2="59.6"/>
	<line class="st0" x1="258.7" y1="59.5" x2="262" y2="65.1"/>
	<line class="st0" x1="268.4" y1="56.6" x2="263.9" y2="59.6"/>
	<line class="st0" x1="268.4" y1="56.6" x2="262" y2="65.1"/>
	<line class="st0" x1="33.3" y1="187.8" x2="21.2" y2="200.8"/>
	<line class="st0" x1="33.3" y1="187.8" x2="27.8" y2="190.6"/>
	<line class="st0" x1="33.3" y1="187.8" x2="33.1" y2="193.2"/>
	<line class="st0" x1="33.3" y1="187.8" x2="28.8" y2="195.7"/>
	<line class="st0" x1="33.3" y1="187.8" x2="36.1" y2="196.9"/>
	<line class="st0" x1="33.3" y1="187.8" x2="25" y2="184.8"/>
	<line class="st0" x1="33.3" y1="187.8" x2="37.3" y2="184.1"/>
	<line class="st0" x1="33.3" y1="187.8" x2="30.3" y2="183.7"/>
	<line class="st0" x1="33.1" y1="193.2" x2="27.8" y2="190.6"/>
	<line class="st0" x1="281.7" y1="174.9" x2="279.2" y2="179.9"/>
	<line class="st0" x1="60.9" y1="206.1" x2="58.6" y2="211.1"/>
	<line class="st0" x1="60.9" y1="206.1" x2="53.9" y2="209.5"/>
	<line class="st0" x1="60.9" y1="206.1" x2="93.3" y2="238"/>
	<line class="st0" x1="60.9" y1="206.1" x2="81.7" y2="185"/>
	<line class="st0" x1="60.9" y1="206.1" x2="22.4" y2="194.2"/>
	<line class="st0" x1="60.9" y1="206.1" x2="25" y2="184.8"/>
	<line class="st0" x1="60.9" y1="206.1" x2="21.9" y2="188.9"/>
	<line class="st0" x1="22.4" y1="194.2" x2="21.9" y2="188.9"/>
	<line class="st0" x1="121.8" y1="296.2" x2="116.7" y2="286.6"/>
	<line class="st0" x1="121.8" y1="296.2" x2="125.3" y2="292"/>
	<line class="st0" x1="121.8" y1="296.2" x2="127.7" y2="296.2"/>
	<line class="st0" x1="121.8" y1="296.2" x2="116.3" y2="295.7"/>
	<line class="st0" x1="121.8" y1="296.2" x2="122.9" y2="278.5"/>
	<line class="st0" x1="121.8" y1="296.2" x2="119.2" y2="282.3"/>
	<line class="st0" x1="127.7" y1="296.2" x2="119.2" y2="282.3"/>
	<line class="st0" x1="127.7" y1="296.2" x2="125.2" y2="283.1"/>
	<line class="st0" x1="127.7" y1="296.2" x2="129.9" y2="290.3"/>
	<line class="st0" x1="138.9" y1="225.7" x2="142.5" y2="229.5"/>
	<line class="st0" x1="299.3" y1="254.4" x2="287.6" y2="247.6"/>
	<line class="st0" x1="138" y1="220.4" x2="149" y2="197.1"/>
	<line class="st0" x1="138" y1="220.4" x2="147.6" y2="231.2"/>
	<line class="st0" x1="138" y1="220.4" x2="138.9" y2="225.7"/>
	<line class="st0" x1="138" y1="220.4" x2="142.5" y2="229.5"/>
	<line class="st0" x1="138" y1="220.4" x2="143.8" y2="222.2"/>
	<line class="st0" x1="184" y1="336.1" x2="181.1" y2="329.9"/>
	<line class="st0" x1="184" y1="336.1" x2="190.8" y2="329.7"/>
	<line class="st0" x1="184" y1="336.1" x2="186.1" y2="326.5"/>
	<line class="st0" x1="184" y1="336.1" x2="186.3" y2="331.8"/>
	<line class="st0" x1="186.3" y1="331.8" x2="180.4" y2="325.1"/>
	<line class="st0" x1="200" y1="70.9" x2="202.3" y2="78.5"/>
	<line class="st0" x1="200" y1="70.9" x2="181.4" y2="66.4"/>
	<line class="st0" x1="200" y1="70.9" x2="196.8" y2="75"/>
	<line class="st0" x1="200" y1="70.9" x2="197.7" y2="80.6"/>
	<line class="st0" x1="200" y1="70.9" x2="204.7" y2="73.3"/>
	<line class="st0" x1="196.8" y1="75" x2="202.3" y2="78.5"/>
	<line class="st0" x1="196.8" y1="75" x2="181.4" y2="66.4"/>
	<line class="st0" x1="196.8" y1="75" x2="197.7" y2="80.6"/>
	<line class="st0" x1="196.8" y1="75" x2="192" y2="74.4"/>
	<line class="st0" x1="265.4" y1="320.2" x2="268.8" y2="315.7"/>
	<line class="st0" x1="265.4" y1="320.2" x2="263.8" y2="315.2"/>
	<line class="st0" x1="265.4" y1="320.2" x2="259.2" y2="316.5"/>
	<line class="st0" x1="265.4" y1="320.2" x2="266.4" y2="310.4"/>
	<line class="st0" x1="259.2" y1="316.5" x2="263.8" y2="315.2"/>
	<line class="st0" x1="194.4" y1="223" x2="238" y2="191.3"/>
	<line class="st0" x1="194.4" y1="223" x2="203.4" y2="225.3"/>
	<line class="st0" x1="194.4" y1="223" x2="198.8" y2="220.4"/>
	<line class="st0" x1="194.4" y1="223" x2="203.8" y2="220.1"/>
	<line class="st0" x1="194.4" y1="223" x2="198.6" y2="226.8"/>
	<line class="st0" x1="203.8" y1="220.1" x2="203.4" y2="225.3"/>
	<line class="st0" x1="203.8" y1="220.1" x2="198.8" y2="220.4"/>
	<line class="st0" x1="203.8" y1="220.1" x2="203.3" y2="214.8"/>
	<line class="st0" x1="153.5" y1="224.9" x2="149" y2="197.1"/>
	<line class="st0" x1="153.5" y1="224.9" x2="159" y2="224.9"/>
	<line class="st0" x1="153.5" y1="224.9" x2="157.7" y2="231.1"/>
	<line class="st0" x1="153.5" y1="224.9" x2="152.4" y2="230.2"/>
	<line class="st0" x1="153.5" y1="224.9" x2="141.5" y2="205.5"/>
	<line class="st0" x1="122.6" y1="287.2" x2="125.3" y2="292"/>
	<line class="st0" x1="122.6" y1="287.2" x2="127.7" y2="296.2"/>
	<line class="st0" x1="122.6" y1="287.2" x2="113.2" y2="277.5"/>
	<line class="st0" x1="122.6" y1="287.2" x2="119.2" y2="282.3"/>
	<line class="st0" x1="122.6" y1="287.2" x2="125.2" y2="283.1"/>
	<line class="st0" x1="122.6" y1="287.2" x2="113.1" y2="282.6"/>
	<line class="st0" x1="89.9" y1="233.7" x2="94.4" y2="231.3"/>
	<line class="st0" x1="89.9" y1="233.7" x2="85" y2="235.3"/>
	<line class="st0" x1="76.8" y1="183.3" x2="71.8" y2="182.7"/>
	<line class="st0" x1="227.3" y1="296.8" x2="230.8" y2="289.4"/>
	<line class="st0" x1="227.3" y1="296.8" x2="226.5" y2="291.9"/>
	<line class="st0" x1="176.3" y1="170.3" x2="186.2" y2="168.8"/>
	<line class="st0" x1="176.3" y1="170.3" x2="181.6" y2="171.1"/>
	<line class="st0" x1="176.3" y1="170.3" x2="179.8" y2="165.6"/>
	<line class="st0" x1="200.1" y1="241.7" x2="204.8" y2="253.5"/>
	<line class="st0" x1="249.4" y1="72.5" x2="239.9" y2="69.1"/>
	<line class="st0" x1="249.4" y1="72.5" x2="258.7" y2="59.5"/>
	<line class="st0" x1="249.4" y1="72.5" x2="243.6" y2="75.5"/>
	<line class="st0" x1="249.4" y1="72.5" x2="251.2" y2="67.6"/>
	<line class="st0" x1="190.7" y1="250.2" x2="195.7" y2="252.6"/>
	<line class="st0" x1="190.7" y1="250.2" x2="193.4" y2="245.8"/>
	<line class="st0" x1="216.7" y1="151.4" x2="223.8" y2="149.4"/>
	<line class="st0" x1="151.6" y1="243.3" x2="147.6" y2="231.2"/>
	<line class="st0" x1="151.6" y1="243.3" x2="149.8" y2="235.8"/>
	<line class="st0" x1="151.6" y1="243.3" x2="155.3" y2="240.3"/>
	<line class="st0" x1="151.6" y1="243.3" x2="143.8" y2="236.7"/>
	<line class="st0" x1="151.6" y1="243.3" x2="147.2" y2="240.9"/>
	<line class="st0" x1="149.8" y1="235.8" x2="147.6" y2="231.2"/>
	<line class="st0" x1="28.8" y1="195.7" x2="36.1" y2="196.9"/>
	<line class="st0" x1="25" y1="184.8" x2="27.8" y2="190.6"/>
	<line class="st0" x1="25" y1="184.8" x2="33.1" y2="193.2"/>
	<line class="st0" x1="25" y1="184.8" x2="22.4" y2="194.2"/>
	<line class="st0" x1="25" y1="184.8" x2="21.9" y2="188.9"/>
	<line class="st0" x1="154.6" y1="204.4" x2="157.9" y2="196.2"/>
	<line class="st0" x1="144.2" y1="196.4" x2="135" y2="192.7"/>
	<line class="st0" x1="144.2" y1="196.4" x2="141.7" y2="200.7"/>
	<line class="st0" x1="144.2" y1="196.4" x2="145.7" y2="190.8"/>
	<line class="st0" x1="144.2" y1="196.4" x2="140.1" y2="192.3"/>
	<line class="st0" x1="145.7" y1="190.8" x2="141.7" y2="200.7"/>
	<line class="st0" x1="145.7" y1="190.8" x2="135.7" y2="202.2"/>
	<line class="st0" x1="145.7" y1="190.8" x2="137.8" y2="197.2"/>
	<line class="st0" x1="113.5" y1="207.2" x2="149" y2="197.1"/>
	<line class="st0" x1="113.5" y1="207.2" x2="93.3" y2="238"/>
	<line class="st0" x1="113.5" y1="207.2" x2="81.7" y2="185"/>
	<line class="st0" x1="113.5" y1="207.2" x2="115.2" y2="202.2"/>
	<line class="st0" x1="113.5" y1="207.2" x2="119.1" y2="205.3"/>
	<line class="st0" x1="113.5" y1="207.2" x2="60.9" y2="206.1"/>
	<line class="st0" x1="152.4" y1="230.2" x2="157.7" y2="231.1"/>
	<line class="st0" x1="330" y1="206.9" x2="320.6" y2="208.9"/>
	<line class="st0" x1="157.9" y1="196.2" x2="162.3" y2="198.2"/>
	<line class="st0" x1="157.9" y1="196.2" x2="132.6" y2="197.7"/>
	<line class="st0" x1="236.6" y1="120.6" x2="237.1" y2="133.7"/>
	<line class="st0" x1="236.6" y1="120.6" x2="242.7" y2="120.5"/>
	<line class="st0" x1="236.6" y1="120.6" x2="261.6" y2="199.4"/>
	<line class="st0" x1="236.6" y1="120.6" x2="239.8" y2="124.6"/>
	<line class="st0" x1="239.8" y1="124.6" x2="237.1" y2="133.7"/>
	<line class="st0" x1="239.8" y1="124.6" x2="242.7" y2="120.5"/>
	<line class="st0" x1="240.5" y1="196.3" x2="233.7" y2="198.4"/>
	<line class="st0" x1="116.3" y1="295.7" x2="162.4" y2="148.7"/>
	<line class="st0" x1="162.4" y1="148.7" x2="164" y2="137.5"/>
	<line class="st0" x1="292.7" y1="291.5" x2="297.7" y2="291.1"/>
	<line class="st0" x1="292.7" y1="291.5" x2="287.1" y2="292.5"/>
	<line class="st0" x1="200.1" y1="135.6" x2="216.4" y2="156.5"/>
	<line class="st0" x1="200.1" y1="135.6" x2="221.3" y2="154.1"/>
	<line class="st0" x1="289.3" y1="167.8" x2="289.5" y2="174"/>
	<line class="st0" x1="263.9" y1="59.6" x2="262" y2="65.1"/>
	<line class="st0" x1="269.9" y1="265.3" x2="284.5" y2="268.4"/>
	<line class="st0" x1="273.5" y1="169.2" x2="280.9" y2="161.3"/>
	<line class="st0" x1="273.5" y1="169.2" x2="277.8" y2="165.6"/>
	<line class="st0" x1="273.5" y1="169.2" x2="274" y2="162.6"/>
	<line class="st0" x1="198.6" y1="226.8" x2="203.4" y2="225.3"/>
	<line class="st0" x1="198.6" y1="226.8" x2="198.8" y2="220.4"/>
	<line class="st0" x1="198.6" y1="226.8" x2="203.8" y2="220.1"/>
	<line class="st0" x1="153.4" y1="199.5" x2="153.4" y2="188.3"/>
	<line class="st0" x1="266.4" y1="310.4" x2="268.8" y2="315.7"/>
	<line class="st0" x1="266.4" y1="310.4" x2="263.8" y2="315.2"/>
	<line class="st0" x1="266.4" y1="310.4" x2="259.2" y2="316.5"/>
	<line class="st0" x1="128" y1="78.8" x2="128" y2="70"/>
	<line class="st0" x1="128" y1="78.8" x2="119.8" y2="74"/>
	<line class="st0" x1="128" y1="78.8" x2="125" y2="74.4"/>
	<line class="st0" x1="220.4" y1="299.6" x2="225.5" y2="301.6"/>
	<line class="st0" x1="220.4" y1="299.6" x2="222.4" y2="294.7"/>
	<line class="st0" x1="190.3" y1="23.8" x2="190.1" y2="18.8"/>
	<line class="st0" x1="37.3" y1="184.1" x2="30.3" y2="183.7"/>
	<line class="st0" x1="119.2" y1="282.3" x2="113.2" y2="277.5"/>
	<line class="st0" x1="119.2" y1="282.3" x2="122.9" y2="278.5"/>
	<line class="st0" x1="119.2" y1="282.3" x2="113.1" y2="282.6"/>
	<line class="st0" x1="279.2" y1="179.9" x2="277.8" y2="165.6"/>
	<line class="st0" x1="279.2" y1="179.9" x2="274" y2="162.6"/>
	<line class="st0" x1="279.2" y1="179.9" x2="289.5" y2="174"/>
	<line class="st0" x1="279.2" y1="179.9" x2="289.3" y2="167.8"/>
	<line class="st0" x1="279.2" y1="179.9" x2="273.5" y2="169.2"/>
	<line class="st0" x1="279.2" y1="179.9" x2="275.4" y2="174.8"/>
	<line class="st0" x1="214.4" y1="221.2" x2="227.3" y2="230.1"/>
	<line class="st0" x1="214.4" y1="221.2" x2="222.3" y2="228.9"/>
	<line class="st0" x1="214.4" y1="221.2" x2="152.7" y2="193.8"/>
	<line class="st0" x1="214.4" y1="221.2" x2="207.3" y2="228.1"/>
	<line class="st0" x1="214.4" y1="221.2" x2="226.3" y2="224.9"/>
	<line class="st0" x1="214.4" y1="221.2" x2="212.3" y2="226.4"/>
	<line class="st0" x1="214.4" y1="221.2" x2="209.2" y2="221.5"/>
	<line class="st0" x1="121.5" y1="64.6" x2="128" y2="70"/>
	<line class="st0" x1="121.5" y1="64.6" x2="186.6" y2="64.5"/>
	<line class="st0" x1="121.5" y1="64.6" x2="117.7" y2="68.3"/>
	<line class="st0" x1="232.7" y1="125.6" x2="242.2" y2="129.3"/>
	<line class="st0" x1="232.7" y1="125.6" x2="247.2" y2="127.6"/>
	<line class="st0" x1="232.7" y1="125.6" x2="237.1" y2="133.7"/>
	<line class="st0" x1="232.7" y1="125.6" x2="242.7" y2="120.5"/>
	<line class="st0" x1="232.7" y1="125.6" x2="236.6" y2="120.6"/>
	<line class="st0" x1="232.7" y1="125.6" x2="239.8" y2="124.6"/>
	<line class="st0" x1="232.7" y1="125.6" x2="236.7" y2="128.7"/>
	<line class="st0" x1="281.1" y1="254.6" x2="276.8" y2="257.6"/>
	<line class="st0" x1="178.9" y1="318.5" x2="184.1" y2="320.8"/>
	<line class="st0" x1="113.1" y1="282.6" x2="113.2" y2="277.5"/>
	<line class="st0" x1="140.1" y1="192.3" x2="135" y2="192.7"/>
	<line class="st0" x1="140.1" y1="192.3" x2="141.7" y2="200.7"/>
	<line class="st0" x1="140.1" y1="192.3" x2="145.7" y2="190.8"/>
	<line class="st0" x1="311.8" y1="281.5" x2="316" y2="277.7"/>
	<line class="st0" x1="85" y1="235.3" x2="94.4" y2="231.3"/>
	<line class="st0" x1="322.7" y1="241.1" x2="317.8" y2="242.4"/>
	<line class="st0" x1="322.7" y1="241.1" x2="327" y2="245"/>
	<line class="st0" x1="322.7" y1="241.1" x2="327.8" y2="239.9"/>
	<line class="st0" x1="166.8" y1="194.8" x2="163.6" y2="203.1"/>
	<line class="st0" x1="143.8" y1="236.7" x2="147.6" y2="231.2"/>
	<line class="st0" x1="143.8" y1="236.7" x2="149.8" y2="235.8"/>
	<line class="st0" x1="135.7" y1="202.2" x2="137.8" y2="197.2"/>
	<line class="st0" x1="294.6" y1="287" x2="292.7" y2="291.5"/>
	<line class="st0" x1="294.6" y1="287" x2="297.7" y2="291.1"/>
	<line class="st0" x1="271.5" y1="254.6" x2="282.5" y2="249.7"/>
	<line class="st0" x1="162.3" y1="198.2" x2="132.6" y2="197.7"/>
	<line class="st0" x1="23.5" y1="209.5" x2="20" y2="205.8"/>
	<line class="st0" x1="303.9" y1="268" x2="306.3" y2="263.5"/>
	<line class="st0" x1="233.6" y1="90.6" x2="238.1" y2="88.8"/>
	<line class="st0" x1="233.6" y1="90.6" x2="202.3" y2="78.5"/>
	<line class="st0" x1="118.4" y1="276" x2="116.7" y2="286.6"/>
	<line class="st0" x1="118.4" y1="276" x2="129.8" y2="281.1"/>
	<line class="st0" x1="243.6" y1="75.5" x2="245" y2="69.9"/>
	<line class="st0" x1="243.6" y1="75.5" x2="258.7" y2="59.5"/>
	<line class="st0" x1="190.9" y1="69" x2="191.3" y2="63.4"/>
	<line class="st0" x1="222.4" y1="294.7" x2="225.5" y2="301.6"/>
	<line class="st0" x1="270.5" y1="260" x2="285.8" y2="263.3"/>
	<line class="st0" x1="286.3" y1="253" x2="270.5" y2="260"/>
	<line class="st0" x1="221.3" y1="154.1" x2="219.1" y2="146.5"/>
	<line class="st0" x1="221.3" y1="154.1" x2="216.7" y2="151.4"/>
	<line class="st0" x1="221.3" y1="154.1" x2="223.8" y2="149.4"/>
	<line class="st0" x1="141.5" y1="205.5" x2="149" y2="197.1"/>
	<line class="st0" x1="285" y1="170.7" x2="298.9" y2="151.9"/>
	<line class="st0" x1="285" y1="170.7" x2="285.8" y2="177.6"/>
	<line class="st0" x1="285" y1="170.7" x2="289.5" y2="174"/>
	<line class="st0" x1="285" y1="170.7" x2="289.3" y2="167.8"/>
	<line class="st0" x1="285" y1="170.7" x2="279.2" y2="179.9"/>
	<line class="st0" x1="233.4" y1="163.1" x2="213.5" y2="147.5"/>
	<line class="st0" x1="233.4" y1="163.1" x2="238.5" y2="165.1"/>
	<line class="st0" x1="228.2" y1="194.4" x2="238" y2="191.3"/>
	<line class="st0" x1="193.4" y1="245.8" x2="195.7" y2="252.6"/>
	<line class="st0" x1="164" y1="137.5" x2="156.9" y2="144.7"/>
	<line class="st0" x1="164" y1="137.5" x2="157.2" y2="150.7"/>
	<line class="st0" x1="276.5" y1="72.9" x2="273" y2="63.5"/>
	<line class="st0" x1="276.5" y1="72.9" x2="276.5" y2="67.3"/>
	<line class="st0" x1="294.8" y1="281.1" x2="301.9" y2="288.2"/>
	<line class="st0" x1="294.8" y1="281.1" x2="298.8" y2="284"/>
	<line class="st0" x1="286.8" y1="287.3" x2="292.7" y2="291.5"/>
	<line class="st0" x1="279.1" y1="268.3" x2="299.3" y2="254.4"/>
	<line class="st0" x1="115.5" y1="196.6" x2="115.2" y2="202.2"/>
	<line class="st0" x1="115.5" y1="196.6" x2="110.2" y2="201.7"/>
	<line class="st0" x1="125.9" y1="273.7" x2="119" y2="290.9"/>
	<line class="st0" x1="282.3" y1="244.6" x2="269.9" y2="265.3"/>
	<line class="st0" x1="184.5" y1="19.7" x2="190.1" y2="18.8"/>
	<line class="st0" x1="184.5" y1="19.7" x2="184.5" y2="59.4"/>
	<line class="st0" x1="184.5" y1="19.7" x2="190.3" y2="23.8"/>
	<line class="st0" x1="184.5" y1="19.7" x2="185.5" y2="24.7"/>
	<line class="st0" x1="327.8" y1="239.9" x2="327" y2="245"/>
	<line class="st0" x1="327.8" y1="239.9" x2="322" y2="246.1"/>
	<line class="st0" x1="26" y1="204.7" x2="20" y2="205.8"/>
	<line class="st0" x1="26" y1="204.7" x2="23.5" y2="209.5"/>
	<line class="st0" x1="290.4" y1="283.7" x2="286.8" y2="287.3"/>
	<line class="st0" x1="67.7" y1="186.9" x2="72.8" y2="188.2"/>
	<line class="st0" x1="194.9" y1="217" x2="194.4" y2="223"/>
	<line class="st0" x1="199.5" y1="141.1" x2="200.1" y2="135.6"/>
	<line class="st0" x1="231.8" y1="300.1" x2="236" y2="297.3"/>
	<path d="M162.4,141.3c0-1.1-0.9-1.9-1.9-1.9c-1.1,0-1.9,0.9-1.9,1.9c0,1.1,0.9,1.9,1.9,1.9C161.5,143.2,162.4,142.3,162.4,141.3"/>
	<path d="M166.8,144.1c0-1.1-0.9-1.9-1.9-1.9c-1.1,0-1.9,0.9-1.9,1.9c0,1.1,0.9,1.9,1.9,1.9C165.9,146.1,166.8,145.2,166.8,144.1"/>
	<path d="M109.6,135.2c0-1.1-0.9-1.9-1.9-1.9s-1.9,0.9-1.9,1.9c0,1.1,0.9,1.9,1.9,1.9S109.6,136.2,109.6,135.2"/>
	<path d="M113.6,139.1c0-1.1-0.9-1.9-1.9-1.9c-1.1,0-1.9,0.9-1.9,1.9c0,1.1,0.9,1.9,1.9,1.9C112.7,141.1,113.6,140.2,113.6,139.1"/>
	<path d="M124.4,69.5c0-1.1-0.9-1.9-1.9-1.9c-1.1,0-1.9,0.9-1.9,1.9c0,1.1,0.9,1.9,1.9,1.9C123.5,71.4,124.4,70.5,124.4,69.5"/>
	<path d="M130,70c0-1.1-0.9-1.9-1.9-1.9c-1.1,0-1.9,0.9-1.9,1.9c0,1.1,0.9,1.9,1.9,1.9C129.1,72,130,71.1,130,70"/>
	<path d="M273.5,202.3c0-1.1-0.9-1.9-1.9-1.9c-1.1,0-1.9,0.9-1.9,1.9c0,1.1,0.9,1.9,1.9,1.9C272.6,204.2,273.5,203.3,273.5,202.3"/>
	<path d="M268.6,201c0-1.1-0.9-1.9-1.9-1.9c-1.1,0-1.9,0.9-1.9,1.9c0,1.1,0.9,1.9,1.9,1.9C267.7,203,268.6,202.1,268.6,201"/>
	<path d="M241.8,69.1c0-1.1-0.9-1.9-1.9-1.9s-1.9,0.9-1.9,1.9c0,1.1,0.9,1.9,1.9,1.9S241.8,70.1,241.8,69.1"/>
	<path d="M247,69.9c0-1.1-0.9-1.9-1.9-1.9c-1.1,0-1.9,0.9-1.9,1.9c0,1.1,0.9,1.9,1.9,1.9C246.1,71.8,247,71,247,69.9"/>
	<path d="M77.9,247.2c0-1.1-0.9-1.9-1.9-1.9c-1.1,0-1.9,0.9-1.9,1.9c0,1.1,0.9,1.9,1.9,1.9C77,249.2,77.9,248.3,77.9,247.2"/>
	<path d="M74.9,253.9c0-1.1-0.9-1.9-1.9-1.9c-1.1,0-1.9,0.9-1.9,1.9c0,1.1,0.9,1.9,1.9,1.9C74,255.8,74.9,254.9,74.9,253.9"/>
	<path d="M150.9,197.1c0-1.1-0.9-1.9-1.9-1.9c-1.1,0-1.9,0.9-1.9,1.9c0,1.1,0.9,1.9,1.9,1.9C150.1,199.1,150.9,198.2,150.9,197.1"/>
	<path d="M155.3,188.3c0-1.1-0.9-1.9-1.9-1.9s-1.9,0.9-1.9,1.9c0,1.1,0.9,1.9,1.9,1.9S155.3,189.4,155.3,188.3"/>
	<path d="M270.7,315.7c0-1.1-0.9-1.9-1.9-1.9c-1.1,0-1.9,0.9-1.9,1.9c0,1.1,0.9,1.9,1.9,1.9C269.9,317.6,270.7,316.8,270.7,315.7"/>
	<path d="M265.7,315.2c0-1.1-0.9-1.9-1.9-1.9c-1.1,0-1.9,0.9-1.9,1.9c0,1.1,0.9,1.9,1.9,1.9C264.9,317.1,265.7,316.2,265.7,315.2"/>
	<path d="M281.6,262.5c0-1.1-0.9-1.9-1.9-1.9c-1.1,0-1.9,0.9-1.9,1.9c0,1.1,0.9,1.9,1.9,1.9C280.8,264.4,281.6,263.5,281.6,262.5"/>
	<path d="M278.3,246.8c0-1.1-0.9-1.9-1.9-1.9c-1.1,0-1.9,0.9-1.9,1.9c0,1.1,0.9,1.9,1.9,1.9C277.4,248.7,278.3,247.9,278.3,246.8"/>
	<path d="M183.1,329.9c0-1.1-0.9-1.9-1.9-1.9c-1.1,0-1.9,0.9-1.9,1.9c0,1.1,0.9,1.9,1.9,1.9C182.2,331.9,183.1,331,183.1,329.9"/>
	<path d="M192.8,329.7c0-1.1-0.9-1.9-1.9-1.9c-1.1,0-1.9,0.9-1.9,1.9c0,1.1,0.9,1.9,1.9,1.9C191.9,331.7,192.8,330.8,192.8,329.7"/>
	<path d="M218.4,156.5c0-1.1-0.9-1.9-1.9-1.9c-1.1,0-1.9,0.9-1.9,1.9c0,1.1,0.9,1.9,1.9,1.9C217.5,158.5,218.4,157.6,218.4,156.5"/>
	<path d="M170.3,140.4c0-1.1-0.9-1.9-1.9-1.9c-1.1,0-1.9,0.9-1.9,1.9c0,1.1,0.9,1.9,1.9,1.9C169.4,142.4,170.3,141.5,170.3,140.4"/>
	<path d="M244.2,129.3c0-1.1-0.9-1.9-1.9-1.9c-1.1,0-1.9,0.9-1.9,1.9c0,1.1,0.9,1.9,1.9,1.9C243.3,131.2,244.2,130.4,244.2,129.3"/>
	<path d="M249.1,127.6c0-1.1-0.9-1.9-1.9-1.9c-1.1,0-1.9,0.9-1.9,1.9c0,1.1,0.9,1.9,1.9,1.9C248.2,129.6,249.1,128.7,249.1,127.6"/>
	<path d="M229.2,230.1c0-1.1-0.9-1.9-1.9-1.9c-1.1,0-1.9,0.9-1.9,1.9c0,1.1,0.9,1.9,1.9,1.9C228.3,232.1,229.2,231.2,229.2,230.1"/>
	<path d="M224.3,228.9c0-1.1-0.9-1.9-1.9-1.9c-1.1,0-1.9,0.9-1.9,1.9c0,1.1,0.9,1.9,1.9,1.9C223.4,230.9,224.3,230,224.3,228.9"/>
	<path d="M287.8,263.3c0-1.1-0.9-1.9-1.9-1.9c-1.1,0-1.9,0.9-1.9,1.9c0,1.1,0.9,1.9,1.9,1.9C286.9,265.2,287.8,264.3,287.8,263.3"/>
	<path d="M284.5,249.7c0-1.1-0.9-1.9-1.9-1.9c-1.1,0-1.9,0.9-1.9,1.9c0,1.1,0.9,1.9,1.9,1.9C283.6,251.7,284.5,250.8,284.5,249.7"/>
	<path d="M69.8,179.3c0-1.1-0.9-1.9-1.9-1.9c-1.1,0-1.9,0.9-1.9,1.9c0,1.1,0.9,1.9,1.9,1.9C68.9,181.2,69.8,180.4,69.8,179.3"/>
	<path d="M74.7,188.2c0-1.1-0.9-1.9-1.9-1.9c-1.1,0-1.9,0.9-1.9,1.9c0,1.1,0.9,1.9,1.9,1.9C73.8,190.2,74.7,189.3,74.7,188.2"/>
	<path d="M133.1,73.8c0-1.1-0.9-1.9-1.9-1.9c-1.1,0-1.9,0.9-1.9,1.9c0,1.1,0.9,1.9,1.9,1.9C132.3,75.8,133.1,74.9,133.1,73.8"/>
	<path d="M133.3,63.3c0-1.1-0.9-1.9-1.9-1.9s-1.9,0.9-1.9,1.9s0.9,1.9,1.9,1.9S133.3,64.3,133.3,63.3"/>
	<path d="M233.9,294.2c0-1.1-0.9-1.9-1.9-1.9c-1.1,0-1.9,0.9-1.9,1.9c0,1.1,0.9,1.9,1.9,1.9C233.1,296.1,233.9,295.3,233.9,294.2"/>
	<path d="M237.9,297.3c0-1.1-0.9-1.9-1.9-1.9c-1.1,0-1.9,0.9-1.9,1.9c0,1.1,0.9,1.9,1.9,1.9C237.1,299.2,237.9,298.3,237.9,297.3"/>
	<path d="M240.1,88.8c0-1.1-0.9-1.9-1.9-1.9c-1.1,0-1.9,0.9-1.9,1.9c0,1.1,0.9,1.9,1.9,1.9C239.2,90.7,240.1,89.8,240.1,88.8"/>
	<path d="M189.3,13.9c0-1.1-0.9-1.9-1.9-1.9c-1.1,0-1.9,0.9-1.9,1.9c0,1.1,0.9,1.9,1.9,1.9C188.4,15.8,189.3,15,189.3,13.9"/>
	<path d="M192,18.8c0-1.1-0.9-1.9-1.9-1.9c-1.1,0-1.9,0.9-1.9,1.9c0,1.1,0.9,1.9,1.9,1.9C191.2,20.7,192,19.9,192,18.8"/>
	<path d="M186.2,162.9c0-1.1-0.9-1.9-1.9-1.9c-1.1,0-1.9,0.9-1.9,1.9c0,1.1,0.9,1.9,1.9,1.9C185.3,164.8,186.2,163.9,186.2,162.9"/>
	<path d="M188.2,168.8c0-1.1-0.9-1.9-1.9-1.9c-1.1,0-1.9,0.9-1.9,1.9c0,1.1,0.9,1.9,1.9,1.9C187.3,170.7,188.2,169.9,188.2,168.8"/>
	<path d="M118.6,286.6c0-1.1-0.9-1.9-1.9-1.9c-1.1,0-1.9,0.9-1.9,1.9c0,1.1,0.9,1.9,1.9,1.9C117.8,288.6,118.6,287.7,118.6,286.6"/>
	<path d="M127.2,292c0-1.1-0.9-1.9-1.9-1.9c-1.1,0-1.9,0.9-1.9,1.9c0,1.1,0.9,1.9,1.9,1.9C126.4,294,127.2,293.1,127.2,292"/>
	<path d="M121.7,74c0-1.1-0.9-1.9-1.9-1.9c-1.1,0-1.9,0.9-1.9,1.9c0,1.1,0.9,1.9,1.9,1.9C120.8,76,121.7,75.1,121.7,74"/>
	<path d="M69.6,253.2c0-1.1-0.9-1.9-1.9-1.9c-1.1,0-1.9,0.9-1.9,1.9c0,1.1,0.9,1.9,1.9,1.9C68.7,255.2,69.6,254.3,69.6,253.2"/>
	<path d="M69.9,245.1c0-1.1-0.9-1.9-1.9-1.9c-1.1,0-1.9,0.9-1.9,1.9c0,1.1,0.9,1.9,1.9,1.9C69,247,69.9,246.1,69.9,245.1"/>
	<path d="M328,210.4c0-1.1-0.9-1.9-1.9-1.9c-1.1,0-1.9,0.9-1.9,1.9c0,1.1,0.9,1.9,1.9,1.9C327.1,212.4,328,211.5,328,210.4"/>
	<path d="M331.8,201.4c0-1.1-0.9-1.9-1.9-1.9c-1.1,0-1.9,0.9-1.9,1.9c0,1.1,0.9,1.9,1.9,1.9C330.9,203.4,331.8,202.5,331.8,201.4"/>
	<path d="M60.5,211.1c0-1.1-0.9-1.9-1.9-1.9c-1.1,0-1.9,0.9-1.9,1.9c0,1.1,0.9,1.9,1.9,1.9C59.6,213,60.5,212.2,60.5,211.1"/>
	<path d="M55.8,209.5c0-1.1-0.9-1.9-1.9-1.9s-1.9,0.9-1.9,1.9c0,1.1,0.9,1.9,1.9,1.9S55.8,210.5,55.8,209.5"/>
	<path d="M23.1,200.8c0-1.1-0.9-1.9-1.9-1.9c-1.1,0-1.9,0.9-1.9,1.9c0,1.1,0.9,1.9,1.9,1.9C22.2,202.7,23.1,201.8,23.1,200.8"/>
	<path d="M29.7,190.6c0-1.1-0.9-1.9-1.9-1.9c-1.1,0-1.9,0.9-1.9,1.9c0,1.1,0.9,1.9,1.9,1.9C28.8,192.5,29.7,191.6,29.7,190.6"/>
	<path d="M136.9,192.7c0-1.1-0.9-1.9-1.9-1.9c-1.1,0-1.9,0.9-1.9,1.9c0,1.1,0.9,1.9,1.9,1.9C136.1,194.6,136.9,193.7,136.9,192.7"/>
	<path d="M143.6,200.7c0-1.1-0.9-1.9-1.9-1.9s-1.9,0.9-1.9,1.9c0,1.1,0.9,1.9,1.9,1.9S143.6,201.8,143.6,200.7"/>
	<path d="M215.5,147.5c0-1.1-0.9-1.9-1.9-1.9c-1.1,0-1.9,0.9-1.9,1.9c0,1.1,0.9,1.9,1.9,1.9C214.6,149.4,215.5,148.5,215.5,147.5"/>
	<path d="M221,146.5c0-1.1-0.9-1.9-1.9-1.9c-1.1,0-1.9,0.9-1.9,1.9c0,1.1,0.9,1.9,1.9,1.9C220.1,148.4,221,147.6,221,146.5"/>
	<path d="M285.2,166.3c0-1.1-0.9-1.9-1.9-1.9s-1.9,0.9-1.9,1.9c0,1.1,0.9,1.9,1.9,1.9S285.2,167.3,285.2,166.3"/>
	<path d="M288.5,162.1c0-1.1-0.9-1.9-1.9-1.9c-1.1,0-1.9,0.9-1.9,1.9c0,1.1,0.9,1.9,1.9,1.9C287.7,164,288.5,163.2,288.5,162.1"/>
	<path d="M300.8,151.9c0-1.1-0.9-1.9-1.9-1.9c-1.1,0-1.9,0.9-1.9,1.9c0,1.1,0.9,1.9,1.9,1.9C300,153.9,300.8,153,300.8,151.9"/>
	<path d="M282.9,161.3c0-1.1-0.9-1.9-1.9-1.9c-1.1,0-1.9,0.9-1.9,1.9c0,1.1,0.9,1.9,1.9,1.9C282,163.2,282.9,162.4,282.9,161.3"/>
	<path d="M187.7,69.4c0-1.1-0.9-1.9-1.9-1.9c-1.1,0-1.9,0.9-1.9,1.9s0.9,1.9,1.9,1.9C186.8,71.3,187.7,70.4,187.7,69.4"/>
	<path d="M193.2,63.4c0-1.1-0.9-1.9-1.9-1.9c-1.1,0-1.9,0.9-1.9,1.9c0,1.1,0.9,1.9,1.9,1.9C192.4,65.3,193.2,64.5,193.2,63.4"/>
	<path d="M311.4,276.6c0-1.1-0.9-1.9-1.9-1.9c-1.1,0-1.9,0.9-1.9,1.9c0,1.1,0.9,1.9,1.9,1.9C310.5,278.6,311.4,277.7,311.4,276.6"/>
	<path d="M317.9,277.7c0-1.1-0.9-1.9-1.9-1.9c-1.1,0-1.9,0.9-1.9,1.9c0,1.1,0.9,1.9,1.9,1.9C317,279.7,317.9,278.8,317.9,277.7"/>
	<path d="M165.6,203.1c0-1.1-0.9-1.9-1.9-1.9c-1.1,0-1.9,0.9-1.9,1.9c0,1.1,0.9,1.9,1.9,1.9C164.7,205,165.6,204.1,165.6,203.1"/>
	<path d="M202.4,250.7c0-1.1-0.9-1.9-1.9-1.9c-1.1,0-1.9,0.9-1.9,1.9c0,1.1,0.9,1.9,1.9,1.9C201.5,252.7,202.4,251.8,202.4,250.7"/>
	<path d="M197.6,252.6c0-1.1-0.9-1.9-1.9-1.9c-1.1,0-1.9,0.9-1.9,1.9c0,1.1,0.9,1.9,1.9,1.9C196.8,254.6,197.6,253.7,197.6,252.6"/>
	<path d="M298.4,260.5c0-1.1-0.9-1.9-1.9-1.9c-1.1,0-1.9,0.9-1.9,1.9c0,1.1,0.9,1.9,1.9,1.9C297.5,262.4,298.4,261.6,298.4,260.5"/>
	<path d="M149.6,231.2c0-1.1-0.9-1.9-1.9-1.9c-1.1,0-1.9,0.9-1.9,1.9c0,1.1,0.9,1.9,1.9,1.9C148.7,233.1,149.6,232.2,149.6,231.2"/>
	<path d="M205.6,245.3c0-1.1-0.9-1.9-1.9-1.9c-1.1,0-1.9,0.9-1.9,1.9c0,1.1,0.9,1.9,1.9,1.9C204.7,247.3,205.6,246.4,205.6,245.3"/>
	<path d="M188,326.5c0-1.1-0.9-1.9-1.9-1.9c-1.1,0-1.9,0.9-1.9,1.9c0,1.1,0.9,1.9,1.9,1.9C187.2,328.5,188,327.6,188,326.5"/>
	<path d="M95.2,238c0-1.1-0.9-1.9-1.9-1.9c-1.1,0-1.9,0.9-1.9,1.9c0,1.1,0.9,1.9,1.9,1.9C94.3,239.9,95.2,239,95.2,238"/>
	<path d="M83.6,185c0-1.1-0.9-1.9-1.9-1.9c-1.1,0-1.9,0.9-1.9,1.9c0,1.1,0.9,1.9,1.9,1.9C82.7,186.9,83.6,186.1,83.6,185"/>
	<path d="M240,191.3c0-1.1-0.9-1.9-1.9-1.9c-1.1,0-1.9,0.9-1.9,1.9c0,1.1,0.9,1.9,1.9,1.9C239.1,193.2,240,192.3,240,191.3"/>
	<path d="M235,193.2c0-1.1-0.9-1.9-1.9-1.9c-1.1,0-1.9,0.9-1.9,1.9c0,1.1,0.9,1.9,1.9,1.9C234.1,195.2,235,194.3,235,193.2"/>
	<path d="M117.1,202.2c0-1.1-0.9-1.9-1.9-1.9c-1.1,0-1.9,0.9-1.9,1.9c0,1.1,0.9,1.9,1.9,1.9C116.3,204.2,117.1,203.3,117.1,202.2"/>
	<path d="M121.1,205.3c0-1.1-0.9-1.9-1.9-1.9c-1.1,0-1.9,0.9-1.9,1.9c0,1.1,0.9,1.9,1.9,1.9C120.2,207.2,121.1,206.4,121.1,205.3"/>
	<path d="M239,133.7c0-1.1-0.9-1.9-1.9-1.9s-1.9,0.9-1.9,1.9c0,1.1,0.9,1.9,1.9,1.9S239,134.7,239,133.7"/>
	<path d="M244.6,120.5c0-1.1-0.9-1.9-1.9-1.9c-1.1,0-1.9,0.9-1.9,1.9c0,1.1,0.9,1.9,1.9,1.9C243.8,122.5,244.6,121.6,244.6,120.5"/>
	<path d="M279.7,165.6c0-1.1-0.9-1.9-1.9-1.9c-1.1,0-1.9,0.9-1.9,1.9c0,1.1,0.9,1.9,1.9,1.9C278.8,167.5,279.7,166.7,279.7,165.6"/>
	<path d="M275.9,162.6c0-1.1-0.9-1.9-1.9-1.9c-1.1,0-1.9,0.9-1.9,1.9s0.9,1.9,1.9,1.9C275,164.6,275.9,163.7,275.9,162.6"/>
	<path d="M182.3,325.1c0-1.1-0.9-1.9-1.9-1.9c-1.1,0-1.9,0.9-1.9,1.9c0,1.1,0.9,1.9,1.9,1.9C181.4,327,182.3,326.2,182.3,325.1"/>
	<path d="M321.8,204c0-1.1-0.9-1.9-1.9-1.9c-1.1,0-1.9,0.9-1.9,1.9c0,1.1,0.9,1.9,1.9,1.9C321,205.9,321.8,205.1,321.8,204"/>
	<path d="M326.9,204.9c0-1.1-0.9-1.9-1.9-1.9c-1.1,0-1.9,0.9-1.9,1.9c0,1.1,0.9,1.9,1.9,1.9C326,206.9,326.9,206,326.9,204.9"/>
	<path d="M160.9,224.9c0-1.1-0.9-1.9-1.9-1.9c-1.1,0-1.9,0.9-1.9,1.9c0,1.1,0.9,1.9,1.9,1.9C160.1,226.8,160.9,226,160.9,224.9"/>
	<path d="M159.7,231.1c0-1.1-0.9-1.9-1.9-1.9c-1.1,0-1.9,0.9-1.9,1.9c0,1.1,0.9,1.9,1.9,1.9C158.8,233,159.7,232.2,159.7,231.1"/>
	<path d="M205.3,225.3c0-1.1-0.9-1.9-1.9-1.9c-1.1,0-1.9,0.9-1.9,1.9c0,1.1,0.9,1.9,1.9,1.9C204.5,227.2,205.3,226.3,205.3,225.3"/>
	<path d="M200.8,220.4c0-1.1-0.9-1.9-1.9-1.9c-1.1,0-1.9,0.9-1.9,1.9c0,1.1,0.9,1.9,1.9,1.9C199.9,222.4,200.8,221.5,200.8,220.4"/>
	<path d="M75.2,176.9c0-1.1-0.9-1.9-1.9-1.9s-1.9,0.9-1.9,1.9c0,1.1,0.9,1.9,1.9,1.9S75.2,177.9,75.2,176.9"/>
	<path d="M204.3,78.5c0-1.1-0.9-1.9-1.9-1.9c-1.1,0-1.9,0.9-1.9,1.9c0,1.1,0.9,1.9,1.9,1.9C203.4,80.4,204.3,79.6,204.3,78.5"/>
	<path d="M183.3,66.4c0-1.1-0.9-1.9-1.9-1.9c-1.1,0-1.9,0.9-1.9,1.9c0,1.1,0.9,1.9,1.9,1.9C182.4,68.3,183.3,67.4,183.3,66.4"/>
	<path d="M109.8,130c0-1.1-0.9-1.9-1.9-1.9c-1.1,0-1.9,0.9-1.9,1.9c0,1.1,0.9,1.9,1.9,1.9C109,131.9,109.8,131,109.8,130"/>
	<path d="M117.1,145.9c0-1.1-0.9-1.9-1.9-1.9c-1.1,0-1.9,0.9-1.9,1.9s0.9,1.9,1.9,1.9C116.2,147.8,117.1,147,117.1,145.9"/>
	<path d="M127.2,60.2c0-1.1-0.9-1.9-1.9-1.9c-1.1,0-1.9,0.9-1.9,1.9c0,1.1,0.9,1.9,1.9,1.9C126.3,62.1,127.2,61.3,127.2,60.2"/>
	<path d="M303.9,288.2c0-1.1-0.9-1.9-1.9-1.9c-1.1,0-1.9,0.9-1.9,1.9c0,1.1,0.9,1.9,1.9,1.9C303,290.2,303.9,289.3,303.9,288.2"/>
	<path d="M300.8,284c0-1.1-0.9-1.9-1.9-1.9c-1.1,0-1.9,0.9-1.9,1.9c0,1.1,0.9,1.9,1.9,1.9C299.9,286,300.8,285.1,300.8,284"/>
	<path d="M306.8,275.2c0-1.1-0.9-1.9-1.9-1.9c-1.1,0-1.9,0.9-1.9,1.9c0,1.1,0.9,1.9,1.9,1.9C305.9,277.1,306.8,276.3,306.8,275.2"/>
	<path d="M311.2,271.8c0-1.1-0.9-1.9-1.9-1.9c-1.1,0-1.9,0.9-1.9,1.9c0,1.1,0.9,1.9,1.9,1.9C310.3,273.7,311.2,272.9,311.2,271.8"/>
	<path d="M269.8,62.5c0-1.1-0.9-1.9-1.9-1.9c-1.1,0-1.9,0.9-1.9,1.9c0,1.1,0.9,1.9,1.9,1.9C269,64.4,269.8,63.6,269.8,62.5"/>
	<path d="M275,63.5c0-1.1-0.9-1.9-1.9-1.9c-1.1,0-1.9,0.9-1.9,1.9c0,1.1,0.9,1.9,1.9,1.9C274.1,65.5,275,64.6,275,63.5"/>
	<path d="M244.1,134.7c0-1.1-0.9-1.9-1.9-1.9c-1.1,0-1.9,0.9-1.9,1.9s0.9,1.9,1.9,1.9C243.3,136.6,244.1,135.8,244.1,134.7"/>
	<path d="M304.9,257.9c0-1.1-0.9-1.9-1.9-1.9c-1.1,0-1.9,0.9-1.9,1.9c0,1.1,0.9,1.9,1.9,1.9C304,259.8,304.9,258.9,304.9,257.9"/>
	<path d="M154.6,193.8c0-1.1-0.9-1.9-1.9-1.9s-1.9,0.9-1.9,1.9c0,1.1,0.9,1.9,1.9,1.9S154.6,194.9,154.6,193.8"/>
	<path d="M179.6,161c0-1.1-0.9-1.9-1.9-1.9c-1.1,0-1.9,0.9-1.9,1.9s0.9,1.9,1.9,1.9C178.7,162.9,179.6,162,179.6,161"/>
	<path d="M73.3,249.1c0-1.1-0.9-1.9-1.9-1.9c-1.1,0-1.9,0.9-1.9,1.9c0,1.1,0.9,1.9,1.9,1.9C72.4,251,73.3,250.2,73.3,249.1"/>
	<path d="M270.5,206.9c0-1.1-0.9-1.9-1.9-1.9c-1.1,0-1.9,0.9-1.9,1.9s0.9,1.9,1.9,1.9C269.7,208.9,270.5,208,270.5,206.9"/>
	<path d="M265.1,205.3c0-1.1-0.9-1.9-1.9-1.9c-1.1,0-1.9,0.9-1.9,1.9c0,1.1,0.9,1.9,1.9,1.9C264.2,207.3,265.1,206.4,265.1,205.3"/>
	<path d="M79.7,254.2c0-1.1-0.9-1.9-1.9-1.9c-1.1,0-1.9,0.9-1.9,1.9c0,1.1,0.9,1.9,1.9,1.9C78.8,256.1,79.7,255.3,79.7,254.2"/>
	<path d="M96.4,231.3c0-1.1-0.9-1.9-1.9-1.9s-1.9,0.9-1.9,1.9c0,1.1,0.9,1.9,1.9,1.9S96.4,232.4,96.4,231.3"/>
	<path d="M319.7,242.4c0-1.1-0.9-1.9-1.9-1.9c-1.1,0-1.9,0.9-1.9,1.9c0,1.1,0.9,1.9,1.9,1.9C318.8,244.4,319.7,243.5,319.7,242.4"/>
	<path d="M329,245c0-1.1-0.9-1.9-1.9-1.9c-1.1,0-1.9,0.9-1.9,1.9c0,1.1,0.9,1.9,1.9,1.9C328.1,247,329,246.1,329,245"/>
	<path d="M21.9,205.8c0-1.1-0.9-1.9-1.9-1.9c-1.1,0-1.9,0.9-1.9,1.9c0,1.1,0.9,1.9,1.9,1.9C21,207.7,21.9,206.9,21.9,205.8"/>
	<path d="M218.1,142.5c0-1.1-0.9-1.9-1.9-1.9c-1.1,0-1.9,0.9-1.9,1.9c0,1.1,0.9,1.9,1.9,1.9C217.3,144.5,218.1,143.6,218.1,142.5"/>
	<path d="M160.7,201.8c0-1.1-0.9-1.9-1.9-1.9c-1.1,0-1.9,0.9-1.9,1.9c0,1.1,0.9,1.9,1.9,1.9C159.8,203.7,160.7,202.8,160.7,201.8"/>
	<path d="M160.1,191.2c0-1.1-0.9-1.9-1.9-1.9c-1.1,0-1.9,0.9-1.9,1.9c0,1.1,0.9,1.9,1.9,1.9C159.3,193.2,160.1,192.3,160.1,191.2"/>
	<path d="M183.5,171.1c0-1.1-0.9-1.9-1.9-1.9c-1.1,0-1.9,0.9-1.9,1.9s0.9,1.9,1.9,1.9C182.6,173,183.5,172.2,183.5,171.1"/>
	<path d="M181.7,165.6c0-1.1-0.9-1.9-1.9-1.9c-1.1,0-1.9,0.9-1.9,1.9c0,1.1,0.9,1.9,1.9,1.9C180.8,167.5,181.7,166.7,181.7,165.6"/>
	<path d="M240,201.7c0-1.1-0.9-1.9-1.9-1.9c-1.1,0-1.9,0.9-1.9,1.9c0,1.1,0.9,1.9,1.9,1.9C239.2,203.6,240,202.7,240,201.7"/>
	<path d="M236.5,85.5c0-1.1-0.9-1.9-1.9-1.9c-1.1,0-1.9,0.9-1.9,1.9s0.9,1.9,1.9,1.9C235.6,87.4,236.5,86.6,236.5,85.5"/>
	<path d="M232.7,289.4c0-1.1-0.9-1.9-1.9-1.9c-1.1,0-1.9,0.9-1.9,1.9s0.9,1.9,1.9,1.9C231.9,291.4,232.7,290.5,232.7,289.4"/>
	<path d="M188.5,64.5c0-1.1-0.9-1.9-1.9-1.9c-1.1,0-1.9,0.9-1.9,1.9c0,1.1,0.9,1.9,1.9,1.9C187.7,66.4,188.5,65.5,188.5,64.5"/>
	<path d="M186.5,59.4c0-1.1-0.9-1.9-1.9-1.9c-1.1,0-1.9,0.9-1.9,1.9c0,1.1,0.9,1.9,1.9,1.9C185.6,61.3,186.5,60.5,186.5,59.4"/>
	<path d="M291.4,266.6c0-1.1-0.9-1.9-1.9-1.9c-1.1,0-1.9,0.9-1.9,1.9c0,1.1,0.9,1.9,1.9,1.9C290.6,268.6,291.4,267.7,291.4,266.6"/>
	<path d="M329,197.1c0-1.1-0.9-1.9-1.9-1.9c-1.1,0-1.9,0.9-1.9,1.9c0,1.1,0.9,1.9,1.9,1.9C328.1,199,329,198.1,329,197.1"/>
	<path d="M322.9,199.1c0-1.1-0.9-1.9-1.9-1.9c-1.1,0-1.9,0.9-1.9,1.9c0,1.1,0.9,1.9,1.9,1.9C322,201,322.9,200.2,322.9,199.1"/>
	<path d="M109.8,146.8c0-1.1-0.9-1.9-1.9-1.9c-1.1,0-1.9,0.9-1.9,1.9c0,1.1,0.9,1.9,1.9,1.9C109,148.7,109.8,147.9,109.8,146.8"/>
	<path d="M113.9,150.2c0-1.1-0.9-1.9-1.9-1.9c-1.1,0-1.9,0.9-1.9,1.9c0,1.1,0.9,1.9,1.9,1.9C113,152.2,113.9,151.3,113.9,150.2"/>
	<path d="M287.7,177.6c0-1.1-0.9-1.9-1.9-1.9c-1.1,0-1.9,0.9-1.9,1.9c0,1.1,0.9,1.9,1.9,1.9C286.9,179.5,287.7,178.7,287.7,177.6"/>
	<path d="M291.4,174c0-1.1-0.9-1.9-1.9-1.9c-1.1,0-1.9,0.9-1.9,1.9s0.9,1.9,1.9,1.9C290.6,175.9,291.4,175.1,291.4,174"/>
	<path d="M260.7,59.5c0-1.1-0.9-1.9-1.9-1.9s-1.9,0.9-1.9,1.9c0,1.1,0.9,1.9,1.9,1.9S260.7,60.6,260.7,59.5"/>
	<path d="M270.4,56.6c0-1.1-0.9-1.9-1.9-1.9c-1.1,0-1.9,0.9-1.9,1.9s0.9,1.9,1.9,1.9C269.5,58.5,270.4,57.6,270.4,56.6"/>
	<path d="M35.3,187.8c0-1.1-0.9-1.9-1.9-1.9c-1.1,0-1.9,0.9-1.9,1.9c0,1.1,0.9,1.9,1.9,1.9C34.4,189.7,35.3,188.8,35.3,187.8"/>
	<path d="M35,193.2c0-1.1-0.9-1.9-1.9-1.9c-1.1,0-1.9,0.9-1.9,1.9c0,1.1,0.9,1.9,1.9,1.9C34.1,195.1,35,194.3,35,193.2"/>
	<path d="M283.7,174.9c0-1.1-0.9-1.9-1.9-1.9c-1.1,0-1.9,0.9-1.9,1.9c0,1.1,0.9,1.9,1.9,1.9C282.8,176.8,283.7,176,283.7,174.9"/>
	<path d="M62.9,206.1c0-1.1-0.9-1.9-1.9-1.9S59,205,59,206.1c0,1.1,0.9,1.9,1.9,1.9S62.9,207.2,62.9,206.1"/>
	<path d="M24.4,194.2c0-1.1-0.9-1.9-1.9-1.9c-1.1,0-1.9,0.9-1.9,1.9c0,1.1,0.9,1.9,1.9,1.9C23.5,196.2,24.4,195.3,24.4,194.2"/>
	<path d="M322.6,208.9c0-1.1-0.9-1.9-1.9-1.9c-1.1,0-1.9,0.9-1.9,1.9c0,1.1,0.9,1.9,1.9,1.9C321.7,210.9,322.6,210,322.6,208.9"/>
	<path d="M123.8,296.2c0-1.1-0.9-1.9-1.9-1.9c-1.1,0-1.9,0.9-1.9,1.9c0,1.1,0.9,1.9,1.9,1.9C122.9,298.1,123.8,297.2,123.8,296.2"/>
	<path d="M129.7,296.2c0-1.1-0.9-1.9-1.9-1.9c-1.1,0-1.9,0.9-1.9,1.9c0,1.1,0.9,1.9,1.9,1.9C128.8,298.2,129.7,297.3,129.7,296.2"/>
	<path d="M127,74.4c0-1.1-0.9-1.9-1.9-1.9c-1.1,0-1.9,0.9-1.9,1.9s0.9,1.9,1.9,1.9C126.1,76.3,127,75.4,127,74.4"/>
	<path d="M277.8,272.7c0-1.1-0.9-1.9-1.9-1.9c-1.1,0-1.9,0.9-1.9,1.9c0,1.1,0.9,1.9,1.9,1.9C276.9,274.7,277.8,273.8,277.8,272.7"/>
	<path d="M140.9,225.7c0-1.1-0.9-1.9-1.9-1.9c-1.1,0-1.9,0.9-1.9,1.9c0,1.1,0.9,1.9,1.9,1.9C140,227.6,140.9,226.7,140.9,225.7"/>
	<path d="M144.4,229.5c0-1.1-0.9-1.9-1.9-1.9c-1.1,0-1.9,0.9-1.9,1.9c0,1.1,0.9,1.9,1.9,1.9C143.6,231.5,144.4,230.6,144.4,229.5"/>
	<path d="M263.5,199.4c0-1.1-0.9-1.9-1.9-1.9c-1.1,0-1.9,0.9-1.9,1.9c0,1.1,0.9,1.9,1.9,1.9C262.7,201.3,263.5,200.4,263.5,199.4"/>
	<path d="M301.3,254.4c0-1.1-0.9-1.9-1.9-1.9c-1.1,0-1.9,0.9-1.9,1.9c0,1.1,0.9,1.9,1.9,1.9C300.4,256.4,301.3,255.5,301.3,254.4"/>
	<path d="M296,255.1c0-1.1-0.9-1.9-1.9-1.9c-1.1,0-1.9,0.9-1.9,1.9c0,1.1,0.9,1.9,1.9,1.9C295.1,257,296,256.1,296,255.1"/>
	<path d="M305.4,149.4c0-1.1-0.9-1.9-1.9-1.9c-1.1,0-1.9,0.9-1.9,1.9c0,1.1,0.9,1.9,1.9,1.9C304.6,151.4,305.4,150.5,305.4,149.4"/>
	<path d="M134.9,68.2c0-1.1-0.9-1.9-1.9-1.9c-1.1,0-1.9,0.9-1.9,1.9c0,1.1,0.9,1.9,1.9,1.9C134.1,70.2,134.9,69.3,134.9,68.2"/>
	<path d="M139.9,220.4c0-1.1-0.9-1.9-1.9-1.9c-1.1,0-1.9,0.9-1.9,1.9c0,1.1,0.9,1.9,1.9,1.9C139,222.3,139.9,221.4,139.9,220.4"/>
	<path d="M185.9,336.1c0-1.1-0.9-1.9-1.9-1.9c-1.1,0-1.9,0.9-1.9,1.9c0,1.1,0.9,1.9,1.9,1.9C185,338,185.9,337.2,185.9,336.1"/>
	<path d="M188.2,331.8c0-1.1-0.9-1.9-1.9-1.9c-1.1,0-1.9,0.9-1.9,1.9c0,1.1,0.9,1.9,1.9,1.9C187.4,333.8,188.2,332.9,188.2,331.8"/>
	<path d="M201.9,70.9c0-1.1-0.9-1.9-1.9-1.9c-1.1,0-1.9,0.9-1.9,1.9c0,1.1,0.9,1.9,1.9,1.9C201,72.8,201.9,72,201.9,70.9"/>
	<path d="M198.8,75c0-1.1-0.9-1.9-1.9-1.9c-1.1,0-1.9,0.9-1.9,1.9c0,1.1,0.9,1.9,1.9,1.9C197.9,76.9,198.8,76,198.8,75"/>
	<path d="M267.3,320.2c0-1.1-0.9-1.9-1.9-1.9c-1.1,0-1.9,0.9-1.9,1.9c0,1.1,0.9,1.9,1.9,1.9C266.5,322.2,267.3,321.3,267.3,320.2"/>
	<path d="M261.1,316.5c0-1.1-0.9-1.9-1.9-1.9c-1.1,0-1.9,0.9-1.9,1.9c0,1.1,0.9,1.9,1.9,1.9C260.2,318.4,261.1,317.6,261.1,316.5"/>
	<path d="M196.4,223c0-1.1-0.9-1.9-1.9-1.9c-1.1,0-1.9,0.9-1.9,1.9c0,1.1,0.9,1.9,1.9,1.9C195.5,224.9,196.4,224.1,196.4,223"/>
	<path d="M205.8,220.1c0-1.1-0.9-1.9-1.9-1.9c-1.1,0-1.9,0.9-1.9,1.9c0,1.1,0.9,1.9,1.9,1.9C204.9,222,205.8,221.2,205.8,220.1"/>
	<path d="M293.9,276.4c0-1.1-0.9-1.9-1.9-1.9c-1.1,0-1.9,0.9-1.9,1.9c0,1.1,0.9,1.9,1.9,1.9C293.1,278.3,293.9,277.5,293.9,276.4"/>
	<path d="M155.5,224.9c0-1.1-0.9-1.9-1.9-1.9c-1.1,0-1.9,0.9-1.9,1.9c0,1.1,0.9,1.9,1.9,1.9C154.6,226.8,155.5,226,155.5,224.9"/>
	<path d="M124.5,287.2c0-1.1-0.9-1.9-1.9-1.9c-1.1,0-1.9,0.9-1.9,1.9c0,1.1,0.9,1.9,1.9,1.9C123.7,289.1,124.5,288.3,124.5,287.2"/>
	<path d="M115.2,277.5c0-1.1-0.9-1.9-1.9-1.9s-1.9,0.9-1.9,1.9c0,1.1,0.9,1.9,1.9,1.9S115.2,278.6,115.2,277.5"/>
	<path d="M91.8,233.7c0-1.1-0.9-1.9-1.9-1.9c-1.1,0-1.9,0.9-1.9,1.9c0,1.1,0.9,1.9,1.9,1.9C90.9,235.7,91.8,234.8,91.8,233.7"/>
	<path d="M199.6,80.6c0-1.1-0.9-1.9-1.9-1.9c-1.1,0-1.9,0.9-1.9,1.9c0,1.1,0.9,1.9,1.9,1.9C198.7,82.6,199.6,81.7,199.6,80.6"/>
	<path d="M78.8,183.3c0-1.1-0.9-1.9-1.9-1.9c-1.1,0-1.9,0.9-1.9,1.9c0,1.1,0.9,1.9,1.9,1.9C77.9,185.2,78.8,184.3,78.8,183.3"/>
	<path d="M73.8,182.7c0-1.1-0.9-1.9-1.9-1.9c-1.1,0-1.9,0.9-1.9,1.9c0,1.1,0.9,1.9,1.9,1.9C72.9,184.6,73.8,183.7,73.8,182.7"/>
	<path d="M229.2,296.8c0-1.1-0.9-1.9-1.9-1.9c-1.1,0-1.9,0.9-1.9,1.9c0,1.1,0.9,1.9,1.9,1.9C228.3,298.8,229.2,297.9,229.2,296.8"/>
	<path d="M178.2,170.3c0-1.1-0.9-1.9-1.9-1.9c-1.1,0-1.9,0.9-1.9,1.9c0,1.1,0.9,1.9,1.9,1.9C177.3,172.2,178.2,171.3,178.2,170.3"/>
	<path d="M202,241.7c0-1.1-0.9-1.9-1.9-1.9c-1.1,0-1.9,0.9-1.9,1.9c0,1.1,0.9,1.9,1.9,1.9C201.1,243.6,202,242.7,202,241.7"/>
	<path d="M251.3,72.5c0-1.1-0.9-1.9-1.9-1.9c-1.1,0-1.9,0.9-1.9,1.9c0,1.1,0.9,1.9,1.9,1.9C250.4,74.5,251.3,73.6,251.3,72.5"/>
	<path d="M280.1,277.6c0-1.1-0.9-1.9-1.9-1.9c-1.1,0-1.9,0.9-1.9,1.9c0,1.1,0.9,1.9,1.9,1.9C279.3,279.5,280.1,278.6,280.1,277.6"/>
	<path d="M192.6,250.2c0-1.1-0.9-1.9-1.9-1.9c-1.1,0-1.9,0.9-1.9,1.9c0,1.1,0.9,1.9,1.9,1.9C191.8,252.1,192.6,251.3,192.6,250.2"/>
	<path d="M218.6,151.4c0-1.1-0.9-1.9-1.9-1.9c-1.1,0-1.9,0.9-1.9,1.9c0,1.1,0.9,1.9,1.9,1.9C217.7,153.3,218.6,152.4,218.6,151.4"/>
	<path d="M153.5,243.3c0-1.1-0.9-1.9-1.9-1.9c-1.1,0-1.9,0.9-1.9,1.9c0,1.1,0.9,1.9,1.9,1.9C152.6,245.2,153.5,244.4,153.5,243.3"/>
	<path d="M151.7,235.8c0-1.1-0.9-1.9-1.9-1.9s-1.9,0.9-1.9,1.9c0,1.1,0.9,1.9,1.9,1.9S151.7,236.8,151.7,235.8"/>
	<path d="M30.7,195.7c0-1.1-0.9-1.9-1.9-1.9c-1.1,0-1.9,0.9-1.9,1.9c0,1.1,0.9,1.9,1.9,1.9C29.8,197.7,30.7,196.8,30.7,195.7"/>
	<path d="M38.1,196.9c0-1.1-0.9-1.9-1.9-1.9s-1.9,0.9-1.9,1.9c0,1.1,0.9,1.9,1.9,1.9S38.1,198,38.1,196.9"/>
	<path d="M27,184.8c0-1.1-0.9-1.9-1.9-1.9c-1.1,0-1.9,0.9-1.9,1.9c0,1.1,0.9,1.9,1.9,1.9C26.1,186.7,27,185.9,27,184.8"/>
	<path d="M156.5,204.4c0-1.1-0.9-1.9-1.9-1.9c-1.1,0-1.9,0.9-1.9,1.9c0,1.1,0.9,1.9,1.9,1.9C155.7,206.4,156.5,205.5,156.5,204.4"/>
	<path d="M146.2,196.4c0-1.1-0.9-1.9-1.9-1.9c-1.1,0-1.9,0.9-1.9,1.9c0,1.1,0.9,1.9,1.9,1.9C145.3,198.3,146.2,197.5,146.2,196.4"/>
	<path d="M147.6,190.8c0-1.1-0.9-1.9-1.9-1.9c-1.1,0-1.9,0.9-1.9,1.9c0,1.1,0.9,1.9,1.9,1.9C146.7,192.7,147.6,191.8,147.6,190.8"/>
	<path d="M115.5,207.2c0-1.1-0.9-1.9-1.9-1.9c-1.1,0-1.9,0.9-1.9,1.9c0,1.1,0.9,1.9,1.9,1.9C114.6,209.2,115.5,208.3,115.5,207.2"/>
	<path d="M154.3,230.2c0-1.1-0.9-1.9-1.9-1.9c-1.1,0-1.9,0.9-1.9,1.9c0,1.1,0.9,1.9,1.9,1.9C153.5,232.1,154.3,231.2,154.3,230.2"/>
	<path d="M332,206.9c0-1.1-0.9-1.9-1.9-1.9c-1.1,0-1.9,0.9-1.9,1.9c0,1.1,0.9,1.9,1.9,1.9C331.1,208.9,332,208,332,206.9"/>
	<path d="M159.9,196.2c0-1.1-0.9-1.9-1.9-1.9c-1.1,0-1.9,0.9-1.9,1.9c0,1.1,0.9,1.9,1.9,1.9C159,198.2,159.9,197.3,159.9,196.2"/>
	<path d="M238.5,120.6c0-1.1-0.9-1.9-1.9-1.9c-1.1,0-1.9,0.9-1.9,1.9c0,1.1,0.9,1.9,1.9,1.9C237.7,122.6,238.5,121.7,238.5,120.6"/>
	<path d="M241.8,124.6c0-1.1-0.9-1.9-1.9-1.9c-1.1,0-1.9,0.9-1.9,1.9s0.9,1.9,1.9,1.9C240.9,126.6,241.8,125.7,241.8,124.6"/>
	<path d="M209.3,228.1c0-1.1-0.9-1.9-1.9-1.9c-1.1,0-1.9,0.9-1.9,1.9c0,1.1,0.9,1.9,1.9,1.9C208.4,230,209.3,229.2,209.3,228.1"/>
	<path d="M158.8,144.7c0-1.1-0.9-1.9-1.9-1.9c-1.1,0-1.9,0.9-1.9,1.9c0,1.1,0.9,1.9,1.9,1.9C158,146.6,158.8,145.7,158.8,144.7"/>
	<path d="M242.5,196.3c0-1.1-0.9-1.9-1.9-1.9c-1.1,0-1.9,0.9-1.9,1.9c0,1.1,0.9,1.9,1.9,1.9C241.6,198.3,242.5,197.4,242.5,196.3"/>
	<path d="M235.7,198.4c0-1.1-0.9-1.9-1.9-1.9c-1.1,0-1.9,0.9-1.9,1.9c0,1.1,0.9,1.9,1.9,1.9C234.8,200.3,235.7,199.5,235.7,198.4"/>
	<path d="M118.2,295.7c0-1.1-0.9-1.9-1.9-1.9c-1.1,0-1.9,0.9-1.9,1.9c0,1.1,0.9,1.9,1.9,1.9C117.4,297.6,118.2,296.8,118.2,295.7"/>
	<path d="M164.4,148.7c0-1.1-0.9-1.9-1.9-1.9c-1.1,0-1.9,0.9-1.9,1.9c0,1.1,0.9,1.9,1.9,1.9C163.5,150.7,164.4,149.8,164.4,148.7"/>
	<path d="M294.7,291.5c0-1.1-0.9-1.9-1.9-1.9c-1.1,0-1.9,0.9-1.9,1.9c0,1.1,0.9,1.9,1.9,1.9C293.8,293.4,294.7,292.6,294.7,291.5"/>
	<path d="M202.1,135.6c0-1.1-0.9-1.9-1.9-1.9c-1.1,0-1.9,0.9-1.9,1.9c0,1.1,0.9,1.9,1.9,1.9C201.2,137.5,202.1,136.6,202.1,135.6"/>
	<path d="M291.3,167.8c0-1.1-0.9-1.9-1.9-1.9c-1.1,0-1.9,0.9-1.9,1.9c0,1.1,0.9,1.9,1.9,1.9C290.4,169.8,291.3,168.9,291.3,167.8"/>
	<path d="M265.8,59.6c0-1.1-0.9-1.9-1.9-1.9c-1.1,0-1.9,0.9-1.9,1.9c0,1.1,0.9,1.9,1.9,1.9C264.9,61.5,265.8,60.7,265.8,59.6"/>
	<path d="M119.2,150.6c0-1.1-0.9-1.9-1.9-1.9c-1.1,0-1.9,0.9-1.9,1.9c0,1.1,0.9,1.9,1.9,1.9C118.4,152.5,119.2,151.7,119.2,150.6"/>
	<path d="M271.8,265.3c0-1.1-0.9-1.9-1.9-1.9c-1.1,0-1.9,0.9-1.9,1.9c0,1.1,0.9,1.9,1.9,1.9C271,267.3,271.8,266.4,271.8,265.3"/>
	<path d="M286.4,268.4c0-1.1-0.9-1.9-1.9-1.9c-1.1,0-1.9,0.9-1.9,1.9c0,1.1,0.9,1.9,1.9,1.9C285.5,270.3,286.4,269.4,286.4,268.4"/>
	<path d="M275.4,169.2c0-1.1-0.9-1.9-1.9-1.9c-1.1,0-1.9,0.9-1.9,1.9s0.9,1.9,1.9,1.9C274.6,171.1,275.4,170.3,275.4,169.2"/>
	<path d="M200.5,226.8c0-1.1-0.9-1.9-1.9-1.9c-1.1,0-1.9,0.9-1.9,1.9c0,1.1,0.9,1.9,1.9,1.9C199.7,228.8,200.5,227.9,200.5,226.8"/>
	<path d="M155.4,199.5c0-1.1-0.9-1.9-1.9-1.9c-1.1,0-1.9,0.9-1.9,1.9c0,1.1,0.9,1.9,1.9,1.9C154.5,201.5,155.4,200.6,155.4,199.5"/>
	<path d="M268.3,310.4c0-1.1-0.9-1.9-1.9-1.9c-1.1,0-1.9,0.9-1.9,1.9s0.9,1.9,1.9,1.9C267.4,312.4,268.3,311.5,268.3,310.4"/>
	<path d="M157.2,240.3c0-1.1-0.9-1.9-1.9-1.9c-1.1,0-1.9,0.9-1.9,1.9c0,1.1,0.9,1.9,1.9,1.9C156.4,242.2,157.2,241.3,157.2,240.3"/>
	<path d="M129.9,78.8c0-1.1-0.9-1.9-1.9-1.9c-1.1,0-1.9,0.9-1.9,1.9c0,1.1,0.9,1.9,1.9,1.9C129.1,80.7,129.9,79.9,129.9,78.8"/>
	<path d="M124.8,278.5c0-1.1-0.9-1.9-1.9-1.9c-1.1,0-1.9,0.9-1.9,1.9c0,1.1,0.9,1.9,1.9,1.9C124,280.4,124.8,279.6,124.8,278.5"/>
	<path d="M115.3,133.8c0-1.1-0.9-1.9-1.9-1.9c-1.1,0-1.9,0.9-1.9,1.9c0,1.1,0.9,1.9,1.9,1.9C114.4,135.8,115.3,134.9,115.3,133.8"/>
	<path d="M222.3,299.6c0-1.1-0.9-1.9-1.9-1.9c-1.1,0-1.9,0.9-1.9,1.9c0,1.1,0.9,1.9,1.9,1.9C221.4,301.5,222.3,300.6,222.3,299.6"/>
	<path d="M192.3,23.8c0-1.1-0.9-1.9-1.9-1.9c-1.1,0-1.9,0.9-1.9,1.9c0,1.1,0.9,1.9,1.9,1.9C191.4,25.7,192.3,24.8,192.3,23.8"/>
	<path d="M290.5,271.7c0-1.1-0.9-1.9-1.9-1.9c-1.1,0-1.9,0.9-1.9,1.9c0,1.1,0.9,1.9,1.9,1.9C289.6,273.6,290.5,272.8,290.5,271.7"/>
	<path d="M39.2,184.1c0-1.1-0.9-1.9-1.9-1.9s-1.9,0.9-1.9,1.9c0,1.1,0.9,1.9,1.9,1.9S39.2,185.2,39.2,184.1"/>
	<path d="M121.1,282.3c0-1.1-0.9-1.9-1.9-1.9c-1.1,0-1.9,0.9-1.9,1.9c0,1.1,0.9,1.9,1.9,1.9C120.3,284.2,121.1,283.3,121.1,282.3"/>
	<path d="M281.2,179.9c0-1.1-0.9-1.9-1.9-1.9c-1.1,0-1.9,0.9-1.9,1.9c0,1.1,0.9,1.9,1.9,1.9C280.3,181.9,281.2,181,281.2,179.9"/>
	<path d="M216.3,221.2c0-1.1-0.9-1.9-1.9-1.9c-1.1,0-1.9,0.9-1.9,1.9c0,1.1,0.9,1.9,1.9,1.9C215.4,223.1,216.3,222.3,216.3,221.2"/>
	<path d="M228.2,224.9c0-1.1-0.9-1.9-1.9-1.9c-1.1,0-1.9,0.9-1.9,1.9c0,1.1,0.9,1.9,1.9,1.9C227.4,226.8,228.2,226,228.2,224.9"/>
	<path d="M249.9,122.2c0-1.1-0.9-1.9-1.9-1.9c-1.1,0-1.9,0.9-1.9,1.9s0.9,1.9,1.9,1.9C249,124.1,249.9,123.3,249.9,122.2"/>
	<path d="M287.4,281.3c0-1.1-0.9-1.9-1.9-1.9c-1.1,0-1.9,0.9-1.9,1.9c0,1.1,0.9,1.9,1.9,1.9C286.5,283.2,287.4,282.4,287.4,281.3"/>
	<path d="M123.4,64.6c0-1.1-0.9-1.9-1.9-1.9c-1.1,0-1.9,0.9-1.9,1.9c0,1.1,0.9,1.9,1.9,1.9C122.6,66.5,123.4,65.7,123.4,64.6"/>
	<path d="M234.7,125.6c0-1.1-0.9-1.9-1.9-1.9c-1.1,0-1.9,0.9-1.9,1.9c0,1.1,0.9,1.9,1.9,1.9C233.8,127.5,234.7,126.7,234.7,125.6"/>
	<path d="M238.6,128.7c0-1.1-0.9-1.9-1.9-1.9c-1.1,0-1.9,0.9-1.9,1.9c0,1.1,0.9,1.9,1.9,1.9C237.8,130.6,238.6,129.7,238.6,128.7"/>
	<path d="M228.4,291.9c0-1.1-0.9-1.9-1.9-1.9c-1.1,0-1.9,0.9-1.9,1.9c0,1.1,0.9,1.9,1.9,1.9C227.5,293.9,228.4,293,228.4,291.9"/>
	<path d="M214.3,226.4c0-1.1-0.9-1.9-1.9-1.9c-1.1,0-1.9,0.9-1.9,1.9c0,1.1,0.9,1.9,1.9,1.9C213.4,228.4,214.3,227.5,214.3,226.4"/>
	<path d="M283,254.6c0-1.1-0.9-1.9-1.9-1.9c-1.1,0-1.9,0.9-1.9,1.9c0,1.1,0.9,1.9,1.9,1.9C282.1,256.6,283,255.7,283,254.6"/>
	<path d="M180.8,318.5c0-1.1-0.9-1.9-1.9-1.9c-1.1,0-1.9,0.9-1.9,1.9c0,1.1,0.9,1.9,1.9,1.9C179.9,320.4,180.8,319.6,180.8,318.5"/>
	<path d="M127.1,283.1c0-1.1-0.9-1.9-1.9-1.9c-1.1,0-1.9,0.9-1.9,1.9c0,1.1,0.9,1.9,1.9,1.9C126.2,285,127.1,284.1,127.1,283.1"/>
	<path d="M115,282.6c0-1.1-0.9-1.9-1.9-1.9c-1.1,0-1.9,0.9-1.9,1.9c0,1.1,0.9,1.9,1.9,1.9C114.1,284.5,115,283.7,115,282.6"/>
	<path d="M294.4,248.3c0-1.1-0.9-1.9-1.9-1.9c-1.1,0-1.9,0.9-1.9,1.9c0,1.1,0.9,1.9,1.9,1.9C293.6,250.2,294.4,249.4,294.4,248.3"/>
	<path d="M142,192.3c0-1.1-0.9-1.9-1.9-1.9c-1.1,0-1.9,0.9-1.9,1.9c0,1.1,0.9,1.9,1.9,1.9C141.2,194.3,142,193.4,142,192.3"/>
	<path d="M80.3,178.2c0-1.1-0.9-1.9-1.9-1.9c-1.1,0-1.9,0.9-1.9,1.9c0,1.1,0.9,1.9,1.9,1.9C79.5,180.2,80.3,179.3,80.3,178.2"/>
	<path d="M313.7,281.5c0-1.1-0.9-1.9-1.9-1.9c-1.1,0-1.9,0.9-1.9,1.9c0,1.1,0.9,1.9,1.9,1.9C312.9,283.4,313.7,282.5,313.7,281.5"/>
	<path d="M87,235.3c0-1.1-0.9-1.9-1.9-1.9s-1.9,0.9-1.9,1.9c0,1.1,0.9,1.9,1.9,1.9S87,236.3,87,235.3"/>
	<path d="M324.6,241.1c0-1.1-0.9-1.9-1.9-1.9c-1.1,0-1.9,0.9-1.9,1.9c0,1.1,0.9,1.9,1.9,1.9C323.8,243,324.6,242.2,324.6,241.1"/>
	<path d="M168.8,194.8c0-1.1-0.9-1.9-1.9-1.9c-1.1,0-1.9,0.9-1.9,1.9c0,1.1,0.9,1.9,1.9,1.9C167.9,196.8,168.8,195.9,168.8,194.8"/>
	<path d="M145.8,236.7c0-1.1-0.9-1.9-1.9-1.9c-1.1,0-1.9,0.9-1.9,1.9c0,1.1,0.9,1.9,1.9,1.9C144.9,238.6,145.8,237.7,145.8,236.7"/>
	<path d="M225.7,149.4c0-1.1-0.9-1.9-1.9-1.9c-1.1,0-1.9,0.9-1.9,1.9c0,1.1,0.9,1.9,1.9,1.9C224.9,151.3,225.7,150.4,225.7,149.4"/>
	<path d="M137.6,202.2c0-1.1-0.9-1.9-1.9-1.9c-1.1,0-1.9,0.9-1.9,1.9c0,1.1,0.9,1.9,1.9,1.9C136.7,204.1,137.6,203.3,137.6,202.2"/>
	<path d="M296.5,287c0-1.1-0.9-1.9-1.9-1.9c-1.1,0-1.9,0.9-1.9,1.9c0,1.1,0.9,1.9,1.9,1.9C295.6,288.9,296.5,288,296.5,287"/>
	<path d="M299.6,291.1c0-1.1-0.9-1.9-1.9-1.9c-1.1,0-1.9,0.9-1.9,1.9c0,1.1,0.9,1.9,1.9,1.9C298.8,293,299.6,292.1,299.6,291.1"/>
	<path d="M273.4,254.6c0-1.1-0.9-1.9-1.9-1.9c-1.1,0-1.9,0.9-1.9,1.9c0,1.1,0.9,1.9,1.9,1.9C272.6,256.6,273.4,255.7,273.4,254.6"/>
	<path d="M164.2,198.2c0-1.1-0.9-1.9-1.9-1.9c-1.1,0-1.9,0.9-1.9,1.9c0,1.1,0.9,1.9,1.9,1.9C163.4,200.2,164.2,199.3,164.2,198.2"/>
	<path d="M23.8,188.9c0-1.1-0.9-1.9-1.9-1.9c-1.1,0-1.9,0.9-1.9,1.9c0,1.1,0.9,1.9,1.9,1.9C22.9,190.9,23.8,190,23.8,188.9"/>
	<path d="M25.5,209.5c0-1.1-0.9-1.9-1.9-1.9c-1.1,0-1.9,0.9-1.9,1.9c0,1.1,0.9,1.9,1.9,1.9C24.6,211.5,25.5,210.6,25.5,209.5"/>
	<path d="M305.9,268c0-1.1-0.9-1.9-1.9-1.9c-1.1,0-1.9,0.9-1.9,1.9c0,1.1,0.9,1.9,1.9,1.9C305,269.9,305.9,269,305.9,268"/>
	<path d="M235.6,90.6c0-1.1-0.9-1.9-1.9-1.9c-1.1,0-1.9,0.9-1.9,1.9c0,1.1,0.9,1.9,1.9,1.9C234.7,92.5,235.6,91.7,235.6,90.6"/>
	<path d="M120.3,276c0-1.1-0.9-1.9-1.9-1.9c-1.1,0-1.9,0.9-1.9,1.9c0,1.1,0.9,1.9,1.9,1.9C119.4,278,120.3,277.1,120.3,276"/>
	<path d="M131.7,281.1c0-1.1-0.9-1.9-1.9-1.9s-1.9,0.9-1.9,1.9c0,1.1,0.9,1.9,1.9,1.9S131.7,282.2,131.7,281.1"/>
	<path d="M145.8,222.2c0-1.1-0.9-1.9-1.9-1.9c-1.1,0-1.9,0.9-1.9,1.9c0,1.1,0.9,1.9,1.9,1.9C144.9,224.1,145.8,223.2,145.8,222.2"/>
	<path d="M300.4,269.4c0-1.1-0.9-1.9-1.9-1.9c-1.1,0-1.9,0.9-1.9,1.9c0,1.1,0.9,1.9,1.9,1.9C299.6,271.3,300.4,270.4,300.4,269.4"/>
	<path d="M268.4,67.9c0-1.1-0.9-1.9-1.9-1.9c-1.1,0-1.9,0.9-1.9,1.9c0,1.1,0.9,1.9,1.9,1.9C267.6,69.8,268.4,68.9,268.4,67.9"/>
	<path d="M245.6,75.5c0-1.1-0.9-1.9-1.9-1.9c-1.1,0-1.9,0.9-1.9,1.9c0,1.1,0.9,1.9,1.9,1.9C244.7,77.4,245.6,76.5,245.6,75.5"/>
	<path d="M264,65.1c0-1.1-0.9-1.9-1.9-1.9c-1.1,0-1.9,0.9-1.9,1.9c0,1.1,0.9,1.9,1.9,1.9C263.1,67,264,66.2,264,65.1"/>
	<path d="M289.1,292.5c0-1.1-0.9-1.9-1.9-1.9c-1.1,0-1.9,0.9-1.9,1.9c0,1.1,0.9,1.9,1.9,1.9C288.2,294.5,289.1,293.6,289.1,292.5"/>
	<path d="M227.5,301.6c0-1.1-0.9-1.9-1.9-1.9c-1.1,0-1.9,0.9-1.9,1.9c0,1.1,0.9,1.9,1.9,1.9C226.6,303.5,227.5,302.7,227.5,301.6"/>
	<path d="M192.9,69c0-1.1-0.9-1.9-1.9-1.9c-1.1,0-1.9,0.9-1.9,1.9c0,1.1,0.9,1.9,1.9,1.9C192,70.9,192.9,70.1,192.9,69"/>
	<path d="M299.8,249.2c0-1.1-0.9-1.9-1.9-1.9c-1.1,0-1.9,0.9-1.9,1.9c0,1.1,0.9,1.9,1.9,1.9C298.9,251.1,299.8,250.3,299.8,249.2"/>
	<path d="M224.3,294.7c0-1.1-0.9-1.9-1.9-1.9c-1.1,0-1.9,0.9-1.9,1.9c0,1.1,0.9,1.9,1.9,1.9C223.5,296.7,224.3,295.8,224.3,294.7"/>
	<path d="M272.5,260c0-1.1-0.9-1.9-1.9-1.9c-1.1,0-1.9,0.9-1.9,1.9c0,1.1,0.9,1.9,1.9,1.9C271.6,262,272.5,261.1,272.5,260"/>
	<path d="M288.3,253c0-1.1-0.9-1.9-1.9-1.9c-1.1,0-1.9,0.9-1.9,1.9c0,1.1,0.9,1.9,1.9,1.9C287.4,254.9,288.3,254.1,288.3,253"/>
	<path d="M223.2,154.1c0-1.1-0.9-1.9-1.9-1.9c-1.1,0-1.9,0.9-1.9,1.9c0,1.1,0.9,1.9,1.9,1.9C222.4,156,223.2,155.2,223.2,154.1"/>
	<path d="M143.5,205.5c0-1.1-0.9-1.9-1.9-1.9s-1.9,0.9-1.9,1.9c0,1.1,0.9,1.9,1.9,1.9S143.5,206.6,143.5,205.5"/>
	<path d="M286.9,170.7c0-1.1-0.9-1.9-1.9-1.9c-1.1,0-1.9,0.9-1.9,1.9c0,1.1,0.9,1.9,1.9,1.9C286,172.7,286.9,171.8,286.9,170.7"/>
	<path d="M293.3,261.7c0-1.1-0.9-1.9-1.9-1.9c-1.1,0-1.9,0.9-1.9,1.9c0,1.1,0.9,1.9,1.9,1.9C292.4,263.7,293.3,262.8,293.3,261.7"/>
	<path d="M235.4,163.1c0-1.1-0.9-1.9-1.9-1.9c-1.1,0-1.9,0.9-1.9,1.9c0,1.1,0.9,1.9,1.9,1.9C234.5,165,235.4,164.1,235.4,163.1"/>
	<path d="M230.1,194.4c0-1.1-0.9-1.9-1.9-1.9c-1.1,0-1.9,0.9-1.9,1.9c0,1.1,0.9,1.9,1.9,1.9C229.2,196.4,230.1,195.5,230.1,194.4"/>
	<path d="M134.5,197.7c0-1.1-0.9-1.9-1.9-1.9c-1.1,0-1.9,0.9-1.9,1.9c0,1.1,0.9,1.9,1.9,1.9C133.6,199.7,134.5,198.8,134.5,197.7"/>
	<path d="M200.3,246.3c0-1.1-0.9-1.9-1.9-1.9c-1.1,0-1.9,0.9-1.9,1.9c0,1.1,0.9,1.9,1.9,1.9C199.4,248.2,200.3,247.4,200.3,246.3"/>
	<path d="M131.8,290.3c0-1.1-0.9-1.9-1.9-1.9c-1.1,0-1.9,0.9-1.9,1.9c0,1.1,0.9,1.9,1.9,1.9C131,292.2,131.8,291.4,131.8,290.3"/>
	<path d="M119.7,68.3c0-1.1-0.9-1.9-1.9-1.9s-1.9,0.9-1.9,1.9c0,1.1,0.9,1.9,1.9,1.9S119.7,69.3,119.7,68.3"/>
	<path d="M195.3,245.8c0-1.1-0.9-1.9-1.9-1.9c-1.1,0-1.9,0.9-1.9,1.9c0,1.1,0.9,1.9,1.9,1.9C194.5,247.7,195.3,246.9,195.3,245.8"/>
	<path d="M165.9,137.5c0-1.1-0.9-1.9-1.9-1.9c-1.1,0-1.9,0.9-1.9,1.9c0,1.1,0.9,1.9,1.9,1.9C165,139.4,165.9,138.5,165.9,137.5"/>
	<path d="M159.2,150.7c0-1.1-0.9-1.9-1.9-1.9c-1.1,0-1.9,0.9-1.9,1.9s0.9,1.9,1.9,1.9C158.3,152.6,159.2,151.7,159.2,150.7"/>
	<path d="M206.6,73.3c0-1.1-0.9-1.9-1.9-1.9c-1.1,0-1.9,0.9-1.9,1.9c0,1.1,0.9,1.9,1.9,1.9C205.8,75.3,206.6,74.4,206.6,73.3"/>
	<path d="M278.5,72.9c0-1.1-0.9-1.9-1.9-1.9c-1.1,0-1.9,0.9-1.9,1.9c0,1.1,0.9,1.9,1.9,1.9C277.6,74.8,278.5,73.9,278.5,72.9"/>
	<path d="M320.6,237.1c0-1.1-0.9-1.9-1.9-1.9c-1.1,0-1.9,0.9-1.9,1.9c0,1.1,0.9,1.9,1.9,1.9C319.8,239,320.6,238.2,320.6,237.1"/>
	<path d="M296.7,281.1c0-1.1-0.9-1.9-1.9-1.9c-1.1,0-1.9,0.9-1.9,1.9c0,1.1,0.9,1.9,1.9,1.9C295.9,283.1,296.7,282.2,296.7,281.1"/>
	<path d="M288.7,287.3c0-1.1-0.9-1.9-1.9-1.9c-1.1,0-1.9,0.9-1.9,1.9c0,1.1,0.9,1.9,1.9,1.9C287.8,289.3,288.7,288.4,288.7,287.3"/>
	<path d="M295.3,271.2c0-1.1-0.9-1.9-1.9-1.9c-1.1,0-1.9,0.9-1.9,1.9c0,1.1,0.9,1.9,1.9,1.9C294.5,273.1,295.3,272.3,295.3,271.2"/>
	<path d="M186,320.8c0-1.1-0.9-1.9-1.9-1.9c-1.1,0-1.9,0.9-1.9,1.9c0,1.1,0.9,1.9,1.9,1.9C185.2,322.7,186,321.8,186,320.8"/>
	<path d="M206.7,253.5c0-1.1-0.9-1.9-1.9-1.9c-1.1,0-1.9,0.9-1.9,1.9c0,1.1,0.9,1.9,1.9,1.9C205.9,255.4,206.7,254.5,206.7,253.5"/>
	<path d="M289.5,247.6c0-1.1-0.9-1.9-1.9-1.9c-1.1,0-1.9,0.9-1.9,1.9c0,1.1,0.9,1.9,1.9,1.9C288.7,249.6,289.5,248.7,289.5,247.6"/>
	<path d="M289,276.7c0-1.1-0.9-1.9-1.9-1.9c-1.1,0-1.9,0.9-1.9,1.9c0,1.1,0.9,1.9,1.9,1.9C288.1,278.6,289,277.7,289,276.7"/>
	<path d="M32.2,183.7c0-1.1-0.9-1.9-1.9-1.9c-1.1,0-1.9,0.9-1.9,1.9c0,1.1,0.9,1.9,1.9,1.9C31.3,185.6,32.2,184.7,32.2,183.7"/>
	<path d="M272.3,271.2c0-1.1-0.9-1.9-1.9-1.9c-1.1,0-1.9,0.9-1.9,1.9c0,1.1,0.9,1.9,1.9,1.9C271.5,273.2,272.3,272.3,272.3,271.2"/>
	<path d="M240.4,165.1c0-1.1-0.9-1.9-1.9-1.9c-1.1,0-1.9,0.9-1.9,1.9c0,1.1,0.9,1.9,1.9,1.9C239.5,167,240.4,166.1,240.4,165.1"/>
	<path d="M281.1,268.3c0-1.1-0.9-1.9-1.9-1.9c-1.1,0-1.9,0.9-1.9,1.9c0,1.1,0.9,1.9,1.9,1.9C280.2,270.3,281.1,269.4,281.1,268.3"/>
	<path d="M253.1,67.6c0-1.1-0.9-1.9-1.9-1.9c-1.1,0-1.9,0.9-1.9,1.9c0,1.1,0.9,1.9,1.9,1.9C252.2,69.5,253.1,68.7,253.1,67.6"/>
	<path d="M139.7,197.2c0-1.1-0.9-1.9-1.9-1.9c-1.1,0-1.9,0.9-1.9,1.9c0,1.1,0.9,1.9,1.9,1.9C138.9,199.2,139.7,198.3,139.7,197.2"/>
	<path d="M296.9,265.4c0-1.1-0.9-1.9-1.9-1.9c-1.1,0-1.9,0.9-1.9,1.9s0.9,1.9,1.9,1.9C296,267.3,296.9,266.4,296.9,265.4"/>
	<path d="M117.4,196.6c0-1.1-0.9-1.9-1.9-1.9c-1.1,0-1.9,0.9-1.9,1.9c0,1.1,0.9,1.9,1.9,1.9C116.5,198.6,117.4,197.7,117.4,196.6"/>
	<path d="M290.6,257.5c0-1.1-0.9-1.9-1.9-1.9c-1.1,0-1.9,0.9-1.9,1.9c0,1.1,0.9,1.9,1.9,1.9C289.7,259.4,290.6,258.6,290.6,257.5"/>
	<path d="M278.7,257.6c0-1.1-0.9-1.9-1.9-1.9c-1.1,0-1.9,0.9-1.9,1.9c0,1.1,0.9,1.9,1.9,1.9C277.8,259.5,278.7,258.6,278.7,257.6"/>
	<path d="M211.2,221.5c0-1.1-0.9-1.9-1.9-1.9c-1.1,0-1.9,0.9-1.9,1.9c0,1.1,0.9,1.9,1.9,1.9C210.3,223.4,211.2,222.6,211.2,221.5"/>
	<path d="M127.8,273.7c0-1.1-0.9-1.9-1.9-1.9c-1.1,0-1.9,0.9-1.9,1.9c0,1.1,0.9,1.9,1.9,1.9C126.9,275.6,127.8,274.8,127.8,273.7"/>
	<path d="M284.3,244.6c0-1.1-0.9-1.9-1.9-1.9c-1.1,0-1.9,0.9-1.9,1.9c0,1.1,0.9,1.9,1.9,1.9C283.4,246.6,284.3,245.7,284.3,244.6"/>
	<path d="M135.9,78.4c0-1.1-0.9-1.9-1.9-1.9c-1.1,0-1.9,0.9-1.9,1.9c0,1.1,0.9,1.9,1.9,1.9C135.1,80.4,135.9,79.5,135.9,78.4"/>
	<path d="M186.4,19.7c0-1.1-0.9-1.9-1.9-1.9c-1.1,0-1.9,0.9-1.9,1.9c0,1.1,0.9,1.9,1.9,1.9C185.5,21.6,186.4,20.7,186.4,19.7"/>
	<path d="M205.3,214.8c0-1.1-0.9-1.9-1.9-1.9c-1.1,0-1.9,0.9-1.9,1.9c0,1.1,0.9,1.9,1.9,1.9C204.4,216.7,205.3,215.9,205.3,214.8"/>
	<path d="M329.8,239.9c0-1.1-0.9-1.9-1.9-1.9c-1.1,0-1.9,0.9-1.9,1.9s0.9,1.9,1.9,1.9C328.9,241.8,329.8,241,329.8,239.9"/>
	<path d="M324,246.1c0-1.1-0.9-1.9-1.9-1.9c-1.1,0-1.9,0.9-1.9,1.9c0,1.1,0.9,1.9,1.9,1.9C323.1,248,324,247.2,324,246.1"/>
	<path d="M27.9,204.7c0-1.1-0.9-1.9-1.9-1.9c-1.1,0-1.9,0.9-1.9,1.9c0,1.1,0.9,1.9,1.9,1.9C27,206.6,27.9,205.8,27.9,204.7"/>
	<path d="M278.2,252c0-1.1-0.9-1.9-1.9-1.9c-1.1,0-1.9,0.9-1.9,1.9c0,1.1,0.9,1.9,1.9,1.9C277.4,254,278.2,253.1,278.2,252"/>
	<path d="M292.4,283.7c0-1.1-0.9-1.9-1.9-1.9c-1.1,0-1.9,0.9-1.9,1.9c0,1.1,0.9,1.9,1.9,1.9C291.5,285.6,292.4,284.8,292.4,283.7"/>
	<path d="M112.1,201.7c0-1.1-0.9-1.9-1.9-1.9s-1.9,0.9-1.9,1.9c0,1.1,0.9,1.9,1.9,1.9S112.1,202.8,112.1,201.7"/>
	<path d="M308.2,263.5c0-1.1-0.9-1.9-1.9-1.9c-1.1,0-1.9,0.9-1.9,1.9c0,1.1,0.9,1.9,1.9,1.9C307.4,265.4,308.2,264.5,308.2,263.5"/>
	<path d="M187.4,24.7c0-1.1-0.9-1.9-1.9-1.9c-1.1,0-1.9,0.9-1.9,1.9c0,1.1,0.9,1.9,1.9,1.9C186.6,26.7,187.4,25.8,187.4,24.7"/>
	<path d="M69.6,186.9c0-1.1-0.9-1.9-1.9-1.9c-1.1,0-1.9,0.9-1.9,1.9c0,1.1,0.9,1.9,1.9,1.9C68.8,188.9,69.6,188,69.6,186.9"/>
	<path d="M278.5,67.3c0-1.1-0.9-1.9-1.9-1.9c-1.1,0-1.9,0.9-1.9,1.9s0.9,1.9,1.9,1.9C277.6,69.2,278.5,68.3,278.5,67.3"/>
	<path d="M303,262.9c0-1.1-0.9-1.9-1.9-1.9c-1.1,0-1.9,0.9-1.9,1.9c0,1.1,0.9,1.9,1.9,1.9C302.1,264.8,303,263.9,303,262.9"/>
	<path d="M280.4,170.6c0-1.1-0.9-1.9-1.9-1.9c-1.1,0-1.9,0.9-1.9,1.9c0,1.1,0.9,1.9,1.9,1.9C279.6,172.5,280.4,171.7,280.4,170.6"/>
	<path d="M149.1,240.9c0-1.1-0.9-1.9-1.9-1.9c-1.1,0-1.9,0.9-1.9,1.9c0,1.1,0.9,1.9,1.9,1.9C148.3,242.8,149.1,242,149.1,240.9"/>
	<path d="M277.3,174.8c0-1.1-0.9-1.9-1.9-1.9c-1.1,0-1.9,0.9-1.9,1.9c0,1.1,0.9,1.9,1.9,1.9C276.5,176.8,277.3,175.9,277.3,174.8"/>
	<path d="M196.8,217c0-1.1-0.9-1.9-1.9-1.9c-1.1,0-1.9,0.9-1.9,1.9c0,1.1,0.9,1.9,1.9,1.9C195.9,218.9,196.8,218.1,196.8,217"/>
	<path d="M193.9,74.4c0-1.1-0.9-1.9-1.9-1.9c-1.1,0-1.9,0.9-1.9,1.9c0,1.1,0.9,1.9,1.9,1.9C193.1,76.3,193.9,75.4,193.9,74.4"/>
	<path d="M128.4,65c0-1.1-0.9-1.9-1.9-1.9c-1.1,0-1.9,0.9-1.9,1.9c0,1.1,0.9,1.9,1.9,1.9C127.5,66.9,128.4,66.1,128.4,65"/>
	<path d="M285.6,258.8c0-1.1-0.9-1.9-1.9-1.9c-1.1,0-1.9,0.9-1.9,1.9c0,1.1,0.9,1.9,1.9,1.9C284.7,260.8,285.6,259.9,285.6,258.8"/>
	<path d="M201.4,141.1c0-1.1-0.9-1.9-1.9-1.9c-1.1,0-1.9,0.9-1.9,1.9c0,1.1,0.9,1.9,1.9,1.9C200.5,143.1,201.4,142.2,201.4,141.1"/>
	<path d="M276.6,262.7c0-1.1-0.9-1.9-1.9-1.9c-1.1,0-1.9,0.9-1.9,1.9c0,1.1,0.9,1.9,1.9,1.9C275.8,264.6,276.6,263.7,276.6,262.7"/>
	<path d="M120.9,290.9c0-1.1-0.9-1.9-1.9-1.9c-1.1,0-1.9,0.9-1.9,1.9c0,1.1,0.9,1.9,1.9,1.9C120,292.8,120.9,292,120.9,290.9"/>
	<path d="M283.7,273.2c0-1.1-0.9-1.9-1.9-1.9c-1.1,0-1.9,0.9-1.9,1.9c0,1.1,0.9,1.9,1.9,1.9C282.8,275.1,283.7,274.2,283.7,273.2"/>
	<path d="M276.2,267.8c0-1.1-0.9-1.9-1.9-1.9c-1.1,0-1.9,0.9-1.9,1.9c0,1.1,0.9,1.9,1.9,1.9C275.3,269.8,276.2,268.9,276.2,267.8"/>
	<path d="M300.4,277c0-1.1-0.9-1.9-1.9-1.9c-1.1,0-1.9,0.9-1.9,1.9c0,1.1,0.9,1.9,1.9,1.9C299.5,278.9,300.4,278,300.4,277"/>
	<path d="M297.9,147.6c0-1.1-0.9-1.9-1.9-1.9c-1.1,0-1.9,0.9-1.9,1.9c0,1.1,0.9,1.9,1.9,1.9C297,149.5,297.9,148.7,297.9,147.6"/>
	<path d="M233.7,300.1c0-1.1-0.9-1.9-1.9-1.9c-1.1,0-1.9,0.9-1.9,1.9c0,1.1,0.9,1.9,1.9,1.9C232.8,302,233.7,301.1,233.7,300.1"/>
</g>
</svg>
