<?xml version="1.0" encoding="utf-8"?>
<!-- Generator: Adobe Illustrator 21.1.0, SVG Export Plug-In . SVG Version: 6.00 Build 0)  -->
<svg version="1.1" id="Layer_1" xmlns="http://www.w3.org/2000/svg" xmlns:xlink="http://www.w3.org/1999/xlink" x="0px" y="0px"
	 viewBox="0 0 350 350" style="enable-background:new 0 0 350 350;" xml:space="preserve">
<style type="text/css">
	.st0{fill:none;stroke:#231F20;stroke-width:1.5;stroke-miterlimit:10;}
</style>
<g>
	<line class="st0" x1="202.8" y1="123.3" x2="228.5" y2="30.4"/>
	<line class="st0" x1="202.8" y1="123.3" x2="179.6" y2="179.7"/>
	<line class="st0" x1="202.8" y1="123.3" x2="123.7" y2="199.1"/>
	<line class="st0" x1="202.8" y1="123.3" x2="94.8" y2="319.6"/>
	<line class="st0" x1="202.8" y1="123.3" x2="255.2" y2="125.1"/>
	<line class="st0" x1="202.8" y1="123.3" x2="244.2" y2="40.2"/>
	<line class="st0" x1="228.5" y1="30.4" x2="255.2" y2="125.1"/>
	<line class="st0" x1="179.6" y1="179.7" x2="228.5" y2="30.4"/>
	<line class="st0" x1="179.6" y1="179.7" x2="255.2" y2="125.1"/>
	<line class="st0" x1="179.6" y1="179.7" x2="244.2" y2="40.2"/>
	<line class="st0" x1="123.7" y1="199.1" x2="94.8" y2="319.6"/>
	<line class="st0" x1="244.2" y1="40.2" x2="228.5" y2="30.4"/>
	<line class="st0" x1="244.2" y1="40.2" x2="255.2" y2="125.1"/>
	<line class="st0" x1="244.2" y1="40.2" x2="163" y2="51.2"/>
	<path d="M206.7,123.3c0-2.1-1.7-3.9-3.9-3.9s-3.9,1.7-3.9,3.9c0,2.1,1.7,3.9,3.9,3.9S206.7,125.5,206.7,123.3"/>
	<path d="M232.4,30.4c0-2.1-1.7-3.9-3.9-3.9c-2.1,0-3.9,1.7-3.9,3.9c0,2.1,1.7,3.9,3.9,3.9C230.7,34.3,232.4,32.5,232.4,30.4"/>
	<path d="M183.5,179.7c0-2.1-1.7-3.9-3.9-3.9c-2.1,0-3.9,1.7-3.9,3.9c0,2.1,1.7,3.9,3.9,3.9C181.7,183.6,183.5,181.9,183.5,179.7"/>
	<path d="M127.6,199.1c0-2.1-1.7-3.9-3.9-3.9c-2.1,0-3.9,1.7-3.9,3.9c0,2.1,1.7,3.9,3.9,3.9C125.9,202.9,127.6,201.2,127.6,199.1"/>
	<path d="M98.7,319.6c0-2.1-1.7-3.9-3.9-3.9s-3.9,1.7-3.9,3.9c0,2.1,1.7,3.9,3.9,3.9S98.7,321.7,98.7,319.6"/>
	<path d="M259.1,125.1c0-2.1-1.7-3.9-3.9-3.9c-2.1,0-3.9,1.7-3.9,3.9c0,2.1,1.7,3.9,3.9,3.9C257.4,129,259.1,127.3,259.1,125.1"/>
	<path d="M248.1,40.2c0-2.1-1.7-3.9-3.9-3.9c-2.1,0-3.9,1.7-3.9,3.9c0,2.1,1.7,3.9,3.9,3.9C246.3,44.1,248.1,42.3,248.1,40.2"/>
	<path d="M166.9,51.2c0-2.1-1.7-3.9-3.9-3.9c-2.1,0-3.9,1.7-3.9,3.9c0,2.1,1.7,3.9,3.9,3.9C165.1,55.1,166.9,53.4,166.9,51.2"/>
</g>
</svg>
