<?xml version="1.0" encoding="utf-8"?>
<!-- Generator: Adobe Illustrator 21.1.0, SVG Export Plug-In . SVG Version: 6.00 Build 0)  -->
<svg version="1.1" id="Layer_1" xmlns="http://www.w3.org/2000/svg" xmlns:xlink="http://www.w3.org/1999/xlink" x="0px" y="0px"
	 viewBox="0 0 350 350" style="enable-background:new 0 0 350 350;" xml:space="preserve">
<style type="text/css">
	.st0{fill:none;stroke:#231F20;stroke-width:0.75;stroke-miterlimit:10;}
</style>
<g>
	<line class="st0" x1="157.5" y1="211.8" x2="186.1" y2="239.4"/>
	<line class="st0" x1="157.5" y1="211.8" x2="160.7" y2="219.6"/>
	<line class="st0" x1="157.5" y1="211.8" x2="137.8" y2="234"/>
	<line class="st0" x1="173.1" y1="229.9" x2="186.1" y2="239.4"/>
	<line class="st0" x1="173.1" y1="229.9" x2="166.9" y2="224.6"/>
	<line class="st0" x1="164" y1="272.2" x2="186.1" y2="239.4"/>
	<line class="st0" x1="164" y1="272.2" x2="159.3" y2="266.3"/>
	<line class="st0" x1="164" y1="272.2" x2="166.9" y2="224.6"/>
	<line class="st0" x1="14.7" y1="150.6" x2="35.1" y2="167.6"/>
	<line class="st0" x1="14.7" y1="150.6" x2="22.8" y2="146.9"/>
	<line class="st0" x1="14.7" y1="150.6" x2="22.6" y2="155.1"/>
	<line class="st0" x1="205.4" y1="226.7" x2="209.6" y2="234.5"/>
	<line class="st0" x1="205.4" y1="226.7" x2="201.4" y2="220"/>
	<line class="st0" x1="180" y1="164.3" x2="186.1" y2="239.4"/>
	<line class="st0" x1="180" y1="164.3" x2="147.4" y2="85"/>
	<line class="st0" x1="180" y1="164.3" x2="176.6" y2="156.4"/>
	<line class="st0" x1="180" y1="164.3" x2="171.5" y2="166.6"/>
	<line class="st0" x1="133.2" y1="286.2" x2="133.2" y2="295"/>
	<line class="st0" x1="133.2" y1="286.2" x2="201.8" y2="265.1"/>
	<line class="st0" x1="133.2" y1="286.2" x2="213" y2="251.1"/>
	<line class="st0" x1="182.6" y1="249.4" x2="186.1" y2="239.4"/>
	<line class="st0" x1="182.6" y1="249.4" x2="166.9" y2="224.6"/>
	<line class="st0" x1="184.7" y1="199.9" x2="186.1" y2="239.4"/>
	<line class="st0" x1="184.7" y1="199.9" x2="179.7" y2="205.6"/>
	<line class="st0" x1="124.6" y1="61.6" x2="127.2" y2="68.7"/>
	<line class="st0" x1="124.6" y1="61.6" x2="132.2" y2="58.2"/>
	<line class="st0" x1="221.5" y1="229.3" x2="186.1" y2="239.4"/>
	<line class="st0" x1="221.5" y1="229.3" x2="152" y2="232"/>
	<line class="st0" x1="221.5" y1="229.3" x2="201.4" y2="220"/>
	<line class="st0" x1="221.5" y1="229.3" x2="169.2" y2="257.2"/>
	<line class="st0" x1="212.7" y1="242.7" x2="186.1" y2="239.4"/>
	<line class="st0" x1="212.7" y1="242.7" x2="219.4" y2="246.6"/>
	<line class="st0" x1="217" y1="236.4" x2="186.1" y2="239.4"/>
	<line class="st0" x1="217" y1="236.4" x2="209.6" y2="234.5"/>
	<line class="st0" x1="208.5" y1="257.9" x2="186.1" y2="239.4"/>
	<line class="st0" x1="208.5" y1="257.9" x2="200.7" y2="257.3"/>
	<line class="st0" x1="219" y1="256.7" x2="186.1" y2="239.4"/>
	<line class="st0" x1="219" y1="256.7" x2="219.4" y2="246.6"/>
	<line class="st0" x1="219" y1="256.7" x2="201.4" y2="220"/>
	<line class="st0" x1="219" y1="256.7" x2="224.4" y2="239.3"/>
	<line class="st0" x1="189.4" y1="254.5" x2="186.1" y2="239.4"/>
	<line class="st0" x1="189.4" y1="254.5" x2="166.9" y2="224.6"/>
	<line class="st0" x1="190" y1="246.2" x2="186.1" y2="239.4"/>
	<line class="st0" x1="190" y1="246.2" x2="160.7" y2="219.6"/>
	<line class="st0" x1="153" y1="222.1" x2="152" y2="232"/>
	<line class="st0" x1="153" y1="222.1" x2="160.7" y2="219.6"/>
	<line class="st0" x1="153" y1="222.1" x2="148" y2="215.7"/>
	<line class="st0" x1="252.1" y1="175.5" x2="266.8" y2="189.6"/>
	<line class="st0" x1="252.1" y1="175.5" x2="258.4" y2="167.9"/>
	<line class="st0" x1="252.1" y1="175.5" x2="243.4" y2="177"/>
	<line class="st0" x1="172.4" y1="271.2" x2="186.1" y2="239.4"/>
	<line class="st0" x1="172.4" y1="271.2" x2="166.9" y2="224.6"/>
	<line class="st0" x1="172.4" y1="271.2" x2="175.4" y2="263.6"/>
	<line class="st0" x1="172.4" y1="271.2" x2="201.8" y2="265.1"/>
	<line class="st0" x1="298.4" y1="281.5" x2="253.9" y2="251.6"/>
	<line class="st0" x1="298.4" y1="281.5" x2="290.8" y2="285.9"/>
	<line class="st0" x1="298.4" y1="281.5" x2="291.5" y2="275.6"/>
	<line class="st0" x1="193.2" y1="234" x2="186.1" y2="239.4"/>
	<line class="st0" x1="193.2" y1="234" x2="166.9" y2="224.6"/>
	<line class="st0" x1="193.2" y1="234" x2="213.7" y2="204"/>
	<line class="st0" x1="153.9" y1="255.2" x2="166.9" y2="224.6"/>
	<line class="st0" x1="153.9" y1="255.2" x2="175.4" y2="263.6"/>
	<line class="st0" x1="153.9" y1="255.2" x2="156.5" y2="247.6"/>
	<line class="st0" x1="152" y1="263.5" x2="159.3" y2="266.3"/>
	<line class="st0" x1="152" y1="263.5" x2="175.4" y2="263.6"/>
	<line class="st0" x1="189.9" y1="223.3" x2="186.1" y2="239.4"/>
	<line class="st0" x1="189.9" y1="223.3" x2="166.9" y2="224.6"/>
	<line class="st0" x1="189.9" y1="223.3" x2="213.5" y2="227.9"/>
	<line class="st0" x1="267" y1="173.2" x2="266.8" y2="189.6"/>
	<line class="st0" x1="172" y1="248.2" x2="186.1" y2="239.4"/>
	<line class="st0" x1="172" y1="248.2" x2="166.9" y2="224.6"/>
	<line class="st0" x1="197" y1="249.3" x2="186.1" y2="239.4"/>
	<line class="st0" x1="197" y1="249.3" x2="166.9" y2="224.6"/>
	<line class="st0" x1="198.4" y1="201.5" x2="186.1" y2="239.4"/>
	<line class="st0" x1="198.4" y1="201.5" x2="192.9" y2="196.2"/>
	<line class="st0" x1="203.4" y1="273.8" x2="186.1" y2="239.4"/>
	<line class="st0" x1="203.4" y1="273.8" x2="193.7" y2="261.1"/>
	<line class="st0" x1="203.4" y1="273.8" x2="195.9" y2="270.4"/>
	<line class="st0" x1="180.4" y1="269.6" x2="186.1" y2="239.4"/>
	<line class="st0" x1="180.4" y1="269.6" x2="166.9" y2="224.6"/>
	<line class="st0" x1="180.4" y1="269.6" x2="175.4" y2="263.6"/>
	<line class="st0" x1="294.7" y1="219.7" x2="186.1" y2="239.4"/>
	<line class="st0" x1="294.7" y1="219.7" x2="166.9" y2="224.6"/>
	<line class="st0" x1="294.7" y1="219.7" x2="258.4" y2="167.9"/>
	<line class="st0" x1="294.7" y1="219.7" x2="287.5" y2="224"/>
	<line class="st0" x1="178.8" y1="235.2" x2="186.1" y2="239.4"/>
	<line class="st0" x1="178.8" y1="235.2" x2="137.8" y2="234"/>
	<line class="st0" x1="247.9" y1="257.6" x2="253.9" y2="251.6"/>
	<line class="st0" x1="146.2" y1="94" x2="147.4" y2="85"/>
	<line class="st0" x1="146.2" y1="94" x2="127.2" y2="68.7"/>
	<line class="st0" x1="146.2" y1="94" x2="139.3" y2="89.1"/>
	<line class="st0" x1="144" y1="239.1" x2="166.9" y2="224.6"/>
	<line class="st0" x1="144" y1="239.1" x2="137.8" y2="234"/>
	<line class="st0" x1="144" y1="239.1" x2="141.7" y2="252.8"/>
	<line class="st0" x1="144" y1="239.1" x2="131.1" y2="238.9"/>
	<line class="st0" x1="205.1" y1="249.3" x2="186.1" y2="239.4"/>
	<line class="st0" x1="205.1" y1="249.3" x2="190.9" y2="187.9"/>
	<line class="st0" x1="276.9" y1="183.5" x2="266.8" y2="189.6"/>
	<line class="st0" x1="276.9" y1="183.5" x2="213.7" y2="204"/>
	<line class="st0" x1="276.9" y1="183.5" x2="266.4" y2="165.5"/>
	<line class="st0" x1="165.8" y1="233.4" x2="166.9" y2="224.6"/>
	<line class="st0" x1="165.8" y1="233.4" x2="164.2" y2="242.4"/>
	<line class="st0" x1="228.5" y1="232.8" x2="166.9" y2="224.6"/>
	<line class="st0" x1="228.5" y1="232.8" x2="219.4" y2="246.6"/>
	<line class="st0" x1="228.5" y1="232.8" x2="129.6" y2="257.2"/>
	<line class="st0" x1="228.5" y1="232.8" x2="213" y2="251.1"/>
	<line class="st0" x1="272.2" y1="122.1" x2="266.8" y2="189.6"/>
	<line class="st0" x1="272.2" y1="122.1" x2="271.5" y2="130"/>
	<line class="st0" x1="272.2" y1="122.1" x2="279.8" y2="127.7"/>
	<line class="st0" x1="259.8" y1="175.7" x2="266.8" y2="189.6"/>
	<line class="st0" x1="180.1" y1="226.2" x2="186.1" y2="239.4"/>
	<line class="st0" x1="180.1" y1="226.2" x2="175.4" y2="263.6"/>
	<line class="st0" x1="242.8" y1="274.2" x2="186.1" y2="239.4"/>
	<line class="st0" x1="242.8" y1="274.2" x2="253.9" y2="251.6"/>
	<line class="st0" x1="242.8" y1="274.2" x2="256.5" y2="302.2"/>
	<line class="st0" x1="242.8" y1="274.2" x2="247.6" y2="267.3"/>
	<line class="st0" x1="259.7" y1="192.1" x2="266.8" y2="189.6"/>
	<line class="st0" x1="188" y1="266.8" x2="186.1" y2="239.4"/>
	<line class="st0" x1="188" y1="266.8" x2="195.9" y2="270.4"/>
	<line class="st0" x1="158.4" y1="236.9" x2="186.1" y2="239.4"/>
	<line class="st0" x1="158.4" y1="236.9" x2="166.9" y2="224.6"/>
	<line class="st0" x1="190.6" y1="205.2" x2="186.1" y2="239.4"/>
	<line class="st0" x1="190.6" y1="205.2" x2="166.9" y2="224.6"/>
	<line class="st0" x1="210.2" y1="266.9" x2="186.1" y2="239.4"/>
	<line class="st0" x1="210.2" y1="266.9" x2="201.8" y2="265.1"/>
	<line class="st0" x1="210.2" y1="266.9" x2="193.7" y2="261.1"/>
	<line class="st0" x1="121" y1="256.2" x2="129.6" y2="257.2"/>
	<line class="st0" x1="270.9" y1="325.1" x2="274" y2="333.4"/>
	<line class="st0" x1="270.9" y1="325.1" x2="256.5" y2="302.2"/>
	<line class="st0" x1="270.9" y1="325.1" x2="265.8" y2="332"/>
	<line class="st0" x1="223.7" y1="37.9" x2="253.8" y2="16.6"/>
	<line class="st0" x1="223.7" y1="37.9" x2="219.8" y2="22.2"/>
	<line class="st0" x1="223.7" y1="37.9" x2="227.6" y2="31.4"/>
	<line class="st0" x1="52.1" y1="158.8" x2="35.1" y2="167.6"/>
	<line class="st0" x1="52.1" y1="158.8" x2="44.4" y2="162.1"/>
	<line class="st0" x1="52.1" y1="158.8" x2="53.6" y2="166.4"/>
	<line class="st0" x1="199.7" y1="188.1" x2="190.9" y2="187.9"/>
	<line class="st0" x1="199.7" y1="188.1" x2="192.9" y2="196.2"/>
	<line class="st0" x1="193.9" y1="216.8" x2="186.1" y2="239.4"/>
	<line class="st0" x1="193.9" y1="216.8" x2="201.4" y2="220"/>
	<line class="st0" x1="193.9" y1="216.8" x2="244.4" y2="185.4"/>
	<line class="st0" x1="145.9" y1="259" x2="166.9" y2="224.6"/>
	<line class="st0" x1="145.9" y1="259" x2="148.7" y2="249.4"/>
	<line class="st0" x1="226.7" y1="222.2" x2="186.1" y2="239.4"/>
	<line class="st0" x1="226.7" y1="222.2" x2="175.4" y2="263.6"/>
	<line class="st0" x1="226.7" y1="222.2" x2="201.4" y2="220"/>
	<line class="st0" x1="197.5" y1="226.6" x2="186.1" y2="239.4"/>
	<line class="st0" x1="197.5" y1="226.6" x2="166.9" y2="224.6"/>
	<line class="st0" x1="186.4" y1="230.7" x2="186.1" y2="239.4"/>
	<line class="st0" x1="186.4" y1="230.7" x2="253.9" y2="251.6"/>
	<line class="st0" x1="130.7" y1="76.7" x2="127.2" y2="68.7"/>
	<line class="st0" x1="130.7" y1="76.7" x2="135.4" y2="70.5"/>
	<line class="st0" x1="130.7" y1="76.7" x2="140.5" y2="76.7"/>
	<line class="st0" x1="252.8" y1="183.5" x2="266.8" y2="189.6"/>
	<line class="st0" x1="252.8" y1="183.5" x2="243.4" y2="177"/>
	<line class="st0" x1="177.9" y1="243.5" x2="186.1" y2="239.4"/>
	<line class="st0" x1="177.9" y1="243.5" x2="164.2" y2="242.4"/>
	<line class="st0" x1="273.2" y1="84.4" x2="271.5" y2="130"/>
	<line class="st0" x1="273.2" y1="84.4" x2="256" y2="52.7"/>
	<line class="st0" x1="273.2" y1="84.4" x2="267" y2="90.6"/>
	<line class="st0" x1="205.5" y1="213.2" x2="186.1" y2="239.4"/>
	<line class="st0" x1="205.5" y1="213.2" x2="201.4" y2="220"/>
	<line class="st0" x1="274.6" y1="173.9" x2="186.1" y2="239.4"/>
	<line class="st0" x1="274.6" y1="173.9" x2="266.8" y2="189.6"/>
	<line class="st0" x1="274.6" y1="173.9" x2="258.4" y2="167.9"/>
	<line class="st0" x1="205.2" y1="241.5" x2="186.1" y2="239.4"/>
	<line class="st0" x1="205.2" y1="241.5" x2="197.4" y2="241.2"/>
	<line class="st0" x1="206.2" y1="205.5" x2="186.1" y2="239.4"/>
	<line class="st0" x1="206.2" y1="205.5" x2="213.7" y2="204"/>
	<line class="st0" x1="161.1" y1="258.2" x2="186.1" y2="239.4"/>
	<line class="st0" x1="161.1" y1="258.2" x2="156.5" y2="247.6"/>
	<line class="st0" x1="290.5" y1="211" x2="278" y2="222.1"/>
	<line class="st0" x1="290.5" y1="211" x2="284.1" y2="215.8"/>
	<line class="st0" x1="290.5" y1="211" x2="287.5" y2="224"/>
	<line class="st0" x1="166.3" y1="208" x2="166.9" y2="224.6"/>
	<line class="st0" x1="166.3" y1="208" x2="160.7" y2="219.6"/>
	<line class="st0" x1="33.4" y1="159.3" x2="35.1" y2="167.6"/>
	<line class="st0" x1="177.3" y1="254.9" x2="186.1" y2="239.4"/>
	<line class="st0" x1="177.3" y1="254.9" x2="166.9" y2="224.6"/>
	<line class="st0" x1="177.3" y1="254.9" x2="183.9" y2="260.4"/>
	<line class="st0" x1="202" y1="234.6" x2="186.1" y2="239.4"/>
	<line class="st0" x1="202" y1="234.6" x2="166.9" y2="224.6"/>
	<line class="st0" x1="202" y1="234.6" x2="218.8" y2="219.5"/>
	<line class="st0" x1="247.2" y1="52.7" x2="256" y2="52.7"/>
	<line class="st0" x1="247.2" y1="52.7" x2="219.8" y2="22.2"/>
	<line class="st0" x1="136.9" y1="259.2" x2="166.9" y2="224.6"/>
	<line class="st0" x1="136.9" y1="259.2" x2="141.7" y2="252.8"/>
	<line class="st0" x1="335.3" y1="277" x2="327.3" y2="278.3"/>
	<line class="st0" x1="335.3" y1="277" x2="332" y2="268.7"/>
	<line class="st0" x1="171.7" y1="238.1" x2="186.1" y2="239.4"/>
	<line class="st0" x1="171.7" y1="238.1" x2="166.9" y2="224.6"/>
	<line class="st0" x1="261.9" y1="252.4" x2="253.9" y2="251.6"/>
	<line class="st0" x1="124.6" y1="248.9" x2="166.9" y2="224.6"/>
	<line class="st0" x1="124.6" y1="248.9" x2="129.6" y2="257.2"/>
	<line class="st0" x1="273.4" y1="31.3" x2="256" y2="52.7"/>
	<line class="st0" x1="273.4" y1="31.3" x2="272.7" y2="39.1"/>
	<line class="st0" x1="122.4" y1="264.3" x2="129.6" y2="257.2"/>
	<line class="st0" x1="210.3" y1="220" x2="186.1" y2="239.4"/>
	<line class="st0" x1="210.3" y1="220" x2="266.8" y2="189.6"/>
	<line class="st0" x1="210.3" y1="220" x2="201.4" y2="220"/>
	<line class="st0" x1="213.7" y1="211.9" x2="186.1" y2="239.4"/>
	<line class="st0" x1="213.7" y1="211.9" x2="201.4" y2="220"/>
	<line class="st0" x1="138.9" y1="62.6" x2="135.4" y2="70.5"/>
	<line class="st0" x1="138.9" y1="62.6" x2="219.8" y2="22.2"/>
	<line class="st0" x1="138.9" y1="62.6" x2="146.3" y2="64.1"/>
	<line class="st0" x1="253.2" y1="160.9" x2="258.4" y2="167.9"/>
	<line class="st0" x1="253.2" y1="160.9" x2="248.9" y2="167.9"/>
	<line class="st0" x1="123.3" y1="240.4" x2="137.8" y2="234"/>
	<line class="st0" x1="249.5" y1="192" x2="266.8" y2="189.6"/>
	<line class="st0" x1="249.5" y1="192" x2="244.4" y2="185.4"/>
	<line class="st0" x1="268.5" y1="181.4" x2="266.8" y2="189.6"/>
	<line class="st0" x1="268.5" y1="181.4" x2="258.4" y2="167.9"/>
	<line class="st0" x1="174.6" y1="220.8" x2="186.1" y2="239.4"/>
	<line class="st0" x1="174.6" y1="220.8" x2="253.9" y2="251.6"/>
	<line class="st0" x1="167" y1="264.9" x2="175.4" y2="263.6"/>
	<line class="st0" x1="151.4" y1="241.3" x2="166.9" y2="224.6"/>
	<line class="st0" x1="151.4" y1="241.3" x2="169.2" y2="257.2"/>
	<line class="st0" x1="232.4" y1="242.4" x2="201.4" y2="220"/>
	<line class="st0" x1="232.4" y1="242.4" x2="224.4" y2="239.3"/>
	<line class="st0" x1="232.4" y1="242.4" x2="225.4" y2="251.3"/>
	<line class="st0" x1="256.3" y1="243.7" x2="253.9" y2="251.6"/>
	<line class="st0" x1="256.3" y1="243.7" x2="243.4" y2="177"/>
	<line class="st0" x1="132.7" y1="250.3" x2="137.8" y2="234"/>
	<line class="st0" x1="132.7" y1="250.3" x2="129.6" y2="257.2"/>
	<line class="st0" x1="164.3" y1="250.2" x2="166.9" y2="224.6"/>
	<line class="st0" x1="177.4" y1="212.9" x2="186.1" y2="239.4"/>
	<line class="st0" x1="259.3" y1="23.4" x2="253.8" y2="16.6"/>
	<line class="st0" x1="259.3" y1="23.4" x2="265.9" y2="17.7"/>
	<line class="st0" x1="235.8" y1="34.8" x2="219.8" y2="22.2"/>
	<line class="st0" x1="235.8" y1="34.8" x2="227.6" y2="31.4"/>
	<line class="st0" x1="221.2" y1="210.1" x2="53.6" y2="166.4"/>
	<line class="st0" x1="221.2" y1="210.1" x2="218.8" y2="219.5"/>
	<line class="st0" x1="261.2" y1="184.4" x2="266.8" y2="189.6"/>
	<line class="st0" x1="186.8" y1="211.8" x2="186.1" y2="239.4"/>
	<line class="st0" x1="186.8" y1="211.8" x2="166.9" y2="224.6"/>
	<line class="st0" x1="256.7" y1="259" x2="253.9" y2="251.6"/>
	<line class="st0" x1="256.7" y1="259" x2="332" y2="268.7"/>
	<line class="st0" x1="183.2" y1="218.6" x2="186.1" y2="239.4"/>
	<line class="st0" x1="183.2" y1="218.6" x2="258.4" y2="167.9"/>
	<line class="st0" x1="168.2" y1="215.3" x2="186.1" y2="239.4"/>
	<line class="st0" x1="159.3" y1="227.9" x2="160.7" y2="219.6"/>
	<line class="st0" x1="246.1" y1="19.3" x2="253.8" y2="16.6"/>
	<line class="st0" x1="246.1" y1="19.3" x2="272.7" y2="39.1"/>
	<line class="st0" x1="138.2" y1="245.1" x2="141.7" y2="252.8"/>
	<line class="st0" x1="198.2" y1="210.6" x2="186.1" y2="239.4"/>
	<line class="st0" x1="256.5" y1="311" x2="256.5" y2="302.2"/>
	<path d="M159.4,211.8c0-1.1-0.9-1.9-1.9-1.9s-1.9,0.9-1.9,1.9c0,1.1,0.9,1.9,1.9,1.9S159.4,212.9,159.4,211.8"/>
	<path d="M188,239.4c0-1.1-0.9-1.9-1.9-1.9c-1.1,0-1.9,0.9-1.9,1.9c0,1.1,0.9,1.9,1.9,1.9C187.1,241.3,188,240.4,188,239.4"/>
	<path d="M175,229.9c0-1.1-0.9-1.9-1.9-1.9c-1.1,0-1.9,0.9-1.9,1.9c0,1.1,0.9,1.9,1.9,1.9C174.2,231.8,175,230.9,175,229.9"/>
	<path d="M166,272.2c0-1.1-0.9-1.9-1.9-1.9c-1.1,0-1.9,0.9-1.9,1.9c0,1.1,0.9,1.9,1.9,1.9C165.1,274.1,166,273.3,166,272.2"/>
	<path d="M161.2,266.3c0-1.1-0.9-1.9-1.9-1.9c-1.1,0-1.9,0.9-1.9,1.9c0,1.1,0.9,1.9,1.9,1.9C160.3,268.3,161.2,267.4,161.2,266.3"/>
	<path d="M16.7,150.6c0-1.1-0.9-1.9-1.9-1.9c-1.1,0-1.9,0.9-1.9,1.9c0,1.1,0.9,1.9,1.9,1.9C15.8,152.5,16.7,151.7,16.7,150.6"/>
	<path d="M37,167.6c0-1.1-0.9-1.9-1.9-1.9c-1.1,0-1.9,0.9-1.9,1.9c0,1.1,0.9,1.9,1.9,1.9C36.1,169.5,37,168.7,37,167.6"/>
	<path d="M207.4,226.7c0-1.1-0.9-1.9-1.9-1.9c-1.1,0-1.9,0.9-1.9,1.9c0,1.1,0.9,1.9,1.9,1.9C206.5,228.6,207.4,227.8,207.4,226.7"/>
	<path d="M211.5,234.5c0-1.1-0.9-1.9-1.9-1.9c-1.1,0-1.9,0.9-1.9,1.9c0,1.1,0.9,1.9,1.9,1.9C210.7,236.4,211.5,235.6,211.5,234.5"/>
	<path d="M181.9,164.3c0-1.1-0.9-1.9-1.9-1.9c-1.1,0-1.9,0.9-1.9,1.9c0,1.1,0.9,1.9,1.9,1.9C181.1,166.2,181.9,165.3,181.9,164.3"/>
	<path d="M149.3,85c0-1.1-0.9-1.9-1.9-1.9s-1.9,0.9-1.9,1.9c0,1.1,0.9,1.9,1.9,1.9S149.3,86.1,149.3,85"/>
	<path d="M135.1,286.2c0-1.1-0.9-1.9-1.9-1.9c-1.1,0-1.9,0.9-1.9,1.9c0,1.1,0.9,1.9,1.9,1.9C134.2,288.2,135.1,287.3,135.1,286.2"/>
	<path d="M135.1,295c0-1.1-0.9-1.9-1.9-1.9c-1.1,0-1.9,0.9-1.9,1.9c0,1.1,0.9,1.9,1.9,1.9C134.2,296.9,135.1,296.1,135.1,295"/>
	<path d="M184.6,249.4c0-1.1-0.9-1.9-1.9-1.9c-1.1,0-1.9,0.9-1.9,1.9c0,1.1,0.9,1.9,1.9,1.9C183.7,251.4,184.6,250.5,184.6,249.4"/>
	<path d="M186.6,199.9c0-1.1-0.9-1.9-1.9-1.9c-1.1,0-1.9,0.9-1.9,1.9c0,1.1,0.9,1.9,1.9,1.9C185.7,201.9,186.6,201,186.6,199.9"/>
	<path d="M181.6,205.6c0-1.1-0.9-1.9-1.9-1.9c-1.1,0-1.9,0.9-1.9,1.9c0,1.1,0.9,1.9,1.9,1.9C180.8,207.6,181.6,206.7,181.6,205.6"/>
	<path d="M126.6,61.6c0-1.1-0.9-1.9-1.9-1.9c-1.1,0-1.9,0.9-1.9,1.9c0,1.1,0.9,1.9,1.9,1.9C125.7,63.6,126.6,62.7,126.6,61.6"/>
	<path d="M129.2,68.7c0-1.1-0.9-1.9-1.9-1.9s-1.9,0.9-1.9,1.9c0,1.1,0.9,1.9,1.9,1.9S129.2,69.8,129.2,68.7"/>
	<path d="M223.5,229.3c0-1.1-0.9-1.9-1.9-1.9c-1.1,0-1.9,0.9-1.9,1.9c0,1.1,0.9,1.9,1.9,1.9C222.6,231.3,223.5,230.4,223.5,229.3"/>
	<path d="M153.9,232c0-1.1-0.9-1.9-1.9-1.9s-1.9,0.9-1.9,1.9c0,1.1,0.9,1.9,1.9,1.9S153.9,233.1,153.9,232"/>
	<path d="M214.7,242.7c0-1.1-0.9-1.9-1.9-1.9c-1.1,0-1.9,0.9-1.9,1.9c0,1.1,0.9,1.9,1.9,1.9C213.8,244.6,214.7,243.7,214.7,242.7"/>
	<path d="M218.9,236.4c0-1.1-0.9-1.9-1.9-1.9c-1.1,0-1.9,0.9-1.9,1.9c0,1.1,0.9,1.9,1.9,1.9C218.1,238.4,218.9,237.5,218.9,236.4"/>
	<path d="M210.4,257.9c0-1.1-0.9-1.9-1.9-1.9c-1.1,0-1.9,0.9-1.9,1.9c0,1.1,0.9,1.9,1.9,1.9C209.6,259.8,210.4,259,210.4,257.9"/>
	<path d="M202.7,257.3c0-1.1-0.9-1.9-1.9-1.9c-1.1,0-1.9,0.9-1.9,1.9c0,1.1,0.9,1.9,1.9,1.9C201.8,259.2,202.7,258.4,202.7,257.3"/>
	<path d="M221,256.7c0-1.1-0.9-1.9-1.9-1.9s-1.9,0.9-1.9,1.9c0,1.1,0.9,1.9,1.9,1.9S221,257.8,221,256.7"/>
	<path d="M191.3,254.5c0-1.1-0.9-1.9-1.9-1.9c-1.1,0-1.9,0.9-1.9,1.9c0,1.1,0.9,1.9,1.9,1.9C190.4,256.4,191.3,255.5,191.3,254.5"/>
	<path d="M168.9,224.6c0-1.1-0.9-1.9-1.9-1.9c-1.1,0-1.9,0.9-1.9,1.9c0,1.1,0.9,1.9,1.9,1.9C168,226.6,168.9,225.7,168.9,224.6"/>
	<path d="M191.9,246.2c0-1.1-0.9-1.9-1.9-1.9c-1.1,0-1.9,0.9-1.9,1.9c0,1.1,0.9,1.9,1.9,1.9C191,248.2,191.9,247.3,191.9,246.2"/>
	<path d="M162.6,219.6c0-1.1-0.9-1.9-1.9-1.9c-1.1,0-1.9,0.9-1.9,1.9c0,1.1,0.9,1.9,1.9,1.9C161.8,221.5,162.6,220.7,162.6,219.6"/>
	<path d="M154.9,222.1c0-1.1-0.9-1.9-1.9-1.9c-1.1,0-1.9,0.9-1.9,1.9c0,1.1,0.9,1.9,1.9,1.9C154.1,224,154.9,223.1,154.9,222.1"/>
	<path d="M254,175.5c0-1.1-0.9-1.9-1.9-1.9c-1.1,0-1.9,0.9-1.9,1.9c0,1.1,0.9,1.9,1.9,1.9C253.2,177.4,254,176.6,254,175.5"/>
	<path d="M268.8,189.6c0-1.1-0.9-1.9-1.9-1.9c-1.1,0-1.9,0.9-1.9,1.9c0,1.1,0.9,1.9,1.9,1.9C267.9,191.5,268.8,190.6,268.8,189.6"/>
	<path d="M174.3,271.2c0-1.1-0.9-1.9-1.9-1.9c-1.1,0-1.9,0.9-1.9,1.9c0,1.1,0.9,1.9,1.9,1.9C173.5,273.2,174.3,272.3,174.3,271.2"/>
	<path d="M300.3,281.5c0-1.1-0.9-1.9-1.9-1.9c-1.1,0-1.9,0.9-1.9,1.9c0,1.1,0.9,1.9,1.9,1.9C299.5,283.5,300.3,282.6,300.3,281.5"/>
	<path d="M255.8,251.6c0-1.1-0.9-1.9-1.9-1.9c-1.1,0-1.9,0.9-1.9,1.9c0,1.1,0.9,1.9,1.9,1.9C254.9,253.6,255.8,252.7,255.8,251.6"/>
	<path d="M195.1,234c0-1.1-0.9-1.9-1.9-1.9c-1.1,0-1.9,0.9-1.9,1.9c0,1.1,0.9,1.9,1.9,1.9C194.3,235.9,195.1,235,195.1,234"/>
	<path d="M215.6,204c0-1.1-0.9-1.9-1.9-1.9c-1.1,0-1.9,0.9-1.9,1.9s0.9,1.9,1.9,1.9C214.8,205.9,215.6,205,215.6,204"/>
	<path d="M155.8,255.2c0-1.1-0.9-1.9-1.9-1.9c-1.1,0-1.9,0.9-1.9,1.9c0,1.1,0.9,1.9,1.9,1.9C155,257.2,155.8,256.3,155.8,255.2"/>
	<path d="M177.4,263.6c0-1.1-0.9-1.9-1.9-1.9c-1.1,0-1.9,0.9-1.9,1.9c0,1.1,0.9,1.9,1.9,1.9C176.5,265.6,177.4,264.7,177.4,263.6"/>
	<path d="M154,263.5c0-1.1-0.9-1.9-1.9-1.9c-1.1,0-1.9,0.9-1.9,1.9c0,1.1,0.9,1.9,1.9,1.9C153.1,265.5,154,264.6,154,263.5"/>
	<path d="M191.8,223.3c0-1.1-0.9-1.9-1.9-1.9c-1.1,0-1.9,0.9-1.9,1.9c0,1.1,0.9,1.9,1.9,1.9C191,225.2,191.8,224.3,191.8,223.3"/>
	<path d="M268.9,173.2c0-1.1-0.9-1.9-1.9-1.9c-1.1,0-1.9,0.9-1.9,1.9c0,1.1,0.9,1.9,1.9,1.9C268.1,175.2,268.9,174.3,268.9,173.2"/>
	<path d="M174,248.2c0-1.1-0.9-1.9-1.9-1.9c-1.1,0-1.9,0.9-1.9,1.9c0,1.1,0.9,1.9,1.9,1.9C173.1,250.2,174,249.3,174,248.2"/>
	<path d="M198.9,249.3c0-1.1-0.9-1.9-1.9-1.9s-1.9,0.9-1.9,1.9c0,1.1,0.9,1.9,1.9,1.9S198.9,250.3,198.9,249.3"/>
	<path d="M200.3,201.5c0-1.1-0.9-1.9-1.9-1.9c-1.1,0-1.9,0.9-1.9,1.9c0,1.1,0.9,1.9,1.9,1.9C199.4,203.5,200.3,202.6,200.3,201.5"/>
	<path d="M205.4,273.8c0-1.1-0.9-1.9-1.9-1.9c-1.1,0-1.9,0.9-1.9,1.9c0,1.1,0.9,1.9,1.9,1.9C204.5,275.7,205.4,274.8,205.4,273.8"/>
	<path d="M182.3,269.6c0-1.1-0.9-1.9-1.9-1.9c-1.1,0-1.9,0.9-1.9,1.9c0,1.1,0.9,1.9,1.9,1.9C181.4,271.6,182.3,270.7,182.3,269.6"/>
	<path d="M296.6,219.7c0-1.1-0.9-1.9-1.9-1.9c-1.1,0-1.9,0.9-1.9,1.9c0,1.1,0.9,1.9,1.9,1.9C295.8,221.6,296.6,220.7,296.6,219.7"/>
	<path d="M180.7,235.2c0-1.1-0.9-1.9-1.9-1.9c-1.1,0-1.9,0.9-1.9,1.9c0,1.1,0.9,1.9,1.9,1.9C179.8,237.1,180.7,236.2,180.7,235.2"/>
	<path d="M139.8,234c0-1.1-0.9-1.9-1.9-1.9s-1.9,0.9-1.9,1.9c0,1.1,0.9,1.9,1.9,1.9S139.8,235.1,139.8,234"/>
	<path d="M249.9,257.6c0-1.1-0.9-1.9-1.9-1.9c-1.1,0-1.9,0.9-1.9,1.9c0,1.1,0.9,1.9,1.9,1.9C249,259.5,249.9,258.6,249.9,257.6"/>
	<path d="M148.1,94c0-1.1-0.9-1.9-1.9-1.9c-1.1,0-1.9,0.9-1.9,1.9c0,1.1,0.9,1.9,1.9,1.9C147.3,95.9,148.1,95.1,148.1,94"/>
	<path d="M145.9,239.1c0-1.1-0.9-1.9-1.9-1.9c-1.1,0-1.9,0.9-1.9,1.9c0,1.1,0.9,1.9,1.9,1.9C145.1,241,145.9,240.1,145.9,239.1"/>
	<path d="M207,249.3c0-1.1-0.9-1.9-1.9-1.9c-1.1,0-1.9,0.9-1.9,1.9c0,1.1,0.9,1.9,1.9,1.9C206.2,251.2,207,250.3,207,249.3"/>
	<path d="M278.8,183.5c0-1.1-0.9-1.9-1.9-1.9c-1.1,0-1.9,0.9-1.9,1.9c0,1.1,0.9,1.9,1.9,1.9C278,185.5,278.8,184.6,278.8,183.5"/>
	<path d="M167.8,233.4c0-1.1-0.9-1.9-1.9-1.9s-1.9,0.9-1.9,1.9c0,1.1,0.9,1.9,1.9,1.9S167.8,234.5,167.8,233.4"/>
	<path d="M166.1,242.4c0-1.1-0.9-1.9-1.9-1.9c-1.1,0-1.9,0.9-1.9,1.9c0,1.1,0.9,1.9,1.9,1.9C165.2,244.3,166.1,243.4,166.1,242.4"/>
	<path d="M230.5,232.8c0-1.1-0.9-1.9-1.9-1.9c-1.1,0-1.9,0.9-1.9,1.9c0,1.1,0.9,1.9,1.9,1.9C229.6,234.8,230.5,233.9,230.5,232.8"/>
	<path d="M221.4,246.6c0-1.1-0.9-1.9-1.9-1.9c-1.1,0-1.9,0.9-1.9,1.9c0,1.1,0.9,1.9,1.9,1.9C220.5,248.5,221.4,247.7,221.4,246.6"/>
	<path d="M274.2,122.1c0-1.1-0.9-1.9-1.9-1.9c-1.1,0-1.9,0.9-1.9,1.9c0,1.1,0.9,1.9,1.9,1.9C273.3,124,274.2,123.2,274.2,122.1"/>
	<path d="M273.5,130c0-1.1-0.9-1.9-1.9-1.9c-1.1,0-1.9,0.9-1.9,1.9c0,1.1,0.9,1.9,1.9,1.9C272.6,132,273.5,131.1,273.5,130"/>
	<path d="M261.7,175.7c0-1.1-0.9-1.9-1.9-1.9c-1.1,0-1.9,0.9-1.9,1.9c0,1.1,0.9,1.9,1.9,1.9C260.8,177.6,261.7,176.8,261.7,175.7"/>
	<path d="M182.1,226.2c0-1.1-0.9-1.9-1.9-1.9c-1.1,0-1.9,0.9-1.9,1.9c0,1.1,0.9,1.9,1.9,1.9C181.2,228.2,182.1,227.3,182.1,226.2"/>
	<path d="M244.7,274.2c0-1.1-0.9-1.9-1.9-1.9c-1.1,0-1.9,0.9-1.9,1.9c0,1.1,0.9,1.9,1.9,1.9C243.8,276.2,244.7,275.3,244.7,274.2"/>
	<path d="M261.6,192.1c0-1.1-0.9-1.9-1.9-1.9c-1.1,0-1.9,0.9-1.9,1.9c0,1.1,0.9,1.9,1.9,1.9C260.7,194,261.6,193.2,261.6,192.1"/>
	<path d="M189.9,266.8c0-1.1-0.9-1.9-1.9-1.9c-1.1,0-1.9,0.9-1.9,1.9c0,1.1,0.9,1.9,1.9,1.9C189.1,268.7,189.9,267.9,189.9,266.8"/>
	<path d="M160.3,236.9c0-1.1-0.9-1.9-1.9-1.9c-1.1,0-1.9,0.9-1.9,1.9c0,1.1,0.9,1.9,1.9,1.9C159.5,238.8,160.3,238,160.3,236.9"/>
	<path d="M192.5,205.2c0-1.1-0.9-1.9-1.9-1.9c-1.1,0-1.9,0.9-1.9,1.9c0,1.1,0.9,1.9,1.9,1.9C191.7,207.1,192.5,206.3,192.5,205.2"/>
	<path d="M212.2,266.9c0-1.1-0.9-1.9-1.9-1.9c-1.1,0-1.9,0.9-1.9,1.9c0,1.1,0.9,1.9,1.9,1.9C211.3,268.9,212.2,268,212.2,266.9"/>
	<path d="M203.7,265.1c0-1.1-0.9-1.9-1.9-1.9c-1.1,0-1.9,0.9-1.9,1.9c0,1.1,0.9,1.9,1.9,1.9C202.9,267,203.7,266.1,203.7,265.1"/>
	<path d="M123,256.2c0-1.1-0.9-1.9-1.9-1.9c-1.1,0-1.9,0.9-1.9,1.9c0,1.1,0.9,1.9,1.9,1.9C122.1,258.1,123,257.2,123,256.2"/>
	<path d="M131.5,257.2c0-1.1-0.9-1.9-1.9-1.9c-1.1,0-1.9,0.9-1.9,1.9c0,1.1,0.9,1.9,1.9,1.9C130.7,259.2,131.5,258.3,131.5,257.2"/>
	<path d="M272.9,325.1c0-1.1-0.9-1.9-1.9-1.9c-1.1,0-1.9,0.9-1.9,1.9c0,1.1,0.9,1.9,1.9,1.9C272,327,272.9,326.1,272.9,325.1"/>
	<path d="M275.9,333.4c0-1.1-0.9-1.9-1.9-1.9c-1.1,0-1.9,0.9-1.9,1.9c0,1.1,0.9,1.9,1.9,1.9C275,335.3,275.9,334.5,275.9,333.4"/>
	<path d="M225.6,37.9c0-1.1-0.9-1.9-1.9-1.9c-1.1,0-1.9,0.9-1.9,1.9c0,1.1,0.9,1.9,1.9,1.9C224.8,39.8,225.6,39,225.6,37.9"/>
	<path d="M255.8,16.6c0-1.1-0.9-1.9-1.9-1.9c-1.1,0-1.9,0.9-1.9,1.9c0,1.1,0.9,1.9,1.9,1.9C254.9,18.6,255.8,17.7,255.8,16.6"/>
	<path d="M54.1,158.8c0-1.1-0.9-1.9-1.9-1.9c-1.1,0-1.9,0.9-1.9,1.9c0,1.1,0.9,1.9,1.9,1.9C53.2,160.7,54.1,159.8,54.1,158.8"/>
	<path d="M46.3,162.1c0-1.1-0.9-1.9-1.9-1.9c-1.1,0-1.9,0.9-1.9,1.9c0,1.1,0.9,1.9,1.9,1.9C45.5,164,46.3,163.1,46.3,162.1"/>
	<path d="M201.6,188.1c0-1.1-0.9-1.9-1.9-1.9c-1.1,0-1.9,0.9-1.9,1.9c0,1.1,0.9,1.9,1.9,1.9C200.8,190,201.6,189.1,201.6,188.1"/>
	<path d="M192.9,187.9c0-1.1-0.9-1.9-1.9-1.9c-1.1,0-1.9,0.9-1.9,1.9s0.9,1.9,1.9,1.9C192,189.8,192.9,189,192.9,187.9"/>
	<path d="M195.8,216.8c0-1.1-0.9-1.9-1.9-1.9c-1.1,0-1.9,0.9-1.9,1.9c0,1.1,0.9,1.9,1.9,1.9C195,218.8,195.8,217.9,195.8,216.8"/>
	<path d="M147.9,259c0-1.1-0.9-1.9-1.9-1.9S144,258,144,259c0,1.1,0.9,1.9,1.9,1.9S147.9,260.1,147.9,259"/>
	<path d="M150.6,249.4c0-1.1-0.9-1.9-1.9-1.9c-1.1,0-1.9,0.9-1.9,1.9c0,1.1,0.9,1.9,1.9,1.9C149.8,251.3,150.6,250.4,150.6,249.4"/>
	<path d="M228.7,222.2c0-1.1-0.9-1.9-1.9-1.9c-1.1,0-1.9,0.9-1.9,1.9c0,1.1,0.9,1.9,1.9,1.9C227.8,224.2,228.7,223.3,228.7,222.2"/>
	<path d="M203.3,220c0-1.1-0.9-1.9-1.9-1.9c-1.1,0-1.9,0.9-1.9,1.9c0,1.1,0.9,1.9,1.9,1.9C202.4,222,203.3,221.1,203.3,220"/>
	<path d="M149.9,215.7c0-1.1-0.9-1.9-1.9-1.9c-1.1,0-1.9,0.9-1.9,1.9c0,1.1,0.9,1.9,1.9,1.9C149.1,217.7,149.9,216.8,149.9,215.7"/>
	<path d="M199.4,226.6c0-1.1-0.9-1.9-1.9-1.9s-1.9,0.9-1.9,1.9c0,1.1,0.9,1.9,1.9,1.9S199.4,227.7,199.4,226.6"/>
	<path d="M188.4,230.7c0-1.1-0.9-1.9-1.9-1.9c-1.1,0-1.9,0.9-1.9,1.9c0,1.1,0.9,1.9,1.9,1.9C187.5,232.6,188.4,231.7,188.4,230.7"/>
	<path d="M132.6,76.7c0-1.1-0.9-1.9-1.9-1.9c-1.1,0-1.9,0.9-1.9,1.9c0,1.1,0.9,1.9,1.9,1.9C131.8,78.7,132.6,77.8,132.6,76.7"/>
	<path d="M137.3,70.5c0-1.1-0.9-1.9-1.9-1.9s-1.9,0.9-1.9,1.9c0,1.1,0.9,1.9,1.9,1.9S137.3,71.5,137.3,70.5"/>
	<path d="M254.7,183.5c0-1.1-0.9-1.9-1.9-1.9c-1.1,0-1.9,0.9-1.9,1.9c0,1.1,0.9,1.9,1.9,1.9C253.8,185.4,254.7,184.5,254.7,183.5"/>
	<path d="M179.9,243.5c0-1.1-0.9-1.9-1.9-1.9c-1.1,0-1.9,0.9-1.9,1.9c0,1.1,0.9,1.9,1.9,1.9C179,245.4,179.9,244.5,179.9,243.5"/>
	<path d="M158.4,247.6c0-1.1-0.9-1.9-1.9-1.9s-1.9,0.9-1.9,1.9c0,1.1,0.9,1.9,1.9,1.9S158.4,248.7,158.4,247.6"/>
	<path d="M275.1,84.4c0-1.1-0.9-1.9-1.9-1.9c-1.1,0-1.9,0.9-1.9,1.9s0.9,1.9,1.9,1.9C274.3,86.3,275.1,85.5,275.1,84.4"/>
	<path d="M292.8,285.9c0-1.1-0.9-1.9-1.9-1.9s-1.9,0.9-1.9,1.9c0,1.1,0.9,1.9,1.9,1.9S292.8,286.9,292.8,285.9"/>
	<path d="M260.3,167.9c0-1.1-0.9-1.9-1.9-1.9c-1.1,0-1.9,0.9-1.9,1.9c0,1.1,0.9,1.9,1.9,1.9C259.5,169.9,260.3,169,260.3,167.9"/>
	<path d="M207.4,213.2c0-1.1-0.9-1.9-1.9-1.9c-1.1,0-1.9,0.9-1.9,1.9c0,1.1,0.9,1.9,1.9,1.9C206.6,215.1,207.4,214.2,207.4,213.2"/>
	<path d="M276.5,173.9c0-1.1-0.9-1.9-1.9-1.9c-1.1,0-1.9,0.9-1.9,1.9c0,1.1,0.9,1.9,1.9,1.9C275.6,175.8,276.5,175,276.5,173.9"/>
	<path d="M207.1,241.5c0-1.1-0.9-1.9-1.9-1.9c-1.1,0-1.9,0.9-1.9,1.9c0,1.1,0.9,1.9,1.9,1.9C206.3,243.5,207.1,242.6,207.1,241.5"/>
	<path d="M199.4,241.2c0-1.1-0.9-1.9-1.9-1.9c-1.1,0-1.9,0.9-1.9,1.9c0,1.1,0.9,1.9,1.9,1.9C198.5,243.2,199.4,242.3,199.4,241.2"/>
	<path d="M208.1,205.5c0-1.1-0.9-1.9-1.9-1.9c-1.1,0-1.9,0.9-1.9,1.9c0,1.1,0.9,1.9,1.9,1.9C207.3,207.5,208.1,206.6,208.1,205.5"/>
	<path d="M163.1,258.2c0-1.1-0.9-1.9-1.9-1.9c-1.1,0-1.9,0.9-1.9,1.9c0,1.1,0.9,1.9,1.9,1.9C162.2,260.1,163.1,259.2,163.1,258.2"/>
	<path d="M292.4,211c0-1.1-0.9-1.9-1.9-1.9c-1.1,0-1.9,0.9-1.9,1.9c0,1.1,0.9,1.9,1.9,1.9C291.6,212.9,292.4,212.1,292.4,211"/>
	<path d="M279.9,222.1c0-1.1-0.9-1.9-1.9-1.9c-1.1,0-1.9,0.9-1.9,1.9c0,1.1,0.9,1.9,1.9,1.9C279.1,224,279.9,223.1,279.9,222.1"/>
	<path d="M168.2,208c0-1.1-0.9-1.9-1.9-1.9c-1.1,0-1.9,0.9-1.9,1.9c0,1.1,0.9,1.9,1.9,1.9C167.3,209.9,168.2,209,168.2,208"/>
	<path d="M35.3,159.3c0-1.1-0.9-1.9-1.9-1.9c-1.1,0-1.9,0.9-1.9,1.9c0,1.1,0.9,1.9,1.9,1.9C34.4,161.2,35.3,160.4,35.3,159.3"/>
	<path d="M179.3,254.9c0-1.1-0.9-1.9-1.9-1.9c-1.1,0-1.9,0.9-1.9,1.9c0,1.1,0.9,1.9,1.9,1.9C178.4,256.8,179.3,255.9,179.3,254.9"/>
	<path d="M185.8,260.4c0-1.1-0.9-1.9-1.9-1.9c-1.1,0-1.9,0.9-1.9,1.9c0,1.1,0.9,1.9,1.9,1.9C185,262.3,185.8,261.4,185.8,260.4"/>
	<path d="M204,234.6c0-1.1-0.9-1.9-1.9-1.9c-1.1,0-1.9,0.9-1.9,1.9c0,1.1,0.9,1.9,1.9,1.9C203.1,236.5,204,235.6,204,234.6"/>
	<path d="M249.1,52.7c0-1.1-0.9-1.9-1.9-1.9c-1.1,0-1.9,0.9-1.9,1.9c0,1.1,0.9,1.9,1.9,1.9C248.3,54.6,249.1,53.8,249.1,52.7"/>
	<path d="M257.9,52.7c0-1.1-0.9-1.9-1.9-1.9c-1.1,0-1.9,0.9-1.9,1.9c0,1.1,0.9,1.9,1.9,1.9C257,54.6,257.9,53.8,257.9,52.7"/>
	<path d="M138.8,259.2c0-1.1-0.9-1.9-1.9-1.9c-1.1,0-1.9,0.9-1.9,1.9c0,1.1,0.9,1.9,1.9,1.9C138,261.2,138.8,260.3,138.8,259.2"/>
	<path d="M337.2,277c0-1.1-0.9-1.9-1.9-1.9c-1.1,0-1.9,0.9-1.9,1.9c0,1.1,0.9,1.9,1.9,1.9C336.4,278.9,337.2,278,337.2,277"/>
	<path d="M329.2,278.3c0-1.1-0.9-1.9-1.9-1.9c-1.1,0-1.9,0.9-1.9,1.9c0,1.1,0.9,1.9,1.9,1.9C328.3,280.3,329.2,279.4,329.2,278.3"/>
	<path d="M173.6,238.1c0-1.1-0.9-1.9-1.9-1.9c-1.1,0-1.9,0.9-1.9,1.9c0,1.1,0.9,1.9,1.9,1.9C172.8,240.1,173.6,239.2,173.6,238.1"/>
	<path d="M171.1,257.2c0-1.1-0.9-1.9-1.9-1.9c-1.1,0-1.9,0.9-1.9,1.9c0,1.1,0.9,1.9,1.9,1.9C170.2,259.1,171.1,258.2,171.1,257.2"/>
	<path d="M263.9,252.4c0-1.1-0.9-1.9-1.9-1.9c-1.1,0-1.9,0.9-1.9,1.9c0,1.1,0.9,1.9,1.9,1.9C263,254.3,263.9,253.4,263.9,252.4"/>
	<path d="M126.5,248.9c0-1.1-0.9-1.9-1.9-1.9c-1.1,0-1.9,0.9-1.9,1.9c0,1.1,0.9,1.9,1.9,1.9C125.7,250.9,126.5,250,126.5,248.9"/>
	<path d="M275.4,31.3c0-1.1-0.9-1.9-1.9-1.9c-1.1,0-1.9,0.9-1.9,1.9c0,1.1,0.9,1.9,1.9,1.9C274.5,33.2,275.4,32.3,275.4,31.3"/>
	<path d="M274.7,39.1c0-1.1-0.9-1.9-1.9-1.9c-1.1,0-1.9,0.9-1.9,1.9c0,1.1,0.9,1.9,1.9,1.9C273.8,41.1,274.7,40.2,274.7,39.1"/>
	<path d="M124.3,264.3c0-1.1-0.9-1.9-1.9-1.9c-1.1,0-1.9,0.9-1.9,1.9c0,1.1,0.9,1.9,1.9,1.9C123.5,266.2,124.3,265.3,124.3,264.3"/>
	<path d="M212.2,220c0-1.1-0.9-1.9-1.9-1.9c-1.1,0-1.9,0.9-1.9,1.9c0,1.1,0.9,1.9,1.9,1.9C211.4,221.9,212.2,221,212.2,220"/>
	<path d="M258.5,302.2c0-1.1-0.9-1.9-1.9-1.9c-1.1,0-1.9,0.9-1.9,1.9c0,1.1,0.9,1.9,1.9,1.9C257.6,304.2,258.5,303.3,258.5,302.2"/>
	<path d="M221.7,22.2c0-1.1-0.9-1.9-1.9-1.9s-1.9,0.9-1.9,1.9c0,1.1,0.9,1.9,1.9,1.9S221.7,23.3,221.7,22.2"/>
	<path d="M293.5,275.6c0-1.1-0.9-1.9-1.9-1.9c-1.1,0-1.9,0.9-1.9,1.9c0,1.1,0.9,1.9,1.9,1.9C292.6,277.6,293.5,276.7,293.5,275.6"/>
	<path d="M215.6,211.9c0-1.1-0.9-1.9-1.9-1.9c-1.1,0-1.9,0.9-1.9,1.9c0,1.1,0.9,1.9,1.9,1.9C214.8,213.9,215.6,213,215.6,211.9"/>
	<path d="M245.3,177c0-1.1-0.9-1.9-1.9-1.9c-1.1,0-1.9,0.9-1.9,1.9c0,1.1,0.9,1.9,1.9,1.9C244.5,178.9,245.3,178,245.3,177"/>
	<path d="M142.4,76.7c0-1.1-0.9-1.9-1.9-1.9c-1.1,0-1.9,0.9-1.9,1.9c0,1.1,0.9,1.9,1.9,1.9C141.6,78.7,142.4,77.8,142.4,76.7"/>
	<path d="M140.8,62.6c0-1.1-0.9-1.9-1.9-1.9c-1.1,0-1.9,0.9-1.9,1.9c0,1.1,0.9,1.9,1.9,1.9C139.9,64.5,140.8,63.7,140.8,62.6"/>
	<path d="M194.8,196.2c0-1.1-0.9-1.9-1.9-1.9c-1.1,0-1.9,0.9-1.9,1.9c0,1.1,0.9,1.9,1.9,1.9C194,198.1,194.8,197.2,194.8,196.2"/>
	<path d="M281.8,127.7c0-1.1-0.9-1.9-1.9-1.9c-1.1,0-1.9,0.9-1.9,1.9c0,1.1,0.9,1.9,1.9,1.9C280.9,129.6,281.8,128.8,281.8,127.7"/>
	<path d="M214.9,251.1c0-1.1-0.9-1.9-1.9-1.9c-1.1,0-1.9,0.9-1.9,1.9c0,1.1,0.9,1.9,1.9,1.9C214.1,253.1,214.9,252.2,214.9,251.1"/>
	<path d="M226.4,239.3c0-1.1-0.9-1.9-1.9-1.9c-1.1,0-1.9,0.9-1.9,1.9c0,1.1,0.9,1.9,1.9,1.9C225.5,241.2,226.4,240.4,226.4,239.3"/>
	<path d="M255.1,160.9c0-1.1-0.9-1.9-1.9-1.9c-1.1,0-1.9,0.9-1.9,1.9c0,1.1,0.9,1.9,1.9,1.9C254.3,162.9,255.1,162,255.1,160.9"/>
	<path d="M250.8,167.9c0-1.1-0.9-1.9-1.9-1.9s-1.9,0.9-1.9,1.9s0.9,1.9,1.9,1.9S250.8,169,250.8,167.9"/>
	<path d="M125.3,240.4c0-1.1-0.9-1.9-1.9-1.9c-1.1,0-1.9,0.9-1.9,1.9c0,1.1,0.9,1.9,1.9,1.9C124.4,242.3,125.3,241.5,125.3,240.4"/>
	<path d="M251.4,192c0-1.1-0.9-1.9-1.9-1.9c-1.1,0-1.9,0.9-1.9,1.9c0,1.1,0.9,1.9,1.9,1.9C250.5,193.9,251.4,193.1,251.4,192"/>
	<path d="M270.5,181.4c0-1.1-0.9-1.9-1.9-1.9c-1.1,0-1.9,0.9-1.9,1.9c0,1.1,0.9,1.9,1.9,1.9C269.6,183.3,270.5,182.5,270.5,181.4"/>
	<path d="M176.5,220.8c0-1.1-0.9-1.9-1.9-1.9c-1.1,0-1.9,0.9-1.9,1.9c0,1.1,0.9,1.9,1.9,1.9C175.6,222.8,176.5,221.9,176.5,220.8"/>
	<path d="M169,264.9c0-1.1-0.9-1.9-1.9-1.9c-1.1,0-1.9,0.9-1.9,1.9c0,1.1,0.9,1.9,1.9,1.9C168.1,266.8,169,266,169,264.9"/>
	<path d="M153.3,241.3c0-1.1-0.9-1.9-1.9-1.9s-1.9,0.9-1.9,1.9c0,1.1,0.9,1.9,1.9,1.9S153.3,242.4,153.3,241.3"/>
	<path d="M267.7,332c0-1.1-0.9-1.9-1.9-1.9c-1.1,0-1.9,0.9-1.9,1.9c0,1.1,0.9,1.9,1.9,1.9C266.8,333.9,267.7,333.1,267.7,332"/>
	<path d="M215.4,227.9c0-1.1-0.9-1.9-1.9-1.9c-1.1,0-1.9,0.9-1.9,1.9c0,1.1,0.9,1.9,1.9,1.9C214.5,229.8,215.4,229,215.4,227.9"/>
	<path d="M286.1,215.8c0-1.1-0.9-1.9-1.9-1.9c-1.1,0-1.9,0.9-1.9,1.9c0,1.1,0.9,1.9,1.9,1.9C285.2,217.7,286.1,216.9,286.1,215.8"/>
	<path d="M178.6,156.4c0-1.1-0.9-1.9-1.9-1.9c-1.1,0-1.9,0.9-1.9,1.9c0,1.1,0.9,1.9,1.9,1.9C177.7,158.4,178.6,157.5,178.6,156.4"/>
	<path d="M234.3,242.4c0-1.1-0.9-1.9-1.9-1.9c-1.1,0-1.9,0.9-1.9,1.9c0,1.1,0.9,1.9,1.9,1.9C233.4,244.4,234.3,243.5,234.3,242.4"/>
	<path d="M227.3,251.3c0-1.1-0.9-1.9-1.9-1.9c-1.1,0-1.9,0.9-1.9,1.9c0,1.1,0.9,1.9,1.9,1.9C226.5,253.3,227.3,252.4,227.3,251.3"/>
	<path d="M258.2,243.7c0-1.1-0.9-1.9-1.9-1.9c-1.1,0-1.9,0.9-1.9,1.9c0,1.1,0.9,1.9,1.9,1.9C257.4,245.7,258.2,244.8,258.2,243.7"/>
	<path d="M333.9,268.7c0-1.1-0.9-1.9-1.9-1.9c-1.1,0-1.9,0.9-1.9,1.9c0,1.1,0.9,1.9,1.9,1.9C333,270.7,333.9,269.8,333.9,268.7"/>
	<path d="M143.6,252.8c0-1.1-0.9-1.9-1.9-1.9c-1.1,0-1.9,0.9-1.9,1.9c0,1.1,0.9,1.9,1.9,1.9C142.7,254.7,143.6,253.8,143.6,252.8"/>
	<path d="M289.4,224c0-1.1-0.9-1.9-1.9-1.9c-1.1,0-1.9,0.9-1.9,1.9c0,1.1,0.9,1.9,1.9,1.9C288.6,226,289.4,225.1,289.4,224"/>
	<path d="M24.8,146.9c0-1.1-0.9-1.9-1.9-1.9c-1.1,0-1.9,0.9-1.9,1.9c0,1.1,0.9,1.9,1.9,1.9C23.9,148.8,24.8,148,24.8,146.9"/>
	<path d="M134.6,250.3c0-1.1-0.9-1.9-1.9-1.9s-1.9,0.9-1.9,1.9c0,1.1,0.9,1.9,1.9,1.9S134.6,251.3,134.6,250.3"/>
	<path d="M166.2,250.2c0-1.1-0.9-1.9-1.9-1.9c-1.1,0-1.9,0.9-1.9,1.9c0,1.1,0.9,1.9,1.9,1.9C165.4,252.1,166.2,251.3,166.2,250.2"/>
	<path d="M179.3,212.9c0-1.1-0.9-1.9-1.9-1.9s-1.9,0.9-1.9,1.9c0,1.1,0.9,1.9,1.9,1.9S179.3,214,179.3,212.9"/>
	<path d="M261.3,23.4c0-1.1-0.9-1.9-1.9-1.9c-1.1,0-1.9,0.9-1.9,1.9c0,1.1,0.9,1.9,1.9,1.9C260.4,25.4,261.3,24.5,261.3,23.4"/>
	<path d="M249.5,267.3c0-1.1-0.9-1.9-1.9-1.9c-1.1,0-1.9,0.9-1.9,1.9c0,1.1,0.9,1.9,1.9,1.9C248.7,269.2,249.5,268.3,249.5,267.3"/>
	<path d="M237.7,34.8c0-1.1-0.9-1.9-1.9-1.9c-1.1,0-1.9,0.9-1.9,1.9c0,1.1,0.9,1.9,1.9,1.9C236.9,36.7,237.7,35.9,237.7,34.8"/>
	<path d="M229.6,31.4c0-1.1-0.9-1.9-1.9-1.9c-1.1,0-1.9,0.9-1.9,1.9c0,1.1,0.9,1.9,1.9,1.9C228.7,33.3,229.6,32.4,229.6,31.4"/>
	<path d="M246.3,185.4c0-1.1-0.9-1.9-1.9-1.9c-1.1,0-1.9,0.9-1.9,1.9c0,1.1,0.9,1.9,1.9,1.9C245.4,187.3,246.3,186.5,246.3,185.4"/>
	<path d="M223.1,210.1c0-1.1-0.9-1.9-1.9-1.9c-1.1,0-1.9,0.9-1.9,1.9c0,1.1,0.9,1.9,1.9,1.9C222.3,212.1,223.1,211.2,223.1,210.1"/>
	<path d="M55.5,166.4c0-1.1-0.9-1.9-1.9-1.9c-1.1,0-1.9,0.9-1.9,1.9c0,1.1,0.9,1.9,1.9,1.9C54.6,168.3,55.5,167.4,55.5,166.4"/>
	<path d="M263.1,184.4c0-1.1-0.9-1.9-1.9-1.9c-1.1,0-1.9,0.9-1.9,1.9c0,1.1,0.9,1.9,1.9,1.9C262.2,186.3,263.1,185.5,263.1,184.4"/>
	<path d="M268.3,165.5c0-1.1-0.9-1.9-1.9-1.9c-1.1,0-1.9,0.9-1.9,1.9c0,1.1,0.9,1.9,1.9,1.9C267.5,167.5,268.3,166.6,268.3,165.5"/>
	<path d="M188.7,211.8c0-1.1-0.9-1.9-1.9-1.9c-1.1,0-1.9,0.9-1.9,1.9c0,1.1,0.9,1.9,1.9,1.9C187.9,213.7,188.7,212.9,188.7,211.8"/>
	<path d="M258.6,259c0-1.1-0.9-1.9-1.9-1.9c-1.1,0-1.9,0.9-1.9,1.9c0,1.1,0.9,1.9,1.9,1.9C257.8,260.9,258.6,260.1,258.6,259"/>
	<path d="M148.2,64.1c0-1.1-0.9-1.9-1.9-1.9c-1.1,0-1.9,0.9-1.9,1.9c0,1.1,0.9,1.9,1.9,1.9C147.3,66,148.2,65.2,148.2,64.1"/>
	<path d="M185.1,218.6c0-1.1-0.9-1.9-1.9-1.9c-1.1,0-1.9,0.9-1.9,1.9c0,1.1,0.9,1.9,1.9,1.9C184.2,220.5,185.1,219.7,185.1,218.6"/>
	<path d="M195.7,261.1c0-1.1-0.9-1.9-1.9-1.9c-1.1,0-1.9,0.9-1.9,1.9c0,1.1,0.9,1.9,1.9,1.9C194.8,263.1,195.7,262.2,195.7,261.1"/>
	<path d="M134.2,58.2c0-1.1-0.9-1.9-1.9-1.9c-1.1,0-1.9,0.9-1.9,1.9c0,1.1,0.9,1.9,1.9,1.9C133.3,60.2,134.2,59.3,134.2,58.2"/>
	<path d="M173.4,166.6c0-1.1-0.9-1.9-1.9-1.9c-1.1,0-1.9,0.9-1.9,1.9c0,1.1,0.9,1.9,1.9,1.9C172.6,168.6,173.4,167.7,173.4,166.6"/>
	<path d="M24.6,155.1c0-1.1-0.9-1.9-1.9-1.9c-1.1,0-1.9,0.9-1.9,1.9s0.9,1.9,1.9,1.9C23.7,157,24.6,156.1,24.6,155.1"/>
	<path d="M268.9,90.6c0-1.1-0.9-1.9-1.9-1.9c-1.1,0-1.9,0.9-1.9,1.9s0.9,1.9,1.9,1.9C268.1,92.5,268.9,91.7,268.9,90.6"/>
	<path d="M170.1,215.3c0-1.1-0.9-1.9-1.9-1.9c-1.1,0-1.9,0.9-1.9,1.9c0,1.1,0.9,1.9,1.9,1.9C169.3,217.2,170.1,216.3,170.1,215.3"/>
	<path d="M161.2,227.9c0-1.1-0.9-1.9-1.9-1.9s-1.9,0.9-1.9,1.9c0,1.1,0.9,1.9,1.9,1.9S161.2,229,161.2,227.9"/>
	<path d="M220.8,219.5c0-1.1-0.9-1.9-1.9-1.9c-1.1,0-1.9,0.9-1.9,1.9c0,1.1,0.9,1.9,1.9,1.9C219.9,221.4,220.8,220.5,220.8,219.5"/>
	<path d="M248,19.3c0-1.1-0.9-1.9-1.9-1.9c-1.1,0-1.9,0.9-1.9,1.9c0,1.1,0.9,1.9,1.9,1.9C247.2,21.2,248,20.4,248,19.3"/>
	<path d="M140.2,245.1c0-1.1-0.9-1.9-1.9-1.9c-1.1,0-1.9,0.9-1.9,1.9c0,1.1,0.9,1.9,1.9,1.9C139.3,247,140.2,246.1,140.2,245.1"/>
	<path d="M133.1,238.9c0-1.1-0.9-1.9-1.9-1.9c-1.1,0-1.9,0.9-1.9,1.9c0,1.1,0.9,1.9,1.9,1.9C132.2,240.8,133.1,239.9,133.1,238.9"/>
	<path d="M200.1,210.6c0-1.1-0.9-1.9-1.9-1.9c-1.1,0-1.9,0.9-1.9,1.9c0,1.1,0.9,1.9,1.9,1.9C199.3,212.5,200.1,211.7,200.1,210.6"/>
	<path d="M141.3,89.1c0-1.1-0.9-1.9-1.9-1.9c-1.1,0-1.9,0.9-1.9,1.9s0.9,1.9,1.9,1.9C140.4,91,141.3,90.1,141.3,89.1"/>
	<path d="M197.9,270.4c0-1.1-0.9-1.9-1.9-1.9c-1.1,0-1.9,0.9-1.9,1.9c0,1.1,0.9,1.9,1.9,1.9C197,272.4,197.9,271.5,197.9,270.4"/>
	<path d="M267.8,17.7c0-1.1-0.9-1.9-1.9-1.9c-1.1,0-1.9,0.9-1.9,1.9c0,1.1,0.9,1.9,1.9,1.9C266.9,19.6,267.8,18.8,267.8,17.7"/>
	<path d="M258.5,311c0-1.1-0.9-1.9-1.9-1.9c-1.1,0-1.9,0.9-1.9,1.9c0,1.1,0.9,1.9,1.9,1.9C257.6,312.9,258.5,312.1,258.5,311"/>
</g>
</svg>
