<?xml version="1.0" encoding="utf-8"?>
<!-- Generator: Adobe Illustrator 21.1.0, SVG Export Plug-In . SVG Version: 6.00 Build 0)  -->
<svg version="1.1" id="Layer_1" xmlns="http://www.w3.org/2000/svg" xmlns:xlink="http://www.w3.org/1999/xlink" x="0px" y="0px"
	 viewBox="0 0 350 350" style="enable-background:new 0 0 350 350;" xml:space="preserve">
<style type="text/css">
	.st0{fill:none;stroke:#231F20;stroke-width:0.75;stroke-miterlimit:10;}
</style>
<g>
	<line class="st0" x1="250.7" y1="98.7" x2="230.3" y2="197.3"/>
	<line class="st0" x1="250.7" y1="98.7" x2="113.7" y2="239.4"/>
	<line class="st0" x1="237" y1="150.1" x2="250.7" y2="98.7"/>
	<line class="st0" x1="237" y1="150.1" x2="278.4" y2="175.7"/>
	<line class="st0" x1="237" y1="150.1" x2="194.9" y2="220.1"/>
	<line class="st0" x1="237" y1="150.1" x2="169" y2="131.1"/>
	<line class="st0" x1="237" y1="150.1" x2="240.4" y2="179.1"/>
	<line class="st0" x1="237" y1="150.1" x2="183.8" y2="144.5"/>
	<line class="st0" x1="237" y1="150.1" x2="16.5" y2="183.7"/>
	<line class="st0" x1="237" y1="150.1" x2="230.3" y2="197.3"/>
	<line class="st0" x1="237" y1="150.1" x2="58.4" y2="121.3"/>
	<line class="st0" x1="237" y1="150.1" x2="116.6" y2="179"/>
	<line class="st0" x1="237" y1="150.1" x2="163.8" y2="207.6"/>
	<line class="st0" x1="237" y1="150.1" x2="113.7" y2="239.4"/>
	<line class="st0" x1="237" y1="150.1" x2="152.2" y2="21.7"/>
	<line class="st0" x1="278.4" y1="175.7" x2="250.7" y2="98.7"/>
	<line class="st0" x1="278.4" y1="175.7" x2="183.8" y2="144.5"/>
	<line class="st0" x1="278.4" y1="175.7" x2="230.3" y2="197.3"/>
	<line class="st0" x1="278.4" y1="175.7" x2="116.6" y2="179"/>
	<line class="st0" x1="278.4" y1="175.7" x2="163.8" y2="207.6"/>
	<line class="st0" x1="278.4" y1="175.7" x2="113.7" y2="239.4"/>
	<line class="st0" x1="205.5" y1="64.7" x2="250.7" y2="98.7"/>
	<line class="st0" x1="205.5" y1="64.7" x2="237" y2="150.1"/>
	<line class="st0" x1="205.5" y1="64.7" x2="278.4" y2="175.7"/>
	<line class="st0" x1="205.5" y1="64.7" x2="275.7" y2="247.4"/>
	<line class="st0" x1="205.5" y1="64.7" x2="194.9" y2="220.1"/>
	<line class="st0" x1="205.5" y1="64.7" x2="169" y2="131.1"/>
	<line class="st0" x1="205.5" y1="64.7" x2="134.6" y2="97.5"/>
	<line class="st0" x1="205.5" y1="64.7" x2="240.4" y2="179.1"/>
	<line class="st0" x1="205.5" y1="64.7" x2="333.5" y2="207.1"/>
	<line class="st0" x1="205.5" y1="64.7" x2="183.8" y2="144.5"/>
	<line class="st0" x1="205.5" y1="64.7" x2="16.5" y2="183.7"/>
	<line class="st0" x1="205.5" y1="64.7" x2="178" y2="192.9"/>
	<line class="st0" x1="205.5" y1="64.7" x2="230.3" y2="197.3"/>
	<line class="st0" x1="205.5" y1="64.7" x2="58.4" y2="121.3"/>
	<line class="st0" x1="205.5" y1="64.7" x2="177.5" y2="168"/>
	<line class="st0" x1="205.5" y1="64.7" x2="88" y2="37.2"/>
	<line class="st0" x1="205.5" y1="64.7" x2="116.6" y2="179"/>
	<line class="st0" x1="205.5" y1="64.7" x2="163.8" y2="207.6"/>
	<line class="st0" x1="205.5" y1="64.7" x2="113.7" y2="239.4"/>
	<line class="st0" x1="205.5" y1="64.7" x2="152.2" y2="21.7"/>
	<line class="st0" x1="189.6" y1="226.9" x2="250.7" y2="98.7"/>
	<line class="st0" x1="189.6" y1="226.9" x2="237" y2="150.1"/>
	<line class="st0" x1="189.6" y1="226.9" x2="278.4" y2="175.7"/>
	<line class="st0" x1="189.6" y1="226.9" x2="205.5" y2="64.7"/>
	<line class="st0" x1="189.6" y1="226.9" x2="275.7" y2="247.4"/>
	<line class="st0" x1="189.6" y1="226.9" x2="194.9" y2="220.1"/>
	<line class="st0" x1="189.6" y1="226.9" x2="169" y2="131.1"/>
	<line class="st0" x1="189.6" y1="226.9" x2="134.6" y2="97.5"/>
	<line class="st0" x1="189.6" y1="226.9" x2="240.4" y2="179.1"/>
	<line class="st0" x1="189.6" y1="226.9" x2="333.5" y2="207.1"/>
	<line class="st0" x1="189.6" y1="226.9" x2="146.9" y2="236.3"/>
	<line class="st0" x1="189.6" y1="226.9" x2="183.8" y2="144.5"/>
	<line class="st0" x1="189.6" y1="226.9" x2="16.5" y2="183.7"/>
	<line class="st0" x1="189.6" y1="226.9" x2="178" y2="192.9"/>
	<line class="st0" x1="189.6" y1="226.9" x2="230.3" y2="197.3"/>
	<line class="st0" x1="189.6" y1="226.9" x2="58.4" y2="121.3"/>
	<line class="st0" x1="189.6" y1="226.9" x2="177.5" y2="168"/>
	<line class="st0" x1="189.6" y1="226.9" x2="88" y2="37.2"/>
	<line class="st0" x1="189.6" y1="226.9" x2="116.6" y2="179"/>
	<line class="st0" x1="189.6" y1="226.9" x2="163.8" y2="207.6"/>
	<line class="st0" x1="189.6" y1="226.9" x2="113.7" y2="239.4"/>
	<line class="st0" x1="189.6" y1="226.9" x2="152.2" y2="21.7"/>
	<line class="st0" x1="48.8" y1="247" x2="250.7" y2="98.7"/>
	<line class="st0" x1="48.8" y1="247" x2="237" y2="150.1"/>
	<line class="st0" x1="48.8" y1="247" x2="278.4" y2="175.7"/>
	<line class="st0" x1="48.8" y1="247" x2="205.5" y2="64.7"/>
	<line class="st0" x1="48.8" y1="247" x2="189.6" y2="226.9"/>
	<line class="st0" x1="48.8" y1="247" x2="275.7" y2="247.4"/>
	<line class="st0" x1="48.8" y1="247" x2="194.9" y2="220.1"/>
	<line class="st0" x1="48.8" y1="247" x2="169" y2="131.1"/>
	<line class="st0" x1="48.8" y1="247" x2="134.6" y2="97.5"/>
	<line class="st0" x1="48.8" y1="247" x2="240.4" y2="179.1"/>
	<line class="st0" x1="48.8" y1="247" x2="333.5" y2="207.1"/>
	<line class="st0" x1="48.8" y1="247" x2="183.8" y2="144.5"/>
	<line class="st0" x1="48.8" y1="247" x2="16.5" y2="183.7"/>
	<line class="st0" x1="48.8" y1="247" x2="178" y2="192.9"/>
	<line class="st0" x1="48.8" y1="247" x2="230.3" y2="197.3"/>
	<line class="st0" x1="48.8" y1="247" x2="251.4" y2="306.3"/>
	<line class="st0" x1="48.8" y1="247" x2="58.4" y2="121.3"/>
	<line class="st0" x1="48.8" y1="247" x2="177.5" y2="168"/>
	<line class="st0" x1="48.8" y1="247" x2="202.9" y2="175.5"/>
	<line class="st0" x1="48.8" y1="247" x2="88" y2="37.2"/>
	<line class="st0" x1="48.8" y1="247" x2="116.6" y2="179"/>
	<line class="st0" x1="48.8" y1="247" x2="163.8" y2="207.6"/>
	<line class="st0" x1="48.8" y1="247" x2="113.7" y2="239.4"/>
	<line class="st0" x1="48.8" y1="247" x2="152.2" y2="21.7"/>
	<line class="st0" x1="275.7" y1="247.4" x2="250.7" y2="98.7"/>
	<line class="st0" x1="275.7" y1="247.4" x2="237" y2="150.1"/>
	<line class="st0" x1="275.7" y1="247.4" x2="278.4" y2="175.7"/>
	<line class="st0" x1="275.7" y1="247.4" x2="194.9" y2="220.1"/>
	<line class="st0" x1="275.7" y1="247.4" x2="169" y2="131.1"/>
	<line class="st0" x1="275.7" y1="247.4" x2="134.6" y2="97.5"/>
	<line class="st0" x1="275.7" y1="247.4" x2="240.4" y2="179.1"/>
	<line class="st0" x1="275.7" y1="247.4" x2="333.5" y2="207.1"/>
	<line class="st0" x1="275.7" y1="247.4" x2="183.8" y2="144.5"/>
	<line class="st0" x1="275.7" y1="247.4" x2="16.5" y2="183.7"/>
	<line class="st0" x1="275.7" y1="247.4" x2="178" y2="192.9"/>
	<line class="st0" x1="275.7" y1="247.4" x2="230.3" y2="197.3"/>
	<line class="st0" x1="275.7" y1="247.4" x2="58.4" y2="121.3"/>
	<line class="st0" x1="275.7" y1="247.4" x2="116.6" y2="179"/>
	<line class="st0" x1="275.7" y1="247.4" x2="163.8" y2="207.6"/>
	<line class="st0" x1="275.7" y1="247.4" x2="113.7" y2="239.4"/>
	<line class="st0" x1="275.7" y1="247.4" x2="152.2" y2="21.7"/>
	<line class="st0" x1="194.9" y1="220.1" x2="250.7" y2="98.7"/>
	<line class="st0" x1="194.9" y1="220.1" x2="278.4" y2="175.7"/>
	<line class="st0" x1="194.9" y1="220.1" x2="146.9" y2="236.3"/>
	<line class="st0" x1="194.9" y1="220.1" x2="183.8" y2="144.5"/>
	<line class="st0" x1="194.9" y1="220.1" x2="230.3" y2="197.3"/>
	<line class="st0" x1="194.9" y1="220.1" x2="58.4" y2="121.3"/>
	<line class="st0" x1="194.9" y1="220.1" x2="116.6" y2="179"/>
	<line class="st0" x1="194.9" y1="220.1" x2="163.8" y2="207.6"/>
	<line class="st0" x1="194.9" y1="220.1" x2="113.7" y2="239.4"/>
	<line class="st0" x1="194.9" y1="220.1" x2="152.2" y2="21.7"/>
	<line class="st0" x1="169" y1="131.1" x2="250.7" y2="98.7"/>
	<line class="st0" x1="169" y1="131.1" x2="278.4" y2="175.7"/>
	<line class="st0" x1="169" y1="131.1" x2="194.9" y2="220.1"/>
	<line class="st0" x1="169" y1="131.1" x2="240.4" y2="179.1"/>
	<line class="st0" x1="169" y1="131.1" x2="183.8" y2="144.5"/>
	<line class="st0" x1="169" y1="131.1" x2="16.5" y2="183.7"/>
	<line class="st0" x1="169" y1="131.1" x2="230.3" y2="197.3"/>
	<line class="st0" x1="169" y1="131.1" x2="58.4" y2="121.3"/>
	<line class="st0" x1="169" y1="131.1" x2="116.6" y2="179"/>
	<line class="st0" x1="169" y1="131.1" x2="163.8" y2="207.6"/>
	<line class="st0" x1="169" y1="131.1" x2="113.7" y2="239.4"/>
	<line class="st0" x1="169" y1="131.1" x2="152.2" y2="21.7"/>
	<line class="st0" x1="134.6" y1="97.5" x2="250.7" y2="98.7"/>
	<line class="st0" x1="134.6" y1="97.5" x2="237" y2="150.1"/>
	<line class="st0" x1="134.6" y1="97.5" x2="278.4" y2="175.7"/>
	<line class="st0" x1="134.6" y1="97.5" x2="194.9" y2="220.1"/>
	<line class="st0" x1="134.6" y1="97.5" x2="169" y2="131.1"/>
	<line class="st0" x1="134.6" y1="97.5" x2="240.4" y2="179.1"/>
	<line class="st0" x1="134.6" y1="97.5" x2="146.9" y2="236.3"/>
	<line class="st0" x1="134.6" y1="97.5" x2="183.8" y2="144.5"/>
	<line class="st0" x1="134.6" y1="97.5" x2="16.5" y2="183.7"/>
	<line class="st0" x1="134.6" y1="97.5" x2="230.3" y2="197.3"/>
	<line class="st0" x1="134.6" y1="97.5" x2="58.4" y2="121.3"/>
	<line class="st0" x1="134.6" y1="97.5" x2="116.6" y2="179"/>
	<line class="st0" x1="134.6" y1="97.5" x2="163.8" y2="207.6"/>
	<line class="st0" x1="134.6" y1="97.5" x2="113.7" y2="239.4"/>
	<line class="st0" x1="134.6" y1="97.5" x2="152.2" y2="21.7"/>
	<line class="st0" x1="240.4" y1="179.1" x2="250.7" y2="98.7"/>
	<line class="st0" x1="240.4" y1="179.1" x2="278.4" y2="175.7"/>
	<line class="st0" x1="240.4" y1="179.1" x2="194.9" y2="220.1"/>
	<line class="st0" x1="240.4" y1="179.1" x2="183.8" y2="144.5"/>
	<line class="st0" x1="240.4" y1="179.1" x2="230.3" y2="197.3"/>
	<line class="st0" x1="240.4" y1="179.1" x2="58.4" y2="121.3"/>
	<line class="st0" x1="240.4" y1="179.1" x2="116.6" y2="179"/>
	<line class="st0" x1="240.4" y1="179.1" x2="163.8" y2="207.6"/>
	<line class="st0" x1="240.4" y1="179.1" x2="113.7" y2="239.4"/>
	<line class="st0" x1="240.4" y1="179.1" x2="152.2" y2="21.7"/>
	<line class="st0" x1="333.5" y1="207.1" x2="250.7" y2="98.7"/>
	<line class="st0" x1="333.5" y1="207.1" x2="237" y2="150.1"/>
	<line class="st0" x1="333.5" y1="207.1" x2="278.4" y2="175.7"/>
	<line class="st0" x1="333.5" y1="207.1" x2="194.9" y2="220.1"/>
	<line class="st0" x1="333.5" y1="207.1" x2="169" y2="131.1"/>
	<line class="st0" x1="333.5" y1="207.1" x2="134.6" y2="97.5"/>
	<line class="st0" x1="333.5" y1="207.1" x2="240.4" y2="179.1"/>
	<line class="st0" x1="333.5" y1="207.1" x2="183.8" y2="144.5"/>
	<line class="st0" x1="333.5" y1="207.1" x2="16.5" y2="183.7"/>
	<line class="st0" x1="333.5" y1="207.1" x2="178" y2="192.9"/>
	<line class="st0" x1="333.5" y1="207.1" x2="230.3" y2="197.3"/>
	<line class="st0" x1="333.5" y1="207.1" x2="58.4" y2="121.3"/>
	<line class="st0" x1="333.5" y1="207.1" x2="116.6" y2="179"/>
	<line class="st0" x1="333.5" y1="207.1" x2="163.8" y2="207.6"/>
	<line class="st0" x1="333.5" y1="207.1" x2="113.7" y2="239.4"/>
	<line class="st0" x1="333.5" y1="207.1" x2="152.2" y2="21.7"/>
	<line class="st0" x1="118.9" y1="328.3" x2="324.7" y2="120.3"/>
	<line class="st0" x1="183.8" y1="144.5" x2="250.7" y2="98.7"/>
	<line class="st0" x1="183.8" y1="144.5" x2="230.3" y2="197.3"/>
	<line class="st0" x1="183.8" y1="144.5" x2="116.6" y2="179"/>
	<line class="st0" x1="183.8" y1="144.5" x2="113.7" y2="239.4"/>
	<line class="st0" x1="16.5" y1="183.7" x2="250.7" y2="98.7"/>
	<line class="st0" x1="16.5" y1="183.7" x2="278.4" y2="175.7"/>
	<line class="st0" x1="16.5" y1="183.7" x2="194.9" y2="220.1"/>
	<line class="st0" x1="16.5" y1="183.7" x2="240.4" y2="179.1"/>
	<line class="st0" x1="16.5" y1="183.7" x2="183.8" y2="144.5"/>
	<line class="st0" x1="16.5" y1="183.7" x2="230.3" y2="197.3"/>
	<line class="st0" x1="16.5" y1="183.7" x2="58.4" y2="121.3"/>
	<line class="st0" x1="16.5" y1="183.7" x2="116.6" y2="179"/>
	<line class="st0" x1="16.5" y1="183.7" x2="163.8" y2="207.6"/>
	<line class="st0" x1="16.5" y1="183.7" x2="113.7" y2="239.4"/>
	<line class="st0" x1="16.5" y1="183.7" x2="152.2" y2="21.7"/>
	<line class="st0" x1="178" y1="192.9" x2="250.7" y2="98.7"/>
	<line class="st0" x1="178" y1="192.9" x2="237" y2="150.1"/>
	<line class="st0" x1="178" y1="192.9" x2="278.4" y2="175.7"/>
	<line class="st0" x1="178" y1="192.9" x2="194.9" y2="220.1"/>
	<line class="st0" x1="178" y1="192.9" x2="169" y2="131.1"/>
	<line class="st0" x1="178" y1="192.9" x2="134.6" y2="97.5"/>
	<line class="st0" x1="178" y1="192.9" x2="240.4" y2="179.1"/>
	<line class="st0" x1="178" y1="192.9" x2="183.8" y2="144.5"/>
	<line class="st0" x1="178" y1="192.9" x2="16.5" y2="183.7"/>
	<line class="st0" x1="178" y1="192.9" x2="230.3" y2="197.3"/>
	<line class="st0" x1="178" y1="192.9" x2="58.4" y2="121.3"/>
	<line class="st0" x1="178" y1="192.9" x2="116.6" y2="179"/>
	<line class="st0" x1="178" y1="192.9" x2="163.8" y2="207.6"/>
	<line class="st0" x1="178" y1="192.9" x2="113.7" y2="239.4"/>
	<line class="st0" x1="178" y1="192.9" x2="152.2" y2="21.7"/>
	<line class="st0" x1="251.4" y1="306.3" x2="250.7" y2="98.7"/>
	<line class="st0" x1="251.4" y1="306.3" x2="237" y2="150.1"/>
	<line class="st0" x1="251.4" y1="306.3" x2="278.4" y2="175.7"/>
	<line class="st0" x1="251.4" y1="306.3" x2="205.5" y2="64.7"/>
	<line class="st0" x1="251.4" y1="306.3" x2="189.6" y2="226.9"/>
	<line class="st0" x1="251.4" y1="306.3" x2="275.7" y2="247.4"/>
	<line class="st0" x1="251.4" y1="306.3" x2="194.9" y2="220.1"/>
	<line class="st0" x1="251.4" y1="306.3" x2="169" y2="131.1"/>
	<line class="st0" x1="251.4" y1="306.3" x2="134.6" y2="97.5"/>
	<line class="st0" x1="251.4" y1="306.3" x2="240.4" y2="179.1"/>
	<line class="st0" x1="251.4" y1="306.3" x2="333.5" y2="207.1"/>
	<line class="st0" x1="251.4" y1="306.3" x2="146.9" y2="236.3"/>
	<line class="st0" x1="251.4" y1="306.3" x2="183.8" y2="144.5"/>
	<line class="st0" x1="251.4" y1="306.3" x2="16.5" y2="183.7"/>
	<line class="st0" x1="251.4" y1="306.3" x2="178" y2="192.9"/>
	<line class="st0" x1="251.4" y1="306.3" x2="230.3" y2="197.3"/>
	<line class="st0" x1="251.4" y1="306.3" x2="58.4" y2="121.3"/>
	<line class="st0" x1="251.4" y1="306.3" x2="177.5" y2="168"/>
	<line class="st0" x1="251.4" y1="306.3" x2="88" y2="37.2"/>
	<line class="st0" x1="251.4" y1="306.3" x2="116.6" y2="179"/>
	<line class="st0" x1="251.4" y1="306.3" x2="163.8" y2="207.6"/>
	<line class="st0" x1="251.4" y1="306.3" x2="113.7" y2="239.4"/>
	<line class="st0" x1="251.4" y1="306.3" x2="152.2" y2="21.7"/>
	<line class="st0" x1="58.4" y1="121.3" x2="250.7" y2="98.7"/>
	<line class="st0" x1="58.4" y1="121.3" x2="278.4" y2="175.7"/>
	<line class="st0" x1="58.4" y1="121.3" x2="183.8" y2="144.5"/>
	<line class="st0" x1="58.4" y1="121.3" x2="230.3" y2="197.3"/>
	<line class="st0" x1="58.4" y1="121.3" x2="116.6" y2="179"/>
	<line class="st0" x1="58.4" y1="121.3" x2="211.8" y2="29.2"/>
	<line class="st0" x1="58.4" y1="121.3" x2="163.8" y2="207.6"/>
	<line class="st0" x1="58.4" y1="121.3" x2="113.7" y2="239.4"/>
	<line class="st0" x1="58.4" y1="121.3" x2="152.2" y2="21.7"/>
	<line class="st0" x1="177.5" y1="168" x2="250.7" y2="98.7"/>
	<line class="st0" x1="177.5" y1="168" x2="237" y2="150.1"/>
	<line class="st0" x1="177.5" y1="168" x2="278.4" y2="175.7"/>
	<line class="st0" x1="177.5" y1="168" x2="275.7" y2="247.4"/>
	<line class="st0" x1="177.5" y1="168" x2="194.9" y2="220.1"/>
	<line class="st0" x1="177.5" y1="168" x2="169" y2="131.1"/>
	<line class="st0" x1="177.5" y1="168" x2="134.6" y2="97.5"/>
	<line class="st0" x1="177.5" y1="168" x2="240.4" y2="179.1"/>
	<line class="st0" x1="177.5" y1="168" x2="333.5" y2="207.1"/>
	<line class="st0" x1="177.5" y1="168" x2="183.8" y2="144.5"/>
	<line class="st0" x1="177.5" y1="168" x2="16.5" y2="183.7"/>
	<line class="st0" x1="177.5" y1="168" x2="178" y2="192.9"/>
	<line class="st0" x1="177.5" y1="168" x2="230.3" y2="197.3"/>
	<line class="st0" x1="177.5" y1="168" x2="58.4" y2="121.3"/>
	<line class="st0" x1="177.5" y1="168" x2="88" y2="37.2"/>
	<line class="st0" x1="177.5" y1="168" x2="116.6" y2="179"/>
	<line class="st0" x1="177.5" y1="168" x2="163.8" y2="207.6"/>
	<line class="st0" x1="177.5" y1="168" x2="113.7" y2="239.4"/>
	<line class="st0" x1="177.5" y1="168" x2="152.2" y2="21.7"/>
	<line class="st0" x1="202.9" y1="175.5" x2="250.7" y2="98.7"/>
	<line class="st0" x1="202.9" y1="175.5" x2="237" y2="150.1"/>
	<line class="st0" x1="202.9" y1="175.5" x2="278.4" y2="175.7"/>
	<line class="st0" x1="202.9" y1="175.5" x2="205.5" y2="64.7"/>
	<line class="st0" x1="202.9" y1="175.5" x2="189.6" y2="226.9"/>
	<line class="st0" x1="202.9" y1="175.5" x2="275.7" y2="247.4"/>
	<line class="st0" x1="202.9" y1="175.5" x2="194.9" y2="220.1"/>
	<line class="st0" x1="202.9" y1="175.5" x2="169" y2="131.1"/>
	<line class="st0" x1="202.9" y1="175.5" x2="134.6" y2="97.5"/>
	<line class="st0" x1="202.9" y1="175.5" x2="240.4" y2="179.1"/>
	<line class="st0" x1="202.9" y1="175.5" x2="333.5" y2="207.1"/>
	<line class="st0" x1="202.9" y1="175.5" x2="146.9" y2="236.3"/>
	<line class="st0" x1="202.9" y1="175.5" x2="183.8" y2="144.5"/>
	<line class="st0" x1="202.9" y1="175.5" x2="16.5" y2="183.7"/>
	<line class="st0" x1="202.9" y1="175.5" x2="178" y2="192.9"/>
	<line class="st0" x1="202.9" y1="175.5" x2="230.3" y2="197.3"/>
	<line class="st0" x1="202.9" y1="175.5" x2="251.4" y2="306.3"/>
	<line class="st0" x1="202.9" y1="175.5" x2="58.4" y2="121.3"/>
	<line class="st0" x1="202.9" y1="175.5" x2="177.5" y2="168"/>
	<line class="st0" x1="202.9" y1="175.5" x2="88" y2="37.2"/>
	<line class="st0" x1="202.9" y1="175.5" x2="116.6" y2="179"/>
	<line class="st0" x1="202.9" y1="175.5" x2="163.8" y2="207.6"/>
	<line class="st0" x1="202.9" y1="175.5" x2="113.7" y2="239.4"/>
	<line class="st0" x1="202.9" y1="175.5" x2="152.2" y2="21.7"/>
	<line class="st0" x1="199.3" y1="176.2" x2="250.7" y2="98.7"/>
	<line class="st0" x1="199.3" y1="176.2" x2="237" y2="150.1"/>
	<line class="st0" x1="199.3" y1="176.2" x2="278.4" y2="175.7"/>
	<line class="st0" x1="199.3" y1="176.2" x2="205.5" y2="64.7"/>
	<line class="st0" x1="199.3" y1="176.2" x2="189.6" y2="226.9"/>
	<line class="st0" x1="199.3" y1="176.2" x2="48.8" y2="247"/>
	<line class="st0" x1="199.3" y1="176.2" x2="275.7" y2="247.4"/>
	<line class="st0" x1="199.3" y1="176.2" x2="194.9" y2="220.1"/>
	<line class="st0" x1="199.3" y1="176.2" x2="169" y2="131.1"/>
	<line class="st0" x1="199.3" y1="176.2" x2="134.6" y2="97.5"/>
	<line class="st0" x1="199.3" y1="176.2" x2="240.4" y2="179.1"/>
	<line class="st0" x1="199.3" y1="176.2" x2="333.5" y2="207.1"/>
	<line class="st0" x1="199.3" y1="176.2" x2="146.9" y2="236.3"/>
	<line class="st0" x1="199.3" y1="176.2" x2="118.9" y2="328.3"/>
	<line class="st0" x1="199.3" y1="176.2" x2="183.8" y2="144.5"/>
	<line class="st0" x1="199.3" y1="176.2" x2="16.5" y2="183.7"/>
	<line class="st0" x1="199.3" y1="176.2" x2="178" y2="192.9"/>
	<line class="st0" x1="199.3" y1="176.2" x2="230.3" y2="197.3"/>
	<line class="st0" x1="199.3" y1="176.2" x2="251.4" y2="306.3"/>
	<line class="st0" x1="199.3" y1="176.2" x2="58.4" y2="121.3"/>
	<line class="st0" x1="199.3" y1="176.2" x2="177.5" y2="168"/>
	<line class="st0" x1="199.3" y1="176.2" x2="202.9" y2="175.5"/>
	<line class="st0" x1="199.3" y1="176.2" x2="88" y2="37.2"/>
	<line class="st0" x1="199.3" y1="176.2" x2="116.6" y2="179"/>
	<line class="st0" x1="199.3" y1="176.2" x2="211.8" y2="29.2"/>
	<line class="st0" x1="199.3" y1="176.2" x2="163.8" y2="207.6"/>
	<line class="st0" x1="199.3" y1="176.2" x2="113.7" y2="239.4"/>
	<line class="st0" x1="199.3" y1="176.2" x2="152.2" y2="21.7"/>
	<line class="st0" x1="199.3" y1="176.2" x2="324.7" y2="120.3"/>
	<line class="st0" x1="88" y1="37.2" x2="250.7" y2="98.7"/>
	<line class="st0" x1="88" y1="37.2" x2="237" y2="150.1"/>
	<line class="st0" x1="88" y1="37.2" x2="278.4" y2="175.7"/>
	<line class="st0" x1="88" y1="37.2" x2="275.7" y2="247.4"/>
	<line class="st0" x1="88" y1="37.2" x2="194.9" y2="220.1"/>
	<line class="st0" x1="88" y1="37.2" x2="169" y2="131.1"/>
	<line class="st0" x1="88" y1="37.2" x2="134.6" y2="97.5"/>
	<line class="st0" x1="88" y1="37.2" x2="240.4" y2="179.1"/>
	<line class="st0" x1="88" y1="37.2" x2="333.5" y2="207.1"/>
	<line class="st0" x1="88" y1="37.2" x2="146.9" y2="236.3"/>
	<line class="st0" x1="88" y1="37.2" x2="183.8" y2="144.5"/>
	<line class="st0" x1="88" y1="37.2" x2="16.5" y2="183.7"/>
	<line class="st0" x1="88" y1="37.2" x2="178" y2="192.9"/>
	<line class="st0" x1="88" y1="37.2" x2="230.3" y2="197.3"/>
	<line class="st0" x1="88" y1="37.2" x2="58.4" y2="121.3"/>
	<line class="st0" x1="88" y1="37.2" x2="116.6" y2="179"/>
	<line class="st0" x1="88" y1="37.2" x2="163.8" y2="207.6"/>
	<line class="st0" x1="88" y1="37.2" x2="113.7" y2="239.4"/>
	<line class="st0" x1="88" y1="37.2" x2="152.2" y2="21.7"/>
	<line class="st0" x1="116.6" y1="179" x2="250.7" y2="98.7"/>
	<line class="st0" x1="116.6" y1="179" x2="230.3" y2="197.3"/>
	<line class="st0" x1="116.6" y1="179" x2="113.7" y2="239.4"/>
	<line class="st0" x1="163.8" y1="207.6" x2="250.7" y2="98.7"/>
	<line class="st0" x1="163.8" y1="207.6" x2="183.8" y2="144.5"/>
	<line class="st0" x1="163.8" y1="207.6" x2="230.3" y2="197.3"/>
	<line class="st0" x1="163.8" y1="207.6" x2="116.6" y2="179"/>
	<line class="st0" x1="163.8" y1="207.6" x2="113.7" y2="239.4"/>
	<line class="st0" x1="113.7" y1="239.4" x2="230.3" y2="197.3"/>
	<line class="st0" x1="152.2" y1="21.7" x2="250.7" y2="98.7"/>
	<line class="st0" x1="152.2" y1="21.7" x2="278.4" y2="175.7"/>
	<line class="st0" x1="152.2" y1="21.7" x2="183.8" y2="144.5"/>
	<line class="st0" x1="152.2" y1="21.7" x2="230.3" y2="197.3"/>
	<line class="st0" x1="152.2" y1="21.7" x2="116.6" y2="179"/>
	<line class="st0" x1="152.2" y1="21.7" x2="163.8" y2="207.6"/>
	<line class="st0" x1="152.2" y1="21.7" x2="113.7" y2="239.4"/>
	<path d="M252.6,98.7c0-1.1-0.9-1.9-1.9-1.9c-1.1,0-1.9,0.9-1.9,1.9s0.9,1.9,1.9,1.9C251.8,100.7,252.6,99.8,252.6,98.7"/>
	<path d="M239,150.1c0-1.1-0.9-1.9-1.9-1.9c-1.1,0-1.9,0.9-1.9,1.9c0,1.1,0.9,1.9,1.9,1.9C238.1,152.1,239,151.2,239,150.1"/>
	<path d="M280.4,175.7c0-1.1-0.9-1.9-1.9-1.9s-1.9,0.9-1.9,1.9c0,1.1,0.9,1.9,1.9,1.9S280.4,176.8,280.4,175.7"/>
	<path d="M207.4,64.7c0-1.1-0.9-1.9-1.9-1.9c-1.1,0-1.9,0.9-1.9,1.9c0,1.1,0.9,1.9,1.9,1.9C206.6,66.6,207.4,65.8,207.4,64.7"/>
	<path d="M191.6,226.9c0-1.1-0.9-1.9-1.9-1.9c-1.1,0-1.9,0.9-1.9,1.9c0,1.1,0.9,1.9,1.9,1.9C190.7,228.8,191.6,228,191.6,226.9"/>
	<path d="M50.8,247c0-1.1-0.9-1.9-1.9-1.9s-1.9,0.9-1.9,1.9c0,1.1,0.9,1.9,1.9,1.9S50.8,248.1,50.8,247"/>
	<path d="M277.6,247.4c0-1.1-0.9-1.9-1.9-1.9c-1.1,0-1.9,0.9-1.9,1.9c0,1.1,0.9,1.9,1.9,1.9C276.8,249.3,277.6,248.5,277.6,247.4"/>
	<path d="M196.9,220.1c0-1.1-0.9-1.9-1.9-1.9c-1.1,0-1.9,0.9-1.9,1.9c0,1.1,0.9,1.9,1.9,1.9C196,222,196.9,221.1,196.9,220.1"/>
	<path d="M171,131.1c0-1.1-0.9-1.9-1.9-1.9c-1.1,0-1.9,0.9-1.9,1.9s0.9,1.9,1.9,1.9C170.1,133,171,132.1,171,131.1"/>
	<path d="M136.5,97.5c0-1.1-0.9-1.9-1.9-1.9c-1.1,0-1.9,0.9-1.9,1.9c0,1.1,0.9,1.9,1.9,1.9C135.7,99.4,136.5,98.5,136.5,97.5"/>
	<path d="M242.4,179.1c0-1.1-0.9-1.9-1.9-1.9c-1.1,0-1.9,0.9-1.9,1.9c0,1.1,0.9,1.9,1.9,1.9C241.5,181,242.4,180.2,242.4,179.1"/>
	<path d="M335.5,207.1c0-1.1-0.9-1.9-1.9-1.9c-1.1,0-1.9,0.9-1.9,1.9c0,1.1,0.9,1.9,1.9,1.9C334.6,209,335.5,208.2,335.5,207.1"/>
	<path d="M148.9,236.3c0-1.1-0.9-1.9-1.9-1.9c-1.1,0-1.9,0.9-1.9,1.9c0,1.1,0.9,1.9,1.9,1.9C148,238.2,148.9,237.4,148.9,236.3"/>
	<path d="M120.8,328.3c0-1.1-0.9-1.9-1.9-1.9c-1.1,0-1.9,0.9-1.9,1.9c0,1.1,0.9,1.9,1.9,1.9C120,330.2,120.8,329.4,120.8,328.3"/>
	<path d="M185.8,144.5c0-1.1-0.9-1.9-1.9-1.9c-1.1,0-1.9,0.9-1.9,1.9c0,1.1,0.9,1.9,1.9,1.9C184.9,146.4,185.8,145.5,185.8,144.5"/>
	<path d="M18.4,183.7c0-1.1-0.9-1.9-1.9-1.9c-1.1,0-1.9,0.9-1.9,1.9c0,1.1,0.9,1.9,1.9,1.9C17.6,185.6,18.4,184.8,18.4,183.7"/>
	<path d="M180,192.9c0-1.1-0.9-1.9-1.9-1.9s-1.9,0.9-1.9,1.9c0,1.1,0.9,1.9,1.9,1.9S180,194,180,192.9"/>
	<path d="M232.3,197.3c0-1.1-0.9-1.9-1.9-1.9s-1.9,0.9-1.9,1.9c0,1.1,0.9,1.9,1.9,1.9S232.3,198.4,232.3,197.3"/>
	<path d="M253.4,306.3c0-1.1-0.9-1.9-1.9-1.9s-1.9,0.9-1.9,1.9c0,1.1,0.9,1.9,1.9,1.9S253.4,307.3,253.4,306.3"/>
	<path d="M60.3,121.3c0-1.1-0.9-1.9-1.9-1.9c-1.1,0-1.9,0.9-1.9,1.9c0,1.1,0.9,1.9,1.9,1.9C59.4,123.2,60.3,122.4,60.3,121.3"/>
	<path d="M179.4,168c0-1.1-0.9-1.9-1.9-1.9c-1.1,0-1.9,0.9-1.9,1.9c0,1.1,0.9,1.9,1.9,1.9C178.6,170,179.4,169.1,179.4,168"/>
	<path d="M204.8,175.5c0-1.1-0.9-1.9-1.9-1.9c-1.1,0-1.9,0.9-1.9,1.9s0.9,1.9,1.9,1.9C203.9,177.4,204.8,176.5,204.8,175.5"/>
	<path d="M201.2,176.2c0-1.1-0.9-1.9-1.9-1.9c-1.1,0-1.9,0.9-1.9,1.9c0,1.1,0.9,1.9,1.9,1.9C200.4,178.1,201.2,177.2,201.2,176.2"/>
	<path d="M90,37.2c0-1.1-0.9-1.9-1.9-1.9c-1.1,0-1.9,0.9-1.9,1.9c0,1.1,0.9,1.9,1.9,1.9C89.1,39.1,90,38.3,90,37.2"/>
	<path d="M118.5,179c0-1.1-0.9-1.9-1.9-1.9c-1.1,0-1.9,0.9-1.9,1.9c0,1.1,0.9,1.9,1.9,1.9C117.7,180.9,118.5,180,118.5,179"/>
	<path d="M213.7,29.2c0-1.1-0.9-1.9-1.9-1.9c-1.1,0-1.9,0.9-1.9,1.9s0.9,1.9,1.9,1.9C212.8,31.2,213.7,30.3,213.7,29.2"/>
	<path d="M165.7,207.6c0-1.1-0.9-1.9-1.9-1.9c-1.1,0-1.9,0.9-1.9,1.9c0,1.1,0.9,1.9,1.9,1.9C164.9,209.5,165.7,208.7,165.7,207.6"/>
	<path d="M115.6,239.4c0-1.1-0.9-1.9-1.9-1.9c-1.1,0-1.9,0.9-1.9,1.9s0.9,1.9,1.9,1.9C114.7,241.4,115.6,240.5,115.6,239.4"/>
	<path d="M154.2,21.7c0-1.1-0.9-1.9-1.9-1.9s-1.9,0.9-1.9,1.9c0,1.1,0.9,1.9,1.9,1.9S154.2,22.8,154.2,21.7"/>
	<path d="M326.7,120.3c0-1.1-0.9-1.9-1.9-1.9c-1.1,0-1.9,0.9-1.9,1.9s0.9,1.9,1.9,1.9C325.8,122.3,326.7,121.4,326.7,120.3"/>
</g>
</svg>
