<?xml version="1.0" encoding="utf-8"?>
<!-- Generator: Adobe Illustrator 21.1.0, SVG Export Plug-In . SVG Version: 6.00 Build 0)  -->
<svg version="1.1" id="Layer_1" xmlns="http://www.w3.org/2000/svg" xmlns:xlink="http://www.w3.org/1999/xlink" x="0px" y="0px"
	 viewBox="0 0 350 350" style="enable-background:new 0 0 350 350;" xml:space="preserve">
<style type="text/css">
	.st0{fill:none;stroke:#231F20;stroke-width:0.75;stroke-miterlimit:10;}
</style>
<g>
	<line class="st0" x1="184.1" y1="187.1" x2="167.5" y2="193.8"/>
	<line class="st0" x1="184.1" y1="187.1" x2="178.6" y2="179.7"/>
	<line class="st0" x1="184.1" y1="187.1" x2="166.1" y2="178"/>
	<line class="st0" x1="184.1" y1="187.1" x2="175.9" y2="163.9"/>
	<line class="st0" x1="184.1" y1="187.1" x2="171.6" y2="184.7"/>
	<line class="st0" x1="184.1" y1="187.1" x2="219.6" y2="147.4"/>
	<line class="st0" x1="50.5" y1="274.3" x2="41.4" y2="305.7"/>
	<line class="st0" x1="50.5" y1="274.3" x2="51.3" y2="306.8"/>
	<line class="st0" x1="225" y1="155.7" x2="230.8" y2="149.3"/>
	<line class="st0" x1="225" y1="155.7" x2="227.5" y2="140.3"/>
	<line class="st0" x1="225" y1="155.7" x2="218.7" y2="138.1"/>
	<line class="st0" x1="50.9" y1="283.1" x2="50.5" y2="274.3"/>
	<line class="st0" x1="340.9" y1="247.3" x2="224.3" y2="287.8"/>
	<line class="st0" x1="340.9" y1="247.3" x2="340" y2="256.8"/>
	<line class="st0" x1="340.9" y1="247.3" x2="331.1" y2="245.3"/>
	<line class="st0" x1="340.9" y1="247.3" x2="330.3" y2="263.8"/>
	<line class="st0" x1="340.9" y1="247.3" x2="319.4" y2="254.8"/>
	<line class="st0" x1="231.4" y1="295.2" x2="213.7" y2="297.7"/>
	<line class="st0" x1="231.4" y1="295.2" x2="219.8" y2="305.3"/>
	<line class="st0" x1="65.6" y1="63" x2="57.7" y2="37.1"/>
	<line class="st0" x1="183.3" y1="170.6" x2="191.8" y2="170.9"/>
	<line class="st0" x1="227.5" y1="140.3" x2="230.8" y2="149.3"/>
	<line class="st0" x1="227.5" y1="140.3" x2="218.7" y2="138.1"/>
	<line class="st0" x1="59.5" y1="270.1" x2="50.5" y2="274.3"/>
	<line class="st0" x1="59.5" y1="270.1" x2="50.9" y2="283.1"/>
	<line class="st0" x1="67.8" y1="42.6" x2="65.6" y2="63"/>
	<line class="st0" x1="67.8" y1="42.6" x2="57.7" y2="37.1"/>
	<line class="st0" x1="331.2" y1="255.1" x2="340.9" y2="247.3"/>
	<line class="st0" x1="331.2" y1="255.1" x2="340" y2="256.8"/>
	<line class="st0" x1="331.2" y1="255.1" x2="331.1" y2="245.3"/>
	<line class="st0" x1="331.2" y1="255.1" x2="330.3" y2="263.8"/>
	<line class="st0" x1="219.8" y1="305.3" x2="213.7" y2="297.7"/>
	<line class="st0" x1="224.3" y1="287.8" x2="231.4" y2="295.2"/>
	<line class="st0" x1="224.3" y1="287.8" x2="214.1" y2="288.8"/>
	<line class="st0" x1="224.3" y1="287.8" x2="222.6" y2="296.4"/>
	<line class="st0" x1="224.3" y1="287.8" x2="240.7" y2="292.1"/>
	<line class="st0" x1="224.3" y1="287.8" x2="233.5" y2="285.1"/>
	<line class="st0" x1="31.5" y1="210.6" x2="16.2" y2="226"/>
	<line class="st0" x1="31.5" y1="210.6" x2="9.1" y2="220.2"/>
	<line class="st0" x1="31.5" y1="210.6" x2="24.5" y2="231.8"/>
	<line class="st0" x1="31.5" y1="210.6" x2="15.9" y2="235.5"/>
	<line class="st0" x1="61" y1="55.3" x2="65.6" y2="63"/>
	<line class="st0" x1="61" y1="55.3" x2="67.8" y2="42.6"/>
	<line class="st0" x1="61" y1="55.3" x2="57.7" y2="37.1"/>
	<line class="st0" x1="40" y1="221" x2="16.2" y2="226"/>
	<line class="st0" x1="40" y1="221" x2="22.7" y2="208.5"/>
	<line class="st0" x1="40" y1="221" x2="40.5" y2="230.3"/>
	<line class="st0" x1="40" y1="221" x2="32.3" y2="228"/>
	<line class="st0" x1="218.7" y1="138.1" x2="230.8" y2="149.3"/>
	<line class="st0" x1="22.7" y1="219.9" x2="15.3" y2="213.2"/>
	<line class="st0" x1="181.9" y1="200.7" x2="184.1" y2="187.1"/>
	<line class="st0" x1="181.9" y1="200.7" x2="33.4" y2="237"/>
	<line class="st0" x1="181.9" y1="200.7" x2="190.6" y2="193.6"/>
	<line class="st0" x1="181.9" y1="200.7" x2="187.4" y2="178.8"/>
	<line class="st0" x1="181.9" y1="200.7" x2="177" y2="192.1"/>
	<line class="st0" x1="181.9" y1="200.7" x2="40.5" y2="230.3"/>
	<line class="st0" x1="62.2" y1="109.9" x2="53.9" y2="103.9"/>
	<line class="st0" x1="62.2" y1="109.9" x2="59.7" y2="45.6"/>
	<line class="st0" x1="58.3" y1="95.1" x2="53.9" y2="103.9"/>
	<line class="st0" x1="58.3" y1="95.1" x2="62.2" y2="109.9"/>
	<line class="st0" x1="58.3" y1="95.1" x2="59.7" y2="45.6"/>
	<line class="st0" x1="340" y1="256.8" x2="331.1" y2="245.3"/>
	<line class="st0" x1="340" y1="256.8" x2="330.3" y2="263.8"/>
	<line class="st0" x1="226.8" y1="278.5" x2="217.6" y2="279.9"/>
	<line class="st0" x1="226.8" y1="278.5" x2="233.5" y2="285.1"/>
	<line class="st0" x1="190.6" y1="193.6" x2="184.1" y2="187.1"/>
	<line class="st0" x1="190.6" y1="193.6" x2="194.6" y2="183.8"/>
	<line class="st0" x1="190.6" y1="193.6" x2="187.4" y2="178.8"/>
	<line class="st0" x1="190.6" y1="193.6" x2="177" y2="192.1"/>
	<line class="st0" x1="187.4" y1="178.8" x2="184.1" y2="187.1"/>
	<line class="st0" x1="57.5" y1="117.3" x2="73.1" y2="104.3"/>
	<line class="st0" x1="51.3" y1="306.8" x2="41.4" y2="305.7"/>
	<line class="st0" x1="51.3" y1="306.8" x2="53.2" y2="316.1"/>
	<line class="st0" x1="178.6" y1="179.7" x2="183.3" y2="170.6"/>
	<line class="st0" x1="178.6" y1="179.7" x2="191.8" y2="170.9"/>
	<line class="st0" x1="178.6" y1="179.7" x2="166.1" y2="178"/>
	<line class="st0" x1="178.6" y1="179.7" x2="219.6" y2="147.4"/>
	<line class="st0" x1="222.6" y1="296.4" x2="213.7" y2="297.7"/>
	<line class="st0" x1="222.6" y1="296.4" x2="231.4" y2="295.2"/>
	<line class="st0" x1="222.6" y1="296.4" x2="219.8" y2="305.3"/>
	<line class="st0" x1="222.6" y1="296.4" x2="233.5" y2="285.1"/>
	<line class="st0" x1="16.2" y1="226" x2="9.1" y2="220.2"/>
	<line class="st0" x1="16.2" y1="226" x2="24.5" y2="231.8"/>
	<line class="st0" x1="16.2" y1="226" x2="15.9" y2="235.5"/>
	<line class="st0" x1="16.2" y1="226" x2="32.3" y2="228"/>
	<line class="st0" x1="166.1" y1="178" x2="173.6" y2="172.1"/>
	<line class="st0" x1="166.1" y1="178" x2="214.1" y2="288.8"/>
	<line class="st0" x1="166.1" y1="178" x2="224.3" y2="287.8"/>
	<line class="st0" x1="166.1" y1="178" x2="219.6" y2="147.4"/>
	<line class="st0" x1="9.1" y1="220.2" x2="24.5" y2="231.8"/>
	<line class="st0" x1="9.1" y1="220.2" x2="15.9" y2="235.5"/>
	<line class="st0" x1="64.9" y1="101.9" x2="73.1" y2="104.3"/>
	<line class="st0" x1="64.9" y1="101.9" x2="68.4" y2="94.2"/>
	<line class="st0" x1="64.9" y1="101.9" x2="53.9" y2="103.9"/>
	<line class="st0" x1="64.9" y1="101.9" x2="62.2" y2="109.9"/>
	<line class="st0" x1="64.9" y1="101.9" x2="58.3" y2="95.1"/>
	<line class="st0" x1="64.9" y1="101.9" x2="57.5" y2="117.3"/>
	<line class="st0" x1="64.9" y1="101.9" x2="59.7" y2="45.6"/>
	<line class="st0" x1="22.7" y1="208.5" x2="50.5" y2="274.3"/>
	<line class="st0" x1="22.7" y1="208.5" x2="15.3" y2="213.2"/>
	<line class="st0" x1="22.7" y1="208.5" x2="50.9" y2="283.1"/>
	<line class="st0" x1="22.7" y1="208.5" x2="59.5" y2="270.1"/>
	<line class="st0" x1="22.7" y1="208.5" x2="22.7" y2="219.9"/>
	<line class="st0" x1="22.7" y1="208.5" x2="16.2" y2="226"/>
	<line class="st0" x1="22.7" y1="208.5" x2="40.5" y2="230.3"/>
	<line class="st0" x1="22.7" y1="208.5" x2="32.3" y2="228"/>
	<line class="st0" x1="177" y1="192.1" x2="184.1" y2="187.1"/>
	<line class="st0" x1="177" y1="192.1" x2="167.5" y2="193.8"/>
	<line class="st0" x1="177" y1="192.1" x2="187.4" y2="178.8"/>
	<line class="st0" x1="177" y1="192.1" x2="178.6" y2="179.7"/>
	<line class="st0" x1="177" y1="192.1" x2="166.1" y2="178"/>
	<line class="st0" x1="177" y1="192.1" x2="175.9" y2="163.9"/>
	<line class="st0" x1="177" y1="192.1" x2="171.6" y2="184.7"/>
	<line class="st0" x1="177" y1="192.1" x2="219.6" y2="147.4"/>
	<line class="st0" x1="175.9" y1="163.9" x2="167.5" y2="193.8"/>
	<line class="st0" x1="175.9" y1="163.9" x2="171.6" y2="184.7"/>
	<line class="st0" x1="330.3" y1="263.8" x2="331.1" y2="245.3"/>
	<line class="st0" x1="40.5" y1="230.3" x2="33.4" y2="237"/>
	<line class="st0" x1="40.5" y1="230.3" x2="68.4" y2="94.2"/>
	<line class="st0" x1="40.5" y1="230.3" x2="16.2" y2="226"/>
	<line class="st0" x1="40.5" y1="230.3" x2="64.9" y2="101.9"/>
	<line class="st0" x1="40.5" y1="230.3" x2="32.3" y2="228"/>
	<line class="st0" x1="59.7" y1="45.6" x2="65.6" y2="63"/>
	<line class="st0" x1="59.7" y1="45.6" x2="53.9" y2="103.9"/>
	<line class="st0" x1="59.7" y1="45.6" x2="67.8" y2="42.6"/>
	<line class="st0" x1="59.7" y1="45.6" x2="61" y2="55.3"/>
	<line class="st0" x1="59.7" y1="45.6" x2="57.7" y2="37.1"/>
	<line class="st0" x1="171.6" y1="184.7" x2="167.5" y2="193.8"/>
	<line class="st0" x1="15.9" y1="235.5" x2="24.5" y2="231.8"/>
	<line class="st0" x1="231.2" y1="303.8" x2="213.7" y2="297.7"/>
	<line class="st0" x1="231.2" y1="303.8" x2="231.4" y2="295.2"/>
	<line class="st0" x1="231.2" y1="303.8" x2="219.8" y2="305.3"/>
	<line class="st0" x1="231.2" y1="303.8" x2="222.6" y2="296.4"/>
	<line class="st0" x1="219.6" y1="147.4" x2="225" y2="155.7"/>
	<line class="st0" x1="219.6" y1="147.4" x2="230.8" y2="149.3"/>
	<line class="st0" x1="219.6" y1="147.4" x2="227.5" y2="140.3"/>
	<line class="st0" x1="219.6" y1="147.4" x2="218.7" y2="138.1"/>
	<line class="st0" x1="240.7" y1="292.1" x2="231.4" y2="295.2"/>
	<line class="st0" x1="240.7" y1="292.1" x2="222.6" y2="296.4"/>
	<line class="st0" x1="240.7" y1="292.1" x2="233.5" y2="285.1"/>
	<line class="st0" x1="32.3" y1="228" x2="31.3" y2="219.3"/>
	<line class="st0" x1="233.5" y1="285.1" x2="231.4" y2="295.2"/>
	<line class="st0" x1="233.5" y1="285.1" x2="217.6" y2="279.9"/>
	<path d="M186.1,187.1c0-1.1-0.9-1.9-1.9-1.9c-1.1,0-1.9,0.9-1.9,1.9c0,1.1,0.9,1.9,1.9,1.9C185.2,189,186.1,188.1,186.1,187.1"/>
	<path d="M215.6,297.7c0-1.1-0.9-1.9-1.9-1.9c-1.1,0-1.9,0.9-1.9,1.9c0,1.1,0.9,1.9,1.9,1.9C214.7,299.6,215.6,298.8,215.6,297.7"/>
	<path d="M52.5,274.3c0-1.1-0.9-1.9-1.9-1.9c-1.1,0-1.9,0.9-1.9,1.9c0,1.1,0.9,1.9,1.9,1.9C51.6,276.2,52.5,275.4,52.5,274.3"/>
	<path d="M175.5,172.1c0-1.1-0.9-1.9-1.9-1.9c-1.1,0-1.9,0.9-1.9,1.9c0,1.1,0.9,1.9,1.9,1.9S175.5,173.1,175.5,172.1"/>
	<path d="M75,104.3c0-1.1-0.9-1.9-1.9-1.9c-1.1,0-1.9,0.9-1.9,1.9c0,1.1,0.9,1.9,1.9,1.9C74.1,106.2,75,105.3,75,104.3"/>
	<path d="M17.2,213.2c0-1.1-0.9-1.9-1.9-1.9c-1.1,0-1.9,0.9-1.9,1.9c0,1.1,0.9,1.9,1.9,1.9C16.3,215.1,17.2,214.3,17.2,213.2"/>
	<path d="M227,155.7c0-1.1-0.9-1.9-1.9-1.9c-1.1,0-1.9,0.9-1.9,1.9c0,1.1,0.9,1.9,1.9,1.9C226.1,157.6,227,156.8,227,155.7"/>
	<path d="M35.3,237c0-1.1-0.9-1.9-1.9-1.9c-1.1,0-1.9,0.9-1.9,1.9c0,1.1,0.9,1.9,1.9,1.9C34.4,239,35.3,238.1,35.3,237"/>
	<path d="M52.8,283.1c0-1.1-0.9-1.9-1.9-1.9c-1.1,0-1.9,0.9-1.9,1.9c0,1.1,0.9,1.9,1.9,1.9C51.9,285,52.8,284.2,52.8,283.1"/>
	<path d="M342.9,247.3c0-1.1-0.9-1.9-1.9-1.9c-1.1,0-1.9,0.9-1.9,1.9c0,1.1,0.9,1.9,1.9,1.9S342.9,248.4,342.9,247.3"/>
	<path d="M233.4,295.2c0-1.1-0.9-1.9-1.9-1.9c-1.1,0-1.9,0.9-1.9,1.9c0,1.1,0.9,1.9,1.9,1.9C232.5,297.2,233.4,296.3,233.4,295.2"/>
	<path d="M232.7,149.3c0-1.1-0.9-1.9-1.9-1.9s-1.9,0.9-1.9,1.9c0,1.1,0.9,1.9,1.9,1.9S232.7,150.3,232.7,149.3"/>
	<path d="M70.4,94.2c0-1.1-0.9-1.9-1.9-1.9c-1.1,0-1.9,0.9-1.9,1.9c0,1.1,0.9,1.9,1.9,1.9S70.4,95.2,70.4,94.2"/>
	<path d="M67.6,63c0-1.1-0.9-1.9-1.9-1.9c-1.1,0-1.9,0.9-1.9,1.9c0,1.1,0.9,1.9,1.9,1.9S67.6,64.1,67.6,63"/>
	<path d="M185.3,170.6c0-1.1-0.9-1.9-1.9-1.9c-1.1,0-1.9,0.9-1.9,1.9c0,1.1,0.9,1.9,1.9,1.9C184.4,172.6,185.3,171.7,185.3,170.6"/>
	<path d="M229.5,140.3c0-1.1-0.9-1.9-1.9-1.9c-1.1,0-1.9,0.9-1.9,1.9c0,1.1,0.9,1.9,1.9,1.9C228.6,142.3,229.5,141.4,229.5,140.3"/>
	<path d="M193.7,170.9c0-1.1-0.9-1.9-1.9-1.9c-1.1,0-1.9,0.9-1.9,1.9c0,1.1,0.9,1.9,1.9,1.9C192.8,172.8,193.7,171.9,193.7,170.9"/>
	<path d="M55.8,103.9c0-1.1-0.9-1.9-1.9-1.9c-1.1,0-1.9,0.9-1.9,1.9c0,1.1,0.9,1.9,1.9,1.9C55,105.8,55.8,104.9,55.8,103.9"/>
	<path d="M61.4,270.1c0-1.1-0.9-1.9-1.9-1.9c-1.1,0-1.9,0.9-1.9,1.9c0,1.1,0.9,1.9,1.9,1.9S61.4,271.2,61.4,270.1"/>
	<path d="M69.7,42.6c0-1.1-0.9-1.9-1.9-1.9c-1.1,0-1.9,0.9-1.9,1.9c0,1.1,0.9,1.9,1.9,1.9C68.8,44.5,69.7,43.6,69.7,42.6"/>
	<path d="M216,288.8c0-1.1-0.9-1.9-1.9-1.9c-1.1,0-1.9,0.9-1.9,1.9c0,1.1,0.9,1.9,1.9,1.9C215.1,290.8,216,289.9,216,288.8"/>
	<path d="M333.2,255.1c0-1.1-0.9-1.9-1.9-1.9c-1.1,0-1.9,0.9-1.9,1.9c0,1.1,0.9,1.9,1.9,1.9C332.3,257,333.2,256.1,333.2,255.1"/>
	<path d="M219.6,279.9c0-1.1-0.9-1.9-1.9-1.9c-1.1,0-1.9,0.9-1.9,1.9c0,1.1,0.9,1.9,1.9,1.9C218.7,281.8,219.6,281,219.6,279.9"/>
	<path d="M221.7,305.3c0-1.1-0.9-1.9-1.9-1.9c-1.1,0-1.9,0.9-1.9,1.9c0,1.1,0.9,1.9,1.9,1.9C220.8,307.2,221.7,306.4,221.7,305.3"/>
	<path d="M226.2,287.8c0-1.1-0.9-1.9-1.9-1.9c-1.1,0-1.9,0.9-1.9,1.9c0,1.1,0.9,1.9,1.9,1.9C225.3,289.7,226.2,288.9,226.2,287.8"/>
	<path d="M33.4,210.6c0-1.1-0.9-1.9-1.9-1.9c-1.1,0-1.9,0.9-1.9,1.9c0,1.1,0.9,1.9,1.9,1.9C32.6,212.5,33.4,211.6,33.4,210.6"/>
	<path d="M62.9,55.3c0-1.1-0.9-1.9-1.9-1.9c-1.1,0-1.9,0.9-1.9,1.9s0.9,1.9,1.9,1.9S62.9,56.4,62.9,55.3"/>
	<path d="M42,221c0-1.1-0.9-1.9-1.9-1.9c-1.1,0-1.9,0.9-1.9,1.9c0,1.1,0.9,1.9,1.9,1.9C41.1,223,42,222.1,42,221"/>
	<path d="M220.6,138.1c0-1.1-0.9-1.9-1.9-1.9c-1.1,0-1.9,0.9-1.9,1.9c0,1.1,0.9,1.9,1.9,1.9C219.7,140,220.6,139.2,220.6,138.1"/>
	<path d="M59.6,37.1c0-1.1-0.9-1.9-1.9-1.9c-1.1,0-1.9,0.9-1.9,1.9c0,1.1,0.9,1.9,1.9,1.9C58.8,39,59.6,38.1,59.6,37.1"/>
	<path d="M24.6,219.9c0-1.1-0.9-1.9-1.9-1.9c-1.1,0-1.9,0.9-1.9,1.9c0,1.1,0.9,1.9,1.9,1.9C23.8,221.8,24.6,221,24.6,219.9"/>
	<path d="M43.3,305.7c0-1.1-0.9-1.9-1.9-1.9s-1.9,0.9-1.9,1.9c0,1.1,0.9,1.9,1.9,1.9S43.3,306.7,43.3,305.7"/>
	<path d="M183.8,200.7c0-1.1-0.9-1.9-1.9-1.9c-1.1,0-1.9,0.9-1.9,1.9s0.9,1.9,1.9,1.9C182.9,202.6,183.8,201.7,183.8,200.7"/>
	<path d="M64.2,109.9c0-1.1-0.9-1.9-1.9-1.9c-1.1,0-1.9,0.9-1.9,1.9c0,1.1,0.9,1.9,1.9,1.9C63.3,111.9,64.2,111,64.2,109.9"/>
	<path d="M196.5,183.8c0-1.1-0.9-1.9-1.9-1.9c-1.1,0-1.9,0.9-1.9,1.9c0,1.1,0.9,1.9,1.9,1.9C195.7,185.8,196.5,184.9,196.5,183.8"/>
	<path d="M169.4,193.8c0-1.1-0.9-1.9-1.9-1.9c-1.1,0-1.9,0.9-1.9,1.9c0,1.1,0.9,1.9,1.9,1.9C168.5,195.8,169.4,194.9,169.4,193.8"/>
	<path d="M60.3,95.1c0-1.1-0.9-1.9-1.9-1.9c-1.1,0-1.9,0.9-1.9,1.9c0,1.1,0.9,1.9,1.9,1.9C59.4,97.1,60.3,96.2,60.3,95.1"/>
	<path d="M341.9,256.8c0-1.1-0.9-1.9-1.9-1.9c-1.1,0-1.9,0.9-1.9,1.9c0,1.1,0.9,1.9,1.9,1.9C341,258.7,341.9,257.9,341.9,256.8"/>
	<path d="M228.8,278.5c0-1.1-0.9-1.9-1.9-1.9c-1.1,0-1.9,0.9-1.9,1.9c0,1.1,0.9,1.9,1.9,1.9C227.9,280.5,228.8,279.6,228.8,278.5"/>
	<path d="M192.5,193.6c0-1.1-0.9-1.9-1.9-1.9c-1.1,0-1.9,0.9-1.9,1.9c0,1.1,0.9,1.9,1.9,1.9C191.7,195.5,192.5,194.7,192.5,193.6"/>
	<path d="M189.3,178.8c0-1.1-0.9-1.9-1.9-1.9c-1.1,0-1.9,0.9-1.9,1.9c0,1.1,0.9,1.9,1.9,1.9C188.5,180.8,189.3,179.9,189.3,178.8"/>
	<path d="M59.4,117.3c0-1.1-0.9-1.9-1.9-1.9c-1.1,0-1.9,0.9-1.9,1.9c0,1.1,0.9,1.9,1.9,1.9C58.6,119.2,59.4,118.4,59.4,117.3"/>
	<path d="M55.1,316.1c0-1.1-0.9-1.9-1.9-1.9c-1.1,0-1.9,0.9-1.9,1.9c0,1.1,0.9,1.9,1.9,1.9C54.2,318,55.1,317.2,55.1,316.1"/>
	<path d="M53.3,306.8c0-1.1-0.9-1.9-1.9-1.9c-1.1,0-1.9,0.9-1.9,1.9c0,1.1,0.9,1.9,1.9,1.9C52.4,308.7,53.3,307.9,53.3,306.8"/>
	<path d="M180.5,179.7c0-1.1-0.9-1.9-1.9-1.9c-1.1,0-1.9,0.9-1.9,1.9c0,1.1,0.9,1.9,1.9,1.9C179.6,181.6,180.5,180.7,180.5,179.7"/>
	<path d="M224.6,296.4c0-1.1-0.9-1.9-1.9-1.9c-1.1,0-1.9,0.9-1.9,1.9c0,1.1,0.9,1.9,1.9,1.9C223.7,298.4,224.6,297.5,224.6,296.4"/>
	<path d="M18.2,226c0-1.1-0.9-1.9-1.9-1.9c-1.1,0-1.9,0.9-1.9,1.9c0,1.1,0.9,1.9,1.9,1.9C17.3,227.9,18.2,227,18.2,226"/>
	<path d="M168,178c0-1.1-0.9-1.9-1.9-1.9c-1.1,0-1.9,0.9-1.9,1.9c0,1.1,0.9,1.9,1.9,1.9C167.2,179.9,168,179,168,178"/>
	<path d="M11,220.2c0-1.1-0.9-1.9-1.9-1.9c-1.1,0-1.9,0.9-1.9,1.9c0,1.1,0.9,1.9,1.9,1.9C10.2,222.2,11,221.3,11,220.2"/>
	<path d="M66.9,101.9c0-1.1-0.9-1.9-1.9-1.9c-1.1,0-1.9,0.9-1.9,1.9c0,1.1,0.9,1.9,1.9,1.9C66,103.9,66.9,103,66.9,101.9"/>
	<path d="M33.2,219.3c0-1.1-0.9-1.9-1.9-1.9c-1.1,0-1.9,0.9-1.9,1.9c0,1.1,0.9,1.9,1.9,1.9C32.4,221.3,33.2,220.4,33.2,219.3"/>
	<path d="M24.7,208.5c0-1.1-0.9-1.9-1.9-1.9c-1.1,0-1.9,0.9-1.9,1.9c0,1.1,0.9,1.9,1.9,1.9C23.8,210.4,24.7,209.5,24.7,208.5"/>
	<path d="M179,192.1c0-1.1-0.9-1.9-1.9-1.9c-1.1,0-1.9,0.9-1.9,1.9c0,1.1,0.9,1.9,1.9,1.9S179,193.1,179,192.1"/>
	<path d="M177.8,163.9c0-1.1-0.9-1.9-1.9-1.9c-1.1,0-1.9,0.9-1.9,1.9c0,1.1,0.9,1.9,1.9,1.9C176.9,165.8,177.8,164.9,177.8,163.9"/>
	<path d="M26.4,231.8c0-1.1-0.9-1.9-1.9-1.9c-1.1,0-1.9,0.9-1.9,1.9c0,1.1,0.9,1.9,1.9,1.9C25.6,233.7,26.4,232.8,26.4,231.8"/>
	<path d="M333,245.3c0-1.1-0.9-1.9-1.9-1.9c-1.1,0-1.9,0.9-1.9,1.9c0,1.1,0.9,1.9,1.9,1.9C332.1,247.3,333,246.4,333,245.3"/>
	<path d="M332.3,263.8c0-1.1-0.9-1.9-1.9-1.9c-1.1,0-1.9,0.9-1.9,1.9c0,1.1,0.9,1.9,1.9,1.9C331.4,265.7,332.3,264.9,332.3,263.8"/>
	<path d="M42.5,230.3c0-1.1-0.9-1.9-1.9-1.9c-1.1,0-1.9,0.9-1.9,1.9c0,1.1,0.9,1.9,1.9,1.9C41.6,232.3,42.5,231.4,42.5,230.3"/>
	<path d="M61.6,45.6c0-1.1-0.9-1.9-1.9-1.9c-1.1,0-1.9,0.9-1.9,1.9s0.9,1.9,1.9,1.9C60.7,47.5,61.6,46.6,61.6,45.6"/>
	<path d="M173.6,184.7c0-1.1-0.9-1.9-1.9-1.9c-1.1,0-1.9,0.9-1.9,1.9c0,1.1,0.9,1.9,1.9,1.9C172.7,186.6,173.6,185.7,173.6,184.7"/>
	<path d="M17.9,235.5c0-1.1-0.9-1.9-1.9-1.9c-1.1,0-1.9,0.9-1.9,1.9c0,1.1,0.9,1.9,1.9,1.9S17.9,236.5,17.9,235.5"/>
	<path d="M233.1,303.8c0-1.1-0.9-1.9-1.9-1.9c-1.1,0-1.9,0.9-1.9,1.9c0,1.1,0.9,1.9,1.9,1.9C232.3,305.8,233.1,304.9,233.1,303.8"/>
	<path d="M221.5,147.4c0-1.1-0.9-1.9-1.9-1.9c-1.1,0-1.9,0.9-1.9,1.9c0,1.1,0.9,1.9,1.9,1.9C220.6,149.3,221.5,148.4,221.5,147.4"/>
	<path d="M242.6,292.1c0-1.1-0.9-1.9-1.9-1.9c-1.1,0-1.9,0.9-1.9,1.9c0,1.1,0.9,1.9,1.9,1.9C241.7,294.1,242.6,293.2,242.6,292.1"/>
	<path d="M321.3,254.8c0-1.1-0.9-1.9-1.9-1.9c-1.1,0-1.9,0.9-1.9,1.9c0,1.1,0.9,1.9,1.9,1.9S321.3,255.9,321.3,254.8"/>
	<path d="M34.2,228c0-1.1-0.9-1.9-1.9-1.9c-1.1,0-1.9,0.9-1.9,1.9c0,1.1,0.9,1.9,1.9,1.9C33.3,230,34.2,229.1,34.2,228"/>
	<path d="M235.4,285.1c0-1.1-0.9-1.9-1.9-1.9c-1.1,0-1.9,0.9-1.9,1.9c0,1.1,0.9,1.9,1.9,1.9C234.5,287.1,235.4,286.2,235.4,285.1"/>
</g>
</svg>
