<?xml version="1.0" encoding="utf-8"?>
<!-- Generator: Adobe Illustrator 21.1.0, SVG Export Plug-In . SVG Version: 6.00 Build 0)  -->
<svg version="1.1" id="Layer_1" xmlns="http://www.w3.org/2000/svg" xmlns:xlink="http://www.w3.org/1999/xlink" x="0px" y="0px"
	 viewBox="0 0 350 350" style="enable-background:new 0 0 350 350;" xml:space="preserve">
<style type="text/css">
	.st0{fill:none;stroke:#231F20;stroke-width:0.75;stroke-miterlimit:10;}
</style>
<g>
	<line class="st0" x1="104.6" y1="15.4" x2="122.3" y2="14.9"/>
	<line class="st0" x1="104.6" y1="15.4" x2="123" y2="30.8"/>
	<line class="st0" x1="122.3" y1="14.9" x2="123" y2="30.8"/>
	<line class="st0" x1="113.3" y1="30.4" x2="104.6" y2="15.4"/>
	<line class="st0" x1="113.3" y1="30.4" x2="122.3" y2="14.9"/>
	<line class="st0" x1="113.3" y1="30.4" x2="109.8" y2="22.5"/>
	<line class="st0" x1="113.3" y1="30.4" x2="123" y2="30.8"/>
	<line class="st0" x1="201.6" y1="299.1" x2="192.7" y2="310.8"/>
	<line class="st0" x1="201.6" y1="299.1" x2="205.9" y2="313"/>
	<line class="st0" x1="201.6" y1="299.1" x2="193.4" y2="301.5"/>
	<line class="st0" x1="201.6" y1="299.1" x2="200.1" y2="307"/>
	<line class="st0" x1="109.8" y1="22.5" x2="104.6" y2="15.4"/>
	<line class="st0" x1="109.8" y1="22.5" x2="122.3" y2="14.9"/>
	<line class="st0" x1="109.8" y1="22.5" x2="123" y2="30.8"/>
	<line class="st0" x1="183.2" y1="287.8" x2="200" y2="289.8"/>
	<line class="st0" x1="183.2" y1="287.8" x2="191.5" y2="289.8"/>
	<line class="st0" x1="183.2" y1="287.8" x2="185.9" y2="297.1"/>
	<line class="st0" x1="105.7" y1="70.2" x2="92.6" y2="63.3"/>
	<line class="st0" x1="105.7" y1="70.2" x2="97.2" y2="70.8"/>
	<line class="st0" x1="135.1" y1="93.1" x2="140.4" y2="114.2"/>
	<line class="st0" x1="135.1" y1="93.1" x2="134.4" y2="108.6"/>
	<line class="st0" x1="135.1" y1="93.1" x2="126.7" y2="111.8"/>
	<line class="st0" x1="135.1" y1="93.1" x2="130.5" y2="100.6"/>
	<line class="st0" x1="93.1" y1="78.4" x2="105.7" y2="70.2"/>
	<line class="st0" x1="93.1" y1="78.4" x2="92.6" y2="63.3"/>
	<line class="st0" x1="93.1" y1="78.4" x2="97.2" y2="70.8"/>
	<line class="st0" x1="178.2" y1="294.1" x2="177.2" y2="303.1"/>
	<line class="st0" x1="169.5" y1="305.9" x2="185.9" y2="305.6"/>
	<line class="st0" x1="169.5" y1="305.9" x2="168.1" y2="297.3"/>
	<line class="st0" x1="168.1" y1="297.3" x2="177.2" y2="303.1"/>
	<line class="st0" x1="168.1" y1="297.3" x2="178.2" y2="294.1"/>
	<line class="st0" x1="69.9" y1="68.7" x2="62.4" y2="76.4"/>
	<line class="st0" x1="83.4" y1="78.3" x2="69.9" y2="68.7"/>
	<line class="st0" x1="83.4" y1="78.3" x2="62.4" y2="76.4"/>
	<line class="st0" x1="97.2" y1="70.8" x2="92.6" y2="63.3"/>
	<line class="st0" x1="306.3" y1="101.8" x2="310.2" y2="93.9"/>
	<line class="st0" x1="228.8" y1="200" x2="237.3" y2="214.1"/>
	<line class="st0" x1="228.8" y1="200" x2="231.7" y2="208.3"/>
	<line class="st0" x1="237.3" y1="214.1" x2="231.7" y2="208.3"/>
	<line class="st0" x1="281.6" y1="93.4" x2="306.3" y2="101.8"/>
	<line class="st0" x1="281.6" y1="93.4" x2="288.2" y2="98.3"/>
	<line class="st0" x1="288.2" y1="98.3" x2="306.3" y2="101.8"/>
	<line class="st0" x1="50.4" y1="25.8" x2="39.7" y2="28.9"/>
	<line class="st0" x1="50.4" y1="25.8" x2="48" y2="46"/>
	<line class="st0" x1="50.4" y1="25.8" x2="56.9" y2="31.1"/>
	<line class="st0" x1="50.4" y1="25.8" x2="52.9" y2="39.3"/>
	<line class="st0" x1="50.4" y1="25.8" x2="40.8" y2="41.1"/>
	<line class="st0" x1="50.4" y1="25.8" x2="44.5" y2="20.1"/>
	<line class="st0" x1="50.4" y1="25.8" x2="47" y2="33.4"/>
	<line class="st0" x1="39.7" y1="28.9" x2="48" y2="46"/>
	<line class="st0" x1="39.7" y1="28.9" x2="56.9" y2="31.1"/>
	<line class="st0" x1="39.7" y1="28.9" x2="52.9" y2="39.3"/>
	<line class="st0" x1="39.7" y1="28.9" x2="40.8" y2="41.1"/>
	<line class="st0" x1="39.7" y1="28.9" x2="44.5" y2="20.1"/>
	<line class="st0" x1="39.7" y1="28.9" x2="47" y2="33.4"/>
	<line class="st0" x1="132.2" y1="288.9" x2="130.4" y2="272.2"/>
	<line class="st0" x1="132.2" y1="288.9" x2="124.1" y2="277.5"/>
	<line class="st0" x1="132.2" y1="288.9" x2="140.3" y2="274.8"/>
	<line class="st0" x1="132.2" y1="288.9" x2="122.9" y2="267.2"/>
	<line class="st0" x1="132.2" y1="288.9" x2="123.2" y2="295.2"/>
	<line class="st0" x1="132.2" y1="288.9" x2="141.3" y2="292.2"/>
	<line class="st0" x1="132.2" y1="288.9" x2="135.8" y2="265.7"/>
	<line class="st0" x1="48" y1="46" x2="56.9" y2="31.1"/>
	<line class="st0" x1="48" y1="46" x2="52.9" y2="39.3"/>
	<line class="st0" x1="48" y1="46" x2="40.8" y2="41.1"/>
	<line class="st0" x1="48" y1="46" x2="44.5" y2="20.1"/>
	<line class="st0" x1="48" y1="46" x2="47" y2="33.4"/>
	<line class="st0" x1="56.9" y1="31.1" x2="52.9" y2="39.3"/>
	<line class="st0" x1="56.9" y1="31.1" x2="40.8" y2="41.1"/>
	<line class="st0" x1="56.9" y1="31.1" x2="44.5" y2="20.1"/>
	<line class="st0" x1="56.9" y1="31.1" x2="47" y2="33.4"/>
	<line class="st0" x1="52.9" y1="39.3" x2="40.8" y2="41.1"/>
	<line class="st0" x1="52.9" y1="39.3" x2="44.5" y2="20.1"/>
	<line class="st0" x1="52.9" y1="39.3" x2="47" y2="33.4"/>
	<line class="st0" x1="144.3" y1="266.2" x2="132.2" y2="288.9"/>
	<line class="st0" x1="144.3" y1="266.2" x2="124" y2="285.7"/>
	<line class="st0" x1="144.3" y1="266.2" x2="131.9" y2="280.4"/>
	<line class="st0" x1="144.3" y1="266.2" x2="130.4" y2="272.2"/>
	<line class="st0" x1="144.3" y1="266.2" x2="124.1" y2="277.5"/>
	<line class="st0" x1="144.3" y1="266.2" x2="140.3" y2="274.8"/>
	<line class="st0" x1="144.3" y1="266.2" x2="122.9" y2="267.2"/>
	<line class="st0" x1="144.3" y1="266.2" x2="123.2" y2="295.2"/>
	<line class="st0" x1="144.3" y1="266.2" x2="141.3" y2="292.2"/>
	<line class="st0" x1="144.3" y1="266.2" x2="135.8" y2="265.7"/>
	<line class="st0" x1="247.5" y1="203.7" x2="256.2" y2="201.6"/>
	<line class="st0" x1="247.5" y1="203.7" x2="239.6" y2="205.2"/>
	<line class="st0" x1="40.8" y1="41.1" x2="44.5" y2="20.1"/>
	<line class="st0" x1="40.8" y1="41.1" x2="47" y2="33.4"/>
	<line class="st0" x1="148.5" y1="280.2" x2="132.2" y2="288.9"/>
	<line class="st0" x1="148.5" y1="280.2" x2="144.3" y2="266.2"/>
	<line class="st0" x1="148.5" y1="280.2" x2="124" y2="285.7"/>
	<line class="st0" x1="148.5" y1="280.2" x2="131.9" y2="280.4"/>
	<line class="st0" x1="148.5" y1="280.2" x2="130.4" y2="272.2"/>
	<line class="st0" x1="148.5" y1="280.2" x2="124.1" y2="277.5"/>
	<line class="st0" x1="148.5" y1="280.2" x2="140.3" y2="274.8"/>
	<line class="st0" x1="148.5" y1="280.2" x2="122.9" y2="267.2"/>
	<line class="st0" x1="148.5" y1="280.2" x2="123.2" y2="295.2"/>
	<line class="st0" x1="148.5" y1="280.2" x2="141.3" y2="292.2"/>
	<line class="st0" x1="148.5" y1="280.2" x2="135.8" y2="265.7"/>
	<line class="st0" x1="256.2" y1="201.6" x2="239.6" y2="205.2"/>
	<line class="st0" x1="44.5" y1="20.1" x2="47" y2="33.4"/>
	<line class="st0" x1="124" y1="285.7" x2="132.2" y2="288.9"/>
	<line class="st0" x1="124" y1="285.7" x2="130.4" y2="272.2"/>
	<line class="st0" x1="124" y1="285.7" x2="124.1" y2="277.5"/>
	<line class="st0" x1="124" y1="285.7" x2="140.3" y2="274.8"/>
	<line class="st0" x1="124" y1="285.7" x2="122.9" y2="267.2"/>
	<line class="st0" x1="124" y1="285.7" x2="123.2" y2="295.2"/>
	<line class="st0" x1="124" y1="285.7" x2="141.3" y2="292.2"/>
	<line class="st0" x1="124" y1="285.7" x2="135.8" y2="265.7"/>
	<line class="st0" x1="131.9" y1="280.4" x2="132.2" y2="288.9"/>
	<line class="st0" x1="131.9" y1="280.4" x2="124" y2="285.7"/>
	<line class="st0" x1="131.9" y1="280.4" x2="130.4" y2="272.2"/>
	<line class="st0" x1="131.9" y1="280.4" x2="124.1" y2="277.5"/>
	<line class="st0" x1="131.9" y1="280.4" x2="140.3" y2="274.8"/>
	<line class="st0" x1="131.9" y1="280.4" x2="122.9" y2="267.2"/>
	<line class="st0" x1="131.9" y1="280.4" x2="123.2" y2="295.2"/>
	<line class="st0" x1="131.9" y1="280.4" x2="141.3" y2="292.2"/>
	<line class="st0" x1="131.9" y1="280.4" x2="135.8" y2="265.7"/>
	<line class="st0" x1="61.6" y1="39.4" x2="56.1" y2="46.9"/>
	<line class="st0" x1="192.7" y1="310.8" x2="205.9" y2="313"/>
	<line class="st0" x1="192.7" y1="310.8" x2="193.4" y2="301.5"/>
	<line class="st0" x1="205.9" y1="313" x2="193.4" y2="301.5"/>
	<line class="st0" x1="90.2" y1="30.8" x2="104.6" y2="15.4"/>
	<line class="st0" x1="90.2" y1="30.8" x2="122.3" y2="14.9"/>
	<line class="st0" x1="90.2" y1="30.8" x2="113.3" y2="30.4"/>
	<line class="st0" x1="90.2" y1="30.8" x2="109.8" y2="22.5"/>
	<line class="st0" x1="90.2" y1="30.8" x2="105.7" y2="70.2"/>
	<line class="st0" x1="90.2" y1="30.8" x2="135.1" y2="93.1"/>
	<line class="st0" x1="90.2" y1="30.8" x2="123" y2="30.8"/>
	<line class="st0" x1="90.2" y1="30.8" x2="93.1" y2="78.4"/>
	<line class="st0" x1="90.2" y1="30.8" x2="69.9" y2="68.7"/>
	<line class="st0" x1="90.2" y1="30.8" x2="83.4" y2="78.3"/>
	<line class="st0" x1="90.2" y1="30.8" x2="92.6" y2="63.3"/>
	<line class="st0" x1="90.2" y1="30.8" x2="97.2" y2="70.8"/>
	<line class="st0" x1="90.2" y1="30.8" x2="50.4" y2="25.8"/>
	<line class="st0" x1="90.2" y1="30.8" x2="39.7" y2="28.9"/>
	<line class="st0" x1="90.2" y1="30.8" x2="48" y2="46"/>
	<line class="st0" x1="90.2" y1="30.8" x2="56.9" y2="31.1"/>
	<line class="st0" x1="90.2" y1="30.8" x2="93.9" y2="46.6"/>
	<line class="st0" x1="90.2" y1="30.8" x2="52.9" y2="39.3"/>
	<line class="st0" x1="90.2" y1="30.8" x2="40.8" y2="41.1"/>
	<line class="st0" x1="90.2" y1="30.8" x2="44.5" y2="20.1"/>
	<line class="st0" x1="90.2" y1="30.8" x2="47" y2="33.4"/>
	<line class="st0" x1="90.2" y1="30.8" x2="61.6" y2="39.4"/>
	<line class="st0" x1="90.2" y1="30.8" x2="80.1" y2="40.5"/>
	<line class="st0" x1="90.2" y1="30.8" x2="118.9" y2="23.2"/>
	<line class="st0" x1="90.2" y1="30.8" x2="82.3" y2="32.1"/>
	<line class="st0" x1="90.2" y1="30.8" x2="80.1" y2="16.7"/>
	<line class="st0" x1="90.2" y1="30.8" x2="113.8" y2="14.9"/>
	<line class="st0" x1="90.2" y1="30.8" x2="93.1" y2="22.5"/>
	<line class="st0" x1="90.2" y1="30.8" x2="127.5" y2="22"/>
	<line class="st0" x1="90.2" y1="30.8" x2="56.1" y2="46.9"/>
	<line class="st0" x1="90.2" y1="30.8" x2="76.2" y2="24.8"/>
	<line class="st0" x1="90.2" y1="30.8" x2="73.8" y2="33.2"/>
	<line class="st0" x1="90.2" y1="30.8" x2="171.7" y2="144.6"/>
	<line class="st0" x1="90.2" y1="30.8" x2="61.8" y2="68.2"/>
	<line class="st0" x1="90.2" y1="30.8" x2="70.6" y2="76.8"/>
	<line class="st0" x1="90.2" y1="30.8" x2="77" y2="83.6"/>
	<line class="st0" x1="90.2" y1="30.8" x2="58.1" y2="55.9"/>
	<line class="st0" x1="90.2" y1="30.8" x2="54.1" y2="78"/>
	<line class="st0" x1="90.2" y1="30.8" x2="85.3" y2="47.2"/>
	<line class="st0" x1="90.2" y1="30.8" x2="65" y2="48.9"/>
	<line class="st0" x1="90.2" y1="30.8" x2="67" y2="84.4"/>
	<line class="st0" x1="90.2" y1="30.8" x2="110.8" y2="63.1"/>
	<line class="st0" x1="90.2" y1="30.8" x2="78.4" y2="70.4"/>
	<line class="st0" x1="90.2" y1="30.8" x2="65.3" y2="60.3"/>
	<line class="st0" x1="90.2" y1="30.8" x2="75.5" y2="62.5"/>
	<line class="st0" x1="90.2" y1="30.8" x2="68.3" y2="20.7"/>
	<line class="st0" x1="90.2" y1="30.8" x2="88.3" y2="15.5"/>
	<line class="st0" x1="90.2" y1="30.8" x2="140.4" y2="114.2"/>
	<line class="st0" x1="90.2" y1="30.8" x2="88.5" y2="39.1"/>
	<line class="st0" x1="90.2" y1="30.8" x2="134.4" y2="108.6"/>
	<line class="st0" x1="90.2" y1="30.8" x2="126.7" y2="111.8"/>
	<line class="st0" x1="90.2" y1="30.8" x2="53.5" y2="69.1"/>
	<line class="st0" x1="90.2" y1="30.8" x2="85.2" y2="23.5"/>
	<line class="st0" x1="90.2" y1="30.8" x2="102.9" y2="48"/>
	<line class="st0" x1="90.2" y1="30.8" x2="121.8" y2="104.2"/>
	<line class="st0" x1="90.2" y1="30.8" x2="84.3" y2="63"/>
	<line class="st0" x1="90.2" y1="30.8" x2="88.7" y2="55.5"/>
	<line class="st0" x1="90.2" y1="30.8" x2="213.9" y2="74.5"/>
	<line class="st0" x1="90.2" y1="30.8" x2="116.9" y2="53.7"/>
	<line class="st0" x1="90.2" y1="30.8" x2="107.3" y2="55.1"/>
	<line class="st0" x1="90.2" y1="30.8" x2="110.9" y2="47"/>
	<line class="st0" x1="90.2" y1="30.8" x2="121.5" y2="39.2"/>
	<line class="st0" x1="90.2" y1="30.8" x2="88.3" y2="70.2"/>
	<line class="st0" x1="90.2" y1="30.8" x2="80.3" y2="55.2"/>
	<line class="st0" x1="90.2" y1="30.8" x2="96.9" y2="35.3"/>
	<line class="st0" x1="90.2" y1="30.8" x2="105.4" y2="31.9"/>
	<line class="st0" x1="90.2" y1="30.8" x2="62.4" y2="76.4"/>
	<line class="st0" x1="90.2" y1="30.8" x2="137.4" y2="143.8"/>
	<line class="st0" x1="90.2" y1="30.8" x2="97.4" y2="54.7"/>
	<line class="st0" x1="90.2" y1="30.8" x2="240.4" y2="94.3"/>
	<line class="st0" x1="90.2" y1="30.8" x2="101.9" y2="61.9"/>
	<line class="st0" x1="90.2" y1="30.8" x2="101.6" y2="24"/>
	<line class="st0" x1="90.2" y1="30.8" x2="160.7" y2="135.4"/>
	<line class="st0" x1="90.2" y1="30.8" x2="76.3" y2="48.2"/>
	<line class="st0" x1="90.2" y1="30.8" x2="65.3" y2="30.6"/>
	<line class="st0" x1="90.2" y1="30.8" x2="130.5" y2="100.6"/>
	<line class="st0" x1="90.2" y1="30.8" x2="112.4" y2="39"/>
	<line class="st0" x1="90.2" y1="30.8" x2="145.3" y2="106"/>
	<line class="st0" x1="90.2" y1="30.8" x2="158.6" y2="127.2"/>
	<line class="st0" x1="90.2" y1="30.8" x2="142.3" y2="97.8"/>
	<line class="st0" x1="90.2" y1="30.8" x2="142.8" y2="133.5"/>
	<line class="st0" x1="90.2" y1="30.8" x2="104.2" y2="39.9"/>
	<line class="st0" x1="90.2" y1="30.8" x2="71.3" y2="54.7"/>
	<line class="st0" x1="90.2" y1="30.8" x2="70.8" y2="41.5"/>
	<line class="st0" x1="140.3" y1="283.1" x2="132.2" y2="288.9"/>
	<line class="st0" x1="140.3" y1="283.1" x2="144.3" y2="266.2"/>
	<line class="st0" x1="140.3" y1="283.1" x2="148.5" y2="280.2"/>
	<line class="st0" x1="140.3" y1="283.1" x2="124" y2="285.7"/>
	<line class="st0" x1="140.3" y1="283.1" x2="131.9" y2="280.4"/>
	<line class="st0" x1="140.3" y1="283.1" x2="130.4" y2="272.2"/>
	<line class="st0" x1="140.3" y1="283.1" x2="124.1" y2="277.5"/>
	<line class="st0" x1="140.3" y1="283.1" x2="140.3" y2="274.8"/>
	<line class="st0" x1="140.3" y1="283.1" x2="122.9" y2="267.2"/>
	<line class="st0" x1="140.3" y1="283.1" x2="123.2" y2="295.2"/>
	<line class="st0" x1="140.3" y1="283.1" x2="141.3" y2="292.2"/>
	<line class="st0" x1="140.3" y1="283.1" x2="135.8" y2="265.7"/>
	<line class="st0" x1="118.9" y1="23.2" x2="104.6" y2="15.4"/>
	<line class="st0" x1="118.9" y1="23.2" x2="122.3" y2="14.9"/>
	<line class="st0" x1="118.9" y1="23.2" x2="113.3" y2="30.4"/>
	<line class="st0" x1="118.9" y1="23.2" x2="109.8" y2="22.5"/>
	<line class="st0" x1="118.9" y1="23.2" x2="123" y2="30.8"/>
	<line class="st0" x1="118.9" y1="23.2" x2="113.8" y2="14.9"/>
	<line class="st0" x1="118.9" y1="23.2" x2="127.5" y2="22"/>
	<line class="st0" x1="82.3" y1="32.1" x2="76.2" y2="24.8"/>
	<line class="st0" x1="82.3" y1="32.1" x2="73.8" y2="33.2"/>
	<line class="st0" x1="80.1" y1="16.7" x2="82.3" y2="32.1"/>
	<line class="st0" x1="80.1" y1="16.7" x2="76.2" y2="24.8"/>
	<line class="st0" x1="80.1" y1="16.7" x2="73.8" y2="33.2"/>
	<line class="st0" x1="113.8" y1="14.9" x2="104.6" y2="15.4"/>
	<line class="st0" x1="113.8" y1="14.9" x2="122.3" y2="14.9"/>
	<line class="st0" x1="113.8" y1="14.9" x2="113.3" y2="30.4"/>
	<line class="st0" x1="113.8" y1="14.9" x2="109.8" y2="22.5"/>
	<line class="st0" x1="113.8" y1="14.9" x2="123" y2="30.8"/>
	<line class="st0" x1="93.1" y1="22.5" x2="82.3" y2="32.1"/>
	<line class="st0" x1="93.1" y1="22.5" x2="80.1" y2="16.7"/>
	<line class="st0" x1="93.1" y1="22.5" x2="76.2" y2="24.8"/>
	<line class="st0" x1="93.1" y1="22.5" x2="73.8" y2="33.2"/>
	<line class="st0" x1="200.1" y1="307" x2="192.7" y2="310.8"/>
	<line class="st0" x1="200.1" y1="307" x2="205.9" y2="313"/>
	<line class="st0" x1="200.1" y1="307" x2="193.4" y2="301.5"/>
	<line class="st0" x1="127.5" y1="22" x2="104.6" y2="15.4"/>
	<line class="st0" x1="127.5" y1="22" x2="122.3" y2="14.9"/>
	<line class="st0" x1="127.5" y1="22" x2="113.3" y2="30.4"/>
	<line class="st0" x1="127.5" y1="22" x2="109.8" y2="22.5"/>
	<line class="st0" x1="127.5" y1="22" x2="123" y2="30.8"/>
	<line class="st0" x1="127.5" y1="22" x2="113.8" y2="14.9"/>
	<line class="st0" x1="73.8" y1="33.2" x2="76.2" y2="24.8"/>
	<line class="st0" x1="195.5" y1="318.5" x2="198.1" y2="326.4"/>
	<line class="st0" x1="195.5" y1="318.5" x2="190.5" y2="328.8"/>
	<line class="st0" x1="195.5" y1="318.5" x2="196.4" y2="335.1"/>
	<line class="st0" x1="195.5" y1="318.5" x2="184.7" y2="322.6"/>
	<line class="st0" x1="195.5" y1="318.5" x2="205" y2="321.3"/>
	<line class="st0" x1="198.1" y1="326.4" x2="190.5" y2="328.8"/>
	<line class="st0" x1="198.1" y1="326.4" x2="196.4" y2="335.1"/>
	<line class="st0" x1="198.1" y1="326.4" x2="184.7" y2="322.6"/>
	<line class="st0" x1="198.1" y1="326.4" x2="205" y2="321.3"/>
	<line class="st0" x1="171.7" y1="144.6" x2="160.7" y2="135.4"/>
	<line class="st0" x1="171.7" y1="144.6" x2="158.6" y2="127.2"/>
	<line class="st0" x1="171.7" y1="144.6" x2="142.8" y2="133.5"/>
	<line class="st0" x1="190.5" y1="328.8" x2="196.4" y2="335.1"/>
	<line class="st0" x1="61.8" y1="68.2" x2="78.4" y2="70.4"/>
	<line class="st0" x1="61.8" y1="68.2" x2="65.3" y2="60.3"/>
	<line class="st0" x1="184.7" y1="322.6" x2="190.5" y2="328.8"/>
	<line class="st0" x1="184.7" y1="322.6" x2="196.4" y2="335.1"/>
	<line class="st0" x1="184.7" y1="322.6" x2="205" y2="321.3"/>
	<line class="st0" x1="205" y1="321.3" x2="190.5" y2="328.8"/>
	<line class="st0" x1="205" y1="321.3" x2="196.4" y2="335.1"/>
	<line class="st0" x1="70.6" y1="76.8" x2="61.8" y2="68.2"/>
	<line class="st0" x1="70.6" y1="76.8" x2="77" y2="83.6"/>
	<line class="st0" x1="70.6" y1="76.8" x2="78.4" y2="70.4"/>
	<line class="st0" x1="70.6" y1="76.8" x2="65.3" y2="60.3"/>
	<line class="st0" x1="77" y1="83.6" x2="69.9" y2="68.7"/>
	<line class="st0" x1="77" y1="83.6" x2="83.4" y2="78.3"/>
	<line class="st0" x1="77" y1="83.6" x2="61.8" y2="68.2"/>
	<line class="st0" x1="77" y1="83.6" x2="78.4" y2="70.4"/>
	<line class="st0" x1="77" y1="83.6" x2="65.3" y2="60.3"/>
	<line class="st0" x1="77" y1="83.6" x2="105.4" y2="31.9"/>
	<line class="st0" x1="77" y1="83.6" x2="62.4" y2="76.4"/>
	<line class="st0" x1="303.4" y1="61.5" x2="296.3" y2="74.9"/>
	<line class="st0" x1="237.4" y1="188.5" x2="242.7" y2="182.1"/>
	<line class="st0" x1="237.4" y1="188.5" x2="248.3" y2="188.1"/>
	<line class="st0" x1="54.1" y1="78" x2="61.8" y2="68.2"/>
	<line class="st0" x1="54.1" y1="78" x2="70.6" y2="76.8"/>
	<line class="st0" x1="54.1" y1="78" x2="77" y2="83.6"/>
	<line class="st0" x1="54.1" y1="78" x2="78.4" y2="70.4"/>
	<line class="st0" x1="54.1" y1="78" x2="65.3" y2="60.3"/>
	<line class="st0" x1="248.3" y1="188.1" x2="242.7" y2="182.1"/>
	<line class="st0" x1="65" y1="48.9" x2="58.1" y2="55.9"/>
	<line class="st0" x1="124.1" y1="277.5" x2="130.4" y2="272.2"/>
	<line class="st0" x1="124.1" y1="277.5" x2="140.3" y2="274.8"/>
	<line class="st0" x1="124.1" y1="277.5" x2="122.9" y2="267.2"/>
	<line class="st0" x1="124.1" y1="277.5" x2="123.2" y2="295.2"/>
	<line class="st0" x1="124.1" y1="277.5" x2="141.3" y2="292.2"/>
	<line class="st0" x1="124.1" y1="277.5" x2="135.8" y2="265.7"/>
	<line class="st0" x1="140.3" y1="274.8" x2="130.4" y2="272.2"/>
	<line class="st0" x1="140.3" y1="274.8" x2="122.9" y2="267.2"/>
	<line class="st0" x1="140.3" y1="274.8" x2="123.2" y2="295.2"/>
	<line class="st0" x1="140.3" y1="274.8" x2="141.3" y2="292.2"/>
	<line class="st0" x1="140.3" y1="274.8" x2="135.8" y2="265.7"/>
	<line class="st0" x1="65.3" y1="60.3" x2="69.9" y2="68.7"/>
	<line class="st0" x1="65.3" y1="60.3" x2="83.4" y2="78.3"/>
	<line class="st0" x1="65.3" y1="60.3" x2="78.4" y2="70.4"/>
	<line class="st0" x1="65.3" y1="60.3" x2="62.4" y2="76.4"/>
	<line class="st0" x1="122.9" y1="267.2" x2="130.4" y2="272.2"/>
	<line class="st0" x1="122.9" y1="267.2" x2="123.2" y2="295.2"/>
	<line class="st0" x1="123.2" y1="295.2" x2="130.4" y2="272.2"/>
	<line class="st0" x1="141.3" y1="292.2" x2="130.4" y2="272.2"/>
	<line class="st0" x1="141.3" y1="292.2" x2="122.9" y2="267.2"/>
	<line class="st0" x1="141.3" y1="292.2" x2="123.2" y2="295.2"/>
	<line class="st0" x1="141.3" y1="292.2" x2="135.8" y2="265.7"/>
	<line class="st0" x1="135.8" y1="265.7" x2="130.4" y2="272.2"/>
	<line class="st0" x1="135.8" y1="265.7" x2="122.9" y2="267.2"/>
	<line class="st0" x1="135.8" y1="265.7" x2="123.2" y2="295.2"/>
	<line class="st0" x1="189.4" y1="173" x2="191.6" y2="181.9"/>
	<line class="st0" x1="189.4" y1="173" x2="201.9" y2="188"/>
	<line class="st0" x1="191.6" y1="181.9" x2="201.9" y2="188"/>
	<line class="st0" x1="191.6" y1="181.9" x2="192.7" y2="189.9"/>
	<line class="st0" x1="191.6" y1="181.9" x2="199.7" y2="179.4"/>
	<line class="st0" x1="201.9" y1="188" x2="192.7" y2="189.9"/>
	<line class="st0" x1="201.9" y1="188" x2="199.7" y2="179.4"/>
	<line class="st0" x1="192.7" y1="189.9" x2="199.7" y2="179.4"/>
	<line class="st0" x1="68.3" y1="20.7" x2="88.3" y2="15.5"/>
	<line class="st0" x1="88.3" y1="15.5" x2="104.2" y2="39.9"/>
	<line class="st0" x1="140.4" y1="114.2" x2="126.7" y2="111.8"/>
	<line class="st0" x1="140.4" y1="114.2" x2="130.5" y2="100.6"/>
	<line class="st0" x1="140.4" y1="114.2" x2="145.3" y2="106"/>
	<line class="st0" x1="140.4" y1="114.2" x2="142.3" y2="97.8"/>
	<line class="st0" x1="134.4" y1="108.6" x2="140.4" y2="114.2"/>
	<line class="st0" x1="134.4" y1="108.6" x2="126.7" y2="111.8"/>
	<line class="st0" x1="134.4" y1="108.6" x2="130.5" y2="100.6"/>
	<line class="st0" x1="126.7" y1="111.8" x2="130.5" y2="100.6"/>
	<line class="st0" x1="200" y1="289.8" x2="191.5" y2="289.8"/>
	<line class="st0" x1="200" y1="289.8" x2="208.6" y2="223"/>
	<line class="st0" x1="200" y1="289.8" x2="185.9" y2="297.1"/>
	<line class="st0" x1="53.5" y1="69.1" x2="61.8" y2="68.2"/>
	<line class="st0" x1="53.5" y1="69.1" x2="70.6" y2="76.8"/>
	<line class="st0" x1="53.5" y1="69.1" x2="77" y2="83.6"/>
	<line class="st0" x1="53.5" y1="69.1" x2="54.1" y2="78"/>
	<line class="st0" x1="53.5" y1="69.1" x2="85.3" y2="47.2"/>
	<line class="st0" x1="53.5" y1="69.1" x2="67" y2="84.4"/>
	<line class="st0" x1="53.5" y1="69.1" x2="78.4" y2="70.4"/>
	<line class="st0" x1="53.5" y1="69.1" x2="65.3" y2="60.3"/>
	<line class="st0" x1="191.5" y1="289.8" x2="185.9" y2="297.1"/>
	<line class="st0" x1="208.6" y1="223" x2="219.4" y2="226.5"/>
	<line class="st0" x1="208.6" y1="223" x2="212.2" y2="231.1"/>
	<line class="st0" x1="267.1" y1="63" x2="270.6" y2="55.4"/>
	<line class="st0" x1="278.4" y1="61.4" x2="250.2" y2="93.8"/>
	<line class="st0" x1="278.4" y1="61.4" x2="286.5" y2="74.2"/>
	<line class="st0" x1="278.4" y1="61.4" x2="279.1" y2="52.6"/>
	<line class="st0" x1="278.4" y1="61.4" x2="273.8" y2="68.3"/>
	<line class="st0" x1="228.1" y1="97.4" x2="251.7" y2="85.5"/>
	<line class="st0" x1="271.6" y1="82" x2="267.8" y2="74.2"/>
	<line class="st0" x1="295.3" y1="55.1" x2="287.7" y2="48.5"/>
	<line class="st0" x1="295.3" y1="55.1" x2="279.7" y2="44"/>
	<line class="st0" x1="295.3" y1="55.1" x2="286.2" y2="57.6"/>
	<line class="st0" x1="287.7" y1="48.5" x2="279.7" y2="44"/>
	<line class="st0" x1="287.7" y1="48.5" x2="286.2" y2="57.6"/>
	<line class="st0" x1="286.5" y1="74.2" x2="273.8" y2="68.3"/>
	<line class="st0" x1="145.4" y1="141.2" x2="134.9" y2="135.7"/>
	<line class="st0" x1="288.3" y1="26" x2="291.3" y2="34"/>
	<line class="st0" x1="288.3" y1="26" x2="296.2" y2="22.2"/>
	<line class="st0" x1="242.7" y1="85.2" x2="238.1" y2="69"/>
	<line class="st0" x1="242.7" y1="85.2" x2="229.4" y2="82.1"/>
	<line class="st0" x1="242.7" y1="85.2" x2="208.6" y2="61.9"/>
	<line class="st0" x1="242.7" y1="85.2" x2="231.1" y2="74"/>
	<line class="st0" x1="242.7" y1="85.2" x2="263.1" y2="81.8"/>
	<line class="st0" x1="242.7" y1="85.2" x2="246" y2="64.6"/>
	<line class="st0" x1="242.7" y1="85.2" x2="220.7" y2="80"/>
	<line class="st0" x1="242.7" y1="85.2" x2="205.3" y2="76.2"/>
	<line class="st0" x1="242.7" y1="85.2" x2="239.3" y2="60"/>
	<line class="st0" x1="242.7" y1="85.2" x2="218" y2="52.5"/>
	<line class="st0" x1="242.7" y1="85.2" x2="213.9" y2="74.5"/>
	<line class="st0" x1="242.7" y1="85.2" x2="252.8" y2="49.5"/>
	<line class="st0" x1="242.7" y1="85.2" x2="260.7" y2="68.2"/>
	<line class="st0" x1="242.7" y1="85.2" x2="253.8" y2="61.2"/>
	<line class="st0" x1="242.7" y1="85.2" x2="247.3" y2="77"/>
	<line class="st0" x1="242.7" y1="85.2" x2="255.4" y2="77.7"/>
	<line class="st0" x1="294.3" y1="42.8" x2="288.3" y2="26"/>
	<line class="st0" x1="294.3" y1="42.8" x2="291.3" y2="34"/>
	<line class="st0" x1="294.3" y1="42.8" x2="296.2" y2="22.2"/>
	<line class="st0" x1="238.1" y1="69" x2="229.4" y2="82.1"/>
	<line class="st0" x1="238.1" y1="69" x2="208.6" y2="61.9"/>
	<line class="st0" x1="238.1" y1="69" x2="231.1" y2="74"/>
	<line class="st0" x1="238.1" y1="69" x2="263.1" y2="81.8"/>
	<line class="st0" x1="238.1" y1="69" x2="246" y2="64.6"/>
	<line class="st0" x1="238.1" y1="69" x2="220.7" y2="80"/>
	<line class="st0" x1="238.1" y1="69" x2="205.3" y2="76.2"/>
	<line class="st0" x1="238.1" y1="69" x2="239.3" y2="60"/>
	<line class="st0" x1="238.1" y1="69" x2="218" y2="52.5"/>
	<line class="st0" x1="238.1" y1="69" x2="213.9" y2="74.5"/>
	<line class="st0" x1="238.1" y1="69" x2="252.8" y2="49.5"/>
	<line class="st0" x1="238.1" y1="69" x2="260.7" y2="68.2"/>
	<line class="st0" x1="238.1" y1="69" x2="253.8" y2="61.2"/>
	<line class="st0" x1="238.1" y1="69" x2="247.3" y2="77"/>
	<line class="st0" x1="238.1" y1="69" x2="255.4" y2="77.7"/>
	<line class="st0" x1="229.4" y1="82.1" x2="208.6" y2="61.9"/>
	<line class="st0" x1="229.4" y1="82.1" x2="231.1" y2="74"/>
	<line class="st0" x1="229.4" y1="82.1" x2="263.1" y2="81.8"/>
	<line class="st0" x1="229.4" y1="82.1" x2="246" y2="64.6"/>
	<line class="st0" x1="229.4" y1="82.1" x2="220.7" y2="80"/>
	<line class="st0" x1="229.4" y1="82.1" x2="205.3" y2="76.2"/>
	<line class="st0" x1="229.4" y1="82.1" x2="239.3" y2="60"/>
	<line class="st0" x1="229.4" y1="82.1" x2="218" y2="52.5"/>
	<line class="st0" x1="229.4" y1="82.1" x2="213.9" y2="74.5"/>
	<line class="st0" x1="229.4" y1="82.1" x2="252.8" y2="49.5"/>
	<line class="st0" x1="229.4" y1="82.1" x2="260.7" y2="68.2"/>
	<line class="st0" x1="229.4" y1="82.1" x2="253.8" y2="61.2"/>
	<line class="st0" x1="229.4" y1="82.1" x2="247.3" y2="77"/>
	<line class="st0" x1="229.4" y1="82.1" x2="255.4" y2="77.7"/>
	<line class="st0" x1="296.2" y1="22.2" x2="291.3" y2="34"/>
	<line class="st0" x1="208.6" y1="61.9" x2="231.1" y2="74"/>
	<line class="st0" x1="208.6" y1="61.9" x2="263.1" y2="81.8"/>
	<line class="st0" x1="208.6" y1="61.9" x2="246" y2="64.6"/>
	<line class="st0" x1="208.6" y1="61.9" x2="220.7" y2="80"/>
	<line class="st0" x1="208.6" y1="61.9" x2="205.3" y2="76.2"/>
	<line class="st0" x1="208.6" y1="61.9" x2="239.3" y2="60"/>
	<line class="st0" x1="208.6" y1="61.9" x2="218" y2="52.5"/>
	<line class="st0" x1="208.6" y1="61.9" x2="213.9" y2="74.5"/>
	<line class="st0" x1="208.6" y1="61.9" x2="252.8" y2="49.5"/>
	<line class="st0" x1="208.6" y1="61.9" x2="260.7" y2="68.2"/>
	<line class="st0" x1="208.6" y1="61.9" x2="253.8" y2="61.2"/>
	<line class="st0" x1="208.6" y1="61.9" x2="247.3" y2="77"/>
	<line class="st0" x1="208.6" y1="61.9" x2="255.4" y2="77.7"/>
	<line class="st0" x1="222.1" y1="71.8" x2="242.7" y2="85.2"/>
	<line class="st0" x1="222.1" y1="71.8" x2="238.1" y2="69"/>
	<line class="st0" x1="222.1" y1="71.8" x2="229.4" y2="82.1"/>
	<line class="st0" x1="222.1" y1="71.8" x2="208.6" y2="61.9"/>
	<line class="st0" x1="222.1" y1="71.8" x2="231.1" y2="74"/>
	<line class="st0" x1="222.1" y1="71.8" x2="263.1" y2="81.8"/>
	<line class="st0" x1="222.1" y1="71.8" x2="246" y2="64.6"/>
	<line class="st0" x1="222.1" y1="71.8" x2="220.7" y2="80"/>
	<line class="st0" x1="222.1" y1="71.8" x2="205.3" y2="76.2"/>
	<line class="st0" x1="222.1" y1="71.8" x2="239.3" y2="60"/>
	<line class="st0" x1="222.1" y1="71.8" x2="218" y2="52.5"/>
	<line class="st0" x1="222.1" y1="71.8" x2="213.9" y2="74.5"/>
	<line class="st0" x1="222.1" y1="71.8" x2="252.8" y2="49.5"/>
	<line class="st0" x1="222.1" y1="71.8" x2="260.7" y2="68.2"/>
	<line class="st0" x1="222.1" y1="71.8" x2="253.8" y2="61.2"/>
	<line class="st0" x1="222.1" y1="71.8" x2="247.3" y2="77"/>
	<line class="st0" x1="222.1" y1="71.8" x2="255.4" y2="77.7"/>
	<line class="st0" x1="231.1" y1="74" x2="263.1" y2="81.8"/>
	<line class="st0" x1="231.1" y1="74" x2="246" y2="64.6"/>
	<line class="st0" x1="231.1" y1="74" x2="220.7" y2="80"/>
	<line class="st0" x1="231.1" y1="74" x2="205.3" y2="76.2"/>
	<line class="st0" x1="231.1" y1="74" x2="239.3" y2="60"/>
	<line class="st0" x1="231.1" y1="74" x2="218" y2="52.5"/>
	<line class="st0" x1="231.1" y1="74" x2="213.9" y2="74.5"/>
	<line class="st0" x1="231.1" y1="74" x2="252.8" y2="49.5"/>
	<line class="st0" x1="231.1" y1="74" x2="260.7" y2="68.2"/>
	<line class="st0" x1="231.1" y1="74" x2="253.8" y2="61.2"/>
	<line class="st0" x1="231.1" y1="74" x2="247.3" y2="77"/>
	<line class="st0" x1="231.1" y1="74" x2="255.4" y2="77.7"/>
	<line class="st0" x1="221" y1="185.3" x2="226.2" y2="174.7"/>
	<line class="st0" x1="226.2" y1="174.7" x2="218.5" y2="203.3"/>
	<line class="st0" x1="226.2" y1="174.7" x2="228.8" y2="200"/>
	<line class="st0" x1="226.2" y1="174.7" x2="237.3" y2="214.1"/>
	<line class="st0" x1="226.2" y1="174.7" x2="231.7" y2="208.3"/>
	<line class="st0" x1="226.2" y1="174.7" x2="247.5" y2="203.7"/>
	<line class="st0" x1="226.2" y1="174.7" x2="256.2" y2="201.6"/>
	<line class="st0" x1="226.2" y1="174.7" x2="239.6" y2="205.2"/>
	<line class="st0" x1="226.2" y1="174.7" x2="171.7" y2="144.6"/>
	<line class="st0" x1="226.2" y1="174.7" x2="242.7" y2="182.1"/>
	<line class="st0" x1="226.2" y1="174.7" x2="237.4" y2="188.5"/>
	<line class="st0" x1="226.2" y1="174.7" x2="248.3" y2="188.1"/>
	<line class="st0" x1="226.2" y1="174.7" x2="191.6" y2="181.9"/>
	<line class="st0" x1="226.2" y1="174.7" x2="201.9" y2="188"/>
	<line class="st0" x1="226.2" y1="174.7" x2="192.7" y2="189.9"/>
	<line class="st0" x1="226.2" y1="174.7" x2="199.7" y2="179.4"/>
	<line class="st0" x1="226.2" y1="174.7" x2="208.6" y2="223"/>
	<line class="st0" x1="226.2" y1="174.7" x2="212.7" y2="183.5"/>
	<line class="st0" x1="226.2" y1="174.7" x2="121.8" y2="104.2"/>
	<line class="st0" x1="226.2" y1="174.7" x2="231.2" y2="182.5"/>
	<line class="st0" x1="226.2" y1="174.7" x2="236.5" y2="197.6"/>
	<line class="st0" x1="226.2" y1="174.7" x2="213.3" y2="191.6"/>
	<line class="st0" x1="226.2" y1="174.7" x2="245" y2="195.6"/>
	<line class="st0" x1="226.2" y1="174.7" x2="229" y2="191"/>
	<line class="st0" x1="226.2" y1="174.7" x2="219.4" y2="226.5"/>
	<line class="st0" x1="226.2" y1="174.7" x2="212.2" y2="231.1"/>
	<line class="st0" x1="226.2" y1="174.7" x2="165.1" y2="326.8"/>
	<line class="st0" x1="226.2" y1="174.7" x2="217.6" y2="176.8"/>
	<line class="st0" x1="226.2" y1="174.7" x2="222" y2="195"/>
	<line class="st0" x1="121.8" y1="104.2" x2="135.1" y2="93.1"/>
	<line class="st0" x1="121.8" y1="104.2" x2="140.4" y2="114.2"/>
	<line class="st0" x1="121.8" y1="104.2" x2="134.4" y2="108.6"/>
	<line class="st0" x1="121.8" y1="104.2" x2="126.7" y2="111.8"/>
	<line class="st0" x1="121.8" y1="104.2" x2="150.9" y2="155.6"/>
	<line class="st0" x1="121.8" y1="104.2" x2="128.4" y2="150.2"/>
	<line class="st0" x1="121.8" y1="104.2" x2="130.5" y2="100.6"/>
	<line class="st0" x1="278.4" y1="75.9" x2="280.4" y2="85"/>
	<line class="st0" x1="278.4" y1="75.9" x2="267.8" y2="74.2"/>
	<line class="st0" x1="278.4" y1="75.9" x2="271.6" y2="82"/>
	<line class="st0" x1="263.1" y1="81.8" x2="246" y2="64.6"/>
	<line class="st0" x1="263.1" y1="81.8" x2="239.3" y2="60"/>
	<line class="st0" x1="263.1" y1="81.8" x2="218" y2="52.5"/>
	<line class="st0" x1="263.1" y1="81.8" x2="213.9" y2="74.5"/>
	<line class="st0" x1="263.1" y1="81.8" x2="252.8" y2="49.5"/>
	<line class="st0" x1="263.1" y1="81.8" x2="247.3" y2="77"/>
	<line class="st0" x1="263.1" y1="81.8" x2="255.4" y2="77.7"/>
	<line class="st0" x1="246" y1="64.6" x2="239.3" y2="60"/>
	<line class="st0" x1="246" y1="64.6" x2="218" y2="52.5"/>
	<line class="st0" x1="246" y1="64.6" x2="213.9" y2="74.5"/>
	<line class="st0" x1="246" y1="64.6" x2="252.8" y2="49.5"/>
	<line class="st0" x1="246" y1="64.6" x2="247.3" y2="77"/>
	<line class="st0" x1="246" y1="64.6" x2="255.4" y2="77.7"/>
	<line class="st0" x1="220.7" y1="80" x2="263.1" y2="81.8"/>
	<line class="st0" x1="220.7" y1="80" x2="246" y2="64.6"/>
	<line class="st0" x1="220.7" y1="80" x2="205.3" y2="76.2"/>
	<line class="st0" x1="220.7" y1="80" x2="239.3" y2="60"/>
	<line class="st0" x1="220.7" y1="80" x2="218" y2="52.5"/>
	<line class="st0" x1="220.7" y1="80" x2="213.9" y2="74.5"/>
	<line class="st0" x1="220.7" y1="80" x2="252.8" y2="49.5"/>
	<line class="st0" x1="220.7" y1="80" x2="247.3" y2="77"/>
	<line class="st0" x1="220.7" y1="80" x2="255.4" y2="77.7"/>
	<line class="st0" x1="155" y1="311" x2="201.6" y2="299.1"/>
	<line class="st0" x1="155" y1="311" x2="183.2" y2="287.8"/>
	<line class="st0" x1="155" y1="311" x2="135.1" y2="93.1"/>
	<line class="st0" x1="155" y1="311" x2="185.9" y2="305.6"/>
	<line class="st0" x1="155" y1="311" x2="177.2" y2="303.1"/>
	<line class="st0" x1="155" y1="311" x2="178.2" y2="294.1"/>
	<line class="st0" x1="155" y1="311" x2="169.5" y2="305.9"/>
	<line class="st0" x1="155" y1="311" x2="168.1" y2="297.3"/>
	<line class="st0" x1="155" y1="311" x2="132.2" y2="288.9"/>
	<line class="st0" x1="155" y1="311" x2="144.3" y2="266.2"/>
	<line class="st0" x1="155" y1="311" x2="148.5" y2="280.2"/>
	<line class="st0" x1="155" y1="311" x2="124" y2="285.7"/>
	<line class="st0" x1="155" y1="311" x2="131.9" y2="280.4"/>
	<line class="st0" x1="155" y1="311" x2="192.7" y2="310.8"/>
	<line class="st0" x1="155" y1="311" x2="205.9" y2="313"/>
	<line class="st0" x1="155" y1="311" x2="193.4" y2="301.5"/>
	<line class="st0" x1="155" y1="311" x2="140.3" y2="283.1"/>
	<line class="st0" x1="155" y1="311" x2="200.1" y2="307"/>
	<line class="st0" x1="155" y1="311" x2="195.5" y2="318.5"/>
	<line class="st0" x1="155" y1="311" x2="198.1" y2="326.4"/>
	<line class="st0" x1="155" y1="311" x2="190.5" y2="328.8"/>
	<line class="st0" x1="155" y1="311" x2="196.4" y2="335.1"/>
	<line class="st0" x1="155" y1="311" x2="184.7" y2="322.6"/>
	<line class="st0" x1="155" y1="311" x2="205" y2="321.3"/>
	<line class="st0" x1="155" y1="311" x2="150.1" y2="288.3"/>
	<line class="st0" x1="155" y1="311" x2="130.4" y2="272.2"/>
	<line class="st0" x1="155" y1="311" x2="124.1" y2="277.5"/>
	<line class="st0" x1="155" y1="311" x2="140.3" y2="274.8"/>
	<line class="st0" x1="155" y1="311" x2="122.9" y2="267.2"/>
	<line class="st0" x1="155" y1="311" x2="123.2" y2="295.2"/>
	<line class="st0" x1="155" y1="311" x2="141.3" y2="292.2"/>
	<line class="st0" x1="155" y1="311" x2="135.8" y2="265.7"/>
	<line class="st0" x1="155" y1="311" x2="200" y2="289.8"/>
	<line class="st0" x1="155" y1="311" x2="175.8" y2="312.8"/>
	<line class="st0" x1="155" y1="311" x2="151.6" y2="303.2"/>
	<line class="st0" x1="155" y1="311" x2="191.5" y2="289.8"/>
	<line class="st0" x1="155" y1="311" x2="208.6" y2="223"/>
	<line class="st0" x1="155" y1="311" x2="152.6" y2="324.1"/>
	<line class="st0" x1="155" y1="311" x2="179.9" y2="275"/>
	<line class="st0" x1="155" y1="311" x2="176.4" y2="323.5"/>
	<line class="st0" x1="155" y1="311" x2="171.4" y2="289.4"/>
	<line class="st0" x1="155" y1="311" x2="146.2" y2="311.6"/>
	<line class="st0" x1="155" y1="311" x2="253.8" y2="61.2"/>
	<line class="st0" x1="155" y1="311" x2="181.3" y2="331"/>
	<line class="st0" x1="155" y1="311" x2="157.7" y2="284.4"/>
	<line class="st0" x1="155" y1="311" x2="183.9" y2="314.4"/>
	<line class="st0" x1="155" y1="311" x2="162.4" y2="290.9"/>
	<line class="st0" x1="155" y1="311" x2="186.2" y2="280.4"/>
	<line class="st0" x1="155" y1="311" x2="163.5" y2="311.3"/>
	<line class="st0" x1="155" y1="311" x2="166.5" y2="281.4"/>
	<line class="st0" x1="155" y1="311" x2="142.3" y2="302.3"/>
	<line class="st0" x1="155" y1="311" x2="176.3" y2="282.7"/>
	<line class="st0" x1="155" y1="311" x2="185.9" y2="297.1"/>
	<line class="st0" x1="155" y1="311" x2="155.5" y2="295.6"/>
	<line class="st0" x1="155" y1="311" x2="159.9" y2="319.1"/>
	<line class="st0" x1="155" y1="311" x2="260.7" y2="56.7"/>
	<line class="st0" x1="155" y1="311" x2="144.8" y2="320.4"/>
	<line class="st0" x1="155" y1="311" x2="165.1" y2="326.8"/>
	<line class="st0" x1="155" y1="311" x2="161.3" y2="302.6"/>
	<line class="st0" x1="155" y1="311" x2="169.4" y2="319.2"/>
	<line class="st0" x1="205.3" y1="76.2" x2="263.1" y2="81.8"/>
	<line class="st0" x1="205.3" y1="76.2" x2="246" y2="64.6"/>
	<line class="st0" x1="205.3" y1="76.2" x2="239.3" y2="60"/>
	<line class="st0" x1="205.3" y1="76.2" x2="218" y2="52.5"/>
	<line class="st0" x1="205.3" y1="76.2" x2="213.9" y2="74.5"/>
	<line class="st0" x1="205.3" y1="76.2" x2="252.8" y2="49.5"/>
	<line class="st0" x1="205.3" y1="76.2" x2="247.3" y2="77"/>
	<line class="st0" x1="205.3" y1="76.2" x2="255.4" y2="77.7"/>
	<line class="st0" x1="239.3" y1="60" x2="218" y2="52.5"/>
	<line class="st0" x1="239.3" y1="60" x2="247.3" y2="77"/>
	<line class="st0" x1="239.3" y1="60" x2="255.4" y2="77.7"/>
	<line class="st0" x1="218" y1="52.5" x2="247.3" y2="77"/>
	<line class="st0" x1="218" y1="52.5" x2="255.4" y2="77.7"/>
	<line class="st0" x1="213.9" y1="74.5" x2="140.4" y2="114.2"/>
	<line class="st0" x1="213.9" y1="74.5" x2="239.3" y2="60"/>
	<line class="st0" x1="213.9" y1="74.5" x2="218" y2="52.5"/>
	<line class="st0" x1="213.9" y1="74.5" x2="252.8" y2="49.5"/>
	<line class="st0" x1="213.9" y1="74.5" x2="247.3" y2="77"/>
	<line class="st0" x1="213.9" y1="74.5" x2="255.4" y2="77.7"/>
	<line class="st0" x1="213.9" y1="74.5" x2="145.3" y2="106"/>
	<line class="st0" x1="213.9" y1="74.5" x2="142.3" y2="97.8"/>
	<line class="st0" x1="252.8" y1="49.5" x2="239.3" y2="60"/>
	<line class="st0" x1="252.8" y1="49.5" x2="218" y2="52.5"/>
	<line class="st0" x1="252.8" y1="49.5" x2="247.3" y2="77"/>
	<line class="st0" x1="252.8" y1="49.5" x2="255.4" y2="77.7"/>
	<line class="st0" x1="279.6" y1="27.1" x2="288.3" y2="26"/>
	<line class="st0" x1="279.6" y1="27.1" x2="294.3" y2="42.8"/>
	<line class="st0" x1="279.6" y1="27.1" x2="291.3" y2="34"/>
	<line class="st0" x1="279.6" y1="27.1" x2="296.2" y2="22.2"/>
	<line class="st0" x1="279.6" y1="27.1" x2="282.7" y2="35.4"/>
	<line class="st0" x1="282.7" y1="35.4" x2="288.3" y2="26"/>
	<line class="st0" x1="282.7" y1="35.4" x2="294.3" y2="42.8"/>
	<line class="st0" x1="282.7" y1="35.4" x2="291.3" y2="34"/>
	<line class="st0" x1="282.7" y1="35.4" x2="296.2" y2="22.2"/>
	<line class="st0" x1="116.9" y1="53.7" x2="107.3" y2="55.1"/>
	<line class="st0" x1="110.9" y1="47" x2="116.9" y2="53.7"/>
	<line class="st0" x1="110.9" y1="47" x2="107.3" y2="55.1"/>
	<line class="st0" x1="110.9" y1="47" x2="121.5" y2="39.2"/>
	<line class="st0" x1="260.7" y1="68.2" x2="263.1" y2="81.8"/>
	<line class="st0" x1="260.7" y1="68.2" x2="246" y2="64.6"/>
	<line class="st0" x1="260.7" y1="68.2" x2="220.7" y2="80"/>
	<line class="st0" x1="260.7" y1="68.2" x2="205.3" y2="76.2"/>
	<line class="st0" x1="260.7" y1="68.2" x2="239.3" y2="60"/>
	<line class="st0" x1="260.7" y1="68.2" x2="218" y2="52.5"/>
	<line class="st0" x1="260.7" y1="68.2" x2="213.9" y2="74.5"/>
	<line class="st0" x1="260.7" y1="68.2" x2="252.8" y2="49.5"/>
	<line class="st0" x1="260.7" y1="68.2" x2="247.3" y2="77"/>
	<line class="st0" x1="260.7" y1="68.2" x2="255.4" y2="77.7"/>
	<line class="st0" x1="121.5" y1="39.2" x2="116.9" y2="53.7"/>
	<line class="st0" x1="121.5" y1="39.2" x2="107.3" y2="55.1"/>
	<line class="st0" x1="253.8" y1="61.2" x2="263.1" y2="81.8"/>
	<line class="st0" x1="253.8" y1="61.2" x2="246" y2="64.6"/>
	<line class="st0" x1="253.8" y1="61.2" x2="220.7" y2="80"/>
	<line class="st0" x1="253.8" y1="61.2" x2="205.3" y2="76.2"/>
	<line class="st0" x1="253.8" y1="61.2" x2="239.3" y2="60"/>
	<line class="st0" x1="253.8" y1="61.2" x2="218" y2="52.5"/>
	<line class="st0" x1="253.8" y1="61.2" x2="213.9" y2="74.5"/>
	<line class="st0" x1="253.8" y1="61.2" x2="252.8" y2="49.5"/>
	<line class="st0" x1="253.8" y1="61.2" x2="260.7" y2="68.2"/>
	<line class="st0" x1="253.8" y1="61.2" x2="247.3" y2="77"/>
	<line class="st0" x1="253.8" y1="61.2" x2="255.4" y2="77.7"/>
	<line class="st0" x1="253.8" y1="61.2" x2="260.7" y2="56.7"/>
	<line class="st0" x1="88.3" y1="70.2" x2="88.7" y2="55.5"/>
	<line class="st0" x1="88.3" y1="70.2" x2="101.6" y2="24"/>
	<line class="st0" x1="181.3" y1="331" x2="195.5" y2="318.5"/>
	<line class="st0" x1="181.3" y1="331" x2="198.1" y2="326.4"/>
	<line class="st0" x1="181.3" y1="331" x2="190.5" y2="328.8"/>
	<line class="st0" x1="181.3" y1="331" x2="196.4" y2="335.1"/>
	<line class="st0" x1="181.3" y1="331" x2="184.7" y2="322.6"/>
	<line class="st0" x1="181.3" y1="331" x2="205" y2="321.3"/>
	<line class="st0" x1="181.3" y1="331" x2="200" y2="289.8"/>
	<line class="st0" x1="181.3" y1="331" x2="191.5" y2="289.8"/>
	<line class="st0" x1="181.3" y1="331" x2="183.9" y2="314.4"/>
	<line class="st0" x1="296.7" y1="66.9" x2="303.4" y2="61.5"/>
	<line class="st0" x1="296.7" y1="66.9" x2="287.5" y2="66"/>
	<line class="st0" x1="252.2" y1="69.8" x2="236.6" y2="101.3"/>
	<line class="st0" x1="252.2" y1="69.8" x2="306.3" y2="101.8"/>
	<line class="st0" x1="252.2" y1="69.8" x2="281.6" y2="93.4"/>
	<line class="st0" x1="252.2" y1="69.8" x2="288.2" y2="98.3"/>
	<line class="st0" x1="252.2" y1="69.8" x2="222.7" y2="104.3"/>
	<line class="st0" x1="252.2" y1="69.8" x2="303.4" y2="61.5"/>
	<line class="st0" x1="252.2" y1="69.8" x2="212.9" y2="82.7"/>
	<line class="st0" x1="252.2" y1="69.8" x2="239.1" y2="77.7"/>
	<line class="st0" x1="252.2" y1="69.8" x2="296.3" y2="74.9"/>
	<line class="st0" x1="252.2" y1="69.8" x2="267.1" y2="63"/>
	<line class="st0" x1="252.2" y1="69.8" x2="278.4" y2="61.4"/>
	<line class="st0" x1="252.2" y1="69.8" x2="270.6" y2="55.4"/>
	<line class="st0" x1="252.2" y1="69.8" x2="280.4" y2="85"/>
	<line class="st0" x1="252.2" y1="69.8" x2="251.7" y2="85.5"/>
	<line class="st0" x1="252.2" y1="69.8" x2="233.1" y2="89.7"/>
	<line class="st0" x1="252.2" y1="69.8" x2="267.8" y2="74.2"/>
	<line class="st0" x1="252.2" y1="69.8" x2="228.1" y2="97.4"/>
	<line class="st0" x1="252.2" y1="69.8" x2="271.6" y2="82"/>
	<line class="st0" x1="252.2" y1="69.8" x2="295.3" y2="55.1"/>
	<line class="st0" x1="252.2" y1="69.8" x2="287.7" y2="48.5"/>
	<line class="st0" x1="252.2" y1="69.8" x2="250.2" y2="93.8"/>
	<line class="st0" x1="252.2" y1="69.8" x2="286.5" y2="74.2"/>
	<line class="st0" x1="252.2" y1="69.8" x2="288.3" y2="26"/>
	<line class="st0" x1="252.2" y1="69.8" x2="242.7" y2="85.2"/>
	<line class="st0" x1="252.2" y1="69.8" x2="294.3" y2="42.8"/>
	<line class="st0" x1="252.2" y1="69.8" x2="238.1" y2="69"/>
	<line class="st0" x1="252.2" y1="69.8" x2="291.3" y2="34"/>
	<line class="st0" x1="252.2" y1="69.8" x2="229.4" y2="82.1"/>
	<line class="st0" x1="252.2" y1="69.8" x2="296.2" y2="22.2"/>
	<line class="st0" x1="252.2" y1="69.8" x2="208.6" y2="61.9"/>
	<line class="st0" x1="252.2" y1="69.8" x2="279.1" y2="52.6"/>
	<line class="st0" x1="252.2" y1="69.8" x2="273.8" y2="68.3"/>
	<line class="st0" x1="252.2" y1="69.8" x2="222.1" y2="71.8"/>
	<line class="st0" x1="252.2" y1="69.8" x2="231.1" y2="74"/>
	<line class="st0" x1="252.2" y1="69.8" x2="279.7" y2="44"/>
	<line class="st0" x1="252.2" y1="69.8" x2="278.4" y2="75.9"/>
	<line class="st0" x1="252.2" y1="69.8" x2="263.1" y2="81.8"/>
	<line class="st0" x1="252.2" y1="69.8" x2="246" y2="64.6"/>
	<line class="st0" x1="252.2" y1="69.8" x2="220.7" y2="80"/>
	<line class="st0" x1="252.2" y1="69.8" x2="205.3" y2="76.2"/>
	<line class="st0" x1="252.2" y1="69.8" x2="230.1" y2="108.2"/>
	<line class="st0" x1="252.2" y1="69.8" x2="239.3" y2="60"/>
	<line class="st0" x1="252.2" y1="69.8" x2="218" y2="52.5"/>
	<line class="st0" x1="252.2" y1="69.8" x2="213.9" y2="74.5"/>
	<line class="st0" x1="252.2" y1="69.8" x2="245.5" y2="101.2"/>
	<line class="st0" x1="252.2" y1="69.8" x2="252.8" y2="49.5"/>
	<line class="st0" x1="252.2" y1="69.8" x2="279.6" y2="27.1"/>
	<line class="st0" x1="252.2" y1="69.8" x2="282.7" y2="35.4"/>
	<line class="st0" x1="252.2" y1="69.8" x2="260.7" y2="68.2"/>
	<line class="st0" x1="252.2" y1="69.8" x2="253.8" y2="61.2"/>
	<line class="st0" x1="252.2" y1="69.8" x2="296.7" y2="66.9"/>
	<line class="st0" x1="252.2" y1="69.8" x2="287.5" y2="66"/>
	<line class="st0" x1="252.2" y1="69.8" x2="240.4" y2="94.3"/>
	<line class="st0" x1="252.2" y1="69.8" x2="247.3" y2="77"/>
	<line class="st0" x1="252.2" y1="69.8" x2="286.2" y2="57.6"/>
	<line class="st0" x1="252.2" y1="69.8" x2="255.4" y2="77.7"/>
	<line class="st0" x1="252.2" y1="69.8" x2="258.5" y2="41.9"/>
	<line class="st0" x1="252.2" y1="69.8" x2="216.1" y2="65.3"/>
	<line class="st0" x1="252.2" y1="69.8" x2="222.4" y2="59.3"/>
	<line class="st0" x1="252.2" y1="69.8" x2="230.4" y2="56.8"/>
	<line class="st0" x1="252.2" y1="69.8" x2="239.4" y2="50.1"/>
	<line class="st0" x1="252.2" y1="69.8" x2="209.1" y2="49.9"/>
	<line class="st0" x1="252.2" y1="69.8" x2="222.3" y2="45.8"/>
	<line class="st0" x1="252.2" y1="69.8" x2="228.6" y2="65.5"/>
	<line class="st0" x1="252.2" y1="69.8" x2="231.1" y2="48.7"/>
	<line class="st0" x1="252.2" y1="69.8" x2="222.5" y2="37.3"/>
	<line class="st0" x1="252.2" y1="69.8" x2="242.1" y2="41.7"/>
	<line class="st0" x1="252.2" y1="69.8" x2="233.6" y2="40.2"/>
	<line class="st0" x1="252.2" y1="69.8" x2="246.8" y2="54.9"/>
	<line class="st0" x1="252.2" y1="69.8" x2="288.4" y2="84.4"/>
	<line class="st0" x1="252.2" y1="69.8" x2="293.9" y2="92.1"/>
	<line class="st0" x1="252.2" y1="69.8" x2="298.1" y2="99.4"/>
	<line class="st0" x1="252.2" y1="69.8" x2="307.3" y2="82.8"/>
	<line class="st0" x1="252.2" y1="69.8" x2="212.1" y2="91.3"/>
	<line class="st0" x1="252.2" y1="69.8" x2="223.8" y2="88.4"/>
	<line class="st0" x1="252.2" y1="69.8" x2="296.9" y2="82.9"/>
	<line class="st0" x1="252.2" y1="69.8" x2="302.4" y2="90.8"/>
	<line class="st0" x1="252.2" y1="69.8" x2="310.2" y2="93.9"/>
	<line class="st0" x1="252.2" y1="69.8" x2="274.5" y2="37.7"/>
	<line class="st0" x1="252.2" y1="69.8" x2="262.4" y2="29.2"/>
	<line class="st0" x1="252.2" y1="69.8" x2="265.7" y2="38"/>
	<line class="st0" x1="252.2" y1="69.8" x2="271.2" y2="29.8"/>
	<line class="st0" x1="252.2" y1="69.8" x2="270.6" y2="46.1"/>
	<line class="st0" x1="219.5" y1="96.9" x2="252.2" y2="69.8"/>
	<line class="st0" x1="137.4" y1="143.8" x2="171.7" y2="144.6"/>
	<line class="st0" x1="137.4" y1="143.8" x2="189.4" y2="173"/>
	<line class="st0" x1="137.4" y1="143.8" x2="191.6" y2="181.9"/>
	<line class="st0" x1="137.4" y1="143.8" x2="201.9" y2="188"/>
	<line class="st0" x1="137.4" y1="143.8" x2="128.7" y2="141.7"/>
	<line class="st0" x1="137.4" y1="143.8" x2="145.4" y2="141.2"/>
	<line class="st0" x1="137.4" y1="143.8" x2="134.9" y2="135.7"/>
	<line class="st0" x1="137.4" y1="143.8" x2="226.2" y2="174.7"/>
	<line class="st0" x1="137.4" y1="143.8" x2="121.8" y2="104.2"/>
	<line class="st0" x1="137.4" y1="143.8" x2="137.4" y2="152.4"/>
	<line class="st0" x1="137.4" y1="143.8" x2="163.2" y2="143.7"/>
	<line class="st0" x1="137.4" y1="143.8" x2="153.8" y2="143"/>
	<line class="st0" x1="137.4" y1="143.8" x2="150.9" y2="155.6"/>
	<line class="st0" x1="137.4" y1="143.8" x2="128.4" y2="150.2"/>
	<line class="st0" x1="137.4" y1="143.8" x2="160.7" y2="135.4"/>
	<line class="st0" x1="137.4" y1="143.8" x2="145.4" y2="149.6"/>
	<line class="st0" x1="137.4" y1="143.8" x2="158.4" y2="151"/>
	<line class="st0" x1="137.4" y1="143.8" x2="158.6" y2="127.2"/>
	<line class="st0" x1="137.4" y1="143.8" x2="142.8" y2="133.5"/>
	<line class="st0" x1="137.4" y1="143.8" x2="151.2" y2="134.9"/>
	<line class="st0" x1="137.4" y1="143.8" x2="131.5" y2="128.4"/>
	<line class="st0" x1="137.4" y1="143.8" x2="149.2" y2="126.3"/>
	<line class="st0" x1="137.4" y1="143.8" x2="135.5" y2="160.7"/>
	<line class="st0" x1="137.4" y1="143.8" x2="140.5" y2="125"/>
	<line class="st0" x1="137.4" y1="143.8" x2="144.9" y2="161"/>
	<line class="st0" x1="97.4" y1="54.7" x2="240.4" y2="94.3"/>
	<line class="st0" x1="240.4" y1="94.3" x2="242.7" y2="85.2"/>
	<line class="st0" x1="240.4" y1="94.3" x2="238.1" y2="69"/>
	<line class="st0" x1="240.4" y1="94.3" x2="229.4" y2="82.1"/>
	<line class="st0" x1="240.4" y1="94.3" x2="208.6" y2="61.9"/>
	<line class="st0" x1="240.4" y1="94.3" x2="222.1" y2="71.8"/>
	<line class="st0" x1="240.4" y1="94.3" x2="231.1" y2="74"/>
	<line class="st0" x1="240.4" y1="94.3" x2="263.1" y2="81.8"/>
	<line class="st0" x1="240.4" y1="94.3" x2="246" y2="64.6"/>
	<line class="st0" x1="240.4" y1="94.3" x2="220.7" y2="80"/>
	<line class="st0" x1="240.4" y1="94.3" x2="205.3" y2="76.2"/>
	<line class="st0" x1="240.4" y1="94.3" x2="239.3" y2="60"/>
	<line class="st0" x1="240.4" y1="94.3" x2="218" y2="52.5"/>
	<line class="st0" x1="240.4" y1="94.3" x2="213.9" y2="74.5"/>
	<line class="st0" x1="240.4" y1="94.3" x2="252.8" y2="49.5"/>
	<line class="st0" x1="240.4" y1="94.3" x2="260.7" y2="68.2"/>
	<line class="st0" x1="240.4" y1="94.3" x2="253.8" y2="61.2"/>
	<line class="st0" x1="240.4" y1="94.3" x2="247.3" y2="77"/>
	<line class="st0" x1="240.4" y1="94.3" x2="255.4" y2="77.7"/>
	<line class="st0" x1="240.4" y1="94.3" x2="233.6" y2="40.2"/>
	<line class="st0" x1="247.3" y1="77" x2="255.4" y2="77.7"/>
	<line class="st0" x1="286.2" y1="57.6" x2="303.4" y2="61.5"/>
	<line class="st0" x1="286.2" y1="57.6" x2="296.7" y2="66.9"/>
	<line class="st0" x1="286.2" y1="57.6" x2="287.5" y2="66"/>
	<line class="st0" x1="186.2" y1="280.4" x2="179.9" y2="275"/>
	<line class="st0" x1="222.4" y1="59.3" x2="216.1" y2="65.3"/>
	<line class="st0" x1="230.4" y1="56.8" x2="216.1" y2="65.3"/>
	<line class="st0" x1="230.4" y1="56.8" x2="222.4" y2="59.3"/>
	<line class="st0" x1="239.4" y1="50.1" x2="216.1" y2="65.3"/>
	<line class="st0" x1="239.4" y1="50.1" x2="222.4" y2="59.3"/>
	<line class="st0" x1="239.4" y1="50.1" x2="230.4" y2="56.8"/>
	<line class="st0" x1="209.1" y1="49.9" x2="216.1" y2="65.3"/>
	<line class="st0" x1="209.1" y1="49.9" x2="222.4" y2="59.3"/>
	<line class="st0" x1="209.1" y1="49.9" x2="230.4" y2="56.8"/>
	<line class="st0" x1="209.1" y1="49.9" x2="239.4" y2="50.1"/>
	<line class="st0" x1="209.1" y1="49.9" x2="222.3" y2="45.8"/>
	<line class="st0" x1="209.1" y1="49.9" x2="228.6" y2="65.5"/>
	<line class="st0" x1="222.3" y1="45.8" x2="216.1" y2="65.3"/>
	<line class="st0" x1="222.3" y1="45.8" x2="222.4" y2="59.3"/>
	<line class="st0" x1="222.3" y1="45.8" x2="230.4" y2="56.8"/>
	<line class="st0" x1="222.3" y1="45.8" x2="239.4" y2="50.1"/>
	<line class="st0" x1="228.6" y1="65.5" x2="216.1" y2="65.3"/>
	<line class="st0" x1="228.6" y1="65.5" x2="222.4" y2="59.3"/>
	<line class="st0" x1="228.6" y1="65.5" x2="230.4" y2="56.8"/>
	<line class="st0" x1="228.6" y1="65.5" x2="239.4" y2="50.1"/>
	<line class="st0" x1="228.6" y1="65.5" x2="222.3" y2="45.8"/>
	<line class="st0" x1="231.1" y1="48.7" x2="216.1" y2="65.3"/>
	<line class="st0" x1="231.1" y1="48.7" x2="222.4" y2="59.3"/>
	<line class="st0" x1="231.1" y1="48.7" x2="230.4" y2="56.8"/>
	<line class="st0" x1="231.1" y1="48.7" x2="239.4" y2="50.1"/>
	<line class="st0" x1="231.1" y1="48.7" x2="209.1" y2="49.9"/>
	<line class="st0" x1="231.1" y1="48.7" x2="222.3" y2="45.8"/>
	<line class="st0" x1="231.1" y1="48.7" x2="228.6" y2="65.5"/>
	<line class="st0" x1="222.5" y1="37.3" x2="216.1" y2="65.3"/>
	<line class="st0" x1="222.5" y1="37.3" x2="222.4" y2="59.3"/>
	<line class="st0" x1="222.5" y1="37.3" x2="230.4" y2="56.8"/>
	<line class="st0" x1="222.5" y1="37.3" x2="239.4" y2="50.1"/>
	<line class="st0" x1="222.5" y1="37.3" x2="209.1" y2="49.9"/>
	<line class="st0" x1="222.5" y1="37.3" x2="222.3" y2="45.8"/>
	<line class="st0" x1="222.5" y1="37.3" x2="228.6" y2="65.5"/>
	<line class="st0" x1="222.5" y1="37.3" x2="231.1" y2="48.7"/>
	<line class="st0" x1="242.1" y1="41.7" x2="216.1" y2="65.3"/>
	<line class="st0" x1="242.1" y1="41.7" x2="222.4" y2="59.3"/>
	<line class="st0" x1="242.1" y1="41.7" x2="230.4" y2="56.8"/>
	<line class="st0" x1="242.1" y1="41.7" x2="239.4" y2="50.1"/>
	<line class="st0" x1="242.1" y1="41.7" x2="209.1" y2="49.9"/>
	<line class="st0" x1="242.1" y1="41.7" x2="222.3" y2="45.8"/>
	<line class="st0" x1="242.1" y1="41.7" x2="228.6" y2="65.5"/>
	<line class="st0" x1="242.1" y1="41.7" x2="231.1" y2="48.7"/>
	<line class="st0" x1="242.1" y1="41.7" x2="222.5" y2="37.3"/>
	<line class="st0" x1="233.6" y1="40.2" x2="242.7" y2="85.2"/>
	<line class="st0" x1="233.6" y1="40.2" x2="238.1" y2="69"/>
	<line class="st0" x1="233.6" y1="40.2" x2="229.4" y2="82.1"/>
	<line class="st0" x1="233.6" y1="40.2" x2="208.6" y2="61.9"/>
	<line class="st0" x1="233.6" y1="40.2" x2="222.1" y2="71.8"/>
	<line class="st0" x1="233.6" y1="40.2" x2="231.1" y2="74"/>
	<line class="st0" x1="233.6" y1="40.2" x2="263.1" y2="81.8"/>
	<line class="st0" x1="233.6" y1="40.2" x2="246" y2="64.6"/>
	<line class="st0" x1="233.6" y1="40.2" x2="220.7" y2="80"/>
	<line class="st0" x1="233.6" y1="40.2" x2="205.3" y2="76.2"/>
	<line class="st0" x1="233.6" y1="40.2" x2="239.3" y2="60"/>
	<line class="st0" x1="233.6" y1="40.2" x2="218" y2="52.5"/>
	<line class="st0" x1="233.6" y1="40.2" x2="213.9" y2="74.5"/>
	<line class="st0" x1="233.6" y1="40.2" x2="252.8" y2="49.5"/>
	<line class="st0" x1="233.6" y1="40.2" x2="260.7" y2="68.2"/>
	<line class="st0" x1="233.6" y1="40.2" x2="253.8" y2="61.2"/>
	<line class="st0" x1="233.6" y1="40.2" x2="247.3" y2="77"/>
	<line class="st0" x1="233.6" y1="40.2" x2="255.4" y2="77.7"/>
	<line class="st0" x1="233.6" y1="40.2" x2="216.1" y2="65.3"/>
	<line class="st0" x1="233.6" y1="40.2" x2="222.4" y2="59.3"/>
	<line class="st0" x1="233.6" y1="40.2" x2="230.4" y2="56.8"/>
	<line class="st0" x1="233.6" y1="40.2" x2="239.4" y2="50.1"/>
	<line class="st0" x1="233.6" y1="40.2" x2="209.1" y2="49.9"/>
	<line class="st0" x1="233.6" y1="40.2" x2="222.3" y2="45.8"/>
	<line class="st0" x1="233.6" y1="40.2" x2="228.6" y2="65.5"/>
	<line class="st0" x1="233.6" y1="40.2" x2="231.1" y2="48.7"/>
	<line class="st0" x1="233.6" y1="40.2" x2="222.5" y2="37.3"/>
	<line class="st0" x1="233.6" y1="40.2" x2="242.1" y2="41.7"/>
	<line class="st0" x1="246.8" y1="54.9" x2="216.1" y2="65.3"/>
	<line class="st0" x1="246.8" y1="54.9" x2="222.4" y2="59.3"/>
	<line class="st0" x1="246.8" y1="54.9" x2="230.4" y2="56.8"/>
	<line class="st0" x1="246.8" y1="54.9" x2="239.4" y2="50.1"/>
	<line class="st0" x1="246.8" y1="54.9" x2="209.1" y2="49.9"/>
	<line class="st0" x1="246.8" y1="54.9" x2="222.3" y2="45.8"/>
	<line class="st0" x1="246.8" y1="54.9" x2="228.6" y2="65.5"/>
	<line class="st0" x1="246.8" y1="54.9" x2="231.1" y2="48.7"/>
	<line class="st0" x1="246.8" y1="54.9" x2="222.5" y2="37.3"/>
	<line class="st0" x1="246.8" y1="54.9" x2="242.1" y2="41.7"/>
	<line class="st0" x1="246.8" y1="54.9" x2="233.6" y2="40.2"/>
	<line class="st0" x1="153.8" y1="143" x2="163.2" y2="143.7"/>
	<line class="st0" x1="128.4" y1="150.2" x2="150.9" y2="155.6"/>
	<line class="st0" x1="176.3" y1="282.7" x2="186.2" y2="280.4"/>
	<line class="st0" x1="176.3" y1="282.7" x2="166.5" y2="281.4"/>
	<line class="st0" x1="236.5" y1="197.6" x2="242.7" y2="182.1"/>
	<line class="st0" x1="236.5" y1="197.6" x2="237.4" y2="188.5"/>
	<line class="st0" x1="236.5" y1="197.6" x2="248.3" y2="188.1"/>
	<line class="st0" x1="236.5" y1="197.6" x2="245" y2="195.6"/>
	<line class="st0" x1="288.4" y1="84.4" x2="306.3" y2="101.8"/>
	<line class="st0" x1="288.4" y1="84.4" x2="281.6" y2="93.4"/>
	<line class="st0" x1="288.4" y1="84.4" x2="288.2" y2="98.3"/>
	<line class="st0" x1="288.4" y1="84.4" x2="293.9" y2="92.1"/>
	<line class="st0" x1="288.4" y1="84.4" x2="298.1" y2="99.4"/>
	<line class="st0" x1="293.9" y1="92.1" x2="306.3" y2="101.8"/>
	<line class="st0" x1="293.9" y1="92.1" x2="281.6" y2="93.4"/>
	<line class="st0" x1="293.9" y1="92.1" x2="288.2" y2="98.3"/>
	<line class="st0" x1="293.9" y1="92.1" x2="298.1" y2="99.4"/>
	<line class="st0" x1="293.9" y1="92.1" x2="307.3" y2="82.8"/>
	<line class="st0" x1="293.9" y1="92.1" x2="296.9" y2="82.9"/>
	<line class="st0" x1="293.9" y1="92.1" x2="302.4" y2="90.8"/>
	<line class="st0" x1="293.9" y1="92.1" x2="310.2" y2="93.9"/>
	<line class="st0" x1="298.1" y1="99.4" x2="306.3" y2="101.8"/>
	<line class="st0" x1="298.1" y1="99.4" x2="281.6" y2="93.4"/>
	<line class="st0" x1="298.1" y1="99.4" x2="288.2" y2="98.3"/>
	<line class="st0" x1="298.1" y1="99.4" x2="307.3" y2="82.8"/>
	<line class="st0" x1="298.1" y1="99.4" x2="296.9" y2="82.9"/>
	<line class="st0" x1="298.1" y1="99.4" x2="302.4" y2="90.8"/>
	<line class="st0" x1="298.1" y1="99.4" x2="310.2" y2="93.9"/>
	<line class="st0" x1="307.3" y1="82.8" x2="296.9" y2="82.9"/>
	<line class="st0" x1="307.3" y1="82.8" x2="302.4" y2="90.8"/>
	<line class="st0" x1="158.4" y1="151" x2="145.4" y2="149.6"/>
	<line class="st0" x1="223.8" y1="88.4" x2="212.1" y2="91.3"/>
	<line class="st0" x1="302.4" y1="90.8" x2="296.9" y2="82.9"/>
	<line class="st0" x1="145.3" y1="106" x2="142.3" y2="97.8"/>
	<line class="st0" x1="158.6" y1="127.2" x2="160.7" y2="135.4"/>
	<line class="st0" x1="212.2" y1="231.1" x2="219.4" y2="226.5"/>
	<line class="st0" x1="142.8" y1="133.5" x2="160.7" y2="135.4"/>
	<line class="st0" x1="142.8" y1="133.5" x2="158.6" y2="127.2"/>
	<line class="st0" x1="142.8" y1="133.5" x2="151.2" y2="134.9"/>
	<line class="st0" x1="142.8" y1="133.5" x2="131.5" y2="128.4"/>
	<line class="st0" x1="142.8" y1="133.5" x2="149.2" y2="126.3"/>
	<line class="st0" x1="142.8" y1="133.5" x2="135.5" y2="160.7"/>
	<line class="st0" x1="142.8" y1="133.5" x2="140.5" y2="125"/>
	<line class="st0" x1="142.8" y1="133.5" x2="144.9" y2="161"/>
	<line class="st0" x1="310.2" y1="93.9" x2="307.3" y2="82.8"/>
	<line class="st0" x1="310.2" y1="93.9" x2="296.9" y2="82.9"/>
	<line class="st0" x1="310.2" y1="93.9" x2="302.4" y2="90.8"/>
	<line class="st0" x1="274.5" y1="37.7" x2="271.2" y2="29.8"/>
	<line class="st0" x1="274.5" y1="37.7" x2="270.6" y2="46.1"/>
	<line class="st0" x1="151.2" y1="134.9" x2="131.5" y2="128.4"/>
	<line class="st0" x1="262.4" y1="29.2" x2="258.5" y2="41.9"/>
	<line class="st0" x1="265.7" y1="38" x2="258.5" y2="41.9"/>
	<line class="st0" x1="265.7" y1="38" x2="262.4" y2="29.2"/>
	<line class="st0" x1="271.2" y1="29.8" x2="258.5" y2="41.9"/>
	<line class="st0" x1="271.2" y1="29.8" x2="262.4" y2="29.2"/>
	<line class="st0" x1="271.2" y1="29.8" x2="265.7" y2="38"/>
	<line class="st0" x1="270.6" y1="46.1" x2="271.2" y2="29.8"/>
	<line class="st0" x1="71.3" y1="54.7" x2="70.8" y2="41.5"/>
	<line class="st0" x1="149.2" y1="126.3" x2="151.2" y2="134.9"/>
	<line class="st0" x1="149.2" y1="126.3" x2="131.5" y2="128.4"/>
	<line class="st0" x1="149.2" y1="126.3" x2="140.5" y2="125"/>
	<line class="st0" x1="140.5" y1="125" x2="151.2" y2="134.9"/>
	<line class="st0" x1="140.5" y1="125" x2="131.5" y2="128.4"/>
	<line class="st0" x1="144.9" y1="161" x2="135.5" y2="160.7"/>
	<path d="M106.5,15.4c0-1.1-0.9-1.9-1.9-1.9s-1.9,0.9-1.9,1.9c0,1.1,0.9,1.9,1.9,1.9S106.5,16.5,106.5,15.4"/>
	<path d="M124.3,14.9c0-1.1-0.9-1.9-1.9-1.9c-1.1,0-1.9,0.9-1.9,1.9c0,1.1,0.9,1.9,1.9,1.9C123.4,16.8,124.3,15.9,124.3,14.9"/>
	<path d="M115.2,30.4c0-1.1-0.9-1.9-1.9-1.9c-1.1,0-1.9,0.9-1.9,1.9c0,1.1,0.9,1.9,1.9,1.9C114.4,32.4,115.2,31.5,115.2,30.4"/>
	<path d="M203.5,299.1c0-1.1-0.9-1.9-1.9-1.9s-1.9,0.9-1.9,1.9c0,1.1,0.9,1.9,1.9,1.9S203.5,300.2,203.5,299.1"/>
	<path d="M111.7,22.5c0-1.1-0.9-1.9-1.9-1.9c-1.1,0-1.9,0.9-1.9,1.9c0,1.1,0.9,1.9,1.9,1.9C110.9,24.4,111.7,23.5,111.7,22.5"/>
	<path d="M185.2,287.8c0-1.1-0.9-1.9-1.9-1.9c-1.1,0-1.9,0.9-1.9,1.9c0,1.1,0.9,1.9,1.9,1.9C184.3,289.7,185.2,288.9,185.2,287.8"/>
	<path d="M107.7,70.2c0-1.1-0.9-1.9-1.9-1.9c-1.1,0-1.9,0.9-1.9,1.9c0,1.1,0.9,1.9,1.9,1.9C106.8,72.1,107.7,71.3,107.7,70.2"/>
	<path d="M137,93.1c0-1.1-0.9-1.9-1.9-1.9c-1.1,0-1.9,0.9-1.9,1.9c0,1.1,0.9,1.9,1.9,1.9C136.1,95,137,94.2,137,93.1"/>
	<path d="M187.8,305.6c0-1.1-0.9-1.9-1.9-1.9c-1.1,0-1.9,0.9-1.9,1.9c0,1.1,0.9,1.9,1.9,1.9C186.9,307.6,187.8,306.7,187.8,305.6"/>
	<path d="M124.9,30.8c0-1.1-0.9-1.9-1.9-1.9c-1.1,0-1.9,0.9-1.9,1.9c0,1.1,0.9,1.9,1.9,1.9C124,32.7,124.9,31.9,124.9,30.8"/>
	<path d="M179.2,303.1c0-1.1-0.9-1.9-1.9-1.9c-1.1,0-1.9,0.9-1.9,1.9s0.9,1.9,1.9,1.9C178.3,305,179.2,304.2,179.2,303.1"/>
	<path d="M95,78.4c0-1.1-0.9-1.9-1.9-1.9c-1.1,0-1.9,0.9-1.9,1.9c0,1.1,0.9,1.9,1.9,1.9C94.2,80.3,95,79.5,95,78.4"/>
	<path d="M180.1,294.1c0-1.1-0.9-1.9-1.9-1.9c-1.1,0-1.9,0.9-1.9,1.9c0,1.1,0.9,1.9,1.9,1.9C179.2,296,180.1,295.1,180.1,294.1"/>
	<path d="M171.5,305.9c0-1.1-0.9-1.9-1.9-1.9c-1.1,0-1.9,0.9-1.9,1.9c0,1.1,0.9,1.9,1.9,1.9C170.6,307.8,171.5,307,171.5,305.9"/>
	<path d="M170.1,297.3c0-1.1-0.9-1.9-1.9-1.9c-1.1,0-1.9,0.9-1.9,1.9c0,1.1,0.9,1.9,1.9,1.9C169.2,299.2,170.1,298.4,170.1,297.3"/>
	<path d="M220.5,203.3c0-1.1-0.9-1.9-1.9-1.9c-1.1,0-1.9,0.9-1.9,1.9c0,1.1,0.9,1.9,1.9,1.9C219.6,205.2,220.5,204.4,220.5,203.3"/>
	<path d="M238.5,101.3c0-1.1-0.9-1.9-1.9-1.9c-1.1,0-1.9,0.9-1.9,1.9c0,1.1,0.9,1.9,1.9,1.9C237.6,103.3,238.5,102.4,238.5,101.3"/>
	<path d="M71.8,68.7c0-1.1-0.9-1.9-1.9-1.9S68,67.6,68,68.7c0,1.1,0.9,1.9,1.9,1.9S71.8,69.7,71.8,68.7"/>
	<path d="M85.4,78.3c0-1.1-0.9-1.9-1.9-1.9c-1.1,0-1.9,0.9-1.9,1.9c0,1.1,0.9,1.9,1.9,1.9C84.5,80.3,85.4,79.4,85.4,78.3"/>
	<path d="M94.5,63.3c0-1.1-0.9-1.9-1.9-1.9c-1.1,0-1.9,0.9-1.9,1.9c0,1.1,0.9,1.9,1.9,1.9C93.7,65.3,94.5,64.4,94.5,63.3"/>
	<path d="M99.1,70.8c0-1.1-0.9-1.9-1.9-1.9c-1.1,0-1.9,0.9-1.9,1.9c0,1.1,0.9,1.9,1.9,1.9C98.2,72.7,99.1,71.9,99.1,70.8"/>
	<path d="M308.2,101.8c0-1.1-0.9-1.9-1.9-1.9c-1.1,0-1.9,0.9-1.9,1.9c0,1.1,0.9,1.9,1.9,1.9C307.3,103.7,308.2,102.9,308.2,101.8"/>
	<path d="M230.8,200c0-1.1-0.9-1.9-1.9-1.9c-1.1,0-1.9,0.9-1.9,1.9c0,1.1,0.9,1.9,1.9,1.9C229.9,201.9,230.8,201,230.8,200"/>
	<path d="M239.3,214.1c0-1.1-0.9-1.9-1.9-1.9c-1.1,0-1.9,0.9-1.9,1.9c0,1.1,0.9,1.9,1.9,1.9C238.4,216,239.3,215.1,239.3,214.1"/>
	<path d="M233.6,208.3c0-1.1-0.9-1.9-1.9-1.9c-1.1,0-1.9,0.9-1.9,1.9c0,1.1,0.9,1.9,1.9,1.9C232.8,210.2,233.6,209.4,233.6,208.3"/>
	<path d="M283.6,93.4c0-1.1-0.9-1.9-1.9-1.9c-1.1,0-1.9,0.9-1.9,1.9c0,1.1,0.9,1.9,1.9,1.9C282.7,95.3,283.6,94.4,283.6,93.4"/>
	<path d="M290.1,98.3c0-1.1-0.9-1.9-1.9-1.9c-1.1,0-1.9,0.9-1.9,1.9s0.9,1.9,1.9,1.9C289.2,100.3,290.1,99.4,290.1,98.3"/>
	<path d="M52.3,25.8c0-1.1-0.9-1.9-1.9-1.9c-1.1,0-1.9,0.9-1.9,1.9c0,1.1,0.9,1.9,1.9,1.9C51.4,27.7,52.3,26.8,52.3,25.8"/>
	<path d="M41.7,28.9c0-1.1-0.9-1.9-1.9-1.9c-1.1,0-1.9,0.9-1.9,1.9c0,1.1,0.9,1.9,1.9,1.9C40.8,30.9,41.7,30,41.7,28.9"/>
	<path d="M134.2,288.9c0-1.1-0.9-1.9-1.9-1.9c-1.1,0-1.9,0.9-1.9,1.9c0,1.1,0.9,1.9,1.9,1.9C133.3,290.9,134.2,290,134.2,288.9"/>
	<path d="M49.9,46c0-1.1-0.9-1.9-1.9-1.9c-1.1,0-1.9,0.9-1.9,1.9c0,1.1,0.9,1.9,1.9,1.9C49.1,48,49.9,47.1,49.9,46"/>
	<path d="M58.9,31.1c0-1.1-0.9-1.9-1.9-1.9c-1.1,0-1.9,0.9-1.9,1.9c0,1.1,0.9,1.9,1.9,1.9C58,33,58.9,32.2,58.9,31.1"/>
	<path d="M95.9,46.6c0-1.1-0.9-1.9-1.9-1.9c-1.1,0-1.9,0.9-1.9,1.9c0,1.1,0.9,1.9,1.9,1.9C95,48.6,95.9,47.7,95.9,46.6"/>
	<path d="M54.8,39.3c0-1.1-0.9-1.9-1.9-1.9c-1.1,0-1.9,0.9-1.9,1.9s0.9,1.9,1.9,1.9C54,41.2,54.8,40.3,54.8,39.3"/>
	<path d="M146.2,266.2c0-1.1-0.9-1.9-1.9-1.9c-1.1,0-1.9,0.9-1.9,1.9c0,1.1,0.9,1.9,1.9,1.9C145.3,268.2,146.2,267.3,146.2,266.2"/>
	<path d="M249.5,203.7c0-1.1-0.9-1.9-1.9-1.9c-1.1,0-1.9,0.9-1.9,1.9c0,1.1,0.9,1.9,1.9,1.9C248.6,205.7,249.5,204.8,249.5,203.7"/>
	<path d="M42.7,41.1c0-1.1-0.9-1.9-1.9-1.9c-1.1,0-1.9,0.9-1.9,1.9c0,1.1,0.9,1.9,1.9,1.9C41.9,43,42.7,42.1,42.7,41.1"/>
	<path d="M150.5,280.2c0-1.1-0.9-1.9-1.9-1.9c-1.1,0-1.9,0.9-1.9,1.9s0.9,1.9,1.9,1.9C149.6,282.2,150.5,281.3,150.5,280.2"/>
	<path d="M258.2,201.6c0-1.1-0.9-1.9-1.9-1.9c-1.1,0-1.9,0.9-1.9,1.9c0,1.1,0.9,1.9,1.9,1.9C257.3,203.6,258.2,202.7,258.2,201.6"/>
	<path d="M46.4,20.1c0-1.1-0.9-1.9-1.9-1.9c-1.1,0-1.9,0.9-1.9,1.9c0,1.1,0.9,1.9,1.9,1.9C45.6,22,46.4,21.1,46.4,20.1"/>
	<path d="M125.9,285.7c0-1.1-0.9-1.9-1.9-1.9c-1.1,0-1.9,0.9-1.9,1.9c0,1.1,0.9,1.9,1.9,1.9C125.1,287.7,125.9,286.8,125.9,285.7"/>
	<path d="M241.5,205.2c0-1.1-0.9-1.9-1.9-1.9c-1.1,0-1.9,0.9-1.9,1.9c0,1.1,0.9,1.9,1.9,1.9C240.7,207.1,241.5,206.3,241.5,205.2"/>
	<path d="M48.9,33.4c0-1.1-0.9-1.9-1.9-1.9c-1.1,0-1.9,0.9-1.9,1.9c0,1.1,0.9,1.9,1.9,1.9C48,35.4,48.9,34.5,48.9,33.4"/>
	<path d="M133.8,280.4c0-1.1-0.9-1.9-1.9-1.9c-1.1,0-1.9,0.9-1.9,1.9s0.9,1.9,1.9,1.9C132.9,282.3,133.8,281.4,133.8,280.4"/>
	<path d="M63.5,39.4c0-1.1-0.9-1.9-1.9-1.9c-1.1,0-1.9,0.9-1.9,1.9c0,1.1,0.9,1.9,1.9,1.9C62.7,41.3,63.5,40.4,63.5,39.4"/>
	<path d="M194.6,310.8c0-1.1-0.9-1.9-1.9-1.9s-1.9,0.9-1.9,1.9c0,1.1,0.9,1.9,1.9,1.9S194.6,311.9,194.6,310.8"/>
	<path d="M82,40.5c0-1.1-0.9-1.9-1.9-1.9s-1.9,0.9-1.9,1.9c0,1.1,0.9,1.9,1.9,1.9S82,41.6,82,40.5"/>
	<path d="M207.9,313c0-1.1-0.9-1.9-1.9-1.9c-1.1,0-1.9,0.9-1.9,1.9c0,1.1,0.9,1.9,1.9,1.9C207,314.9,207.9,314.1,207.9,313"/>
	<path d="M195.3,301.5c0-1.1-0.9-1.9-1.9-1.9c-1.1,0-1.9,0.9-1.9,1.9c0,1.1,0.9,1.9,1.9,1.9C194.4,303.4,195.3,302.6,195.3,301.5"/>
	<path d="M92.2,30.8c0-1.1-0.9-1.9-1.9-1.9c-1.1,0-1.9,0.9-1.9,1.9c0,1.1,0.9,1.9,1.9,1.9C91.3,32.8,92.2,31.9,92.2,30.8"/>
	<path d="M142.2,283.1c0-1.1-0.9-1.9-1.9-1.9c-1.1,0-1.9,0.9-1.9,1.9c0,1.1,0.9,1.9,1.9,1.9C141.4,285.1,142.2,284.2,142.2,283.1"/>
	<path d="M120.8,23.2c0-1.1-0.9-1.9-1.9-1.9c-1.1,0-1.9,0.9-1.9,1.9c0,1.1,0.9,1.9,1.9,1.9C120,25.1,120.8,24.3,120.8,23.2"/>
	<path d="M84.2,32.1c0-1.1-0.9-1.9-1.9-1.9c-1.1,0-1.9,0.9-1.9,1.9c0,1.1,0.9,1.9,1.9,1.9C83.3,34,84.2,33.1,84.2,32.1"/>
	<path d="M82.1,16.7c0-1.1-0.9-1.9-1.9-1.9c-1.1,0-1.9,0.9-1.9,1.9c0,1.1,0.9,1.9,1.9,1.9C81.2,18.7,82.1,17.8,82.1,16.7"/>
	<path d="M115.7,14.9c0-1.1-0.9-1.9-1.9-1.9c-1.1,0-1.9,0.9-1.9,1.9c0,1.1,0.9,1.9,1.9,1.9C114.9,16.9,115.7,16,115.7,14.9"/>
	<path d="M95,22.5c0-1.1-0.9-1.9-1.9-1.9s-1.9,0.9-1.9,1.9c0,1.1,0.9,1.9,1.9,1.9S95,23.6,95,22.5"/>
	<path d="M202,307c0-1.1-0.9-1.9-1.9-1.9c-1.1,0-1.9,0.9-1.9,1.9c0,1.1,0.9,1.9,1.9,1.9C201.2,309,202,308.1,202,307"/>
	<path d="M129.4,22c0-1.1-0.9-1.9-1.9-1.9c-1.1,0-1.9,0.9-1.9,1.9c0,1.1,0.9,1.9,1.9,1.9C128.6,23.9,129.4,23,129.4,22"/>
	<path d="M58,46.9c0-1.1-0.9-1.9-1.9-1.9c-1.1,0-1.9,0.9-1.9,1.9s0.9,1.9,1.9,1.9C57.1,48.9,58,48,58,46.9"/>
	<path d="M78.1,24.8c0-1.1-0.9-1.9-1.9-1.9c-1.1,0-1.9,0.9-1.9,1.9c0,1.1,0.9,1.9,1.9,1.9C77.2,26.7,78.1,25.9,78.1,24.8"/>
	<path d="M75.8,33.2c0-1.1-0.9-1.9-1.9-1.9s-1.9,0.9-1.9,1.9c0,1.1,0.9,1.9,1.9,1.9S75.8,34.3,75.8,33.2"/>
	<path d="M197.4,318.5c0-1.1-0.9-1.9-1.9-1.9c-1.1,0-1.9,0.9-1.9,1.9c0,1.1,0.9,1.9,1.9,1.9C196.6,320.4,197.4,319.6,197.4,318.5"/>
	<path d="M200.1,326.4c0-1.1-0.9-1.9-1.9-1.9c-1.1,0-1.9,0.9-1.9,1.9c0,1.1,0.9,1.9,1.9,1.9C199.2,328.4,200.1,327.5,200.1,326.4"/>
	<path d="M173.7,144.6c0-1.1-0.9-1.9-1.9-1.9c-1.1,0-1.9,0.9-1.9,1.9c0,1.1,0.9,1.9,1.9,1.9C172.8,146.5,173.7,145.6,173.7,144.6"/>
	<path d="M192.4,328.8c0-1.1-0.9-1.9-1.9-1.9s-1.9,0.9-1.9,1.9c0,1.1,0.9,1.9,1.9,1.9S192.4,329.9,192.4,328.8"/>
	<path d="M198.4,335.1c0-1.1-0.9-1.9-1.9-1.9c-1.1,0-1.9,0.9-1.9,1.9c0,1.1,0.9,1.9,1.9,1.9C197.5,337.1,198.4,336.2,198.4,335.1"/>
	<path d="M63.8,68.2c0-1.1-0.9-1.9-1.9-1.9c-1.1,0-1.9,0.9-1.9,1.9c0,1.1,0.9,1.9,1.9,1.9C62.9,70.2,63.8,69.3,63.8,68.2"/>
	<path d="M186.6,322.6c0-1.1-0.9-1.9-1.9-1.9c-1.1,0-1.9,0.9-1.9,1.9c0,1.1,0.9,1.9,1.9,1.9C185.7,324.6,186.6,323.7,186.6,322.6"/>
	<path d="M206.9,321.3c0-1.1-0.9-1.9-1.9-1.9s-1.9,0.9-1.9,1.9c0,1.1,0.9,1.9,1.9,1.9S206.9,322.4,206.9,321.3"/>
	<path d="M224.6,104.3c0-1.1-0.9-1.9-1.9-1.9s-1.9,0.9-1.9,1.9c0,1.1,0.9,1.9,1.9,1.9S224.6,105.3,224.6,104.3"/>
	<path d="M72.5,76.8c0-1.1-0.9-1.9-1.9-1.9c-1.1,0-1.9,0.9-1.9,1.9c0,1.1,0.9,1.9,1.9,1.9C71.7,78.7,72.5,77.9,72.5,76.8"/>
	<path d="M244.7,182.1c0-1.1-0.9-1.9-1.9-1.9c-1.1,0-1.9,0.9-1.9,1.9c0,1.1,0.9,1.9,1.9,1.9C243.8,184,244.7,183.2,244.7,182.1"/>
	<path d="M152.1,288.3c0-1.1-0.9-1.9-1.9-1.9c-1.1,0-1.9,0.9-1.9,1.9c0,1.1,0.9,1.9,1.9,1.9C151.2,290.2,152.1,289.4,152.1,288.3"/>
	<path d="M78.9,83.6c0-1.1-0.9-1.9-1.9-1.9c-1.1,0-1.9,0.9-1.9,1.9c0,1.1,0.9,1.9,1.9,1.9C78,85.5,78.9,84.6,78.9,83.6"/>
	<path d="M305.4,61.5c0-1.1-0.9-1.9-1.9-1.9c-1.1,0-1.9,0.9-1.9,1.9c0,1.1,0.9,1.9,1.9,1.9C304.5,63.4,305.4,62.5,305.4,61.5"/>
	<path d="M60,55.9c0-1.1-0.9-1.9-1.9-1.9c-1.1,0-1.9,0.9-1.9,1.9c0,1.1,0.9,1.9,1.9,1.9C59.1,57.8,60,56.9,60,55.9"/>
	<path d="M239.3,188.5c0-1.1-0.9-1.9-1.9-1.9c-1.1,0-1.9,0.9-1.9,1.9c0,1.1,0.9,1.9,1.9,1.9C238.4,190.4,239.3,189.5,239.3,188.5"/>
	<path d="M132.3,272.2c0-1.1-0.9-1.9-1.9-1.9c-1.1,0-1.9,0.9-1.9,1.9c0,1.1,0.9,1.9,1.9,1.9C131.5,274.1,132.3,273.3,132.3,272.2"/>
	<path d="M56,78c0-1.1-0.9-1.9-1.9-1.9c-1.1,0-1.9,0.9-1.9,1.9c0,1.1,0.9,1.9,1.9,1.9C55.1,79.9,56,79.1,56,78"/>
	<path d="M250.2,188.1c0-1.1-0.9-1.9-1.9-1.9c-1.1,0-1.9,0.9-1.9,1.9c0,1.1,0.9,1.9,1.9,1.9C249.4,190,250.2,189.1,250.2,188.1"/>
	<path d="M87.2,47.2c0-1.1-0.9-1.9-1.9-1.9s-1.9,0.9-1.9,1.9c0,1.1,0.9,1.9,1.9,1.9S87.2,48.3,87.2,47.2"/>
	<path d="M66.9,48.9c0-1.1-0.9-1.9-1.9-1.9S63,47.9,63,48.9c0,1.1,0.9,1.9,1.9,1.9S66.9,50,66.9,48.9"/>
	<path d="M68.9,84.4c0-1.1-0.9-1.9-1.9-1.9c-1.1,0-1.9,0.9-1.9,1.9s0.9,1.9,1.9,1.9C68.1,86.3,68.9,85.5,68.9,84.4"/>
	<path d="M112.8,63.1c0-1.1-0.9-1.9-1.9-1.9s-1.9,0.9-1.9,1.9c0,1.1,0.9,1.9,1.9,1.9S112.8,64.2,112.8,63.1"/>
	<path d="M126,277.5c0-1.1-0.9-1.9-1.9-1.9c-1.1,0-1.9,0.9-1.9,1.9c0,1.1,0.9,1.9,1.9,1.9C125.1,279.5,126,278.6,126,277.5"/>
	<path d="M80.3,70.4c0-1.1-0.9-1.9-1.9-1.9c-1.1,0-1.9,0.9-1.9,1.9c0,1.1,0.9,1.9,1.9,1.9C79.5,72.3,80.3,71.4,80.3,70.4"/>
	<path d="M142.3,274.8c0-1.1-0.9-1.9-1.9-1.9c-1.1,0-1.9,0.9-1.9,1.9c0,1.1,0.9,1.9,1.9,1.9C141.4,276.8,142.3,275.9,142.3,274.8"/>
	<path d="M67.2,60.3c0-1.1-0.9-1.9-1.9-1.9c-1.1,0-1.9,0.9-1.9,1.9c0,1.1,0.9,1.9,1.9,1.9C66.3,62.2,67.2,61.4,67.2,60.3"/>
	<path d="M124.8,267.2c0-1.1-0.9-1.9-1.9-1.9c-1.1,0-1.9,0.9-1.9,1.9c0,1.1,0.9,1.9,1.9,1.9C124,269.1,124.8,268.2,124.8,267.2"/>
	<path d="M125.1,295.2c0-1.1-0.9-1.9-1.9-1.9c-1.1,0-1.9,0.9-1.9,1.9c0,1.1,0.9,1.9,1.9,1.9C124.3,297.1,125.1,296.3,125.1,295.2"/>
	<path d="M143.3,292.2c0-1.1-0.9-1.9-1.9-1.9c-1.1,0-1.9,0.9-1.9,1.9c0,1.1,0.9,1.9,1.9,1.9C142.4,294.1,143.3,293.2,143.3,292.2"/>
	<path d="M137.8,265.7c0-1.1-0.9-1.9-1.9-1.9c-1.1,0-1.9,0.9-1.9,1.9c0,1.1,0.9,1.9,1.9,1.9C136.9,267.6,137.8,266.8,137.8,265.7"/>
	<path d="M191.4,173c0-1.1-0.9-1.9-1.9-1.9c-1.1,0-1.9,0.9-1.9,1.9c0,1.1,0.9,1.9,1.9,1.9C190.5,174.9,191.4,174,191.4,173"/>
	<path d="M193.5,181.9c0-1.1-0.9-1.9-1.9-1.9c-1.1,0-1.9,0.9-1.9,1.9c0,1.1,0.9,1.9,1.9,1.9C192.7,183.9,193.5,183,193.5,181.9"/>
	<path d="M77.4,62.5c0-1.1-0.9-1.9-1.9-1.9c-1.1,0-1.9,0.9-1.9,1.9c0,1.1,0.9,1.9,1.9,1.9C76.6,64.5,77.4,63.6,77.4,62.5"/>
	<path d="M214.8,82.7c0-1.1-0.9-1.9-1.9-1.9c-1.1,0-1.9,0.9-1.9,1.9c0,1.1,0.9,1.9,1.9,1.9C214,84.7,214.8,83.8,214.8,82.7"/>
	<path d="M203.8,188c0-1.1-0.9-1.9-1.9-1.9c-1.1,0-1.9,0.9-1.9,1.9c0,1.1,0.9,1.9,1.9,1.9C202.9,190,203.8,189.1,203.8,188"/>
	<path d="M194.6,189.9c0-1.1-0.9-1.9-1.9-1.9s-1.9,0.9-1.9,1.9c0,1.1,0.9,1.9,1.9,1.9S194.6,191,194.6,189.9"/>
	<path d="M201.7,179.4c0-1.1-0.9-1.9-1.9-1.9c-1.1,0-1.9,0.9-1.9,1.9c0,1.1,0.9,1.9,1.9,1.9C200.8,181.3,201.7,180.5,201.7,179.4"/>
	<path d="M70.2,20.7c0-1.1-0.9-1.9-1.9-1.9c-1.1,0-1.9,0.9-1.9,1.9c0,1.1,0.9,1.9,1.9,1.9C69.4,22.6,70.2,21.7,70.2,20.7"/>
	<path d="M90.3,15.5c0-1.1-0.9-1.9-1.9-1.9c-1.1,0-1.9,0.9-1.9,1.9c0,1.1,0.9,1.9,1.9,1.9C89.4,17.4,90.3,16.5,90.3,15.5"/>
	<path d="M142.4,114.2c0-1.1-0.9-1.9-1.9-1.9c-1.1,0-1.9,0.9-1.9,1.9c0,1.1,0.9,1.9,1.9,1.9C141.5,116.2,142.4,115.3,142.4,114.2"/>
	<path d="M90.4,39.1c0-1.1-0.9-1.9-1.9-1.9c-1.1,0-1.9,0.9-1.9,1.9c0,1.1,0.9,1.9,1.9,1.9C89.5,41,90.4,40.2,90.4,39.1"/>
	<path d="M136.4,108.6c0-1.1-0.9-1.9-1.9-1.9c-1.1,0-1.9,0.9-1.9,1.9s0.9,1.9,1.9,1.9C135.5,110.6,136.4,109.7,136.4,108.6"/>
	<path d="M128.6,111.8c0-1.1-0.9-1.9-1.9-1.9c-1.1,0-1.9,0.9-1.9,1.9c0,1.1,0.9,1.9,1.9,1.9C127.7,113.7,128.6,112.8,128.6,111.8"/>
	<path d="M201.9,289.8c0-1.1-0.9-1.9-1.9-1.9c-1.1,0-1.9,0.9-1.9,1.9s0.9,1.9,1.9,1.9C201,291.8,201.9,290.9,201.9,289.8"/>
	<path d="M55.4,69.1c0-1.1-0.9-1.9-1.9-1.9c-1.1,0-1.9,0.9-1.9,1.9c0,1.1,0.9,1.9,1.9,1.9C54.5,71,55.4,70.1,55.4,69.1"/>
	<path d="M177.7,312.8c0-1.1-0.9-1.9-1.9-1.9c-1.1,0-1.9,0.9-1.9,1.9c0,1.1,0.9,1.9,1.9,1.9C176.8,314.8,177.7,313.9,177.7,312.8"/>
	<path d="M241,77.7c0-1.1-0.9-1.9-1.9-1.9c-1.1,0-1.9,0.9-1.9,1.9c0,1.1,0.9,1.9,1.9,1.9C240.2,79.7,241,78.8,241,77.7"/>
	<path d="M298.3,74.9c0-1.1-0.9-1.9-1.9-1.9c-1.1,0-1.9,0.9-1.9,1.9c0,1.1,0.9,1.9,1.9,1.9C297.4,76.8,298.3,76,298.3,74.9"/>
	<path d="M153.5,303.2c0-1.1-0.9-1.9-1.9-1.9s-1.9,0.9-1.9,1.9c0,1.1,0.9,1.9,1.9,1.9S153.5,304.2,153.5,303.2"/>
	<path d="M193.4,289.8c0-1.1-0.9-1.9-1.9-1.9c-1.1,0-1.9,0.9-1.9,1.9c0,1.1,0.9,1.9,1.9,1.9C192.6,291.8,193.4,290.9,193.4,289.8"/>
	<path d="M210.5,223c0-1.1-0.9-1.9-1.9-1.9c-1.1,0-1.9,0.9-1.9,1.9s0.9,1.9,1.9,1.9C209.7,225,210.5,224.1,210.5,223"/>
	<path d="M269,63c0-1.1-0.9-1.9-1.9-1.9c-1.1,0-1.9,0.9-1.9,1.9c0,1.1,0.9,1.9,1.9,1.9C268.2,65,269,64.1,269,63"/>
	<path d="M280.3,61.4c0-1.1-0.9-1.9-1.9-1.9c-1.1,0-1.9,0.9-1.9,1.9c0,1.1,0.9,1.9,1.9,1.9C279.4,63.3,280.3,62.4,280.3,61.4"/>
	<path d="M272.5,55.4c0-1.1-0.9-1.9-1.9-1.9c-1.1,0-1.9,0.9-1.9,1.9c0,1.1,0.9,1.9,1.9,1.9C271.7,57.4,272.5,56.5,272.5,55.4"/>
	<path d="M282.4,85c0-1.1-0.9-1.9-1.9-1.9c-1.1,0-1.9,0.9-1.9,1.9c0,1.1,0.9,1.9,1.9,1.9C281.5,86.9,282.4,86,282.4,85"/>
	<path d="M253.6,85.5c0-1.1-0.9-1.9-1.9-1.9c-1.1,0-1.9,0.9-1.9,1.9c0,1.1,0.9,1.9,1.9,1.9C252.8,87.4,253.6,86.6,253.6,85.5"/>
	<path d="M154.6,324.1c0-1.1-0.9-1.9-1.9-1.9c-1.1,0-1.9,0.9-1.9,1.9s0.9,1.9,1.9,1.9C153.7,326,154.6,325.2,154.6,324.1"/>
	<path d="M235.1,89.7c0-1.1-0.9-1.9-1.9-1.9s-1.9,0.9-1.9,1.9c0,1.1,0.9,1.9,1.9,1.9S235.1,90.7,235.1,89.7"/>
	<path d="M269.8,74.2c0-1.1-0.9-1.9-1.9-1.9c-1.1,0-1.9,0.9-1.9,1.9c0,1.1,0.9,1.9,1.9,1.9C268.9,76.1,269.8,75.2,269.8,74.2"/>
	<path d="M230,97.4c0-1.1-0.9-1.9-1.9-1.9c-1.1,0-1.9,0.9-1.9,1.9c0,1.1,0.9,1.9,1.9,1.9C229.2,99.3,230,98.5,230,97.4"/>
	<path d="M181.8,275c0-1.1-0.9-1.9-1.9-1.9c-1.1,0-1.9,0.9-1.9,1.9c0,1.1,0.9,1.9,1.9,1.9C180.9,276.9,181.8,276,181.8,275"/>
	<path d="M273.5,82c0-1.1-0.9-1.9-1.9-1.9c-1.1,0-1.9,0.9-1.9,1.9c0,1.1,0.9,1.9,1.9,1.9C272.6,83.9,273.5,83.1,273.5,82"/>
	<path d="M297.2,55.1c0-1.1-0.9-1.9-1.9-1.9c-1.1,0-1.9,0.9-1.9,1.9c0,1.1,0.9,1.9,1.9,1.9C296.4,57,297.2,56.1,297.2,55.1"/>
	<path d="M289.6,48.5c0-1.1-0.9-1.9-1.9-1.9c-1.1,0-1.9,0.9-1.9,1.9c0,1.1,0.9,1.9,1.9,1.9C288.7,50.4,289.6,49.6,289.6,48.5"/>
	<path d="M252.1,93.8c0-1.1-0.9-1.9-1.9-1.9c-1.1,0-1.9,0.9-1.9,1.9c0,1.1,0.9,1.9,1.9,1.9C251.2,95.7,252.1,94.8,252.1,93.8"/>
	<path d="M288.5,74.2c0-1.1-0.9-1.9-1.9-1.9s-1.9,0.9-1.9,1.9c0,1.1,0.9,1.9,1.9,1.9S288.5,75.2,288.5,74.2"/>
	<path d="M87.1,23.5c0-1.1-0.9-1.9-1.9-1.9c-1.1,0-1.9,0.9-1.9,1.9c0,1.1,0.9,1.9,1.9,1.9C86.2,25.4,87.1,24.6,87.1,23.5"/>
	<path d="M130.7,141.7c0-1.1-0.9-1.9-1.9-1.9c-1.1,0-1.9,0.9-1.9,1.9c0,1.1,0.9,1.9,1.9,1.9C129.8,143.7,130.7,142.8,130.7,141.7"/>
	<path d="M147.3,141.2c0-1.1-0.9-1.9-1.9-1.9c-1.1,0-1.9,0.9-1.9,1.9c0,1.1,0.9,1.9,1.9,1.9C146.5,143.1,147.3,142.3,147.3,141.2"/>
	<path d="M136.9,135.7c0-1.1-0.9-1.9-1.9-1.9c-1.1,0-1.9,0.9-1.9,1.9c0,1.1,0.9,1.9,1.9,1.9C136,137.6,136.9,136.8,136.9,135.7"/>
	<path d="M104.9,48c0-1.1-0.9-1.9-1.9-1.9c-1.1,0-1.9,0.9-1.9,1.9c0,1.1,0.9,1.9,1.9,1.9C104,50,104.9,49.1,104.9,48"/>
	<path d="M178.4,323.5c0-1.1-0.9-1.9-1.9-1.9c-1.1,0-1.9,0.9-1.9,1.9c0,1.1,0.9,1.9,1.9,1.9C177.5,325.5,178.4,324.6,178.4,323.5"/>
	<path d="M290.2,26c0-1.1-0.9-1.9-1.9-1.9c-1.1,0-1.9,0.9-1.9,1.9s0.9,1.9,1.9,1.9C289.4,27.9,290.2,27.1,290.2,26"/>
	<path d="M244.7,85.2c0-1.1-0.9-1.9-1.9-1.9c-1.1,0-1.9,0.9-1.9,1.9c0,1.1,0.9,1.9,1.9,1.9C243.8,87.1,244.7,86.3,244.7,85.2"/>
	<path d="M296.2,42.8c0-1.1-0.9-1.9-1.9-1.9c-1.1,0-1.9,0.9-1.9,1.9c0,1.1,0.9,1.9,1.9,1.9C295.3,44.8,296.2,43.9,296.2,42.8"/>
	<path d="M240,69c0-1.1-0.9-1.9-1.9-1.9c-1.1,0-1.9,0.9-1.9,1.9c0,1.1,0.9,1.9,1.9,1.9C239.1,71,240,70.1,240,69"/>
	<path d="M293.2,34c0-1.1-0.9-1.9-1.9-1.9c-1.1,0-1.9,0.9-1.9,1.9c0,1.1,0.9,1.9,1.9,1.9C292.3,36,293.2,35.1,293.2,34"/>
	<path d="M231.4,82.1c0-1.1-0.9-1.9-1.9-1.9c-1.1,0-1.9,0.9-1.9,1.9c0,1.1,0.9,1.9,1.9,1.9C230.5,84,231.4,83.2,231.4,82.1"/>
	<path d="M298.1,22.2c0-1.1-0.9-1.9-1.9-1.9c-1.1,0-1.9,0.9-1.9,1.9c0,1.1,0.9,1.9,1.9,1.9C297.3,24.2,298.1,23.3,298.1,22.2"/>
	<path d="M210.5,61.9c0-1.1-0.9-1.9-1.9-1.9c-1.1,0-1.9,0.9-1.9,1.9c0,1.1,0.9,1.9,1.9,1.9C209.6,63.9,210.5,63,210.5,61.9"/>
	<path d="M281,52.6c0-1.1-0.9-1.9-1.9-1.9c-1.1,0-1.9,0.9-1.9,1.9c0,1.1,0.9,1.9,1.9,1.9C280.1,54.5,281,53.7,281,52.6"/>
	<path d="M214.6,183.5c0-1.1-0.9-1.9-1.9-1.9c-1.1,0-1.9,0.9-1.9,1.9c0,1.1,0.9,1.9,1.9,1.9C213.8,185.4,214.6,184.5,214.6,183.5"/>
	<path d="M275.7,68.3c0-1.1-0.9-1.9-1.9-1.9s-1.9,0.9-1.9,1.9c0,1.1,0.9,1.9,1.9,1.9S275.7,69.4,275.7,68.3"/>
	<path d="M224.1,71.8c0-1.1-0.9-1.9-1.9-1.9c-1.1,0-1.9,0.9-1.9,1.9s0.9,1.9,1.9,1.9C223.2,73.7,224.1,72.8,224.1,71.8"/>
	<path d="M233.1,74c0-1.1-0.9-1.9-1.9-1.9c-1.1,0-1.9,0.9-1.9,1.9c0,1.1,0.9,1.9,1.9,1.9C232.2,76,233.1,75.1,233.1,74"/>
	<path d="M222.9,185.3c0-1.1-0.9-1.9-1.9-1.9c-1.1,0-1.9,0.9-1.9,1.9c0,1.1,0.9,1.9,1.9,1.9C222,187.2,222.9,186.4,222.9,185.3"/>
	<path d="M228.2,174.7c0-1.1-0.9-1.9-1.9-1.9c-1.1,0-1.9,0.9-1.9,1.9c0,1.1,0.9,1.9,1.9,1.9C227.3,176.6,228.2,175.7,228.2,174.7"/>
	<path d="M281.6,44c0-1.1-0.9-1.9-1.9-1.9c-1.1,0-1.9,0.9-1.9,1.9c0,1.1,0.9,1.9,1.9,1.9C280.8,45.9,281.6,45,281.6,44"/>
	<path d="M123.7,104.2c0-1.1-0.9-1.9-1.9-1.9c-1.1,0-1.9,0.9-1.9,1.9c0,1.1,0.9,1.9,1.9,1.9C122.8,106.2,123.7,105.3,123.7,104.2"/>
	<path d="M280.3,75.9c0-1.1-0.9-1.9-1.9-1.9s-1.9,0.9-1.9,1.9c0,1.1,0.9,1.9,1.9,1.9S280.3,76.9,280.3,75.9"/>
	<path d="M173.3,289.4c0-1.1-0.9-1.9-1.9-1.9c-1.1,0-1.9,0.9-1.9,1.9s0.9,1.9,1.9,1.9C172.5,291.4,173.3,290.5,173.3,289.4"/>
	<path d="M233.2,182.5c0-1.1-0.9-1.9-1.9-1.9c-1.1,0-1.9,0.9-1.9,1.9c0,1.1,0.9,1.9,1.9,1.9C232.3,184.4,233.2,183.5,233.2,182.5"/>
	<path d="M148.1,311.6c0-1.1-0.9-1.9-1.9-1.9c-1.1,0-1.9,0.9-1.9,1.9c0,1.1,0.9,1.9,1.9,1.9C147.3,313.6,148.1,312.7,148.1,311.6"/>
	<path d="M265.1,81.8c0-1.1-0.9-1.9-1.9-1.9c-1.1,0-1.9,0.9-1.9,1.9c0,1.1,0.9,1.9,1.9,1.9C264.2,83.8,265.1,82.9,265.1,81.8"/>
	<path d="M248,64.6c0-1.1-0.9-1.9-1.9-1.9c-1.1,0-1.9,0.9-1.9,1.9c0,1.1,0.9,1.9,1.9,1.9C247.1,66.5,248,65.6,248,64.6"/>
	<path d="M222.6,80c0-1.1-0.9-1.9-1.9-1.9c-1.1,0-1.9,0.9-1.9,1.9c0,1.1,0.9,1.9,1.9,1.9C221.8,82,222.6,81.1,222.6,80"/>
	<path d="M157,311c0-1.1-0.9-1.9-1.9-1.9c-1.1,0-1.9,0.9-1.9,1.9c0,1.1,0.9,1.9,1.9,1.9C156.1,312.9,157,312,157,311"/>
	<path d="M207.2,76.2c0-1.1-0.9-1.9-1.9-1.9c-1.1,0-1.9,0.9-1.9,1.9c0,1.1,0.9,1.9,1.9,1.9C206.4,78.2,207.2,77.3,207.2,76.2"/>
	<path d="M232.1,108.2c0-1.1-0.9-1.9-1.9-1.9c-1.1,0-1.9,0.9-1.9,1.9c0,1.1,0.9,1.9,1.9,1.9C231.2,110.2,232.1,109.3,232.1,108.2"/>
	<path d="M241.2,60c0-1.1-0.9-1.9-1.9-1.9c-1.1,0-1.9,0.9-1.9,1.9c0,1.1,0.9,1.9,1.9,1.9C240.3,61.9,241.2,61.1,241.2,60"/>
	<path d="M86.2,63c0-1.1-0.9-1.9-1.9-1.9c-1.1,0-1.9,0.9-1.9,1.9s0.9,1.9,1.9,1.9C85.3,65,86.2,64.1,86.2,63"/>
	<path d="M219.9,52.5c0-1.1-0.9-1.9-1.9-1.9c-1.1,0-1.9,0.9-1.9,1.9c0,1.1,0.9,1.9,1.9,1.9C219,54.5,219.9,53.6,219.9,52.5"/>
	<path d="M90.7,55.5c0-1.1-0.9-1.9-1.9-1.9c-1.1,0-1.9,0.9-1.9,1.9c0,1.1,0.9,1.9,1.9,1.9C89.8,57.5,90.7,56.6,90.7,55.5"/>
	<path d="M215.8,74.5c0-1.1-0.9-1.9-1.9-1.9c-1.1,0-1.9,0.9-1.9,1.9c0,1.1,0.9,1.9,1.9,1.9C215,76.5,215.8,75.6,215.8,74.5"/>
	<path d="M247.5,101.2c0-1.1-0.9-1.9-1.9-1.9c-1.1,0-1.9,0.9-1.9,1.9c0,1.1,0.9,1.9,1.9,1.9C246.6,103.2,247.5,102.3,247.5,101.2"/>
	<path d="M254.7,49.5c0-1.1-0.9-1.9-1.9-1.9c-1.1,0-1.9,0.9-1.9,1.9c0,1.1,0.9,1.9,1.9,1.9C253.8,51.4,254.7,50.5,254.7,49.5"/>
	<path d="M281.6,27.1c0-1.1-0.9-1.9-1.9-1.9c-1.1,0-1.9,0.9-1.9,1.9c0,1.1,0.9,1.9,1.9,1.9C280.7,29,281.6,28.1,281.6,27.1"/>
	<path d="M284.6,35.4c0-1.1-0.9-1.9-1.9-1.9c-1.1,0-1.9,0.9-1.9,1.9c0,1.1,0.9,1.9,1.9,1.9C283.7,37.4,284.6,36.5,284.6,35.4"/>
	<path d="M118.8,53.7c0-1.1-0.9-1.9-1.9-1.9c-1.1,0-1.9,0.9-1.9,1.9c0,1.1,0.9,1.9,1.9,1.9C118,55.6,118.8,54.7,118.8,53.7"/>
	<path d="M109.2,55.1c0-1.1-0.9-1.9-1.9-1.9c-1.1,0-1.9,0.9-1.9,1.9c0,1.1,0.9,1.9,1.9,1.9C108.4,57.1,109.2,56.2,109.2,55.1"/>
	<path d="M112.9,47c0-1.1-0.9-1.9-1.9-1.9c-1.1,0-1.9,0.9-1.9,1.9c0,1.1,0.9,1.9,1.9,1.9C112,48.9,112.9,48,112.9,47"/>
	<path d="M262.6,68.2c0-1.1-0.9-1.9-1.9-1.9c-1.1,0-1.9,0.9-1.9,1.9c0,1.1,0.9,1.9,1.9,1.9C261.8,70.1,262.6,69.3,262.6,68.2"/>
	<path d="M123.5,39.2c0-1.1-0.9-1.9-1.9-1.9c-1.1,0-1.9,0.9-1.9,1.9c0,1.1,0.9,1.9,1.9,1.9C122.6,41.1,123.5,40.2,123.5,39.2"/>
	<path d="M255.7,61.2c0-1.1-0.9-1.9-1.9-1.9c-1.1,0-1.9,0.9-1.9,1.9c0,1.1,0.9,1.9,1.9,1.9C254.8,63.2,255.7,62.3,255.7,61.2"/>
	<path d="M90.3,70.2c0-1.1-0.9-1.9-1.9-1.9c-1.1,0-1.9,0.9-1.9,1.9c0,1.1,0.9,1.9,1.9,1.9C89.4,72.2,90.3,71.3,90.3,70.2"/>
	<path d="M183.2,331c0-1.1-0.9-1.9-1.9-1.9c-1.1,0-1.9,0.9-1.9,1.9c0,1.1,0.9,1.9,1.9,1.9C182.3,332.9,183.2,332.1,183.2,331"/>
	<path d="M82.3,55.2c0-1.1-0.9-1.9-1.9-1.9c-1.1,0-1.9,0.9-1.9,1.9s0.9,1.9,1.9,1.9C81.4,57.2,82.3,56.3,82.3,55.2"/>
	<path d="M159.6,284.4c0-1.1-0.9-1.9-1.9-1.9c-1.1,0-1.9,0.9-1.9,1.9c0,1.1,0.9,1.9,1.9,1.9C158.8,286.3,159.6,285.5,159.6,284.4"/>
	<path d="M98.8,35.3c0-1.1-0.9-1.9-1.9-1.9c-1.1,0-1.9,0.9-1.9,1.9c0,1.1,0.9,1.9,1.9,1.9C98,37.3,98.8,36.4,98.8,35.3"/>
	<path d="M185.8,314.4c0-1.1-0.9-1.9-1.9-1.9c-1.1,0-1.9,0.9-1.9,1.9c0,1.1,0.9,1.9,1.9,1.9C184.9,316.4,185.8,315.5,185.8,314.4"/>
	<path d="M107.3,31.9c0-1.1-0.9-1.9-1.9-1.9c-1.1,0-1.9,0.9-1.9,1.9c0,1.1,0.9,1.9,1.9,1.9C106.4,33.8,107.3,33,107.3,31.9"/>
	<path d="M298.6,66.9c0-1.1-0.9-1.9-1.9-1.9c-1.1,0-1.9,0.9-1.9,1.9c0,1.1,0.9,1.9,1.9,1.9C297.7,68.8,298.6,67.9,298.6,66.9"/>
	<path d="M64.4,76.4c0-1.1-0.9-1.9-1.9-1.9c-1.1,0-1.9,0.9-1.9,1.9c0,1.1,0.9,1.9,1.9,1.9C63.5,78.4,64.4,77.5,64.4,76.4"/>
	<path d="M289.5,66c0-1.1-0.9-1.9-1.9-1.9c-1.1,0-1.9,0.9-1.9,1.9c0,1.1,0.9,1.9,1.9,1.9C288.6,67.9,289.5,67.1,289.5,66"/>
	<path d="M254.1,69.8c0-1.1-0.9-1.9-1.9-1.9c-1.1,0-1.9,0.9-1.9,1.9c0,1.1,0.9,1.9,1.9,1.9C253.2,71.7,254.1,70.9,254.1,69.8"/>
	<path d="M164.3,290.9c0-1.1-0.9-1.9-1.9-1.9c-1.1,0-1.9,0.9-1.9,1.9c0,1.1,0.9,1.9,1.9,1.9C163.5,292.9,164.3,292,164.3,290.9"/>
	<path d="M221.5,96.9c0-1.1-0.9-1.9-1.9-1.9c-1.1,0-1.9,0.9-1.9,1.9c0,1.1,0.9,1.9,1.9,1.9C220.6,98.8,221.5,97.9,221.5,96.9"/>
	<path d="M139.4,143.8c0-1.1-0.9-1.9-1.9-1.9c-1.1,0-1.9,0.9-1.9,1.9c0,1.1,0.9,1.9,1.9,1.9C138.5,145.8,139.4,144.9,139.4,143.8"/>
	<path d="M99.4,54.7c0-1.1-0.9-1.9-1.9-1.9c-1.1,0-1.9,0.9-1.9,1.9c0,1.1,0.9,1.9,1.9,1.9C98.5,56.6,99.4,55.8,99.4,54.7"/>
	<path d="M242.4,94.3c0-1.1-0.9-1.9-1.9-1.9c-1.1,0-1.9,0.9-1.9,1.9c0,1.1,0.9,1.9,1.9,1.9C241.5,96.2,242.4,95.4,242.4,94.3"/>
	<path d="M103.9,61.9c0-1.1-0.9-1.9-1.9-1.9c-1.1,0-1.9,0.9-1.9,1.9c0,1.1,0.9,1.9,1.9,1.9C103,63.9,103.9,63,103.9,61.9"/>
	<path d="M249.3,77c0-1.1-0.9-1.9-1.9-1.9c-1.1,0-1.9,0.9-1.9,1.9c0,1.1,0.9,1.9,1.9,1.9C248.4,78.9,249.3,78.1,249.3,77"/>
	<path d="M288.2,57.6c0-1.1-0.9-1.9-1.9-1.9s-1.9,0.9-1.9,1.9c0,1.1,0.9,1.9,1.9,1.9S288.2,58.7,288.2,57.6"/>
	<path d="M257.3,77.7c0-1.1-0.9-1.9-1.9-1.9c-1.1,0-1.9,0.9-1.9,1.9c0,1.1,0.9,1.9,1.9,1.9C256.4,79.6,257.3,78.8,257.3,77.7"/>
	<path d="M103.6,24c0-1.1-0.9-1.9-1.9-1.9c-1.1,0-1.9,0.9-1.9,1.9c0,1.1,0.9,1.9,1.9,1.9C102.7,26,103.6,25.1,103.6,24"/>
	<path d="M260.4,41.9c0-1.1-0.9-1.9-1.9-1.9c-1.1,0-1.9,0.9-1.9,1.9c0,1.1,0.9,1.9,1.9,1.9C259.6,43.8,260.4,42.9,260.4,41.9"/>
	<path d="M188.2,280.4c0-1.1-0.9-1.9-1.9-1.9s-1.9,0.9-1.9,1.9c0,1.1,0.9,1.9,1.9,1.9S188.2,281.4,188.2,280.4"/>
	<path d="M165.5,311.3c0-1.1-0.9-1.9-1.9-1.9c-1.1,0-1.9,0.9-1.9,1.9c0,1.1,0.9,1.9,1.9,1.9C164.6,313.3,165.5,312.4,165.5,311.3"/>
	<path d="M168.5,281.4c0-1.1-0.9-1.9-1.9-1.9c-1.1,0-1.9,0.9-1.9,1.9s0.9,1.9,1.9,1.9C167.6,283.4,168.5,282.5,168.5,281.4"/>
	<path d="M139.4,152.4c0-1.1-0.9-1.9-1.9-1.9c-1.1,0-1.9,0.9-1.9,1.9c0,1.1,0.9,1.9,1.9,1.9C138.5,154.3,139.4,153.5,139.4,152.4"/>
	<path d="M218,65.3c0-1.1-0.9-1.9-1.9-1.9c-1.1,0-1.9,0.9-1.9,1.9c0,1.1,0.9,1.9,1.9,1.9C217.2,67.3,218,66.4,218,65.3"/>
	<path d="M224.4,59.3c0-1.1-0.9-1.9-1.9-1.9c-1.1,0-1.9,0.9-1.9,1.9c0,1.1,0.9,1.9,1.9,1.9C223.5,61.3,224.4,60.4,224.4,59.3"/>
	<path d="M232.3,56.8c0-1.1-0.9-1.9-1.9-1.9c-1.1,0-1.9,0.9-1.9,1.9c0,1.1,0.9,1.9,1.9,1.9C231.4,58.7,232.3,57.9,232.3,56.8"/>
	<path d="M241.4,50.1c0-1.1-0.9-1.9-1.9-1.9s-1.9,0.9-1.9,1.9c0,1.1,0.9,1.9,1.9,1.9S241.4,51.1,241.4,50.1"/>
	<path d="M211,49.9c0-1.1-0.9-1.9-1.9-1.9s-1.9,0.9-1.9,1.9c0,1.1,0.9,1.9,1.9,1.9S211,51,211,49.9"/>
	<path d="M224.2,45.8c0-1.1-0.9-1.9-1.9-1.9s-1.9,0.9-1.9,1.9c0,1.1,0.9,1.9,1.9,1.9S224.2,46.8,224.2,45.8"/>
	<path d="M230.5,65.5c0-1.1-0.9-1.9-1.9-1.9s-1.9,0.9-1.9,1.9c0,1.1,0.9,1.9,1.9,1.9S230.5,66.6,230.5,65.5"/>
	<path d="M233.1,48.7c0-1.1-0.9-1.9-1.9-1.9c-1.1,0-1.9,0.9-1.9,1.9c0,1.1,0.9,1.9,1.9,1.9C232.2,50.6,233.1,49.7,233.1,48.7"/>
	<path d="M224.4,37.3c0-1.1-0.9-1.9-1.9-1.9c-1.1,0-1.9,0.9-1.9,1.9s0.9,1.9,1.9,1.9C223.6,39.2,224.4,38.3,224.4,37.3"/>
	<path d="M244,41.7c0-1.1-0.9-1.9-1.9-1.9s-1.9,0.9-1.9,1.9c0,1.1,0.9,1.9,1.9,1.9S244,42.8,244,41.7"/>
	<path d="M235.6,40.2c0-1.1-0.9-1.9-1.9-1.9s-1.9,0.9-1.9,1.9c0,1.1,0.9,1.9,1.9,1.9S235.6,41.3,235.6,40.2"/>
	<path d="M248.8,54.9c0-1.1-0.9-1.9-1.9-1.9c-1.1,0-1.9,0.9-1.9,1.9c0,1.1,0.9,1.9,1.9,1.9C247.9,56.8,248.8,55.9,248.8,54.9"/>
	<path d="M165.2,143.7c0-1.1-0.9-1.9-1.9-1.9c-1.1,0-1.9,0.9-1.9,1.9c0,1.1,0.9,1.9,1.9,1.9C164.3,145.7,165.2,144.8,165.2,143.7"/>
	<path d="M155.7,143c0-1.1-0.9-1.9-1.9-1.9c-1.1,0-1.9,0.9-1.9,1.9c0,1.1,0.9,1.9,1.9,1.9C154.9,144.9,155.7,144.1,155.7,143"/>
	<path d="M152.8,155.6c0-1.1-0.9-1.9-1.9-1.9c-1.1,0-1.9,0.9-1.9,1.9c0,1.1,0.9,1.9,1.9,1.9C151.9,157.6,152.8,156.7,152.8,155.6"/>
	<path d="M130.4,150.2c0-1.1-0.9-1.9-1.9-1.9c-1.1,0-1.9,0.9-1.9,1.9c0,1.1,0.9,1.9,1.9,1.9C129.5,152.2,130.4,151.3,130.4,150.2"/>
	<path d="M144.2,302.3c0-1.1-0.9-1.9-1.9-1.9c-1.1,0-1.9,0.9-1.9,1.9c0,1.1,0.9,1.9,1.9,1.9C143.4,304.2,144.2,303.4,144.2,302.3"/>
	<path d="M178.2,282.7c0-1.1-0.9-1.9-1.9-1.9c-1.1,0-1.9,0.9-1.9,1.9c0,1.1,0.9,1.9,1.9,1.9C177.4,284.6,178.2,283.7,178.2,282.7"/>
	<path d="M162.6,135.4c0-1.1-0.9-1.9-1.9-1.9c-1.1,0-1.9,0.9-1.9,1.9c0,1.1,0.9,1.9,1.9,1.9C161.8,137.3,162.6,136.4,162.6,135.4"/>
	<path d="M78.3,48.2c0-1.1-0.9-1.9-1.9-1.9s-1.9,0.9-1.9,1.9c0,1.1,0.9,1.9,1.9,1.9S78.3,49.3,78.3,48.2"/>
	<path d="M238.5,197.6c0-1.1-0.9-1.9-1.9-1.9c-1.1,0-1.9,0.9-1.9,1.9c0,1.1,0.9,1.9,1.9,1.9C237.6,199.5,238.5,198.7,238.5,197.6"/>
	<path d="M215.2,191.6c0-1.1-0.9-1.9-1.9-1.9c-1.1,0-1.9,0.9-1.9,1.9c0,1.1,0.9,1.9,1.9,1.9C214.3,193.6,215.2,192.7,215.2,191.6"/>
	<path d="M290.4,84.4c0-1.1-0.9-1.9-1.9-1.9c-1.1,0-1.9,0.9-1.9,1.9c0,1.1,0.9,1.9,1.9,1.9C289.5,86.3,290.4,85.5,290.4,84.4"/>
	<path d="M246.9,195.6c0-1.1-0.9-1.9-1.9-1.9c-1.1,0-1.9,0.9-1.9,1.9c0,1.1,0.9,1.9,1.9,1.9C246.1,197.6,246.9,196.7,246.9,195.6"/>
	<path d="M67.2,30.6c0-1.1-0.9-1.9-1.9-1.9c-1.1,0-1.9,0.9-1.9,1.9c0,1.1,0.9,1.9,1.9,1.9C66.4,32.5,67.2,31.7,67.2,30.6"/>
	<path d="M132.5,100.6c0-1.1-0.9-1.9-1.9-1.9c-1.1,0-1.9,0.9-1.9,1.9c0,1.1,0.9,1.9,1.9,1.9C131.6,102.5,132.5,101.6,132.5,100.6"/>
	<path d="M187.9,297.1c0-1.1-0.9-1.9-1.9-1.9c-1.1,0-1.9,0.9-1.9,1.9c0,1.1,0.9,1.9,1.9,1.9C187,299,187.9,298.1,187.9,297.1"/>
	<path d="M157.4,295.6c0-1.1-0.9-1.9-1.9-1.9s-1.9,0.9-1.9,1.9s0.9,1.9,1.9,1.9S157.4,296.7,157.4,295.6"/>
	<path d="M295.8,92.1c0-1.1-0.9-1.9-1.9-1.9c-1.1,0-1.9,0.9-1.9,1.9c0,1.1,0.9,1.9,1.9,1.9C295,94.1,295.8,93.2,295.8,92.1"/>
	<path d="M300,99.4c0-1.1-0.9-1.9-1.9-1.9c-1.1,0-1.9,0.9-1.9,1.9c0,1.1,0.9,1.9,1.9,1.9C299.1,101.4,300,100.5,300,99.4"/>
	<path d="M309.3,82.8c0-1.1-0.9-1.9-1.9-1.9c-1.1,0-1.9,0.9-1.9,1.9s0.9,1.9,1.9,1.9C308.4,84.7,309.3,83.9,309.3,82.8"/>
	<path d="M147.4,149.6c0-1.1-0.9-1.9-1.9-1.9c-1.1,0-1.9,0.9-1.9,1.9c0,1.1,0.9,1.9,1.9,1.9C146.5,151.5,147.4,150.6,147.4,149.6"/>
	<path d="M160.3,151c0-1.1-0.9-1.9-1.9-1.9c-1.1,0-1.9,0.9-1.9,1.9c0,1.1,0.9,1.9,1.9,1.9C159.5,153,160.3,152.1,160.3,151"/>
	<path d="M114.3,39c0-1.1-0.9-1.9-1.9-1.9c-1.1,0-1.9,0.9-1.9,1.9c0,1.1,0.9,1.9,1.9,1.9C113.4,41,114.3,40.1,114.3,39"/>
	<path d="M214,91.3c0-1.1-0.9-1.9-1.9-1.9c-1.1,0-1.9,0.9-1.9,1.9c0,1.1,0.9,1.9,1.9,1.9C213.1,93.2,214,92.3,214,91.3"/>
	<path d="M225.7,88.4c0-1.1-0.9-1.9-1.9-1.9c-1.1,0-1.9,0.9-1.9,1.9c0,1.1,0.9,1.9,1.9,1.9C224.8,90.3,225.7,89.4,225.7,88.4"/>
	<path d="M298.9,82.9c0-1.1-0.9-1.9-1.9-1.9c-1.1,0-1.9,0.9-1.9,1.9c0,1.1,0.9,1.9,1.9,1.9C298,84.9,298.9,84,298.9,82.9"/>
	<path d="M304.3,90.8c0-1.1-0.9-1.9-1.9-1.9c-1.1,0-1.9,0.9-1.9,1.9c0,1.1,0.9,1.9,1.9,1.9C303.5,92.8,304.3,91.9,304.3,90.8"/>
	<path d="M147.3,106c0-1.1-0.9-1.9-1.9-1.9c-1.1,0-1.9,0.9-1.9,1.9c0,1.1,0.9,1.9,1.9,1.9C146.4,108,147.3,107.1,147.3,106"/>
	<path d="M160.5,127.2c0-1.1-0.9-1.9-1.9-1.9c-1.1,0-1.9,0.9-1.9,1.9c0,1.1,0.9,1.9,1.9,1.9C159.7,129.1,160.5,128.3,160.5,127.2"/>
	<path d="M231,191c0-1.1-0.9-1.9-1.9-1.9c-1.1,0-1.9,0.9-1.9,1.9s0.9,1.9,1.9,1.9C230.1,192.9,231,192.1,231,191"/>
	<path d="M144.2,97.8c0-1.1-0.9-1.9-1.9-1.9c-1.1,0-1.9,0.9-1.9,1.9c0,1.1,0.9,1.9,1.9,1.9C143.4,99.8,144.2,98.9,144.2,97.8"/>
	<path d="M221.3,226.5c0-1.1-0.9-1.9-1.9-1.9c-1.1,0-1.9,0.9-1.9,1.9c0,1.1,0.9,1.9,1.9,1.9C220.5,228.4,221.3,227.6,221.3,226.5"/>
	<path d="M214.2,231.1c0-1.1-0.9-1.9-1.9-1.9c-1.1,0-1.9,0.9-1.9,1.9c0,1.1,0.9,1.9,1.9,1.9C213.3,233,214.2,232.1,214.2,231.1"/>
	<path d="M161.9,319.1c0-1.1-0.9-1.9-1.9-1.9c-1.1,0-1.9,0.9-1.9,1.9c0,1.1,0.9,1.9,1.9,1.9C161,321,161.9,320.1,161.9,319.1"/>
	<path d="M262.6,56.7c0-1.1-0.9-1.9-1.9-1.9c-1.1,0-1.9,0.9-1.9,1.9c0,1.1,0.9,1.9,1.9,1.9C261.8,58.6,262.6,57.8,262.6,56.7"/>
	<path d="M144.7,133.5c0-1.1-0.9-1.9-1.9-1.9s-1.9,0.9-1.9,1.9c0,1.1,0.9,1.9,1.9,1.9S144.7,134.6,144.7,133.5"/>
	<path d="M312.2,93.9c0-1.1-0.9-1.9-1.9-1.9c-1.1,0-1.9,0.9-1.9,1.9c0,1.1,0.9,1.9,1.9,1.9C311.3,95.8,312.2,95,312.2,93.9"/>
	<path d="M106.2,39.9c0-1.1-0.9-1.9-1.9-1.9c-1.1,0-1.9,0.9-1.9,1.9c0,1.1,0.9,1.9,1.9,1.9C105.3,41.8,106.2,40.9,106.2,39.9"/>
	<path d="M276.5,37.7c0-1.1-0.9-1.9-1.9-1.9c-1.1,0-1.9,0.9-1.9,1.9c0,1.1,0.9,1.9,1.9,1.9C275.6,39.6,276.5,38.7,276.5,37.7"/>
	<path d="M153.1,134.9c0-1.1-0.9-1.9-1.9-1.9c-1.1,0-1.9,0.9-1.9,1.9c0,1.1,0.9,1.9,1.9,1.9C152.2,136.8,153.1,135.9,153.1,134.9"/>
	<path d="M133.4,128.4c0-1.1-0.9-1.9-1.9-1.9c-1.1,0-1.9,0.9-1.9,1.9c0,1.1,0.9,1.9,1.9,1.9C132.5,130.4,133.4,129.5,133.4,128.4"/>
	<path d="M264.4,29.2c0-1.1-0.9-1.9-1.9-1.9c-1.1,0-1.9,0.9-1.9,1.9c0,1.1,0.9,1.9,1.9,1.9C263.5,31.2,264.4,30.3,264.4,29.2"/>
	<path d="M267.6,38c0-1.1-0.9-1.9-1.9-1.9c-1.1,0-1.9,0.9-1.9,1.9c0,1.1,0.9,1.9,1.9,1.9C266.8,39.9,267.6,39.1,267.6,38"/>
	<path d="M146.8,320.4c0-1.1-0.9-1.9-1.9-1.9s-1.9,0.9-1.9,1.9c0,1.1,0.9,1.9,1.9,1.9S146.8,321.5,146.8,320.4"/>
	<path d="M167,326.8c0-1.1-0.9-1.9-1.9-1.9c-1.1,0-1.9,0.9-1.9,1.9c0,1.1,0.9,1.9,1.9,1.9C166.1,328.8,167,327.9,167,326.8"/>
	<path d="M273.2,29.8c0-1.1-0.9-1.9-1.9-1.9s-1.9,0.9-1.9,1.9c0,1.1,0.9,1.9,1.9,1.9S273.2,30.9,273.2,29.8"/>
	<path d="M272.5,46.1c0-1.1-0.9-1.9-1.9-1.9c-1.1,0-1.9,0.9-1.9,1.9c0,1.1,0.9,1.9,1.9,1.9C271.7,48,272.5,47.2,272.5,46.1"/>
	<path d="M163.2,302.6c0-1.1-0.9-1.9-1.9-1.9c-1.1,0-1.9,0.9-1.9,1.9c0,1.1,0.9,1.9,1.9,1.9C162.3,304.6,163.2,303.7,163.2,302.6"/>
	<path d="M171.4,319.2c0-1.1-0.9-1.9-1.9-1.9s-1.9,0.9-1.9,1.9c0,1.1,0.9,1.9,1.9,1.9S171.4,320.3,171.4,319.2"/>
	<path d="M73.3,54.7c0-1.1-0.9-1.9-1.9-1.9s-1.9,0.9-1.9,1.9c0,1.1,0.9,1.9,1.9,1.9S73.3,55.8,73.3,54.7"/>
	<path d="M151.2,126.3c0-1.1-0.9-1.9-1.9-1.9c-1.1,0-1.9,0.9-1.9,1.9c0,1.1,0.9,1.9,1.9,1.9C150.3,128.2,151.2,127.4,151.2,126.3"/>
	<path d="M137.4,160.7c0-1.1-0.9-1.9-1.9-1.9c-1.1,0-1.9,0.9-1.9,1.9c0,1.1,0.9,1.9,1.9,1.9C136.5,162.7,137.4,161.8,137.4,160.7"/>
	<path d="M142.4,125c0-1.1-0.9-1.9-1.9-1.9c-1.1,0-1.9,0.9-1.9,1.9c0,1.1,0.9,1.9,1.9,1.9C141.6,126.9,142.4,126.1,142.4,125"/>
	<path d="M219.5,176.8c0-1.1-0.9-1.9-1.9-1.9c-1.1,0-1.9,0.9-1.9,1.9c0,1.1,0.9,1.9,1.9,1.9C218.6,178.8,219.5,177.9,219.5,176.8"/>
	<path d="M72.8,41.5c0-1.1-0.9-1.9-1.9-1.9c-1.1,0-1.9,0.9-1.9,1.9c0,1.1,0.9,1.9,1.9,1.9C71.9,43.5,72.8,42.6,72.8,41.5"/>
	<path d="M146.8,161c0-1.1-0.9-1.9-1.9-1.9c-1.1,0-1.9,0.9-1.9,1.9c0,1.1,0.9,1.9,1.9,1.9C146,162.9,146.8,162,146.8,161"/>
	<path d="M223.9,195c0-1.1-0.9-1.9-1.9-1.9s-1.9,0.9-1.9,1.9c0,1.1,0.9,1.9,1.9,1.9S223.9,196.1,223.9,195"/>
</g>
</svg>
