<?xml version="1.0" encoding="utf-8"?>
<!-- Generator: Adobe Illustrator 21.1.0, SVG Export Plug-In . SVG Version: 6.00 Build 0)  -->
<svg version="1.1" id="Layer_1" xmlns="http://www.w3.org/2000/svg" xmlns:xlink="http://www.w3.org/1999/xlink" x="0px" y="0px"
	 viewBox="0 0 350 350" style="enable-background:new 0 0 350 350;" xml:space="preserve">
<style type="text/css">
	.st0{fill:none;stroke:#231F20;stroke-width:0.75;stroke-miterlimit:10;}
</style>
<g>
	<line class="st0" x1="132.4" y1="234.3" x2="221.1" y2="264.5"/>
	<line class="st0" x1="132.4" y1="234.3" x2="70.5" y2="237.1"/>
	<line class="st0" x1="132.4" y1="234.3" x2="118.3" y2="217.9"/>
	<line class="st0" x1="132.4" y1="234.3" x2="98.4" y2="197.1"/>
	<line class="st0" x1="132.4" y1="234.3" x2="114.6" y2="177.5"/>
	<line class="st0" x1="132.4" y1="234.3" x2="110.1" y2="181.6"/>
	<line class="st0" x1="132.4" y1="234.3" x2="146.1" y2="221.1"/>
	<line class="st0" x1="132.4" y1="234.3" x2="132.3" y2="243.6"/>
	<line class="st0" x1="132.4" y1="234.3" x2="133.7" y2="218.9"/>
	<line class="st0" x1="132.4" y1="234.3" x2="118.4" y2="227.6"/>
	<line class="st0" x1="132.4" y1="234.3" x2="118.8" y2="236.3"/>
	<line class="st0" x1="132.4" y1="234.3" x2="109.9" y2="202.4"/>
	<line class="st0" x1="132.4" y1="234.3" x2="152.7" y2="214"/>
	<line class="st0" x1="74.8" y1="200.9" x2="159.5" y2="129.6"/>
	<line class="st0" x1="74.8" y1="200.9" x2="76.9" y2="209.7"/>
	<line class="st0" x1="74.8" y1="200.9" x2="85.1" y2="232.2"/>
	<line class="st0" x1="74.8" y1="200.9" x2="110.1" y2="181.6"/>
	<line class="st0" x1="74.8" y1="200.9" x2="92.8" y2="221"/>
	<line class="st0" x1="74.8" y1="200.9" x2="57.7" y2="193.7"/>
	<line class="st0" x1="74.8" y1="200.9" x2="92.9" y2="202.9"/>
	<line class="st0" x1="74.8" y1="200.9" x2="71.3" y2="179.7"/>
	<line class="st0" x1="145.3" y1="109.9" x2="159.5" y2="129.6"/>
	<line class="st0" x1="145.3" y1="109.9" x2="173.1" y2="138.3"/>
	<line class="st0" x1="145.3" y1="109.9" x2="179.5" y2="146.3"/>
	<line class="st0" x1="145.3" y1="109.9" x2="66.4" y2="222.4"/>
	<line class="st0" x1="145.3" y1="109.9" x2="114.6" y2="177.5"/>
	<line class="st0" x1="145.3" y1="109.9" x2="110.1" y2="181.6"/>
	<line class="st0" x1="145.3" y1="109.9" x2="126.3" y2="134"/>
	<line class="st0" x1="145.3" y1="109.9" x2="135.8" y2="125.4"/>
	<line class="st0" x1="145.3" y1="109.9" x2="234.1" y2="191.4"/>
	<line class="st0" x1="145.3" y1="109.9" x2="166.2" y2="139.5"/>
	<line class="st0" x1="145.3" y1="109.9" x2="176.3" y2="191.3"/>
	<line class="st0" x1="145.3" y1="109.9" x2="139.1" y2="133.2"/>
	<line class="st0" x1="294" y1="189" x2="159.5" y2="129.6"/>
	<line class="st0" x1="294" y1="189" x2="267.1" y2="185.8"/>
	<line class="st0" x1="294" y1="189" x2="243.5" y2="161.2"/>
	<line class="st0" x1="294" y1="189" x2="226.1" y2="166"/>
	<line class="st0" x1="294" y1="189" x2="85.1" y2="232.2"/>
	<line class="st0" x1="294" y1="189" x2="260.1" y2="188.6"/>
	<line class="st0" x1="294" y1="189" x2="257.1" y2="200.6"/>
	<line class="st0" x1="294" y1="189" x2="169.2" y2="207.7"/>
	<line class="st0" x1="294" y1="189" x2="133.7" y2="218.9"/>
	<line class="st0" x1="294" y1="189" x2="253.8" y2="187.6"/>
	<line class="st0" x1="265.2" y1="192.1" x2="267.1" y2="185.8"/>
	<line class="st0" x1="265.2" y1="192.1" x2="173.5" y2="174.5"/>
	<line class="st0" x1="265.2" y1="192.1" x2="262.2" y2="197.3"/>
	<line class="st0" x1="265.2" y1="192.1" x2="260.1" y2="188.6"/>
	<line class="st0" x1="265.2" y1="192.1" x2="130.8" y2="180.2"/>
	<line class="st0" x1="224.9" y1="277.7" x2="207.2" y2="310.6"/>
	<line class="st0" x1="224.9" y1="277.7" x2="118.3" y2="217.9"/>
	<line class="st0" x1="224.9" y1="277.7" x2="288.5" y2="335.6"/>
	<line class="st0" x1="98.8" y1="152.6" x2="97.6" y2="165.6"/>
	<line class="st0" x1="98.8" y1="152.6" x2="86.4" y2="195"/>
	<line class="st0" x1="98.8" y1="152.6" x2="90.4" y2="214.1"/>
	<line class="st0" x1="98.8" y1="152.6" x2="112" y2="157.4"/>
	<line class="st0" x1="98.8" y1="152.6" x2="97.7" y2="159.3"/>
	<line class="st0" x1="98.8" y1="152.6" x2="174.3" y2="75.3"/>
	<line class="st0" x1="126.7" y1="208.3" x2="243.5" y2="161.2"/>
	<line class="st0" x1="126.7" y1="208.3" x2="135.8" y2="213"/>
	<line class="st0" x1="126.7" y1="208.3" x2="118.3" y2="217.9"/>
	<line class="st0" x1="126.7" y1="208.3" x2="90.4" y2="214.1"/>
	<line class="st0" x1="126.7" y1="208.3" x2="130.8" y2="180.2"/>
	<line class="st0" x1="126.7" y1="208.3" x2="142.1" y2="199.1"/>
	<line class="st0" x1="126.7" y1="208.3" x2="105.8" y2="194.1"/>
	<line class="st0" x1="126.7" y1="208.3" x2="137.7" y2="203.6"/>
	<line class="st0" x1="126.7" y1="208.3" x2="132.6" y2="207.6"/>
	<line class="st0" x1="126.7" y1="208.3" x2="129.2" y2="214"/>
	<line class="st0" x1="227.3" y1="208.3" x2="215" y2="250.1"/>
	<line class="st0" x1="123" y1="213.6" x2="118.3" y2="217.9"/>
	<line class="st0" x1="123" y1="213.6" x2="179.6" y2="153.2"/>
	<line class="st0" x1="123" y1="213.6" x2="154.1" y2="195.8"/>
	<line class="st0" x1="102.3" y1="172.3" x2="221.1" y2="264.5"/>
	<line class="st0" x1="102.3" y1="172.3" x2="118.3" y2="217.9"/>
	<line class="st0" x1="102.3" y1="172.3" x2="83" y2="189.9"/>
	<line class="st0" x1="102.3" y1="172.3" x2="90.4" y2="214.1"/>
	<line class="st0" x1="102.3" y1="172.3" x2="95.9" y2="172.3"/>
	<line class="st0" x1="102.3" y1="172.3" x2="66.4" y2="222.4"/>
	<line class="st0" x1="102.3" y1="172.3" x2="82.1" y2="177.3"/>
	<line class="st0" x1="102.3" y1="172.3" x2="92.9" y2="202.9"/>
	<line class="st0" x1="102.3" y1="172.3" x2="104.1" y2="166.3"/>
	<line class="st0" x1="102.3" y1="172.3" x2="83.9" y2="171.3"/>
	<line class="st0" x1="239.6" y1="174.5" x2="262.2" y2="197.3"/>
	<line class="st0" x1="239.6" y1="174.5" x2="242.1" y2="201.7"/>
	<line class="st0" x1="239.6" y1="174.5" x2="110.1" y2="181.6"/>
	<line class="st0" x1="239.6" y1="174.5" x2="146.1" y2="221.1"/>
	<line class="st0" x1="239.6" y1="174.5" x2="169.2" y2="207.7"/>
	<line class="st0" x1="239.6" y1="174.5" x2="234.1" y2="191.4"/>
	<line class="st0" x1="239.6" y1="174.5" x2="253.8" y2="187.6"/>
	<line class="st0" x1="239.6" y1="174.5" x2="176.3" y2="191.3"/>
	<line class="st0" x1="239.6" y1="174.5" x2="226.9" y2="175.5"/>
	<line class="st0" x1="292.3" y1="329.7" x2="288.5" y2="335.6"/>
	<line class="st0" x1="121.6" y1="197.5" x2="118.3" y2="217.9"/>
	<line class="st0" x1="141.6" y1="180.2" x2="173.5" y2="174.5"/>
	<line class="st0" x1="141.6" y1="180.2" x2="83" y2="189.9"/>
	<line class="st0" x1="141.6" y1="180.2" x2="85.1" y2="232.2"/>
	<line class="st0" x1="141.6" y1="180.2" x2="110.1" y2="181.6"/>
	<line class="st0" x1="141.6" y1="180.2" x2="132.3" y2="168.2"/>
	<line class="st0" x1="141.6" y1="180.2" x2="121.3" y2="152.5"/>
	<line class="st0" x1="88.4" y1="179.3" x2="86.4" y2="195"/>
	<line class="st0" x1="96.2" y1="191.7" x2="159.5" y2="129.6"/>
	<line class="st0" x1="96.2" y1="191.7" x2="70.5" y2="237.1"/>
	<line class="st0" x1="96.2" y1="191.7" x2="118.3" y2="217.9"/>
	<line class="st0" x1="96.2" y1="191.7" x2="83" y2="189.9"/>
	<line class="st0" x1="96.2" y1="191.7" x2="86.4" y2="195"/>
	<line class="st0" x1="96.2" y1="191.7" x2="55.3" y2="200.7"/>
	<line class="st0" x1="96.2" y1="191.7" x2="226.1" y2="166"/>
	<line class="st0" x1="96.2" y1="191.7" x2="90.4" y2="214.1"/>
	<line class="st0" x1="96.2" y1="191.7" x2="87.6" y2="143.3"/>
	<line class="st0" x1="96.2" y1="191.7" x2="104" y2="200.3"/>
	<line class="st0" x1="96.2" y1="191.7" x2="85.1" y2="232.2"/>
	<line class="st0" x1="96.2" y1="191.7" x2="98.4" y2="197.1"/>
	<line class="st0" x1="96.2" y1="191.7" x2="114.6" y2="177.5"/>
	<line class="st0" x1="96.2" y1="191.7" x2="110.1" y2="181.6"/>
	<line class="st0" x1="96.2" y1="191.7" x2="130.8" y2="180.2"/>
	<line class="st0" x1="96.2" y1="191.7" x2="146.1" y2="221.1"/>
	<line class="st0" x1="96.2" y1="191.7" x2="94.4" y2="178.3"/>
	<line class="st0" x1="96.2" y1="191.7" x2="105.8" y2="194.1"/>
	<line class="st0" x1="96.2" y1="191.7" x2="89.8" y2="173.5"/>
	<line class="st0" x1="96.2" y1="191.7" x2="88.4" y2="207.5"/>
	<line class="st0" x1="96.2" y1="191.7" x2="66.2" y2="193.5"/>
	<line class="st0" x1="96.2" y1="191.7" x2="68.5" y2="204.9"/>
	<line class="st0" x1="147.1" y1="194.4" x2="226.1" y2="166"/>
	<line class="st0" x1="147.1" y1="194.4" x2="89.8" y2="173.5"/>
	<line class="st0" x1="147.1" y1="194.4" x2="154.1" y2="195.8"/>
	<line class="st0" x1="147.1" y1="194.4" x2="152.3" y2="190.2"/>
	<line class="st0" x1="147.1" y1="194.4" x2="176.3" y2="191.3"/>
	<line class="st0" x1="47.6" y1="171" x2="86.4" y2="195"/>
	<line class="st0" x1="47.6" y1="171" x2="49.3" y2="165.3"/>
	<line class="st0" x1="47.6" y1="171" x2="51.1" y2="176.5"/>
	<line class="st0" x1="109" y1="188.1" x2="159.5" y2="129.6"/>
	<line class="st0" x1="109" y1="188.1" x2="83" y2="189.9"/>
	<line class="st0" x1="109" y1="188.1" x2="90.4" y2="214.1"/>
	<line class="st0" x1="109" y1="188.1" x2="87.6" y2="143.3"/>
	<line class="st0" x1="109" y1="188.1" x2="104" y2="200.3"/>
	<line class="st0" x1="109" y1="188.1" x2="98.4" y2="197.1"/>
	<line class="st0" x1="109" y1="188.1" x2="114.3" y2="190.5"/>
	<line class="st0" x1="109" y1="188.1" x2="114.6" y2="177.5"/>
	<line class="st0" x1="109" y1="188.1" x2="110.1" y2="181.6"/>
	<line class="st0" x1="109" y1="188.1" x2="94.4" y2="178.3"/>
	<line class="st0" x1="109" y1="188.1" x2="97.9" y2="184.6"/>
	<line class="st0" x1="109" y1="188.1" x2="105.8" y2="194.1"/>
	<line class="st0" x1="109" y1="188.1" x2="91.8" y2="184.9"/>
	<line class="st0" x1="109" y1="188.1" x2="89.8" y2="173.5"/>
	<line class="st0" x1="109" y1="188.1" x2="154.1" y2="195.8"/>
	<line class="st0" x1="109" y1="188.1" x2="176.3" y2="191.3"/>
	<line class="st0" x1="109" y1="188.1" x2="115.2" y2="184.7"/>
	<line class="st0" x1="109" y1="188.1" x2="109.9" y2="202.4"/>
	<line class="st0" x1="236.2" y1="83.5" x2="173.5" y2="174.5"/>
	<line class="st0" x1="236.2" y1="83.5" x2="238.1" y2="68.4"/>
	<line class="st0" x1="236.2" y1="83.5" x2="278.4" y2="74.7"/>
	<line class="st0" x1="92.5" y1="196.7" x2="118.3" y2="217.9"/>
	<line class="st0" x1="92.5" y1="196.7" x2="86.4" y2="195"/>
	<line class="st0" x1="92.5" y1="196.7" x2="76.9" y2="209.7"/>
	<line class="st0" x1="92.5" y1="196.7" x2="176.3" y2="191.3"/>
	<line class="st0" x1="219.7" y1="146.7" x2="159.5" y2="129.6"/>
	<line class="st0" x1="219.7" y1="146.7" x2="231.5" y2="139"/>
	<line class="st0" x1="219.7" y1="146.7" x2="260.1" y2="188.6"/>
	<line class="st0" x1="219.7" y1="146.7" x2="66.4" y2="222.4"/>
	<line class="st0" x1="219.7" y1="146.7" x2="213.7" y2="125.9"/>
	<line class="st0" x1="219.7" y1="146.7" x2="240.9" y2="150"/>
	<line class="st0" x1="219.7" y1="146.7" x2="267.6" y2="146.3"/>
	<line class="st0" x1="261.5" y1="173.5" x2="159.5" y2="129.6"/>
	<line class="st0" x1="261.5" y1="173.5" x2="83" y2="189.9"/>
	<line class="st0" x1="261.5" y1="173.5" x2="226.1" y2="166"/>
	<line class="st0" x1="261.5" y1="173.5" x2="260.1" y2="188.6"/>
	<line class="st0" x1="98.5" y1="238.8" x2="86.4" y2="195"/>
	<line class="st0" x1="98.5" y1="238.8" x2="105.3" y2="238.9"/>
	<line class="st0" x1="98.5" y1="238.8" x2="133.7" y2="218.9"/>
	<line class="st0" x1="98.5" y1="238.8" x2="88.4" y2="207.5"/>
	<line class="st0" x1="98.5" y1="238.8" x2="111.3" y2="214.4"/>
	<line class="st0" x1="284.7" y1="158.6" x2="173.5" y2="174.5"/>
	<line class="st0" x1="284.7" y1="158.6" x2="243.5" y2="161.2"/>
	<line class="st0" x1="284.7" y1="158.6" x2="90.4" y2="214.1"/>
	<line class="st0" x1="284.7" y1="158.6" x2="188.3" y2="166.7"/>
	<line class="st0" x1="284.7" y1="158.6" x2="260.1" y2="188.6"/>
	<line class="st0" x1="284.7" y1="158.6" x2="254.4" y2="148.1"/>
	<line class="st0" x1="284.7" y1="158.6" x2="267.6" y2="146.3"/>
	<line class="st0" x1="284.7" y1="158.6" x2="288.5" y2="132.2"/>
	<line class="st0" x1="232.5" y1="65.5" x2="238.1" y2="68.4"/>
	<line class="st0" x1="107.2" y1="176.1" x2="159.5" y2="129.6"/>
	<line class="st0" x1="107.2" y1="176.1" x2="104" y2="200.3"/>
	<line class="st0" x1="107.2" y1="176.1" x2="181.1" y2="174.2"/>
	<line class="st0" x1="107.2" y1="176.1" x2="114.6" y2="177.5"/>
	<line class="st0" x1="107.2" y1="176.1" x2="110.1" y2="181.6"/>
	<line class="st0" x1="107.2" y1="176.1" x2="97.9" y2="184.6"/>
	<line class="st0" x1="107.2" y1="176.1" x2="105.8" y2="194.1"/>
	<line class="st0" x1="107.2" y1="176.1" x2="104.3" y2="145.1"/>
	<line class="st0" x1="162.6" y1="74.7" x2="159.5" y2="129.6"/>
	<line class="st0" x1="162.6" y1="74.7" x2="90.4" y2="214.1"/>
	<line class="st0" x1="162.6" y1="74.7" x2="164.5" y2="68.8"/>
	<line class="st0" x1="162.6" y1="74.7" x2="161.6" y2="81.6"/>
	<line class="st0" x1="162.6" y1="74.7" x2="156" y2="76.9"/>
	<line class="st0" x1="162.6" y1="74.7" x2="213.7" y2="125.9"/>
	<line class="st0" x1="162.6" y1="74.7" x2="174.3" y2="75.3"/>
	<line class="st0" x1="162.6" y1="74.7" x2="158.9" y2="70.3"/>
	<line class="st0" x1="162.6" y1="74.7" x2="168.4" y2="74.3"/>
	<line class="st0" x1="77.1" y1="195" x2="135.8" y2="213"/>
	<line class="st0" x1="77.1" y1="195" x2="85.1" y2="232.2"/>
	<line class="st0" x1="70.8" y1="228" x2="118.3" y2="217.9"/>
	<line class="st0" x1="70.8" y1="228" x2="86.4" y2="195"/>
	<line class="st0" x1="70.8" y1="228" x2="90.4" y2="214.1"/>
	<line class="st0" x1="70.8" y1="228" x2="188.3" y2="166.7"/>
	<line class="st0" x1="70.8" y1="228" x2="66.4" y2="222.4"/>
	<line class="st0" x1="70.8" y1="228" x2="118.4" y2="227.6"/>
	<line class="st0" x1="177.1" y1="169.4" x2="159.5" y2="129.6"/>
	<line class="st0" x1="177.1" y1="169.4" x2="173.5" y2="174.5"/>
	<line class="st0" x1="177.1" y1="169.4" x2="288.5" y2="335.6"/>
	<line class="st0" x1="177.1" y1="169.4" x2="90.4" y2="214.1"/>
	<line class="st0" x1="177.1" y1="169.4" x2="87.6" y2="143.3"/>
	<line class="st0" x1="177.1" y1="169.4" x2="181.1" y2="174.2"/>
	<line class="st0" x1="177.1" y1="169.4" x2="66.4" y2="222.4"/>
	<line class="st0" x1="177.1" y1="169.4" x2="110.1" y2="181.6"/>
	<line class="st0" x1="177.1" y1="169.4" x2="172.9" y2="165"/>
	<line class="st0" x1="177.1" y1="169.4" x2="152.7" y2="159.6"/>
	<line class="st0" x1="177.1" y1="169.4" x2="180" y2="164.1"/>
	<line class="st0" x1="215" y1="262.2" x2="221.1" y2="264.5"/>
	<line class="st0" x1="193.5" y1="173.5" x2="188.3" y2="166.7"/>
	<line class="st0" x1="100.3" y1="178.1" x2="95.9" y2="172.3"/>
	<line class="st0" x1="100.3" y1="178.1" x2="94.4" y2="178.3"/>
	<line class="st0" x1="100.3" y1="178.1" x2="97.9" y2="184.6"/>
	<line class="st0" x1="100.3" y1="178.1" x2="89.8" y2="173.5"/>
	<line class="st0" x1="100.3" y1="178.1" x2="51.1" y2="176.5"/>
	<line class="st0" x1="273.5" y1="211.3" x2="85.1" y2="232.2"/>
	<line class="st0" x1="273.5" y1="211.3" x2="260.1" y2="188.6"/>
	<line class="st0" x1="273.5" y1="211.3" x2="208.4" y2="209"/>
	<line class="st0" x1="188.8" y1="153.1" x2="215" y2="250.1"/>
	<line class="st0" x1="188.8" y1="153.1" x2="188.3" y2="166.7"/>
	<line class="st0" x1="188.8" y1="153.1" x2="126.3" y2="134"/>
	<line class="st0" x1="188.8" y1="153.1" x2="179.6" y2="153.2"/>
	<line class="st0" x1="121.2" y1="206.2" x2="118.3" y2="217.9"/>
	<line class="st0" x1="131.7" y1="200.7" x2="118.3" y2="217.9"/>
	<line class="st0" x1="139.2" y1="166.9" x2="87.6" y2="143.3"/>
	<line class="st0" x1="139.2" y1="166.9" x2="159.5" y2="159.7"/>
	<line class="st0" x1="173" y1="105.4" x2="238.1" y2="68.4"/>
	<line class="st0" x1="173" y1="105.4" x2="110.1" y2="181.6"/>
	<line class="st0" x1="173" y1="105.4" x2="181.2" y2="91.2"/>
	<line class="st0" x1="173" y1="105.4" x2="207.7" y2="97.3"/>
	<line class="st0" x1="111.7" y1="195.8" x2="70.5" y2="237.1"/>
	<line class="st0" x1="111.7" y1="195.8" x2="118.3" y2="217.9"/>
	<line class="st0" x1="111.7" y1="195.8" x2="87.6" y2="143.3"/>
	<line class="st0" x1="111.7" y1="195.8" x2="104" y2="200.3"/>
	<line class="st0" x1="111.7" y1="195.8" x2="110.1" y2="181.6"/>
	<line class="st0" x1="111.7" y1="195.8" x2="169.2" y2="207.7"/>
	<line class="st0" x1="111.7" y1="195.8" x2="94.4" y2="178.3"/>
	<line class="st0" x1="111.7" y1="195.8" x2="109.9" y2="202.4"/>
	<line class="st0" x1="213.9" y1="221.7" x2="221.1" y2="264.5"/>
	<line class="st0" x1="213.9" y1="221.7" x2="118.3" y2="217.9"/>
	<line class="st0" x1="213.9" y1="221.7" x2="231.5" y2="139"/>
	<line class="st0" x1="213.9" y1="221.7" x2="260.1" y2="188.6"/>
	<line class="st0" x1="213.9" y1="221.7" x2="114.6" y2="177.5"/>
	<line class="st0" x1="104.3" y1="183" x2="159.5" y2="129.6"/>
	<line class="st0" x1="104.3" y1="183" x2="114.6" y2="177.5"/>
	<line class="st0" x1="104.3" y1="183" x2="110.1" y2="181.6"/>
	<line class="st0" x1="104.3" y1="183" x2="105.8" y2="194.1"/>
	<line class="st0" x1="104.3" y1="183" x2="132.4" y2="158.3"/>
	<line class="st0" x1="104.3" y1="183" x2="138.8" y2="146.5"/>
	<line class="st0" x1="72.7" y1="165.8" x2="87.6" y2="143.3"/>
	<line class="st0" x1="72.7" y1="165.8" x2="78.6" y2="165.1"/>
	<line class="st0" x1="72.7" y1="165.8" x2="66.2" y2="166.3"/>
	<line class="st0" x1="72.7" y1="165.8" x2="71.7" y2="160"/>
	<line class="st0" x1="108.8" y1="131.4" x2="126.3" y2="134"/>
	<line class="st0" x1="108.8" y1="131.4" x2="113.6" y2="138.8"/>
	<line class="st0" x1="108.8" y1="131.4" x2="117.1" y2="133.4"/>
	<line class="st0" x1="108.8" y1="131.4" x2="115.2" y2="184.7"/>
	<line class="st0" x1="108.8" y1="131.4" x2="110" y2="124.9"/>
	<line class="st0" x1="260" y1="221.9" x2="226.1" y2="166"/>
	<line class="st0" x1="260" y1="221.9" x2="257.1" y2="200.6"/>
	<line class="st0" x1="122" y1="166.7" x2="70.5" y2="237.1"/>
	<line class="st0" x1="122" y1="166.7" x2="83" y2="189.9"/>
	<line class="st0" x1="122" y1="166.7" x2="226.1" y2="166"/>
	<line class="st0" x1="122" y1="166.7" x2="87.6" y2="143.3"/>
	<line class="st0" x1="122" y1="166.7" x2="66.4" y2="222.4"/>
	<line class="st0" x1="122" y1="166.7" x2="107.9" y2="161.8"/>
	<line class="st0" x1="120.9" y1="190.7" x2="118.3" y2="217.9"/>
	<line class="st0" x1="120.9" y1="190.7" x2="83" y2="189.9"/>
	<line class="st0" x1="120.9" y1="190.7" x2="90.4" y2="214.1"/>
	<line class="st0" x1="120.9" y1="190.7" x2="169.2" y2="207.7"/>
	<line class="st0" x1="120.9" y1="190.7" x2="142.1" y2="199.1"/>
	<line class="st0" x1="120.9" y1="190.7" x2="97.9" y2="184.6"/>
	<line class="st0" x1="120.9" y1="190.7" x2="105.8" y2="194.1"/>
	<line class="st0" x1="120.9" y1="190.7" x2="124.8" y2="219.7"/>
	<line class="st0" x1="120.9" y1="190.7" x2="138.5" y2="189.1"/>
	<line class="st0" x1="120.9" y1="190.7" x2="108.5" y2="208.8"/>
	<line class="st0" x1="190.4" y1="126.3" x2="159.5" y2="129.6"/>
	<line class="st0" x1="190.4" y1="126.3" x2="173.5" y2="174.5"/>
	<line class="st0" x1="190.4" y1="126.3" x2="118.3" y2="217.9"/>
	<line class="st0" x1="190.4" y1="126.3" x2="231.5" y2="139"/>
	<line class="st0" x1="190.4" y1="126.3" x2="179.6" y2="153.2"/>
	<line class="st0" x1="190.4" y1="126.3" x2="194.5" y2="117.4"/>
	<line class="st0" x1="172.1" y1="195.6" x2="159.5" y2="129.6"/>
	<line class="st0" x1="172.1" y1="195.6" x2="114.3" y2="190.5"/>
	<line class="st0" x1="172.1" y1="195.6" x2="159.5" y2="159.7"/>
	<line class="st0" x1="172.1" y1="195.6" x2="94.4" y2="178.3"/>
	<line class="st0" x1="172.1" y1="195.6" x2="105.8" y2="194.1"/>
	<line class="st0" x1="172.1" y1="195.6" x2="253.8" y2="187.6"/>
	<line class="st0" x1="172.1" y1="195.6" x2="176.3" y2="191.3"/>
	<line class="st0" x1="145.8" y1="204.8" x2="118.3" y2="217.9"/>
	<line class="st0" x1="145.8" y1="204.8" x2="110.1" y2="181.6"/>
	<line class="st0" x1="145.8" y1="204.8" x2="169.2" y2="207.7"/>
	<line class="st0" x1="145.8" y1="204.8" x2="142.1" y2="199.1"/>
	<line class="st0" x1="145.8" y1="204.8" x2="141" y2="208.6"/>
	<line class="st0" x1="166.2" y1="146.5" x2="126.3" y2="134"/>
	<line class="st0" x1="166.2" y1="146.5" x2="151.5" y2="147.2"/>
	<line class="st0" x1="166.2" y1="146.5" x2="179.6" y2="153.2"/>
	<line class="st0" x1="166.2" y1="146.5" x2="129.2" y2="214"/>
	<line class="st0" x1="253.4" y1="130.5" x2="231.5" y2="139"/>
	<line class="st0" x1="156.7" y1="226.1" x2="118.3" y2="217.9"/>
	<line class="st0" x1="156.7" y1="226.1" x2="118.4" y2="227.6"/>
	<line class="st0" x1="80.2" y1="204.9" x2="85.1" y2="232.2"/>
	<line class="st0" x1="80.2" y1="204.9" x2="83.9" y2="200.3"/>
	<line class="st0" x1="145.4" y1="235.6" x2="118.3" y2="217.9"/>
	<line class="st0" x1="145.4" y1="235.6" x2="140.5" y2="240.3"/>
	<line class="st0" x1="180.1" y1="180.3" x2="114.6" y2="177.5"/>
	<line class="st0" x1="180.1" y1="180.3" x2="152.7" y2="159.6"/>
	<line class="st0" x1="75.1" y1="152.9" x2="83" y2="189.9"/>
	<line class="st0" x1="294.5" y1="335.8" x2="288.5" y2="335.6"/>
	<line class="st0" x1="204" y1="137.8" x2="173.5" y2="174.5"/>
	<line class="st0" x1="207.7" y1="183.8" x2="226.1" y2="166"/>
	<line class="st0" x1="273.1" y1="71.2" x2="278.4" y2="74.7"/>
	<line class="st0" x1="136" y1="196.4" x2="118.3" y2="217.9"/>
	<line class="st0" x1="105.2" y1="226.5" x2="70.5" y2="237.1"/>
	<line class="st0" x1="231.9" y1="77.5" x2="238.1" y2="68.4"/>
	<line class="st0" x1="128" y1="195.8" x2="118.3" y2="217.9"/>
	<line class="st0" x1="219" y1="256.7" x2="221.1" y2="264.5"/>
	<line class="st0" x1="219" y1="256.7" x2="215" y2="250.1"/>
	<line class="st0" x1="270.2" y1="224.4" x2="260.1" y2="188.6"/>
	<line class="st0" x1="90.3" y1="190.7" x2="169.2" y2="207.7"/>
	<line class="st0" x1="90.3" y1="190.7" x2="94.4" y2="178.3"/>
	<line class="st0" x1="159.6" y1="119.2" x2="159.5" y2="129.6"/>
	<line class="st0" x1="114.3" y1="206.3" x2="118.3" y2="217.9"/>
	<line class="st0" x1="128.4" y1="190" x2="118.3" y2="217.9"/>
	<line class="st0" x1="128.4" y1="190" x2="126.3" y2="134"/>
	<line class="st0" x1="164.8" y1="25.1" x2="168.8" y2="14.2"/>
	<line class="st0" x1="164.8" y1="25.1" x2="158.9" y2="70.3"/>
	<line class="st0" x1="102.3" y1="188.7" x2="114.6" y2="177.5"/>
	<line class="st0" x1="117.4" y1="211.5" x2="118.3" y2="217.9"/>
	<line class="st0" x1="302.4" y1="166.2" x2="260.1" y2="188.6"/>
	<line class="st0" x1="275.4" y1="80.3" x2="278.4" y2="74.7"/>
	<line class="st0" x1="261.2" y1="161.8" x2="267.6" y2="146.3"/>
	<line class="st0" x1="83.8" y1="221.6" x2="89.8" y2="173.5"/>
	<line class="st0" x1="97.3" y1="216.6" x2="92.8" y2="221"/>
	<line class="st0" x1="105.2" y1="214.7" x2="85.1" y2="232.2"/>
	<line class="st0" x1="271.2" y1="193.2" x2="262.2" y2="197.3"/>
	<line class="st0" x1="271.2" y1="193.2" x2="90.4" y2="214.1"/>
	<line class="st0" x1="116.4" y1="200.5" x2="118.3" y2="217.9"/>
	<line class="st0" x1="125.8" y1="202.5" x2="118.3" y2="217.9"/>
	<line class="st0" x1="173" y1="112.5" x2="159.5" y2="129.6"/>
	<line class="st0" x1="147.9" y1="139.4" x2="159.5" y2="129.6"/>
	<line class="st0" x1="191.7" y1="196.1" x2="176.3" y2="191.3"/>
	<path d="M134.3,234.3c0-1.1-0.9-1.9-1.9-1.9s-1.9,0.9-1.9,1.9c0,1.1,0.9,1.9,1.9,1.9S134.3,235.4,134.3,234.3"/>
	<path d="M223,264.5c0-1.1-0.9-1.9-1.9-1.9c-1.1,0-1.9,0.9-1.9,1.9c0,1.1,0.9,1.9,1.9,1.9C222.1,266.4,223,265.5,223,264.5"/>
	<path d="M76.8,200.9c0-1.1-0.9-1.9-1.9-1.9c-1.1,0-1.9,0.9-1.9,1.9c0,1.1,0.9,1.9,1.9,1.9C75.9,202.8,76.8,202,76.8,200.9"/>
	<path d="M161.4,129.6c0-1.1-0.9-1.9-1.9-1.9c-1.1,0-1.9,0.9-1.9,1.9c0,1.1,0.9,1.9,1.9,1.9C160.6,131.5,161.4,130.7,161.4,129.6"/>
	<path d="M147.2,109.9c0-1.1-0.9-1.9-1.9-1.9s-1.9,0.9-1.9,1.9s0.9,1.9,1.9,1.9S147.2,111,147.2,109.9"/>
	<path d="M175,138.3c0-1.1-0.9-1.9-1.9-1.9s-1.9,0.9-1.9,1.9c0,1.1,0.9,1.9,1.9,1.9S175,139.4,175,138.3"/>
	<path d="M296,189c0-1.1-0.9-1.9-1.9-1.9s-1.9,0.9-1.9,1.9c0,1.1,0.9,1.9,1.9,1.9S296,190,296,189"/>
	<path d="M269,185.8c0-1.1-0.9-1.9-1.9-1.9c-1.1,0-1.9,0.9-1.9,1.9s0.9,1.9,1.9,1.9C268.2,187.7,269,186.9,269,185.8"/>
	<path d="M181.5,146.3c0-1.1-0.9-1.9-1.9-1.9c-1.1,0-1.9,0.9-1.9,1.9c0,1.1,0.9,1.9,1.9,1.9C180.6,148.3,181.5,147.4,181.5,146.3"/>
	<path d="M267.2,192.1c0-1.1-0.9-1.9-1.9-1.9c-1.1,0-1.9,0.9-1.9,1.9c0,1.1,0.9,1.9,1.9,1.9C266.3,194,267.2,193.1,267.2,192.1"/>
	<path d="M175.5,174.5c0-1.1-0.9-1.9-1.9-1.9s-1.9,0.9-1.9,1.9c0,1.1,0.9,1.9,1.9,1.9S175.5,175.5,175.5,174.5"/>
	<path d="M226.8,277.7c0-1.1-0.9-1.9-1.9-1.9c-1.1,0-1.9,0.9-1.9,1.9c0,1.1,0.9,1.9,1.9,1.9C226,279.6,226.8,278.7,226.8,277.7"/>
	<path d="M209.1,310.6c0-1.1-0.9-1.9-1.9-1.9c-1.1,0-1.9,0.9-1.9,1.9c0,1.1,0.9,1.9,1.9,1.9C208.3,312.6,209.1,311.7,209.1,310.6"/>
	<path d="M72.4,237.1c0-1.1-0.9-1.9-1.9-1.9c-1.1,0-1.9,0.9-1.9,1.9c0,1.1,0.9,1.9,1.9,1.9C71.6,239,72.4,238.2,72.4,237.1"/>
	<path d="M100.7,152.6c0-1.1-0.9-1.9-1.9-1.9c-1.1,0-1.9,0.9-1.9,1.9c0,1.1,0.9,1.9,1.9,1.9C99.9,154.5,100.7,153.7,100.7,152.6"/>
	<path d="M99.6,165.6c0-1.1-0.9-1.9-1.9-1.9c-1.1,0-1.9,0.9-1.9,1.9c0,1.1,0.9,1.9,1.9,1.9C98.7,167.5,99.6,166.6,99.6,165.6"/>
	<path d="M128.6,208.3c0-1.1-0.9-1.9-1.9-1.9c-1.1,0-1.9,0.9-1.9,1.9c0,1.1,0.9,1.9,1.9,1.9C127.8,210.3,128.6,209.4,128.6,208.3"/>
	<path d="M245.4,161.2c0-1.1-0.9-1.9-1.9-1.9c-1.1,0-1.9,0.9-1.9,1.9c0,1.1,0.9,1.9,1.9,1.9C244.5,163.2,245.4,162.3,245.4,161.2"/>
	<path d="M229.3,208.3c0-1.1-0.9-1.9-1.9-1.9c-1.1,0-1.9,0.9-1.9,1.9c0,1.1,0.9,1.9,1.9,1.9C228.4,210.2,229.3,209.3,229.3,208.3"/>
	<path d="M216.9,250.1c0-1.1-0.9-1.9-1.9-1.9c-1.1,0-1.9,0.9-1.9,1.9c0,1.1,0.9,1.9,1.9,1.9C216.1,252,216.9,251.2,216.9,250.1"/>
	<path d="M137.8,213c0-1.1-0.9-1.9-1.9-1.9c-1.1,0-1.9,0.9-1.9,1.9c0,1.1,0.9,1.9,1.9,1.9C136.9,215,137.8,214.1,137.8,213"/>
	<path d="M124.9,213.6c0-1.1-0.9-1.9-1.9-1.9c-1.1,0-1.9,0.9-1.9,1.9c0,1.1,0.9,1.9,1.9,1.9C124.1,215.6,124.9,214.7,124.9,213.6"/>
	<path d="M120.2,217.9c0-1.1-0.9-1.9-1.9-1.9c-1.1,0-1.9,0.9-1.9,1.9s0.9,1.9,1.9,1.9C119.4,219.8,120.2,218.9,120.2,217.9"/>
	<path d="M104.2,172.3c0-1.1-0.9-1.9-1.9-1.9c-1.1,0-1.9,0.9-1.9,1.9c0,1.1,0.9,1.9,1.9,1.9C103.4,174.2,104.2,173.3,104.2,172.3"/>
	<path d="M85,189.9c0-1.1-0.9-1.9-1.9-1.9c-1.1,0-1.9,0.9-1.9,1.9c0,1.1,0.9,1.9,1.9,1.9C84.1,191.9,85,191,85,189.9"/>
	<path d="M241.5,174.5c0-1.1-0.9-1.9-1.9-1.9c-1.1,0-1.9,0.9-1.9,1.9c0,1.1,0.9,1.9,1.9,1.9C240.6,176.4,241.5,175.5,241.5,174.5"/>
	<path d="M264.2,197.3c0-1.1-0.9-1.9-1.9-1.9c-1.1,0-1.9,0.9-1.9,1.9c0,1.1,0.9,1.9,1.9,1.9C263.3,199.2,264.2,198.4,264.2,197.3"/>
	<path d="M294.3,329.7c0-1.1-0.9-1.9-1.9-1.9c-1.1,0-1.9,0.9-1.9,1.9c0,1.1,0.9,1.9,1.9,1.9C293.4,331.6,294.3,330.7,294.3,329.7"/>
	<path d="M290.4,335.6c0-1.1-0.9-1.9-1.9-1.9c-1.1,0-1.9,0.9-1.9,1.9c0,1.1,0.9,1.9,1.9,1.9C289.6,337.5,290.4,336.6,290.4,335.6"/>
	<path d="M244,201.7c0-1.1-0.9-1.9-1.9-1.9c-1.1,0-1.9,0.9-1.9,1.9c0,1.1,0.9,1.9,1.9,1.9C243.2,203.6,244,202.8,244,201.7"/>
	<path d="M123.6,197.5c0-1.1-0.9-1.9-1.9-1.9c-1.1,0-1.9,0.9-1.9,1.9s0.9,1.9,1.9,1.9C122.7,199.5,123.6,198.6,123.6,197.5"/>
	<path d="M143.5,180.2c0-1.1-0.9-1.9-1.9-1.9c-1.1,0-1.9,0.9-1.9,1.9c0,1.1,0.9,1.9,1.9,1.9C142.7,182.2,143.5,181.3,143.5,180.2"/>
	<path d="M90.3,179.3c0-1.1-0.9-1.9-1.9-1.9c-1.1,0-1.9,0.9-1.9,1.9s0.9,1.9,1.9,1.9C89.5,181.2,90.3,180.4,90.3,179.3"/>
	<path d="M88.3,195c0-1.1-0.9-1.9-1.9-1.9c-1.1,0-1.9,0.9-1.9,1.9c0,1.1,0.9,1.9,1.9,1.9C87.5,196.9,88.3,196.1,88.3,195"/>
	<path d="M98.2,191.7c0-1.1-0.9-1.9-1.9-1.9c-1.1,0-1.9,0.9-1.9,1.9c0,1.1,0.9,1.9,1.9,1.9C97.3,193.6,98.2,192.7,98.2,191.7"/>
	<path d="M57.2,200.7c0-1.1-0.9-1.9-1.9-1.9c-1.1,0-1.9,0.9-1.9,1.9s0.9,1.9,1.9,1.9C56.3,202.7,57.2,201.8,57.2,200.7"/>
	<path d="M149,194.4c0-1.1-0.9-1.9-1.9-1.9c-1.1,0-1.9,0.9-1.9,1.9s0.9,1.9,1.9,1.9C148.2,196.3,149,195.5,149,194.4"/>
	<path d="M228,166c0-1.1-0.9-1.9-1.9-1.9c-1.1,0-1.9,0.9-1.9,1.9c0,1.1,0.9,1.9,1.9,1.9C227.2,167.9,228,167,228,166"/>
	<path d="M49.5,171c0-1.1-0.9-1.9-1.9-1.9c-1.1,0-1.9,0.9-1.9,1.9c0,1.1,0.9,1.9,1.9,1.9C48.7,173,49.5,172.1,49.5,171"/>
	<path d="M51.2,165.3c0-1.1-0.9-1.9-1.9-1.9c-1.1,0-1.9,0.9-1.9,1.9c0,1.1,0.9,1.9,1.9,1.9C50.3,167.3,51.2,166.4,51.2,165.3"/>
	<path d="M111,188.1c0-1.1-0.9-1.9-1.9-1.9c-1.1,0-1.9,0.9-1.9,1.9c0,1.1,0.9,1.9,1.9,1.9C110.1,190,111,189.2,111,188.1"/>
	<path d="M92.4,214.1c0-1.1-0.9-1.9-1.9-1.9c-1.1,0-1.9,0.9-1.9,1.9c0,1.1,0.9,1.9,1.9,1.9C91.5,216.1,92.4,215.2,92.4,214.1"/>
	<path d="M238.1,83.5c0-1.1-0.9-1.9-1.9-1.9c-1.1,0-1.9,0.9-1.9,1.9s0.9,1.9,1.9,1.9C237.3,85.4,238.1,84.5,238.1,83.5"/>
	<path d="M240,68.4c0-1.1-0.9-1.9-1.9-1.9c-1.1,0-1.9,0.9-1.9,1.9c0,1.1,0.9,1.9,1.9,1.9C239.2,70.4,240,69.5,240,68.4"/>
	<path d="M94.4,196.7c0-1.1-0.9-1.9-1.9-1.9c-1.1,0-1.9,0.9-1.9,1.9s0.9,1.9,1.9,1.9C93.5,198.7,94.4,197.8,94.4,196.7"/>
	<path d="M78.9,209.7c0-1.1-0.9-1.9-1.9-1.9c-1.1,0-1.9,0.9-1.9,1.9c0,1.1,0.9,1.9,1.9,1.9C78,211.7,78.9,210.8,78.9,209.7"/>
	<path d="M221.7,146.7c0-1.1-0.9-1.9-1.9-1.9c-1.1,0-1.9,0.9-1.9,1.9c0,1.1,0.9,1.9,1.9,1.9C220.8,148.7,221.7,147.8,221.7,146.7"/>
	<path d="M233.5,139c0-1.1-0.9-1.9-1.9-1.9c-1.1,0-1.9,0.9-1.9,1.9c0,1.1,0.9,1.9,1.9,1.9C232.6,141,233.5,140.1,233.5,139"/>
	<path d="M263.4,173.5c0-1.1-0.9-1.9-1.9-1.9s-1.9,0.9-1.9,1.9s0.9,1.9,1.9,1.9S263.4,174.5,263.4,173.5"/>
	<path d="M100.4,238.8c0-1.1-0.9-1.9-1.9-1.9s-1.9,0.9-1.9,1.9c0,1.1,0.9,1.9,1.9,1.9S100.4,239.9,100.4,238.8"/>
	<path d="M107.2,238.9c0-1.1-0.9-1.9-1.9-1.9c-1.1,0-1.9,0.9-1.9,1.9c0,1.1,0.9,1.9,1.9,1.9C106.3,240.9,107.2,240,107.2,238.9"/>
	<path d="M89.5,143.3c0-1.1-0.9-1.9-1.9-1.9c-1.1,0-1.9,0.9-1.9,1.9c0,1.1,0.9,1.9,1.9,1.9C88.6,145.2,89.5,144.3,89.5,143.3"/>
	<path d="M286.7,158.6c0-1.1-0.9-1.9-1.9-1.9c-1.1,0-1.9,0.9-1.9,1.9c0,1.1,0.9,1.9,1.9,1.9C285.8,160.6,286.7,159.7,286.7,158.6"/>
	<path d="M190.3,166.7c0-1.1-0.9-1.9-1.9-1.9c-1.1,0-1.9,0.9-1.9,1.9c0,1.1,0.9,1.9,1.9,1.9C189.4,168.6,190.3,167.7,190.3,166.7"/>
	<path d="M234.4,65.5c0-1.1-0.9-1.9-1.9-1.9c-1.1,0-1.9,0.9-1.9,1.9c0,1.1,0.9,1.9,1.9,1.9C233.5,67.5,234.4,66.6,234.4,65.5"/>
	<path d="M109.1,176.1c0-1.1-0.9-1.9-1.9-1.9s-1.9,0.9-1.9,1.9c0,1.1,0.9,1.9,1.9,1.9S109.1,177.1,109.1,176.1"/>
	<path d="M105.9,200.3c0-1.1-0.9-1.9-1.9-1.9c-1.1,0-1.9,0.9-1.9,1.9c0,1.1,0.9,1.9,1.9,1.9C105.1,202.2,105.9,201.3,105.9,200.3"/>
	<path d="M164.6,74.7c0-1.1-0.9-1.9-1.9-1.9s-1.9,0.9-1.9,1.9c0,1.1,0.9,1.9,1.9,1.9S164.6,75.8,164.6,74.7"/>
	<path d="M166.5,68.8c0-1.1-0.9-1.9-1.9-1.9s-1.9,0.9-1.9,1.9c0,1.1,0.9,1.9,1.9,1.9S166.5,69.8,166.5,68.8"/>
	<path d="M79.1,195c0-1.1-0.9-1.9-1.9-1.9c-1.1,0-1.9,0.9-1.9,1.9c0,1.1,0.9,1.9,1.9,1.9C78.2,196.9,79.1,196,79.1,195"/>
	<path d="M87,232.2c0-1.1-0.9-1.9-1.9-1.9s-1.9,0.9-1.9,1.9c0,1.1,0.9,1.9,1.9,1.9S87,233.2,87,232.2"/>
	<path d="M72.8,228c0-1.1-0.9-1.9-1.9-1.9c-1.1,0-1.9,0.9-1.9,1.9c0,1.1,0.9,1.9,1.9,1.9C71.9,230,72.8,229.1,72.8,228"/>
	<path d="M179.1,169.4c0-1.1-0.9-1.9-1.9-1.9c-1.1,0-1.9,0.9-1.9,1.9c0,1.1,0.9,1.9,1.9,1.9C178.2,171.3,179.1,170.5,179.1,169.4"/>
	<path d="M183,174.2c0-1.1-0.9-1.9-1.9-1.9c-1.1,0-1.9,0.9-1.9,1.9c0,1.1,0.9,1.9,1.9,1.9C182.2,176.1,183,175.2,183,174.2"/>
	<path d="M217,262.2c0-1.1-0.9-1.9-1.9-1.9s-1.9,0.9-1.9,1.9c0,1.1,0.9,1.9,1.9,1.9S217,263.2,217,262.2"/>
	<path d="M163.5,81.6c0-1.1-0.9-1.9-1.9-1.9s-1.9,0.9-1.9,1.9c0,1.1,0.9,1.9,1.9,1.9S163.5,82.7,163.5,81.6"/>
	<path d="M195.4,173.5c0-1.1-0.9-1.9-1.9-1.9c-1.1,0-1.9,0.9-1.9,1.9s0.9,1.9,1.9,1.9C194.6,175.5,195.4,174.6,195.4,173.5"/>
	<path d="M102.2,178.1c0-1.1-0.9-1.9-1.9-1.9c-1.1,0-1.9,0.9-1.9,1.9c0,1.1,0.9,1.9,1.9,1.9C101.4,180.1,102.2,179.2,102.2,178.1"/>
	<path d="M97.9,172.3c0-1.1-0.9-1.9-1.9-1.9c-1.1,0-1.9,0.9-1.9,1.9c0,1.1,0.9,1.9,1.9,1.9C97,174.3,97.9,173.4,97.9,172.3"/>
	<path d="M100.3,197.1c0-1.1-0.9-1.9-1.9-1.9c-1.1,0-1.9,0.9-1.9,1.9s0.9,1.9,1.9,1.9C99.5,199,100.3,198.2,100.3,197.1"/>
	<path d="M275.5,211.3c0-1.1-0.9-1.9-1.9-1.9c-1.1,0-1.9,0.9-1.9,1.9c0,1.1,0.9,1.9,1.9,1.9C274.6,213.2,275.5,212.4,275.5,211.3"/>
	<path d="M262,188.6c0-1.1-0.9-1.9-1.9-1.9s-1.9,0.9-1.9,1.9c0,1.1,0.9,1.9,1.9,1.9S262,189.7,262,188.6"/>
	<path d="M68.3,222.4c0-1.1-0.9-1.9-1.9-1.9s-1.9,0.9-1.9,1.9c0,1.1,0.9,1.9,1.9,1.9S68.3,223.5,68.3,222.4"/>
	<path d="M190.8,153.1c0-1.1-0.9-1.9-1.9-1.9c-1.1,0-1.9,0.9-1.9,1.9c0,1.1,0.9,1.9,1.9,1.9C189.9,155.1,190.8,154.2,190.8,153.1"/>
	<path d="M123.1,206.2c0-1.1-0.9-1.9-1.9-1.9s-1.9,0.9-1.9,1.9c0,1.1,0.9,1.9,1.9,1.9S123.1,207.3,123.1,206.2"/>
	<path d="M116.2,190.5c0-1.1-0.9-1.9-1.9-1.9c-1.1,0-1.9,0.9-1.9,1.9c0,1.1,0.9,1.9,1.9,1.9C115.4,192.4,116.2,191.6,116.2,190.5"/>
	<path d="M133.6,200.7c0-1.1-0.9-1.9-1.9-1.9s-1.9,0.9-1.9,1.9c0,1.1,0.9,1.9,1.9,1.9S133.6,201.8,133.6,200.7"/>
	<path d="M141.1,166.9c0-1.1-0.9-1.9-1.9-1.9c-1.1,0-1.9,0.9-1.9,1.9c0,1.1,0.9,1.9,1.9,1.9C140.3,168.9,141.1,168,141.1,166.9"/>
	<path d="M161.5,159.7c0-1.1-0.9-1.9-1.9-1.9s-1.9,0.9-1.9,1.9c0,1.1,0.9,1.9,1.9,1.9S161.5,160.8,161.5,159.7"/>
	<path d="M174.9,105.4c0-1.1-0.9-1.9-1.9-1.9s-1.9,0.9-1.9,1.9c0,1.1,0.9,1.9,1.9,1.9S174.9,106.5,174.9,105.4"/>
	<path d="M113.6,195.8c0-1.1-0.9-1.9-1.9-1.9c-1.1,0-1.9,0.9-1.9,1.9c0,1.1,0.9,1.9,1.9,1.9C112.8,197.7,113.6,196.8,113.6,195.8"/>
	<path d="M215.8,221.7c0-1.1-0.9-1.9-1.9-1.9c-1.1,0-1.9,0.9-1.9,1.9c0,1.1,0.9,1.9,1.9,1.9C215,223.7,215.8,222.8,215.8,221.7"/>
	<path d="M116.6,177.5c0-1.1-0.9-1.9-1.9-1.9c-1.1,0-1.9,0.9-1.9,1.9c0,1.1,0.9,1.9,1.9,1.9C115.7,179.4,116.6,178.5,116.6,177.5"/>
	<path d="M106.2,183c0-1.1-0.9-1.9-1.9-1.9c-1.1,0-1.9,0.9-1.9,1.9c0,1.1,0.9,1.9,1.9,1.9C105.3,185,106.2,184.1,106.2,183"/>
	<path d="M112.1,181.6c0-1.1-0.9-1.9-1.9-1.9c-1.1,0-1.9,0.9-1.9,1.9c0,1.1,0.9,1.9,1.9,1.9C111.2,183.6,112.1,182.7,112.1,181.6"/>
	<path d="M74.7,165.8c0-1.1-0.9-1.9-1.9-1.9s-1.9,0.9-1.9,1.9s0.9,1.9,1.9,1.9S74.7,166.9,74.7,165.8"/>
	<path d="M80.6,165.1c0-1.1-0.9-1.9-1.9-1.9c-1.1,0-1.9,0.9-1.9,1.9c0,1.1,0.9,1.9,1.9,1.9C79.7,167.1,80.6,166.2,80.6,165.1"/>
	<path d="M94.7,221c0-1.1-0.9-1.9-1.9-1.9s-1.9,0.9-1.9,1.9s0.9,1.9,1.9,1.9S94.7,222.1,94.7,221"/>
	<path d="M59.6,193.7c0-1.1-0.9-1.9-1.9-1.9c-1.1,0-1.9,0.9-1.9,1.9c0,1.1,0.9,1.9,1.9,1.9C58.8,195.7,59.6,194.8,59.6,193.7"/>
	<path d="M132.7,180.2c0-1.1-0.9-1.9-1.9-1.9c-1.1,0-1.9,0.9-1.9,1.9c0,1.1,0.9,1.9,1.9,1.9C131.9,182.1,132.7,181.3,132.7,180.2"/>
	<path d="M148,221.1c0-1.1-0.9-1.9-1.9-1.9c-1.1,0-1.9,0.9-1.9,1.9c0,1.1,0.9,1.9,1.9,1.9C147.1,223.1,148,222.2,148,221.1"/>
	<path d="M110.7,131.4c0-1.1-0.9-1.9-1.9-1.9c-1.1,0-1.9,0.9-1.9,1.9c0,1.1,0.9,1.9,1.9,1.9C109.9,133.3,110.7,132.4,110.7,131.4"/>
	<path d="M128.2,134c0-1.1-0.9-1.9-1.9-1.9c-1.1,0-1.9,0.9-1.9,1.9c0,1.1,0.9,1.9,1.9,1.9C127.4,135.9,128.2,135.1,128.2,134"/>
	<path d="M134.2,243.6c0-1.1-0.9-1.9-1.9-1.9c-1.1,0-1.9,0.9-1.9,1.9c0,1.1,0.9,1.9,1.9,1.9C133.3,245.5,134.2,244.7,134.2,243.6"/>
	<path d="M262,221.9c0-1.1-0.9-1.9-1.9-1.9c-1.1,0-1.9,0.9-1.9,1.9c0,1.1,0.9,1.9,1.9,1.9C261.1,223.9,262,223,262,221.9"/>
	<path d="M259.1,200.6c0-1.1-0.9-1.9-1.9-1.9s-1.9,0.9-1.9,1.9c0,1.1,0.9,1.9,1.9,1.9S259.1,201.6,259.1,200.6"/>
	<path d="M115.5,138.8c0-1.1-0.9-1.9-1.9-1.9s-1.9,0.9-1.9,1.9c0,1.1,0.9,1.9,1.9,1.9S115.5,139.8,115.5,138.8"/>
	<path d="M84.1,177.3c0-1.1-0.9-1.9-1.9-1.9c-1.1,0-1.9,0.9-1.9,1.9c0,1.1,0.9,1.9,1.9,1.9C83.2,179.2,84.1,178.4,84.1,177.3"/>
	<path d="M123.9,166.7c0-1.1-0.9-1.9-1.9-1.9c-1.1,0-1.9,0.9-1.9,1.9c0,1.1,0.9,1.9,1.9,1.9C123,168.6,123.9,167.7,123.9,166.7"/>
	<path d="M122.8,190.7c0-1.1-0.9-1.9-1.9-1.9c-1.1,0-1.9,0.9-1.9,1.9c0,1.1,0.9,1.9,1.9,1.9C122,192.7,122.8,191.8,122.8,190.7"/>
	<path d="M171.1,207.7c0-1.1-0.9-1.9-1.9-1.9c-1.1,0-1.9,0.9-1.9,1.9c0,1.1,0.9,1.9,1.9,1.9C170.3,209.6,171.1,208.8,171.1,207.7"/>
	<path d="M144,199.1c0-1.1-0.9-1.9-1.9-1.9c-1.1,0-1.9,0.9-1.9,1.9c0,1.1,0.9,1.9,1.9,1.9C143.2,201,144,200.1,144,199.1"/>
	<path d="M192.3,126.3c0-1.1-0.9-1.9-1.9-1.9c-1.1,0-1.9,0.9-1.9,1.9c0,1.1,0.9,1.9,1.9,1.9C191.5,128.2,192.3,127.3,192.3,126.3"/>
	<path d="M134.3,168.2c0-1.1-0.9-1.9-1.9-1.9c-1.1,0-1.9,0.9-1.9,1.9c0,1.1,0.9,1.9,1.9,1.9C133.4,170.1,134.3,169.3,134.3,168.2"/>
	<path d="M174.1,195.6c0-1.1-0.9-1.9-1.9-1.9c-1.1,0-1.9,0.9-1.9,1.9c0,1.1,0.9,1.9,1.9,1.9C173.2,197.6,174.1,196.7,174.1,195.6"/>
	<path d="M96.3,178.3c0-1.1-0.9-1.9-1.9-1.9c-1.1,0-1.9,0.9-1.9,1.9c0,1.1,0.9,1.9,1.9,1.9C95.5,180.3,96.3,179.4,96.3,178.3"/>
	<path d="M147.8,204.8c0-1.1-0.9-1.9-1.9-1.9c-1.1,0-1.9,0.9-1.9,1.9c0,1.1,0.9,1.9,1.9,1.9C146.9,206.7,147.8,205.9,147.8,204.8"/>
	<path d="M168.1,146.5c0-1.1-0.9-1.9-1.9-1.9c-1.1,0-1.9,0.9-1.9,1.9c0,1.1,0.9,1.9,1.9,1.9C167.3,148.4,168.1,147.6,168.1,146.5"/>
	<path d="M153.5,147.2c0-1.1-0.9-1.9-1.9-1.9s-1.9,0.9-1.9,1.9c0,1.1,0.9,1.9,1.9,1.9S153.5,148.3,153.5,147.2"/>
	<path d="M99.9,184.6c0-1.1-0.9-1.9-1.9-1.9c-1.1,0-1.9,0.9-1.9,1.9c0,1.1,0.9,1.9,1.9,1.9C99,186.5,99.9,185.7,99.9,184.6"/>
	<path d="M255.3,130.5c0-1.1-0.9-1.9-1.9-1.9c-1.1,0-1.9,0.9-1.9,1.9c0,1.1,0.9,1.9,1.9,1.9C254.5,132.5,255.3,131.6,255.3,130.5"/>
	<path d="M158.6,226.1c0-1.1-0.9-1.9-1.9-1.9c-1.1,0-1.9,0.9-1.9,1.9c0,1.1,0.9,1.9,1.9,1.9C157.8,228,158.6,227.2,158.6,226.1"/>
	<path d="M157.9,76.9c0-1.1-0.9-1.9-1.9-1.9c-1.1,0-1.9,0.9-1.9,1.9c0,1.1,0.9,1.9,1.9,1.9C157.1,78.8,157.9,78,157.9,76.9"/>
	<path d="M107.7,194.1c0-1.1-0.9-1.9-1.9-1.9c-1.1,0-1.9,0.9-1.9,1.9c0,1.1,0.9,1.9,1.9,1.9C106.9,196.1,107.7,195.2,107.7,194.1"/>
	<path d="M256.3,148.1c0-1.1-0.9-1.9-1.9-1.9c-1.1,0-1.9,0.9-1.9,1.9c0,1.1,0.9,1.9,1.9,1.9C255.5,150.1,256.3,149.2,256.3,148.1"/>
	<path d="M82.1,204.9c0-1.1-0.9-1.9-1.9-1.9s-1.9,0.9-1.9,1.9s0.9,1.9,1.9,1.9S82.1,206,82.1,204.9"/>
	<path d="M137.8,125.4c0-1.1-0.9-1.9-1.9-1.9c-1.1,0-1.9,0.9-1.9,1.9s0.9,1.9,1.9,1.9C136.9,127.3,137.8,126.5,137.8,125.4"/>
	<path d="M147.3,235.6c0-1.1-0.9-1.9-1.9-1.9c-1.1,0-1.9,0.9-1.9,1.9c0,1.1,0.9,1.9,1.9,1.9C146.5,237.6,147.3,236.7,147.3,235.6"/>
	<path d="M93.7,184.9c0-1.1-0.9-1.9-1.9-1.9c-1.1,0-1.9,0.9-1.9,1.9c0,1.1,0.9,1.9,1.9,1.9C92.8,186.8,93.7,186,93.7,184.9"/>
	<path d="M135.6,218.9c0-1.1-0.9-1.9-1.9-1.9s-1.9,0.9-1.9,1.9c0,1.1,0.9,1.9,1.9,1.9S135.6,219.9,135.6,218.9"/>
	<path d="M210.4,209c0-1.1-0.9-1.9-1.9-1.9c-1.1,0-1.9,0.9-1.9,1.9c0,1.1,0.9,1.9,1.9,1.9C209.5,211,210.4,210.1,210.4,209"/>
	<path d="M91.7,173.5c0-1.1-0.9-1.9-1.9-1.9c-1.1,0-1.9,0.9-1.9,1.9c0,1.1,0.9,1.9,1.9,1.9C90.9,175.5,91.7,174.6,91.7,173.5"/>
	<path d="M174.9,165c0-1.1-0.9-1.9-1.9-1.9c-1.1,0-1.9,0.9-1.9,1.9c0,1.1,0.9,1.9,1.9,1.9C174,167,174.9,166.1,174.9,165"/>
	<path d="M53,176.5c0-1.1-0.9-1.9-1.9-1.9c-1.1,0-1.9,0.9-1.9,1.9c0,1.1,0.9,1.9,1.9,1.9C52.1,178.4,53,177.5,53,176.5"/>
	<path d="M182,180.3c0-1.1-0.9-1.9-1.9-1.9c-1.1,0-1.9,0.9-1.9,1.9c0,1.1,0.9,1.9,1.9,1.9C181.1,182.2,182,181.3,182,180.3"/>
	<path d="M77.1,152.9c0-1.1-0.9-1.9-1.9-1.9c-1.1,0-1.9,0.9-1.9,1.9c0,1.1,0.9,1.9,1.9,1.9C76.2,154.8,77.1,154,77.1,152.9"/>
	<path d="M181.5,153.2c0-1.1-0.9-1.9-1.9-1.9c-1.1,0-1.9,0.9-1.9,1.9s0.9,1.9,1.9,1.9C180.6,155.1,181.5,154.3,181.5,153.2"/>
	<path d="M139.7,203.6c0-1.1-0.9-1.9-1.9-1.9c-1.1,0-1.9,0.9-1.9,1.9c0,1.1,0.9,1.9,1.9,1.9C138.8,205.6,139.7,204.7,139.7,203.6"/>
	<path d="M113.9,157.4c0-1.1-0.9-1.9-1.9-1.9c-1.1,0-1.9,0.9-1.9,1.9c0,1.1,0.9,1.9,1.9,1.9C113.1,159.4,113.9,158.5,113.9,157.4"/>
	<path d="M296.4,335.8c0-1.1-0.9-1.9-1.9-1.9c-1.1,0-1.9,0.9-1.9,1.9c0,1.1,0.9,1.9,1.9,1.9C295.5,337.7,296.4,336.9,296.4,335.8"/>
	<path d="M120.3,227.6c0-1.1-0.9-1.9-1.9-1.9c-1.1,0-1.9,0.9-1.9,1.9c0,1.1,0.9,1.9,1.9,1.9C119.5,229.5,120.3,228.7,120.3,227.6"/>
	<path d="M215.7,125.9c0-1.1-0.9-1.9-1.9-1.9s-1.9,0.9-1.9,1.9c0,1.1,0.9,1.9,1.9,1.9S215.7,127,215.7,125.9"/>
	<path d="M206,137.8c0-1.1-0.9-1.9-1.9-1.9s-1.9,0.9-1.9,1.9c0,1.1,0.9,1.9,1.9,1.9S206,138.9,206,137.8"/>
	<path d="M156,195.8c0-1.1-0.9-1.9-1.9-1.9c-1.1,0-1.9,0.9-1.9,1.9c0,1.1,0.9,1.9,1.9,1.9C155.2,197.7,156,196.8,156,195.8"/>
	<path d="M126.7,219.7c0-1.1-0.9-1.9-1.9-1.9s-1.9,0.9-1.9,1.9c0,1.1,0.9,1.9,1.9,1.9S126.7,220.8,126.7,219.7"/>
	<path d="M94.8,202.9c0-1.1-0.9-1.9-1.9-1.9c-1.1,0-1.9,0.9-1.9,1.9c0,1.1,0.9,1.9,1.9,1.9C93.9,204.9,94.8,204,94.8,202.9"/>
	<path d="M209.7,183.8c0-1.1-0.9-1.9-1.9-1.9s-1.9,0.9-1.9,1.9c0,1.1,0.9,1.9,1.9,1.9S209.7,184.9,209.7,183.8"/>
	<path d="M85.8,200.3c0-1.1-0.9-1.9-1.9-1.9s-1.9,0.9-1.9,1.9s0.9,1.9,1.9,1.9S85.8,201.4,85.8,200.3"/>
	<path d="M275.1,71.2c0-1.1-0.9-1.9-1.9-1.9c-1.1,0-1.9,0.9-1.9,1.9c0,1.1,0.9,1.9,1.9,1.9C274.2,73.1,275.1,72.3,275.1,71.2"/>
	<path d="M280.3,74.7c0-1.1-0.9-1.9-1.9-1.9c-1.1,0-1.9,0.9-1.9,1.9s0.9,1.9,1.9,1.9C279.4,76.7,280.3,75.8,280.3,74.7"/>
	<path d="M68.2,166.3c0-1.1-0.9-1.9-1.9-1.9c-1.1,0-1.9,0.9-1.9,1.9c0,1.1,0.9,1.9,1.9,1.9C67.3,168.3,68.2,167.4,68.2,166.3"/>
	<path d="M183.1,91.2c0-1.1-0.9-1.9-1.9-1.9c-1.1,0-1.9,0.9-1.9,1.9c0,1.1,0.9,1.9,1.9,1.9C182.3,93.1,183.1,92.2,183.1,91.2"/>
	<path d="M138,196.4c0-1.1-0.9-1.9-1.9-1.9c-1.1,0-1.9,0.9-1.9,1.9c0,1.1,0.9,1.9,1.9,1.9C137.1,198.4,138,197.5,138,196.4"/>
	<path d="M107.1,226.5c0-1.1-0.9-1.9-1.9-1.9s-1.9,0.9-1.9,1.9c0,1.1,0.9,1.9,1.9,1.9S107.1,227.5,107.1,226.5"/>
	<path d="M233.8,77.5c0-1.1-0.9-1.9-1.9-1.9c-1.1,0-1.9,0.9-1.9,1.9s0.9,1.9,1.9,1.9C233,79.5,233.8,78.6,233.8,77.5"/>
	<path d="M130,195.8c0-1.1-0.9-1.9-1.9-1.9c-1.1,0-1.9,0.9-1.9,1.9c0,1.1,0.9,1.9,1.9,1.9C129.1,197.8,130,196.9,130,195.8"/>
	<path d="M99.7,159.3c0-1.1-0.9-1.9-1.9-1.9c-1.1,0-1.9,0.9-1.9,1.9c0,1.1,0.9,1.9,1.9,1.9C98.8,161.3,99.7,160.4,99.7,159.3"/>
	<path d="M221,256.7c0-1.1-0.9-1.9-1.9-1.9c-1.1,0-1.9,0.9-1.9,1.9c0,1.1,0.9,1.9,1.9,1.9C220.1,258.6,221,257.8,221,256.7"/>
	<path d="M120.7,236.3c0-1.1-0.9-1.9-1.9-1.9c-1.1,0-1.9,0.9-1.9,1.9c0,1.1,0.9,1.9,1.9,1.9C119.8,238.2,120.7,237.4,120.7,236.3"/>
	<path d="M90.3,207.5c0-1.1-0.9-1.9-1.9-1.9s-1.9,0.9-1.9,1.9c0,1.1,0.9,1.9,1.9,1.9S90.3,208.5,90.3,207.5"/>
	<path d="M119,133.4c0-1.1-0.9-1.9-1.9-1.9c-1.1,0-1.9,0.9-1.9,1.9c0,1.1,0.9,1.9,1.9,1.9C118.1,135.4,119,134.5,119,133.4"/>
	<path d="M272.2,224.4c0-1.1-0.9-1.9-1.9-1.9s-1.9,0.9-1.9,1.9c0,1.1,0.9,1.9,1.9,1.9S272.2,225.4,272.2,224.4"/>
	<path d="M73.3,179.7c0-1.1-0.9-1.9-1.9-1.9c-1.1,0-1.9,0.9-1.9,1.9c0,1.1,0.9,1.9,1.9,1.9C72.4,181.6,73.3,180.7,73.3,179.7"/>
	<path d="M92.2,190.7c0-1.1-0.9-1.9-1.9-1.9s-1.9,0.9-1.9,1.9c0,1.1,0.9,1.9,1.9,1.9S92.2,191.7,92.2,190.7"/>
	<path d="M161.5,119.2c0-1.1-0.9-1.9-1.9-1.9c-1.1,0-1.9,0.9-1.9,1.9c0,1.1,0.9,1.9,1.9,1.9C160.7,121.1,161.5,120.2,161.5,119.2"/>
	<path d="M176.2,75.3c0-1.1-0.9-1.9-1.9-1.9c-1.1,0-1.9,0.9-1.9,1.9c0,1.1,0.9,1.9,1.9,1.9C175.4,77.3,176.2,76.4,176.2,75.3"/>
	<path d="M242.8,150c0-1.1-0.9-1.9-1.9-1.9c-1.1,0-1.9,0.9-1.9,1.9c0,1.1,0.9,1.9,1.9,1.9C242,151.9,242.8,151,242.8,150"/>
	<path d="M116.2,206.3c0-1.1-0.9-1.9-1.9-1.9c-1.1,0-1.9,0.9-1.9,1.9c0,1.1,0.9,1.9,1.9,1.9C115.3,208.3,116.2,207.4,116.2,206.3"/>
	<path d="M236,191.4c0-1.1-0.9-1.9-1.9-1.9c-1.1,0-1.9,0.9-1.9,1.9c0,1.1,0.9,1.9,1.9,1.9C235.1,193.3,236,192.4,236,191.4"/>
	<path d="M154.6,159.6c0-1.1-0.9-1.9-1.9-1.9c-1.1,0-1.9,0.9-1.9,1.9c0,1.1,0.9,1.9,1.9,1.9C153.7,161.5,154.6,160.6,154.6,159.6"/>
	<path d="M130.4,190c0-1.1-0.9-1.9-1.9-1.9c-1.1,0-1.9,0.9-1.9,1.9s0.9,1.9,1.9,1.9C129.5,191.9,130.4,191,130.4,190"/>
	<path d="M255.7,187.6c0-1.1-0.9-1.9-1.9-1.9c-1.1,0-1.9,0.9-1.9,1.9c0,1.1,0.9,1.9,1.9,1.9C254.9,189.5,255.7,188.7,255.7,187.6"/>
	<path d="M154.2,190.2c0-1.1-0.9-1.9-1.9-1.9c-1.1,0-1.9,0.9-1.9,1.9c0,1.1,0.9,1.9,1.9,1.9C153.4,192.1,154.2,191.2,154.2,190.2"/>
	<path d="M142.5,240.3c0-1.1-0.9-1.9-1.9-1.9c-1.1,0-1.9,0.9-1.9,1.9c0,1.1,0.9,1.9,1.9,1.9C141.6,242.3,142.5,241.4,142.5,240.3"/>
	<path d="M168.2,139.5c0-1.1-0.9-1.9-1.9-1.9c-1.1,0-1.9,0.9-1.9,1.9c0,1.1,0.9,1.9,1.9,1.9C167.3,141.4,168.2,140.5,168.2,139.5"/>
	<path d="M166.8,25.1c0-1.1-0.9-1.9-1.9-1.9c-1.1,0-1.9,0.9-1.9,1.9c0,1.1,0.9,1.9,1.9,1.9C165.9,27,166.8,26.1,166.8,25.1"/>
	<path d="M170.7,14.2c0-1.1-0.9-1.9-1.9-1.9c-1.1,0-1.9,0.9-1.9,1.9c0,1.1,0.9,1.9,1.9,1.9C169.8,16.1,170.7,15.3,170.7,14.2"/>
	<path d="M134.5,207.6c0-1.1-0.9-1.9-1.9-1.9c-1.1,0-1.9,0.9-1.9,1.9c0,1.1,0.9,1.9,1.9,1.9C133.6,209.5,134.5,208.6,134.5,207.6"/>
	<path d="M104.3,188.7c0-1.1-0.9-1.9-1.9-1.9c-1.1,0-1.9,0.9-1.9,1.9c0,1.1,0.9,1.9,1.9,1.9C103.4,190.7,104.3,189.8,104.3,188.7"/>
	<path d="M160.9,70.3c0-1.1-0.9-1.9-1.9-1.9c-1.1,0-1.9,0.9-1.9,1.9c0,1.1,0.9,1.9,1.9,1.9C160,72.2,160.9,71.4,160.9,70.3"/>
	<path d="M119.4,211.5c0-1.1-0.9-1.9-1.9-1.9c-1.1,0-1.9,0.9-1.9,1.9c0,1.1,0.9,1.9,1.9,1.9C118.5,213.4,119.4,212.6,119.4,211.5"/>
	<path d="M304.3,166.2c0-1.1-0.9-1.9-1.9-1.9c-1.1,0-1.9,0.9-1.9,1.9c0,1.1,0.9,1.9,1.9,1.9C303.5,168.2,304.3,167.3,304.3,166.2"/>
	<path d="M178.2,191.3c0-1.1-0.9-1.9-1.9-1.9c-1.1,0-1.9,0.9-1.9,1.9c0,1.1,0.9,1.9,1.9,1.9C177.4,193.2,178.2,192.3,178.2,191.3"/>
	<path d="M277.3,80.3c0-1.1-0.9-1.9-1.9-1.9c-1.1,0-1.9,0.9-1.9,1.9s0.9,1.9,1.9,1.9C276.4,82.2,277.3,81.4,277.3,80.3"/>
	<path d="M140.4,189.1c0-1.1-0.9-1.9-1.9-1.9c-1.1,0-1.9,0.9-1.9,1.9c0,1.1,0.9,1.9,1.9,1.9C139.6,191.1,140.4,190.2,140.4,189.1"/>
	<path d="M209.6,97.3c0-1.1-0.9-1.9-1.9-1.9c-1.1,0-1.9,0.9-1.9,1.9c0,1.1,0.9,1.9,1.9,1.9C208.8,99.2,209.6,98.4,209.6,97.3"/>
	<path d="M73.6,160c0-1.1-0.9-1.9-1.9-1.9c-1.1,0-1.9,0.9-1.9,1.9c0,1.1,0.9,1.9,1.9,1.9C72.7,162,73.6,161.1,73.6,160"/>
	<path d="M134.3,158.3c0-1.1-0.9-1.9-1.9-1.9c-1.1,0-1.9,0.9-1.9,1.9c0,1.1,0.9,1.9,1.9,1.9C133.4,160.2,134.3,159.4,134.3,158.3"/>
	<path d="M68.1,193.5c0-1.1-0.9-1.9-1.9-1.9c-1.1,0-1.9,0.9-1.9,1.9c0,1.1,0.9,1.9,1.9,1.9C67.3,195.4,68.1,194.5,68.1,193.5"/>
	<path d="M117.2,184.7c0-1.1-0.9-1.9-1.9-1.9c-1.1,0-1.9,0.9-1.9,1.9s0.9,1.9,1.9,1.9C116.3,186.7,117.2,185.8,117.2,184.7"/>
	<path d="M263.1,161.8c0-1.1-0.9-1.9-1.9-1.9c-1.1,0-1.9,0.9-1.9,1.9c0,1.1,0.9,1.9,1.9,1.9C262.2,163.8,263.1,162.9,263.1,161.8"/>
	<path d="M269.6,146.3c0-1.1-0.9-1.9-1.9-1.9c-1.1,0-1.9,0.9-1.9,1.9s0.9,1.9,1.9,1.9C268.7,148.2,269.6,147.4,269.6,146.3"/>
	<path d="M85.8,221.6c0-1.1-0.9-1.9-1.9-1.9c-1.1,0-1.9,0.9-1.9,1.9c0,1.1,0.9,1.9,1.9,1.9C84.9,223.5,85.8,222.6,85.8,221.6"/>
	<path d="M110.4,208.8c0-1.1-0.9-1.9-1.9-1.9c-1.1,0-1.9,0.9-1.9,1.9c0,1.1,0.9,1.9,1.9,1.9C109.6,210.8,110.4,209.9,110.4,208.8"/>
	<path d="M106.1,166.3c0-1.1-0.9-1.9-1.9-1.9c-1.1,0-1.9,0.9-1.9,1.9c0,1.1,0.9,1.9,1.9,1.9C105.2,168.2,106.1,167.4,106.1,166.3"/>
	<path d="M181.9,164.1c0-1.1-0.9-1.9-1.9-1.9c-1.1,0-1.9,0.9-1.9,1.9c0,1.1,0.9,1.9,1.9,1.9C181,166,181.9,165.1,181.9,164.1"/>
	<path d="M99.2,216.6c0-1.1-0.9-1.9-1.9-1.9c-1.1,0-1.9,0.9-1.9,1.9s0.9,1.9,1.9,1.9C98.4,218.6,99.2,217.7,99.2,216.6"/>
	<path d="M228.8,175.5c0-1.1-0.9-1.9-1.9-1.9s-1.9,0.9-1.9,1.9c0,1.1,0.9,1.9,1.9,1.9S228.8,176.6,228.8,175.5"/>
	<path d="M107.1,214.7c0-1.1-0.9-1.9-1.9-1.9c-1.1,0-1.9,0.9-1.9,1.9c0,1.1,0.9,1.9,1.9,1.9C106.3,216.6,107.1,215.7,107.1,214.7"/>
	<path d="M111.9,202.4c0-1.1-0.9-1.9-1.9-1.9c-1.1,0-1.9,0.9-1.9,1.9c0,1.1,0.9,1.9,1.9,1.9C111,204.3,111.9,203.4,111.9,202.4"/>
	<path d="M131.1,214c0-1.1-0.9-1.9-1.9-1.9s-1.9,0.9-1.9,1.9c0,1.1,0.9,1.9,1.9,1.9S131.1,215.1,131.1,214"/>
	<path d="M141.1,133.2c0-1.1-0.9-1.9-1.9-1.9c-1.1,0-1.9,0.9-1.9,1.9c0,1.1,0.9,1.9,1.9,1.9C140.2,135.2,141.1,134.3,141.1,133.2"/>
	<path d="M273.1,193.2c0-1.1-0.9-1.9-1.9-1.9c-1.1,0-1.9,0.9-1.9,1.9s0.9,1.9,1.9,1.9C272.3,195.1,273.1,194.3,273.1,193.2"/>
	<path d="M118.3,200.5c0-1.1-0.9-1.9-1.9-1.9c-1.1,0-1.9,0.9-1.9,1.9c0,1.1,0.9,1.9,1.9,1.9C117.5,202.4,118.3,201.6,118.3,200.5"/>
	<path d="M290.4,132.2c0-1.1-0.9-1.9-1.9-1.9c-1.1,0-1.9,0.9-1.9,1.9c0,1.1,0.9,1.9,1.9,1.9C289.5,134.1,290.4,133.2,290.4,132.2"/>
	<path d="M109.8,161.8c0-1.1-0.9-1.9-1.9-1.9c-1.1,0-1.9,0.9-1.9,1.9c0,1.1,0.9,1.9,1.9,1.9C109,163.7,109.8,162.8,109.8,161.8"/>
	<path d="M170.4,74.3c0-1.1-0.9-1.9-1.9-1.9s-1.9,0.9-1.9,1.9c0,1.1,0.9,1.9,1.9,1.9S170.4,75.4,170.4,74.3"/>
	<path d="M113.2,214.4c0-1.1-0.9-1.9-1.9-1.9c-1.1,0-1.9,0.9-1.9,1.9c0,1.1,0.9,1.9,1.9,1.9C112.3,216.3,113.2,215.5,113.2,214.4"/>
	<path d="M127.7,202.5c0-1.1-0.9-1.9-1.9-1.9c-1.1,0-1.9,0.9-1.9,1.9c0,1.1,0.9,1.9,1.9,1.9C126.8,204.4,127.7,203.6,127.7,202.5"/>
	<path d="M106.2,145.1c0-1.1-0.9-1.9-1.9-1.9c-1.1,0-1.9,0.9-1.9,1.9c0,1.1,0.9,1.9,1.9,1.9C105.3,147.1,106.2,146.2,106.2,145.1"/>
	<path d="M142.9,208.6c0-1.1-0.9-1.9-1.9-1.9c-1.1,0-1.9,0.9-1.9,1.9c0,1.1,0.9,1.9,1.9,1.9C142.1,210.5,142.9,209.7,142.9,208.6"/>
	<path d="M123.2,152.5c0-1.1-0.9-1.9-1.9-1.9c-1.1,0-1.9,0.9-1.9,1.9c0,1.1,0.9,1.9,1.9,1.9C122.3,154.4,123.2,153.6,123.2,152.5"/>
	<path d="M85.9,171.3c0-1.1-0.9-1.9-1.9-1.9c-1.1,0-1.9,0.9-1.9,1.9c0,1.1,0.9,1.9,1.9,1.9C85,173.3,85.9,172.4,85.9,171.3"/>
	<path d="M196.5,117.4c0-1.1-0.9-1.9-1.9-1.9c-1.1,0-1.9,0.9-1.9,1.9s0.9,1.9,1.9,1.9C195.6,119.4,196.5,118.5,196.5,117.4"/>
	<path d="M154.6,214c0-1.1-0.9-1.9-1.9-1.9s-1.9,0.9-1.9,1.9s0.9,1.9,1.9,1.9S154.6,215.1,154.6,214"/>
	<path d="M175,112.5c0-1.1-0.9-1.9-1.9-1.9s-1.9,0.9-1.9,1.9s0.9,1.9,1.9,1.9S175,113.5,175,112.5"/>
	<path d="M149.8,139.4c0-1.1-0.9-1.9-1.9-1.9c-1.1,0-1.9,0.9-1.9,1.9c0,1.1,0.9,1.9,1.9,1.9C148.9,141.3,149.8,140.5,149.8,139.4"/>
	<path d="M70.4,204.9c0-1.1-0.9-1.9-1.9-1.9c-1.1,0-1.9,0.9-1.9,1.9c0,1.1,0.9,1.9,1.9,1.9C69.6,206.8,70.4,206,70.4,204.9"/>
	<path d="M111.9,124.9c0-1.1-0.9-1.9-1.9-1.9c-1.1,0-1.9,0.9-1.9,1.9c0,1.1,0.9,1.9,1.9,1.9C111,126.8,111.9,125.9,111.9,124.9"/>
	<path d="M193.7,196.1c0-1.1-0.9-1.9-1.9-1.9c-1.1,0-1.9,0.9-1.9,1.9c0,1.1,0.9,1.9,1.9,1.9C192.8,198,193.7,197.2,193.7,196.1"/>
	<path d="M140.7,146.5c0-1.1-0.9-1.9-1.9-1.9s-1.9,0.9-1.9,1.9c0,1.1,0.9,1.9,1.9,1.9S140.7,147.6,140.7,146.5"/>
</g>
</svg>
